<?xml version="1.0" encoding="UTF-8"?>
<svg id="_图层_1" data-name="图层 1" xmlns="http://www.w3.org/2000/svg" viewBox="0 0 224 211.16">
  <defs>
    <style>
      .cls-1, .cls-2 {
        fill: #8a6a4a;
      }

      .cls-3 {
        opacity: .31;
      }

      .cls-2 {
        font-family: Fredoka-Bold, Fredoka;
        font-size: 167.09px;
        font-weight: 700;
      }
    </style>
  </defs>
  <g class="cls-3">
    <text class="cls-2" transform="translate(53.07 160.91)"><tspan x="0" y="0">Q</tspan></text>
  </g>
  <path class="cls-1" d="M58.02,76.69c3.86,0,3.87-6,0-6s-3.87,6,0,6h0Z"/>
  <path class="cls-1" d="M59.89,75.9c5.58-.58,6-8.13.36-9.11-2.99-.52-5.28,1.44-7.49,3.15-3.5,2.7-7,5.4-10.51,8.1-3.02,2.32-.03,7.54,3.03,5.18,2.4-1.85,4.79-3.69,7.19-5.54,1.11-.85,2.21-1.7,3.32-2.56.55-.43,1.11-.85,1.66-1.28,1.21-.57,1.56-1.61,1.04-3.13l2.12-.88-.72.07c-3.8.39-3.84,6.4,0,6h0Z"/>
  <path class="cls-1" d="M50.92,84.79c4.89-.44,9.78-.88,14.67-1.32,3.81-.34,3.85-6.35,0-6-4.89.44-9.78.88-14.67,1.32-3.81.34-3.85,6.35,0,6h0Z"/>
  <path class="cls-1" d="M59.96,76.05c.9,1.92,1.8,3.84,2.7,5.76.69,1.47,2.8,1.84,4.1,1.08,1.5-.88,1.77-2.63,1.08-4.1-.9-1.92-1.8-3.84-2.7-5.76-.69-1.47-2.8-1.84-4.1-1.08-1.5.88-1.77,2.63-1.08,4.1h0Z"/>
  <path class="cls-1" d="M59.35,71.35c3.86,0,3.87-6,0-6s-3.87,6,0,6h0Z"/>
  <path class="cls-1" d="M63.25,66.51c2.52-10.36,11.16-18.47,21.87-19.75,3.79-.45,3.83-6.46,0-6-13.35,1.6-24.44,10.98-27.65,24.16-.91,3.75,4.87,5.35,5.79,1.6h0Z"/>
  <path class="cls-1" d="M82.91,47.35c3.86,0,3.87-6,0-6s-3.87,6,0,6h0Z"/>
  <path class="cls-1" d="M88.14,48.58c2.12,1.23,4.24,2.46,6.36,3.69,3.35,1.94,6.35-3.21,3.03-5.18-2.35-1.39-4.69-2.78-7.04-4.18-3.33-1.98-6.35,3.21-3.03,5.18,2.35,1.39,4.69,2.78,7.04,4.18l3.03-5.18c-2.12-1.23-4.24-2.46-6.36-3.69-3.35-1.94-6.37,3.24-3.03,5.18h0Z"/>
  <path class="cls-1" d="M83.83,39.55c-2.3-10.38-8.01-23.47-20.73-22.92-9.98.43-15.86,11.25-9.42,19.28,2.41,3.01,6.64-1.26,4.24-4.24-2.19-2.74-.8-6.63,2.06-8.2,3.13-1.72,6.98-.75,9.71,1.2,5.3,3.77,7.02,10.46,8.35,16.48.84,3.77,6.62,2.17,5.79-1.6h0Z"/>
  <path class="cls-1" d="M58.46,40.69c3.86,0,3.87-6,0-6s-3.87,6,0,6h0Z"/>
  <path class="cls-1" d="M97.64,46.13c18.83-4.54,39.56,1.15,53.02,15.23,13.48,14.1,18.07,35.11,12.69,53.69-1.08,3.72,4.71,5.3,5.79,1.6,5.98-20.66.68-43.89-14.23-59.53s-38.02-21.79-58.86-16.77c-3.75.9-2.16,6.69,1.6,5.79h0Z"/>
  <path class="cls-1" d="M55.21,85.82c-4.39,10.66-4.43,22.43-.12,33.13,1.42,3.54,7.23,1.99,5.79-1.6-3.96-9.84-3.91-20.13.12-29.94,1.47-3.57-4.33-5.12-5.79-1.6h0Z"/>
  <path class="cls-1" d="M54.68,110.14c-1.29,11.92,1.31,23.65,7.36,33.98,1.95,3.33,7.14.31,5.18-3.03-5.56-9.5-7.73-20.02-6.54-30.95.42-3.83-5.59-3.8-6,0h0Z"/>
  <path class="cls-1" d="M72.02,138.93c.89-3.26,1.78-6.52,2.67-9.78,1.02-3.73-4.77-5.32-5.79-1.6-.89,3.26-1.78,6.52-2.67,9.78-1.02,3.73,4.77,5.32,5.79,1.6h0Z"/>
  <path class="cls-1" d="M70.11,132.97c1.95,3.94,3.61,8.44,6.1,12.07,1.62,2.35,4.33,4.02,7.17,2.63,2.49-1.22,2.96-4.15,2.72-6.62-.47-4.8-1.34-9.61-2.01-14.39-.53-3.81-6.32-2.19-5.79,1.6.35,2.49.7,4.98,1.05,7.47.16,1.13.32,2.26.48,3.4.04.27.14,3.27.36,3.51l.94-1c-.27-.45-.51-.91-.73-1.38-.52-1-1-2.02-1.5-3.03l-3.6-7.28c-1.71-3.46-6.89-.42-5.18,3.03h0Z"/>
  <path class="cls-1" d="M83.47,130.01c2.97,3.09,15.52,19.43,19.25,8.41,1.37-4.06-1.83-7.3-4.13-10.26-4.14-5.34-8.28-10.67-12.41-16.01-2.36-3.05-6.58,1.23-4.24,4.24,3.94,5.08,7.89,10.16,11.82,15.25.29.38,2.44,3.51,2.64,3.44.3-.09-1.45-1.78-1.72-2.06-2.32-2.42-4.64-4.84-6.97-7.26-2.68-2.79-6.92,1.46-4.24,4.24h0Z"/>
  <path class="cls-1" d="M65.39,112.7c7.2-1.8,14.67-.39,20.55,4.21,3.01,2.35,7.28-1.87,4.24-4.24-7.64-5.97-16.93-8.12-26.39-5.75-3.74.94-2.16,6.72,1.6,5.79h0Z"/>
  <path class="cls-1" d="M75.91,150.9c14.8,12.82,35.08,17.5,53.97,12.19,3.71-1.04,2.13-6.83-1.6-5.79-16.75,4.71-34.95.77-48.13-10.64-2.91-2.52-7.17,1.71-4.24,4.24h0Z"/>
  <path class="cls-1" d="M134.64,158.94c4.15-1.78,8.3-3.56,12.44-5.33,3.54-1.52.49-6.69-3.03-5.18-4.15,1.78-8.3,3.56-12.44,5.33-3.54,1.52-.49,6.69,3.03,5.18h0Z"/>
  <path class="cls-1" d="M144.35,151.18c5.93,3.85,11.86,7.7,17.78,11.55,3.25,2.11,6.26-3.08,3.03-5.18-5.93-3.85-11.86-7.7-17.78-11.55-3.25-2.11-6.26,3.08-3.03,5.18h0Z"/>
  <path class="cls-1" d="M165.9,154.2c-1.02-4.45-2.04-8.9-3.06-13.35-.86-3.76-6.65-2.17-5.79,1.6,1.02,4.45,2.04,8.9,3.06,13.35.86,3.76,6.65,2.17,5.79-1.6h0Z"/>
  <path class="cls-1" d="M160.09,144.23c3.26,2.22,6.52,4.44,9.78,6.66s6.2-3.02,3.03-5.18-6.52-4.44-9.78-6.66-6.2,3.02-3.03,5.18h0Z"/>
  <path class="cls-1" d="M175.18,145.32c-1.75-5.64-3.5-11.28-5.26-16.91-1.14-3.68-6.94-2.11-5.79,1.6,1.75,5.64,3.5,11.28,5.26,16.91,1.14,3.68,6.94,2.11,5.79-1.6h0Z"/>
  <path class="cls-1" d="M162.16,124.04c4.36,5.88,8.73,11.75,13.09,17.63,2.28,3.07,7.49.08,5.18-3.03-4.36-5.88-8.73-11.75-13.09-17.63-2.28-3.07-7.49-.08-5.18,3.03h0Z"/>
  <path class="cls-1" d="M175.35,143.35c3.86,0,3.87-6,0-6s-3.87,6,0,6h0Z"/>
  <path class="cls-1" d="M95.27,162.42c1.16,2.83,2.32,5.65,3.48,8.48.62,1.5,1.99,2.56,3.69,2.1,1.42-.39,2.71-2.18,2.1-3.69-1.16-2.83-2.32-5.65-3.48-8.48-.62-1.5-1.99-2.56-3.69-2.1-1.42.39-2.71,2.18-2.1,3.69h0Z"/>
  <path class="cls-1" d="M96.48,164.78c.34,2.81.67,5.62,1.01,8.43.19,1.61,1.24,3,3,3,1.47,0,3.19-1.38,3-3-.34-2.81-.67-5.62-1.01-8.43-.19-1.61-1.24-3-3-3-1.47,0-3.19,1.38-3,3h0Z"/>
  <path class="cls-1" d="M94.56,171.24c-3.41,1.19-6.81,2.37-10.22,3.56-3.62,1.26-2.07,7.06,1.6,5.79,3.41-1.19,6.81-2.37,10.22-3.56,3.62-1.26,2.07-7.06-1.6-5.79h0Z"/>
  <path class="cls-1" d="M99.13,173.33c-.59,2.22-1.19,4.44-1.78,6.67-1,3.73,4.79,5.33,5.79,1.6.59-2.22,1.19-4.44,1.78-6.67,1-3.73-4.79-5.33-5.79-1.6h0Z"/>
  <path class="cls-1" d="M104.95,178.05c1.93,1.04,3.85,2.07,5.78,3.11,3.4,1.83,6.43-3.35,3.03-5.18-1.93-1.04-3.85-2.07-5.78-3.11-3.4-1.83-6.43,3.35-3.03,5.18h0Z"/>
  <path class="cls-1" d="M127.91,161.69c.3,2.22.59,4.44.89,6.67.21,1.61,1.23,3,3,3,1.45,0,3.22-1.38,3-3-.3-2.22-.59-4.44-.89-6.67-.21-1.61-1.23-3-3-3-1.45,0-3.22,1.38-3,3h0Z"/>
  <path class="cls-1" d="M126.12,169.34c-1.78,1.78-3.56,3.56-5.33,5.33-2.73,2.73,1.51,6.98,4.24,4.24,1.78-1.78,3.56-3.56,5.33-5.33,2.73-2.73-1.51-6.98-4.24-4.24h0Z"/>
  <path class="cls-1" d="M131.13,173.15c.59,1.93,1.19,3.85,1.78,5.78.48,1.55,2.09,2.53,3.69,2.1s2.57-2.14,2.1-3.69c-.59-1.93-1.19-3.85-1.78-5.78-.48-1.55-2.09-2.53-3.69-2.1s-2.57,2.14-2.1,3.69h0Z"/>
  <path class="cls-1" d="M138.02,171.35c1.63-.15,3.26-.3,4.89-.44s3.08-1.28,3-3c-.07-1.5-1.33-3.15-3-3s-3.26.3-4.89.44-3.08,1.28-3,3c.07,1.5,1.33,3.15,3,3h0Z"/>
  <path class="cls-1" d="M86.22,107.2c-1.7-11.5,5.38-23.6,16.15-27.95s22.89.36,29.56,9.11,5.97,21.17-.66,30.03c-8.63,11.54-22.17,10.85-35.11,9.18-3.82-.49-3.78,5.51,0,6,12.55,1.62,25.3,2.16,35.38-6.68,7.82-6.86,12.25-17.73,10.97-28.09-2.75-22.33-30.77-34.82-48.94-21.41-9.88,7.29-14.94,19.29-13.15,31.41.56,3.81,6.35,2.19,5.79-1.6h0Z"/>
</svg>