<?xml version="1.0" encoding="UTF-8"?>
<svg id="_图层_1" data-name="图层 1" xmlns="http://www.w3.org/2000/svg" viewBox="0 0 224 211.16">
  <defs>
    <style>
      .cls-1, .cls-2 {
        fill: #8a6a4a;
      }

      .cls-3 {
        opacity: .31;
      }

      .cls-2 {
        font-family: Fredoka-Bold, Fredoka;
        font-size: 167.09px;
        font-weight: 700;
      }
    </style>
  </defs>
  <g class="cls-3">
    <text class="cls-2" transform="translate(58.73 165.77)"><tspan x="0" y="0">D</tspan></text>
  </g>
  <path class="cls-1" d="M141.6,96.43c.62-3.35,2-6.5-.69-9.36-1.19-1.27-3.02-1-4.24,0-4.01,3.28-3.64,12.02,1.58,13.8,1.12.38,2.89-.23,3.39-1.38,1.38-3.23,1.69-7.35-.33-10.41s-7.32-.2-5.18,3.03c.77,1.16.89,3.06.33,4.35l3.39-1.38s.55.24.48.36c0,0-.16-.38-.18-.45-.1-.38-.13-.86-.08-1.51.03-.33.15-1.03.34-1.52.1-.25.13-.35.5-.66h-4.24c-.22-.24.12-.5-.06.25-.07.28-.12.56-.19.84-.2.82-.45,1.61-.6,2.44-.29,1.59.44,3.23,2.1,3.69,1.46.4,3.4-.49,3.69-2.1h0Z"/>
  <path class="cls-1" d="M123.08,90.68c-.38,2.11-.88,4.76.55,6.59s4.01,1.68,5.6.08c2.92-2.93,2.53-8.08-.24-10.9-1.2-1.22-3.02-1.05-4.24,0-3.62,3.09-3.13,9.38-.31,12.77.87,1.05,2.53,1.05,3.64.47,2.08-1.09,2.82-3.32,2.77-5.54-.04-1.8-.67-3.97-.69-5.34-.07-3.86-6.07-3.87-6,0,.03,1.4.38,2.77.58,4.14.08.53.11,1.04.12,1.58,0-.03.04.41-.05.41,0,0,1.08-.86.25-.43l3.64.47c-.76-.91-.63-3.48.31-4.28h-4.24c.18.18.39.5.43.58.03.06.08.54.08.37.01.23,0,.46-.01.69.02-.29.06-.29-.02,0-.04.17-.09.33-.14.49-.15.56.11-.25-.01.06-.22.54-.28.33-.09.23-.45.24.11-.11.19-.13,1.42-.29,2.26-.23,3.32.85.38.39-.02.26.13.19.03-.01,0,.58.04,0s.08-1.15.18-1.74c.29-1.59-.43-3.23-2.1-3.69-1.45-.4-3.4.49-3.69,2.1h0Z"/>
  <path class="cls-1" d="M130.12,106.93c3.86,0,3.87-6,0-6s-3.87,6,0,6h0Z"/>
  <path class="cls-1" d="M129.53,107.52c3.86,0,3.87-6,0-6s-3.87,6,0,6h0Z"/>
  <path class="cls-1" d="M130.37,103.88c-.55.55-1.03,1.18-1.54,1.77-.26.3-.52.6-.8.88-.22.22-.7.48.13-.05-.05.04-.11.08-.17.11.38-.22.79-.32,1.23-.32-1.56.12-3.08,1.29-3,3,.07,1.52,1.32,3.13,3,3,2.59-.2,3.74-2.48,5.38-4.14,1.11-1.11,1.2-3.14,0-4.24s-3.06-1.19-4.24,0h0Z"/>
  <path class="cls-1" d="M128.04,107.82c3.86,0,3.87-6,0-6s-3.87,6,0,6h0Z"/>
  <path class="cls-1" d="M132.49,107.82c3.86,0,3.87-6,0-6s-3.87,6,0,6h0Z"/>
  <path class="cls-1" d="M139.01,84.41c3.86,0,3.87-6,0-6s-3.87,6,0,6h0Z"/>
  <path class="cls-1" d="M140.88,84.89c-.68-.28-.19-.07.14.11.29.15.57.31.86.48.66.38,1.3.77,1.96,1.14,1.29.75,2.71,1.64,4.27,1.23s2.52-2.14,2.1-3.69-2.12-2.51-3.69-2.1c1.41.14,1.85.13,1.3-.05.51.22.61.26.31.12-.17-.1-.35-.19-.53-.28-.55-.3-1.1-.63-1.64-.95-1.14-.67-2.26-1.29-3.48-1.8-1.5-.62-3.3.67-3.69,2.1-.47,1.73.59,3.06,2.1,3.69h0Z"/>
  <path class="cls-1" d="M125.47,77.63c-2.49,1.02-4.64,2.49-6.94,3.86-3.32,1.97-.3,7.16,3.03,5.18,1.82-1.08,3.54-2.45,5.51-3.25,1.5-.61,2.56-1.99,2.1-3.69-.39-1.42-2.18-2.71-3.69-2.1h0Z"/>
  <path class="cls-1" d="M155.34,67.56c-2.59-1.32-6.25-3.18-9.11-1.53-3.63,2.1-2.01,6.89-.84,9.92,2.25,5.81,5.04,11.45,6.74,17.46,1.18,4.17,2.55,8.68,6.85,10.67,8.93,4.14,14.67-7.49,14.1-14.76-.67-8.54-8.55-16.98-15.37-21.46-3.24-2.13-6.25,3.07-3.03,5.18,4.19,2.75,7.94,7.02,10.48,11.31,1.3,2.2,2.09,4.38,1.96,6.97-.15,2.93-2.28,9.31-6.43,6.75-2.25-1.38-2.55-5.64-3.25-7.89-.83-2.67-1.95-5.24-3-7.83-1.19-2.92-2.5-5.84-3.57-8.81-.5-1.39-.22-2.33-1.64-2.07.87-.16,2.36.9,3.07,1.27,3.43,1.75,6.47-3.42,3.03-5.18h0Z"/>
  <path class="cls-1" d="M150.34,75.57c-.44,1.57-.85,3.1-1.17,4.7-.5,2.45,2.05,4.83,4.41,3.39s3.62-3.82,5.9-5.16l-4.41-3.39c-.69,1.94-2,3.6-2.92,5.44-1.28,2.56,1.4,5.76,4.1,4.1,2.1-1.29,3.32-3.3,5.25-4.75l-4.1-4.1c-1.92,3.18-4.38,5.86-5.49,9.47-.65,2.13,1.53,4.4,3.69,3.69,3.98-1.3,6.27-5.05,9.31-7.68l-5.01-2.92c-.8,4.15-5.55,7-7.47,10.73-1.3,2.5,1.45,5.85,4.1,4.1,3.93-2.59,6.65-6.54,10.57-9.09l-4.1-4.1c-3.45,4.72-8.9,8.02-9.42,14.32-.24,2.89,3.3,3.56,5.12,2.12,3.37-2.66,6.22-5.91,9.88-8.19l-4.1-4.1c-2.68,3.57-6.47,6.38-7.39,10.98-.47,2.35,2.08,4.98,4.41,3.39,1.69-1.15,3.28-3.25,5.22-3.85l-3.69-3.69c-.66,1.62-1.76,2.84-3.02,4.01-2.83,2.64,1.42,6.88,4.24,4.24,2.09-1.95,3.48-4.02,4.56-6.66.87-2.14-1.68-4.32-3.69-3.69-2.76.86-4.34,2.88-6.65,4.46l4.41,3.39c.76-3.79,4.53-6.56,6.78-9.55,1.85-2.46-1.7-5.6-4.1-4.1-4.11,2.55-7.32,6.15-11.09,9.13l5.12,2.12c.34-4.21,6.2-8.02,8.6-11.29,1.79-2.45-1.68-5.67-4.1-4.1-3.95,2.56-6.66,6.52-10.57,9.09l4.1,4.1c2.25-4.34,7.11-7.13,8.08-12.16.57-2.98-2.69-4.93-5.01-2.92-2.03,1.76-4.04,5.28-6.66,6.14l3.69,3.69c.93-3.01,3.27-5.38,4.88-8.04,1.46-2.41-1.62-5.96-4.1-4.1-1.88,1.41-3.27,3.54-5.25,4.75l4.1,4.1c1.17-2.34,2.65-4.39,3.52-6.87s-2.26-4.65-4.41-3.39c-2.34,1.38-3.64,3.78-5.9,5.16l4.41,3.39c.32-1.6.73-3.13,1.17-4.7,1.05-3.72-4.73-5.31-5.79-1.6h0Z"/>
  <path class="cls-1" d="M111.12,74.97c-6.03,3.68-12.08,11.89-8.25,19.08,2.72,5.1,10.62,8.89,13.44,1.75,1.11-2.81,1.2-5.91,1.86-8.82.51-2.26,1.28-4.4,1.51-6.73s.11-5.05-2.05-6.35c-2.62-1.58-5.24.41-7.12,2.15-2.84,2.63,1.41,6.86,4.24,4.24.3-.35.64-.64,1.02-.87,1.01-.55.33-.94-2.02-1.17-.11.12.02,1.25-.02,1.37-.29.94-.31,2.03-.57,2.99-.66,2.49-1.13,4.93-1.61,7.47-.09.47-.46,3.78-.97,3.93s-2.28-2.4-2.54-2.99c-1.82-4.13,2.9-8.9,6.1-10.85s.28-7.2-3.03-5.18h0Z"/>
  <path class="cls-1" d="M106.71,87.96c3.86,0,3.87-6,0-6s-3.87,6,0,6h0Z"/>
  <path class="cls-1" d="M110.86,90.04c3.86,0,3.87-6,0-6s-3.87,6,0,6h0Z"/>
  <path class="cls-1" d="M108.86,83.45c-.64,1.31-1.22,2.63-1.78,3.98-.28.66-.04,1.72.3,2.31.36.62,1.08,1.22,1.79,1.38.77.17,1.63.14,2.31-.3s1.06-1.03,1.38-1.79c-.3.71.11-.25.17-.38.1-.22.19-.44.29-.65.23-.51.47-1.01.72-1.51.69-1.41.43-3.31-1.08-4.1-1.35-.71-3.37-.43-4.1,1.08h0Z"/>
  <path class="cls-1" d="M110.05,81.38c-1.12,2.3-2.48,4.48-3.56,6.81-.68,1.47-.42,3.23,1.08,4.1,1.29.76,3.42.4,4.1-1.08,1.07-2.33,2.43-4.51,3.56-6.81.71-1.46.4-3.24-1.08-4.1-1.32-.77-3.39-.39-4.1,1.08h0Z"/>
  <path class="cls-1" d="M107.9,91.82c3.86,0,3.87-6,0-6s-3.87,6,0,6h0Z"/>
  <path class="cls-1" d="M152.34,77c3.86,0,3.87-6,0-6s-3.87,6,0,6h0Z"/>
  <path class="cls-1" d="M127.16,108.7c3.86,0,3.87-6,0-6s-3.87,6,0,6h0Z"/>
  <path class="cls-1" d="M130.48,111.84c.38,2.34,1.01,4.89,2.98,6.41,2.35,1.81,5.22,1.05,7.64-.18,1.45-.73,1.86-2.77,1.08-4.1-.86-1.47-2.65-1.81-4.1-1.08-.5.25-.51.26-.83.36-.18.06-.36.1-.54.14.38-.04.41-.05.07-.02-.35-.02-.29,0,.16.04-.31-.09-.26-.06.17.1-.27-.17-.23-.12.13.14-.08-.07-.15-.14-.21-.22-.14-.16-.09-.1.15.19-.08-.13-.16-.26-.23-.4-.14-.3-.14-.29,0,.03-.06-.17-.12-.34-.17-.52-.25-.81-.4-1.65-.53-2.49-.26-1.6-2.25-2.49-3.69-2.1-1.7.47-2.36,2.09-2.1,3.69h0Z"/>
  <path class="cls-1" d="M126.22,109.81c-.69.78-1.34,1.58-2.12,2.27-.19.17-.61.42-.17.15-.3.18-.94.31-.27.21-.57.09.57.02.66.04.24.06.46.18.65.34.22.29.23.28.03-.04-1.85-3.39-7.03-.37-5.18,3.03,1.38,2.53,4.26,3.27,6.74,1.85,1.56-.89,2.72-2.29,3.9-3.62,1.07-1.21,1.19-3.05,0-4.24-1.09-1.09-3.16-1.22-4.24,0h0Z"/>
  <path class="cls-1" d="M112.34,98.04c3.86,0,3.87-6,0-6s-3.87,6,0,6h0Z"/>
  <path class="cls-1" d="M110.86,94.48c3.86,0,3.87-6,0-6s-3.87,6,0,6h0Z"/>
  <path class="cls-1" d="M108.15,89.36c-.45.52.53-.36.13-.05-.27.21-.57.41-.82.65-.56.55-.94,1.25-1.16,2l5.89.8c-.11.89.04-.09.08-.27.05-.22.11-.43.18-.64.03-.09.24-.54.22-.62-.17.38-.18.43-.04.13.06-.12.12-.24.19-.36l-5.48-2.31c-.29.77-.56,1.54-.85,2.3-.56,1.47.62,3.35,2.1,3.69,1.71.39,3.09-.52,3.69-2.1.29-.76.57-1.54.85-2.3.52-1.4-.47-3-1.74-3.54-1.33-.56-3.02-.09-3.75,1.23-.84,1.52-1.24,3.08-1.45,4.79-.08.68.39,1.67.88,2.12s1.05.74,1.72.83c1.46.2,2.88-.7,3.29-2.15l-.19.39c-.32.37-.4.47-.25.3.17-.17.48-.35-.24.15.34-.24.7-.49.98-.8,1.02-1.19,1.26-3.09,0-4.24-1.12-1.03-3.15-1.27-4.24,0h0Z"/>
  <path class="cls-1" d="M49.78,125.56c.11,6.21,3.51,19.03,12.22,13.85,3.31-1.97.3-7.16-3.03-5.18-.16.09-1.11.55-.46.4-.23.06-.11.1-.4-.27-.48-.62-.97-1.68-1.27-2.62-.67-2.12-1.03-4.04-1.06-6.18-.07-3.86-6.07-3.87-6,0h0Z"/>
  <path class="cls-1" d="M49.31,123.45c-4.04,7.27-8.59,19.29,1.37,23.96,3.48,1.63,6.53-3.54,3.03-5.18-6.29-2.95-1.62-11.43.78-15.75,1.88-3.38-3.3-6.41-5.18-3.03h0Z"/>
  <path class="cls-1" d="M51.04,140.45c-2.26-1.72-4.29-4.09-5.21-6.8-.77-2.27-3.24-2.78-5.01-1.32-7.68,6.3,2.83,20.78,10.28,22.2,3.77.72,5.39-5.07,1.6-5.79-3.22-.61-11.26-9.19-7.63-12.17l-5.01-1.32c1.46,4.32,4.38,7.65,7.96,10.38,3.07,2.34,6.06-2.87,3.03-5.18h0Z"/>
  <path class="cls-1" d="M58.74,154.52c1.49-.74,3.03-1.38,4.4-2.33,2.52-1.75,1.49-5.31-1.51-5.59s-5.23,1.9-5.3,4.79c-.04,1.66,1.4,2.95,3,3,1.83.05,3.54-.78,4.76-2.11,1.06-1.16,1.23-3.11,0-4.24-1.15-1.06-3.11-1.24-4.24,0-.13.15-.26.29-.41.42.23-.18.21-.17-.08.01.31-.12.29-.12-.04-.02.36-.04.36-.06,0-.05l3,3c0-.41.06-.12-.01.09-.17.49-.67.71-.93,1.05-.2.07-.22.08-.06.03.16-.04.14-.04-.06,0-.46.04.33.05.36.05l-1.51-5.59c-1.37.95-2.91,1.59-4.4,2.33-1.41.7-1.91,2.81-1.08,4.1.93,1.44,2.6,1.82,4.1,1.08h0Z"/>
  <path class="cls-1" d="M71.38,161.44c1.61-3.09,4.28-8.26,8.28-8.36s8.8,6.02,7.86,9.9,4.87,5.35,5.79,1.6c1.7-7-4.05-15.12-10.78-17.13-7.63-2.28-13.25,5.07-16.34,10.97-1.79,3.42,3.39,6.46,5.18,3.03h0Z"/>
  <path class="cls-1" d="M74.12,167.96c3.86,0,3.87-6,0-6s-3.87,6,0,6h0Z"/>
  <path class="cls-1" d="M82.41,166.78c3.86,0,3.87-6,0-6s-3.87,6,0,6h0Z"/>
  <path class="cls-1" d="M112.86,164.28c1.32-4.48,3.67-10.38,9.06-10.92s6.59,5.49,5,9.62c-1.39,3.61,4.41,5.17,5.79,1.6,2.64-6.87-.37-16.29-8.52-17.14-9.5-1-14.75,7.24-17.12,15.25-1.1,3.71,4.69,5.3,5.79,1.6h0Z"/>
  <path class="cls-1" d="M119.45,166.78c3.86,0,3.87-6,0-6s-3.87,6,0,6h0Z"/>
  <path class="cls-1" d="M122.41,165.3c3.86,0,3.87-6,0-6s-3.87,6,0,6h0Z"/>
  <path class="cls-1" d="M91.25,83.78c.04,17.58.08,35.16.12,52.74,0,3.86,6.01,3.87,6,0-.04-17.58-.08-35.16-.12-52.74,0-3.86-6.01-3.87-6,0h0Z"/>
  <path class="cls-1" d="M101.07,139.93c11.04.74,21.43-4.92,26.96-14.47,1.94-3.35-3.25-6.37-5.18-3.03-4.53,7.83-12.79,12.1-21.78,11.5-3.85-.26-3.84,5.74,0,6h0Z"/>
  <path class="cls-1" d="M98.72,85.19c2.67.12,5.34.24,8.01.36,3.86.18,3.85-5.83,0-6-2.67-.12-5.34-.24-8.01-.36-3.86-.18-3.85,5.83,0,6h0Z"/>
  <path class="cls-1" d="M61.09,54.12c-3.1,28.68-3.17,57.55-.22,86.24.39,3.8,6.4,3.84,6,0-2.95-28.69-2.88-57.56.22-86.24.41-3.83-5.59-3.8-6,0h0Z"/>
  <path class="cls-1" d="M73.07,58.32c12.47-1.72,25.23-1.75,37.7.09,10.32,1.52,24.31,3.41,32.17,10.88,2.8,2.66,7.05-1.58,4.24-4.24-8.83-8.39-23.23-10.69-34.81-12.43-13.61-2.03-27.27-1.96-40.89-.09-3.81.52-2.19,6.31,1.6,5.79h0Z"/>
  <path class="cls-1" d="M162.74,110.42c-1.94,19.36-13.2,36.86-29.83,46.88-3.3,1.99-.29,7.18,3.03,5.18,18.57-11.19,30.64-30.53,32.8-52.06.39-3.84-5.62-3.81-6,0h0Z"/>
  <path class="cls-1" d="M164.49,110.78c3.86,0,3.87-6,0-6s-3.87,6,0,6h0Z"/>
</svg>