<?xml version="1.0" encoding="UTF-8"?>
<svg id="_图层_1" data-name="图层 1" xmlns="http://www.w3.org/2000/svg" viewBox="0 0 224 211.16">
  <defs>
    <style>
      .cls-1, .cls-2 {
        fill: #8a6a4a;
      }

      .cls-3 {
        opacity: .31;
      }

      .cls-2 {
        font-family: Fredoka-Bold, Fredoka;
        font-size: 167.09px;
        font-weight: 700;
      }
    </style>
  </defs>
  <g class="cls-3">
    <text class="cls-2" transform="translate(65.14 158.15)"><tspan x="0" y="0">Y</tspan></text>
  </g>
  <path class="cls-1" d="M74.07,35.73c2.86,24.08,18.51,44.76,40.9,54.06,3.56,1.48,5.12-4.32,1.6-5.79-19.66-8.17-33.99-27.14-36.5-48.28-.45-3.79-6.45-3.83-6,0h0Z"/>
  <path class="cls-1" d="M70.64,31.95c-13.68,26.48-1.7,58.33,25.8,69.5,3.58,1.45,5.13-4.35,1.6-5.79-23.84-9.68-33.98-37.91-22.22-60.68,1.77-3.43-3.41-6.46-5.18-3.03h0Z"/>
  <path class="cls-1" d="M124.8,87.91c19.12-11.47,30.96-32.61,30.68-54.91-.05-3.86-6.05-3.87-6,0,.25,20.21-10.37,39.33-27.71,49.73-3.31,1.98-.29,7.17,3.03,5.18h0Z"/>
  <path class="cls-1" d="M153.17,35.45c9.71,20.08,5.57,43.71-10.13,59.46-2.73,2.74,1.51,6.98,4.24,4.24,17.7-17.76,21.96-44.21,11.07-66.73-1.68-3.48-6.86-.44-5.18,3.03h0Z"/>
  <path class="cls-1" d="M113.79,80.52c-6.43-.14-20.3-3.13-22.45,5.82-1.71,7.07,5.84,11.48,11.69,8.1,1.84-1.06,2.07-4.18,0-5.18-4.31-2.08-8.61-4.17-12.92-6.25-2.51-1.21-5.86,1.39-4.1,4.1,3.55,5.49,7.53,10.62,11.98,15.42,2.63,2.84,6.87-1.41,4.24-4.24-4.1-4.43-7.77-9.14-11.04-14.21l-4.1,4.1c4.31,2.08,8.61,4.17,12.92,6.25v-5.18l-1.19-2.84,1.82-.17c1.22-.4,3.02.05,4.28.07,2.96.06,5.92.13,8.87.19,3.86.08,3.86-5.92,0-6h0Z"/>
  <path class="cls-1" d="M125.23,88.26c3.71-1.67,7.43-3.34,11.14-5.01l-4.41-3.39c-1.18,4.47-2.36,8.93-3.55,13.4-.85,3.21,3.87,5.4,5.48,2.31,1.29-2.47,3.6-4.86,6.56-5.13,5.71-.52,1.3,5.02-.54,6.82-2.77,2.7,1.48,6.94,4.24,4.24,4.13-4.03,8.8-12.62,1.42-16.37-6.23-3.17-14.02,1.99-16.86,7.41l5.48,2.31c1.18-4.47,2.36-8.93,3.55-13.4.72-2.73-2.11-4.42-4.41-3.39-3.71,1.67-7.43,3.34-11.14,5.01-3.52,1.58-.47,6.75,3.03,5.18h0Z"/>
  <path class="cls-1" d="M95.98,104.45c-2.89,4.52-2.14,10.56,1.65,14.32,2.74,2.73,6.99-1.52,4.24-4.24-1.96-1.95-2.18-4.75-.71-7.05,2.09-3.26-3.1-6.27-5.18-3.03h0Z"/>
  <path class="cls-1" d="M100.36,120.47l4,4.89c1.03,1.25,3.18,1.07,4.24,0,1.24-1.24,1.03-2.98,0-4.24l-4-4.89c-1.03-1.25-3.18-1.07-4.24,0-1.24,1.24-1.03,2.98,0,4.24h0Z"/>
  <path class="cls-1" d="M137.34,103.24c-.34,5.02-2.93,9.59-7.09,12.43-3.17,2.17-.17,7.37,3.03,5.18,6-4.1,9.58-10.35,10.06-17.61.26-3.85-5.74-3.84-6,0h0Z"/>
  <path class="cls-1" d="M134.04,119.12c3.86,0,3.87-6,0-6s-3.87,6,0,6h0Z"/>
  <path class="cls-1" d="M108.26,151.12c3.86,0,3.87-6,0-6s-3.87,6,0,6h0Z"/>
  <path class="cls-1" d="M109.49,145.56c-.73-.94-1.46-1.88-2.18-2.82-1.79-2.31-4.88-.11-5.12,2.12-.46,4.22-1.01,8.44-1.38,12.66-.29,3.29-.4,6.69,1.78,9.41,3.63,4.56,10.23,3.35,12.09-2.14,1.49-4.41.55-13.2-5.31-13.9-2.48-.3-4.68,1.11-5.68,3.39-1.25,2.84-.15,5.61,1.14,8.22,1.71,3.46,6.89.42,5.18-3.03-2.89-5.83.3,2.12-.91,3.16-2.96,2.57-2.23-5.65-2.21-5.89.42-3.96.86-7.91,1.3-11.87l-5.12,2.12c.73.94,1.46,1.88,2.18,2.82,2.36,3.05,6.58-1.23,4.24-4.24h0Z"/>
  <path class="cls-1" d="M124.41,155.06c-2.55,6.96,4.6,12.17,10.83,9.32,1.12-.52,1.79-2.24,1.38-3.39-1.52-4.31-3.04-8.62-4.56-12.92-.91-2.58-5.13-3.11-5.79,0-1.11,5.23-2.57,11.75.21,16.72,2.16,3.86,6.98,5.27,10.34,2.04,1.04-1,1.01-2.42.47-3.64-1.91-4.31-3.83-8.63-5.74-12.94-1.56-3.52-6.73-.47-5.18,3.03,1.91,4.31,3.83,8.63,5.74,12.94l.47-3.64c-.95.92-1.63-5.54-1.62-5.78.07-2.42.59-4.79,1.09-7.14h-5.79c1.52,4.31,3.04,8.62,4.56,12.92l1.38-3.39c-1.93.89-2.52-1.15-2.01-2.54,1.33-3.63-4.47-5.2-5.79-1.6h0Z"/>
  <path class="cls-1" d="M113.59,150.23l11.9.86v-6c-4.79.13-9.57.26-14.36.39-3.9.11-3.82,5.71,0,6,5.12.39,10.25.79,15.37,1.18,3.85.3,3.83-5.71,0-6-5.12-.39-10.25-.79-15.37-1.18v6c4.79-.13,9.57-.26,14.36-.39,3.89-.11,3.82-5.72,0-6l-11.9-.86c-3.85-.28-3.83,5.72,0,6h0Z"/>
  <path class="cls-1" d="M102.08,127.24c.45,6.81.89,13.63,1.34,20.44.25,3.83,6.25,3.86,6,0-.45-6.81-.89-13.63-1.34-20.44-.25-3.83-6.25-3.86-6,0h0Z"/>
  <path class="cls-1" d="M127.37,124.08c.6,4.06,1.2,8.12,1.8,12.18.35,2.35,2.99,12.24.61,13.46-3.44,1.76-.4,6.94,3.03,5.18,4.71-2.42,4.06-7.26,3.39-11.8-1.01-6.87-2.03-13.75-3.05-20.62-.56-3.81-6.34-2.19-5.79,1.6h0Z"/>
  <path class="cls-1" d="M109.74,126.5c1.8,3.97,6.55,5.43,10.59,4.43,5-1.24,7.86-5.94,10.11-10.18,1.83-3.45-3-6.19-5.18-3.03-2.04,2.95-4.07,5.9-6.11,8.85-2.2,3.19,3,6.19,5.18,3.03,2.04-2.95,4.07-5.9,6.11-8.85l-5.18-3.03c-1.27,2.4-2.63,5.36-5.05,6.81-1.85,1.1-4.32,1.09-5.29-1.06-1.59-3.51-6.76-.47-5.18,3.03h0Z"/>
  <path class="cls-1" d="M112.7,113.15c-8.07.76-12.42,9.07-8.67,16.3s13.34,9.83,20.41,6.54,8.73-12.27,4.59-18.61c-4.59-7.03-13.76-7.56-20.86-4.54-3.54,1.51-.49,6.68,3.03,5.18s8.29-1.6,11.38,1,3.94,7.69.88,10.5-7.91,2.26-11.11.29c-3.67-2.26-6.04-10.06.35-10.66,3.81-.36,3.85-6.36,0-6h0Z"/>
  <path class="cls-1" d="M130.41,155.23c.12,3.98.24,7.95.35,11.93s5.87,3.86,6,0c.18-5.08,1.12-9.96,2.77-14.77h-5.79c1,2.87.41,6.09-2.16,7.97-3.08,2.26-.09,7.47,3.03,5.18,4.66-3.41,6.86-9.16,4.92-14.75-.98-2.83-4.81-2.85-5.79,0-1.82,5.3-2.79,10.77-2.98,16.37h6c-.12-3.98-.24-7.95-.35-11.93s-6.11-3.87-6,0h0Z"/>
  <path class="cls-1" d="M115.82,152.01c3.86,0,3.87-6,0-6s-3.87,6,0,6h0Z"/>
</svg>