<?xml version="1.0" encoding="UTF-8"?>
<svg id="_图层_1" data-name="图层 1" xmlns="http://www.w3.org/2000/svg" viewBox="0 0 224 211.16">
  <defs>
    <style>
      .cls-1, .cls-2 {
        fill: #8a6a4a;
      }

      .cls-3 {
        opacity: .31;
      }

      .cls-2 {
        font-family: Fredoka-Bold, Fredoka;
        font-size: 167.09px;
        font-weight: 700;
      }
    </style>
  </defs>
  <g class="cls-3">
    <text class="cls-2" transform="translate(96.42 169.39)"><tspan x="0" y="0">E</tspan></text>
  </g>
  <path class="cls-1" d="M117.18,55.35c3.86,0,3.87-6,0-6s-3.87,6,0,6h0Z"/>
  <path class="cls-1" d="M119.86,52.09c-3.84-6.94-11.98-10.05-19.63-8.41-8.82,1.89-15.39,9.64-18.6,17.7-6.62,16.59,2.2,39.24,22.56,38.06,3.84-.22,3.86-6.22,0-6-14.9.86-21.61-14.88-17.84-27.46,1.8-6.01,5.7-12.01,11.36-15.01,5.9-3.14,13.59-1.97,16.98,4.15,1.87,3.38,7.05.36,5.18-3.03h0Z"/>
  <path class="cls-1" d="M113.9,60.55c-3.17-3.66-8.38-4.77-12.81-2.75-5.14,2.34-7.81,7.73-8.37,13.12-.5,4.88-.28,12.32,4.36,15.31,4.94,3.18,10.24-.21,14.12-3.38,2.99-2.44-1.27-6.67-4.24-4.24-2.53,2.06-6.03,4.58-7.88.15-.98-2.34-.64-6.87-.09-9.14,1.13-4.65,6.44-9.71,10.67-4.82,2.53,2.92,6.76-1.34,4.24-4.24h0Z"/>
  <path class="cls-1" d="M101.17,153.52c-5.93-.36-10.76-4.73-12.1-10.44-.89-3.76-6.67-2.17-5.79,1.6,1.98,8.39,9.36,14.32,17.89,14.84,3.86.24,3.84-5.76,0-6h0Z"/>
  <path class="cls-1" d="M83.8,147.15c-.51,9.67,6.92,17.39,16.49,17.71,3.86.13,3.86-5.87,0-6-6.44-.22-10.82-5.38-10.49-11.71.2-3.86-5.8-3.85-6,0h0Z"/>
  <path class="cls-1" d="M88.35,141.22c-.14-3.08-.72-6.53-3.6-8.25s-6.55-.73-8.59,1.74-2,6.13-.42,8.9c1.71,3,5,4.62,8.3,5.16,3.78.62,5.4-5.16,1.6-5.79-1.66-.27-5.95-1.44-5.04-4.08.18-.53.74-.97,1.13-.75.7.41.6,2.44.63,3.07.17,3.85,6.17,3.87,6,0h0Z"/>
  <path class="cls-1" d="M128.83,83.48c3.92,6.16,10.65,9.83,17.98,9.54,3.85-.15,3.87-6.15,0-6-5.21.2-9.97-2.14-12.8-6.57-2.07-3.25-7.26-.24-5.18,3.03h0Z"/>
  <path class="cls-1" d="M129.59,89.61c4.39,3.29,10.09,4.18,15.33,2.63,3.69-1.1,2.12-6.89-1.6-5.79-3.86,1.15-7.5.38-10.71-2.02s-6.09,2.89-3.03,5.18h0Z"/>
  <path class="cls-1" d="M124.7,69.06c-1.7,1.78-2.68,4.17-1.87,6.61.86,2.58,3.55,4.08,6.18,3.33,2.39-.69,4.13-3.13,4.22-5.58.1-2.77-1.51-4.99-3.15-7.05-1.07-1.34-3.12-.94-4.24,0-2.97,2.49-3.43,6.54-1.93,9.94.72,1.64,3.6,2.04,4.71.61,2.41-3.11,3-7.32.66-10.69-.92-1.33-2.63-1.94-4.1-1.08-1.32.77-2,2.77-1.08,4.1.66.95,1.09,2.38.28,3.42l4.71.61c-.45-1.01.26-2.05.99-2.67h-4.24c.4.5.8,1.03,1.09,1.6.12.24.18,1.05.24,1.12-.19-.25,1.34.37,1.32.37.14.03-.18.29.02.21-.1.04.72-.91.43-.61,2.66-2.79-1.57-7.04-4.24-4.24h0Z"/>
  <path class="cls-1" d="M125.48,71.94c3.86,0,3.87-6,0-6s-3.87,6,0,6h0Z"/>
  <path class="cls-1" d="M121.35,57.9c22.1,5.42,45.13,4.79,66.89-1.91,3.68-1.13,2.11-6.93-1.6-5.79-20.76,6.39-42.6,7.08-63.7,1.91-3.75-.92-5.35,4.87-1.6,5.79h0Z"/>
  <path class="cls-1" d="M188.29,56.24c3.86,0,3.87-6,0-6s-3.87,6,0,6h0Z"/>
  <path class="cls-1" d="M189.54,57.1c3.34,3.27,2.7,7.66,1.93,11.87-.3,1.61-.62,3.21-1.01,4.8-.21.86-2.36,6.09-2.22,6.35-1.85-3.39-7.04-.36-5.18,3.03,1.32,2.4,4,3.62,6.69,2.71,3.62-1.23,5.12-5.63,6.08-8.92,2.26-7.79,4.43-17.75-2.04-24.08-2.76-2.7-7.01,1.54-4.24,4.24h0Z"/>
  <path class="cls-1" d="M137.49,85.83c14.35-2.8,29-3.23,43.48-1.18,3.78.53,5.41-5.25,1.6-5.79-15.61-2.2-31.19-1.84-46.67,1.18-3.79.74-2.18,6.52,1.6,5.79h0Z"/>
  <path class="cls-1" d="M131.93,94.13c-.21,1.88-.41,3.75-.62,5.63-.18,1.61,1.51,3,3,3,1.77,0,2.82-1.38,3-3,.21-1.88.41-3.75.62-5.63.18-1.61-1.51-3-3-3-1.77,0-2.82,1.38-3,3h0Z"/>
  <path class="cls-1" d="M136.82,104.02c7.9-.98,15.8-1.97,23.7-2.93,3.9-.47,9.28-1.58,12.61,1.24,2.19,1.86,3.1,5.25,2.47,8.01-1.58,6.95-11.11,8.44-16.9,9.69-8.61,1.85-17.33,2.9-26.13,3.3-3.85.18-3.87,6.18,0,6,11.28-.52,22.77-1.89,33.67-4.94,7.18-2.01,14.7-6.21,15.46-14.43.66-7.13-3.78-13.55-10.81-15.05-5.19-1.11-10.89.25-16.06.89-6,.74-12.01,1.49-18.01,2.23-3.78.47-3.83,6.47,0,6h0Z"/>
  <path class="cls-1" d="M130.61,127.41c-1.1,4.79-1.06,9.59.18,14.35.97,3.73,6.76,2.15,5.79-1.6s-1.04-7.42-.18-11.16-4.92-5.36-5.79-1.6h0Z"/>
  <path class="cls-1" d="M100.11,104.52c-1.64,18.11-.21,36.23,4.17,53.88.93,3.75,6.72,2.16,5.79-1.6-4.25-17.15-5.55-34.69-3.95-52.28.35-3.84-5.65-3.82-6,0h0Z"/>
  <path class="cls-1" d="M134.66,143.06c3.86,0,3.87-6,0-6s-3.87,6,0,6h0Z"/>
  <path class="cls-1" d="M103.16,160.55c6.6,15.81,26.31,20.3,38.65,7.97,2.74-2.73-1.51-6.98-4.24-4.24-8.83,8.82-23.69,6.48-28.62-5.32-1.47-3.51-7.27-1.97-5.79,1.6h0Z"/>
  <path class="cls-1" d="M140.31,170.35c16.76,1.07,33.47-.46,49.77-4.48,3.75-.92,2.16-6.71-1.6-5.79-15.81,3.9-31.93,5.3-48.18,4.27-3.86-.25-3.84,5.76,0,6h0Z"/>
  <path class="cls-1" d="M189.3,139.1c.26-.77,2.22-3.12,3.13-2.26.32.3-.08,2.72-.09,3.11-.1,2.84-.23,5.68-.34,8.52-.2,4.97,1,13.38-4.36,15.83-3.51,1.6-.46,6.77,3.03,5.18,4.78-2.18,6.45-6.82,6.91-11.77.63-6.76,1.11-14.08.86-20.87-.14-3.69-1.81-7.25-5.88-7.68-5.08-.53-7.67,4.32-9.04,8.35-1.25,3.66,4.55,5.24,5.79,1.6h0Z"/>
  <path class="cls-1" d="M180.06,135.87c-14.87,3.29-30.03,3.11-44.82-.49-3.75-.91-5.35,4.87-1.6,5.79,15.85,3.86,32.09,4.01,48.01.49,3.77-.83,2.17-6.62-1.6-5.79h0Z"/>
</svg>