<?xml version="1.0" encoding="UTF-8"?>
<svg id="_图层_1" data-name="图层 1" xmlns="http://www.w3.org/2000/svg" viewBox="0 0 224 211.16">
  <defs>
    <style>
      .cls-1, .cls-2 {
        fill: #8a6a4a;
      }

      .cls-3 {
        opacity: .31;
      }

      .cls-2 {
        font-family: Fredoka-Bold, Fredoka;
        font-size: 167.09px;
        font-weight: 700;
      }
    </style>
  </defs>
  <g class="cls-3">
    <text class="cls-2" transform="translate(71.96 154.23)"><tspan x="0" y="0">B</tspan></text>
  </g>
  <path class="cls-1" d="M102.81,36.49c-23.4,4.57-31.71,43.29-12.83,57.33,3.1,2.31,6.09-2.9,3.03-5.18-15.01-11.17-6.32-42.91,11.4-46.37,3.79-.74,2.18-6.52-1.6-5.79h0Z"/>
  <path class="cls-1" d="M113.88,40.48c7.07-1.04,14.15.64,20.97,2.38,6.39,1.62,12,4.06,14.43,10.66,3.34,9.08,4.22,23.56-2.25,31.44-2.43,2.96,1.79,7.23,4.24,4.24,8.32-10.14,8.17-27.75,2.94-39.39-3.12-6.94-9.06-10.37-16.17-12.33-8.41-2.31-17.05-4.07-25.76-2.79-3.81.56-2.19,6.34,1.6,5.79h0Z"/>
  <path class="cls-1" d="M152.31,80.31c-2.15,7.32-11.56,8.87-17.6,11.73-3.49,1.65-.45,6.83,3.03,5.18,7.93-3.76,17.55-5.78,20.35-15.32,1.09-3.71-4.7-5.3-5.79-1.6h0Z"/>
  <path class="cls-1" d="M105.68,97.39c5.72,2.46,11.62,3.07,17.69,1.57,3.75-.92,2.16-6.71-1.6-5.79-4.38,1.08-8.9.83-13.07-.96-3.51-1.51-6.57,3.66-3.03,5.18h0Z"/>
  <path class="cls-1" d="M93.51,38.29c-2.83-3-5.67-4.57-9.89-3.92-3.73.58-6.83,1.86-8.94,5.11-4,6.14-3.54,15.39,3.74,18.79,3.48,1.62,6.53-3.55,3.03-5.18-3.89-1.82-4.02-6.15-2.16-9.61.93-1.74,2.17-2.54,4.07-2.94,2.66-.57,4.1.08,5.91,2,2.65,2.82,6.89-1.43,4.24-4.24h0Z"/>
  <path class="cls-1" d="M146.08,40.13c2.16-1.84,4.93-3.94,7-.93.7,1.01,1.49,2.21,1.11,3.46-.43,1.39-1.55,2.62-2.56,3.62-2.75,2.72,1.49,6.96,4.24,4.24,2.12-2.1,4.18-4.96,4.5-8.01.29-2.69-1.37-5.53-3-7.56-4.56-5.68-10.87-3.01-15.53.94-2.95,2.5,1.31,6.73,4.24,4.24h0Z"/>
  <path class="cls-1" d="M85.86,97.91c-.8,3.69-1.37,7.42-1.74,11.19s5.62,3.81,6,0c.32-3.23.84-6.42,1.53-9.59.82-3.76-4.97-5.37-5.79-1.6h0Z"/>
  <path class="cls-1" d="M84.96,92.76c-1.96,17.73-2.36,35.54-1.21,53.34.25,3.83,6.25,3.86,6,0-1.15-17.8-.75-35.61,1.21-53.34.42-3.83-5.58-3.8-6,0h0Z"/>
  <path class="cls-1" d="M85.54,153.27c3.86,0,3.87-6,0-6s-3.87,6,0,6h0Z"/>
  <path class="cls-1" d="M83.39,152.42c2.91,2.39,6.35,3.29,10.06,2.54,1.59-.32,2.5-2.21,2.1-3.69-.45-1.65-2.1-2.42-3.69-2.1-1.44.29-3.07-.06-4.22-1-1.25-1.03-3.02-1.23-4.24,0-1.06,1.06-1.26,3.21,0,4.24h0Z"/>
  <path class="cls-1" d="M91.87,154c7.46,2.81,15.51,2.73,22.9-.27,3.53-1.43,1.99-7.24-1.6-5.79-6.53,2.65-13.11,2.75-19.71.27-3.62-1.36-5.18,4.43-1.6,5.79h0Z"/>
  <path class="cls-1" d="M155.66,95.85c6.59,7.17,5.63,19.65,5.02,28.69-.7,10.39-4.22,21.08-13.94,26.24-3.41,1.81-.38,6.99,3.03,5.18,11.02-5.85,15.65-17.71,16.76-29.57s1.6-25.84-6.63-34.78c-2.62-2.85-6.85,1.4-4.24,4.24h0Z"/>
  <path class="cls-1" d="M116.95,157.35c5.43-.14,10.85-.46,16.26-1.04,3.89-.42,9.21-.24,12.46-2.6s.11-7.45-3.03-5.18-9.64,1.83-13.25,2.14c-4.14.36-8.29.56-12.44.67-3.85.1-3.87,6.1,0,6h0Z"/>
  <path class="cls-1" d="M85.85,95.74c-3.65-2.97-7.29-5.95-10.94-8.92-2.97-2.42-7.24,1.8-4.24,4.24,3.65,2.97,7.29,5.95,10.94,8.92,2.97,2.42,7.24-1.8,4.24-4.24h0Z"/>
  <path class="cls-1" d="M64.49,84.32c-2.95,1.74-5.12,4.61-5.9,7.96-.37,1.58.49,3.25,2.1,3.69,1.52.42,3.32-.51,3.69-2.1.44-1.89,1.46-3.38,3.14-4.37,3.32-1.96.31-7.15-3.03-5.18h0Z"/>
  <path class="cls-1" d="M63.78,108.66c3.16,7.58,9.73,13.2,17.99,14.34,3.78.52,5.41-5.26,1.6-5.79-6.02-.83-11.41-4.43-13.8-10.15-1.47-3.51-7.27-1.97-5.79,1.6h0Z"/>
  <path class="cls-1" d="M63.02,103.79c3.86,0,3.87-6,0-6s-3.87,6,0,6h0Z"/>
  <path class="cls-1" d="M111.29,147.08c-5.77-5.36-4.28-15.79-2.02-22.59,2.58-7.78,10.58-13.36,18.84-12.69s15.81,7.92,16.77,16.44c.9,7.94-1.68,18.63-9.04,22.79-3.36,1.9-.34,7.08,3.03,5.18,9.89-5.58,13.46-19.46,11.73-30.07s-10.62-18.94-21.1-20.19c-10.46-1.25-21.04,5.01-25.16,14.66-3.89,9.12-5.21,23.37,2.7,30.72,2.83,2.62,7.08-1.61,4.24-4.24h0Z"/>
  <path class="cls-1" d="M114.76,89.57c-6.55-5.54.77-13,7.54-11.8,3.26.58,6.49,2.37,7.99,5.44,1.72,3.52.4,8.13-4.13,8.09-3.86-.03-3.87,5.97,0,6,6.24.05,11.05-4.86,10.97-11.13-.08-6.62-5.38-11.87-11.41-13.76-6.08-1.91-13.07-.41-16.99,4.85s-3.15,12.37,1.8,16.55c2.93,2.48,7.2-1.75,4.24-4.24h0Z"/>
  <path class="cls-1" d="M100.96,71.09c.37,1.65.01,3.13.9,4.68.79,1.37,2.1,2.33,3.69,2.46,3.14.25,4.76-2.84,5.22-5.48.51-2.94-.15-6.1-1.87-8.56-1.58-2.27-4.5-4.65-7.26-2.72-4.65,3.24-1.72,13.84,4.35,13.07,3.09-.4,4.28-3.65,4.06-6.4-.26-3.27-2.08-5.94-4.75-7.75-1.06-.72-2.77-.45-3.64.47-1.31,1.4-1.87,2.77-1.97,4.68-.2,3.86,5.8,3.85,6,0l.21-.44-3.64.47c.73.5,1.29,1.15,1.58,2,.16.46,0,1.41.2,1.73,2.01.21,2.66-.03,1.96-.72-.21-.21-.37-.47-.46-.76-.16-.41-.4-1.51.02-1.86l-2.12.88c.61-.08,1.47,3.09,1.49,3.81.02.39,0,.78-.08,1.16-.53,1.17.2,1.44,2.19.79.38-.55-.19-2.49-.32-3.1-.84-3.77-6.63-2.17-5.79,1.6h0Z"/>
  <path class="cls-1" d="M129.08,67.6c-.27,2.86.36,8.36,4.29,8.38,3.54.01,4.79-4.71,4.91-7.48s-.07-8.23-2.78-9.81c-3.4-2-6.03,2.09-6.94,4.81-1.05,3.13-.88,6.86.68,9.8.81,1.53,2.11,2.87,3.99,2.8s3.05-1.62,3.89-3.07c1.63-2.81,2.5-6.97,1.02-10.02s-4.97-3.82-7.65-1.71c-3.03,2.38,1.24,6.6,4.24,4.24l-1.91.4.02.59c-.2.47-.09,1.26-.22,1.78-.26,1-.71,2.01-1.52,2.67l2.92-.77c.72.17.11-.71,0-1.19-.14-.65-.17-1.32-.12-1.98s.19-1.32.43-1.94l.25-.56c.62-.78.42-.86-.61-.25l-2.12-.88c-.39-.8-.48-.87-.27-.22.11.42.21.85.3,1.28.17.84.3,1.69.36,2.54.05.71.1,1.48-.04,2.18-.19.96-1.11,1.47.35.91l2.31.3c.83.41.27.05.16-.8-.08-.67-.03-1.32.03-1.99.36-3.84-5.64-3.82-6,0h0Z"/>
  <path class="cls-1" d="M105.68,72.97c3.86,0,3.87-6,0-6s-3.87,6,0,6h0Z"/>
  <path class="cls-1" d="M103.91,74.45c3.86,0,3.87-6,0-6s-3.87,6,0,6h0Z"/>
</svg>