<?xml version="1.0" encoding="UTF-8"?>
<svg id="_图层_1" data-name="图层 1" xmlns="http://www.w3.org/2000/svg" viewBox="0 0 224 211.16">
  <defs>
    <style>
      .cls-1, .cls-2 {
        fill: #8a6a4a;
      }

      .cls-3 {
        opacity: .31;
      }

      .cls-2 {
        font-family: Fredoka-Bold, Fredoka;
        font-size: 167.09px;
        font-weight: 700;
      }
    </style>
  </defs>
  <g class="cls-3">
    <text class="cls-2" transform="translate(59.9 177.61)"><tspan x="0" y="0">T</tspan></text>
  </g>
  <path class="cls-1" d="M99.71,56.94c-7.49.77-13.65,5.82-14.35,13.62-.76,8.46,5.51,13.91,12.2,17.75,3.35,1.92,6.38-3.26,3.03-5.18-3.81-2.19-8.03-4.71-9.06-9.31-1.22-5.49,2.71-10.3,8.18-10.87,3.8-.39,3.84-6.4,0-6h0Z"/>
  <path class="cls-1" d="M106.98,58.29c8.79-1.97,18.24.37,24.88,6.55,3.43,3.2,7.12,8.21,4.96,13.06-1.73,3.89-6.17,6.08-9.74,7.98s-.38,7,3.03,5.18c4.88-2.61,10.22-5.8,12.41-11.17,2.35-5.77.03-11.73-3.69-16.34-7.96-9.86-21.28-13.77-33.45-11.05-3.77.84-2.17,6.63,1.6,5.79h0Z"/>
  <path class="cls-1" d="M108.66,94.11c6.58,1.02,12.82.08,18.75-2.98,3.43-1.77.4-6.95-3.03-5.18-4.38,2.26-9.24,3.13-14.13,2.38-3.78-.58-5.41,5.2-1.6,5.79h0Z"/>
  <path class="cls-1" d="M98.79,51.93c-.57-7.58-10.13-10.46-14.96-4.62-5.44,6.59-.74,15.03,5.8,18.48,3.41,1.8,6.45-3.38,3.03-5.18-2.68-1.41-5.7-3.91-5.16-7.32.19-1.23.92-2.65,2.16-3.06,1.17-.39,3.01.27,3.12,1.7.29,3.83,6.29,3.86,6,0h0Z"/>
  <path class="cls-1" d="M129.15,51.22c.53-3.19,5.02-4.41,5.71-.61.61,3.37-4.33,4.64-6.69,5.14-3.78.8-2.18,6.58,1.6,5.79,6.87-1.45,14.38-7.53,9.78-15.13-4.15-6.86-14.87-4.66-16.17,3.21-.63,3.78,5.15,5.4,5.79,1.6h0Z"/>
  <path class="cls-1" d="M84.03,61.66c-8.51-1.17-20.61-2.27-28.26,2.68-7.49,4.85-3.71,12.83,1.43,17.74,2.79,2.67,7.04-1.57,4.24-4.24-2.04-1.95-4.83-4.34-3.36-7.16,1.07-2.07,3.62-2.5,5.75-2.93,6.07-1.21,12.5-1.15,18.62-.31,3.78.52,5.41-5.26,1.6-5.79h0Z"/>
  <path class="cls-1" d="M60.57,86.21c3.86,0,3.87-6,0-6s-3.87,6,0,6h0Z"/>
  <path class="cls-1" d="M55.66,78.79c-.34,8.46,7.93,14.67,15.96,11.84,3.62-1.27,2.06-7.07-1.6-5.79-4.42,1.56-8.55-1.32-8.37-6.06.15-3.86-5.85-3.85-6,0h0Z"/>
  <path class="cls-1" d="M80.05,91.06c4.46-1.29,8.91-2.59,13.37-3.88,3.7-1.07,2.13-6.87-1.6-5.79-4.46,1.29-8.91,2.59-13.37,3.88-3.7,1.07-2.13,6.87,1.6,5.79h0Z"/>
  <path class="cls-1" d="M143.09,65.08c7.16-4.75,15.91-5.65,23.75-1.95,3.47,1.64,6.52-3.53,3.03-5.18-9.73-4.58-20.79-4.03-29.8,1.95-3.2,2.13-.2,7.32,3.03,5.18h0Z"/>
  <path class="cls-1" d="M164.72,65.87c.96,7.2-3.15,13.22-10.32,14.67-3.78.77-2.18,6.55,1.6,5.79,9.53-1.93,16.01-10.77,14.72-20.46-.5-3.77-6.51-3.82-6,0h0Z"/>
  <path class="cls-1" d="M142.8,88.2c4.74-.15,9.48-.3,14.22-.46,3.85-.12,3.87-6.12,0-6-4.74.15-9.48.3-14.22.46-3.85.12-3.87,6.12,0,6h0Z"/>
  <path class="cls-1" d="M91.01,89.61c6.43,16.83,8.4,34.87,5.42,52.66-.63,3.78,5.15,5.4,5.79,1.6,3.15-18.85,1.41-37.97-5.42-55.85-1.36-3.57-7.17-2.02-5.79,1.6h0Z"/>
  <path class="cls-1" d="M97.71,131.66c-.46,9.47-.91,18.95-1.37,28.42-.19,3.86,5.81,3.85,6,0,.46-9.47.91-18.95,1.37-28.42.19-3.86-5.81-3.85-6,0h0Z"/>
  <path class="cls-1" d="M98.79,157.32c3.86,0,3.87-6,0-6s-3.87,6,0,6h0Z"/>
  <path class="cls-1" d="M95.43,161.83c-3.32.75-5.59,4.09-5.09,7.44s3.8,5.92,7.13,5.48c1.61-.21,3-1.23,3-3,0-1.46-1.38-3.21-3-3-.52.07-1.06.06-1.22-.29-.2-.42.31-.75.77-.85,3.76-.85,2.17-6.64-1.6-5.79h0Z"/>
  <path class="cls-1" d="M93.65,158.21c-6.58,3-9.85,11.65-6.39,18.15s12.25,8.63,18.59,5.06c3.36-1.9.34-7.08-3.03-5.18s-8.6.92-10.38-2.91.6-8.28,4.24-9.95.46-6.77-3.03-5.18h0Z"/>
  <path class="cls-1" d="M104.12,167.89c3.57.23,4.95,3.66,3.75,6.7-1.42,3.59,4.38,5.15,5.79,1.6,2.73-6.92-2.42-13.85-9.53-14.3-3.86-.24-3.84,5.76,0,6h0Z"/>
  <path class="cls-1" d="M125.08,161.26c-4.82-.13-10.24,1.48-11.92,6.53-1.47,4.42,1.76,9.41,6.56,9.27,3.85-.11,3.87-6.11,0-6-1.33.04-.94-1.57-.36-2.25,1.36-1.61,3.81-1.6,5.72-1.55,3.86.11,3.86-5.89,0-6h0Z"/>
  <path class="cls-1" d="M132.6,163.66c5.15,1.82,5.31,8.28.77,10.91-3.34,1.93-.32,7.12,3.03,5.18,9.26-5.36,7.69-18.39-2.2-21.87-3.65-1.29-5.22,4.51-1.6,5.79h0Z"/>
  <path class="cls-1" d="M131.14,180.32c2.52-.44,5.04-.89,7.56-1.33,1.6-.28,2.5-2.23,2.1-3.69-.46-1.68-2.09-2.38-3.69-2.1-2.52.44-5.04.89-7.56,1.33-1.6.28-2.5,2.23-2.1,3.69.46,1.68,2.09,2.38,3.69,2.1h0Z"/>
  <path class="cls-1" d="M131.78,88.6c-5.39,20.64-6.56,41.87-3.65,62.99.52,3.81,6.31,2.19,5.79-1.6-2.75-20.01-1.45-40.27,3.65-59.8.98-3.74-4.81-5.33-5.79-1.6h0Z"/>
  <path class="cls-1" d="M126.86,151.61c.99,3.27,1.99,6.55,2.98,9.82,1.12,3.68,6.91,2.11,5.79-1.6-.99-3.27-1.99-6.55-2.98-9.82-1.12-3.68-6.91-2.11-5.79,1.6h0Z"/>
  <path class="cls-1" d="M132.12,160.43c3.86,0,3.87-6,0-6s-3.87,6,0,6h0Z"/>
  <path class="cls-1" d="M123.73,181.31c2.22.89,4.44,1.78,6.67,2.67,1.5.6,3.3-.66,3.69-2.1.47-1.71-.58-3.09-2.1-3.69-2.22-.89-4.44-1.78-6.67-2.67-1.5-.6-3.3.66-3.69,2.1-.47,1.71.58,3.09,2.1,3.69h0Z"/>
  <path class="cls-1" d="M131.68,157.76c3.86,0,3.87-6,0-6s-3.87,6,0,6h0Z"/>
  <path class="cls-1" d="M134.93,158.39c9.35,2.24,18.35-2.88,21.01-12.15,1.07-3.72-4.72-5.31-5.79-1.6-1.75,6.08-7.44,9.45-13.63,7.96-3.75-.9-5.35,4.89-1.6,5.79h0Z"/>
  <path class="cls-1" d="M69.46,90.21c3.86,0,3.87-6,0-6s-3.87,6,0,6h0Z"/>
</svg>