<?xml version="1.0" encoding="UTF-8"?>
<svg id="_图层_1" data-name="图层 1" xmlns="http://www.w3.org/2000/svg" viewBox="0 0 224 211.16">
  <defs>
    <style>
      .cls-1, .cls-2 {
        fill: #8a6a4a;
      }

      .cls-3 {
        opacity: .31;
      }

      .cls-2 {
        font-family: Fredoka-Bold, Fredoka;
        font-size: 167.09px;
        font-weight: 700;
      }
    </style>
  </defs>
  <path class="cls-1" d="M115.15,179.78c3.86,0,3.87-6,0-6s-3.87,6,0,6h0Z"/>
  <path class="cls-1" d="M119.15,181.56c3.86,0,3.87-6,0-6s-3.87,6,0,6h0Z"/>
  <path class="cls-1" d="M157.37,182c3.86,0,3.87-6,0-6s-3.87,6,0,6h0Z"/>
  <path class="cls-1" d="M158.97,175.08c-2.17,1.31-4.35,2.62-6.52,3.93l3.03,5.18c2.48-1.67,4.96-3.34,7.44-5.01,3.18-2.15.19-7.35-3.03-5.18-2.48,1.67-4.96,3.34-7.44,5.01-3.17,2.14-.32,7.2,3.03,5.18,2.17-1.31,4.35-2.62,6.52-3.93,3.3-1.99.29-7.18-3.03-5.18h0Z"/>
  <g class="cls-3">
    <text class="cls-2" transform="translate(64.72 169.51)"><tspan x="0" y="0">G</tspan></text>
  </g>
  <path class="cls-1" d="M129.54,46.16c-7.11-5.23-17.61-8.19-26.21-4.99-5.75,2.14-8.09,10.69-.98,12.76,3.71,1.08,5.3-4.71,1.6-5.79.34-.99,1.07-1.51,2.18-1.58,1.2-.31,2.42-.49,3.66-.53,1.89-.11,3.82-.01,5.68.33,4.09.74,7.72,2.53,11.05,4.98,3.11,2.29,6.11-2.91,3.03-5.18h0Z"/>
  <path class="cls-1" d="M107.86,53.09c2.81,1.48,5.63,2.96,8.44,4.44,3.41,1.8,6.45-3.38,3.03-5.18-2.81-1.48-5.63-2.96-8.44-4.44-3.41-1.8-6.45,3.38-3.03,5.18h0Z"/>
  <path class="cls-1" d="M163.34,49.24c1.69-2.19,3.4-4.52,5.69-6.11,2.51-1.73,8.3-3.02,8.38,1.82.07,3.86,6.07,3.87,6,0-.1-5.42-4.43-9.46-9.84-9.47-6.4,0-10.86,4.84-14.47,9.52-2.33,3.02,1.88,7.29,4.24,4.24h0Z"/>
  <path class="cls-1" d="M173.27,44.12c-4.48,3.66-8.96,7.32-13.44,10.98-2.99,2.44,1.28,6.67,4.24,4.24,4.48-3.66,8.96-7.32,13.44-10.98,2.99-2.44-1.28-6.67-4.24-4.24h0Z"/>
  <path class="cls-1" d="M130.19,61.43l-2.95-4.78c-2.08-3.37-6.68-.43-5.18,3.03,4.85,11.23,11.42,21.44,19.5,30.61,2.56,2.9,6.79-1.35,4.24-4.24-7.75-8.79-13.92-18.64-18.56-29.39l-5.18,3.03,2.95,4.78c2.02,3.28,7.22.27,5.18-3.03h0Z"/>
  <path class="cls-1" d="M151.69,92.47c5.21.93,10.35.07,14.81-2.85,3.22-2.11.21-7.31-3.03-5.18-3.06,2-6.55,2.9-10.19,2.25-3.78-.68-5.4,5.1-1.6,5.79h0Z"/>
  <path class="cls-1" d="M159.27,69.11c2.12,5.64,3.18,11.37,3.15,17.4-.02,3.86,5.98,3.87,6,0,.04-6.53-1.06-12.88-3.36-18.99-1.35-3.58-7.15-2.03-5.79,1.6h0Z"/>
  <path class="cls-1" d="M160.15,66.01c.79,7.25,1.58,14.51,2.37,21.76.41,3.8,6.42,3.84,6,0-.79-7.25-1.58-14.51-2.37-21.76-.41-3.8-6.42-3.84-6,0h0Z"/>
  <path class="cls-1" d="M145.22,76.72c.1-12.35,15.88-15.29,21.08-4.43,1.67,3.48,6.84.44,5.18-3.03-3.37-7.02-11.46-11.48-19.23-9.63s-12.97,9.23-13.04,17.09c-.03,3.86,5.97,3.87,6,0h0Z"/>
  <path class="cls-1" d="M134.01,44.22c7.12-4.66,15.67-5,23.06-.72,3.35,1.94,6.37-3.25,3.03-5.18-9.14-5.28-20.26-5.07-29.12.72-3.22,2.11-.22,7.3,3.03,5.18h0Z"/>
  <path class="cls-1" d="M124.93,24.16c3.86,0,3.87-6,0-6s-3.87,6,0,6h0Z"/>
  <path class="cls-1" d="M124.93,22.49s.11.38.11.38c-.11,0-.03-.69-.06-.11-.02.41.09-.62.02-.21-.1.58,0-.12.07-.06,0,0-.19.35-.2.35-.1-.04.53-.39.1-.14-.46.27.38-.23.08-.03-.18.12-.59.25.09,0-1.47.54-2.62,2.06-2.1,3.69.47,1.44,2.11,2.67,3.69,2.1,3.02-1.1,5.02-4.34,3.98-7.55-.48-1.49-2.1-2.61-3.69-2.1-1.49.48-2.62,2.09-2.1,3.69h0Z"/>
  <path class="cls-1" d="M126.71,29.5c3.86,0,3.87-6,0-6s-3.87,6,0,6h0Z"/>
  <path class="cls-1" d="M151.6,26.83c3.86,0,3.87-6,0-6s-3.87,6,0,6h0Z"/>
  <path class="cls-1" d="M152.48,25.05c3.86,0,3.87-6,0-6s-3.87,6,0,6h0Z"/>
  <path class="cls-1" d="M152.48,25.05c3.86,0,3.87-6,0-6s-3.87,6,0,6h0Z"/>
  <path class="cls-1" d="M151.6,23.72c3.86,0,3.87-6,0-6s-3.87,6,0,6h0Z"/>
  <path class="cls-1" d="M151.15,17.72h-.44c-.41-.02-.8.07-1.16.26-.37.12-.69.33-.97.62-.29.27-.5.59-.62.97-.19.36-.27.74-.26,1.16l.11.8c.14.51.4.95.77,1.32l.61.47c.47.27.97.41,1.51.41h.44c.41.02.8-.07,1.16-.26.37-.12.69-.33.97-.62.29-.27.5-.59.62-.97.19-.36.27-.74.26-1.16l-.11-.8c-.14-.51-.4-.95-.77-1.32l-.61-.47c-.47-.27-.97-.41-1.51-.41h0Z"/>
  <path class="cls-1" d="M150.26,22.83c3.86,0,3.87-6,0-6s-3.87,6,0,6h0Z"/>
  <path class="cls-1" d="M147.17,18.72c-.3.44-.6.88-.9,1.32-.42.62-.49,1.61-.3,2.31s.73,1.45,1.38,1.79c.7.37,1.54.55,2.31.3s1.33-.71,1.79-1.38c.3-.44.6-.88.9-1.32.42-.62.49-1.61.3-2.31s-.73-1.45-1.38-1.79c-.7-.37-1.54-.55-2.31-.3s-1.33.71-1.79,1.38h0Z"/>
  <path class="cls-1" d="M149.37,26.83c3.86,0,3.87-6,0-6s-3.87,6,0,6h0Z"/>
  <path class="cls-1" d="M149.82,26.83h1.33c.77,0,1.58-.33,2.12-.88s.91-1.37.88-2.12-.29-1.58-.88-2.12-1.31-.88-2.12-.88h-1.33c-.77,0-1.58.33-2.12.88s-.91,1.37-.88,2.12.29,1.58.88,2.12,1.31.88,2.12.88h0Z"/>
  <path class="cls-1" d="M152.48,25.94c3.86,0,3.87-6,0-6s-3.87,6,0,6h0Z"/>
  <path class="cls-1" d="M149.29,21.64c-.81,4.31-1.62,8.62-2.43,12.93-.71,3.77,5.07,5.39,5.79,1.6.81-4.31,1.62-8.62,2.43-12.93.71-3.77-5.07-5.39-5.79-1.6h0Z"/>
  <path class="cls-1" d="M127.67,31.57c1.19,2.07,2.37,4.15,3.56,6.22,1.92,3.35,7.1.33,5.18-3.03-1.19-2.07-2.37-4.15-3.56-6.22-1.92-3.35-7.1-.33-5.18,3.03h0Z"/>
  <path class="cls-1" d="M128.93,32.16c3.86,0,3.87-6,0-6s-3.87,6,0,6h0Z"/>
  <path class="cls-1" d="M127.15,25.94c3.86,0,3.87-6,0-6s-3.87,6,0,6h0Z"/>
  <path class="cls-1" d="M131.15,26.39c3.86,0,3.87-6,0-6s-3.87,6,0,6h0Z"/>
  <path class="cls-1" d="M128.02,21.6c-.74.89-1.48,1.78-2.22,2.67-.52.63-.88,1.28-.88,2.12,0,.74.33,1.61.88,2.12,1.11,1.02,3.17,1.29,4.24,0,.74-.89,1.48-1.78,2.22-2.67.52-.63.88-1.28.88-2.12,0-.74-.33-1.61-.88-2.12-1.11-1.02-3.17-1.29-4.24,0h0Z"/>
  <path class="cls-1" d="M125.82,26.83c3.86,0,3.87-6,0-6s-3.87,6,0,6h0Z"/>
  <path class="cls-1" d="M122.17,22.69l-1.33,3.11c-.33.77-.54,1.46-.3,2.31.19.7.73,1.45,1.38,1.79,1.29.68,3.44.46,4.1-1.08l1.33-3.11c.33-.77.54-1.46.3-2.31-.19-.7-.73-1.45-1.38-1.79-1.29-.68-3.44-.46-4.1,1.08h0Z"/>
  <path class="cls-1" d="M138.71,64.61c3.86,0,3.87-6,0-6s-3.87,6,0,6h0Z"/>
  <path class="cls-1" d="M137.82,63.28c3.86,0,3.87-6,0-6s-3.87,6,0,6h0Z"/>
  <path class="cls-1" d="M155.6,58.39c3.86,0,3.87-6,0-6s-3.87,6,0,6h0Z"/>
  <path class="cls-1" d="M156.04,60.61c3.86,0,3.87-6,0-6s-3.87,6,0,6h0Z"/>
  <path class="cls-1" d="M116.49,53.31c-21.5-.09-35.12,22.04-40.41,40.37-6.05,20.94-3.44,43.88,7.17,62.89,1.88,3.37,7.07.35,5.18-3.03-9.33-16.72-11.93-36.66-7.37-55.25,4.05-16.52,15.72-39.06,35.43-38.98,3.86.02,3.87-5.98,0-6h0Z"/>
  <path class="cls-1" d="M135.47,81.47c-12.65-4.04-22.56,6.08-28.24,16.2s-7.66,22.21.59,31.26c2.61,2.86,6.84-1.39,4.24-4.24-6.34-6.96-3.79-16.62.34-23.99s11.48-16.64,21.47-13.45c3.69,1.18,5.26-4.61,1.6-5.79h0Z"/>
  <path class="cls-1" d="M85.63,148.29c.3,5.04.6,10.07.9,15.11.23,3.84,6.23,3.86,6,0-.3-5.04-.6-10.07-.9-15.11-.23-3.84-6.23-3.86-6,0h0Z"/>
  <path class="cls-1" d="M85.05,155.76c.69,3.42,1.38,6.83,2.08,10.25.77,3.78,6.55,2.18,5.79-1.6-.69-3.42-1.38-6.83-2.08-10.25-.77-3.78-6.55-2.18-5.79,1.6h0Z"/>
  <path class="cls-1" d="M96.49,171.53c6.66,1.5,13.33,2.99,19.99,4.49,3.76.85,5.37-4.94,1.6-5.79-6.66-1.5-13.33-2.99-19.99-4.49-3.76-.85-5.37,4.94-1.6,5.79h0Z"/>
  <path class="cls-1" d="M109.9,160.28c.89,6.67,1.77,13.33,2.66,20,.5,3.77,6.51,3.82,6,0-.89-6.67-1.77-13.33-2.66-20-.5-3.77-6.51-3.82-6,0h0Z"/>
  <path class="cls-1" d="M124.11,165.16l-1.34,15.55c-.33,3.85,5.67,3.82,6,0,.45-5.18.9-10.37,1.34-15.55.33-3.85-5.67-3.82-6,0h0Z"/>
  <path class="cls-1" d="M152.37,163.82c.23,6.22.46,12.44.69,18.66.14,3.85,6.14,3.87,6,0-.23-6.22-.46-12.44-.69-18.66-.14-3.85-6.14-3.87-6,0h0Z"/>
  <path class="cls-1" d="M163.74,163.02c-.61,4.15-1.22,8.29-1.83,12.44-.56,3.78,5.23,5.41,5.79,1.6.61-4.15,1.22-8.29,1.83-12.44.56-3.78-5.23-5.41-5.79-1.6h0Z"/>
  <path class="cls-1" d="M167.15,180.16c3.86,0,3.87-6,0-6s-3.87,6,0,6h0Z"/>
  <path class="cls-1" d="M137.82,174.68c4.01.18,8.01.37,12.02.55s3.85-5.82,0-6-8.01-.37-12.02-.55-3.85,5.82,0,6h0Z"/>
  <path class="cls-1" d="M112.22,134.32c9.31,9.41,23.34,12.71,35.82,8.2,3.6-1.3,2.05-7.1-1.6-5.79-10.53,3.81-22.08,1.33-29.99-6.65-2.72-2.75-6.96,1.49-4.24,4.24h0Z"/>
  <path class="cls-1" d="M143.38,125.16c.04,4.44.08,8.89.12,13.33.04,3.86,6.04,3.87,6,0-.04-4.44-.08-8.89-.12-13.33-.04-3.86-6.04-3.87-6,0h0Z"/>
  <path class="cls-1" d="M140.53,99.62c-6.13-2.67-16-4.06-17.24,5.04s7.34,12.51,14.51,13.24c3.47.35,3.92-4.94.8-5.89-5.45-1.66-11.23,3.2-9.08,8.93.96,2.57,3.37,4.5,6.13,4.7,3.85.28,7.62-4.84,11.06-3.66,3.66,1.26,5.23-4.53,1.6-5.79-2.07-.71-3.94-.59-5.98.22-1.2.48-2.27,1.56-3.44,1.95l-1.12.7c-2.83-1.09-3.08-1.51-.76-1.27l.8-5.89c-3.01-.31-7.47-1.15-8.42-4.59-1.59-5.75,5.52-3.65,8.13-2.51,3.5,1.53,6.56-3.64,3.03-5.18h0Z"/>
  <path class="cls-1" d="M143.23,124.9c.89,1.93,1.78,3.85,2.67,5.78.68,1.47,2.8,1.84,4.1,1.08,1.51-.88,1.76-2.63,1.08-4.1-.89-1.93-1.78-3.85-2.67-5.78-.68-1.47-2.8-1.84-4.1-1.08-1.51.88-1.76,2.63-1.08,4.1h0Z"/>
  <path class="cls-1" d="M145.87,108.65c5.34,1.3,10.68,2.59,16.03,3.89,3.75.91,5.35-4.87,1.6-5.79-5.34-1.3-10.68-2.59-16.03-3.89-3.75-.91-5.35,4.87-1.6,5.79h0Z"/>
  <path class="cls-1" d="M158.32,110.92c4.83.94,8.92,3.24,12.2,6.9,2.58,2.88,6.81-1.37,4.24-4.24-3.91-4.36-9.1-7.33-14.85-8.44-3.77-.73-5.39,5.05-1.6,5.79h0Z"/>
  <path class="cls-1" d="M171.14,117.83c6.46,14.82,4.69,31.94-4.15,45.37-2.13,3.24,3.07,6.24,5.18,3.03,10.1-15.36,11.46-34.65,4.15-51.43-1.54-3.53-6.71-.48-5.18,3.03h0Z"/>
</svg>