<?xml version="1.0" encoding="UTF-8"?>
<svg id="_图层_1" data-name="图层 1" xmlns="http://www.w3.org/2000/svg" viewBox="0 0 224 211.16">
  <defs>
    <style>
      .cls-1, .cls-2 {
        fill: #8a6a4a;
      }

      .cls-3 {
        opacity: .31;
      }

      .cls-2 {
        font-family: Fredoka-Bold, Fredoka;
        font-size: 167.09px;
        font-weight: 700;
      }
    </style>
  </defs>
  <g class="cls-3">
    <text class="cls-2" transform="translate(68.79 164.74)"><tspan x="0" y="0">U</tspan></text>
  </g>
  <path class="cls-1" d="M73.87,44.97c-5.89-3.43-11.72-6.97-17.68-10.28-3.17-1.77-8.3-3.17-9.04,2.05-.59,4.19,3.58,8.49,6.1,11.37,3.72,4.25,8.22,7.71,13.14,10.44,3.38,1.87,6.41-3.31,3.03-5.18s-6.68-4.17-9.53-6.96c-.73-.71-7.17-8.1-6.81-8.39l-2.12.88c2.62,0,7.22,3.89,9.56,5.25,3.44,2,6.87,4,10.31,6s6.37-3.24,3.03-5.18h0Z"/>
  <path class="cls-1" d="M63.49,57.19c3.86,0,3.87-6,0-6s-3.87,6,0,6h0Z"/>
  <path class="cls-1" d="M57.33,56.76c-2.17,5.06-7.43,6.55-12.13,8.53-4.2,1.77-7.75,3.92-10.32,7.77-2.15,3.22,3.04,6.23,5.18,3.03,2.94-4.4,8.51-5.5,13.03-7.61,4.03-1.88,7.62-4.51,9.41-8.69,1.5-3.51-3.66-6.57-5.18-3.03h0Z"/>
  <path class="cls-1" d="M36.52,81.23c2.22,8.83,12.28,12.87,19.93,7.84,3.21-2.11.21-7.31-3.03-5.18-4.46,2.94-9.8,1-11.12-4.25-.94-3.74-6.73-2.16-5.79,1.6h0Z"/>
  <path class="cls-1" d="M60.73,88.2c2.37-.89,4.74-1.78,7.11-2.67,1.52-.57,2.55-2.03,2.1-3.69-.4-1.46-2.17-2.67-3.69-2.1-2.37.89-4.74,1.78-7.11,2.67-1.52.57-2.55,2.03-2.1,3.69.4,1.46,2.17,2.67,3.69,2.1h0Z"/>
  <path class="cls-1" d="M79.84,45.07c5.29-2.2,10.64-1.66,15.34,1.66,3.16,2.23,6.16-2.97,3.03-5.18-5.82-4.11-13.38-5-19.96-2.26-3.52,1.46-1.97,7.27,1.6,5.79h0Z"/>
  <path class="cls-1" d="M55.73,52c-2.94,1.43-6.13,1.58-9.24.68-3.72-1.07-5.3,4.71-1.6,5.79,4.71,1.36,9.47.84,13.86-1.29,3.47-1.69.43-6.86-3.03-5.18h0Z"/>
  <path class="cls-1" d="M46.13,61.94l13.76,1.48c3.83.41,3.81-5.59,0-6l-13.76-1.48c-3.83-.41-3.81,5.59,0,6h0Z"/>
  <path class="cls-1" d="M71.16,66.8c5.56,8.81,13.37,15.76,22.88,20.07,3.49,1.58,6.54-3.59,3.03-5.18-8.6-3.89-15.68-9.92-20.73-17.91-2.06-3.26-7.25-.25-5.18,3.03h0Z"/>
  <path class="cls-1" d="M93.87,72.97c5.14,6.84,7.52,14.98,6.26,23.53-.56,3.78,5.22,5.41,5.79,1.6,1.5-10.09-.7-19.94-6.86-28.15-2.29-3.05-7.5-.06-5.18,3.03h0Z"/>
  <path class="cls-1" d="M100.11,50.31c6.42,10.74,7.4,23.33,2.95,35-1.38,3.61,4.42,5.17,5.79,1.6,5-13.09,3.62-27.61-3.55-39.62-1.98-3.31-7.17-.3-5.18,3.03h0Z"/>
  <path class="cls-1" d="M104.6,77.4c-.89,3.41-1.78,6.81-2.67,10.22-.98,3.74,4.81,5.33,5.79,1.6.89-3.41,1.78-6.81,2.67-10.22.98-3.74-4.81-5.33-5.79-1.6h0Z"/>
  <path class="cls-1" d="M94.38,65.76c2.98-1.46,5.95-2.91,8.93-4.37,3.47-1.7.43-6.87-3.03-5.18-2.98,1.46-5.95,2.91-8.93,4.37-3.47,1.7-.43,6.87,3.03,5.18h0Z"/>
  <path class="cls-1" d="M95.87,63.12c-.71,3.62-2.78,6.44-6.06,8.15s-.4,6.96,3.03,5.18c4.53-2.36,7.83-6.72,8.82-11.74.74-3.77-5.04-5.39-5.79-1.6h0Z"/>
  <path class="cls-1" d="M85.71,67.86c3.86,0,3.87-6,0-6s-3.87,6,0,6h0Z"/>
  <path class="cls-1" d="M82.16,65.01c-1.22,5.87,1.38,11.98,6.75,14.82,3.41,1.8,6.45-3.37,3.03-5.18-2.91-1.54-4.68-4.74-4-8.04.79-3.77-5-5.38-5.79-1.6h0Z"/>
  <path class="cls-1" d="M85.71,66.97c3.86,0,3.87-6,0-6s-3.87,6,0,6h0Z"/>
  <path class="cls-1" d="M66.24,86.81c2.89,4.25,3.93,9.09,2.76,14.13-.87,3.76,4.91,5.36,5.79,1.6,1.51-6.52.41-13.19-3.37-18.75-2.16-3.18-7.36-.18-5.18,3.03h0Z"/>
  <path class="cls-1" d="M67.62,92.42c-1.76,23.11,5.53,45.83,20.03,63.85,2.42,3.01,6.64-1.26,4.24-4.24-13.51-16.79-19.9-38.16-18.27-59.61.29-3.85-5.71-3.83-6,0h0Z"/>
  <path class="cls-1" d="M97.97,155.66c-1-3.83,4.27-3.88,6.57-2.81s3.96,3.03,4.66,5.39c1.39,4.7-1.94,9.12-6.39,10.36-3.71,1.03-2.14,6.82,1.6,5.79,10.12-2.82,14.61-14.96,7.59-23.21-3.19-3.75-8.46-5.99-13.36-4.71s-7.72,5.92-6.45,10.79c.97,3.73,6.76,2.15,5.79-1.6h0Z"/>
  <path class="cls-1" d="M89.87,157.16c-1.43,3.16-1.41,6.86.73,9.73.97,1.3,2.6,1.96,4.1,1.08,1.28-.75,2.05-2.8,1.08-4.1-.8-1.07-1.29-2.41-.73-3.67.67-1.48.42-3.23-1.08-4.1-1.28-.75-3.43-.41-4.1,1.08h0Z"/>
  <path class="cls-1" d="M66.75,103.08c-.63,12.52.58,25.08,3.8,37.2,2.43,9.14,6.41,19.92,17.03,21.59,3.78.6,5.4-5.18,1.6-5.79-10.13-1.6-12.33-14.42-14.13-22.76-2.15-9.95-2.81-20.09-2.3-30.25.19-3.86-5.81-3.85-6,0h0Z"/>
  <path class="cls-1" d="M100.96,101.36c1.11,8.6,2.22,17.2,3.33,25.81.49,3.78,6.49,3.82,6,0-1.11-8.6-2.22-17.2-3.33-25.81-.49-3.78-6.49-3.82-6,0h0Z"/>
  <path class="cls-1" d="M113.33,138.66c8.21,9.26,21.93,7.94,28.88-1.98,2.22-3.17-2.98-6.17-5.18-3.03-4.88,6.96-14,6.93-19.46.77-2.57-2.9-6.8,1.36-4.24,4.24h0Z"/>
  <path class="cls-1" d="M154.48,63.17c.97,14.88,1.98,29.91.13,44.76-1.4,11.23-6.24,34.92-22.76,29.74-3.69-1.16-5.27,4.63-1.6,5.79,15.72,4.94,25.29-10.8,28.32-23.73,4.34-18.53,3.13-37.75,1.9-56.56-.25-3.83-6.25-3.86-6,0h0Z"/>
  <path class="cls-1" d="M163.57,58.89c2.35-4.68,7.57-6.74,12.48-4.98,3.64,1.31,5.21-4.49,1.6-5.79-7.29-2.61-15.79.82-19.26,7.73-1.73,3.44,3.45,6.48,5.18,3.03h0Z"/>
  <path class="cls-1" d="M182.64,57.4c8.89,5.61,8.96,17.38,12.06,26.36,2.54,7.36,7.24,13.91,15.05,16.06,3.73,1.03,5.32-4.76,1.6-5.79-10.23-2.82-11.65-14.91-13.97-23.6-1.95-7.28-5.14-14.07-11.7-18.22-3.27-2.07-6.29,3.12-3.03,5.18h0Z"/>
  <path class="cls-1" d="M203.98,94.17c-6.05,1.04-11.08-2.95-12.31-8.76-.8-3.78-6.59-2.18-5.79,1.6,1.96,9.24,10.57,14.52,19.69,12.95,3.8-.65,2.19-6.43-1.6-5.79h0Z"/>
  <path class="cls-1" d="M186.79,91.09c-.32,13.71,6.7,26.41,18.39,33.56,3.3,2.02,6.32-3.17,3.03-5.18-9.92-6.06-15.68-16.77-15.41-28.37.09-3.86-5.91-3.86-6,0h0Z"/>
  <path class="cls-1" d="M201.62,117.08c-5.53-1.11-9.95-4.93-11.58-10.37-1.1-3.69-6.9-2.12-5.79,1.6,2.19,7.34,8.22,13.05,15.77,14.57,3.77.76,5.38-5.02,1.6-5.79h0Z"/>
  <path class="cls-1" d="M184.57,109.3c.78,9.57,3.81,18.46,9.25,26.39,2.17,3.16,7.37.17,5.18-3.03-4.84-7.04-7.74-14.82-8.44-23.36-.31-3.82-6.31-3.86-6,0h0Z"/>
  <path class="cls-1" d="M195.06,134.06c-2.99-2.19-5.98-4.37-8.97-6.56-1.31-.96-3.35-.22-4.1,1.08-.89,1.52-.24,3.14,1.08,4.1,2.99,2.19,5.98,4.37,8.97,6.56,1.31.96,3.35.22,4.1-1.08.89-1.52.24-3.14-1.08-4.1h0Z"/>
  <path class="cls-1" d="M178.8,130.73c2.7,7.48,1.99,15.1-2.17,21.9-2.02,3.3,3.17,6.32,5.18,3.03,4.93-8.04,5.98-17.64,2.78-26.52-1.3-3.61-7.1-2.05-5.79,1.6h0Z"/>
  <path class="cls-1" d="M176.19,150.11c-3.84,6.35-9.85,10.55-17.08,12.15-3.77.83-2.17,6.62,1.6,5.79,8.71-1.93,16.05-7.29,20.66-14.91,2-3.31-3.18-6.33-5.18-3.03h0Z"/>
  <path class="cls-1" d="M144.08,165.24c-2.18-4.76,1.18-11.03,6.58-11.13s9.7,7.14,4.34,10.77c-3.18,2.15-.18,7.35,3.03,5.18,9.39-6.35,5.44-20.47-5.58-21.83-11.03-1.36-17.9,10.56-13.56,20.03,1.61,3.51,6.78.46,5.18-3.03h0Z"/>
  <path class="cls-1" d="M149.16,173.01c2.22-.47,4.44-.93,6.65-1.4,1.59-.33,2.51-2.2,2.1-3.69-.45-1.64-2.1-2.43-3.69-2.1-2.22.47-4.44.93-6.65,1.4-1.59.33-2.51,2.2-2.1,3.69.45,1.64,2.1,2.43,3.69,2.1h0Z"/>
  <path class="cls-1" d="M124.03,169.09c1.33.3,2.67.59,4,.89,1.53.34,3.32-.46,3.69-2.1.35-1.52-.46-3.33-2.1-3.69-1.33-.3-2.67-.59-4-.89-1.53-.34-3.32.46-3.69,2.1-.35,1.52.46,3.33,2.1,3.69h0Z"/>
  <path class="cls-1" d="M115.56,169.7c4.73.78,9.47,1.56,14.2,2.35,3.78.62,5.4-5.16,1.6-5.79-4.73-.78-9.47-1.56-14.2-2.35-3.78-.62-5.4,5.16-1.6,5.79h0Z"/>
</svg>