<?xml version="1.0" encoding="UTF-8"?>
<svg id="_图层_1" data-name="图层 1" xmlns="http://www.w3.org/2000/svg" xmlns:xlink="http://www.w3.org/1999/xlink" viewBox="0 0 363.91 453.33">
  <defs>
    <style>
      .cls-1 {
        fill: #cca074;
      }

      .cls-2 {
        stroke: #000;
        stroke-width: .1px;
      }

      .cls-2, .cls-3 {
        fill: none;
      }

      .cls-2, .cls-4 {
        stroke-miterlimit: 10;
      }

      .cls-5 {
        fill: #2a2a2b;
      }

      .cls-6 {
        fill: #fdc0a1;
      }

      .cls-7 {
        fill: #f2b2ad;
      }

      .cls-8 {
        fill: #f8d39b;
      }

      .cls-9 {
        letter-spacing: .07em;
      }

      .cls-10 {
        fill: #f1aa45;
      }

      .cls-11 {
        fill: #f3ddb8;
      }

      .cls-12 {
        fill: #fcbdbd;
      }

      .cls-13 {
        fill: #e6b583;
      }

      .cls-14 {
        fill: #e99d33;
      }

      .cls-15 {
        fill: #fac67c;
      }

      .cls-16 {
        fill: #d3a877;
      }

      .cls-17 {
        fill: #f0dfc1;
      }

      .cls-18 {
        fill: #3c2921;
      }

      .cls-19 {
        fill: #2b2c2b;
      }

      .cls-20 {
        fill: #f2e1c1;
      }

      .cls-21 {
        fill: #f3b4ae;
      }

      .cls-22 {
        fill: #f2c28e;
      }

      .cls-23 {
        fill: #352215;
      }

      .cls-24 {
        fill: #fbbc9a;
      }

      .cls-25 {
        fill: #fac67b;
      }

      .cls-26 {
        fill: #f9c579;
      }

      .cls-27 {
        fill: #533725;
      }

      .cls-28 {
        fill: #cca67e;
      }

      .cls-29 {
        fill: #e3b080;
      }

      .cls-30 {
        fill: #f1c08b;
      }

      .cls-31 {
        fill: #cb9e73;
      }

      .cls-32 {
        fill: #ddba95;
      }

      .cls-33 {
        fill: #635873;
      }

      .cls-34 {
        fill: #f0a944;
      }

      .cls-35 {
        fill: #565d67;
      }

      .cls-36, .cls-4 {
        fill: #fff;
      }

      .cls-37 {
        fill: #e7b788;
      }

      .cls-38 {
        fill: #e1b991;
      }

      .cls-39 {
        fill: #ff5d37;
      }

      .cls-40 {
        fill: #846aa6;
      }

      .cls-41 {
        fill: #e1b07d;
      }

      .cls-42 {
        fill: #312317;
      }

      .cls-43 {
        letter-spacing: .1em;
      }

      .cls-44 {
        fill: #303030;
      }

      .cls-45 {
        fill: #c18760;
      }

      .cls-46 {
        fill: #f0bf8b;
      }

      .cls-47 {
        fill: #fafafb;
      }

      .cls-48 {
        fill: #e4b383;
      }

      .cls-49 {
        fill: #65452d;
      }

      .cls-50 {
        fill: #cca57d;
      }

      .cls-51 {
        fill: #f0a843;
      }

      .cls-52 {
        fill: #dcb994;
      }

      .cls-53 {
        fill: #f9f9f9;
      }

      .cls-54 {
        fill: #e7b786;
      }

      .cls-55 {
        fill: #fbbb9a;
      }

      .cls-56 {
        fill: #c3c4c6;
      }

      .cls-57 {
        fill: #f9dbb2;
      }

      .cls-58 {
        filter: url(#drop-shadow-1);
      }

      .cls-59 {
        fill: #dfb991;
      }

      .cls-60 {
        fill: #f0dec0;
      }

      .cls-61 {
        fill: #cca47c;
      }

      .cls-62 {
        fill: #e0a556;
      }

      .cls-63 {
        fill: #fbecd8;
      }

      .cls-64 {
        letter-spacing: .1em;
      }

      .cls-65 {
        fill: #302015;
      }

      .cls-66 {
        fill: #f5e0b9;
      }

      .cls-67 {
        fill: #f7d5a9;
      }

      .cls-68 {
        fill: #f1c08c;
      }

      .cls-69 {
        fill: #e5b280;
      }

      .cls-70 {
        fill: #e5b382;
      }

      .cls-71 {
        fill: #f9dab1;
      }

      .cls-72 {
        opacity: .21;
      }

      .cls-73 {
        fill: #e1be9b;
      }

      .cls-74 {
        fill: #e1bb94;
      }

      .cls-75 {
        fill: #f8f7f7;
      }

      .cls-76 {
        fill: #cca77f;
      }

      .cls-77 {
        fill: #51331b;
      }

      .cls-78 {
        fill: #f3d9af;
      }

      .cls-79 {
        fill: #dcb894;
      }

      .cls-80 {
        fill: #fbe8ce;
      }

      .cls-4 {
        stroke: #ccc;
      }

      .cls-81 {
        fill: #9c6d52;
      }

      .cls-82 {
        fill: #52341c;
      }

      .cls-83 {
        fill: #b57e4e;
      }

      .cls-84 {
        fill: #ad8968;
      }

      .cls-85 {
        fill: #5f432f;
      }

      .cls-86 {
        fill: #2b2b2b;
      }

      .cls-87 {
        fill: #fee6c9;
      }

      .cls-88 {
        fill: #fbfafb;
      }

      .cls-89 {
        fill: #f5e0bb;
      }

      .cls-90 {
        fill: #f5b590;
      }

      .cls-91 {
        fill: #f5deb6;
      }

      .cls-92 {
        fill: #cba57d;
      }

      .cls-93 {
        fill: #e2bc93;
      }

      .cls-94 {
        fill: #f2c08b;
      }

      .cls-95 {
        fill: #eeaf65;
      }

      .cls-96 {
        fill: #e1be9a;
      }

      .cls-97 {
        fill: #f1b0ac;
      }

      .cls-98 {
        fill: #cba67e;
      }

      .cls-99 {
        fill: #322317;
      }

      .cls-100 {
        fill: #fefdfd;
      }

      .cls-101 {
        fill: #f2d8ad;
      }

      .cls-102 {
        fill: #e38092;
      }

      .cls-103 {
        fill: #cda175;
      }

      .cls-104 {
        fill: #727272;
      }

      .cls-105 {
        fill: #ddb685;
      }

      .cls-106 {
        fill: #ff7bac;
      }

      .cls-107 {
        fill: #4a2d16;
      }

      .cls-108 {
        fill: #f5dfb8;
      }

      .cls-109 {
        fill: #f6a059;
      }

      .cls-110 {
        fill: #2f2015;
      }

      .cls-111 {
        fill: #f2d7ac;
      }

      .cls-112 {
        fill: #c57e44;
      }

      .cls-113 {
        fill: #fdbebf;
      }

      .cls-114 {
        font-family: Nunito-ExtraLight, Nunito;
        font-size: 6.44px;
        font-variation-settings: 'wght' 200;
        font-weight: 200;
      }

      .cls-114, .cls-115, .cls-116 {
        fill: #8a6a4a;
      }

      .cls-115 {
        font-size: 2.53px;
      }

      .cls-115, .cls-116 {
        font-family: Fredoka-Bold, Fredoka;
        font-weight: 700;
      }

      .cls-117 {
        fill: #fdc0a0;
      }

      .cls-118 {
        fill: #575e68;
      }

      .cls-119 {
        fill: #f9f8f8;
      }

      .cls-120 {
        fill: #e3bd95;
      }

      .cls-121 {
        fill: #dfbc98;
      }

      .cls-122 {
        fill: #fdfcfd;
      }

      .cls-123 {
        fill: #f5e1bc;
      }

      .cls-124 {
        letter-spacing: .1em;
      }

      .cls-125 {
        fill: #ffe929;
      }

      .cls-126 {
        fill: #8a684e;
      }

      .cls-127 {
        fill: #e0a555;
      }

      .cls-128 {
        letter-spacing: .09em;
      }

      .cls-116 {
        font-size: 10.81px;
      }

      .cls-129 {
        fill: #625873;
      }

      .cls-130 {
        letter-spacing: .1em;
      }

      .cls-131 {
        fill: #dbb280;
      }

      .cls-132 {
        fill: #31221b;
      }

      .cls-133 {
        fill: #f8d39d;
      }

      .cls-134 {
        fill: #574d69;
      }

      .cls-135 {
        fill: #f1c089;
      }

      .cls-136 {
        fill: #cca67d;
      }

      .cls-137 {
        fill: #e0b991;
      }

      .cls-138 {
        fill: #ba9fe2;
      }

      .cls-139 {
        fill: #e0b992;
      }

      .cls-140 {
        fill: #56361d;
      }

      .cls-141 {
        fill: url(#linear-gradient);
      }

      .cls-142 {
        fill: #dfbb97;
      }

      .cls-143 {
        fill: #efddc0;
      }

      .cls-144 {
        fill: #cb9f74;
      }

      .cls-145 {
        fill: #cc9f74;
      }

      .cls-146 {
        clip-path: url(#clippath);
      }

      .cls-147 {
        fill: #f2d9af;
      }

      .cls-148 {
        fill: #d49868;
      }

      .cls-149 {
        fill: #fdfdfd;
      }

      .cls-150 {
        letter-spacing: .1em;
      }

      .cls-151 {
        fill: #c4c4c6;
      }

      .cls-152 {
        fill: #e1ba92;
      }

      .cls-153 {
        fill: #f7d6aa;
      }

      .cls-154 {
        fill: #f7d5a8;
      }

      .cls-155 {
        fill: #593b26;
      }

      .cls-156 {
        fill: #fbe8cf;
      }
    </style>
    <filter id="drop-shadow-1" x="39.14" y="39.77" width="299.52" height="387.84" filterUnits="userSpaceOnUse">
      <feOffset dx="7" dy="7"/>
      <feGaussianBlur result="blur" stdDeviation="5"/>
      <feFlood flood-color="#937b65" flood-opacity=".51"/>
      <feComposite in2="blur" operator="in"/>
      <feComposite in="SourceGraphic"/>
    </filter>
    <clipPath id="clippath">
      <circle class="cls-3" cx="72.33" cy="69.8" r="11.76"/>
    </clipPath>
    <linearGradient id="linear-gradient" x1="79.26" y1="60.19" x2="62.48" y2="83.44" gradientUnits="userSpaceOnUse">
      <stop offset="0" stop-color="#92469c"/>
      <stop offset=".07" stop-color="#944395"/>
      <stop offset=".18" stop-color="#9c3e82"/>
      <stop offset=".3" stop-color="#a83464"/>
      <stop offset=".43" stop-color="#b8293f"/>
      <stop offset=".8" stop-color="#e3a137"/>
      <stop offset="1" stop-color="#f0db40"/>
    </linearGradient>
  </defs>
  <g class="cls-58">
    <g>
      <rect class="cls-36" x="47.3" y="47.88" width="269.31" height="357.57" rx="30" ry="30"/>
      <line class="cls-2" x1="47.3" y1="93.01" x2="316.61" y2="93.01"/>
      <line class="cls-2" x1="47.3" y1="364.56" x2="316.61" y2="364.56"/>
      <text class="cls-116" transform="translate(91.16 69.58)"><tspan x="0" y="0" xml:space="preserve">ABC  ZOO</tspan></text>
      <text class="cls-114" transform="translate(91.75 79.95)"><tspan class="cls-43" x="0" y="0">Animal </tspan><tspan class="cls-130" x="26.11" y="0">L</tspan><tspan class="cls-64" x="30.11" y="0">e</tspan><tspan class="cls-43" x="34.13" y="0">t</tspan><tspan class="cls-130" x="36.84" y="0">t</tspan><tspan class="cls-124" x="39.51" y="0">er </tspan><tspan class="cls-9" x="48.5" y="0">C</tspan><tspan class="cls-43" x="53.21" y="0">ol</tspan><tspan class="cls-128" x="59.74" y="0">l</tspan><tspan class="cls-43" x="62.12" y="0">e</tspan><tspan class="cls-150" x="66.13" y="0">c</tspan><tspan class="cls-124" x="69.7" y="0">tion</tspan></text>
      <g>
        <g>
          <path class="cls-39" d="M74.42,379.02c.68,0,1.36.2,1.96.59,1.93,1.25,2.58,4.03,1.46,6.2-1,1.94-5.53,5.53-6.89,6.58-.06.05-.13.06-.17.06s-.11-.01-.17-.06c-1.37-1.06-5.9-4.65-6.89-6.58-1.12-2.17-.46-4.95,1.46-6.2.6-.39,1.28-.59,1.96-.59,1.2,0,2.33.61,3.08,1.66l.55.77.55-.77c.76-1.06,1.88-1.66,3.09-1.66M74.42,378.3c-1.38,0-2.74.69-3.64,1.95-.9-1.26-2.25-1.95-3.64-1.95-.79,0-1.59.23-2.32.7-2.23,1.44-3,4.64-1.71,7.14,1.05,2.04,5.49,5.58,7.09,6.82.17.13.38.2.58.2s.41-.07.58-.2c1.6-1.24,6.04-4.78,7.09-6.82,1.29-2.5.52-5.7-1.71-7.14-.73-.47-1.53-.7-2.32-.7h0Z"/>
          <path class="cls-39" d="M70.78,393.47c-.28,0-.54-.09-.77-.26-1.8-1.39-6.11-4.86-7.17-6.92-1.36-2.63-.54-6.01,1.81-7.54.76-.49,1.62-.75,2.49-.75,1.4,0,2.7.64,3.64,1.76.94-1.12,2.24-1.76,3.64-1.76.87,0,1.73.26,2.49.75,2.36,1.52,3.17,4.91,1.81,7.54-1.06,2.06-5.37,5.53-7.17,6.92-.22.17-.49.26-.77.26Z"/>
          <path class="cls-39" d="M67.14,378.6c-.76,0-1.5.22-2.16.65-2.1,1.36-2.82,4.39-1.6,6.75,1.04,2.01,5.62,5.65,7.01,6.72.23.18.56.18.79,0,1.38-1.07,5.97-4.71,7.01-6.72,1.22-2.36.5-5.39-1.6-6.75-.66-.43-1.41-.65-2.16-.65-1.32,0-2.56.66-3.39,1.83l-.25.34-.25-.34c-.83-1.16-2.07-1.83-3.39-1.83Z"/>
          <path class="cls-39" d="M70.78,392.75c-.09,0-.22-.02-.35-.12-1.38-1.07-5.95-4.7-6.98-6.69-1.19-2.31-.48-5.26,1.57-6.59.65-.42,1.38-.64,2.12-.64,1.3,0,2.51.65,3.33,1.79l.31.43.31-.43c.82-1.14,2.03-1.79,3.33-1.79.74,0,1.48.22,2.12.64,2.05,1.33,2.76,4.29,1.57,6.59-1.03,1.99-5.6,5.62-6.98,6.69-.1.08-.23.12-.35.12Z"/>
          <path class="cls-39" d="M67.14,379.32c-.62,0-1.24.19-1.79.54-1.8,1.16-2.41,3.77-1.36,5.81.97,1.88,5.46,5.44,6.81,6.48,1.32-1.04,5.81-4.6,6.78-6.48,1.05-2.04.44-4.64-1.36-5.81-.55-.35-1.17-.54-1.79-.54-1.1,0-2.14.56-2.84,1.54l-.8,1.12-.8-1.12c-.7-.98-1.74-1.54-2.84-1.54Z"/>
        </g>
        <g>
          <path class="cls-5" d="M98.43,379.17h0c.6,0,1.21.08,1.81.24,2.24.6,3.98,2.38,4.54,4.64.39,1.59.23,3.18-.47,4.6-.16.32-.2.68-.11,1.02l.62,2.3-2.21-.59c-.12-.03-.24-.05-.36-.05-.24,0-.48.06-.7.18-.97.53-2.01.79-3.11.79-.54,0-1.08-.07-1.62-.2-2-.49-4.2-2.64-4.71-4.61-.53-2.05-.11-4.16,1.14-5.78,1.25-1.62,3.14-2.55,5.19-2.55M98.43,378.47c-4.63,0-8.25,4.35-7,9.2.58,2.24,2.97,4.56,5.21,5.11.61.15,1.2.22,1.78.22,1.25,0,2.41-.32,3.44-.88.11-.06.24-.1.37-.1.06,0,.12,0,.19.02l3.06.82s.03,0,.05,0c.12,0,.21-.11.18-.23l-.84-3.15c-.05-.18-.02-.37.06-.53.73-1.48.98-3.24.53-5.08-.62-2.49-2.56-4.49-5.03-5.15-.67-.18-1.34-.26-1.99-.26h0Z"/>
          <path class="cls-5" d="M98.43,393.3c-.62,0-1.24-.08-1.86-.23-2.35-.57-4.84-3.01-5.43-5.33-.61-2.35-.12-4.78,1.32-6.65,1.44-1.86,3.62-2.93,5.96-2.93h0c.69,0,1.38.09,2.07.27,2.59.69,4.6,2.75,5.25,5.37.45,1.83.26,3.65-.55,5.29-.05.11-.07.21-.04.32l.84,3.15c.04.15,0,.3-.08.42-.09.12-.24.19-.39.19l-.13-.02-3.05-.82c-.11-.03-.23-.01-.33.04-1.1.6-2.34.91-3.58.91ZM105.41,392.72h0s0,0,0,0ZM98.43,378.78c-2.16,0-4.16.98-5.48,2.69-1.33,1.72-1.78,3.95-1.22,6.12.55,2.12,2.83,4.36,4.99,4.89,1.73.42,3.48.2,5-.63.24-.13.52-.17.78-.1l2.86.77-.79-2.95c-.07-.24-.04-.51.08-.74.75-1.5.92-3.19.5-4.87-.59-2.4-2.44-4.29-4.81-4.93-.63-.17-1.27-.25-1.91-.25h0ZM98.43,392.61c-.56,0-1.13-.07-1.69-.21-2.09-.51-4.4-2.77-4.93-4.83-.55-2.14-.12-4.34,1.2-6.04,1.69-2.19,4.54-3.15,7.31-2.42,2.35.63,4.17,2.49,4.75,4.87.41,1.66.24,3.33-.5,4.81-.13.25-.16.54-.09.8l.75,2.81-2.72-.73c-.27-.07-.58-.03-.84.11-1.01.55-2.11.83-3.25.83ZM98.43,379.47c-1.95,0-3.75.89-4.95,2.43-1.2,1.55-1.59,3.56-1.09,5.52.48,1.87,2.58,3.93,4.48,4.39,1.58.38,3.13.18,4.51-.57.4-.21.87-.27,1.28-.16l1.71.46-.48-1.79c-.11-.41-.06-.84.13-1.23.67-1.35.83-2.87.45-4.4-.53-2.16-2.19-3.86-4.32-4.43-.58-.15-1.16-.23-1.73-.23h0Z"/>
        </g>
        <g>
          <path class="cls-5" d="M125.97,393.68s-.06,0-.09,0c-.22-.04-.38-.2-.42-.42l-1.49-8.18-6.02-5.12c-.17-.14-.23-.37-.15-.57.07-.2.27-.34.49-.34h15.39c.18,0,.36.1.45.26.09.16.09.36,0,.52l-7.69,13.6c-.09.16-.27.26-.45.26ZM119.69,380.08l5.09,4.33c.09.08.15.18.17.3l1.27,6.95,6.55-11.58h-13.09Z"/>
          <path class="cls-5" d="M124.45,385.33c-.18,0-.36-.09-.45-.26-.14-.25-.05-.57.19-.71l9.22-5.24c.25-.14.57-.05.71.19.14.25.05.57-.19.71l-9.22,5.24c-.08.05-.17.07-.26.07Z"/>
        </g>
        <path class="cls-125" d="M301.61,392.96c-.12,0-.25-.04-.34-.13l-5.04-4.41-5.04,4.41c-.15.13-.37.17-.56.08-.18-.08-.3-.27-.3-.47v-13.01c0-.29.23-.52.52-.52h10.76c.29,0,.52.23.52.52v13.01c0,.2-.12.39-.3.47-.07.03-.14.05-.21.05Z"/>
        <path class="cls-125" d="M296.23,387.21c.12,0,.24.04.34.13l4.52,3.96v-11.35h-9.72v11.35l4.52-3.96c.1-.09.22-.13.34-.13Z"/>
      </g>
      <g>
        <text class="cls-115" transform="translate(74.87 62.61)"><tspan x="0" y="0" xml:space="preserve">ABC  </tspan><tspan x="0" y="3.03">ZOO</tspan></text>
        <g class="cls-146">
          <g>
            <path class="cls-83" d="M68.94,65.98c.24-1.02,1.2-1.85,2.27-1.83.67-.03,1.33.3,1.77.8.33.37.53.85.64,1.33,1.01-.13,2.03-.18,3.05-.16.85,0,1.7.09,2.54.22.33.05.65.14.98.19.11-.42.29-.82.55-1.15.46-.61,1.24-.96,2-.89,1.03.08,1.91.96,2.04,1.97.11.72-.13,1.47-.6,2.02-.15.18-.33.33-.51.48.3.5.53,1.04.66,1.61.24,1,.25,2.06,0,3.05-.25,1.05-.86,2.01-1.7,2.69-.07.05-.12.11-.17.18.24.15.5.26.73.43.97.66,1.62,1.71,1.9,2.84.24.91.29,1.86.18,2.79-.12,1.17-.58,2.31-1.37,3.19-.67.75-1.56,1.26-2.51,1.56-1.29.41-2.65.52-4,.56-1.14.05-2.28.02-3.42-.02-.94-.05-1.89-.08-2.8-.31-.46-.12-.93-.35-1.21-.75-.26-.35-.36-.78-.41-1.21-.08-.87-.05-1.75-.05-2.62,0-.5,0-1,0-1.5,0-.12-.16-.12-.23-.17-1.04-.48-2.01-1.13-2.79-1.98-.52-.57-.94-1.22-1.22-1.93-.24-.63-.38-1.31-.29-1.99.07-.48.27-.94.6-1.29.35-.37.83-.61,1.33-.66.62-.09,1.27.18,1.67.66.44.54.69,1.21.96,1.84.01-.11.03-.22.02-.33-.03-.43,0-.87-.01-1.3,0-1.05-.02-2.1,0-3.15.02-.83.01-1.7.37-2.48-.19-.17-.38-.35-.53-.56-.45-.6-.63-1.39-.46-2.12ZM70.43,65.75c-.24.24-.37.59-.37.92,0,.41.14.81.42,1.11.5-.52,1.11-.92,1.79-1.16.11-.05.23-.07.32-.14-.16-.62-.77-1.12-1.42-1.07-.28.01-.55.14-.74.34ZM81.8,65.9c-.34.22-.58.56-.71.93.16.08.32.15.48.23.55.29,1.05.67,1.5,1.1.33-.34.55-.81.53-1.3,0-.38-.2-.75-.52-.97-.38-.24-.89-.23-1.28,0ZM73.63,70.34c-.24.07-.36.32-.41.54-.04.29-.04.61.14.85.15.21.47.28.68.13.2-.14.28-.39.31-.62.02-.27-.04-.57-.22-.78-.12-.14-.32-.19-.5-.14ZM79.82,70.34c-.21.07-.32.28-.38.49-.08.31-.04.65.14.91.19.27.64.26.82-.02.23-.36.22-.86-.02-1.21-.12-.17-.36-.25-.56-.17ZM76.41,70.77c-.52.08-.99.39-1.28.83-.38.6-.51,1.36-.34,2.05.11.46.41.87.83,1.09.59.31,1.28.34,1.92.21.5-.1.99-.39,1.24-.84.27-.45.3-1.01.22-1.52-.1-.65-.45-1.3-1.04-1.62-.48-.24-1.04-.3-1.56-.2ZM81.06,72.19c-.21.03-.42.12-.53.31-.12.2-.06.49.14.62.25.16.56.17.84.11.2-.04.39-.17.47-.36.06-.19-.01-.42-.17-.54-.21-.15-.49-.18-.74-.14ZM72.22,72.23c-.24.06-.46.28-.42.55.01.25.25.43.48.46.24.04.51.04.74-.07.17-.08.32-.27.3-.47,0-.17-.11-.32-.25-.4-.25-.15-.57-.15-.84-.08ZM67.71,74.33c-.34.11-.32.63-.05.8.13.07.32.04.42-.08.12-.15.14-.37.04-.54-.07-.14-.26-.24-.42-.18ZM66.6,74.37c-.14.03-.22.16-.25.29-.05.26.14.58.43.58.23,0,.37-.26.32-.47-.02-.24-.25-.47-.5-.41ZM65.72,75.22c-.08.05-.14.13-.17.22-.1.27.17.62.46.56.19-.03.32-.22.29-.41-.03-.26-.32-.51-.58-.37ZM67.29,75.45c-.18.02-.35.11-.5.23-.38.27-.53.81-.34,1.23.16.37.58.58.97.54.43-.04.86-.32.98-.75.11-.35.02-.75-.25-1-.22-.23-.57-.29-.87-.25ZM75.91,78.27c-.16.02-.32.03-.46.11-.13.08-.14.26-.16.4-.03.53-.02,1.05-.03,1.58,0,.78-.02,1.56.02,2.34,0,.15.05.34.22.39.33.09.67.1,1,.12.7.02,1.41,0,2.07-.26.55-.22,1.02-.65,1.25-1.19.31-.72.27-1.58-.11-2.27-.25-.44-.67-.78-1.14-.97-.84-.35-1.77-.34-2.66-.25ZM71.05,80.17c-.04.24-.03.49-.03.73,0,.07,0,.15.04.21.06.03.11-.02.15-.04-.07-.3-.04-.6,0-.9.02-.07-.03-.12-.07-.17-.04.05-.09.1-.1.17ZM72.07,81.27c-.06.31-.04.63,0,.95,0,.07.08.11.14.07.04-.22-.03-.44-.01-.67,0-.13.05-.27-.02-.39-.03,0-.08.03-.1.04ZM70.68,82.14c-.06.14-.04.3-.05.45,0,.21-.02.43.07.63.05-.03.14-.05.11-.13-.02-.3-.03-.59,0-.89.02-.08-.1-.14-.14-.06ZM71.52,83.41c-.06.02-.06.08-.07.14-.02.24,0,.49.04.73.01.06.02.13.07.18.05,0,.12-.02.12-.08,0-.16-.05-.32-.06-.49-.02-.14,0-.28,0-.43,0-.06-.06-.08-.11-.06ZM72.65,83.62c-.09.17-.03.36-.02.53.03.17.04.36.17.48.03-.05.08-.09.06-.15-.06-.28-.1-.56-.12-.84-.02,0-.07-.02-.1-.03ZM70.73,84.85c-.02.15,0,.31,0,.46.03.17.04.36.15.51.03,0,.08-.03.11-.04-.08-.33-.13-.66-.13-1-.05,0-.13-.01-.14.06ZM72.14,85.25c-.06.02-.06.12-.06.17.03.22.08.44.16.65.02.08.16.1.16,0-.05-.22-.13-.43-.15-.66-.01-.06-.02-.2-.12-.17ZM73.44,85.4c.05.27.14.55.26.79.05.08.13,0,.18-.02-.08-.16-.16-.32-.2-.49-.03-.1-.04-.21-.09-.3-.05-.03-.1,0-.15.02Z"/>
            <path class="cls-46" d="M70.43,65.75c.19-.2.46-.33.74-.34.65-.05,1.26.45,1.42,1.07-.09.08-.21.1-.32.14-.68.24-1.29.64-1.79,1.16-.27-.3-.42-.71-.42-1.11,0-.34.12-.69.37-.92Z"/>
            <path class="cls-68" d="M81.8,65.9c.38-.24.9-.24,1.28,0,.32.21.51.59.52.97.02.48-.19.95-.53,1.3-.45-.43-.95-.81-1.5-1.1-.16-.08-.32-.15-.48-.23.13-.38.37-.72.71-.93Z"/>
            <path class="cls-82" d="M73.63,70.34c.17-.05.38,0,.5.14.19.21.24.51.22.78-.02.23-.11.48-.31.62-.21.15-.53.08-.68-.13-.18-.24-.18-.57-.14-.85.05-.22.17-.47.41-.54Z"/>
            <path class="cls-77" d="M79.82,70.34c.2-.08.44,0,.56.17.24.35.25.85.02,1.21-.18.28-.63.29-.82.02-.18-.27-.22-.61-.14-.91.06-.2.17-.41.38-.49Z"/>
            <path class="cls-87" d="M76.41,70.77c.52-.1,1.08-.04,1.56.2.59.32.95.97,1.04,1.62.08.51.05,1.07-.22,1.52-.26.45-.74.75-1.24.84-.64.12-1.34.09-1.92-.21-.42-.21-.73-.63-.83-1.09-.17-.69-.04-1.45.34-2.05.28-.44.76-.75,1.28-.83ZM76.53,71.36c-.19.03-.39.08-.52.24-.15.18-.13.46,0,.64.17.24.46.34.73.41,0,.24.01.48,0,.71-.08.2-.34.28-.52.18-.15-.07-.2-.24-.32-.33-.05.04-.11.09-.14.15.06.13.13.27.26.35.26.19.66.16.87-.1.16.19.43.28.67.2.23-.06.47-.28.44-.54-.06-.01-.11-.05-.17-.03-.08.09-.13.21-.24.28-.18.13-.48.05-.56-.16-.02-.24,0-.48,0-.73.24-.04.48-.13.65-.3.15-.14.25-.37.18-.57-.06-.18-.23-.31-.41-.35-.3-.07-.61-.08-.91-.04Z"/>
            <path class="cls-140" d="M76.53,71.36c.3-.04.61-.03.91.04.18.05.35.17.41.35.07.21-.03.43-.18.57-.17.17-.41.26-.65.3,0,.24-.01.49,0,.73.08.21.38.29.56.16.11-.07.16-.19.24-.28.06-.02.11.02.17.03.03.26-.21.47-.44.54-.24.08-.51-.01-.67-.2-.21.26-.61.29-.87.1-.12-.08-.2-.22-.26-.35.04-.06.09-.1.14-.15.12.1.18.26.32.33.18.1.45.02.52-.18.02-.24,0-.47,0-.71-.27-.07-.56-.18-.73-.41-.14-.18-.16-.46,0-.64.13-.15.33-.2.52-.24Z"/>
            <path class="cls-12" d="M81.06,72.19c.25-.04.53-.01.74.14.16.12.24.34.17.54-.07.19-.27.32-.47.36-.28.06-.59.04-.84-.11-.2-.13-.26-.42-.14-.62.11-.19.32-.28.53-.31Z"/>
            <path class="cls-113" d="M72.22,72.23c.28-.08.59-.07.84.08.14.08.25.23.25.4.02.2-.12.38-.3.47-.23.11-.49.11-.74.07-.23-.04-.47-.21-.48-.46-.03-.26.18-.49.42-.55Z"/>
            <path class="cls-135" d="M67.71,74.33c.16-.06.34.04.42.18.09.17.08.39-.04.54-.1.12-.28.14-.42.08-.28-.17-.29-.68.05-.8Z"/>
            <path class="cls-22" d="M66.6,74.37c.25-.06.48.17.5.41.05.21-.09.46-.32.47-.29,0-.48-.32-.43-.58.02-.13.11-.27.25-.29Z"/>
            <path class="cls-30" d="M65.72,75.22c.26-.14.55.11.58.37.03.18-.1.38-.29.41-.29.06-.56-.28-.46-.56.03-.09.09-.17.17-.22Z"/>
            <path class="cls-94" d="M67.29,75.45c.31-.04.65.02.87.25.27.25.35.65.25,1-.12.43-.55.71-.98.75-.39.04-.81-.17-.97-.54-.19-.42-.04-.97.34-1.23.15-.11.31-.2.5-.23Z"/>
            <path class="cls-69" d="M71.05,80.17c0-.07.06-.12.1-.17.03.05.08.1.07.17-.04.3-.07.6,0,.9-.05.03-.1.07-.15.04-.05-.06-.03-.14-.04-.21,0-.24-.01-.49.03-.73Z"/>
            <path class="cls-70" d="M72.07,81.27s.08-.03.1-.04c.08.12.02.26.02.39-.01.22.06.45.01.67-.06.04-.14,0-.14-.07-.04-.31-.06-.63,0-.95Z"/>
            <path class="cls-54" d="M70.68,82.14c.04-.08.16-.02.14.06-.03.3-.03.59,0,.89.02.08-.06.1-.11.13-.09-.2-.06-.42-.07-.63,0-.15-.01-.31.05-.45Z"/>
            <path class="cls-41" d="M71.52,83.41s.11,0,.11.06c0,.14-.03.28,0,.43.01.16.06.32.06.49,0,.06-.06.09-.12.08-.05-.05-.06-.12-.07-.18-.04-.24-.06-.49-.04-.73,0-.05.01-.12.07-.14Z"/>
            <path class="cls-48" d="M72.65,83.62s.07.02.1.03c.02.28.06.56.12.84.02.06-.03.1-.06.15-.13-.13-.14-.32-.17-.48-.02-.18-.07-.37.02-.53Z"/>
            <path class="cls-37" d="M70.73,84.85c0-.08.09-.05.14-.06,0,.34.04.67.13,1-.03,0-.08.03-.11.04-.1-.15-.12-.33-.15-.51-.02-.15-.03-.31,0-.46Z"/>
            <path class="cls-13" d="M72.14,85.25c.1-.03.11.1.12.17.02.23.1.44.15.66,0,.1-.14.07-.16,0-.09-.21-.14-.43-.16-.65,0-.06,0-.15.06-.17Z"/>
            <path class="cls-29" d="M73.44,85.4s.1-.05.15-.02c.05.09.06.2.09.3.04.17.13.33.2.49-.05.03-.13.1-.18.02-.13-.25-.21-.52-.26-.79Z"/>
          </g>
        </g>
      </g>
      <path class="cls-141" d="M72.33,83.2c-7.39,0-13.4-6.01-13.4-13.4s6.01-13.4,13.4-13.4,13.4,6.01,13.4,13.4-6.01,13.4-13.4,13.4ZM72.33,57.45c-6.81,0-12.35,5.54-12.35,12.35s5.54,12.35,12.35,12.35,12.35-5.54,12.35-12.35-5.54-12.35-12.35-12.35Z"/>
      <g>
        <circle class="cls-104" cx="296.22" cy="68.47" r="1.25"/>
        <circle class="cls-104" cx="296.22" cy="74.18" r="1.25"/>
        <path class="cls-104" d="M296.24,80.99c-.69,0-1.25-.56-1.25-1.25s.56-1.25,1.25-1.25,1.25.56,1.25,1.25-.56,1.25-1.25,1.25Z"/>
      </g>
    </g>
    <g class="cls-72">
      <path class="cls-106" d="M68.58,360.43c-2.06,0-3.52-1.69-4.39-5.07-.87-3.38-1.39-7.75-1.58-13.14-.18-5.38-.27-10.82-.27-16.33v-194.06c0-13.01.47-21.96,1.4-26.84.94-4.88,2.62-7.32,5.04-7.32h25.08c1.05,0,2.05.5,2.98,1.5.94,1,1.7,3.88,2.3,8.63.59,4.76.89,12.89.89,24.4s-.31,19.27-.93,24.02c-.62,4.76-1.41,7.64-2.36,8.63-.96,1-1.96,1.5-3.02,1.5h-18.85v33.41h12.61c1.05,0,2,.44,2.84,1.31.84.88,1.51,3.38,1.99,7.51.48,4.13.72,11.2.72,21.21s-.25,16.27-.75,20.27c-.5,4.01-1.18,6.38-2.02,7.13-.85.75-1.79,1.13-2.84,1.13h-12.54v67.94c0,5.51-.09,10.89-.27,16.14-.18,5.26-.71,9.57-1.58,12.95-.87,3.38-2.35,5.07-4.45,5.07Z"/>
      <path class="cls-106" d="M111.42,360.43c-2.06,0-3.52-1.69-4.39-5.07-.87-3.38-1.39-7.75-1.58-13.14-.18-5.38-.27-10.82-.27-16.33v-194.06c0-5.5.09-10.88.27-16.14.18-5.26.71-9.57,1.58-12.95.87-3.38,2.35-5.07,4.46-5.07s3.57,1.69,4.42,5.07c.84,3.38,1.36,7.69,1.54,12.95.18,5.25.27,10.76.27,16.52v169.66h16.72c.87,0,1.7.38,2.5,1.13.8.75,1.46,3.19,1.99,7.32.53,4.13.79,11.07.79,20.83s-.27,16.33-.82,20.46c-.55,4.13-1.22,6.63-2.02,7.51-.8.87-1.63,1.31-2.5,1.31h-22.96Z"/>
      <path class="cls-106" d="M180.77,103.32c2.01,7.51,3.11,14.7,3.29,21.58.18,6.89-.32,15.08-1.51,24.59l-13.64,111.85v65.69c0,5.51-.09,10.89-.27,16.14-.18,5.25-.71,9.57-1.58,12.95-.87,3.38-2.35,5.07-4.46,5.07s-3.59-1.69-4.45-5.07c-.87-3.38-1.39-7.75-1.58-13.14-.18-5.38-.27-10.94-.27-16.7v-64.94l-13.64-111.85c-1.28-9.76-1.78-18.14-1.51-25.15.27-7,1.39-14.01,3.36-21.02,1.42-5.26,2.63-8.32,3.63-9.2,1-.87,1.92.25,2.74,3.38.82,3.13,1.62,8.2,2.4,15.2l9.12,80.33,9.53-80.33c.87-7.25,1.7-12.39,2.5-15.39.8-3,1.7-4,2.71-3,1,1,2.22,4.01,3.63,9.01Z"/>
      <path class="cls-106" d="M193.31,360.43c-2.06,0-3.52-1.69-4.39-5.07-.87-3.38-1.39-7.75-1.58-13.14-.18-5.38-.27-10.82-.27-16.33v-194.06c0-13.01.47-21.96,1.4-26.84.94-4.88,2.61-7.32,5.04-7.32h25.08c1.05,0,2.04.5,2.98,1.5.94,1,1.71,3.88,2.33,8.63.62,4.76.93,12.89.93,24.4s-.31,19.27-.93,24.02c-.62,4.76-1.41,7.64-2.36,8.63-.96,1-1.96,1.5-3.02,1.5h-18.92v33.41h12.68c1.05,0,1.99.44,2.81,1.31.82.88,1.48,3.32,1.99,7.32.5,4.01.75,11.01.75,21.02s-.25,16.33-.75,20.46c-.5,4.13-1.19,6.57-2.06,7.32-.87.75-1.83,1.13-2.88,1.13h-12.54v33.41h18.98c1.05,0,2.04.5,2.98,1.5.94,1,1.71,3.88,2.33,8.63.62,4.76.93,12.89.93,24.4s-.31,19.27-.93,24.02c-.62,4.76-1.41,7.63-2.36,8.63-.96,1-1.96,1.5-3.02,1.5h-25.22Z"/>
      <path class="cls-106" d="M234.44,360.06c-2.06,0-3.52-1.69-4.39-5.07-.87-3.38-1.39-7.75-1.58-13.14-.18-5.38-.27-10.82-.27-16.33v-193.68c0-5.5.09-10.88.27-16.14.18-5.26.71-9.57,1.58-12.95.87-3.38,2.35-5.07,4.45-5.07h13.78c1.74,0,3.61,1.94,5.62,5.82,2.01,3.88,3.91,9.82,5.69,17.83,1.78,8.01,3.24,18.02,4.39,30.03,1.14,12.01,1.71,26.27,1.71,42.79,0,11.51-.31,22.27-.93,32.28-.62,10.01-1.53,19.08-2.74,27.21-1.21,8.13-2.67,15.27-4.39,21.39-1.71,6.14-3.67,10.95-5.86,14.45h-11.03v36.41c0,5.51-.09,10.88-.27,16.14-.18,5.25-.71,9.57-1.58,12.95-.87,3.38-2.35,5.07-4.45,5.07ZM240.74,221.18h7.54c.41,0,.9-.43,1.47-1.31.57-.87,1.11-2.38,1.61-4.5.5-2.12.93-4.94,1.27-8.45.34-3.5.51-7.88.51-13.14s-.23-9.95-.69-14.08c-.46-4.13-1.06-7.38-1.82-9.76-.75-2.38-1.59-3.57-2.5-3.57h-7.4v54.8ZM263.15,351.05c-2.06,8.5-3.68,11.95-4.87,10.32-1.19-1.63-2.47-7.44-3.84-17.45l-12.61-93.84,14.26-9.76,8.5,62.68c.91,7.26,1.5,13.39,1.75,18.39.25,5.01.13,9.76-.38,14.26-.5,4.5-1.44,9.64-2.81,15.39Z"/>
      <path class="cls-106" d="M285.77,364.18c-2.79,0-5.15-1.88-7.09-5.63-1.94-3.75-3.53-8.19-4.76-13.32-1.23-5.13-2.17-9.82-2.81-14.08-.64-4.25-1.03-6.88-1.16-7.88-.91-6.25-1.47-11.88-1.68-16.89-.21-5-.07-10.01.41-15.01.48-5,1.29-10.51,2.43-16.52,1.05-5.5,2.08-8.57,3.08-9.2,1-.62,2,.56,2.98,3.57.98,3,1.93,7.38,2.84,13.14,1.1,6.76,2.03,11.33,2.81,13.7.78,2.38,1.67,3.57,2.67,3.57,1.23,0,2.24-.81,3.02-2.44.78-1.63,1.35-4.13,1.71-7.51.37-3.38.55-7.69.55-12.95,0-4.25-.39-7.57-1.17-9.95-.78-2.38-1.79-4.44-3.05-6.19-1.26-1.75-2.66-3.69-4.21-5.82-1.55-2.12-3.08-4.94-4.59-8.45-.91-2-1.81-4.5-2.67-7.51-.87-3-1.68-6.44-2.43-10.32-.75-3.88-1.4-8.5-1.95-13.89-.55-5.38-.97-11.45-1.27-18.21-.3-6.76-.45-14.39-.45-22.9,0-15.26.7-28.9,2.09-40.91,1.39-12.01,3.31-21.52,5.76-28.53,2.44-7,5.22-10.51,8.33-10.51,2.24,0,4.16,1,5.76,3,1.6,2.01,2.91,4.38,3.94,7.13,1.03,2.76,1.82,5.32,2.36,7.69.55,2.38.89,3.94,1.03,4.69,1.51,7.51,2.33,13.95,2.47,19.33.14,5.38-.41,13.08-1.64,23.08-1.37,10.76-2.72,16.83-4.04,18.2-1.33,1.38-2.86-.94-4.59-6.94-.37-1.5-.73-3.19-1.1-5.07-.37-1.88-.86-3.5-1.47-4.88-.62-1.37-1.54-2.06-2.78-2.06-.46,0-.91.44-1.37,1.31-.46.88-.85,2.01-1.17,3.38-.32,1.38-.58,3.07-.79,5.07-.21,2.01-.31,4.13-.31,6.38,0,5.25.37,9.32,1.1,12.2.73,2.88,1.7,5.07,2.91,6.57,1.21,1.5,2.55,3,4.01,4.5,1.46,1.5,2.95,3.51,4.45,6.01,1.23,2.25,2.42,5.13,3.56,8.63,1.14,3.51,2.15,8.01,3.02,13.51.87,5.51,1.56,12.33,2.09,20.46.52,8.13.79,18.08.79,29.84,0,16.27-.57,30.09-1.71,41.48-1.14,11.39-2.62,20.52-4.42,27.4-1.81,6.89-3.72,11.89-5.76,15.01-2.03,3.13-3.94,4.69-5.72,4.69Z"/>
    </g>
    <g>
      <g>
        <path class="cls-45" d="M140.55,261.59c-.29-.31-.62-.59-.88-.92.98-.96,1.81-2.15,2.06-3.52.16-.84-.19-1.78-.96-2.2.72-1.46,1.19-3.06,1.23-4.69,0-.7-.11-1.5-.67-1.99-.45-.41-1.11-.4-1.67-.31-.82.17-1.6.49-2.38.8-1.77.72-3.5,1.55-5.25,2.32-.97.41-1.98.92-3.05.77-4.07-1.54-8.41-2.3-12.75-2.45-1.82-.12-3.64-.04-5.45.04-3.88.28-7.76.76-11.52,1.74-.71.17-1.41.42-2.13.57-1.01.2-2.09.22-3.06-.17-2.41-.95-4.71-2.17-7.15-3.08-.78-.28-1.57-.63-2.41-.57-.54.01-1.05.34-1.29.81-.35.67-.35,1.46-.28,2.19.14,1.41.55,2.78,1.21,4.03-.38.22-.71.55-.85.97-.29.7-.14,1.48.13,2.15.41,1.01,1.06,1.91,1.86,2.64-.28.28-.57.54-.83.83-1.35,1.34-2.56,2.8-3.7,4.32-2.27,3.1-4.14,6.5-5.54,10.07.48.1.97.15,1.45.27,1.7.38,3.25,1.23,4.65,2.24,2.21,1.63,4.01,3.77,5.38,6.14.03-.16.06-.31.12-.46.54-1.59.86-3.25,1.03-4.92.1-.95.08-1.91.07-2.87,0-.4-.08-.79-.04-1.18-.55-1.74-.91-3.55-.89-5.38-.03-2.99.78-5.98,2.35-8.53.36-.56.74-1.11,1.17-1.61,1.55-1.86,3.66-3.28,6.01-3.87,1.46-.35,2.97-.45,4.46-.27,1.89.22,3.73.79,5.42,1.66,2.22,1.14,4.2,2.81,5.55,4.93.19.3.33.62.54.9.96-1.98,2.53-3.61,4.35-4.83,2.72-1.83,6.02-2.89,9.32-2.68,1.67.11,3.32.56,4.78,1.39,2.29,1.31,4.1,3.37,5.26,5.72,1.45,2.94,1.95,6.33,1.47,9.57-.13,1.02-.43,2-.68,2.99.01.34-.03.69-.05,1.03-.07,1.89.1,3.8.52,5.65.18.94.5,1.85.76,2.77.83-1.5,1.87-2.88,3.07-4.1,1.52-1.58,3.32-2.91,5.35-3.76.98-.39,2.01-.7,3.08-.72-2.05-5.35-5.17-10.3-9.15-14.42Z"/>
        <path class="cls-131" d="M112.15,251.45c.53-.07,1.14.07,1.49.5.25.28.37.65.37,1.02-.02.82-.41,1.65-1.11,2.09-.25.17-.58.17-.84.02-.92-.52-1.37-1.73-1.05-2.74.16-.49.63-.82,1.13-.89Z"/>
        <path class="cls-105" d="M106.49,252.59c1.09-.28,2.28.38,2.76,1.37.16.38.25.82.11,1.22-.17.33-.59.35-.92.37-.88-.02-1.77-.37-2.39-1.01-.34-.35-.58-.89-.35-1.36.13-.33.46-.52.79-.6Z"/>
        <path class="cls-16" d="M117.4,252.6c.49-.12,1.04-.08,1.48.18.36.2.56.66.42,1.05-.1.39-.37.71-.68.96-.47.42-1.09.6-1.69.75-.39.06-.81.04-1.18-.12-.31-.17-.33-.57-.27-.88.18-.95.97-1.74,1.92-1.93Z"/>
        <path class="cls-63" d="M96.51,255.76c1.46-.35,2.97-.45,4.46-.27,1.89.22,3.73.79,5.42,1.66,2.22,1.14,4.2,2.81,5.55,4.93.19.3.33.62.54.9.96-1.98,2.53-3.61,4.35-4.83,2.72-1.83,6.02-2.89,9.32-2.68,1.67.11,3.32.56,4.78,1.39,2.29,1.31,4.1,3.37,5.26,5.72,1.45,2.94,1.95,6.33,1.47,9.57-.13,1.02-.43,2-.68,2.99-.33.52-.59,1.08-.93,1.6-1.47,2.27-3.57,4.11-5.98,5.34-1.5.74-3.11,1.28-4.77,1.55,0,.04,0,.11,0,.15-1.27-2.59-3.26-4.88-5.78-6.32-1.38-.8-2.92-1.34-4.5-1.57-.43-.06-.88-.05-1.3-.15.8-.92,1.41-2.04,1.62-3.25.1-.5-.05-1.05-.45-1.38-.38-.31-.85-.5-1.32-.62-1.07-.24-2.24-.15-3.22.39-.33.18-.62.44-.74.81-.14.36-.07.75.01,1.12.26,1.11.85,2.12,1.6,2.97-2.48.07-4.94.93-6.95,2.39-1.96,1.41-3.53,3.34-4.59,5.51-1.13-.23-2.26-.47-3.34-.9-3.17-1.21-6.01-3.41-7.76-6.34-.25-.42-.45-.87-.72-1.28-.55-1.74-.91-3.55-.89-5.38-.03-2.99.78-5.98,2.35-8.53.36-.56.74-1.11,1.17-1.61,1.54-1.86,3.66-3.28,6.01-3.87Z"/>
        <path class="cls-8" d="M94.02,265.52c1.12-2.59,3.88-4.4,6.71-4.29,1.51.05,3.01.61,4.15,1.61.97.8,1.66,1.9,2.08,3.08.19.64.27,1.3.3,1.97.05.79-.19,1.54-.41,2.29-.1.24-.17.55-.43.68.08-.24.14-.48.21-.72.13-.24.22-.5.23-.77.06-.77.1-1.56-.15-2.31-.24-.69-.52-1.39-.98-1.96-.66-.84-1.53-1.52-2.52-1.91-1.46-.55-3.16-.51-4.57.17-1,.49-1.89,1.24-2.48,2.19-.82,1.26-1.11,2.83-.84,4.3.15.76.47,1.49.87,2.15.31.52.75.93,1.2,1.32-.2,0-.4,0-.59-.05-.5-.09-1.02-.08-1.53-.06-.68-.76-1.21-1.65-1.53-2.62-.55-1.65-.44-3.5.27-5.08Z"/>
        <path class="cls-133" d="M131.01,265.9c-.54-1.44-1.57-2.69-2.87-3.52-1.51-1.01-3.44-1.37-5.21-1-1.18.26-2.3.84-3.18,1.67-.95.88-1.62,2.05-1.94,3.3-.18.74-.18,1.52-.15,2.28.05.53.22,1.04.38,1.54.13.36.27.75.56,1.01-.16-.36-.25-.75-.34-1.13-.18-.18-.17-.45-.2-.68-.03-.5-.1-.99-.04-1.49.04-.41.17-.8.29-1.2.21-.76.66-1.44,1.19-2.01.9-1.02,2.19-1.66,3.53-1.84.67-.02,1.36-.07,2.01.11.62.15,1.21.4,1.75.73,1.54.93,2.6,2.59,2.8,4.38.17,1.34-.18,2.72-.88,3.87-.36.54-.8,1.04-1.29,1.47.35.05.67-.14,1.02-.18.39-.04.79-.03,1.18-.01.11-.15.23-.29.35-.43,1.51-1.9,1.92-4.61,1.04-6.88Z"/>
        <path class="cls-100" d="M98.66,263.36c1.41-.68,3.11-.73,4.57-.17.99.4,1.86,1.08,2.52,1.91.46.58.74,1.27.98,1.96.25.74.21,1.54.15,2.31-.01.27-.1.53-.23.77.14-.77.12-1.57-.12-2.32-.39-1.32-1.41-2.44-2.69-2.95-1.08-.44-2.33-.47-3.4,0-.7.27-1.32.74-1.82,1.3-.84.98-1.24,2.33-1.09,3.61.1.8.42,1.57.89,2.23.86,1.14,2.27,1.86,3.71,1.83.81,0,1.62-.22,2.32-.63v.09c-.46.53-1.14.81-1.79,1.02-1.03.37-2.17.32-3.21.06-.76-.17-1.43-.58-2.03-1.05-.44-.4-.89-.81-1.2-1.32-.4-.66-.71-1.39-.87-2.15-.27-1.47.01-3.05.84-4.3.59-.96,1.48-1.7,2.48-2.19Z"/>
        <path class="cls-100" d="M119.49,264.68c.9-1.02,2.19-1.66,3.53-1.84.67-.02,1.36-.07,2.01.11.62.15,1.21.4,1.75.73,1.54.93,2.6,2.59,2.8,4.38.17,1.34-.18,2.72-.88,3.87-.36.54-.8,1.04-1.29,1.47-.24.15-.5.28-.73.44-.46.32-1,.5-1.54.61-1.21.29-2.49.11-3.61-.4-.46-.21-.93-.45-1.24-.86h.13c1.03.61,2.29.81,3.45.52,1.28-.31,2.42-1.2,3-2.39.53-1.05.69-2.31.32-3.44-.29-.99-.91-1.89-1.76-2.48-1.71-1.32-4.36-1.12-5.86.42-1.1,1.08-1.62,2.72-1.31,4.23-.18-.18-.17-.45-.2-.68-.03-.5-.1-.99-.04-1.49.04-.41.17-.8.29-1.2.21-.76.66-1.44,1.19-2.01Z"/>
        <path class="cls-18" d="M119.57,265.83c1.51-1.54,4.15-1.74,5.86-.42.85.59,1.48,1.49,1.76,2.48.37,1.13.2,2.39-.32,3.44-.59,1.18-1.72,2.08-3,2.39-1.16.29-2.42.09-3.45-.52-.78-.48-1.44-1.16-1.82-2.01-.16-.36-.25-.75-.34-1.13-.31-1.51.22-3.15,1.31-4.23Z"/>
        <path class="cls-132" d="M106.53,267.81c-.39-1.32-1.41-2.44-2.69-2.95-1.08-.44-2.33-.47-3.4,0-.7.27-1.32.74-1.82,1.3-.84.98-1.24,2.33-1.09,3.61.1.8.42,1.57.89,2.23.86,1.14,2.27,1.86,3.71,1.83.81,0,1.62-.22,2.32-.63.91-.53,1.61-1.38,2-2.35.08-.24.14-.48.21-.72.14-.77.12-1.57-.12-2.32ZM101.51,268.27c-.38.48-1.14.56-1.64.25-.58-.34-.76-1.14-.47-1.73.3-.49.89-.77,1.46-.63.26.09.5.24.67.45.4.46.39,1.21-.02,1.67Z"/>
        <path class="cls-122" d="M99.4,266.78c.3-.49.89-.77,1.46-.63.26.09.5.24.67.45.4.46.39,1.21-.02,1.67-.38.48-1.14.56-1.64.25-.58-.34-.76-1.14-.47-1.73Z"/>
        <path class="cls-149" d="M120.88,266.16c.89-.26,1.82.68,1.56,1.56-.14.74-1.02,1.17-1.7.89-.67-.23-.99-1.06-.72-1.7.15-.36.47-.66.86-.75Z"/>
        <path class="cls-14" d="M110.36,270.88c.97-.54,2.14-.62,3.22-.39.47.12.94.31,1.32.62.39.33.55.88.45,1.38-.21,1.21-.81,2.33-1.62,3.25-.37.37-.73.85-1.27.94-.51-.11-.87-.55-1.23-.91-.74-.85-1.33-1.86-1.6-2.97-.08-.36-.15-.76-.01-1.12.12-.36.42-.63.74-.81Z"/>
        <path class="cls-24" d="M93.32,274.01c.54-.47,1.25-.72,1.96-.79.51-.01,1.02-.03,1.53.06.2.04.4.05.59.05.61.47,1.27.88,2.03,1.05-.23.14-.52-.05-.76-.1.19.38.37.81.23,1.23-.2.62-.79,1.01-1.36,1.25-1.05.37-2.23.37-3.27-.04-.56-.23-1.15-.58-1.37-1.19-.23-.53,0-1.16.41-1.53Z"/>
        <path class="cls-55" d="M127.42,273.4c.35.05.67-.14,1.02-.18.39-.04.79-.03,1.18-.01.71.08,1.41.33,1.96.79.4.36.63.96.44,1.48-.18.51-.63.88-1.11,1.1-.73.38-1.57.48-2.38.44-.78-.05-1.55-.33-2.13-.85-.39-.34-.58-.91-.43-1.41.06-.17.17-.32.23-.49-.35.05-.7.32-1.05.18.54-.11,1.09-.29,1.54-.61.23-.16.49-.29.73-.44Z"/>
        <path class="cls-96" d="M87.87,275.15c.27.41.46.86.72,1.28,1.75,2.93,4.59,5.13,7.76,6.34,1.07.43,2.21.67,3.34.9-1.43,2.8-2.05,5.94-2.37,9.05-.35,4.02-.05,8.14,1.17,12,.81,2.48,2.09,4.85,3.94,6.71,1.84,1.89,4.24,3.24,6.82,3.82,4.12.94,8.67.07,12.03-2.53,1.53-1.15,2.78-2.64,3.75-4.28,1.13-1.95,1.85-4.11,2.31-6.3.62-3.12.68-6.33.37-9.5-.31-3.05-1.04-6.09-2.4-8.85,0-.04,0-.11,0-.15,1.66-.27,3.26-.81,4.77-1.55,2.4-1.23,4.51-3.07,5.98-5.34.33-.52.6-1.08.93-1.6.01.34-.03.69-.05,1.03-.07,1.89.1,3.8.52,5.65.18.94.5,1.85.76,2.77-1.24,2.15-2.06,4.54-2.41,7-.35,2.4-.12,4.85.36,7.21,1,4.69,3.09,9.15,6.12,12.87.93,1.11,1.93,2.19,3.14,3.01.41.25.86.57,1.37.51-1.48,2.56-3.27,4.93-5.25,7.11-3.26,3.57-7.17,6.57-11.54,8.66-.48-1.24-1.36-2.32-2.51-3.01-1.32-.8-2.94-1.07-4.46-.82-1.59.25-3.11,1.14-3.99,2.51-.9,1.37-1.26,3.16-.74,4.73-2.07.32-4.16.46-6.25.46-1.75,0-3.48-.19-5.22-.36.23-.46.28-.98.28-1.48.06-1.69-.68-3.39-1.98-4.48-2.06-1.76-5.31-1.93-7.56-.42-1.1.71-1.93,1.82-2.36,3.06-.23-.2-.54-.28-.8-.43-3.26-1.61-6.25-3.77-8.9-6.25-2.9-2.7-5.37-5.86-7.39-9.27.61.04,1.15-.34,1.63-.67,1.27-.95,2.34-2.15,3.32-3.39,1.79-2.3,3.21-4.89,4.28-7.6,1.33-3.4,2.09-7.06,1.89-10.72-.11-1.46-.38-2.91-.83-4.3-.45-1.35-.98-2.68-1.71-3.9.03-.16.06-.31.12-.46.54-1.59.86-3.25,1.03-4.92.1-.95.08-1.91.07-2.87,0-.4-.08-.79-.04-1.18Z"/>
        <path class="cls-81" d="M74.03,279.05c.37-1.05.68-2.12,1.19-3.11.48.1.97.15,1.45.27,1.7.38,3.25,1.23,4.65,2.24,2.21,1.63,4.01,3.77,5.38,6.14.73,1.22,1.26,2.55,1.71,3.9.45,1.4.72,2.84.83,4.3.2,3.66-.56,7.32-1.89,10.72-1.07,2.71-2.49,5.3-4.28,7.6-.98,1.24-2.05,2.44-3.32,3.39-.48.33-1.02.71-1.63.67-.4-.13-.67-.48-.9-.82-.68-1.01-1.18-2.13-1.69-3.23-.63-1.46-1.18-2.96-1.68-4.47-.03-.1-.05-.2-.06-.3.31.51.62,1.03,1.06,1.43.54.48,1.22.85,1.96.84.85,0,1.62-.53,2.09-1.21.7-1.06.94-2.36.89-3.61.36.66.83,1.29,1.51,1.64.65.36,1.48.4,2.13.02.79-.42,1.26-1.23,1.59-2.02.99-2.55.68-5.66-1.11-7.79.02,1.19-.26,2.41-.91,3.42-.44.64-1.11,1.21-1.92,1.23-.71.06-1.4-.29-1.89-.78-.54-.58-.92-1.31-1.15-2.06-.06,1.17-.38,2.38-1.16,3.29-.5.59-1.31.97-2.08.8-.79-.15-1.4-.77-1.77-1.45-.39-.66-.53-1.42-.72-2.15-.05.32-.11.63-.16.95-.38-2.74-.48-5.51-.35-8.28.21.31.22.71.4,1.04.27.68.82,1.25,1.5,1.54.65.25,1.41.16,2-.19.48-.26.86-.67,1.19-1.1.25-.33.39-.73.6-1.08.04,1.03.3,2.12,1.03,2.88.47.52,1.18.82,1.88.73.61-.05,1.17-.35,1.6-.77.97-.93,1.55-2.2,1.84-3.49.17-.92.27-1.87.08-2.79-.27.28-.49.61-.8.85-.55.43-1.27.7-1.98.57-.72-.1-1.31-.6-1.7-1.19-.52-.79-.71-1.75-.77-2.68-.6.7-1.42,1.31-2.38,1.3-.86.06-1.65-.45-2.15-1.11-.67-.85-.88-1.94-1-2.98.22-1.05.55-2.07.87-3.09Z"/>
        <path class="cls-81" d="M146.63,276.73c.98-.39,2.01-.7,3.08-.72.3.57.5,1.18.73,1.79.46,1.3.86,2.61,1.22,3.94.04.17.11.34.1.51-.16.78-.23,1.61-.65,2.31-.45.85-1.24,1.62-2.25,1.68-1.04.11-1.97-.54-2.63-1.29-.04,1.09-.35,2.23-1.09,3.07-.55.65-1.49.98-2.32.73-.44-.13-.86-.36-1.2-.67-.24-.21-.42-.48-.66-.7-.21,1.33-.01,2.7.44,3.95.36.92.88,1.8,1.63,2.46.52.44,1.21.72,1.9.65.6-.05,1.16-.37,1.54-.83.67-.76.92-1.8.95-2.79.36.85.9,1.65,1.69,2.14.67.43,1.57.52,2.28.16.64-.32,1.09-.93,1.37-1.57.16-.33.17-.7.31-1.03.22,2.8.03,5.62-.3,8.4-.05-.32-.11-.64-.15-.96-.16.65-.3,1.33-.62,1.93-.36.74-.96,1.43-1.78,1.64-.68.2-1.43-.06-1.94-.53-.97-.89-1.29-2.25-1.42-3.51-.23.79-.63,1.54-1.21,2.12-.46.44-1.07.74-1.71.72-.77-.01-1.48-.47-1.91-1.08-.74-1.02-1.04-2.31-1.02-3.56-1.78,2.11-2.09,5.21-1.11,7.74.34.85.85,1.71,1.71,2.11.73.36,1.63.22,2.28-.25.55-.35.91-.91,1.24-1.46-.05,1.38.22,2.86,1.15,3.93.61.73,1.66,1.08,2.57.77.99-.32,1.73-1.15,2.21-2.05.01.04.03.12.04.16-.78,2.22-1.58,4.44-2.7,6.52-.29.55-.58,1.1-.98,1.58-.17.19-.36.39-.63.45-.51.06-.95-.26-1.37-.51-1.2-.82-2.21-1.9-3.14-3.01-3.03-3.72-5.13-8.18-6.12-12.87-.48-2.37-.71-4.81-.36-7.21.35-2.46,1.17-4.85,2.41-7,.83-1.5,1.87-2.88,3.07-4.1,1.52-1.58,3.32-2.91,5.35-3.76Z"/>
        <path class="cls-148" d="M72.03,288.17c.26-2.03.62-4.05,1.13-6.03.12,1.04.33,2.14,1,2.98.5.66,1.29,1.17,2.15,1.11.96,0,1.78-.6,2.38-1.3.05.93.25,1.89.77,2.68.39.59.98,1.09,1.7,1.19.7.13,1.42-.14,1.98-.57.31-.24.54-.57.8-.85.19.92.09,1.87-.08,2.79-.29,1.29-.87,2.56-1.84,3.49-.43.42-.99.72-1.6.77-.7.09-1.41-.21-1.88-.73-.73-.76-.99-1.85-1.03-2.88-.21.36-.35.75-.6,1.08-.33.43-.71.84-1.19,1.1-.6.35-1.35.43-2,.19-.68-.29-1.22-.85-1.5-1.54-.18-.33-.2-.72-.4-1.04v-.03c.08-.81.13-1.62.23-2.43Z"/>
        <path class="cls-148" d="M151.1,284.56c.42-.7.48-1.53.65-2.31.22.6.3,1.25.45,1.88.4,2.03.73,4.08.86,6.15,0,.08,0,.16,0,.25-.14.33-.15.7-.31,1.03-.28.64-.73,1.25-1.37,1.57-.72.36-1.62.27-2.28-.16-.79-.49-1.34-1.3-1.69-2.14-.03.99-.28,2.03-.95,2.79-.38.46-.94.78-1.54.83-.69.07-1.38-.21-1.9-.65-.75-.66-1.27-1.54-1.63-2.46-.45-1.26-.65-2.63-.44-3.95.24.22.42.49.66.7.34.31.76.54,1.2.67.83.24,1.77-.08,2.32-.73.74-.84,1.05-1.97,1.09-3.07.66.75,1.59,1.39,2.63,1.29,1.01-.06,1.8-.83,2.25-1.68Z"/>
        <path class="cls-71" d="M83.9,295.67c1.79,2.13,2.1,5.24,1.11,7.79-.34.79-.8,1.6-1.59,2.02-.65.38-1.48.34-2.13-.02-.68-.35-1.15-.98-1.51-1.64.05,1.25-.19,2.55-.89,3.61-.46.68-1.24,1.22-2.09,1.21-.74,0-1.42-.36-1.96-.84-.45-.4-.76-.92-1.06-1.43-.32-.86-.53-1.76-.76-2.65-.37-1.59-.7-3.19-.87-4.82.05-.32.1-.63.16-.95.19.73.33,1.49.72,2.15.37.68.98,1.3,1.77,1.45.77.18,1.58-.21,2.08-.8.77-.91,1.1-2.12,1.16-3.29.23.76.61,1.48,1.15,2.06.49.49,1.17.85,1.89.78.81-.02,1.49-.59,1.92-1.23.65-1.01.93-2.23.91-3.42Z"/>
        <path class="cls-57" d="M139.88,303.43c-.98-2.53-.67-5.63,1.11-7.74-.01,1.25.29,2.53,1.02,3.56.44.62,1.14,1.07,1.91,1.08.64.02,1.25-.29,1.71-.72.59-.58.98-1.33,1.21-2.12.13,1.26.45,2.62,1.42,3.51.51.47,1.25.73,1.94.53.82-.21,1.42-.9,1.78-1.64.32-.6.45-1.28.62-1.93.04.32.11.64.15.96-.21,1.81-.58,3.61-1.02,5.38-.19.79-.47,1.55-.65,2.34-.01-.04-.03-.12-.04-.16-.48.9-1.22,1.73-2.21,2.05-.91.31-1.96-.05-2.57-.77-.93-1.07-1.2-2.55-1.15-3.93-.33.55-.69,1.11-1.24,1.46-.65.47-1.55.61-2.28.25-.86-.4-1.37-1.27-1.71-2.11Z"/>
        <path class="cls-80" d="M127.65,315.87c.12-.04.25.04.36.07,1.45.57,3.11.59,4.55,0,.14-.05.29-.13.44-.07.15.15.06.37.02.55-.27.93-.9,1.82-1.83,2.18-.43.19-.91.22-1.36.13-.97-.21-1.75-1.01-2.1-1.92-.07-.29-.32-.67-.09-.93Z"/>
        <path class="cls-156" d="M92.14,315.95c.57.21,1.15.43,1.76.5,1.14.19,2.3-.07,3.37-.47.15-.08.28.13.23.26-.13.94-.72,1.8-1.52,2.29-.65.41-1.51.5-2.21.17-.96-.41-1.59-1.37-1.79-2.37-.05-.15,0-.35.17-.39Z"/>
        <path class="cls-154" d="M99.58,316.1c1.52.61,3.26.48,4.75-.16.08.09.2.16.15.3-.15.84-.6,1.63-1.28,2.15-.61.43-1.42.63-2.15.41-.63-.15-1.12-.62-1.52-1.11-.29-.45-.52-.97-.57-1.5.04-.33.41-.17.61-.09Z"/>
        <path class="cls-153" d="M120.77,315.96c.28-.02.52.14.78.21,1.38.48,2.93.4,4.26-.17.13-.09.33-.05.38.12,0,.45-.2.86-.4,1.25-.37.65-.96,1.21-1.7,1.41-.55.15-1.15.12-1.67-.13-.91-.42-1.52-1.35-1.7-2.32-.04-.13.01-.26.06-.38Z"/>
        <path class="cls-153" d="M106.23,318.56c.97.36,1.99.64,3.03.54.69-.04,1.36-.26,2-.51.18-.11.36.12.29.29-.1.57-.39,1.1-.72,1.57-.57.74-1.54,1.18-2.47,1-1.22-.24-2.08-1.4-2.27-2.58-.04-.13.08-.22.15-.3Z"/>
        <path class="cls-67" d="M113.63,318.58c.1-.04.2,0,.29.04,1,.42,2.12.58,3.2.41.55-.07,1.08-.26,1.59-.45.16-.07.31.13.27.28-.11.71-.49,1.36-.99,1.86-.59.56-1.45.89-2.26.68-.63-.13-1.17-.55-1.57-1.04-.29-.39-.46-.85-.6-1.3-.03-.15-.1-.39.07-.48Z"/>
        <path class="cls-31" d="M124.86,320.95c.1-.14.28-.01.41.01.93.34,1.94.53,2.93.41.56-.08,1.12-.21,1.65-.41.12-.02.27-.13.37-.01.11.07.06.23.05.34-.18.81-.63,1.58-1.32,2.05-.52.38-1.19.54-1.83.43-.72-.11-1.33-.61-1.74-1.19-.29-.45-.55-.95-.58-1.49.01-.03.04-.1.05-.13Z"/>
        <path class="cls-103" d="M94.94,321.28c.13-.06.27.01.39.05,1.26.51,2.71.61,4.02.18.28-.08.54-.21.82-.28.17.01.21.21.18.36-.22,1.13-1.04,2.18-2.17,2.5-.96.29-2-.19-2.6-.95-.33-.45-.62-.95-.71-1.5,0-.12-.06-.29.08-.35Z"/>
        <path class="cls-145" d="M117.4,322.67c.25-.14.51.12.77.16,1.42.47,3,.37,4.37-.2.21-.1.33.19.26.35-.11.47-.33.91-.58,1.32-.57.87-1.69,1.41-2.73,1.15-1.04-.26-1.8-1.19-2.07-2.2-.04-.19-.11-.39-.03-.57Z"/>
        <path class="cls-1" d="M102.47,322.84c.46.14.9.35,1.38.43,1.18.26,2.42.08,3.51-.39.15-.1.39-.04.37.18-.16,1.21-1.06,2.36-2.27,2.66-.7.17-1.43-.06-1.99-.49-.59-.42-.96-1.09-1.16-1.77-.04-.2-.14-.58.15-.61Z"/>
        <path class="cls-144" d="M109.86,323.32c.19-.1.38.06.57.11,1.41.56,3.04.5,4.43-.09.13-.08.36-.07.37.12.02.34-.13.66-.26.97-.42.94-1.33,1.73-2.39,1.78-.51,0-1.02-.15-1.45-.44-.72-.53-1.24-1.34-1.35-2.23,0-.08.03-.15.08-.22Z"/>
        <path class="cls-127" d="M97.56,328.08c2.25-1.52,5.49-1.35,7.56.42,1.3,1.08,2.04,2.79,1.98,4.48,0,.5-.05,1.02-.28,1.48-.29.63-.96,1.04-1.66,1.01-.95,0-1.77-.69-2.15-1.52-.12.57-.43,1.11-.89,1.47-.66.5-1.64.51-2.32.04-.55-.4-.85-1.05-.94-1.71-.41.59-1.01,1.08-1.73,1.21-.59.08-1.24-.06-1.65-.51-.44-.46-.58-1.12-.58-1.73.03-.54.1-1.09.3-1.59.44-1.24,1.26-2.34,2.36-3.06Z"/>
        <path class="cls-62" d="M123.02,327.12c1.52-.24,3.14.02,4.46.82,1.14.69,2.03,1.77,2.51,3.01.3.89.47,1.89.15,2.79-.25.73-1.03,1.2-1.79,1.16-.82,0-1.53-.54-1.98-1.2-.07.54-.28,1.06-.64,1.47-.48.52-1.27.74-1.95.54-.81-.2-1.42-.95-1.55-1.76-.02.02-.07.05-.09.07-.38.68-1.01,1.28-1.81,1.4-.83.17-1.68-.32-2.03-1.07-.53-1.57-.17-3.36.74-4.73.88-1.37,2.4-2.26,3.99-2.51Z"/>
      </g>
      <g>
        <path class="cls-84" d="M276.11,307.32c1.43-4.12,2.2-8.47,2.28-12.83.04-2.5-.06-5-.41-7.48-.39-2.83-1.04-5.64-1.98-8.34-.82-2.4-1.89-4.71-3.1-6.93h-.02c-.83-1.53-1.83-2.97-2.89-4.35-4.07-5.29-9.81-9.25-16.18-11.25-4.28-1.39-8.75-2.03-13.22-2.4-2.27-.18-4.54-.34-6.82-.38.32-.51.51-1.12.39-1.73-.14-.73-.87-1.28-1.61-1.24-.74,0-1.38.42-1.89.91-.11-1.06-.99-2.04-2.09-2.1-.96-.09-1.88.46-2.41,1.24-.29.49-.53,1.01-.64,1.57-.13.48-.11.98-.18,1.46-.05.01-.14.04-.19.05-.33-.82-.63-1.66-.96-2.49-.43-.18-.91-.34-1.38-.19-.58.15-1.05.66-1.11,1.26-.11.75.32,1.44.74,2.03-3.17,1.21-6.03,3.32-7.94,6.14-1.74,2.49-2.79,5.49-2.75,8.54.55-.15,1.16-.12,1.64.21.25-.57.44-1.17.73-1.72.85-1.73,2.03-3.3,3.5-4.55,2.03-1.72,4.59-2.84,7.25-3.07,2.29-.19,4.65.22,6.67,1.35,1.05.6,2,1.38,2.76,2.33,1.21,1.47,1.95,3.3,2.24,5.18.4,2.41.08,4.86-.4,7.23,3.14-1.86,6.97-2.36,10.52-1.71,3.12.56,6.03,2.16,8.23,4.44,1.1,1.12,2.01,2.41,2.79,3.76,1.32,2.38,2.15,5,2.58,7.68.45,2.75.48,5.57.13,8.34-.38,2.92-1.23,5.8-2.7,8.36-1.42,2.46-3.44,4.6-5.93,5.98-2.28,1.29-4.9,1.91-7.5,1.95-3.27.06-6.57-.9-9.24-2.81-2.24-1.59-3.98-3.8-5.2-6.24-1.83-3.63-2.65-7.73-2.58-11.79-.91,1.48-2,2.86-3.35,3.95-1.16.91-2.52,1.65-4.02,1.81-.75.12-1.5,0-2.24-.13.27.34.51.7.81,1,.72.71,1.31,1.52,1.95,2.29.81,1.08,1.64,2.28,1.74,3.67.08.71-.24,1.47-.86,1.85-.37.23-.81.25-1.23.28.42.94.9,1.97.66,3.02-.13.79-.75,1.48-1.55,1.62-1.15.21-2.29-.34-3.16-1.05.02.43.04.86-.02,1.29-.1.62-.46,1.25-1.1,1.44.57,1.13,1.24,2.2,1.97,3.24,1.8,2.57,3.96,4.91,6.45,6.83,3.35,2.61,7.27,4.47,11.39,5.51.95.26,1.93.42,2.9.59,4.37.72,8.86.61,13.2-.26.98-.2,1.95-.45,2.91-.74,1.37-.42,2.71-.93,4.04-1.49,2.03,1.88,4.02,3.79,6.08,5.64.27.22.49.54.81.69.02,0,.06.01.08.02.41.1.81.26,1.24.31.83.14,1.79-.04,2.38-.68.33-.35.44-.83.57-1.28.47.18.96.39,1.47.34.54-.07,1.01-.45,1.27-.92.33-.6.32-1.31.26-1.97.41.13.83.26,1.26.23.46-.02.92-.25,1.18-.63.48-.68.58-1.55.43-2.35.5.09,1.03.22,1.54.08.63-.16,1.07-.69,1.38-1.23.43-.75.51-1.63.52-2.48h0c-2.63-2.14-5.23-4.29-7.75-6.55-.13-.08,0-.2.06-.27,2.39-3.04,4.29-6.46,5.57-10.11ZM264.95,271.1c.2-.08.41.02.6.1.86.42,1.44,1.26,1.7,2.16.05.34.13.76-.11,1.05-.26.25-.64.06-.9-.08-.86-.62-1.41-1.61-1.51-2.66,0-.2,0-.49.21-.58ZM265.8,279.54c-.11.23-.39.19-.6.22-1.07-.62-1.7-1.86-1.63-3.09.01-.21.08-.47.31-.53.25,0,.49.13.69.27.7.53,1.16,1.32,1.31,2.18,0,.32.04.65-.08.95ZM270.02,273.23c.13-.27.47-.36.72-.2.72.42,1.15,1.2,1.47,1.94.04.47.16.96-.05,1.41-.18.3-.63.13-.85-.05-.9-.74-1.39-1.94-1.29-3.1Z"/>
        <path class="cls-27" d="M213.89,240.28c1.57-.31,3.21-.25,4.77.15,2.57.67,4.83,2.43,6.11,4.76.9,1.6,1.25,3.45,1.4,5.26-.29.49-.53,1.01-.64,1.57-.13.48-.11.98-.18,1.46-.05.01-.14.04-.19.05-.33-.82-.63-1.66-.96-2.49-.59-1.42-1.34-2.84-2.54-3.85-1-.88-2.37-1.36-3.7-1.22-.6.1-1.21.32-1.67.74-.56.48-.72,1.24-1.21,1.78-.67.88-1.74,1.45-2.86,1.46-.96.06-1.94-.3-2.66-.93-.99-.89-1.46-2.28-1.29-3.59.17-1.4.97-2.68,2.05-3.57,1.02-.83,2.27-1.34,3.56-1.59Z"/>
        <path class="cls-66" d="M240.14,256.1c.63-.05,1.29.09,1.8.47.18.15.37.35.39.6,0,.24-.21.43-.43.49-.78.25-1.67.09-2.35-.36-.24-.17-.51-.48-.37-.8.2-.33.63-.36.97-.41Z"/>
        <path class="cls-123" d="M230.53,256.19c.46-.05.97-.01,1.37.25.19.14.38.4.26.65-.12.3-.45.44-.74.52-.6.15-1.3.14-1.8-.27-.19-.14-.27-.42-.13-.63.24-.33.65-.48,1.04-.53Z"/>
        <path class="cls-91" d="M247.35,257.38c.77-.16,1.61.03,2.25.49.27.2.53.46.63.8.07.21-.08.41-.26.5-.27.13-.58.13-.87.11-.69-.07-1.39-.35-1.86-.88-.16-.18-.33-.4-.31-.65.05-.19.24-.31.43-.35Z"/>
        <path class="cls-89" d="M234.81,257.8c.57-.06,1.19.01,1.66.37.21.16.39.46.28.73-.19.33-.61.42-.96.45-.51.02-1.04-.05-1.48-.32-.21-.14-.42-.36-.41-.64.1-.4.55-.53.91-.59Z"/>
        <path class="cls-78" d="M255.77,259.45c1.18-.18,2.43.51,2.93,1.59.11.23.1.59-.19.67-.53.17-1.11-.02-1.59-.27-.59-.34-1.14-.84-1.38-1.5-.09-.19.04-.43.23-.5Z"/>
        <path class="cls-20" d="M217.63,262.76c2.03-1.72,4.59-2.84,7.25-3.07,2.29-.19,4.65.22,6.67,1.35,1.05.6,2,1.38,2.76,2.33,1.21,1.47,1.95,3.3,2.24,5.18.4,2.41.08,4.86-.4,7.23-2.77,1.62-4.89,4.2-6.28,7.07-.67,1.29-1.19,2.66-1.58,4.07-.67,2.21-.97,4.51-1.02,6.81-.91,1.48-2,2.86-3.35,3.95-1.16.91-2.52,1.65-4.02,1.81-.75.12-1.5,0-2.24-.13-.61-.55-1.06-1.24-1.61-1.84-1.13-1.37-2.22-2.79-3.02-4.39-.37-.68-.63-1.46-1.25-1.97-.3-.26-.73-.27-1.09-.16.35-4.57,1.67-9.05,3.79-13.11-.36-.69-.72-1.39-.96-2.14.97-.88,1.54-2.15,1.61-3.45-.13-1.26-.73-2.47-1.73-3.27.25-.57.44-1.17.73-1.72.85-1.73,2.03-3.3,3.5-4.55Z"/>
        <path class="cls-108" d="M242.75,259.73c.84-.21,1.78.05,2.38.67.16.18.3.41.28.65-.07.2-.25.35-.46.39-.83.17-1.72-.09-2.34-.66-.2-.19-.39-.45-.32-.74.06-.2.29-.27.46-.32Z"/>
        <path class="cls-66" d="M237.4,261.04c.62-.1,1.29,0,1.8.38.21.16.4.38.36.66.01.29-.31.45-.55.49-.66.13-1.4.02-1.93-.41-.22-.18-.43-.48-.31-.78.14-.21.4-.29.63-.35Z"/>
        <path class="cls-111" d="M251.61,261.47c.47-.18,1-.04,1.45.14.63.28,1.23.71,1.54,1.34.11.23.16.6-.12.74-.51.23-1.1.06-1.58-.17-.57-.33-1.11-.79-1.4-1.4-.1-.21-.16-.53.1-.65Z"/>
        <path class="cls-155" d="M223.37,262.72c.81-.23,1.69-.07,2.44.28.37.19.75.42.99.77.13.23-.09.53-.35.48-.25-.13-.45-.33-.68-.47-.51-.31-1.12-.45-1.72-.44-.34,0-.67.12-1.01.17-.19,0-.32-.24-.24-.41.09-.23.35-.32.57-.38Z"/>
        <path class="cls-101" d="M247.16,262.84c.58-.16,1.19.01,1.72.27.48.27.98.63,1.15,1.18.09.24-.05.53-.3.61-.39.15-.82.06-1.2-.07-.61-.2-1.14-.62-1.51-1.15-.18-.25-.28-.77.14-.84Z"/>
        <path class="cls-11" d="M240.73,264.1c.11-.31.5-.34.78-.37.81-.05,1.76.37,1.99,1.21-.13.37-.51.52-.88.52-.52.01-1.03-.18-1.44-.48-.27-.21-.52-.52-.45-.88Z"/>
        <path class="cls-120" d="M257.78,264.6c.29-.14.62-.03.9.07.89.35,1.72,1.02,1.99,1.97.05.23.1.56-.16.69-.39.16-.83.01-1.18-.16-.75-.36-1.3-1.04-1.63-1.79-.08-.24-.19-.61.08-.77Z"/>
        <path class="cls-147" d="M263.5,264.94c.32-.11.67.02.97.14.82.4,1.49,1.14,1.73,2.03.05.25.1.59-.16.75-.32.17-.68-.02-.98-.15-.79-.43-1.41-1.17-1.67-2.03-.07-.24-.13-.57.11-.74Z"/>
        <path class="cls-149" d="M222.95,265.86c.6-.14,1.22-.07,1.81.05.32.07.63.19.89.38.31.23.66.41.91.71l-.15-.03c-.48-.35-1.04-.6-1.63-.62-1.1-.08-2.23.46-2.85,1.38-.49.68-.67,1.56-.55,2.38.13,1.03.84,1.94,1.77,2.37.58.28,1.25.33,1.88.25-.06.04-.19.11-.25.14-1.28.32-2.73-.02-3.66-.96-.49-.52-.86-1.18-.98-1.89-.09-.68-.06-1.39.23-2.01.45-1.07,1.43-1.92,2.56-2.16Z"/>
        <path class="cls-23" d="M221.94,267.73c.62-.92,1.75-1.46,2.85-1.38.6.02,1.15.28,1.63.62.6.51,1.02,1.24,1.11,2.02.29,1.63-.84,3.43-2.49,3.74-.63.08-1.3.03-1.88-.25-.93-.44-1.64-1.35-1.77-2.37-.13-.82.06-1.7.55-2.38Z"/>
        <path class="cls-93" d="M251.32,266.9c.3-.1.63-.02.93.05.86.22,1.61.83,1.97,1.64.08.22.19.54-.04.72-.17.17-.43.15-.65.12-.99-.15-1.84-.87-2.29-1.74-.13-.24-.22-.65.09-.79Z"/>
        <path class="cls-88" d="M225.16,267.34c.58-.11,1.2.42,1.12,1.02-.04.59-.68,1.05-1.25.86-.48-.13-.8-.67-.67-1.15.08-.39.43-.66.81-.74Z"/>
        <path class="cls-10" d="M211.75,268.83c.55-.15,1.16-.12,1.64.21,1,.79,1.6,2.01,1.73,3.27-1.82.8-3.85.75-5.8.92-.43-.03-1.03.17-1.29-.28-.11-.33.11-.65.28-.93.69-1.05,1.61-1.93,2.62-2.67.27-.19.53-.39.83-.52Z"/>
        <path class="cls-137" d="M258.62,269.85c.25-.13.54.02.78.1.88.35,1.56,1.13,1.84,2.02.08.27.16.59-.04.83-.24.18-.56.12-.82.03-.99-.38-1.71-1.34-1.91-2.37-.01-.21-.07-.51.16-.62Z"/>
        <path class="cls-38" d="M264.95,271.1c.2-.08.41.02.6.1.86.42,1.44,1.26,1.7,2.16.05.34.13.76-.11,1.05-.26.25-.64.06-.9-.08-.86-.62-1.41-1.61-1.51-2.66,0-.2,0-.49.21-.58Z"/>
        <path class="cls-49" d="M209.33,273.22c1.95-.16,3.98-.12,5.8-.92-.07,1.3-.65,2.57-1.61,3.45-.94-.36-1.79-.88-2.63-1.42-.52-.36-1.08-.68-1.56-1.11Z"/>
        <path class="cls-90" d="M226.86,272.93c.97-.22,2.01.04,2.82.61.52.4.89,1.05.81,1.72-.05.42-.3.77-.58,1.07-.46.5-1.14.74-1.79.88-1.12.24-2.39-.02-3.22-.84-.39-.37-.59-.92-.51-1.45.04-.56.46-.97.85-1.32.45-.4,1.05-.54,1.62-.67Z"/>
        <path class="cls-152" d="M270.02,273.23c.13-.27.47-.36.72-.2.72.42,1.15,1.2,1.47,1.94.04.47.16.96-.05,1.41-.18.3-.63.13-.85-.05-.9-.74-1.39-1.94-1.29-3.1Z"/>
        <path class="cls-139" d="M263.88,276.14c.25,0,.49.13.69.27.7.53,1.16,1.32,1.31,2.18,0,.32.04.65-.08.95-.11.23-.39.19-.6.22-1.07-.62-1.7-1.86-1.63-3.09.01-.21.08-.47.31-.53Z"/>
        <path class="cls-74" d="M269.14,278.37c.19-.06.39.02.55.13.94.65,1.47,1.84,1.34,2.97-.03.21-.11.48-.35.54-.32.06-.58-.18-.8-.38-.73-.73-1.12-1.8-1.01-2.83.02-.17.08-.37.26-.43Z"/>
        <path class="cls-61" d="M216.41,281.88c.38.01.49.46.56.77.07.6.1,1.25-.17,1.81-.18.38-.39.79-.79.98-.29.15-.63-.1-.71-.38-.31-.97-.09-2.11.61-2.86.14-.14.29-.29.49-.33Z"/>
        <path class="cls-50" d="M220.31,282.82c.2-.17.46-.03.59.15.25.34.31.77.36,1.18.07.74-.08,1.57-.63,2.11-.27.26-.73.1-.86-.23-.5-1.03-.36-2.45.54-3.22Z"/>
        <path class="cls-136" d="M224.62,283.16c.3-.15.55.15.7.38.42.71.5,1.61.26,2.4-.12.34-.29.75-.69.82-.3.01-.5-.25-.63-.49-.34-.68-.43-1.49-.2-2.22.1-.34.25-.71.57-.9Z"/>
        <path class="cls-59" d="M267.48,283.82c.37,0,.63.32.86.57.55.61.77,1.45.79,2.26-.03.32-.07.73-.39.89-.32.08-.6-.14-.8-.35-.7-.79-1.03-1.91-.82-2.94.04-.19.16-.4.36-.43Z"/>
        <path class="cls-28" d="M214.37,287.03c.24-.14.5.08.59.3.44,1.01.31,2.32-.49,3.12-.22.25-.66.26-.84-.03-.34-.53-.28-1.19-.23-1.79.13-.61.41-1.27.97-1.59Z"/>
        <path class="cls-92" d="M218.37,287.7c.23-.02.42.16.53.34.37.62.4,1.38.3,2.08-.11.43-.29.88-.64,1.18-.26.23-.65.06-.78-.22-.41-.76-.44-1.72-.11-2.51.15-.33.33-.74.7-.86Z"/>
        <path class="cls-98" d="M222.61,288.24c.21-.13.47,0,.59.18.66.84.73,2.05.27,3-.12.27-.42.54-.73.42-.35-.15-.5-.54-.62-.87-.2-.62-.2-1.31-.01-1.94.11-.29.23-.62.5-.8Z"/>
        <path class="cls-126" d="M209.64,291.81c.28-.34.62-.66,1.05-.81.37-.11.79-.09,1.09.16.62.51.88,1.29,1.25,1.97.8,1.59,1.89,3.02,3.02,4.39.55.61,1,1.29,1.61,1.84.27.34.51.7.81,1,.72.71,1.31,1.52,1.95,2.29.81,1.08,1.64,2.28,1.74,3.67.08.71-.24,1.47-.86,1.85-.37.23-.81.25-1.23.28.42.94.9,1.97.66,3.02-.13.79-.75,1.48-1.55,1.62-1.15.21-2.29-.34-3.16-1.05.02.43.04.86-.02,1.29-.1.62-.46,1.25-1.1,1.44-.58-.14-1.14-.4-1.61-.78-2.31-1.77-3.89-4.34-4.85-7.06-.64-1.97-1.05-4.02-1.12-6.09-.1-2.03.09-4.09.71-6.03.35-1.09.86-2.14,1.59-3.03Z"/>
        <path class="cls-76" d="M216.23,292.49c.22-.08.43.06.54.25.5.8.59,1.85.19,2.71-.1.22-.22.45-.42.59-.24.17-.6.03-.74-.21-.41-.7-.48-1.57-.22-2.34.13-.37.29-.78.64-.99Z"/>
        <path class="cls-92" d="M220.49,292.95c.24-.07.44.11.57.29.52.69.59,1.63.39,2.46-.1.29-.21.61-.47.79-.28.19-.63,0-.78-.26-.48-.8-.59-1.87-.17-2.72.12-.21.23-.45.46-.55Z"/>
        <path class="cls-17" d="M210.51,297.96c.26-.21.52.07.68.26.49.64.75,1.47.6,2.27-.06.4-.12.89-.5,1.12-.23.13-.48-.02-.63-.2-.64-.72-.83-1.77-.57-2.69.08-.28.18-.59.42-.77Z"/>
        <path class="cls-60" d="M214.47,299.87c.23-.18.52.02.71.17.69.62,1.14,1.54,1.06,2.49-.04.3-.06.69-.36.86-.25.12-.52-.04-.71-.2-.66-.57-1.02-1.46-.98-2.33.02-.34.02-.74.28-.99Z"/>
        <path class="cls-60" d="M211.52,303.67c.13-.12.32-.07.45.03,1,.7,1.39,2.08,1.02,3.22-.07.24-.33.44-.58.36-.41-.16-.68-.53-.9-.89-.38-.59-.43-1.33-.33-2,.06-.26.12-.54.33-.72Z"/>
        <path class="cls-143" d="M215.86,305.61c.18-.16.43-.04.6.07.95.66,1.45,1.92,1.2,3.05-.05.34-.48.49-.76.3-.87-.5-1.31-1.55-1.3-2.53.02-.3.03-.66.26-.89Z"/>
        <path class="cls-142" d="M267.03,320.49c.4-.17.84.03,1.2.19.69.38,1.38.93,1.59,1.73.07.23.08.56-.17.69-.36.15-.76.01-1.08-.16-.69-.4-1.25-1.02-1.55-1.76-.08-.22-.19-.51.01-.69Z"/>
        <path class="cls-121" d="M263.88,322.78c.38-.09.77.09,1.12.23.82.37,1.52,1.08,1.73,1.97.06.22-.03.5-.26.58-.32.1-.67.03-.96-.12-.85-.42-1.48-1.22-1.79-2.11-.06-.19-.08-.48.16-.55Z"/>
        <path class="cls-52" d="M271.75,324.17c.39-.21.83.04,1.2.21.69.32,1.22.96,1.38,1.7.08.31-.26.57-.55.5-.93-.12-1.6-.92-1.95-1.74-.07-.21-.24-.47-.08-.68Z"/>
        <path class="cls-32" d="M268.59,325.83c.55-.04,1.07.25,1.52.54.51.39,1.02.89,1.15,1.55.06.24-.07.54-.32.61-.39.07-.77-.1-1.08-.31-.66-.46-1.2-1.13-1.43-1.91-.06-.17-.05-.41.16-.48Z"/>
        <path class="cls-79" d="M261.3,325.92c.17-.11.37-.01.54.04.82.29,1.54.91,1.89,1.71.11.26.19.61-.03.83-.22.19-.55.09-.79,0-.82-.38-1.41-1.15-1.7-1.99-.06-.19-.13-.49.1-.6Z"/>
        <path class="cls-85" d="M282.31,327.58c-.55-.69-1.32-1.16-1.99-1.72-.7-.53-1.38-1.08-2.08-1.61,0,.85-.09,1.73-.52,2.48-.31.54-.75,1.07-1.38,1.23-.51.14-1.03.01-1.54-.08.15.8.05,1.67-.43,2.35-.26.38-.72.62-1.18.63-.43.03-.85-.11-1.26-.23.06.66.07,1.37-.26,1.97-.26.47-.73.85-1.27.92-.52.06-1-.16-1.47-.34-.13.45-.24.93-.57,1.28-.59.64-1.55.82-2.38.68-.43-.05-.83-.21-1.24-.31-.02,0-.06-.01-.08-.02h-.05c.71.74,1.51,1.4,2.26,2.1.59.51,1.16,1.06,1.8,1.52.49.32,1.09.58,1.68.4.55-.21.81-.83.83-1.38.48.44,1.02.82,1.6,1.12.57.3,1.27.44,1.88.21.68-.25,1.09-.93,1.21-1.62.11-.78-.03-1.58-.35-2.29.51.25,1.05.48,1.62.53.36-.15.73-.11,1.09,0,.38-.04.74-.22,1.05-.45.51-.37.78-.99.85-1.6.07-.97-.34-1.92-.91-2.68.75.14,1.53.18,2.27-.08h0c.59-.26,1.13-.74,1.27-1.39.15-.59-.1-1.2-.46-1.65Z"/>
        <path class="cls-73" d="M265.28,328.15c.27-.2.63-.06.91.02.93.35,1.85,1.04,2.09,2.06.09.27-.02.61-.3.7-.45.12-.9-.09-1.27-.33-.67-.42-1.11-1.11-1.41-1.82-.07-.2-.17-.45-.02-.64Z"/>
        <path class="cls-34" d="M250.82,330.7c.98-.2,1.95-.45,2.91-.74.02.93-.02,1.86.01,2.79.96.14,1.9.4,2.81.75.78.3,1.56.65,2.21,1.18.4.31.66.89.43,1.38-.19.52-.83.75-1.33.61-.91-.24-1.7-.8-2.6-1.07.42.57.95,1.11,1.1,1.84.14.47-.06,1.01-.46,1.29-.3.22-.7.21-1.05.14-.48-.13-.78-.55-1.08-.92-.56-.68-1.09-1.41-1.81-1.94-.42.29-.88.52-1.32.78-.42.24-.88.46-1.37.43-.43-.02-.88-.25-1.04-.67-.21-.47-.04-1.03.32-1.38.68-.66,1.48-1.17,2.24-1.74.17-.89-.01-1.81.04-2.72Z"/>
        <path class="cls-51" d="M234.72,330.37c.95.26,1.93.42,2.9.59.07.8-.07,1.61,0,2.42.74.51,1.48,1.03,2.17,1.62.24.21.45.47.53.79.16.52-.14,1.14-.65,1.33-.46.19-.97.08-1.4-.13-.61-.29-1.19-.63-1.76-.99-.74.6-1.34,1.35-1.93,2.09-.28.36-.62.74-1.09.82-.71.18-1.5-.44-1.43-1.18.08-.85.65-1.54,1.22-2.13-.87.27-1.66.74-2.51,1.05-.57.22-1.36-.06-1.52-.69-.19-.62.27-1.22.77-1.53,1.43-.89,3.06-1.4,4.71-1.67,0-.8,0-1.59,0-2.39Z"/>
        <path class="cls-107" d="M277.16,335.41c.36-.15.73-.11,1.09,0-.36.05-.73.06-1.09,0Z"/>
      </g>
      <g>
        <path class="cls-40" d="M292.15,195.74c0-15.51,0-31.02,0-46.53-.02-5.23.05-10.47,0-15.71,0-1.17-.1-2.33-.1-3.5-.11-1.65-.21-3.33-.62-4.94-.36-1.35-.98-2.65-1.96-3.62-.92-.92-2.09-1.51-3.29-1.89-1.84-.54-3.78-.6-5.66-.33-1.7.27-3.41.83-4.82,1.89-1.13.83-1.99,2.01-2.59,3.31-1.54,3.12-3.15,6.2-4.73,9.3-1.8,3.48-3.56,6.99-5.37,10.47-1.59,3.12-3.21,6.22-4.78,9.34-.11-.5-.04-1.01-.09-1.51-.11-1.23-.4-2.43-.81-3.58.8-.64,1.55-1.38,2.16-2.23,1.75-2.4,2.53-5.45,2.64-8.43.07-2.36-.11-4.75-.81-7-.21-.66-.47-1.33-.85-1.9-.16-.25-.39-.45-.66-.55-.5-.19-1.04,0-1.54.1-1.77.52-3.33,1.61-4.67,2.89-2.56,2.51-4.43,5.86-5.04,9.49-2.15-.57-4.42-.54-6.58-.03-.69-3.86-2.73-7.41-5.59-9.94-1.22-1.06-2.61-1.96-4.15-2.42-.53-.12-1.09-.3-1.62-.08-.44.2-.71.66-.92,1.09-.5,1.06-.81,2.22-1.02,3.38-.37,2.11-.46,4.27-.22,6.4.23,1.89.71,3.76,1.59,5.43.75,1.48,1.82,2.8,3.12,3.78-.64,1.54-.85,3.22-.87,4.89-1.27-2.49-2.55-4.99-3.84-7.47-3.7-7.23-7.5-14.4-11.2-21.63-.66-1.44-1.7-2.69-3-3.53-2.02-1.31-4.44-1.74-6.77-1.72-1.98.08-4,.49-5.7,1.58-1.44.92-2.51,2.44-2.98,4.14-.63,2.2-.67,4.51-.78,6.79,0,1.58-.1,3.16-.09,4.75,0,20.46,0,40.92,0,61.37-.03.58.06,1.16.07,1.75.09,1.48.55,3.04,1.65,4.05,1.21,1.15,2.93,1.48,4.51,1.34,1.55-.12,3.11-.9,3.95-2.32.83-1.43.91-3.16.91-4.78-.02-14.78,0-29.56-.01-44.34.01-.93,0-1.88.17-2.8.1-.58.39-1.18.93-1.42.65-.28,1.39-.13,2.02.13,1.31.54,2.39,1.53,3.41,2.54,2.41,2.49,4.44,5.35,6.4,8.24,3.96,5.91,7.53,12.09,10.99,18.33.58,1.14,1.27,2.22,1.79,3.39,1.2,2,2.21,4.19,3.86,5.84l.08-.02s-.07.14-.1.19c-1.1,1.02-1.99,2.3-2.58,3.71-.38.94-.69,1.98-.44,3,.1.47.51.87.99.83.45.02.83-.31,1.09-.66-.05.55.03,1.15.39,1.57.41.42,1.1.44,1.56.11.36-.27.59-.69.78-1.1.07.35.16.73.41.99.25.3.67.32,1.02.23.52-.22.85-.74,1.08-1.24.64-1.46.69-3.1.63-4.68.09.01.26.04.34.05.82.12,1.65.16,2.46-.01.08-.01.25-.03.34-.05-.06,1.3-.05,2.62.31,3.87.2.68.49,1.36,1.02,1.83.29.28.72.32,1.09.22.45-.19.68-.72.68-1.2.22.31.35.71.66.96.44.41,1.16.49,1.62.07.48-.41.54-1.11.44-1.71.2.26.41.52.71.64.39.19.9.09,1.17-.28.28-.34.31-.81.33-1.23-.05-1.1-.43-2.16-.95-3.11-.58-1.09-1.34-2.08-2.24-2.9.91-.94,1.69-2.03,2.35-3.18.57-.92,1.03-1.91,1.62-2.82.25-.57.56-1.12.84-1.68.54-.88.98-1.81,1.5-2.7,1.83-3.29,3.71-6.55,5.66-9.77,2.59-4.22,5.23-8.41,8.23-12.31,1.36-1.72,2.78-3.43,4.47-4.81.81-.64,1.72-1.2,2.73-1.39.47-.04.99-.07,1.39.23.48.35.65.99.73,1.57.17,1.51.12,3.04.13,4.56,0,8.98,0,17.97-.04,26.95,0,5.08,0,10.16-.02,15.23,0,1.71.06,3.53.97,5.02.87,1.42,2.49,2.15,4.06,2.22,1.71.13,3.59-.38,4.74-1.79.67-.82,1.02-1.88,1.16-2.94.2-1.41.12-2.84.13-4.26ZM237.35,158.97c-.38.24-.84.24-1.26.2-.59-.18-1.05-.69-1.27-1.28-.02-.59.24-1.18.74-1.48.85-.56,2.19-.18,2.52.85.26.66-.16,1.4-.73,1.71ZM255.47,158.28c-.3.49-.81.85-1.36.91-.64,0-1.34-.27-1.62-.91-.26-.48-.14-1.09.17-1.5.44-.53,1.18-.77,1.83-.56.46.12.83.46,1.05.89.14.38.14.82-.06,1.17Z"/>
        <path class="cls-21" d="M230.9,132.13c.2-.38.58-.68,1.01-.63.62.07,1.19.35,1.72.68,1.42.9,2.55,2.24,3.37,3.74.66,1.22,1.13,2.56,1.31,3.95.08.82.18,1.66.03,2.48-1.57.91-2.9,2.22-3.95,3.73-.23.31-.35.7-.62.99-.59-.56-1.11-1.19-1.59-1.85-2.04-3.06-2.71-7.01-2.07-10.66.17-.84.37-1.69.79-2.43Z"/>
        <path class="cls-21" d="M255.22,133.6c.9-.94,1.98-1.79,3.24-2.07.41-.11.83.11,1.06.46.63.95.82,2.11.99,3.23.38,3.36-.23,6.91-2.03,9.75-.52.77-1.09,1.51-1.79,2.11-1.01-1.84-2.45-3.42-4.19-4.52-.15-.1-.37-.19-.36-.42-.23-3.14.98-6.31,3.07-8.54Z"/>
        <path class="cls-33" d="M238.33,148.18c.33-.09.73-.11,1.01.13.2.15.23.5.05.68-.24.32-.68.13-1,.29-.34.08-.57.38-.81.62-.22.22-.68.03-.65-.31.07-.75.74-1.27,1.4-1.42Z"/>
        <path class="cls-129" d="M251.37,148.17c.44-.13.91-.03,1.29.22.41.23.83.58.89,1.1.04.27-.18.55-.45.46-.38-.16-.61-.57-1.02-.68-.33-.14-.75,0-1.01-.29-.25-.27-.03-.74.29-.82Z"/>
        <path class="cls-19" d="M238.62,151.59c1.13-.37,2.39.49,2.62,1.68.29,1.12-.32,2.4-1.36,2.8-.93.35-2.1-.02-2.57-.95-.74-1.25-.11-3.21,1.32-3.52Z"/>
        <path class="cls-86" d="M250.91,151.56c.72-.19,1.52.06,2.01.64.46.48.65,1.18.62,1.85-.01.76-.46,1.46-1.07,1.86-.65.39-1.49.38-2.15-.01-.83-.48-1.19-1.58-1.03-2.53.15-.86.8-1.62,1.62-1.81Z"/>
        <path class="cls-47" d="M238.54,152.19c.69-.09,1.18.93.65,1.43-.4.51-1.23.26-1.39-.35-.14-.51.26-1.02.73-1.08Z"/>
        <path class="cls-53" d="M250.65,152.2c.62-.18,1.24.64.9,1.23-.23.5-.93.63-1.29.21-.47-.43-.19-1.3.39-1.44Z"/>
        <path class="cls-134" d="M243.99,154.87c.38-.31.88-.09,1.25.13.23-.13.45-.34.73-.31.37-.02.74.3.74.7-.02.45-.35.79-.67,1.05-.26.19-.49.47-.81.55-.55-.21-1.01-.65-1.33-1.17-.19-.29-.23-.75.08-.96Z"/>
        <path class="cls-7" d="M235.56,156.41c.85-.56,2.19-.18,2.52.85.26.66-.16,1.4-.73,1.71-.38.24-.84.24-1.26.2-.59-.18-1.05-.69-1.27-1.28-.02-.59.24-1.18.74-1.48Z"/>
        <path class="cls-97" d="M252.65,156.78c.44-.53,1.18-.77,1.83-.56.46.12.83.46,1.05.89.14.38.14.82-.06,1.17-.3.49-.81.85-1.36.91-.64,0-1.34-.27-1.62-.91-.26-.48-.14-1.09.17-1.5Z"/>
        <path class="cls-44" d="M242.64,157.36c1.26.52,2.66.56,3.99.36.43-.04.82-.29,1.25-.34.04.64-.15,1.27-.4,1.84-.12.25-.23.52-.46.69-.24-.38-.64-.6-1.03-.75-.91-.35-1.98-.03-2.61.73-.45-.75-.81-1.63-.74-2.54Z"/>
        <path class="cls-102" d="M243.38,159.9c.63-.76,1.71-1.08,2.61-.73.39.15.79.37,1.03.75l.05.06c-.49.67-1.28,1.14-2.1,1.01-.66-.08-1.23-.52-1.59-1.09Z"/>
        <g>
          <path class="cls-138" d="M221.95,159.96c-1.96-2.89-3.99-5.74-6.4-8.24-1.01-1-2.09-1.99-3.41-2.54-.63-.26-1.37-.41-2.02-.13-.54.24-.83.84-.93,1.42-.16.92-.16,1.86-.17,2.8,0,14.78,0,29.56.01,44.34.49-1.96,1.06-3.91,1.92-5.73.75-1.63,1.69-3.2,2.95-4.46,1.09-1.11,2.51-1.97,4.05-2.07,1.34-.1,2.65.36,3.79,1.07-.02-.52-.02-1.03-.02-1.55.05-1.48.39-2.99,1.18-4.23.79-1.27,2.07-2.22,3.49-2.52,1.4-.32,2.89-.09,4.2.5,1.49.63,2.77,1.69,3.91,2.87.07.07.15.13.23.17-.52-1.17-1.21-2.25-1.79-3.39-3.46-6.24-7.03-12.42-10.99-18.33Z"/>
          <path class="cls-138" d="M281.02,150.75c-.08-.58-.24-1.22-.73-1.57-.4-.31-.92-.28-1.39-.23-1.01.18-1.92.75-2.73,1.39-1.69,1.38-3.1,3.09-4.47,4.81-3,3.91-5.65,8.09-8.23,12.31-1.95,3.22-3.83,6.48-5.66,9.77-.52.89-.96,1.82-1.5,2.7-.29.56-.59,1.1-.84,1.68.38-.22.63-.6.96-.89,1.34-1.24,2.94-2.25,4.71-2.61,1.56-.33,3.28-.08,4.59.9,1.17.83,1.97,2.15,2.37,3.55.34,1.25.42,2.57.3,3.87,1.08-.64,2.3-1.12,3.56-1.08,1.12.03,2.21.45,3.14,1.11,1.16.83,2.09,1.97,2.88,3.18,1.12,1.77,1.92,3.74,2.53,5.76.22.69.35,1.42.57,2.11.03-5.08.01-10.16.02-15.23.04-8.98.04-17.97.04-26.95,0-1.52.04-3.05-.13-4.56Z"/>
          <path class="cls-138" d="M248.75,166.19c-1.36-.89-3-1.27-4.59-1.04-1.56.19-3.03.98-4.14,2.13-1.33,1.32-2.2,3.08-2.71,4.9-.53,1.81-.71,3.73-.6,5.61.2,3.06,1.17,6.16,3.14,8.47,1.13,1.3,2.68,2.26,4.37,2.48,1.12.16,2.29,0,3.33-.48,1.18-.5,2.18-1.38,2.98-2.4.84-1.03,1.45-2.25,1.92-3.51.65-1.72.91-3.58.96-5.42-.02-2.5-.45-5.05-1.63-7.25-.7-1.41-1.74-2.65-3.03-3.5Z"/>
        </g>
      </g>
      <g>
        <path class="cls-4" d="M141.82,196.16c-2.46-2.42-4.64-5.11-6.58-7.95-.81-1.22-1.63-2.43-2.33-3.71-1.05-1.69-2.05-3.41-2.95-5.19-.68-1.32-1.29-2.68-1.87-4.05,1.16-5.05.43-8.45-.71-10.78-1.73-3.55-4.74-5.31-5.8-10.6-.56-2.8-.36-5.61-.31-6.44.11-1.78.38-3.58,1.09-5.22.7-1.66,1.78-3.17,3.15-4.35,1.03-.9,2.27-1.58,3.61-1.91.04.03.13.1.17.13-.08-.31-.2-.61-.29-.91-.97-3.4-1.93-6.84-3.46-10.04-.84-1.69-1.88-3.3-3.25-4.62-1.06-.98-2.27-1.83-3.6-2.41-1.49-.7-3.13-1.03-4.76-1.21.16-.59.54-1.08.94-1.53.14-.18.34-.43.19-.66-.13-.26-.47-.3-.72-.32-1.01,0-1.97.41-2.76,1.01-.46.34-.8.8-1.13,1.26-.03-.33-.02-.66-.05-.98-.07-.35-.49-.48-.8-.4-1.02.2-1.82,1.07-2.11,2.05-.05.18-.12.37-.33.41-2.33.81-4.39,2.34-5.87,4.31-1.1,1.39-1.9,3-2.59,4.62-1.22,3.02-2.15,6.16-3.03,9.3,1.58.33,3.01,1.21,4.17,2.31,1.32,1.27,2.35,2.85,2.94,4.58.7,1.93.87,3.99.93,6.03.02.74.06,3.46-.6,6.2-1.42,5.96-5,7.23-6.65,11.41-.82,2.09-1.23,5.08.11,9.34-.06.13-.11.26-.17.39-1.24,2.89-2.78,5.63-4.38,8.33-2.95,5.23-6.82,9.96-11.37,13.88-.85.72-1.73,1.42-2.7,1.97.66.34,1.21.84,1.9,1.13.81.34,1.66.63,2.53.78,2.51.48,5.19.34,7.54-.72.58-.61,1.1-1.27,1.5-2.01,1.45-2.48,2.44-5.18,3.44-7.86,1.35-3.75,2.44-7.59,3.57-11.41,3.87.73,8.63,1.31,14.08,1.31,5.41,0,10.14-.58,13.99-1.3,1.26,4.45,2.53,8.9,4.18,13.23.59,1.41,1.12,2.84,1.82,4.2.37.73.71,1.47,1.17,2.15.46.69.92,1.43,1.66,1.84,1.65.73,3.5.9,5.29.82,1.66-.06,3.29-.49,4.81-1.16.56-.26,1.06-.66,1.59-.98-1.93-1.14-3.55-2.72-5.17-4.25ZM117.62,173.44h-11.38c-2.86,0-4.87-2.81-3.95-5.52l5.69-16.66c1.29-3.77,6.61-3.77,7.9,0l5.69,16.66c.92,2.71-1.09,5.52-3.95,5.52Z"/>
        <path class="cls-99" d="M103.11,127.2c.27-.57.81-1.03,1.45-1.07.39-.04.79.08,1.04.39-.54,0-1.09.02-1.59.22-.32.11-.6.3-.9.46Z"/>
        <path class="cls-42" d="M120.75,126.52c.2-.25.52-.41.85-.4.68-.02,1.32.44,1.57,1.07-.7-.5-1.57-.71-2.42-.68Z"/>
        <path class="cls-65" d="M104.35,129.04c.64-.25,1.41-.09,1.91.38.87.75.96,2.23.18,3.08-.36.44-.92.72-1.5.7-.84.01-1.59-.65-1.83-1.43-.34-1.04.16-2.35,1.23-2.72Z"/>
        <path class="cls-110" d="M120.72,129.03c.73-.27,1.6,0,2.07.62.69.82.65,2.15-.09,2.92-.55.63-1.55.83-2.28.4-.84-.46-1.25-1.51-1.03-2.42.17-.67.64-1.31,1.32-1.52Z"/>
        <path class="cls-119" d="M105.08,129.57c.46-.18,1,.34.8.8-.12.36-.59.55-.91.34-.43-.24-.35-.97.11-1.13Z"/>
        <path class="cls-75" d="M121.36,129.59c.39-.19.89.16.87.59,0,.45-.57.79-.95.52-.42-.24-.35-.92.08-1.1Z"/>
        <path class="cls-25" d="M111.3,131.72c.64-.23,1.4-.19,1.97.21.42.26.66.7.99,1.06.61.61,1.48.99,2.36.88-.57.11-.92.63-1.23,1.08-.21.29-.3.77-.72.8-1.2-.24-2.47-.18-3.61-.68-.61-.26-1.13-.72-1.47-1.28.13-.12.27-.24.4-.36-.26.04-.51.09-.76.12-.3-.22-.59-.45-.88-.68.5-.36,1.15-.13,1.68-.42.45-.21.82-.58,1.29-.75Z"/>
        <path class="cls-95" d="M108.34,133.56c-.08-.22-.11-.45,0-.66.3.22.59.45.88.68-.14,0-.29,0-.43,0-.15,0-.31-.01-.46-.02Z"/>
        <path class="cls-117" d="M101.56,133.3c.62-.09,1.3-.08,1.84.27.54.27.92.91.7,1.51-.24.73-1.03,1.1-1.76,1.11-.74.11-1.55-.12-2.05-.7-.28-.32-.29-.78-.2-1.17.22-.6.85-.94,1.46-1.02Z"/>
        <path class="cls-6" d="M123.03,133.28c.76-.16,1.58.04,2.19.52.52.42.5,1.25.08,1.73-.51.6-1.37.72-2.11.66-.64-.05-1.32-.36-1.62-.96-.22-.5-.03-1.13.37-1.49.31-.27.71-.39,1.1-.46Z"/>
        <path class="cls-112" d="M109.22,133.57c.26-.03.51-.08.76-.12-.13.12-.27.24-.4.36.34.57.86,1.02,1.47,1.28,1.14.5,2.41.44,3.61.68.92.19,1.8.76,2.22,1.62-.3-.28-.56-.62-.94-.8-.37-.17-.78-.25-1.18-.34-1.17-.25-2.4-.16-3.53-.59-.48-.2-.95-.45-1.31-.82-.26-.26-.35-.63-.53-.94-.16-.16-.39-.24-.59-.33.14,0,.28,0,.43,0Z"/>
        <path class="cls-15" d="M108.34,133.56c.15,0,.31,0,.46.02.2.09.42.17.59.33.19.31.27.68.53.94.36.37.84.62,1.31.82,1.13.43,2.37.34,3.53.59.09.25.16.51.33.72.13.09.29.13.44.17-.47,0-.95-.02-1.41.11-.46.13-.91.28-1.39.3-1.39.11-2.84-.54-3.62-1.71-.24-.36-.36-.78-.41-1.2-.05-.38-.21-.73-.36-1.08Z"/>
        <path class="cls-109" d="M116.62,133.88c.52-.11,1.12.06,1.45.49.34.43.42,1.02.3,1.54-.06.25-.11.99-.68,1.47-.12.1-.45.37-.8.31-.18-.03-.25-.13-.49-.27-.19-.11-.47-.24-.87-.29-.15-.04-.31-.08-.44-.17-.17-.21-.24-.47-.33-.72.4.09.81.17,1.18.34.27.12.49.36.57.42.16.14.29.27.38.37-.06-.12-.15-.29-.29-.46-.05-.06-.26-.33-.63-.6-.48-.34-.97-.49-1.3-.56.42-.04.51-.51.72-.8.3-.45.66-.96,1.23-1.08Z"/>
        <path class="cls-56" d="M95.64,135.97c1.58.33,3.01,1.21,4.17,2.31,1.32,1.27,2.35,2.85,2.94,4.58.7,1.93.87,3.99.93,6.03.03,2.08-.22,4.16-.6,6.2-.63,3.41-1.6,6.75-2.61,10.07-.07.2-.13.41-.2.61-1.11,3.55-2.41,7.05-3.89,10.47-1.24,2.89-2.78,5.63-4.38,8.33-.06-.79-.06-1.58-.1-2.36-.89,1.08-1.78,2.2-2.94,3.01-.52.34-1.15.64-1.78.49-.47-.12-.71-.63-.73-1.08-.02-.58.05-1.16.06-1.75-1.01.95-2.08,1.86-3.33,2.48-.74.35-1.58.62-2.4.44-.5-.11-.86-.58-.89-1.08-.07-.86.12-1.71.29-2.55-1.12.66-2.27,1.32-3.56,1.58-.68.13-1.55.13-1.99-.5,0-.07,0-.13.03-.2.59-1.63,1.27-3.23,1.96-4.82,1.41-3.34,2.91-6.65,4.39-9.97,3.08-7.02,6.37-13.94,9.54-20.92.81-1.77,1.62-3.55,2.43-5.32.9-2.01,1.92-3.98,2.65-6.06Z"/>
        <path class="cls-151" d="M125.51,137.87c1.03-.9,2.27-1.58,3.61-1.91.04.03.13.1.17.13.23.75.59,1.45.91,2.17,2.72,5.9,5.45,11.79,8.12,17.71,1.64,3.65,3.25,7.3,4.87,10.96,2.17,4.85,4.38,9.68,6.42,14.59.25.57.51,1.14.7,1.74-.33.4-.86.58-1.37.54-1.54-.07-2.9-.88-4.21-1.63.19.89.38,1.8.26,2.71-.06.45-.45.8-.89.9-.72.16-1.47-.02-2.13-.32-1.37-.59-2.51-1.58-3.58-2.59.04.64.11,1.29.05,1.93-.04.47-.39.92-.88.93-.93.03-1.73-.55-2.38-1.15-.81-.7-1.47-1.56-2.16-2.37-.02.76-.06,1.53-.1,2.29-1.05-1.69-2.05-3.41-2.95-5.19-.92-1.78-1.71-3.63-2.47-5.49-1.03-2.63-2-5.28-2.86-7.97-.06-.24-.13-.48-.21-.71-1.13-3.7-2.2-7.43-2.84-11.25-.34-2.13-.47-4.29-.31-6.44.11-1.78.38-3.58,1.09-5.22.7-1.66,1.78-3.17,3.15-4.35Z"/>
        <path class="cls-35" d="M76.63,183.74c1.28-.26,2.44-.92,3.56-1.58-.17.84-.36,1.69-.29,2.55.03.5.4.97.89,1.08.82.18,1.66-.09,2.4-.44,1.25-.62,2.32-1.53,3.33-2.48-.01.58-.09,1.16-.06,1.75.02.45.26.96.73,1.08.63.15,1.26-.15,1.78-.49,1.16-.81,2.05-1.92,2.94-3.01.03.79.03,1.58.1,2.36-2.95,5.23-6.82,9.96-11.37,13.88-.85.72-1.73,1.42-2.7,1.97-1.18.4-2.48.62-3.71.31-.78-.17-1.46-.71-1.8-1.43-.39-.82-.52-1.73-.57-2.63-.07-1.42.09-2.84.3-4.25.49-3.14,1.48-6.16,2.49-9.16.45.63,1.31.63,1.99.5Z"/>
        <path class="cls-118" d="M144.72,182.18c1.3.75,2.67,1.56,4.21,1.63.51.04,1.04-.14,1.37-.54.5,1.63,1.08,3.25,1.53,4.9.57,2.05.99,4.15,1.18,6.27.09,1.36.14,2.74-.22,4.07-.22.79-.67,1.6-1.44,1.97-1.37.65-2.98.44-4.36-.05-1.93-1.14-3.55-2.72-5.17-4.25-2.46-2.42-4.64-5.11-6.58-7.95-.81-1.22-1.63-2.43-2.33-3.71.04-.76.07-1.53.1-2.29.7.81,1.35,1.67,2.16,2.37.65.61,1.45,1.18,2.38,1.15.49-.01.85-.47.88-.93.06-.64-.01-1.29-.05-1.93,1.07,1.01,2.21,2,3.58,2.59.66.3,1.41.49,2.13.32.44-.1.82-.45.89-.9.11-.91-.08-1.82-.26-2.71Z"/>
        <path class="cls-26" d="M140.59,202.55c1.66-.06,3.29-.49,4.81-1.16.5.6,1.1,1.12,1.6,1.71.54.64,1.14,1.26,1.48,2.05.25.54.34,1.2.04,1.74-.19.35-.59.55-.98.56-.68.06-1.33-.22-1.97-.4-.59-.18-1.28-.18-1.81.16-.59.36-.94.98-1.45,1.42-.48.46-1.15.72-1.81.66-.83-.03-1.54-.55-2.07-1.15-.46-.53-1-1.08-1.73-1.21-.67-.16-1.33.11-1.95.33-.5.17-1.08.3-1.57.04-.41-.2-.61-.68-.62-1.12-.02-.69.37-1.29.73-1.84.63-.9,1.3-1.77,2.01-2.62,1.65.73,3.5.9,5.29.82Z"/>
        <path class="cls-26" d="M79.82,201.53c.81.34,1.66.63,2.53.78,2.51.48,5.19.34,7.54-.72.68.94,1.42,1.82,2.07,2.78.34.53.7,1.09.71,1.73.02.48-.2,1.01-.66,1.23-.52.25-1.12.1-1.64-.09-.69-.23-1.45-.5-2.17-.22-1,.35-1.46,1.41-2.35,1.93-.59.37-1.33.46-1.99.27-.74-.23-1.25-.84-1.73-1.41-.4-.48-.97-.88-1.63-.87-.81-.06-1.52.43-2.31.5-.43.04-.93.05-1.26-.28-.41-.36-.45-.96-.34-1.46.19-.66.55-1.26.98-1.79.7-.84,1.45-1.63,2.24-2.38Z"/>
      </g>
    </g>
  </g>
</svg>