<?xml version="1.0" encoding="UTF-8"?>
<svg id="_图层_1" data-name="图层 1" xmlns="http://www.w3.org/2000/svg" xmlns:xlink="http://www.w3.org/1999/xlink" viewBox="0 0 363.91 453.33">
  <defs>
    <style>
      .cls-1 {
        fill: #1eaee5;
      }

      .cls-2 {
        fill: #1b84b6;
      }

      .cls-3 {
        fill: #6baae6;
      }

      .cls-4 {
        fill: #5381bc;
      }

      .cls-5 {
        stroke: #000;
        stroke-miterlimit: 10;
        stroke-width: .1px;
      }

      .cls-5, .cls-6 {
        fill: none;
      }

      .cls-7 {
        fill: #2a2a2b;
      }

      .cls-8 {
        fill: #5fa9f8;
      }

      .cls-9 {
        letter-spacing: .07em;
      }

      .cls-10 {
        fill: #6891c7;
      }

      .cls-11 {
        fill: #2e9dc9;
      }

      .cls-12 {
        fill: #1d85b7;
      }

      .cls-13 {
        fill: #fcbdbd;
      }

      .cls-14 {
        fill: #e6b583;
      }

      .cls-15 {
        fill: #31a2cf;
      }

      .cls-16 {
        fill: #bbd6e9;
      }

      .cls-17 {
        filter: url(#drop-shadow-2);
      }

      .cls-18 {
        fill: #40aacf;
      }

      .cls-19 {
        fill: #f2c28e;
      }

      .cls-20 {
        fill: #bcdbf7;
      }

      .cls-21 {
        fill: #3a250e;
      }

      .cls-22 {
        fill: #fcfcfc;
      }

      .cls-23 {
        fill: #517fba;
      }

      .cls-24 {
        fill: #60cfc2;
      }

      .cls-25 {
        fill: #1c3350;
      }

      .cls-26 {
        fill: #e0eaf6;
      }

      .cls-27 {
        fill: #fede90;
      }

      .cls-28 {
        fill: #2a1d16;
      }

      .cls-29 {
        fill: #41a9cf;
      }

      .cls-30 {
        fill: #a6c9e4;
      }

      .cls-31 {
        fill: #44a7ce;
      }

      .cls-32 {
        fill: #42a5cd;
      }

      .cls-33 {
        fill: #e3b080;
      }

      .cls-34 {
        fill: #f1c08b;
      }

      .cls-35 {
        fill: #7bb9f7;
      }

      .cls-36 {
        fill: #6cb2ed;
      }

      .cls-37 {
        fill: #241711;
      }

      .cls-38 {
        fill: #fff;
      }

      .cls-39 {
        fill: #e7b788;
      }

      .cls-40 {
        fill: #63c6dd;
      }

      .cls-41 {
        fill: #070809;
      }

      .cls-42 {
        fill: #2a1b18;
      }

      .cls-43 {
        fill: #75afe9;
      }

      .cls-44 {
        fill: #182b43;
      }

      .cls-45 {
        fill: #ff5d37;
      }

      .cls-46 {
        fill: #f9fafc;
      }

      .cls-47 {
        fill: #ee9235;
      }

      .cls-48 {
        fill: #5a86c0;
      }

      .cls-49 {
        fill: #eea332;
      }

      .cls-50 {
        fill: #86bff9;
      }

      .cls-51 {
        fill: #e1b07d;
      }

      .cls-52 {
        fill: #40aad0;
      }

      .cls-53 {
        fill: #a1dcd6;
      }

      .cls-54 {
        fill: #aacce5;
      }

      .cls-55 {
        fill: #43abd0;
      }

      .cls-56 {
        fill: #bdd8eb;
      }

      .cls-57 {
        fill: #e0eaf7;
      }

      .cls-58 {
        letter-spacing: .1em;
      }

      .cls-59 {
        fill: #46aad0;
      }

      .cls-60 {
        fill: #76a9d9;
      }

      .cls-61 {
        fill: #1d86b7;
      }

      .cls-62 {
        fill: #7c9db8;
      }

      .cls-63 {
        fill: #f0bf8b;
      }

      .cls-64 {
        fill: #66cbe0;
      }

      .cls-65 {
        fill: #f6b746;
      }

      .cls-66 {
        fill: #77b0ea;
      }

      .cls-67 {
        fill: #1796c6;
      }

      .cls-68 {
        fill: #e4b383;
      }

      .cls-69 {
        fill: #31a0c7;
      }

      .cls-70 {
        fill: #42aacf;
      }

      .cls-71 {
        fill: #fbfbfb;
      }

      .cls-72 {
        fill: #e7b786;
      }

      .cls-73 {
        fill: #364350;
      }

      .cls-74 {
        fill: #c1dffd;
      }

      .cls-75 {
        letter-spacing: .1em;
      }

      .cls-76 {
        fill: #e1ecf6;
      }

      .cls-77 {
        fill: #597993;
      }

      .cls-78 {
        fill: #44a7cd;
      }

      .cls-79 {
        fill: #fafbfb;
      }

      .cls-80 {
        fill: #63abf8;
      }

      .cls-81 {
        letter-spacing: .1em;
      }

      .cls-82 {
        fill: #b7d4e9;
      }

      .cls-83 {
        fill: #241710;
      }

      .cls-84 {
        fill: #85bff9;
      }

      .cls-85 {
        fill: #fab8c1;
      }

      .cls-86 {
        fill: #b4dbc7;
      }

      .cls-87 {
        fill: #f1c08c;
      }

      .cls-88 {
        fill: #e5b280;
      }

      .cls-89 {
        fill: #152a47;
      }

      .cls-90 {
        fill: #bcddfd;
      }

      .cls-91 {
        fill: #fef7e6;
      }

      .cls-92 {
        fill: #e5b382;
      }

      .cls-93 {
        fill: #a8cae4;
      }

      .cls-94 {
        fill: #7cb9f7;
      }

      .cls-95 {
        fill: #1b83b6;
      }

      .cls-96 {
        fill: #7bb9f3;
      }

      .cls-97 {
        fill: #45a7ce;
      }

      .cls-98 {
        fill: #51331b;
      }

      .cls-99 {
        fill: #577892;
      }

      .cls-100 {
        fill: #5f839f;
      }

      .cls-101 {
        fill: #fecc50;
      }

      .cls-102 {
        fill: #5a86bf;
      }

      .cls-103 {
        fill: #52341c;
      }

      .cls-104 {
        fill: #ed9437;
      }

      .cls-105 {
        fill: #b57e4e;
      }

      .cls-106 {
        fill: #d7e7f4;
      }

      .cls-107 {
        fill: #eea334;
      }

      .cls-108 {
        fill: #46a9cf;
      }

      .cls-109 {
        fill: #a0dbd5;
      }

      .cls-110 {
        fill: #192d46;
      }

      .cls-111 {
        fill: #5591c6;
      }

      .cls-112 {
        fill: #e5d686;
      }

      .cls-113 {
        fill: #f8f8fa;
      }

      .cls-114 {
        fill: #5793c7;
      }

      .cls-115 {
        fill: #eea233;
      }

      .cls-116 {
        fill: #fee6c9;
      }

      .cls-117 {
        fill: #5c88c1;
      }

      .cls-118 {
        fill: #020100;
      }

      .cls-119 {
        fill: #587791;
      }

      .cls-120 {
        fill: #f2c08b;
      }

      .cls-121 {
        fill: #76a8d8;
      }

      .cls-122 {
        fill: #fedd8f;
      }

      .cls-123 {
        fill: #86c0f9;
      }

      .cls-124 {
        fill: #f8efe0;
      }

      .cls-125 {
        fill: #43a6cd;
      }

      .cls-126 {
        fill: #010100;
      }

      .cls-127 {
        fill: #727272;
      }

      .cls-128 {
        fill: #fdfdfe;
      }

      .cls-129 {
        fill: #60d0e3;
      }

      .cls-130 {
        fill: #61aaf8;
      }

      .cls-131 {
        fill: #e6d786;
      }

      .cls-132 {
        fill: #f9fbfd;
      }

      .cls-133 {
        fill: #fecd52;
      }

      .cls-134 {
        fill: #9edad4;
      }

      .cls-135 {
        fill: #3a2419;
      }

      .cls-136 {
        letter-spacing: .1em;
      }

      .cls-137 {
        fill: #f78e91;
      }

      .cls-138 {
        fill: #43a6cc;
      }

      .cls-139 {
        fill: #e1ebf7;
      }

      .cls-140 {
        fill: #fdbebf;
      }

      .cls-141 {
        fill: #f8a094;
      }

      .cls-142 {
        font-family: Nunito-ExtraLight, Nunito;
        font-size: 6.44px;
        font-variation-settings: 'wght' 200;
        font-weight: 200;
      }

      .cls-142, .cls-143, .cls-144 {
        fill: #8a6a4a;
      }

      .cls-143 {
        font-size: 2.53px;
      }

      .cls-143, .cls-144, .cls-145 {
        font-family: Fredoka-Bold, Fredoka;
        font-weight: 700;
      }

      .cls-146 {
        fill: #1d85b6;
      }

      .cls-147 {
        fill: #8dbce8;
      }

      .cls-148 {
        fill: #332319;
      }

      .cls-149 {
        fill: #fede91;
      }

      .cls-150 {
        fill: #c8e5f9;
      }

      .cls-151 {
        fill: #351f15;
      }

      .cls-152 {
        fill: #39230a;
      }

      .cls-153 {
        fill: #060708;
      }

      .cls-154 {
        fill: #d1e2f2;
      }

      .cls-155 {
        fill: #5c88c0;
      }

      .cls-156 {
        fill: #47a7cd;
      }

      .cls-157 {
        fill: #fab9c2;
      }

      .cls-158 {
        fill: #e0e4af;
      }

      .cls-159 {
        fill: #67a8e6;
      }

      .cls-160 {
        fill: #b4d9fd;
      }

      .cls-161 {
        letter-spacing: .1em;
      }

      .cls-162 {
        fill: #ffe929;
      }

      .cls-163 {
        fill: #fbfbfc;
      }

      .cls-164 {
        fill: #fefdfe;
      }

      .cls-144 {
        font-size: 10.81px;
      }

      .cls-165 {
        fill: #bfd9ef;
      }

      .cls-166 {
        fill: #fefefe;
      }

      .cls-167 {
        fill: #2d1e14;
      }

      .cls-168 {
        fill: #5ad0c7;
      }

      .cls-169 {
        fill: #79cadf;
      }

      .cls-170 {
        fill: #f1c089;
      }

      .cls-171 {
        fill: #56361d;
      }

      .cls-172 {
        fill: url(#linear-gradient);
      }

      .cls-173 {
        fill: #17283e;
      }

      .cls-145 {
        fill: #3fa9f5;
        font-size: 181.33px;
        opacity: .21;
      }

      .cls-174 {
        fill: #ed9236;
      }

      .cls-175 {
        fill: #dde9f4;
      }

      .cls-176 {
        fill: #060909;
      }

      .cls-177 {
        clip-path: url(#clippath);
      }

      .cls-178 {
        fill: #fdfefe;
      }

      .cls-179 {
        fill: #261914;
      }

      .cls-180 {
        fill: #fcfdfd;
      }

      .cls-181 {
        fill: #42abd0;
      }

      .cls-182 {
        fill: #bcd8ea;
      }

      .cls-183 {
        fill: #a7cae4;
      }

      .cls-184 {
        fill: #accde6;
      }

      .cls-185 {
        fill: #fdfdfd;
      }

      .cls-186 {
        letter-spacing: .1em;
      }

      .cls-187 {
        fill: #95c9fa;
      }

      .cls-188 {
        fill: #1e94c4;
      }

      .cls-189 {
        fill: #f8cb54;
      }
    </style>
    <filter id="drop-shadow-2" x="39.28" y="39.77" width="299.52" height="387.84" filterUnits="userSpaceOnUse">
      <feOffset dx="7" dy="7"/>
      <feGaussianBlur result="blur" stdDeviation="5"/>
      <feFlood flood-color="#937b65" flood-opacity=".51"/>
      <feComposite in2="blur" operator="in"/>
      <feComposite in="SourceGraphic"/>
    </filter>
    <clipPath id="clippath">
      <circle class="cls-6" cx="72.33" cy="69.8" r="11.76"/>
    </clipPath>
    <linearGradient id="linear-gradient" x1="79.26" y1="60.18" x2="62.48" y2="83.44" gradientUnits="userSpaceOnUse">
      <stop offset="0" stop-color="#92469c"/>
      <stop offset=".07" stop-color="#944395"/>
      <stop offset=".18" stop-color="#9c3e82"/>
      <stop offset=".3" stop-color="#a83464"/>
      <stop offset=".43" stop-color="#b8293f"/>
      <stop offset=".8" stop-color="#e3a137"/>
      <stop offset="1" stop-color="#f0db40"/>
    </linearGradient>
  </defs>
  <g class="cls-17">
    <g>
      <rect class="cls-38" x="47.3" y="47.88" width="269.31" height="357.57" rx="30" ry="30"/>
      <line class="cls-5" x1="47.3" y1="93.01" x2="316.61" y2="93.01"/>
      <line class="cls-5" x1="47.3" y1="364.56" x2="316.61" y2="364.56"/>
      <text class="cls-144" transform="translate(91.16 69.58)"><tspan x="0" y="0" xml:space="preserve">ABC  ZOO</tspan></text>
      <text class="cls-142" transform="translate(91.75 79.95)"><tspan class="cls-58" x="0" y="0">Animal </tspan><tspan class="cls-75" x="26.11" y="0">L</tspan><tspan class="cls-81" x="30.11" y="0">e</tspan><tspan class="cls-161" x="34.13" y="0">t</tspan><tspan class="cls-75" x="36.84" y="0">t</tspan><tspan class="cls-136" x="39.51" y="0">er </tspan><tspan class="cls-9" x="48.5" y="0">C</tspan><tspan class="cls-136" x="53.21" y="0">ol</tspan><tspan class="cls-75" x="59.74" y="0">l</tspan><tspan class="cls-136" x="62.12" y="0">e</tspan><tspan class="cls-186" x="66.13" y="0">c</tspan><tspan class="cls-58" x="69.7" y="0">tion</tspan></text>
      <g>
        <g>
          <path class="cls-45" d="M74.42,379.02c.68,0,1.36.2,1.96.59,1.93,1.25,2.58,4.03,1.46,6.2-1,1.94-5.53,5.53-6.89,6.58-.06.05-.13.06-.17.06s-.11-.01-.17-.06c-1.37-1.06-5.9-4.65-6.89-6.58-1.12-2.17-.46-4.95,1.46-6.2.6-.39,1.28-.59,1.96-.59,1.2,0,2.33.61,3.08,1.66l.55.77.55-.77c.76-1.06,1.88-1.66,3.09-1.66M74.42,378.3c-1.38,0-2.74.69-3.64,1.95-.9-1.26-2.25-1.95-3.64-1.95-.79,0-1.59.23-2.32.7-2.23,1.44-3,4.64-1.71,7.14,1.05,2.04,5.49,5.58,7.09,6.82.17.13.38.2.58.2s.41-.07.58-.2c1.6-1.24,6.04-4.78,7.09-6.82,1.29-2.5.52-5.7-1.71-7.14-.73-.47-1.53-.7-2.32-.7h0Z"/>
          <path class="cls-45" d="M70.78,393.47c-.28,0-.54-.09-.77-.26-1.8-1.39-6.11-4.86-7.17-6.92-1.36-2.63-.54-6.01,1.81-7.54.76-.49,1.62-.75,2.49-.75,1.4,0,2.7.64,3.64,1.76.94-1.12,2.24-1.76,3.64-1.76.87,0,1.73.26,2.49.75,2.36,1.52,3.17,4.91,1.81,7.54-1.06,2.06-5.37,5.53-7.17,6.92-.22.17-.49.26-.77.26Z"/>
          <path class="cls-45" d="M67.14,378.6c-.76,0-1.5.22-2.16.65-2.1,1.36-2.82,4.39-1.6,6.75,1.04,2.01,5.62,5.65,7.01,6.72.23.18.56.18.79,0,1.38-1.07,5.97-4.71,7.01-6.72,1.22-2.36.5-5.39-1.6-6.75-.66-.43-1.41-.65-2.16-.65-1.32,0-2.56.66-3.39,1.83l-.25.34-.25-.34c-.83-1.16-2.07-1.83-3.39-1.83Z"/>
          <path class="cls-45" d="M70.78,392.75c-.09,0-.22-.02-.35-.12-1.38-1.07-5.95-4.7-6.98-6.69-1.19-2.31-.48-5.26,1.57-6.59.65-.42,1.38-.64,2.12-.64,1.3,0,2.51.65,3.33,1.79l.31.43.31-.43c.82-1.14,2.03-1.79,3.33-1.79.74,0,1.48.22,2.12.64,2.05,1.33,2.76,4.29,1.57,6.59-1.03,1.99-5.6,5.62-6.98,6.69-.1.08-.23.12-.35.12Z"/>
          <path class="cls-45" d="M67.14,379.32c-.62,0-1.24.19-1.79.54-1.8,1.16-2.41,3.77-1.36,5.81.97,1.88,5.46,5.44,6.81,6.48,1.32-1.04,5.81-4.6,6.78-6.48,1.05-2.04.44-4.64-1.36-5.81-.55-.35-1.17-.54-1.79-.54-1.1,0-2.14.56-2.84,1.54l-.8,1.12-.8-1.12c-.7-.98-1.74-1.54-2.84-1.54Z"/>
        </g>
        <g>
          <path class="cls-7" d="M98.43,379.17h0c.6,0,1.21.08,1.81.24,2.24.6,3.98,2.38,4.54,4.64.39,1.59.23,3.18-.47,4.6-.16.32-.2.68-.11,1.02l.62,2.3-2.21-.59c-.12-.03-.24-.05-.36-.05-.24,0-.48.06-.7.18-.97.53-2.01.79-3.11.79-.54,0-1.08-.07-1.62-.2-2-.49-4.2-2.64-4.71-4.61-.53-2.05-.11-4.16,1.14-5.78,1.25-1.62,3.14-2.55,5.19-2.55M98.43,378.47c-4.63,0-8.25,4.35-7,9.2.58,2.24,2.97,4.56,5.21,5.11.61.15,1.2.22,1.78.22,1.25,0,2.41-.32,3.44-.88.11-.06.24-.1.37-.1.06,0,.12,0,.19.02l3.06.82s.03,0,.05,0c.12,0,.21-.11.18-.23l-.84-3.15c-.05-.18-.02-.37.06-.53.73-1.48.98-3.24.53-5.08-.62-2.49-2.56-4.49-5.03-5.15-.67-.18-1.34-.26-1.99-.26h0Z"/>
          <path class="cls-7" d="M98.43,393.3c-.62,0-1.24-.08-1.86-.23-2.35-.57-4.84-3.01-5.43-5.33-.61-2.35-.12-4.78,1.32-6.65,1.44-1.86,3.62-2.93,5.96-2.93h0c.69,0,1.38.09,2.07.27,2.59.69,4.6,2.75,5.25,5.37.45,1.83.26,3.65-.55,5.29-.05.11-.07.21-.04.32l.84,3.15c.04.15,0,.3-.08.42-.09.12-.24.19-.39.19l-.13-.02-3.05-.82c-.11-.03-.23-.01-.33.04-1.1.6-2.34.91-3.58.91ZM105.41,392.72h0s0,0,0,0ZM98.43,378.78c-2.16,0-4.16.98-5.48,2.69-1.33,1.72-1.78,3.95-1.22,6.12.55,2.12,2.83,4.36,4.99,4.89,1.73.42,3.48.2,5-.63.24-.13.52-.17.78-.1l2.86.77-.79-2.95c-.07-.24-.04-.51.08-.74.75-1.5.92-3.19.5-4.87-.59-2.4-2.44-4.29-4.81-4.93-.63-.17-1.27-.25-1.91-.25h0ZM98.43,392.61c-.56,0-1.13-.07-1.69-.21-2.09-.51-4.4-2.77-4.93-4.83-.55-2.14-.12-4.34,1.2-6.04,1.69-2.19,4.54-3.15,7.31-2.42,2.35.63,4.17,2.49,4.75,4.87.41,1.66.24,3.33-.5,4.81-.13.25-.16.54-.09.8l.75,2.81-2.72-.73c-.27-.07-.58-.03-.84.11-1.01.55-2.11.83-3.25.83ZM98.43,379.47c-1.95,0-3.75.89-4.95,2.43-1.2,1.55-1.59,3.56-1.09,5.52.48,1.87,2.58,3.93,4.48,4.39,1.58.38,3.13.18,4.51-.57.4-.21.87-.27,1.28-.16l1.71.46-.48-1.79c-.11-.41-.06-.84.13-1.23.67-1.35.83-2.87.45-4.4-.53-2.16-2.19-3.86-4.32-4.43-.58-.15-1.16-.23-1.73-.23h0Z"/>
        </g>
        <g>
          <path class="cls-7" d="M125.97,393.68s-.06,0-.09,0c-.22-.04-.38-.2-.42-.42l-1.49-8.18-6.02-5.12c-.17-.14-.23-.37-.15-.57.07-.2.27-.34.49-.34h15.39c.18,0,.36.1.45.26.09.16.09.36,0,.52l-7.69,13.6c-.09.16-.27.26-.45.26ZM119.69,380.08l5.09,4.33c.09.08.15.18.17.3l1.27,6.95,6.55-11.58h-13.09Z"/>
          <path class="cls-7" d="M124.45,385.33c-.18,0-.36-.09-.45-.26-.14-.25-.05-.57.19-.71l9.22-5.24c.25-.14.57-.05.71.19.14.25.05.57-.19.71l-9.22,5.24c-.08.05-.17.07-.26.07Z"/>
        </g>
        <path class="cls-162" d="M301.61,392.96c-.12,0-.25-.04-.34-.13l-5.04-4.41-5.04,4.41c-.15.13-.37.17-.56.08-.18-.08-.3-.27-.3-.47v-13.01c0-.29.23-.52.52-.52h10.76c.29,0,.52.23.52.52v13.01c0,.2-.12.39-.3.47-.07.03-.14.05-.21.05Z"/>
        <path class="cls-162" d="M296.23,387.21c.12,0,.24.04.34.13l4.52,3.96v-11.35h-9.72v11.35l4.52-3.96c.1-.09.22-.13.34-.13Z"/>
      </g>
      <g>
        <text class="cls-143" transform="translate(74.87 62.61)"><tspan x="0" y="0" xml:space="preserve">ABC  </tspan><tspan x="0" y="3.03">ZOO</tspan></text>
        <g class="cls-177">
          <g>
            <path class="cls-105" d="M68.94,65.98c.24-1.02,1.2-1.85,2.27-1.83.67-.03,1.33.3,1.77.8.33.37.53.85.64,1.33,1.01-.13,2.03-.18,3.05-.16.85,0,1.7.09,2.54.22.33.05.65.14.98.19.11-.42.29-.82.55-1.15.46-.61,1.24-.96,2-.89,1.03.08,1.91.96,2.04,1.97.11.72-.13,1.47-.6,2.02-.15.18-.33.33-.51.48.3.5.53,1.04.66,1.61.24,1,.25,2.06,0,3.05-.25,1.05-.86,2.01-1.7,2.69-.07.05-.12.11-.17.18.24.15.5.26.73.43.97.66,1.62,1.71,1.9,2.84.24.91.29,1.86.18,2.79-.12,1.17-.58,2.31-1.37,3.19-.67.75-1.56,1.26-2.51,1.56-1.29.41-2.65.52-4,.56-1.14.05-2.28.02-3.42-.02-.94-.05-1.89-.08-2.8-.31-.46-.12-.93-.35-1.21-.75-.26-.35-.36-.78-.41-1.21-.08-.87-.05-1.75-.05-2.62,0-.5,0-1,0-1.5,0-.12-.16-.12-.23-.17-1.04-.48-2.01-1.13-2.79-1.98-.52-.57-.94-1.22-1.22-1.93-.24-.63-.38-1.31-.29-1.99.07-.48.27-.94.6-1.29.35-.37.83-.61,1.33-.66.62-.09,1.27.18,1.67.66.44.54.69,1.21.96,1.84.01-.11.03-.22.02-.33-.03-.43,0-.87-.01-1.3,0-1.05-.02-2.1,0-3.15.02-.83.01-1.7.37-2.48-.19-.17-.38-.35-.53-.56-.45-.6-.63-1.39-.46-2.12ZM70.43,65.75c-.24.24-.37.59-.37.92,0,.41.14.81.42,1.11.5-.52,1.11-.92,1.79-1.16.11-.05.23-.07.32-.14-.16-.62-.77-1.12-1.42-1.07-.28.01-.55.14-.74.34ZM81.8,65.9c-.34.22-.58.56-.71.93.16.08.32.15.48.23.55.29,1.05.67,1.5,1.1.33-.34.55-.81.53-1.3,0-.38-.2-.75-.52-.97-.38-.24-.89-.23-1.28,0ZM73.63,70.34c-.24.07-.36.32-.41.54-.04.29-.04.61.14.85.15.21.47.28.68.13.2-.14.28-.39.31-.62.02-.27-.04-.57-.22-.78-.12-.14-.32-.19-.5-.14ZM79.82,70.34c-.21.07-.32.28-.38.49-.08.31-.04.65.14.91.19.27.64.26.82-.02.23-.36.22-.86-.02-1.21-.12-.17-.36-.25-.56-.17ZM76.41,70.77c-.52.08-.99.39-1.28.83-.38.6-.51,1.36-.34,2.05.11.46.41.87.83,1.09.59.31,1.28.34,1.92.21.5-.1.99-.39,1.24-.84.27-.45.3-1.01.22-1.52-.1-.65-.45-1.3-1.04-1.62-.48-.24-1.04-.3-1.56-.2ZM81.06,72.19c-.21.03-.42.12-.53.31-.12.2-.06.49.14.62.25.16.56.17.84.11.2-.04.39-.17.47-.36.06-.19-.01-.42-.17-.54-.21-.15-.49-.18-.74-.14ZM72.22,72.23c-.24.06-.46.28-.42.55.01.25.25.43.48.46.24.04.51.04.74-.07.17-.08.32-.27.3-.47,0-.17-.11-.32-.25-.4-.25-.15-.57-.15-.84-.08ZM67.71,74.33c-.34.11-.32.63-.05.8.13.07.32.04.42-.08.12-.15.14-.37.04-.54-.07-.14-.26-.24-.42-.18ZM66.6,74.37c-.14.03-.22.16-.25.29-.05.26.14.58.43.58.23,0,.37-.26.32-.47-.02-.24-.25-.47-.5-.41ZM65.72,75.22c-.08.05-.14.13-.17.22-.1.27.17.62.46.56.19-.03.32-.22.29-.41-.03-.26-.32-.51-.58-.37ZM67.29,75.45c-.18.02-.35.11-.5.23-.38.27-.53.81-.34,1.23.16.37.58.58.97.54.43-.04.86-.32.98-.75.11-.35.02-.75-.25-1-.22-.23-.57-.29-.87-.25ZM75.91,78.27c-.16.02-.32.03-.46.11-.13.08-.14.26-.16.4-.03.53-.02,1.05-.03,1.58,0,.78-.02,1.56.02,2.34,0,.15.05.34.22.39.33.09.67.1,1,.12.7.02,1.41,0,2.07-.26.55-.22,1.02-.65,1.25-1.19.31-.72.27-1.58-.11-2.27-.25-.44-.67-.78-1.14-.97-.84-.35-1.77-.34-2.66-.25ZM71.05,80.17c-.04.24-.03.49-.03.73,0,.07,0,.15.04.21.06.03.11-.02.15-.04-.07-.3-.04-.6,0-.9.02-.07-.03-.12-.07-.17-.04.05-.09.1-.1.17ZM72.07,81.27c-.06.31-.04.63,0,.95,0,.07.08.11.14.07.04-.22-.03-.44-.01-.67,0-.13.05-.27-.02-.39-.03,0-.08.03-.1.04ZM70.68,82.14c-.06.14-.04.3-.05.45,0,.21-.02.43.07.63.05-.03.14-.05.11-.13-.02-.3-.03-.59,0-.89.02-.08-.1-.14-.14-.06ZM71.52,83.41c-.06.02-.06.08-.07.14-.02.24,0,.49.04.73.01.06.02.13.07.18.05,0,.12-.02.12-.08,0-.16-.05-.32-.06-.49-.02-.14,0-.28,0-.43,0-.06-.06-.08-.11-.06ZM72.65,83.62c-.09.17-.03.36-.02.53.03.17.04.36.17.48.03-.05.08-.09.06-.15-.06-.28-.1-.56-.12-.84-.02,0-.07-.02-.1-.03ZM70.73,84.85c-.02.15,0,.31,0,.46.03.17.04.36.15.51.03,0,.08-.03.11-.04-.08-.33-.13-.66-.13-1-.05,0-.13-.01-.14.06ZM72.14,85.25c-.06.02-.06.12-.06.17.03.22.08.44.16.65.02.08.16.1.16,0-.05-.22-.13-.43-.15-.66-.01-.06-.02-.2-.12-.17ZM73.44,85.4c.05.27.14.55.26.79.05.08.13,0,.18-.02-.08-.16-.16-.32-.2-.49-.03-.1-.04-.21-.09-.3-.05-.03-.1,0-.15.02Z"/>
            <path class="cls-63" d="M70.43,65.75c.19-.2.46-.33.74-.34.65-.05,1.26.45,1.42,1.07-.09.08-.21.1-.32.14-.68.24-1.29.64-1.79,1.16-.27-.3-.42-.71-.42-1.11,0-.34.12-.69.37-.92Z"/>
            <path class="cls-87" d="M81.8,65.9c.38-.24.9-.24,1.28,0,.32.21.51.59.52.97.02.48-.19.95-.53,1.3-.45-.43-.95-.81-1.5-1.1-.16-.08-.32-.15-.48-.23.13-.38.37-.72.71-.93Z"/>
            <path class="cls-103" d="M73.63,70.34c.17-.05.38,0,.5.14.19.21.24.51.22.78-.02.23-.11.48-.31.62-.21.15-.53.08-.68-.13-.18-.24-.18-.57-.14-.85.05-.22.17-.47.41-.54Z"/>
            <path class="cls-98" d="M79.82,70.34c.2-.08.44,0,.56.17.24.35.25.85.02,1.21-.18.28-.63.29-.82.02-.18-.27-.22-.61-.14-.91.06-.2.17-.41.38-.49Z"/>
            <path class="cls-116" d="M76.41,70.77c.52-.1,1.08-.04,1.56.2.59.32.95.97,1.04,1.62.08.51.05,1.07-.22,1.52-.26.45-.74.75-1.24.84-.64.12-1.34.09-1.92-.21-.42-.21-.73-.63-.83-1.09-.17-.69-.04-1.45.34-2.05.28-.44.76-.75,1.28-.83ZM76.53,71.36c-.19.03-.39.08-.52.24-.15.18-.13.46,0,.64.17.24.46.34.73.41,0,.24.01.48,0,.71-.08.2-.34.28-.52.18-.15-.07-.2-.24-.32-.33-.05.04-.11.09-.14.15.06.13.13.27.26.35.26.19.66.16.87-.1.16.19.43.28.67.2.23-.06.47-.28.44-.54-.06-.01-.11-.05-.17-.03-.08.09-.13.21-.24.28-.18.13-.48.05-.56-.16-.02-.24,0-.48,0-.73.24-.04.48-.13.65-.3.15-.14.25-.37.18-.57-.06-.18-.23-.31-.41-.35-.3-.07-.61-.08-.91-.04Z"/>
            <path class="cls-171" d="M76.53,71.36c.3-.04.61-.03.91.04.18.05.35.17.41.35.07.21-.03.43-.18.57-.17.17-.41.26-.65.3,0,.24-.01.49,0,.73.08.21.38.29.56.16.11-.07.16-.19.24-.28.06-.02.11.02.17.03.03.26-.21.47-.44.54-.24.08-.51-.01-.67-.2-.21.26-.61.29-.87.1-.12-.08-.2-.22-.26-.35.04-.06.09-.1.14-.15.12.1.18.26.32.33.18.1.45.02.52-.18.02-.24,0-.47,0-.71-.27-.07-.56-.18-.73-.41-.14-.18-.16-.46,0-.64.13-.15.33-.2.52-.24Z"/>
            <path class="cls-13" d="M81.06,72.19c.25-.04.53-.01.74.14.16.12.24.34.17.54-.07.19-.27.32-.47.36-.28.06-.59.04-.84-.11-.2-.13-.26-.42-.14-.62.11-.19.32-.28.53-.31Z"/>
            <path class="cls-140" d="M72.22,72.23c.28-.08.59-.07.84.08.14.08.25.23.25.4.02.2-.12.38-.3.47-.23.11-.49.11-.74.07-.23-.04-.47-.21-.48-.46-.03-.26.18-.49.42-.55Z"/>
            <path class="cls-170" d="M67.71,74.33c.16-.06.34.04.42.18.09.17.08.39-.04.54-.1.12-.28.14-.42.08-.28-.17-.29-.68.05-.8Z"/>
            <path class="cls-19" d="M66.6,74.37c.25-.06.48.17.5.41.05.21-.09.46-.32.47-.29,0-.48-.32-.43-.58.02-.13.11-.27.25-.29Z"/>
            <path class="cls-34" d="M65.72,75.22c.26-.14.55.11.58.37.03.18-.1.38-.29.41-.29.06-.56-.28-.46-.56.03-.09.09-.17.17-.22Z"/>
            <path class="cls-120" d="M67.29,75.45c.31-.04.65.02.87.25.27.25.35.65.25,1-.12.43-.55.71-.98.75-.39.04-.81-.17-.97-.54-.19-.42-.04-.97.34-1.23.15-.11.31-.2.5-.23Z"/>
            <path class="cls-88" d="M71.05,80.17c0-.07.06-.12.1-.17.03.05.08.1.07.17-.04.3-.07.6,0,.9-.05.03-.1.07-.15.04-.05-.06-.03-.14-.04-.21,0-.24-.01-.49.03-.73Z"/>
            <path class="cls-92" d="M72.07,81.27s.08-.03.1-.04c.08.12.02.26.02.39-.01.22.06.45.01.67-.06.04-.14,0-.14-.07-.04-.31-.06-.63,0-.95Z"/>
            <path class="cls-72" d="M70.68,82.14c.04-.08.16-.02.14.06-.03.3-.03.59,0,.89.02.08-.06.1-.11.13-.09-.2-.06-.42-.07-.63,0-.15-.01-.31.05-.45Z"/>
            <path class="cls-51" d="M71.52,83.41s.11,0,.11.06c0,.14-.03.28,0,.43.01.16.06.32.06.49,0,.06-.06.09-.12.08-.05-.05-.06-.12-.07-.18-.04-.24-.06-.49-.04-.73,0-.05.01-.12.07-.14Z"/>
            <path class="cls-68" d="M72.65,83.62s.07.02.1.03c.02.28.06.56.12.84.02.06-.03.1-.06.15-.13-.13-.14-.32-.17-.48-.02-.18-.07-.37.02-.53Z"/>
            <path class="cls-39" d="M70.73,84.85c0-.08.09-.05.14-.06,0,.34.04.67.13,1-.03,0-.08.03-.11.04-.1-.15-.12-.33-.15-.51-.02-.15-.03-.31,0-.46Z"/>
            <path class="cls-14" d="M72.14,85.25c.1-.03.11.1.12.17.02.23.1.44.15.66,0,.1-.14.07-.16,0-.09-.21-.14-.43-.16-.65,0-.06,0-.15.06-.17Z"/>
            <path class="cls-33" d="M73.44,85.4s.1-.05.15-.02c.05.09.06.2.09.3.04.17.13.33.2.49-.05.03-.13.1-.18.02-.13-.25-.21-.52-.26-.79Z"/>
          </g>
        </g>
      </g>
      <path class="cls-172" d="M72.33,83.2c-7.39,0-13.4-6.01-13.4-13.4s6.01-13.4,13.4-13.4,13.4,6.01,13.4,13.4-6.01,13.4-13.4,13.4ZM72.33,57.45c-6.81,0-12.35,5.54-12.35,12.35s5.54,12.35,12.35,12.35,12.35-5.54,12.35-12.35-5.54-12.35-12.35-12.35Z"/>
      <g>
        <circle class="cls-127" cx="296.22" cy="68.47" r="1.25"/>
        <circle class="cls-127" cx="296.22" cy="74.18" r="1.25"/>
        <path class="cls-127" d="M296.24,80.99c-.69,0-1.25-.56-1.25-1.25s.56-1.25,1.25-1.25,1.25.56,1.25,1.25-.56,1.25-1.25,1.25Z"/>
      </g>
    </g>
    <text class="cls-145" transform="translate(58.53 221.34) scale(.53 1)"><tspan x="0" y="0">SWIM</tspan><tspan x="0" y="138.96">MERS</tspan></text>
    <g>
      <g>
        <path class="cls-156" d="M85.24,118.4c2.03-.54,4.19-.25,6.19.31,2.5.75,4.81,2.13,6.71,3.92,1.02,1.01,1.97,2.13,2.59,3.44-2.21.15-4.41.43-6.58.87-1.29-1.85-3.06-3.36-5.02-4.46-.62-.34-1.26-.66-1.95-.84-.21-.07-.51.01-.51.27-.04.27.25.37.43.49,2.24,1.13,4.19,2.79,5.79,4.71.04.02.12.07.16.1-1.15.27-2.28.64-3.4,1.05-.81-.87-1.81-1.54-2.84-2.12-1.26-.69-2.61-1.25-4.02-1.49-.23-.02-.56-.1-.7.14-.15.21.03.5.26.55,2.24.72,4.39,1.82,6.16,3.38-1.02.46-2.01.95-2.98,1.5-.15-.12-.3-.24-.47-.32-1.13-.55-2.37-.87-3.62-1-.25-.02-.57-.04-.74.2-.1.19.02.42.21.5.46.21.97.29,1.46.45.73.21,1.41.53,2.1.85-1.86,1.29-3.59,2.83-4.84,4.73-.04,0-.11-.03-.14-.04-.17-.34-.44-.69-.43-1.08.08-.21.02-.44-.14-.6-.02.04-.05.12-.06.15-.25-.61-.38-1.26-.54-1.89l.04-.11c.11-.11.18-.34,0-.42-.01.09-.04.26-.05.35-.3-1.59-.38-3.24-.13-4.83.02.17.05.33.09.5.1-.52.32-1.07.12-1.59.68-3.21,2.88-6.17,5.99-7.38.42.21.89-.07,1.28-.24-.1-.01-.29-.03-.39-.04Z"/>
        <path class="cls-11" d="M84.34,118.68c.29-.11.58-.23.89-.28.1.01.29.03.39.04-.39.17-.86.45-1.28.24Z"/>
        <path class="cls-95" d="M86.66,121.9c0-.26.3-.34.51-.27.69.18,1.33.5,1.95.84,1.96,1.1,3.73,2.61,5.02,4.46-.37.07-.73.18-1.1.26-.04-.02-.12-.07-.16-.1-1.6-1.92-3.55-3.58-5.79-4.71-.18-.12-.47-.22-.43-.49Z"/>
        <path class="cls-12" d="M82.09,124.78c.15-.24.47-.16.7-.14,1.42.24,2.77.8,4.02,1.49,1.03.58,2.03,1.25,2.84,2.12-.38.15-.76.31-1.14.47-1.77-1.56-3.92-2.66-6.16-3.38-.23-.05-.41-.34-.26-.55Z"/>
        <path class="cls-169" d="M100.72,126.07c2.06-.09,4.12-.03,6.17.03,1.36.04,5.38.17,13.41.39,2.62.07,6.51.14,11.32.11,2.2.02,4.41.14,6.56.67,1.71.43,3.34,1.41,4.26,2.95-1.99.63-4.1.69-6.18.75-.48.03-1.06.08-1.3.56-.19.38.1.79.46.94.62.27,1.31.32,1.98.39,1.37.15,2.75.09,4.11-.1.66-.08,1.29-.29,1.95-.37.4,1.24.66,2.53.7,3.84-.02-.17-.05-.35-.07-.52l-.14.05c-1.98.55-4.05.74-6.11.79-.72.02-1.48-.08-2.17.16-.42.13-.74.63-.53,1.06.24.48.81.61,1.28.74,1.89.42,3.85.41,5.77.23.62-.04,1.21-.23,1.8-.37.06-.01.17-.04.23-.05-.02,1.4-.21,2.8-.56,4.15,0-.09,0-.28.01-.37-.95.22-1.9.44-2.87.52-1.4.11-2.81.09-4.21.01-.43-.02-.89-.02-1.28.19-.33.18-.49.64-.25.96.29.39.78.53,1.22.68,2.14.59,4.39.61,6.57.31-.47,1.27-1.31,2.39-2.28,3.32-1.53,1.47-3.59,2.22-5.64,2.6-2.32.42-4.68.48-7.03.55-5.28.08-10.57-.1-15.85-.06-1.88-.01-3.91.09-5.53,1.16-1.54,1.04-2.25,2.89-2.59,4.64-.44,2.44-.46,4.93-.48,7.41-.14.02-.27.05-.41.08,0,3.01,0,6.03-.01,9.04,0,2.11-.08,4.23-.02,6.34.17.12.37.18.56.26-.06-.01-.17-.04-.22-.06,0,4.71-.08,9.41-.15,14.12-.1,4.36-.19,8.71-.47,13.06-.12,1.83-.26,3.67-.61,5.47-.29,1.5-.71,3.04-1.62,4.3-.93,1.31-2.51,1.96-4.06,2.17-2.29.29-4.62.19-6.91-.02v-.03c.07-.11.13-.23.17-.35.48-2.88-.77-5.89-2.99-7.74-1.37-1.21-3.06-1.98-4.82-2.43-.99-.3-2.05-.33-3.08-.22-.34-.43-.68-.85-1.05-1.26-.3-2.05-.53-4.12-.65-6.2-.12-2.5-.25-5.01-.37-7.51-.09-1.77-.17-3.54-.26-5.3.59-.09,1.18-.18,1.77-.28,1.32-1.06,2.01-2.69,2.53-4.25.87-2.97,1.19-6.08,1.16-9.16-.03-1.74-.07-3.58-.93-5.14-.53-1.04-1.56-1.82-2.7-2.07-.85-.15-1.72-.1-2.58-.01-.01-2.51-.01-5.01-.01-7.52,0-2.27.11-4.54.12-6.8.16-4.06.3-8.17,1.42-12.1.46-1.67,1.13-3.29,2.05-4.77.08-.12.13-.26.17-.4.04,0,.11.03.14.04,1.25-1.9,2.98-3.44,4.84-4.73.35-.23.71-.46,1.07-.67.97-.55,1.96-1.05,2.98-1.5.38-.16.76-.31,1.14-.47,1.11-.41,2.24-.77,3.4-1.05.37-.09.73-.19,1.1-.26,2.17-.43,4.37-.72,6.58-.87Z"/>
        <path class="cls-15" d="M78.35,126.06c.21.51-.02,1.07-.12,1.59-.03-.17-.06-.33-.09-.5.02-.37.12-.73.2-1.09Z"/>
        <path class="cls-61" d="M80.69,129.09c.17-.24.49-.22.74-.2,1.25.13,2.49.45,3.62,1,.17.09.32.21.47.32-.36.21-.72.44-1.07.67-.68-.32-1.37-.64-2.1-.85-.48-.16-.99-.24-1.46-.45-.19-.08-.31-.31-.21-.5Z"/>
        <path class="cls-32" d="M136.27,130.96c2.07-.06,4.18-.12,6.18-.75.47.65.77,1.41,1.02,2.17-.66.08-1.29.29-1.95.37-1.36.19-2.75.24-4.11.1-.67-.07-1.35-.13-1.98-.39-.36-.14-.64-.56-.46-.94.24-.48.83-.53,1.3-.56Z"/>
        <path class="cls-67" d="M78.33,131.63c.18.08.11.31,0,.42l-.06-.07c.01-.09.04-.26.05-.35Z"/>
        <path class="cls-148" d="M95.36,134.12c.44-1.25,1.82-2.28,3.18-1.94.25.03.41.37.22.56-.13.18-.37.11-.56.14-.49.03-.97.17-1.36.48-.13.08-.24.18-.35.29-.25.23-.42.52-.63.78-.2.21-.65-.03-.51-.31Z"/>
        <path class="cls-188" d="M78.9,133.9c.16.16.22.39.14.6-.15-.09-.21-.29-.2-.45.02-.04.05-.12.06-.15Z"/>
        <path class="cls-178" d="M97.32,136.16c1.15-.56,2.55-.68,3.76-.26,1.58.56,2.85,1.91,3.26,3.54.11.51.13,1.03.13,1.55l-.14-.1c-.2-1.17-1-2.26-2.12-2.69-1.52-.69-3.42.06-4.22,1.48-.41.77-.62,1.69-.38,2.55.26,1.25,1.26,2.3,2.5,2.6.82.27,1.74.1,2.49-.29.21-.12.4-.27.6-.42l.13-.05c-.83,1.07-2.12,1.72-3.45,1.9-.8.1-1.59-.06-2.35-.29-1.44-.58-2.57-1.87-2.97-3.37-.26-.93-.23-1.91,0-2.85.41-1.42,1.45-2.62,2.75-3.3Z"/>
        <path class="cls-138" d="M137.85,136.54c2.05-.05,4.12-.24,6.11-.79-.04.87.04,1.74.05,2.61-.6.15-1.19.33-1.8.37-1.92.18-3.88.19-5.77-.23-.47-.13-1.05-.27-1.28-.74-.21-.43.11-.93.53-1.06.7-.24,1.45-.14,2.17-.16Z"/>
        <path class="cls-69" d="M143.95,135.75l.14-.05c.02.17.05.35.07.52.08.69.07,1.39.06,2.09-.06.01-.17.04-.23.05,0-.87-.1-1.74-.05-2.61Z"/>
        <path class="cls-151" d="M98,139.68c.8-1.42,2.7-2.17,4.22-1.48,1.13.43,1.92,1.52,2.12,2.69.15,1.18-.27,2.41-1.13,3.23-.19.15-.38.3-.6.42-.44-.11-.87.07-1.3.14-.39.09-.81-.02-1.19.14-1.24-.29-2.24-1.35-2.5-2.6-.24-.86-.04-1.78.38-2.55Z"/>
        <path class="cls-40" d="M94.19,141.44c-.13-.75-.04-1.56.29-2.25.02.07.06.21.09.27-.23.94-.26,1.91,0,2.85-.02.08-.05.23-.07.3-.24-.34-.24-.77-.31-1.17Z"/>
        <path class="cls-163" d="M100.32,139.21c.75-.23,1.52.59,1.27,1.33-.18.82-1.4,1.08-1.89.4-.5-.59-.12-1.58.63-1.72Z"/>
        <path class="cls-97" d="M140.81,142.61c.97-.08,1.93-.3,2.87-.52,0,.09,0,.28-.01.37-.18.79-.48,1.54-.75,2.3h-.07c-2.18.3-4.44.29-6.57-.3-.44-.14-.93-.29-1.22-.68-.23-.31-.07-.78.25-.96.39-.21.85-.22,1.28-.19,1.4.07,2.81.1,4.21-.01Z"/>
        <path class="cls-52" d="M81.74,142.9c-.02-.15,0-.52.23-.33.34.51.69,1.05,1.27,1.33.81.4,1.78.22,2.52-.26.24-.16.43-.43.74-.44-.04.58-.47,1.07-.92,1.4-.69.47-1.61.58-2.38.24-.79-.32-1.35-1.1-1.46-1.93Z"/>
        <path class="cls-42" d="M101.32,144.68c.43-.07.86-.25,1.3-.14-.76.39-1.67.56-2.49.29.38-.16.8-.05,1.19-.14Z"/>
        <path class="cls-135" d="M106.4,145.32c.24-.17.48.12.54.34.36,1.01,1.36,1.72,2.43,1.79,1.06.03,2.05-.66,2.47-1.62.09-.17.13-.4.32-.48.22-.1.42.13.45.33-.33,1.51-1.82,2.63-3.36,2.55-.68-.09-1.37-.3-1.91-.75-.48-.4-.86-.94-1.06-1.53-.07-.21-.15-.52.11-.64Z"/>
        <path class="cls-141" d="M97.54,145.68c.76.23,1.55.39,2.35.29.4.31.88.55,1.17.98.51.67.63,1.64.24,2.4-.28.62-.85,1.06-1.46,1.33-.63.22-1.31.26-1.97.19-.92-.13-1.83-.6-2.34-1.4-.4-.66-.45-1.53-.11-2.22.43-.81,1.25-1.35,2.13-1.57Z"/>
        <path class="cls-64" d="M94.96,147.92c.05-.34.15-.71.45-.92,0,.06,0,.19,0,.25-.34.7-.29,1.56.11,2.22.05.2-.1.27-.22.1-.32-.48-.44-1.09-.36-1.66Z"/>
        <path class="cls-29" d="M85.13,148.36c.05,0,.15,0,.2.01.26.69.53,1.42,1.11,1.92.66.63,1.66.91,2.52.57.88-.24,1.5-.96,2.01-1.68.28-.16.3.26.23.44-.38,1.22-1.43,2.29-2.73,2.46-1.09.12-2.25-.38-2.84-1.32-.46-.69-.75-1.58-.5-2.4Z"/>
        <path class="cls-129" d="M97.87,150.88c.66.07,1.34.03,1.97-.19l.27.04c-.77.49-1.78.58-2.61.22.09-.02.28-.05.37-.07Z"/>
        <path class="cls-181" d="M80.1,155.96c.19-.02.26.19.36.31.31.52.75,1,1.32,1.23.85.31,1.86.16,2.57-.42.25-.17.43-.48.77-.47,0,.61-.48,1.07-.92,1.43-.84.67-2.08.68-2.99.15-.5-.29-.81-.8-1.03-1.31-.11-.29-.2-.62-.08-.93Z"/>
        <path class="cls-52" d="M88.33,157.98c-.03-.17.14-.25.24-.35.33.54.49,1.19.98,1.63.56.65,1.45.93,2.28.82.82-.13,1.55-.63,2.06-1.28.14-.16.26-.39.5-.38.03.79-.49,1.47-1.03,1.98-.82.79-2.1.93-3.13.53-.62-.3-1.2-.76-1.49-1.39-.22-.49-.4-1.01-.4-1.55Z"/>
        <path class="cls-55" d="M81.15,163.22c-.02-.27-.15-.71.18-.84.18.16.23.41.33.62.37.92,1.19,1.68,2.18,1.84.74.11,1.48-.2,2.08-.6.43-.27.63-.79,1.09-1.03.04.14.12.3.05.45-.32,1.06-1.26,1.91-2.33,2.18-.76.2-1.58-.02-2.22-.44-.75-.48-1.15-1.34-1.35-2.18Z"/>
        <path class="cls-156" d="M110.7,163.68c3.38-.32,6.76-.64,10.16-.61,1.5.07,3.01.18,4.45.6,1.28.37,2.55,1.03,3.31,2.16.51.84.78,1.89.51,2.86-.41,1.66-1.8,2.97-3.39,3.51,1.15.86,2.07,2.05,2.44,3.45.52,1.71.18,3.64-.85,5.09-.76,1.09-1.91,1.88-3.16,2.3-1.88.69-3.91.64-5.88.54-3.84-.33-7.58-1.36-11.28-2.42-1.15-.35-2.32-.68-3.46-1.07-.19-.08-.39-.14-.56-.26-.05-2.11.02-4.23.02-6.34,0-3.01.02-6.03.01-9.04.13-.03.27-.06.41-.08,2.42-.23,4.84-.43,7.25-.7Z"/>
        <path class="cls-189" d="M75.72,167.16c.85-.09,1.73-.13,2.58.01,1.14.25,2.17,1.02,2.7,2.07.86,1.56.89,3.4.93,5.14.03,3.08-.3,6.19-1.16,9.16-.52,1.57-1.21,3.19-2.53,4.25-.55.4-1.17.71-1.86.79-1.08.15-2.22-.26-3.01-1.01-1.25-1.19-1.69-3-1.55-4.67-1.01.3-2.14.31-3.09-.19-1.08-.47-1.81-1.5-2.21-2.58-.67-1.9-.44-4.01.31-5.85,1.38-3.44,4.52-6.08,8.1-6.99.26-.06.52-.11.79-.15Z"/>
        <path class="cls-2" d="M106.16,167.63c3.79-.07,7.58-.12,11.36,0,.23.03.58,0,.67.28.14.28-.18.56-.46.52-.63-.01-1.26.08-1.9.09-2.05-.01-4.1.04-6.14-.07-1.12-.03-2.23-.13-3.35-.16-.16,0-.35-.05-.44-.2-.14-.19.01-.48.25-.49Z"/>
        <path class="cls-18" d="M88.61,168.91c.31.18.39.57.59.85.39.58.92,1.11,1.6,1.31.8.23,1.71.14,2.39-.36.57-.35.95-.9,1.43-1.36.21.35.02.76-.15,1.09-.35.62-.86,1.18-1.51,1.5-.63.26-1.34.42-2.02.23-1.05-.25-1.96-1.06-2.27-2.1-.11-.37-.25-.8-.05-1.16Z"/>
        <path class="cls-49" d="M77.69,170.2c.37-.1.5.46.17.61-1.3.76-2.62,1.49-3.95,2.19-.64.34-1.27.74-1.97.96-.27.11-.5-.25-.35-.47.24-.37.69-.51,1.04-.75,1.65-.91,3.29-1.88,5.05-2.55Z"/>
        <path class="cls-146" d="M106.04,171.86c.2-.09.43-.04.65-.03,3.58.32,7.15.7,10.71,1.15.26.03.62.1.64.43.04.29-.26.47-.52.43-3.79-.19-7.54-.75-11.28-1.37-.3,0-.46-.44-.2-.6Z"/>
        <path class="cls-115" d="M78.34,173.75c.25-.15.57.15.44.41-.2.29-.49.49-.74.73-1.48,1.24-2.93,2.53-4.51,3.65-.17.11-.4.25-.59.1-.21-.16-.11-.47.07-.61,1.46-1.31,2.99-2.54,4.54-3.74.26-.19.5-.4.79-.54Z"/>
        <path class="cls-70" d="M84.19,176.41c.02-.16,0-.41.24-.32.26.48.45,1.01.83,1.42.59.83,1.7,1.27,2.68.93.96-.24,1.58-1.07,2.15-1.82.27.25.11.64,0,.93-.44,1.06-1.44,1.96-2.63,2.02-.77.08-1.58-.15-2.17-.66-.71-.61-1.16-1.55-1.1-2.5Z"/>
        <path class="cls-61" d="M106.04,176.09c.19-.13.43-.04.64-.02,2.35.43,4.69.92,7.03,1.42.88.22,1.78.35,2.64.64.25.09.33.42.19.64-.2.16-.47.13-.71.1-3.2-.52-6.35-1.31-9.48-2.16-.27-.04-.56-.38-.31-.62Z"/>
        <path class="cls-107" d="M79.03,177.79c.25-.21.6.17.44.42-.24.52-.6.97-.91,1.45-.78,1.06-1.53,2.18-2.51,3.07-.4.24-.57-.4-.31-.64,1.09-1.44,2.18-2.88,3.29-4.31Z"/>
        <path class="cls-125" d="M85.39,188.29c.77-.23,1.73.11,2.1.85.4.74.3,1.77-.38,2.31-.75.72-2.11.59-2.69-.28-.73-.96-.21-2.57.97-2.89Z"/>
        <path class="cls-78" d="M93.76,191.86c.53-.12,1.1-.02,1.58.22,1.02.55,1.55,1.86,1.18,2.96-.19.63-.66,1.15-1.23,1.46-.73.38-1.65.31-2.35-.09-.89-.54-1.35-1.67-1.09-2.68.21-.92.99-1.68,1.92-1.86Z"/>
        <path class="cls-108" d="M83.7,200c.94-.31,2.05.42,2.11,1.41.14.81-.45,1.62-1.24,1.81-.74.2-1.64-.17-1.92-.91-.38-.89.08-2.07,1.06-2.31Z"/>
        <path class="cls-31" d="M90.42,204.15c.89-.35,2.03.29,2.09,1.27.21,1.01-.76,2.07-1.79,1.84-.94-.11-1.55-1.19-1.25-2.06.14-.47.49-.89.96-1.05Z"/>
        <path class="cls-65" d="M67.57,209.2c2.85-2.19,6.7-2.87,10.19-2.11.36.41.7.83,1.05,1.26.57.78,1.27,1.45,1.92,2.15,1,1.04,2.37,1.57,3.65,2.15,1.46.67,2.83,1.65,3.69,3.04.57.87,1.01,1.82,1.24,2.84.05.21.11.4.19.6l.02-.03v.03c-.04.43.02.85.05,1.28.03,1.52-.2,3.07-.86,4.46-.52,1.16-1.46,2.17-2.67,2.6-1.36.51-2.91.25-4.15-.46-1.19-.63-2.1-1.69-2.7-2.88-.65-1.22-.95-2.59-1.1-3.95-.05-.85-.13-1.71-.01-2.56.03-.39.16-.78.08-1.17.23-.39.27-.85.41-1.27.13-.39.29-.77.41-1.16-.66.27-1.12.83-1.68,1.24-1.35,1.04-2.55,2.26-3.73,3.48l.18.04c-1.6.52-3.34.69-5,.36-.94-.17-1.81-.62-2.55-1.22-1.16-.99-1.76-2.6-1.53-4.11.22-1.87,1.47-3.45,2.9-4.59Z"/>
        <path class="cls-59" d="M78.8,208.35c1.03-.11,2.08-.08,3.08.22,1.75.45,3.45,1.23,4.82,2.43,2.21,1.85,3.47,4.87,2.99,7.74-.09-.17-.19-.34-.29-.51-.02.07-.07.22-.09.29-.23-1.01-.67-1.97-1.24-2.84-.85-1.39-2.22-2.37-3.69-3.04-1.28-.59-2.65-1.12-3.65-2.15-.65-.71-1.36-1.37-1.92-2.15Z"/>
        <path class="cls-47" d="M77.9,210.08c.4-.01.81-.07,1.21.02.31.17.07.61-.23.61-2.78.69-5.49,1.68-8.05,2.98-.41.17-.78.46-1.23.49-.34-.05-.39-.54-.12-.72,1.06-.95,2.35-1.6,3.65-2.17,1.52-.63,3.12-1.13,4.77-1.22Z"/>
        <path class="cls-174" d="M82.53,213.35c.23-.03.56-.14.7.12.36.63.52,1.35.77,2.02.6,2.17.86,4.45.65,6.7,0,.26-.18.48-.42.55-.27-.04-.42-.29-.41-.55-.11-1.88-.38-3.74-.67-5.6-.18-1.09-.49-2.15-.62-3.25Z"/>
        <path class="cls-104" d="M77.29,215.24c.56-.41,1.02-.97,1.68-1.24-.13.39-.29.77-.41,1.16-.14.42-.18.88-.41,1.27-1.3,1.04-2.81,1.84-4.41,2.33l-.18-.04c1.18-1.22,2.38-2.44,3.73-3.48Z"/>
        <path class="cls-1" d="M89.39,218.24c.1.17.2.34.29.51-.04.12-.1.24-.17.35l-.02.03c-.09-.2-.15-.39-.19-.6.02-.07.07-.22.09-.29Z"/>
      </g>
      <g>
        <path class="cls-76" d="M155.08,320.53s0-.05,0-.08c0-2.38-4.92-4.3-10.99-4.3s-10.98,1.92-10.99,4.29c-.54-.18-1.04-.43-1.52-.73,0,.25.09.49.22.71.2.36.36.73.57,1.08v-.18c.41.12.8.29,1.21.38,1.37,1.76,5.56,3.05,10.51,3.05s8.94-1.22,10.41-2.92c.22-.06.45-.13.67-.18,0,.05,0,.14-.01.18.21-.31.43-.68.63-1.11.16-.34.29-.66.39-.95-.22.22-.59.53-1.11.76Z"/>
        <path class="cls-16" d="M95.82,249.87c1.14-.83,2.84-.82,3.92.11.9.76,1.19,2.06.92,3.18-.25,1.15-.99,2.1-1.73,2.97-1.57,1.85-2.5,4.16-3.07,6.5-.17.88-.31,1.77-.37,2.66,0,.15-.06.29-.11.42-.47,0-.94,0-1.42,0-.16-.42-.14-.89-.28-1.32-.33-1.13-.97-2.19-1.87-2.96-.85-.74-1.96-1.11-3.06-1.28-1.04-.17-2.14-.57-2.75-1.49-.73-1.04-.47-2.61.52-3.4.77-.66,1.87-.73,2.82-.51,1.62.47,2.87,1.77,3.67,3.21.16.27.3.55.45.83-.06-1.85-.17-3.74.31-5.56.33-1.29.96-2.57,2.04-3.38Z"/>
        <path class="cls-82" d="M102.11,257.15c.57-.11,1.16-.05,1.71.11,1,.31,1.74,1.36,1.59,2.41-.09.91-.81,1.7-1.69,1.94-1.02.29-2.09-.04-3.11.17-.88.14-1.67.62-2.33,1.2-.39.34-.66.79-1.02,1.15-.14.15-.42,0-.38-.2,0-1.12.45-2.2.94-3.19.89-1.68,2.36-3.23,4.3-3.58Z"/>
        <path class="cls-10" d="M149.09,259.92c.36-.36.94-.63,1.43-.36.53.22.66.82.91,1.27.45.8,1.09,1.5,1.89,1.96,1.23.78,2.72.9,4.07,1.35,1.56.49,2.99,1.42,4.01,2.7,1.31,1.61,1.89,3.72,1.88,5.78.95-2.31,2.85-4.3,5.26-5.08,1.28-.44,2.66-.51,3.99-.3,1.21.17,2.4.58,3.64.48.95-.06,1.88-.47,2.57-1.12.32-.3.67-.63,1.13-.66.51-.06,1.01.28,1.2.75.41.9.21,1.91.08,2.85-.29,1.54-.81,3.04-1.6,4.4-.99,1.7-2.43,3.16-4.17,4.11-2.12,1.2-4.63,1.48-7.03,1.24-1.12-.04-2.34.1-3.24.83-.94.76-1.39,1.97-1.53,3.14-.18,1.14-.09,2.3,0,3.44.21,2.98-.26,5.96-.81,8.88-.86,4.37-1.94,8.7-3.02,13.02-.74,3.06-1.55,6.12-2.61,9.09-.35.83-.62,1.7-1.1,2.47-.38.29-.92.43-1.38.26-.74-.22-1.29-.8-1.75-1.39-.27-.35-.54-.72-.97-.88-.48-.12-1.03-.09-1.42.23-.56.45-.95,1.09-1.54,1.52-.82.65-1.87,1.02-2.92.97-.97-.08-1.89-.53-2.59-1.19-.65-.62-1.14-1.38-1.67-2.1-.4-.56-1.16-.88-1.82-.66-.59.16-.96.68-1.3,1.15-.68.93-1.52,1.8-2.61,2.23-.8.3-1.68.48-2.52.26-.71-.16-1.36-.48-1.98-.85-.25-.2-.29-.55-.43-.83-1.02-2.38-1.76-4.87-2.84-7.22-.38-.79-.79-1.6-1.42-2.24-.37-.38-.93-.62-1.47-.48-.64.18-1.11.7-1.46,1.23-.78,1.21-1.29,2.55-1.82,3.88-.54,1.4-1.08,2.8-1.63,4.2-.02.04-.06.11-.07.15-.35,0-.73-.07-1.04.11-.4.2-.66.58-.93.92-.87,1.08-2.13,1.97-3.56,1.96-.96.07-1.93-.24-2.7-.81-.62-.47-1.1-1.09-1.56-1.71-.32-.43-.8-.8-1.36-.78-.54-.03-1.02.3-1.33.71-.81,1.07-1.78,2.17-3.12,2.53-.64-.51-1.31-.99-1.83-1.62-.84-1.01-1.54-2.14-2.09-3.33-1.61-3.45-2.32-7.22-3.61-10.79-.7-1.88-1.55-3.72-2.77-5.33-1.01-1.28-2.28-2.38-3.77-3.06-.16-.08-.33-.16-.5-.23-.98-.39-2.01-.68-3.06-.77-.37-.04-.73-.08-1.1-.08-1.13,0-2.28.08-3.4-.11-.15-.02-.29-.05-.44-.07-.65-.11-1.27-.34-1.87-.59-.2-.14-.25-.41-.36-.61-.89-1.87-1.52-3.85-2.06-5.85-.44-1.79-.74-3.62-.8-5.46-.07-2.37.37-4.77,1.3-6.96,1.05-2.46,2.8-4.6,4.96-6.17,4.07-2.92,9.44-4.08,14.31-2.81,1.96.51,3.79,1.5,5.26,2.9,1.32,1.28,2.35,2.85,3.07,4.53.63,1.4.98,2.91,1.29,4.4.48,2.74.76,5.51,1.22,8.26.52,2.91,1.07,5.83,1.92,8.67.24.75.47,1.54.96,2.18.22.31.72.4,1,.12.34-.31.54-.73.72-1.14.89-2.07,1.53-4.23,2.25-6.36.62-1.98,1.22-3.97,1.84-5.94.51-1.67,1.13-3.33,2.09-4.8.8-1.26,1.97-2.29,3.33-2.89,1.94-.88,4.19-.96,6.24-.41,1.66.43,3.14,1.48,4.11,2.89,1.07,1.54,1.67,3.34,2.18,5.13.86,3.12,1.75,6.23,2.73,9.31.58,1.69,1.09,3.41,1.9,5.01.22.45.49.88.86,1.21.3.24.73.38,1.1.22.57-.21.93-.74,1.2-1.26.72-1.42,1.27-2.93,1.77-4.44.96-2.74,1.81-5.52,2.82-8.24.64-1.73,1.41-3.42,2.45-4.95,1.3-1.89,3.18-3.46,5.41-4.1.47-.14.94-.32,1.44-.35-.89-.84-2.09-1.19-3.13-1.78-2.57-1.34-4.6-3.7-5.49-6.47-.78-2.3-.8-4.84-.18-7.18.21-.74.47-1.5.99-2.08Z"/>
        <path class="cls-183" d="M87.51,262.77c1-.16,2.01.28,2.73.95.19.14.22.47,0,.6-.4.05-.82,0-1.21.16-.58.18-1.02.71-1.65.71-.36.03-.75-.09-.97-.39-.38-.49-.24-1.25.21-1.65.25-.21.57-.34.89-.38Z"/>
        <path class="cls-4" d="M150.85,264.94c.28-.14.5.19.46.44-.01,2.35.99,4.75,2.83,6.26.65.57,1.43.96,2.2,1.35,1.54.69,2.9,2.1,3.03,3.85.05.3-.37.65-.6.34-.16-.33-.11-.72-.23-1.06-.31-.8-.87-1.49-1.59-1.96-.6-.37-1.24-.67-1.86-.99-1.4-.73-2.58-1.88-3.34-3.26-.73-1.35-1.1-2.88-1.11-4.41,0-.2.03-.44.21-.55Z"/>
        <path class="cls-102" d="M100.04,270.95c.49-.14,1.03.08,1.39.43.54.42.9,1.22.5,1.85-.56.77-1.96.71-2.38-.18-.23-.5-.46-1.14-.12-1.64.13-.23.36-.4.62-.46Z"/>
        <path class="cls-23" d="M176.99,271.05c.1-.2.34-.08.52-.09,0,.65-.42,1.21-.73,1.75-1.18,2.01-3.32,3.42-5.64,3.66-1.17.17-2.38-.08-3.54.21-.89.2-1.74.61-2.44,1.21-.15.1-.31.3-.51.21-.12-.03-.19-.15-.22-.26.15-.29.4-.51.64-.72,1.17-.98,2.75-1.36,4.26-1.31,2.44.23,4.97-.83,6.47-2.77.5-.56.77-1.26,1.18-1.87Z"/>
        <path class="cls-155" d="M99.36,274.41c.34-.11.73.09.9.39.07.21.07.44.06.66.07.68-.93,1.02-1.37.57-.27-.23-.34-.62-.3-.96.06-.35.4-.56.71-.66Z"/>
        <path class="cls-48" d="M102.51,274.8c1.02-.31,1.92,1.19,1.18,1.96-.57.69-1.79.12-1.82-.71-.05-.48.14-1.07.63-1.25Z"/>
        <path class="cls-73" d="M90.38,279.66c1.06-.25,2.37.24,2.76,1.31.05.29-.44.38-.55.12-.34-.54-.91-.93-1.56-.94-.35-.02-.66.12-.99.21-.17.08-.41-.08-.35-.27.09-.3.42-.38.69-.44Z"/>
        <path class="cls-152" d="M90.09,283.51c.68-.1,1.39.04,1.99.36.81.52,1.41,1.38,1.53,2.34.21,1.35-.54,2.79-1.78,3.37-1.32.68-3.09.16-3.88-1.09-.65-.98-.7-2.32-.15-3.36.47-.85,1.32-1.5,2.29-1.63Z"/>
        <path class="cls-22" d="M91.56,285.08c.72-.3,1.59.36,1.53,1.13.02.72-.75,1.36-1.45,1.14-.57-.15-.96-.77-.84-1.35.06-.42.37-.78.77-.91Z"/>
        <path class="cls-137" d="M93.94,289.06c1.02-.26,2.27.25,2.63,1.27.3.75-.07,1.64-.72,2.07-.7.51-1.67.56-2.44.2-.61-.27-1.06-.89-1.07-1.56-.07-.95.72-1.79,1.6-1.99Z"/>
        <path class="cls-117" d="M160.41,289.01c.33-.12.75-.06.98.23.33.42.33.99.25,1.49-.13.62-.82,1.16-1.45.89-.72-.24-.88-1.21-.58-1.83.18-.33.44-.63.79-.78Z"/>
        <path class="cls-21" d="M85.1,290.63c.14-.11.35-.21.51-.07.2.17.1.47.07.69-.23,1.32-1.71,2.2-2.99,1.89-.86-.23-1.7-.82-1.96-1.71-.07-.27.33-.49.52-.28.2.27.3.6.56.82.72.72,2.03.74,2.73-.01.35-.35.57-.83.56-1.33Z"/>
        <path class="cls-155" d="M157.46,291.18c.38-.11.71.2.91.49.33.53.05,1.24-.39,1.61-.53.36-1.28-.05-1.34-.66-.12-.6.23-1.26.82-1.44Z"/>
        <path class="cls-57" d="M80.39,295.36c.6.25,1.22.48,1.87.59.09,1.01.36,1.99.61,2.97.97,3.65,2.24,7.23,3.66,10.73.75,1.84,1.53,3.68,2.42,5.46,1.05,2.14,2.18,4.26,3.65,6.16-.57-.02-1-.41-1.48-.66-.11-.08-.17-.2-.25-.3-.92-1.48-1.81-2.98-2.54-4.56-.72-1.39-1.3-2.84-1.96-4.25-.43-1.05-.86-2.11-1.3-3.15-1.41-3.45-2.53-7.01-3.77-10.52-.29-.82-.66-1.61-.91-2.45Z"/>
        <path class="cls-56" d="M82.26,295.95c.15.02.29.05.44.07.23.75.42,1.51.58,2.28,1.02,3.89,2.35,7.7,3.87,11.41.99,2.48,2.17,4.88,3.38,7.27,1.07,1.96,2.27,3.86,3.72,5.56.28.11.6-.02.88-.09.56-.17,1.06-.48,1.51-.86-.32-.51-.76-.93-1.11-1.41-.96-1.28-1.8-2.65-2.55-4.06-.81-1.41-1.51-2.87-2.16-4.36-1.64-3.78-3.02-7.68-4-11.69-.32-1.3-.61-2.61-.72-3.94.37,0,.74.03,1.1.08-.2,0-.4.02-.6.04.64,4.02,1.84,7.93,3.28,11.73,1.37,3.58,2.95,7.11,5.04,10.34.67.97,1.3,1.99,2.14,2.82.33-.28.59-.65.94-.9.37-.2.9-.24,1.22.08.42.39.79.85,1.26,1.19.96.84,2.27,1.29,3.55,1.13,1.46-.1,2.78-.94,3.69-2.06.35-.41.62-.95,1.16-1.12.51-.18,1.06.09,1.37.51.8,1.02,1.75,2.03,3.03,2.4,1.01.33,2.11.21,3.11-.11.95-.34,1.72-1.03,2.37-1.78.27-.29.56-.62.98-.66,0,.07,0,.19-.01.26-1.12,2.55-2.85,4.9-5.19,6.45-1.79,1.18-3.87,1.89-5.99,2.19-3.25.47-6.67.15-9.69-1.19-2.56-1.13-4.78-2.97-6.51-5.15.38.02.76.1,1.13.18-.27-.43-.54-.88-.89-1.26-1.46-1.89-2.59-4.01-3.65-6.16-.89-1.78-1.67-3.62-2.42-5.46-1.42-3.5-2.68-7.08-3.66-10.73-.25-.98-.52-1.96-.61-2.97Z"/>
        <path class="cls-139" d="M82.7,296.03c1.12.19,2.27.11,3.4.11.11,1.33.4,2.65.72,3.94.98,4.01,2.36,7.9,4,11.69.65,1.48,1.35,2.95,2.16,4.36.76,1.41,1.59,2.78,2.55,4.06.36.48.79.9,1.11,1.41-.44.38-.95.69-1.51.86-.28.07-.6.19-.88.09-1.45-1.7-2.66-3.6-3.72-5.56-1.21-2.38-2.39-4.78-3.38-7.27-1.53-3.72-2.86-7.52-3.87-11.41-.15-.77-.35-1.53-.58-2.28Z"/>
        <path class="cls-139" d="M86.61,296.25c.2-.01.4-.03.6-.04,1.05.09,2.08.38,3.06.77-.1.57,0,1.13.13,1.69.32,1.84.73,3.66,1.26,5.46,1.15,3.86,2.63,7.64,4.65,11.14.72,1.28,1.57,2.48,2.49,3.63.38.46.65,1.07,1.22,1.34.56.28,1.06.66,1.65.88-.19.13-.37.27-.55.41-.2-.02-.41-.02-.61-.02-.47-.34-.84-.79-1.26-1.19-.32-.32-.85-.28-1.22-.08-.36.25-.61.62-.94.9-.85-.83-1.48-1.85-2.14-2.82-2.09-3.23-3.67-6.75-5.04-10.34-1.44-3.8-2.65-7.71-3.28-11.73Z"/>
        <path class="cls-165" d="M90.26,296.99c.17.07.33.15.5.23.03.48.05.97.13,1.44.46,2.23,1,4.45,1.69,6.62,1.05,3.14,2.25,6.25,3.88,9.14,1.28,2.27,2.79,4.47,4.86,6.09.21.2.51.36.53.67l-.19-.07c-.59-.21-1.09-.6-1.65-.88-.56-.28-.83-.88-1.22-1.34-.92-1.14-1.77-2.35-2.49-3.63-2.02-3.5-3.5-7.28-4.65-11.14-.53-1.79-.94-3.62-1.26-5.46-.12-.55-.23-1.12-.13-1.69Z"/>
        <path class="cls-26" d="M90.76,297.21c1.49.68,2.75,1.78,3.77,3.06,1.22,1.6,2.07,3.45,2.77,5.33,1.29,3.57,2,7.34,3.61,10.79.55,1.19,1.24,2.32,2.09,3.33.52.63,1.19,1.12,1.83,1.62-.25.08-.51.18-.78.17-.74-.02-1.51-.02-2.19-.33-.03-.32-.33-.48-.53-.67-2.07-1.62-3.57-3.83-4.86-6.09-1.63-2.89-2.83-6-3.88-9.14-.69-2.17-1.23-4.39-1.69-6.62-.08-.48-.11-.96-.13-1.44Z"/>
        <path class="cls-30" d="M166.13,308.16c.38-.13.8-.12,1.17.04.77.29,1.25,1.18,1.09,1.99-.15.85-.75,1.56-1.47,2-.72.46-1.57.63-2.33,1.01-.48.23-.92.53-1.38.79-.23.18-.59-.07-.54-.34.04-.23.15-.43.24-.64.45-.95.83-1.93,1.27-2.88.41-.84,1.02-1.68,1.95-1.96Z"/>
        <path class="cls-93" d="M79.73,312.23c.82-.18,1.68.1,2.34.6.94.7,1.6,1.72,2.05,2.79.16.41.32.83.37,1.28.02.24-.25.43-.47.33-.38-.22-.7-.52-1.11-.69-.94-.45-2.03-.32-3-.66-.73-.25-1.4-.84-1.53-1.64-.16-.89.48-1.79,1.35-2Z"/>
        <path class="cls-180" d="M143.75,313.2c.81-.23,1.61.65,1.32,1.44-.21.79-1.35,1.02-1.88.42-.57-.58-.22-1.68.56-1.85Z"/>
        <path class="cls-183" d="M168.7,314.17c.82-.07,1.74.13,2.26.81.5.63.45,1.63-.16,2.17-.52.47-1.29.47-1.94.35-.96-.24-1.8-.83-2.79-.96-.32-.03-.64,0-.95-.03-.29-.06-.34-.46-.11-.62,1-.96,2.32-1.58,3.7-1.72Z"/>
        <path class="cls-180" d="M104.2,314.79c.62-.29,1.41.16,1.53.82.19.71-.47,1.44-1.18,1.41-.37-.05-.73-.25-.92-.58-.34-.58-.05-1.41.58-1.65Z"/>
        <path class="cls-132" d="M147.2,316.24c.36-.29.94.22.71.62-.13.36-.7.42-.88.08-.18-.22-.07-.56.17-.69Z"/>
        <path class="cls-46" d="M116.22,316.64c.34-.32.94.12.76.54-.1.29-.51.47-.76.25-.28-.17-.26-.61,0-.79Z"/>
        <path class="cls-182" d="M139.24,318.84c.26-.36.65-.68,1.11-.71.47-.04.93.23,1.17.63.88,1.34,2.03,2.68,3.64,3.08,1.54.43,3.25-.07,4.41-1.15.51-.41.83-1.05,1.46-1.31.44-.2.96.01,1.25.37.56.69,1.17,1.44,2.05,1.71.33.05.66.04.98.15-1.4,2.61-3.56,4.91-6.32,6.09-1.95.86-4.12,1.16-6.24.99-2.09-.15-4.13-.86-5.87-2.01-1.95-1.27-3.38-3.16-4.52-5.16v-.18c.5.15.98.37,1.5.42,1.4.17,2.82-.35,3.89-1.25.58-.47,1.05-1.06,1.49-1.66Z"/>
        <path class="cls-175" d="M120.51,318.26s-.06.11-.07.15c-.35,0-.73-.07-1.04.11-.4.2-.66.58-.93.92-.87,1.08-2.13,1.97-3.56,1.96-.96.07-1.93-.24-2.7-.81-.62-.47-1.1-1.09-1.56-1.71-.32-.43-.8-.8-1.36-.78-.54-.03-1.02.3-1.33.71-.81,1.07-1.78,2.17-3.12,2.53-.25.08-.51.18-.78.17-.74-.02-1.51-.02-2.19-.33l-.19-.07c-.19.13-.37.27-.55.41-.2-.02-.41-.02-.61-.02.96.84,2.27,1.29,3.55,1.13,1.46-.1,2.78-.94,3.69-2.06.35-.41.62-.95,1.16-1.12.51-.18,1.06.09,1.37.51.8,1.02,1.75,2.03,3.03,2.4,1.01.33,2.11.21,3.11-.11.95-.34,1.72-1.03,2.37-1.78.27-.29.56-.62.98-.66,0,.07,0,.19-.01.26.27-.59.6-1.16.77-1.79Z"/>
        <path class="cls-184" d="M161.6,319.01c.77-.17,1.59-.05,2.3.29.5.23.9.71.99,1.26.08.56-.29,1.15-.84,1.29-.52.13-1.07-.11-1.44-.48-.38-.38-.71-.81-1.17-1.1-.27-.18-.59-.27-.87-.42-.22-.12-.16-.47.06-.56.31-.15.65-.22.98-.29Z"/>
        <path class="cls-54" d="M81.89,319.71c1.32-.23,2.63.37,3.59,1.23.2.16.1.57-.18.55-.46.02-.92.07-1.35.26-.73.26-1.33.82-2.11.92-.58.08-1.24-.17-1.5-.72-.29-.58-.09-1.32.39-1.74.32-.28.74-.42,1.15-.5Z"/>
        <path class="cls-154" d="M91.11,320.61c.48.24.92.64,1.48.66.35.38.62.82.89,1.26-.37-.08-.75-.16-1.13-.18h-.03c-.4-.58-.9-1.1-1.21-1.73Z"/>
        <path class="cls-106" d="M98.16,322.06c.18-.04.51-.09.55.16,0,.26-.24.68-.55.55-.3-.1-.3-.6,0-.71Z"/>
      </g>
      <g>
        <path class="cls-62" d="M248.13,125.08c4.99-2.68,10.63-4.03,16.27-4.25,1.16-.09,2.32.02,3.47.04,4.36.22,8.68,1.08,12.84,2.4,3.59,1.14,7.09,2.61,10.4,4.41,1.27.7,2.53,1.44,3.71,2.28,1.23.89,2.38,2.03,2.86,3.51.42,1.22.29,2.55-.08,3.76-.55,1.83-1.51,3.49-2.5,5.11-.07.1-.13.23-.25.29-2.12,1.06-4.47,1.59-6.83,1.76-1.78.08-3.57.02-5.34-.22-2.14-.25-4.23-.84-6.38-1.07-1.92-.26-3.87-.28-5.81-.19-3.41.27-6.82,1.23-9.74,3.05-1.43.9-2.73,2.02-3.76,3.36-1.12,1.45-1.91,3.2-2.04,5.04-.15,1.48.25,2.98.98,4.26.63,1.1,1.51,2.05,2.51,2.83,1.24.98,2.65,1.73,4.09,2.38,2.98,1.29,6.12,2.14,9.28,2.87.91.19,1.77.55,2.65.85,2.75.99,5.45,2.16,7.94,3.69,1.89,1.15,3.65,2.51,5.2,4.09,2.68,2.73,4.64,6.14,5.75,9.8,1.33,4.45,1.57,9.24.58,13.78-.71,3.22-2.01,6.33-3.92,9.02-2.1,3-4.9,5.51-8.11,7.26-3.51,1.92-7.45,2.97-11.43,3.28-5.35.4-10.84-.49-15.69-2.84-.61-.32-1.27-.66-1.98-.55-.4.09-.83.24-1.09.58-1.84,2.68-4.44,4.81-7.37,6.22-3.02,1.44-6.44,2.14-9.77,1.67-.69-.13-1.24-.79-1.19-1.49-.02-.67.49-1.17.78-1.73.88-1.51,1.43-3.19,1.87-4.87.57-2.08,1.41-4.14,2.87-5.77.44-.5.95-.93,1.5-1.3-2.35-1.16-4.17-3.14-5.6-5.28-1.03-1.49-1.88-3.1-2.94-4.57-.67-.97-1.44-1.87-2.26-2.71-.3-.32-.69-.58-.9-.99-.29-.54-.26-1.27.15-1.74.3-.39.79-.53,1.25-.62,3.65-.9,7.53-.4,11,.95,4.06,1.59,7.62,4.4,10.12,7.96.62,1.09,1.51,2.02,2.62,2.62,2.29,1.25,4.95,1.69,7.54,1.68,3.45-.04,6.99-.99,9.74-3.14,1.12-.89,2.08-1.98,2.78-3.22,1.13-1.98,1.53-4.37,1.09-6.6-.51-2.88-2.25-5.43-4.46-7.29-2.33-1.97-5.13-3.28-7.99-4.3-1.01-.32-2.02-.67-3.05-.93-1.58-.45-3.13-1.01-4.69-1.52-1.63-.54-3.21-1.2-4.81-1.81.38-.42.77-.83,1.07-1.31.72-.98,1.4-2.02,1.79-3.18.28-.83.08-1.74-.37-2.47-.81-1.35-2.09-2.36-3.47-3.09-1.17-.57-2.44-1.01-3.76-.98-.89.02-1.84.51-2.18,1.36-.43.97-.41,2.06-.43,3.1-.02.64,0,1.27.03,1.91-.09-.06-.19-.12-.27-.19-2.08-1.83-3.86-4-5.24-6.4-.07-.12-.18-.21-.28-.31v-.02c-.11-.63-.58-1.1-.79-1.69-.23-.63-.54-1.22-.76-1.85-1.4-3.75-2.02-7.78-1.92-11.78.02-.49.11-1-.02-1.49.02-.03.07-.08.1-.11.26-4.11,1.3-8.18,3.19-11.84,2.5-4.89,6.61-8.86,11.42-11.46Z"/>
        <path class="cls-185" d="M269.76,131.5c.91-.2,1.86,0,2.68.42,1.13.62,1.95,1.78,2.13,3.06.04.3.09.61-.02.9-.08-1.18-.93-2.24-2.03-2.63-1.07-.4-2.34-.21-3.23.51-.91.74-1.38,1.99-1.14,3.14.24,1.23,1.23,2.27,2.45,2.53.51.14,1.04.05,1.56-.02-.01.02-.04.07-.05.09-.31-.08-.56.15-.86.17-.75.09-1.52.08-2.23-.2-.66-.24-1.24-.68-1.72-1.19-.82-1-1.23-2.4-.86-3.67.37-1.57,1.73-2.86,3.33-3.11Z"/>
        <path class="cls-44" d="M269.28,133.77c.89-.73,2.16-.91,3.23-.51,1.1.39,1.95,1.45,2.03,2.63.08,1.03-.45,2.02-1.17,2.72-.34.35-.77.57-1.19.81h-.03c-.52.07-1.05.16-1.56.02-1.23-.26-2.21-1.31-2.45-2.53-.25-1.15.23-2.4,1.14-3.14Z"/>
        <path class="cls-71" d="M272.3,134.25c.54-.18,1.21.17,1.29.75.14.62-.49,1.27-1.11,1.16-.48-.06-.85-.5-.87-.98.03-.41.29-.82.69-.94Z"/>
        <path class="cls-119" d="M256.1,138.31c.23-.07.5.07.56.31.17.62.24,1.27.48,1.87.37.91.87,1.77,1.46,2.56.22.3.51.55.73.86.14.18.09.49-.12.6-.22.13-.49.04-.7-.06-.44-.22-.79-.58-1.15-.91-.71-.66-1.16-1.57-1.44-2.49-.25-.74-.3-1.55-.14-2.31.03-.18.14-.36.32-.43Z"/>
        <path class="cls-99" d="M252.45,138.59c.29-.04.55.23.54.52.09,1.13.46,2.21.88,3.25.42.96,1.03,1.81,1.68,2.62.25.31.57.55.85.84.25.23.08.72-.26.75-.36.04-.69-.17-1-.33-2.23-1.36-3.52-4.1-3.22-6.69.05-.36.11-.87.54-.96Z"/>
        <path class="cls-77" d="M249.35,142.25c.24-.07.46.12.51.34.16.59.34,1.18.64,1.72.48,1.04,1.17,1.98,1.98,2.78.25.27.76.46.65.92-.07.32-.49.31-.73.22-2.08-.79-3.47-2.99-3.48-5.19.03-.3.07-.72.43-.8Z"/>
        <path class="cls-124" d="M288.03,144.41c2.36-.17,4.71-.7,6.83-1.76-.46.89-1.1,1.66-1.67,2.47-.53.68-1.05,1.37-1.63,2.02-.94.97-1.86,1.96-2.91,2.81-2.74,2.35-6.21,3.83-9.81,4.16-1.78.19-3.59.11-5.36-.16-1.38-.16-2.75-.4-4.12-.56-1.21-.15-2.48-.11-3.62.37-1.42.59-2.5,1.92-2.77,3.44-.3,1.27-.06,2.63.58,3.76.75,1.39,1.97,2.44,3.29,3.27,1.28.82,2.68,1.44,4.08,2.02.3.15.64.24.9.46-3.16-.72-6.3-1.58-9.28-2.87-1.44-.65-2.85-1.4-4.09-2.38-1-.78-1.88-1.73-2.51-2.83-.73-1.28-1.13-2.78-.98-4.26.13-1.84.92-3.59,2.04-5.04,1.03-1.34,2.33-2.46,3.76-3.36,2.92-1.82,6.32-2.78,9.74-3.05,1.94-.09,3.88-.07,5.81.19,2.15.24,4.24.82,6.38,1.07,1.77.24,3.56.3,5.34.22Z"/>
        <path class="cls-25" d="M275.15,145.45c.18.02.39.06.49.23.22.31.49.57.79.8-.08.19-.19.37-.33.53-.14-.03-.27-.05-.41-.08-.08-.07-.15-.13-.22-.2-.21-.2-.39-.42-.58-.63.13-.18.26-.38.26-.62v-.04Z"/>
        <path class="cls-89" d="M274.89,146.11c-.08-.25-.01-.52.26-.62,0,.24-.12.44-.26.62Z"/>
        <path class="cls-173" d="M276.1,147.01c.13-.16.25-.34.33-.53.55.43,1.19.73,1.82,1.02-.22.01-.45-.03-.66-.11-.06.12-.13.25-.19.37.05.11.11.22.17.34-.69-.28-1.34-.66-1.88-1.17.14.02.27.05.41.08Z"/>
        <path class="cls-128" d="M275.35,147.07c.02-.12.06-.23.12-.33.07.07.15.13.22.2.54.51,1.2.89,1.88,1.17.02,0,.05.02.07.03.22.09.45.18.68.26-.13.14-.26.27-.42.38-.63.43-1.24.93-1.97,1.2-.33.13-.83-.02-.88-.42-.1-.84.18-1.66.3-2.48Z"/>
        <path class="cls-25" d="M277.59,147.39c.21.08.43.12.66.11.19.02.38.1.56.15h0c0,.05-.02.13-.03.17.24.06.48.11.72.15-.29,0-.55.11-.78.28-.36.09-.72-.33-1.08-.12-.02,0-.05-.02-.07-.03-.06-.11-.11-.22-.17-.34.06-.12.12-.25.19-.37Z"/>
        <path class="cls-110" d="M282.83,147.75c.22-.05.49-.18.69-.02.24.16.2.57-.05.69-.31.14-.65.22-.99.28-1.1.19-2.23.13-3.33-.09-.28-.06-.55-.13-.82-.22-.23-.08-.46-.16-.68-.26.36-.21.71.21,1.08.12.23-.17.49-.28.78-.28-.24-.04-.48-.1-.72-.15,0-.04.03-.12.03-.15,1.31.33,2.7.46,4.02.09Z"/>
        <path class="cls-100" d="M227.49,153.46c1.7-1.95,3.66-3.71,5.93-4.96.13.49.04.99.02,1.49-.09,4,.52,8.03,1.92,11.78.22.63.53,1.23.76,1.85.21.59.68,1.06.79,1.69-.57-.41-1.11-.86-1.72-1.21-2.81-1.71-6.14-2.48-9.41-2.36-.52.04-1.09-.05-1.49-.41-.39-.34-.51-.9-.43-1.4.11-.63.34-1.24.59-1.82.77-1.69,1.84-3.23,3.04-4.64Z"/>
        <path class="cls-164" d="M279.15,148.61c1.09.22,2.22.28,3.33.09-.31.81-.69,1.6-1.22,2.29-.18.24-.51.45-.82.33-.26-.08-.37-.35-.47-.57-.16-.37-.38-.71-.5-1.1-.12-.34-.15-.71-.31-1.04Z"/>
        <path class="cls-100" d="M243.12,167.22c.35-.86,1.29-1.34,2.18-1.36,1.31-.03,2.59.41,3.76.98,1.38.73,2.66,1.73,3.47,3.09.45.73.64,1.65.37,2.47-.39,1.16-1.07,2.2-1.79,3.18-.3.48-.7.89-1.07,1.31-1.02,1.14-2.21,2.13-3.53,2.9-.66.39-1.38.69-2.14.84-.55.12-1.17-.11-1.48-.58-.24-.34-.28-.77-.26-1.18.16-2.2.22-4.42.1-6.63-.03-.64-.05-1.27-.03-1.91.02-1.04,0-2.13.43-3.1Z"/>
        <path class="cls-124" d="M259.53,180.22c1.03.26,2.03.61,3.05.93,2.86,1.01,5.66,2.32,7.99,4.3,2.22,1.86,3.96,4.41,4.46,7.29.44,2.24.03,4.62-1.09,6.6-.7,1.24-1.67,2.33-2.78,3.22-2.75,2.15-6.28,3.1-9.74,3.14-2.59,0-5.24-.43-7.54-1.68-1.11-.6-2.01-1.53-2.62-2.62,3.11.44,6.34.26,9.31-.8,2.02-.75,3.93-1.9,5.35-3.55.72-.89,1.35-1.87,1.74-2.95,1.04-2.65.7-5.78-.88-8.14-1.03-1.62-2.49-2.93-4.11-3.94-.87-.52-1.76-1.01-2.68-1.45-.17-.09-.34-.18-.46-.34Z"/>
      </g>
      <g>
        <path class="cls-160" d="M178.5,119.18c3.96-1.16,8.18-1.35,12.25-.68,2.86.5,5.64,1.47,8.15,2.93.68.44,1.38.86,2,1.4,1.49,1.21,2.67,2.78,3.48,4.51.75,1.67,1.24,3.45,1.55,5.25.32,1.8.41,3.63.47,5.45,0,.86.15,1.73.44,2.54.23.67.93.96,1.4,1.43.59.52.98,1.27,1.01,2.06.02.64-.03,1.31-.32,1.9-.29.55-.67,1.08-1.2,1.43-1.17.82-2.72.95-4.08.6-.75-.24-1.46-.62-2.08-1.1-.19-.15-.4-.26-.62-.38-.02.05-.05.14-.07.18-.02-.05-.05-.15-.07-.19-.49.1-.78.53-1.17.8-.33.24-.68.44-1.04.63-.31.07-.61.16-.93.21-.86.11-1.75-.03-2.54-.39-.48-.23-.88-.59-1.29-.91-.3-.25-.74-.48-1.11-.23-.5.36-.96.78-1.49,1.1-.33.19-.7.3-1.07.37-1.12.18-2.33,0-3.29-.65-.31-.21-.57-.48-.86-.72-.33-.29-.89-.34-1.22-.04-.59.5-1.18,1.04-1.95,1.26-.65.17-1.33.24-2,.22-.36-.07-.69-.21-1.04-.32-.02.18-.04.37-.07.55,0-.19,0-.38,0-.57-.41-.28-.81-.57-1.17-.91-.19-.17-.38-.36-.63-.44-.28-.07-.54.07-.76.23-.39.33-.8.66-1.26.88-.8.4-1.72.57-2.61.48-.21-.03-.42-.08-.62-.14-.6-.19-1.17-.48-1.64-.91-.27-.21-.49-.54-.86-.55-.06.11-.1.23-.14.35,0-.13,0-.26,0-.39-.63.13-1.06.64-1.6.93-1.03.56-2.24.78-3.4.6-1.09-.2-2.13-.77-2.79-1.67-.46-.67-.73-1.49-.66-2.32.03-1.08.69-2.07,1.6-2.61.94-.62,1.1-1.85,1.25-2.87.15-2.08.35-4.17.92-6.18.53-2.09,1.41-4.11,2.67-5.87.28-.38.52-.79.87-1.12-.23,1.07-.52,2.19-.23,3.28.06.33.42.45.71.51,1.2.22,2.45-.21,3.38-.96.86-.76,1.58-1.76,1.78-2.91.1-.62.04-1.34-.44-1.79-.4-.37-1-.35-1.5-.26-.23.02-.47.12-.69,0-.22-.11-.45-.19-.68-.25.59-.45,1.21-.85,1.81-1.28,1.69-1.07,3.54-1.89,5.46-2.46Z"/>
        <path class="cls-8" d="M171.23,122.92c.24.06.46.14.68.25.21.12.46.02.69,0,.5-.09,1.1-.11,1.5.26.48.45.54,1.18.44,1.79-.2,1.15-.91,2.15-1.78,2.91-.93.76-2.18,1.18-3.38.96-.29-.06-.65-.18-.71-.51-.28-1.09,0-2.21.23-3.28.65-.9,1.51-1.63,2.32-2.38Z"/>
        <path class="cls-130" d="M196.06,123.21c.46-.14.97-.07,1.41.11.83.39,1.4,1.29,1.36,2.2.01.93-.83,1.81-1.77,1.76-.67-.01-1.36-.31-1.73-.88-.35-.54-.55-1.2-.44-1.83.1-.62.58-1.15,1.16-1.36Z"/>
        <path class="cls-80" d="M201.13,128c.65-.09,1.36.19,1.76.71.44.66.48,1.65-.1,2.25-.35.32-.85.4-1.31.4-1.12-.04-1.91-1.35-1.5-2.37.18-.5.61-.92,1.15-1Z"/>
        <path class="cls-41" d="M191.43,130.22c.14-.27.46-.33.73-.35.78,0,1.53.49,1.84,1.2.11.26-.32.45-.45.21-.25-.35-.55-.7-1-.77-.37-.15-.92.17-1.12-.29Z"/>
        <path class="cls-176" d="M173.75,131.19c.25-.92,1.3-1.54,2.21-1.23.25.03.28.49,0,.5-.41.02-.87-.02-1.22.23-.26.15-.34.47-.56.65-.18.13-.32-.06-.44-.16Z"/>
        <path class="cls-126" d="M174.34,134.03c1.04-.85,2.77-.58,3.49.56.79,1.08.42,2.78-.74,3.44-.58.38-1.31.49-1.97.29-.27-.1-.55-.21-.79-.37-1.28-.9-1.2-3,0-3.92Z"/>
        <path class="cls-118" d="M191.18,133.67c1.07-.39,2.38.07,2.93,1.08.51.87.4,2.03-.23,2.81-.4.53-1.06.8-1.71.87-.85.03-1.75-.36-2.22-1.1-.65-.95-.48-2.35.35-3.14.25-.24.55-.42.87-.53Z"/>
        <path class="cls-113" d="M174.23,135.31c-.14-.52.38-1.1.92-.93.45.09.81.57.64,1.03-.11.34-.45.49-.75.59-.37-.06-.76-.28-.81-.69Z"/>
        <path class="cls-79" d="M190.89,134.43c.5-.2,1.12.25,1.06.78.02.59-.77.94-1.21.59-.49-.32-.42-1.18.16-1.37Z"/>
        <path class="cls-94" d="M171.82,138.29c.67-.47,1.66-.54,2.34-.06.22.16.42.35.59.56.34.47.36,1.14.06,1.64-.46.82-1.54,1.14-2.41.87-.68-.18-1.26-.77-1.29-1.49-.06-.59.26-1.17.72-1.53Z"/>
        <path class="cls-150" d="M174.33,137.96c.25.16.52.27.79.37.1.05.2.11.29.16-.15.02-.3.03-.46.05-.07.09-.14.18-.21.26-.17-.21-.37-.4-.59-.56l.16-.28Z"/>
        <path class="cls-35" d="M193.64,138.08c.55.12,1.08-.23,1.63-.05.72.14,1.26.8,1.34,1.51.09.68-.38,1.32-.96,1.62-.77.43-1.81.31-2.44-.3-.47-.4-.62-1.11-.38-1.68.18-.42.49-.78.81-1.09Z"/>
        <path class="cls-153" d="M181.61,138.69c-.15-.25.16-.58.41-.41.17.23.22.53.41.74.63.76,1.9.88,2.67.27.33-.24.49-.62.66-.97.18-.2.43-.01.51.18-.17.66-.64,1.23-1.25,1.53-1.22.65-3.01.06-3.42-1.32Z"/>
        <path class="cls-159" d="M170.2,146.45c.36.01.59.35.86.55.47.43,1.04.71,1.64.91-.18.24-.38.47-.54.72-.7-.17-1.28-.61-1.88-.99-.08.18-.17.37-.26.55-.02-.06-.07-.18-.09-.25-.06.05-.11.09-.16.14,0-.07,0-.21,0-.29.07-.34.21-.67.31-1.01.04-.12.08-.24.14-.35Z"/>
        <path class="cls-24" d="M177.19,146.7c.22-.16.48-.3.76-.23.25.08.44.27.63.44.36.34.77.62,1.17.91,0,.19,0,.38,0,.57,0,.08,0,.24,0,.32-.95-.37-1.72-1.05-2.49-1.69-.02-.11-.05-.21-.07-.32Z"/>
        <path class="cls-36" d="M184.81,146.67c.34-.31.89-.26,1.22.04.29.24.55.51.86.72.96.64,2.16.83,3.29.65.13,0,.26.01.4.02-.03.27.1.68-.23.81-1.19.29-2.45,0-3.5-.6-.51-.26-.86-.74-1.37-.99-.43-.01-.7.41-1.05.61-.23.14-.48.24-.68.4-.03.12-.04.24-.04.37-.04-.09-.08-.18-.13-.27-.82.3-1.69.49-2.57.56-.05.26-.1.51-.15.77-.04-.54,0-1.07,0-1.61.67.02,1.35-.05,2-.22.76-.21,1.36-.76,1.95-1.26Z"/>
        <path class="cls-168" d="M192.73,146.6c.37-.25.81-.02,1.11.23-.05.34-.09.67-.09,1.01-.21-.1-.41-.23-.63-.28-.61.33-1.13.83-1.81,1.04-.01-.3-.03-.6-.06-.9.53-.33.98-.75,1.49-1.1Z"/>
        <path class="cls-3" d="M199.64,147.3c.39-.27.68-.7,1.17-.8.02.05.05.15.07.19.07.2.14.39.19.6-.08.12-.18.22-.29.3-.5.36-1.01.7-1.55.99.08.13.15.27.23.4-.08.19-.15.37-.23.56-.25-.53-.43-1.08-.62-1.63.36-.19.71-.39,1.04-.63Z"/>
        <path class="cls-187" d="M193.84,146.83c.42.32.81.69,1.29.91,0,.28.02.56.04.85-.49-.2-.95-.46-1.43-.68v-.06c0-.34.04-.68.1-1.01Z"/>
        <path class="cls-134" d="M177.26,147.02c.77.64,1.54,1.32,2.49,1.69-.09,1.35-.46,2.66-.98,3.91-.39.75-.78,1.55-1.48,2.06-.35.26-.81.31-1.22.25-.48-.09-.85-.52-.91-.99-.03-.32.14-.61.35-.84,1.03-1.12,1.57-2.62,1.72-4.12.05-.65,0-1.3.04-1.95Z"/>
        <path class="cls-66" d="M201.07,147.29c.09.59.32,1.14.62,1.66.53,1.03,1.45,1.84,2.53,2.25.7.25.83,1.27.33,1.76-.41.4-1.05.51-1.59.36-.92-.24-1.7-.84-2.3-1.57-.6-.64-1-1.44-1.43-2.19.08-.19.15-.38.23-.56-.08-.14-.15-.27-.23-.4.54-.3,1.05-.64,1.55-.99.12-.08.21-.19.29-.3Z"/>
        <path class="cls-86" d="M184.43,147.92c.35-.19.63-.62,1.05-.61.51.25.86.74,1.37.99,0,.19,0,.38,0,.56-.84.14-1.68-.09-2.45-.41.01-.18.02-.36.02-.54Z"/>
        <path class="cls-109" d="M191.31,148.6c.68-.21,1.2-.71,1.81-1.04.22.05.42.18.63.28v.06c-.1,1.6.27,3.24,1.19,4.57.23.33.55.59.74.95.18.37.05.78-.02,1.16-.26.2-.52.43-.86.44-.45.06-.87-.14-1.26-.34-1.09-1.03-1.66-2.48-1.98-3.92-.15-.7-.21-1.41-.24-2.12v-.04Z"/>
        <path class="cls-43" d="M170.27,147.65c.6.38,1.18.81,1.88.99l-.02.04c-.36,1.09-1.03,2.07-1.81,2.91-.37.36-.69.77-1.14,1.03-.44.26-.9.49-1.4.6-.55.09-1.17-.12-1.5-.59-.35-.51-.11-1.27.45-1.52.79-.35,1.48-.89,2.04-1.54.4-.54.71-1.14.99-1.75,0,.07,0,.21,0,.29.05-.05.11-.09.16-.14.02.06.07.18.09.25.08-.18.17-.37.26-.55Z"/>
        <path class="cls-131" d="M173.32,148.05c.89.1,1.8-.08,2.61-.48,0,.31,0,.62-.04.93-.33.21-.74.2-1.12.28-.51.09-1.03.15-1.55.16,0-.04.02-.12.02-.17.03-.24.06-.49.08-.73Z"/>
        <path class="cls-123" d="M190.18,148.08c.37-.07.74-.18,1.07-.37.03.3.05.6.06.9v.04c-.09.02-.18.05-.27.08-.16.05-.31.09-.46.17-.13.61-.03,1.23-.06,1.85-.06,2.21.51,4.36.98,6.49.44,1.82.75,3.68.9,5.55.07,1.51-.03,3.05-.43,4.51-.12.44-.2.89-.23,1.34-.16,1.1-.23,2.22-.15,3.33-.12,1.87-.78,3.64-.95,5.5-.14,1.79-.13,3.6.18,5.37.45,2.72,1.28,5.4,1.34,8.18.16,2.63-.22,5.28-.95,7.8-.83,2.87-2.12,5.63-3.94,8-2.06,2.61-4.89,4.58-7.99,5.76-1.03.4-2.1.65-3.18.87-1.17.23-2.37.31-3.54.56-.57.11-1.12.31-1.69.45-.88.09-1.76.14-2.62.32-1.45.27-2.81.9-4,1.76-1.13.87-2.04,1.98-3.15,2.88-1.56,1.32-3.55,2.32-5.64,2.24-.88.02-1.78-.18-2.52-.65-.62-.48-1.24-1.2-1.11-2.05,0-.58.37-1.09.84-1.39.54-.38,1.23-.36,1.85-.32.78,0,1.58.04,2.35-.17.84-.22,1.66-.54,2.36-1.05.81-.55,1.5-1.26,2.26-1.89,1.19-1.02,2.58-1.82,4.07-2.32,2.19-.68,4.5-.64,6.75-.95,1.92-.23,3.83-.61,5.61-1.37,1.39-.57,2.69-1.33,3.91-2.21,2.45-1.86,4.46-4.28,5.87-7.01.88-1.8,1.46-3.73,1.83-5.69.23-1.18.26-2.39.32-3.59,0-1.34-.1-2.68-.2-4.02-.07-.6-.13-1.21-.26-1.81-.14-.66-.71-1.08-1.06-1.62-.83-1.17-1.12-2.62-1.24-4.03-.05-.57-.05-1.14,0-1.71.11-1.56.4-3.12.95-4.6.42-1.21.95-2.4,1.19-3.67.14-.74.21-1.5.18-2.26-.01-.66-.17-1.3-.27-1.95-.1-1.34-.34-2.67-.54-4-.1-.69-.32-1.37-.3-2.07-.02,0-.06-.02-.07-.03-.27-1.34-.64-2.65-.88-3.99-.12-.71-.28-1.41-.37-2.12-.04-.83-.15-1.66-.15-2.49,0-.59.02-1.18.03-1.77,0-.19,0-.38,0-.56,1.05.6,2.31.88,3.5.6.33-.12.2-.54.23-.81-.13,0-.26-.01-.4-.02Z"/>
        <path class="cls-112" d="M195.13,147.75c.79.36,1.68.5,2.54.39.02.22.04.45.07.67-.55.3-1.22.34-1.81.14-.25-.08-.49-.16-.74-.23,0-.04-.01-.08-.02-.12-.03-.28-.03-.56-.04-.85Z"/>
        <path class="cls-96" d="M172.7,147.91c.2.06.41.11.62.14-.02.24-.05.49-.08.73-.37.02-.74-.03-1.1-.11l.02-.04c.17-.25.36-.48.54-.72Z"/>
        <path class="cls-74" d="M183.75,148.33c.21-.17.46-.27.68-.4,0,.18-.01.36-.02.54-.07.76-.14,1.53.03,2.28.26,1.18.69,2.35.73,3.57.04.97-.16,1.94-.27,2.9-.07.52-.11,1.04-.17,1.57-.57,1.55-.66,3.22-.62,4.86.1,2.77,1,5.42,1.66,8.09.21.81.26,1.66.53,2.46-.08,1.3-.35,2.58-.53,3.87-.28,1.64-.3,3.32-.21,4.98.2,1.82.61,3.61.65,5.44.12,1.47.03,2.95-.1,4.41-.12,1.38-.42,2.74-.75,4.09-.5,1.89-1.38,3.66-2.47,5.28-1.94,2.84-4.99,4.87-8.31,5.71-1.99.54-4.08.6-6.13.47-.55-.03-1.1-.05-1.65-.05-.23-.21-.47-.44-.76-.56-.43-.17-.89-.19-1.34-.24-1.79-.18-3.59-.42-5.32-.92-1.22-.36-2.46-.76-3.54-1.46.82.14,1.62.43,2.46.44,1.35.12,2.65-.35,3.98-.49.6-.08,1.21-.12,1.8-.22.76.11,1.53.05,2.3.14,1.81.21,3.66.34,5.47.06,1.23-.21,2.43-.56,3.57-1.07,2.26-1.07,4.21-2.85,5.39-5.07,1.38-2.49,1.8-5.38,1.79-8.19-.05-2.29-.27-4.58-.09-6.87.07-1.42.36-2.83.55-4.24.24-1.64.22-3.32-.05-4.95-.42-2.25-1.36-4.35-1.9-6.56-.35-1.31-.54-2.67-.65-4.02-.16-2.29.14-4.61.88-6.78.49-1.54,1.24-2.98,1.68-4.53.43-1.35.68-2.76.7-4.18,0-.13.02-.25.04-.37Z"/>
        <path class="cls-84" d="M181.01,148.99c.88-.07,1.74-.26,2.57-.56.04.09.08.18.13.27-.02,1.42-.27,2.83-.7,4.18-.44,1.55-1.19,2.99-1.68,4.53-.74,2.17-1.04,4.49-.88,6.78.11,1.35.3,2.71.65,4.02.54,2.21,1.49,4.31,1.9,6.56.27,1.64.28,3.31.05,4.95-.2,1.41-.48,2.81-.55,4.24-.17,2.29.05,4.58.09,6.87.01,2.81-.41,5.7-1.79,8.19-1.18,2.22-3.13,3.99-5.39,5.07-1.13.51-2.34.87-3.57,1.07-1.81.28-3.66.16-5.47-.06-.76-.1-1.54-.04-2.3-.14-2.27-.59-4.48-1.64-6.16-3.31-1.42-1.48-2.41-3.47-2.41-5.55-.06-1.35.45-2.75,1.46-3.66.63-.56,1.52-.83,2.34-.66.46.13.88.42,1.15.82.35.57.36,1.28.18,1.91-.2.73-.36,1.49-.24,2.25.11,1.23.74,2.38,1.66,3.19,1.58,1.47,3.77,2.14,5.9,2.22,1.79.07,3.57-.33,5.21-1.03,2.34-.99,4.23-2.91,5.38-5.16.75-1.47,1.12-3.12,1.15-4.76.04-1.26-.07-2.51-.14-3.76-.12-1.91-.12-3.83,0-5.75.05-1.67.35-3.32.43-4.98.05-1.17-.06-2.33-.23-3.49-.37-2.28-1.21-4.46-1.49-6.75-.27-1.81-.28-3.67,0-5.48.44-3.12,1.93-5.99,2.32-9.13.12-.7.15-1.41.24-2.11.06-.26.11-.51.15-.77Z"/>
        <path class="cls-122" d="M174.77,148.79c.37-.08.78-.07,1.12-.28-.18,1.04-.42,2.09-.88,3.05-.38.86-.81,1.71-1.5,2.36-.38.35-.75.8-1.29.87-.48.07-1.06.11-1.43-.28-.37-.39-.44-1.08-.06-1.49.21-.21.48-.34.69-.54.99-.93,1.55-2.22,1.79-3.54.52-.01,1.04-.07,1.55-.16Z"/>
        <path class="cls-158" d="M184.41,148.46c.77.32,1.61.55,2.45.41-.01.59-.03,1.18-.03,1.77,0,.83.11,1.66.15,2.49-.03.22-.07.44-.11.66-.5.05-1.18-.08-1.44.47-.09.02-.18.03-.27.05-.04-1.22-.47-2.39-.73-3.57-.16-.75-.1-1.52-.03-2.28Z"/>
        <path class="cls-53" d="M190.58,148.89c.14-.08.3-.12.46-.17.08,1.39-.15,2.79.08,4.18.07,1.04.46,2.02.78,3,.46,1.22,1.02,2.39,1.66,3.52.4.69.67,1.44.91,2.19,1.02,3.4,1.29,7.03.77,10.55-.19,1.53-.68,3.01-.9,4.54-.19,1.12-.13,2.26-.13,3.39.13,1.94.56,3.85.99,5.74.25,1.34.43,2.69.57,4.04.17,2.4.02,4.82-.45,7.18-.73,3.26-1.81,6.48-3.53,9.36-.95,1.66-2.09,3.22-3.46,4.56-1.71,1.67-3.69,3.08-5.87,4.09-1.51.73-3.1,1.26-4.74,1.61-1.75.43-3.61.41-5.3,1.08-.94.35-1.77.95-2.44,1.69-.5.54-.83,1.2-1.17,1.85-.35.65-.82,1.28-1.5,1.6-.52.28-1.14.33-1.71.23-.62-.17-1.17-.64-1.34-1.27-.28-.78,0-1.65.51-2.27,1.05-1.29,2.05-2.65,3.42-3.63.81-.65,1.75-1.08,2.69-1.5.57-.14,1.12-.33,1.69-.45,1.17-.25,2.37-.32,3.54-.56,1.08-.22,2.15-.47,3.18-.87,3.1-1.18,5.93-3.15,7.99-5.76,1.82-2.37,3.11-5.13,3.94-8,.73-2.53,1.11-5.17.95-7.8-.07-2.78-.89-5.46-1.34-8.18-.3-1.77-.32-3.58-.18-5.37.17-1.86.83-3.64.95-5.5.21-.82.22-1.67.24-2.51,0-.28-.05-.55-.09-.82.03-.46.11-.91.23-1.34.4-1.47.5-3,.43-4.51-.15-1.87-.46-3.72-.9-5.55-.46-2.14-1.03-4.29-.98-6.49.03-.61-.06-1.24.06-1.85Z"/>
        <path class="cls-27" d="M195.19,148.72c.25.07.49.15.74.23.59.2,1.26.16,1.81-.14h.01c.08.71.35,1.39.56,2.07.19.62.63,1.11,1.05,1.58.26.31.63.49.9.79.34.51.12,1.32-.45,1.56-.3.13-.65.22-.98.16-.36-.1-.66-.34-.95-.56-.51-.39-.82-.97-1.2-1.47-.77-1.3-1.29-2.74-1.5-4.23Z"/>
        <path class="cls-123" d="M200.68,186.34c-.19-1.06-.48-2.09-.71-3.14-.27-1.15-.47-2.31-.6-3.48-.18-1.76-.09-3.54.24-5.27.24-1.27.44-2.55.53-3.85.29-3.61-.14-7.27-1.2-10.74-.55-1.88-1.32-3.69-1.85-5.57-.13-.45-.32-.88-.4-1.34-.77-1.3-1.29-2.74-1.5-4.23,0-.04-.01-.08-.02-.12-.49-.2-.95-.46-1.43-.68-.1,1.6.27,3.24,1.19,4.57.23.33.55.59.74.95.18.37.05.78-.02,1.16-.26.2-.52.43-.86.44-.45.06-.87-.14-1.26-.34.43,1.44.99,2.84,1.55,4.23.78,2,1.4,4.07,1.67,6.21.24,1.56.23,3.15.16,4.72-.14,1.77-.45,3.52-.81,5.26-.36,1.73-.42,3.51-.31,5.27.19,2.76,1.21,5.36,1.55,8.1.33,2.31.2,4.67-.19,6.96-.58,3.32-1.62,6.55-3,9.63-1.48,3.2-3.43,6.24-6.07,8.61-1.16,1.07-2.45,1.99-3.81,2.79-1.1.64-2.24,1.18-3.43,1.63-.5.18-.9.63-.99,1.16-.06.6.4,1.21,1,1.31.35.05.7.03,1.05,0,.46-.08.87-.32,1.31-.48,2.27-.99,4.48-2.17,6.44-3.71,2.44-1.9,4.46-4.3,6.03-6.96,2-3.34,3.44-7.01,4.38-10.78.57-2.22.94-4.49,1.03-6.77.11-1.85-.1-3.7-.42-5.52Z"/>
        <path class="cls-166" d="M184.1,163.63c-.03-1.63.06-3.31.62-4.86-.11,1.76-.03,3.54.31,5.27.29,1.82.91,3.57,1.17,5.4.24,1.31.24,2.64.18,3.97-.01.26-.06.51-.1.77-.27-.8-.31-1.65-.53-2.46-.66-2.67-1.56-5.32-1.66-8.09Z"/>
        <path class="cls-38" d="M188.23,159.24s.05.02.07.03c-.02.7.2,1.38.3,2.07.2,1.33.43,2.66.54,4-.27-1.01-.54-2.04-.67-3.08-.15-1-.17-2.02-.24-3.03Z"/>
        <path class="cls-20" d="M191.74,168.64c.05.27.1.54.09.82-.02.84-.03,1.69-.24,2.51-.08-1.11-.01-2.23.15-3.33Z"/>
        <path class="cls-149" d="M189.65,186.99c-.07-.6-.13-1.21-.26-1.81-.14-.66-.71-1.08-1.06-1.62-.83-1.17-1.12-2.62-1.24-4.03-.05-.57-.05-1.14,0-1.71.11-1.56.4-3.12.95-4.6.42-1.21.95-2.4,1.19-3.67.14-.74.21-1.5.18-2.26-.01-.66-.17-1.3-.27-1.95-.27-1.01-.54-2.04-.67-3.08-.15-1-.17-2.02-.24-3.03-.27-1.34-.64-2.65-.88-3.99-.12-.71-.28-1.41-.37-2.12-.03.22-.07.44-.11.66-.5.05-1.18-.08-1.44.47-.09.02-.18.03-.27.05.04.97-.16,1.94-.27,2.9-.07.52-.11,1.04-.17,1.57-.11,1.76-.03,3.54.31,5.27.29,1.82.91,3.57,1.17,5.4.24,1.31.24,2.64.18,3.97-.01.26-.06.51-.1.77-.08,1.3-.35,2.58-.53,3.87-.28,1.64-.3,3.32-.21,4.98.2,1.82.61,3.61.65,5.44.12,1.47.03,2.95-.1,4.41-.12,1.38-.42,2.74-.75,4.09-.5,1.89-1.38,3.66-2.47,5.28-1.94,2.84-4.99,4.87-8.31,5.71-1.99.54-4.08.6-6.13.47-.55-.03-1.1-.05-1.65-.05-1.83-.03-3.66.1-5.44.53-.99.21-1.94.58-2.91.85-1.73.58-3.57.94-5.4.68-.77-.1-1.5-.39-2.22-.69-.51-.21-.9-.6-1.31-.94-.61-.51-1.46-.73-2.24-.56-.65.14-1.2.65-1.39,1.29-.24.81-.05,1.7.4,2.4.54.81,1.3,1.46,2.18,1.86,1.42.76,3.06.93,4.65.93,1.1-.05,2.21-.15,3.29-.4,1.57-.36,3.08-.94,4.58-1.53.84-.34,1.72-.58,2.6-.78.65-.12,1.31-.15,1.96-.21,2.19-.68,4.5-.64,6.75-.95,1.92-.23,3.83-.61,5.61-1.37,1.39-.57,2.69-1.33,3.91-2.21,2.45-1.86,4.46-4.28,5.87-7.01.88-1.8,1.46-3.73,1.83-5.69.23-1.18.26-2.39.32-3.59,0-1.34-.1-2.68-.2-4.02Z"/>
        <path class="cls-50" d="M145.72,197.54c.41-.87,1.32-1.54,2.31-1.51.53-.04,1.05.17,1.45.51.69.54,1.02,1.4,1.24,2.22.44,1.81,1.46,3.46,2.77,4.77.72.64,1.49,1.24,2.35,1.69,1.08.7,2.32,1.1,3.54,1.46,1.73.5,3.53.74,5.32.92.45.05.91.08,1.34.24.3.12.53.34.76.56-1.83-.03-3.66.1-5.44.53-.99.21-1.94.58-2.91.85-.49-.12-.99-.22-1.48-.33-2.49-.65-4.88-1.75-6.94-3.31-.86-.59-1.61-1.34-2.33-2.09-1.1-1.24-2.01-2.72-2.26-4.38-.08-.72-.05-1.48.28-2.13Z"/>
        <path class="cls-90" d="M197.35,188.47c-.35-2.73-1.36-5.34-1.55-8.1-.11-1.76-.06-3.54.31-5.27.36-1.74.67-3.49.81-5.26.07-1.57.08-3.16-.16-4.72-.27-2.14-.89-4.21-1.67-6.21-.56-1.39-1.12-2.79-1.55-4.23-1.09-1.03-1.66-2.48-1.98-3.92-.15-.7-.21-1.41-.24-2.12-.09.02-.18.05-.27.08.08,1.39-.15,2.79.08,4.18.07,1.04.46,2.02.78,3,.46,1.22,1.02,2.39,1.66,3.52.4.69.67,1.44.91,2.19,1.02,3.4,1.29,7.03.77,10.55-.19,1.53-.68,3.01-.9,4.54-.19,1.12-.13,2.26-.13,3.39.13,1.94.56,3.85.99,5.74.25,1.34.43,2.69.57,4.04.17,2.4.02,4.82-.45,7.18-.73,3.26-1.81,6.48-3.53,9.36-.95,1.66-2.09,3.22-3.46,4.56-1.71,1.67-3.69,3.08-5.87,4.09-1.51.73-3.1,1.26-4.74,1.61-.48.33-1.06.51-1.51.9-.47.41-.88.93-.97,1.57-.13.74.26,1.53.91,1.91.82.55,1.86.52,2.79.39,1.03-.17,2.04-.46,2.99-.88-.35.03-.7.05-1.05,0-.6-.1-1.06-.71-1-1.31.09-.53.49-.98.99-1.16,1.18-.45,2.33-1,3.43-1.63,1.36-.8,2.65-1.73,3.81-2.79,2.64-2.37,4.59-5.41,6.07-8.61,1.38-3.07,2.41-6.31,3-9.63.39-2.3.51-4.65.19-6.96Z"/>
      </g>
      <g>
        <path class="cls-147" d="M292.26,271.16c-1.31-3.82-3.47-7.42-6.46-10.36-2.23-2.2-4.93-4-7.88-5.31-4.08-1.79-8.61-2.51-13.09-2.8-4.24-.27-8.5-.25-12.74-.2-.59.02-1.18-.02-1.76.05-.8.02-1.59.03-2.39.05-.76.09-1.52.02-2.28.11-1.65.05-3.29.17-4.93.3-2.34.25-4.71.46-6.93,1.22-1.48.52-2.88,1.35-3.77,2.56-1.06,1.34-1.52,3-1.68,4.63-.07.64-.07,1.28-.12,1.92,0,7.38-.01,14.77,0,22.15.04.3.01.6,0,.9-.01,3.45.02,6.89-.02,10.34h0c.04.72,0,1.44.01,2.16,0,9.37,0,18.73,0,28.1-.02.8.04,1.6.1,2.4.18.98.35,2.03,1.07,2.81.37-.53.85-1,1.45-1.33,1.35-.75,2.99-.97,4.54-.8,1.15.12,2.31.47,3.21,1.16.07-1.25.03-2.51.04-3.76.02-15.02.12-30.04.14-45.07.02-1.73-.04-3.47.04-5.2.09-1.64.38-3.3,1.11-4.81.71-1.53,1.97-2.82,3.49-3.72,2.37-1.41,5.22-1.93,8.01-2.08-.1-.19-.28-.38-.25-.6.57-1.19,1.68-2.17,3.04-2.59,1.01-.33,2.12-.33,3.15-.07,1.41.39,2.62,1.36,3.2,2.59.08.23-.1.45-.21.65,4.39.17,8.83.86,12.81,2.62,2.92,1.31,5.47,3.31,7.28,5.78,1.31,1.76,2.23,3.75,2.74,5.83.56,2.17.69,4.43.48,6.65-.21,2.19-.78,4.36-1.72,6.39-1.64,3.59-4.48,6.74-8.14,8.76-1.99,1.11-4.16,1.94-6.42,2.47-2.59.62-5.26.91-7.93,1.01-2.31.1-4.63.07-6.94,0-.69.03-1.47.14-1.94.66-.62.6-.58,1.48-.56,2.25,0,7.02,0,14.03,0,21.05.91.07,1.82.23,2.64.61.75.31,1.39.83,1.85,1.45.29-.33.44-.75.6-1.14.34-1.08.41-2.2.47-3.31.03-2.05.08-4.11.09-6.16.04-2.56.08-5.13.08-7.69-.02-.26.26-.5.54-.46,1.23,0,2.46.02,3.69.02,2.2-.03,4.41-.15,6.58-.46,4.08-.56,8.09-1.72,11.68-3.6,2.83-1.45,5.36-3.35,7.53-5.54,2.29-2.33,4.11-5.03,5.4-7.93.36-.76.64-1.54.92-2.33.62-1.84,1.12-3.73,1.38-5.64.1-.76.25-1.52.3-2.28.41-4.82.06-9.74-1.53-14.37Z"/>
        <path class="cls-28" d="M243.42,256.49c.39-.07.83-.08,1.18.11.26.17.06.57-.25.5-.51-.11-1.11-.05-1.48.31-.14.12-.17.34-.38.38-.26.08-.51-.21-.38-.43.26-.45.76-.77,1.31-.88Z"/>
        <path class="cls-179" d="M267.42,256.51c.85-.22,1.88.14,2.26.89.09.21-.13.46-.38.41-.19-.06-.24-.26-.37-.37-.36-.35-.96-.45-1.46-.33-.18.06-.42-.08-.39-.27-.03-.18.18-.3.35-.33Z"/>
        <path class="cls-185" d="M242.45,259.6c.66-.43,1.54-.51,2.32-.34,1.22.28,2.13,1.33,2.28,2.45.09.29.12.6.02.89-.04-.94-.81-1.86-1.84-2.02-.78-.12-1.63.16-2.1.74-.73.87-.79,2.15-.15,3.08.47.73,1.51,1.14,2.4.83-.52.27-1.14.34-1.73.33-.97-.12-1.91-.66-2.34-1.48-.85-1.48-.45-3.58,1.15-4.49Z"/>
        <path class="cls-185" d="M266.17,259.59c.78-.48,1.84-.53,2.7-.2.52.22.96.57,1.31.97.72.98.89,2.29.38,3.39-.43,1.08-1.64,1.92-2.93,1.83-.36-.08-.78-.04-1.1-.22l-.02-.09c.74.23,1.59-.06,2.09-.59.86-.92.97-2.41.11-3.36-.5-.6-1.41-.9-2.21-.7-1.03.21-1.74,1.16-1.74,2.09-.2-.13-.12-.33-.09-.51.03-1.01.58-2.03,1.5-2.61Z"/>
        <path class="cls-83" d="M266.5,260.62c.8-.19,1.71.1,2.21.7.86.95.75,2.44-.11,3.36-.5.53-1.35.81-2.09.59-.72-.16-1.23-.7-1.53-1.29-.2-.4-.22-.84-.22-1.27,0-.93.71-1.88,1.74-2.09Z"/>
        <path class="cls-37" d="M243.13,261.33c.47-.58,1.32-.87,2.1-.74,1.04.16,1.8,1.08,1.84,2.02.13,1.07-.56,2.25-1.7,2.64-.89.3-1.93-.11-2.4-.83-.63-.93-.58-2.22.15-3.08Z"/>
        <path class="cls-71" d="M244.13,261.37c.66-.19,1.22.62.87,1.12-.11.21-.34.33-.57.39-.38.07-.78-.17-.89-.51-.17-.41.13-.89.59-1Z"/>
        <path class="cls-22" d="M266.17,261.36c.47-.14.97.24,1,.68.06.33-.17.65-.5.79-.35.16-.81.02-.99-.3-.32-.41-.05-1.05.49-1.17Z"/>
        <path class="cls-133" d="M254.23,263.38c1.01-.33,2.12-.33,3.15-.07,1.41.39,2.62,1.36,3.2,2.59.08.23-.1.45-.21.65-.67,1.03-1.77,1.85-3.05,2.17-2.19.63-4.77-.33-5.88-2.15-.1-.19-.28-.38-.25-.6.57-1.19,1.68-2.17,3.04-2.59Z"/>
        <path class="cls-157" d="M236.74,265.22c.45-.07.93-.06,1.35.11.7.26,1.21.9,1.28,1.59.03.5-.16,1.02-.55,1.37-.84.86-2.51.82-3.32-.05-.49-.57-.6-1.4-.22-2.04.26-.53.84-.87,1.45-.99Z"/>
        <path class="cls-85" d="M274.09,265.21c.59-.1,1.24.02,1.72.36.62.41.97,1.16.79,1.85-.19.9-1.2,1.56-2.19,1.5-.91,0-1.81-.59-1.99-1.42-.31-1.01.53-2.15,1.67-2.28Z"/>
        <path class="cls-167" d="M253.2,265.97c.05-.2.29-.3.49-.19.17.17.23.42.43.59.54.5,1.36.66,2.1.6.73-.06,1.47-.42,1.78-1.04.11-.29.62-.19.55.13-.28.68-.97,1.17-1.73,1.36-.81.18-1.73.17-2.47-.22-.52-.26-1-.68-1.14-1.22Z"/>
        <path class="cls-91" d="M283.2,280.77c-.51-2.08-1.43-4.07-2.74-5.83-1.81-2.47-4.36-4.47-7.28-5.78-3.98-1.76-8.42-2.45-12.81-2.62-.67,1.03-1.77,1.85-3.05,2.17-2.19.63-4.77-.33-5.88-2.15-2.78.15-5.64.67-8.01,2.08-1.52.9-2.79,2.19-3.49,3.72-.73,1.51-1.02,3.17-1.11,4.81-.08,1.73-.03,3.47-.04,5.2-.01,15.02-.11,30.04-.14,45.07-.01,1.25.03,2.51-.04,3.76.78.65,1.45,1.56,1.35,2.56.38.04.77.02,1.15,0,.61-.03,1.23.03,1.84,0,.36-.03.76.11,1.08-.07.02-1.24.96-2.34,2.11-2.94,1.17-.61,2.56-.81,3.89-.75-.01-7.01,0-14.03,0-21.05-.02-.77-.05-1.65.56-2.25.47-.51,1.25-.62,1.94-.66,2.31.07,4.63.1,6.94,0,2.67-.1,5.34-.38,7.93-1.01,2.26-.53,4.43-1.36,6.42-2.47,3.66-2.01,6.5-5.17,8.14-8.76.94-2.03,1.51-4.2,1.72-6.39.21-2.22.08-4.47-.48-6.65ZM272.28,287.65c-.69,1.83-1.98,3.48-3.68,4.65-1.46,1.01-3.18,1.69-4.97,2.04-.65.13-1.29.28-1.95.32-1.43.17-2.88.26-4.32.26-1.8-.1-3.69-.05-5.35-.78-.73-.29-1.26-.88-1.57-1.53-.35-.86-.51-1.79-.47-2.7,0-.37-.1-.74-.09-1.12,0-2.19,0-4.38,0-6.57.02-1.2-.07-2.4.1-3.59.02-1.18.14-2.47,1-3.42.74-.72,1.82-1.06,2.87-1.21.79-.15,1.6-.14,2.39-.22,1.16-.05,2.33-.02,3.5.08,2.24.09,4.5.39,6.59,1.16.91.28,1.72.76,2.52,1.23.73.51,1.43,1.06,1.97,1.73.91.99,1.47,2.21,1.83,3.44.51,2.06.37,4.24-.36,6.24Z"/>
        <path class="cls-60" d="M293.48,287.81c.1-.76.25-1.52.3-2.28,1.51.76,2.76,1.9,3.7,3.2.95,1.32,1.61,2.84,1.75,4.42.12.84.01,1.69-.13,2.52-.19.81-.51,1.63-1.15,2.23-.52.5-1.28.75-2.03.72-.71-.07-1.41-.22-2.04-.54-1.1-.54-2-1.38-2.72-2.3.36-.76.64-1.54.92-2.33.62-1.84,1.12-3.73,1.38-5.64Z"/>
        <path class="cls-121" d="M228.24,285.47c-.78.21-1.51.52-2.18.94-1.81,1.11-3.22,2.71-4.16,4.5-.8,1.56-1.18,3.32-.97,5.04.1.83.41,1.69,1.11,2.26.63.47,1.48.62,2.27.51,1.51-.2,2.88-.99,3.91-2h0c.05-3.46.01-6.9.02-10.35.01-.3.04-.6,0-.9ZM224.13,296.86c-.09.27-.49.35-.72.18-.17-.17-.1-.41,0-.6.61-1.2,1.52-2.28,2.68-3.09.16,0,.33-.03.48.01.23.09.27.43.06.56-.39.28-.76.57-1.08.92-.59.6-1.05,1.29-1.42,2.02Z"/>
        <path class="cls-114" d="M293.69,293.13c.16-.09.37-.06.51.04.5.31.86.77,1.21,1.21.36.47.71.95.9,1.5.1.29.29.59.25.9-.08.27-.47.29-.68.13-.27-.65-.6-1.29-.99-1.89-.36-.52-.84-.95-1.3-1.39-.16-.15-.06-.39.1-.5Z"/>
        <path class="cls-111" d="M226.08,293.35c.16,0,.33-.03.48.01.23.09.27.43.06.56-.39.28-.76.57-1.08.92-.59.6-1.05,1.29-1.42,2.02-.09.27-.49.35-.72.18-.17-.17-.1-.41,0-.6.61-1.2,1.52-2.28,2.68-3.09Z"/>
        <path class="cls-101" d="M230.85,330.85c1.35-.75,2.99-.97,4.54-.8,1.15.12,2.31.47,3.21,1.16.78.65,1.45,1.56,1.35,2.56-.04.5-.47.91-.98,1.04-.88.25-1.82-.14-2.44-.7-.08-.05-.13-.16-.23-.16-.19.56-.69,1.06-1.32,1.22-.51.14-1.07.04-1.54-.17-.44-.22-.73-.62-.89-1.05-.16.03-.24.19-.36.27-.5.39-1.14.68-1.81.65-.48-.03-.98-.21-1.26-.58-.41-.67-.14-1.5.29-2.1.37-.53.85-1,1.45-1.33Z"/>
        <path class="cls-101" d="M246.13,330.75c1.17-.61,2.56-.81,3.89-.75.91.07,1.82.23,2.64.61.75.31,1.39.83,1.85,1.45.34.49.58,1.05.55,1.64-.02.42-.31.81-.72,1-.65.31-1.46.19-2.07-.14-.33-.17-.6-.42-.89-.63-.15.58-.67,1.07-1.3,1.23-.53.06-1.13.09-1.6-.19-.39-.24-.68-.61-.82-1.02-.13,0-.18.12-.27.19-.54.48-1.31.8-2.08.72-.65-.05-1.27-.55-1.29-1.16.02-1.24.96-2.34,2.11-2.94Z"/>
      </g>
    </g>
  </g>
</svg>