<?xml version="1.0" encoding="UTF-8"?>
<svg id="_图层_1" data-name="图层 1" xmlns="http://www.w3.org/2000/svg" viewBox="0 0 141.83 174.16">
  <defs>
    <style>
      .cls-1 {
        fill: #d37b22;
      }

      .cls-2 {
        fill: #824d15;
      }

      .cls-3 {
        fill: #d37b21;
      }

      .cls-4 {
        fill: #d27b22;
      }

      .cls-5 {
        fill: #febe37;
      }

      .cls-6 {
        fill: #3c2714;
      }

      .cls-7 {
        fill: #d27a22;
      }

      .cls-8 {
        fill: #a86315;
      }

      .cls-9 {
        fill: #d27c23;
      }

      .cls-10 {
        fill: #faf9f9;
      }

      .cls-11 {
        fill: #fc8058;
      }

      .cls-12 {
        fill: #fd825e;
      }

      .cls-13 {
        fill: #a05f14;
      }

      .cls-14 {
        fill: #d47c22;
      }

      .cls-15 {
        fill: #824e16;
      }

      .cls-16 {
        fill: #fdfdfc;
      }

      .cls-17 {
        fill: #fefdfd;
      }

      .cls-18 {
        fill: #a96415;
      }

      .cls-19 {
        fill: #d27a21;
      }

      .cls-20 {
        fill: #fef2d7;
      }

      .cls-21 {
        fill: #3d2815;
      }

      .cls-22 {
        fill: #f8f8f9;
      }

      .cls-23 {
        fill: #a96315;
      }

      .cls-24 {
        fill: #9c5c14;
      }
    </style>
  </defs>
  <path class="cls-5" d="M138.9,22.32c-.3-1.03-1.35-1.52-2.25-1.91-3.46-1.43-7.47-1.11-10.83.44-2.09.99-4.06,2.37-5.48,4.22-1.55-1.65-3.34-3.12-5.36-4.15,0-.07.02-.23.03-.3-.03.05-.09.16-.12.21-1.36-.59-2.71-1.23-4.14-1.66-2.99-1.05-6.18-1.43-9.33-1.53-1.49,0-2.98.14-4.47.17-.01-.09-.04-.27-.05-.36-.01.09-.04.28-.05.37-1.89.18-3.75.54-5.6.95-.48-1.61-1.36-3.08-2.38-4.41-3.05-4.02-8.2-6.39-13.24-5.9-.69.06-1.44.21-1.89.79-.65.84-.89,1.93-.94,2.97-.28,2.66.24,5.36,1.2,7.84-.98.15-1.98.21-2.97.32-2.76.28-5.5.74-8.21,1.37.62,1.36.86,2.89.54,4.36-.43,2.34-1.9,4.41-3.79,5.82-.75.58-1.63.96-2.49,1.34-.96.42-1.73,1.17-2.69,1.59-1.39.62-2.88,1.07-4.41,1.05-1.45-.07-2.94-.37-4.14-1.25-1.58-1.03-2.6-2.86-2.57-4.75-2.02,1.32-4.01,2.71-5.91,4.2-3.89,3.06-7.41,6.57-10.55,10.4-2.41,2.88-4.49,6.03-6.4,9.26,1.05.46,1.99,1.15,2.77,2,1.46,1.65,2.48,3.76,2.57,5.99.15,2.28-.63,4.52-1.77,6.46-1.31,2.14-3.11,4.04-5.4,5.12-1.76.84-3.81,1.08-5.69.52-2.21,9.91-2.57,20.33-.26,30.26.74-.48,1.5-.96,2.35-1.2,1.54-.44,3.2-.43,4.76-.07,2.23.53,4.28,1.69,6.01,3.19,1.66,1.41,3.09,3.2,3.7,5.32.63,2.11.37,4.44-.57,6.43-1.44,2.99-4.08,5.51-7.32,6.41,2.77,3.9,6.09,7.44,9.91,10.34.27.18.5.44.82.54-1.05,4.38-2.16,8.75-2.91,13.2-.33,2.12-.77,4.26-.65,6.42,1.17-1.29,2.43-2.67,4.19-3.1,1.23-.35,2.52.12,3.51.86,1.42,1.06,2.37,2.58,3.3,4.05.9-.7,1.79-1.43,2.81-1.94,1.17-.62,2.54-.98,3.87-.71,1.41.33,2.43,1.48,3.23,2.62.78,1.22,1.36,2.54,1.87,3.89.9-1.47,1.2-3.21,1.63-4.86.4-2,.78-4.01.98-6.05.11-.93.31-1.84.32-2.77.12-.7.2-1.41.29-2.11.96.23,1.91.49,2.88.65,1.74.48,3.52.74,5.29,1.06,2.42.44,4.86.76,7.3,1.06h0c.45.06.9.11,1.35.15-.73,3.71-1.64,7.39-2.14,11.14-.09,1.12-.32,2.25-.2,3.38.58-.69,1.18-1.39,1.9-1.94,1.07-.91,2.47-1.6,3.92-1.41,1.51.23,2.69,1.32,3.59,2.48.64.75,1.06,1.64,1.58,2.47.96-.83,1.93-1.66,3.08-2.23,1.01-.54,2.18-.79,3.32-.62,1.29.26,2.28,1.25,3.02,2.29.72.99,1.19,2.14,1.67,3.26.37-.52.5-1.16.7-1.76,1.46-5.63,1.86-11.49,1.64-17.28.02-.04.06-.13.07-.18,3.01-.79,5.87-2.18,8.37-4.04,2.23-1.63,4.11-3.69,5.76-5.89,2.03-2.72,3.72-5.68,5.21-8.72,2.58-5.46,4.7-11.15,6.1-17.02.37-1.22.5-2.51.85-3.73.39-1.84.58-3.71.77-5.58.32-3.12.26-6.44-1.19-9.3-.54,1.65-1.43,3.17-2.62,4.43-.94,1-2.05,1.89-3.37,2.34-1.52.54-3.27.34-4.63-.52-1.43-.82-2.23-2.34-3.52-3.34-1.11-.89-2.39-1.58-3.31-2.69-1.88-2.26-2.28-5.63-.97-8.26-.38-.19-.82-.19-1.23-.23-2.36-.36-4.72-.76-7.09-1.05-2.99-.46-5.97-.95-8.96-1.37.88,3.75.07,7.94-2.32,10.99,1.99.41,4.02.68,5.97,1.28,2.13.62,4.31,1.38,6.02,2.85,1.4,1.25,2.25,3.1,2.15,4.99-.2,3.2-1.42,6.27-3.11,8.97-2.06,3.39-5.09,6.22-8.68,7.93-4.22,1.95-9.05,2.09-13.57,1.32-4.73-.79-9.29-2.6-13.28-5.24-5-3.44-9.09-8.23-11.59-13.77-2.17,2.28-5.33,3.44-8.44,3.53-2.72.1-5.54-.74-7.54-2.63-.75-.78-1.39-1.69-1.79-2.7-.89-2.18-.66-4.6-1.35-6.84-.44-1.62-1.17-3.16-1.4-4.84-.22-1.53-.27-3.12.23-4.6.55-1.92,1.8-3.57,3.34-4.8,2.16-1.7,5.14-2.45,7.8-1.61,2.53.69,4.48,2.61,6.06,4.62.12-.62.16-1.25.24-1.87.49-3.52,1.4-6.99,2.73-10.29-2.12-.2-4.07-1.29-5.64-2.69-2.53-2.34-4.28-5.51-4.99-8.88-.49-2.36-.26-4.95,1.06-7.01,1.74-2.75,4.79-4.54,7.98-4.99,1.92-.29,3.96-.02,5.66.96,1.61.92,2.84,2.45,3.44,4.19.68,1.76.6,3.67.66,5.52,1.62-1.62,3.36-3.13,5.26-4.41,1.89-1.25,3.89-2.32,6.04-3.05-.31-.08-.45-.38-.6-.64-.58-1.07-.89-2.26-1.06-3.46-.61-4.92,2.32-10.12,6.96-11.98,2.64-1.11,5.7-1.02,8.33.05,1.63.73,3.15,1.84,4.11,3.38,1.18,1.92,1.49,4.33.89,6.5-.51,2.15-1.69,4.08-3.17,5.69,2.45.79,4.78,2.02,6.73,3.71.39.37.99.63,1.06,1.23,1.23,5.02,4.33,9.61,8.67,12.45-.31-.42-.71-.77-1.01-1.19-1.78-2.33-2.4-5.43-1.86-8.29.32-1.98,1.23-3.84,2.53-5.37,1.86-2.22,4.46-3.73,7.19-4.62,2.69-.93,5.53-1.26,8.35-1.43.87-.06,1.73.04,2.6-.02-.81-.37-1.52-.99-1.93-1.79-1.13-1.71-1.14-3.91-.66-5.84.28-1.29,1.05-2.48,2.16-3.2,1.09-.71,2.6-.65,3.66.09.8.58,1.45,1.38,1.77,2.32.76,1.89.6,4.06-.21,5.91-.54,1.16-1.48,2.17-2.7,2.61,3.41.47,6.9,1.03,9.97,2.68.1-.45.19-.9.25-1.35.46-3.51.14-7.08-.62-10.52,1.25-.05,2.47-.35,3.67-.72,4.18-1.36,7.79-4.79,8.83-9.13.24-1.24.54-2.55.19-3.8ZM64.76,134.11c1.66-1.39,3.75-2.25,5.14-3.95.96-1.16,1.87-2.39,3.13-3.25,2.01-1.47,4.71-2.07,7.13-1.33,1.63.41,2.97,1.49,4.21,2.58,1.15,1.01,2.64,1.5,3.87,2.41,1.74,1.24,2.89,3.27,3.06,5.41.08,1.85-.48,3.73-1.58,5.22-1.35,1.87-3.48,3.05-5.69,3.59-2.17.51-4.39.76-6.62.79-1.72-.01-3.44-.06-5.16-.23-2.38-.28-4.78-.6-7.03-1.45-.74-.29-1.44-.67-2.09-1.14-1.01-.84-1.77-2.13-1.6-3.49.2-2.12,1.65-3.85,3.23-5.16Z"/>
  <path class="cls-8" d="M96.59,2.3c1.98-.52,4.29,0,5.68,1.55.87,1,1.28,2.41,1.02,3.71-.24,1.44-1.31,2.61-2.57,3.27.28,2.26.43,4.53.69,6.8-1.49,0-2.98.14-4.47.17-.01-.09-.04-.27-.05-.36-.18-2.1-.32-4.2-.45-6.3-1.47-.34-2.74-1.46-3.24-2.88-.4-1.08-.36-2.31.14-3.35.62-1.3,1.86-2.26,3.24-2.62Z"/>
  <path class="cls-8" d="M114.97,5.84c2.35-1.05,5.39-.18,6.82,1.96.72,1.02.99,2.33.78,3.56-.24.97-.76,1.88-1.54,2.51-.97.85-2.31,1.15-3.57,1.06-.83,1.89-1.57,3.81-2.45,5.68-.03.05-.09.16-.12.21-1.36-.59-2.71-1.23-4.14-1.66.99-2.02,1.95-4.05,2.95-6.06-1.04-1.06-1.51-2.65-1.2-4.1.27-1.36,1.21-2.57,2.47-3.16Z"/>
  <path class="cls-12" d="M78.34,12.76c2.1.04,4.08,1.07,5.67,2.39,1.65,1.44,2.99,3.39,3.26,5.61.19,1.54-1.12,3.06-2.64,3.18-1.92,0-3.59-1.17-4.88-2.49-1.69-1.9-2.79-4.4-2.74-6.97.05-.48.06-1.02.38-1.4.23-.28.62-.31.96-.32Z"/>
  <path class="cls-12" d="M131.66,23.53c.95,0,1.98.06,2.81.58.39.24.45.73.36,1.15-.28,1.79-1.4,3.34-2.7,4.55-1.57,1.41-3.61,2.37-5.74,2.42-.84-.05-1.72-.3-2.33-.92-.71-.69-1.04-1.83-.62-2.76.75-1.81,2.39-3.09,4.08-3.96,1.3-.6,2.7-1.03,4.13-1.07Z"/>
  <path class="cls-13" d="M116.3,29.89c.97-.17,1.96.26,2.62.96.35.36.72.84.6,1.37-.09.47-.8.49-.99.09-.4-.72-1.19-1.22-2.02-1.15-.37.02-.89.2-1.07-.26-.24-.54.38-.98.86-1.02Z"/>
  <path class="cls-4" d="M43.28,29.9c5.98-3.82,12.61-6.66,19.55-8.17.62,1.36.86,2.89.54,4.36-.43,2.34-1.9,4.41-3.79,5.82-.75.58-1.63.96-2.49,1.34-.96.42-1.73,1.17-2.69,1.59-1.39.62-2.88,1.07-4.41,1.05-1.45-.07-2.94-.37-4.14-1.25-1.58-1.03-2.6-2.86-2.57-4.75Z"/>
  <path class="cls-24" d="M95.18,29.15c.6-.08,1.27,0,1.73.41.26.26.24.79-.11.96-.2.16-.45,0-.66-.03-.94-.29-1.97.3-2.39,1.14-.28.59-1.3.16-1.06-.48.35-1.06,1.37-1.88,2.49-2.01Z"/>
  <path class="cls-16" d="M114.09,34.22c1.09-.71,2.6-.65,3.66.09.8.58,1.45,1.38,1.77,2.32.76,1.89.6,4.06-.21,5.91-.54,1.16-1.48,2.17-2.7,2.61-.36,0-.74-.01-1.05-.22.96-.35,1.71-1.12,2.13-2.03.69-1.3.7-2.91.12-4.25-.36-.83-1.09-1.52-1.99-1.72-.91-.14-1.85.24-2.46.91-1.36,1.41-1.49,3.67-.75,5.42-1.13-1.71-1.14-3.91-.66-5.84.28-1.29,1.05-2.48,2.16-3.2Z"/>
  <path class="cls-17" d="M94.81,33.69c1.2-.78,2.82-.8,4.04-.06,1.35.81,2.17,2.29,2.47,3.8.35,1.36.2,2.77-.03,4.13l-.16-.03c.18-1.17-.02-2.4-.6-3.43-.57-.92-1.63-1.59-2.74-1.47-1.09.14-1.96.98-2.42,1.94-.64,1.48-.62,3.27.16,4.7.54,1,1.6,1.71,2.76,1.66.12,0,.37.03.49.04-1.05.57-2.34.73-3.47.32-1.27-.52-2.16-1.66-2.71-2.88-.63-1.71-.77-3.64-.16-5.38.38-1.33,1.15-2.63,2.38-3.33Z"/>
  <path class="cls-21" d="M113.34,37.85c.61-.67,1.55-1.05,2.46-.91.9.2,1.63.89,1.99,1.72.58,1.34.58,2.94-.12,4.25-.42.92-1.17,1.68-2.13,2.03-.34.07-.69.09-1.03.12-.81-.37-1.52-.99-1.93-1.79-.74-1.75-.61-4,.75-5.42Z"/>
  <path class="cls-10" d="M114.75,38.2c.8.03,1.26,1.09.78,1.72-.34.64-1.35.73-1.74.09-.57-.71.06-1.86.96-1.81Z"/>
  <path class="cls-7" d="M70.11,32.97c2.64-1.11,5.7-1.02,8.33.05,1.63.73,3.15,1.84,4.11,3.38,1.18,1.92,1.49,4.33.89,6.5-.51,2.15-1.69,4.08-3.17,5.69-5-1.65-10.53-1.35-15.45.46-.31-.08-.45-.38-.6-.64-.58-1.07-.89-2.26-1.06-3.46-.61-4.92,2.32-10.12,6.96-11.98Z"/>
  <path class="cls-6" d="M97.78,36.63c1.11-.12,2.17.55,2.74,1.47.58,1.03.78,2.27.6,3.43-.16,1.09-.73,2.11-1.56,2.83-.36.31-.82.51-1.29.56-1.16.05-2.22-.66-2.76-1.66-.77-1.43-.8-3.22-.16-4.7.46-.96,1.33-1.8,2.42-1.94Z"/>
  <path class="cls-22" d="M97.2,38.03c.86-.31,1.7.82,1.24,1.58-.22.5-.82.83-1.35.63-.55-.17-.87-.79-.75-1.33.11-.41.44-.76.86-.87Z"/>
  <path class="cls-20" d="M126.82,46.48c.25.42-.09.97-.09,1.43,1.12.66,2.11,1.57,2.88,2.62,1.63,2.47,1.82,5.64,1.13,8.45-.78,3.5-2.92,6.67-5.86,8.71-2.18,1.47-4.75,2.26-7.32,2.73-2.76.44-5.58.49-8.36.2-3.69-.42-7.43-1.28-10.61-3.26-.65-.42-1.37-.8-1.86-1.41-.31-.42-.71-.77-1.01-1.19-1.78-2.33-2.4-5.43-1.86-8.29.32-1.98,1.23-3.84,2.53-5.37,1.86-2.22,4.46-3.73,7.19-4.62,2.69-.93,5.53-1.26,8.35-1.43.87-.06,1.73.04,2.6-.02.34-.03.69-.05,1.03-.12.31.2.68.22,1.05.22,3.41.47,6.9,1.03,9.97,2.68.1-.45.19-.9.25-1.35Z"/>
  <path class="cls-2" d="M121.34,50.88c.64-.21,1.37.15,1.6.78.37.93-.04,1.95-.61,2.7-.44.58-1.2,1.04-1.94.77-.69-.21-.89-1.03-.84-1.66.1-1.07.69-2.25,1.79-2.59Z"/>
  <path class="cls-15" d="M105.34,50.36c.78-.25,1.57.32,1.93.99.51.86.73,2.09.06,2.93-.47.61-1.41.55-1.99.14-.82-.58-1.16-1.66-1.08-2.64.06-.62.44-1.25,1.07-1.42Z"/>
  <path class="cls-4" d="M43.77,45.84c1.92-.29,3.96-.02,5.66.96,1.61.92,2.84,2.45,3.44,4.19.68,1.76.6,3.67.66,5.52-1.05,1.2-2.13,2.41-3.06,3.73-2.12,2.8-3.76,5.94-5.1,9.18-2.12-.2-4.07-1.29-5.64-2.69-2.53-2.34-4.28-5.51-4.99-8.88-.49-2.36-.26-4.95,1.06-7.01,1.74-2.75,4.79-4.54,7.98-4.99Z"/>
  <path class="cls-11" d="M106.07,59.62c.45-.13.76.3.89.67.62,1.46,2.02,2.47,3.52,2.87,1.41.36,2.99.32,4.25-.47.58-.3.98-.84,1.52-1.18.64-.21,1.24.52.92,1.11-1.35,1.78-3.72,2.57-5.9,2.31-1.44-.2-2.91-.69-4.01-1.68-.75-.68-1.41-1.49-1.78-2.45-.21-.47.07-1.07.58-1.18Z"/>
  <path class="cls-7" d="M12.9,73.86c1.44-7.03,3.97-13.85,7.52-20.09,1.05.46,1.99,1.15,2.77,2,1.46,1.65,2.48,3.76,2.57,5.99.15,2.28-.63,4.52-1.77,6.46-1.31,2.14-3.11,4.04-5.4,5.12-1.76.84-3.81,1.08-5.69.52Z"/>
  <path class="cls-8" d="M71.73,72.77c2.09-.44,4.31.09,6.13,1.19,2.75,1.65,4.59,4.72,4.72,7.92.44.08.89.15,1.33.24.88,3.75.07,7.94-2.32,10.99-.95-.19-1.9-.33-2.86-.45-1.31,2.19-3.54,3.83-6.04,4.37-1.78.34-3.65.18-5.33-.51-1.07-.46-2.03-1.21-2.63-2.22-.71-1.28-.58-2.95.25-4.14.46-.74,1.18-1.27,1.92-1.71-1.95-.11-3.94-.72-5.39-2.07-1.19-1.04-1.82-2.71-1.52-4.28.18-1.26,1.01-2.34,2.04-3.04,1.35-.87,3.04-1.16,4.61-.83.86.15,1.68.5,2.47.86-.53-1.19-.85-2.59-.36-3.86.46-1.28,1.66-2.19,2.97-2.45Z"/>
  <path class="cls-9" d="M101.2,84.76l.09-.04c2.13.34,4.26.69,6.37,1.09,2.5.57,5.05,1.1,7.34,2.3,1.94,1.06,3.71,2.62,4.61,4.68-.54,1.65-1.43,3.17-2.62,4.43-.94,1-2.05,1.89-3.37,2.34-1.52.54-3.27.34-4.63-.52-1.43-.82-2.23-2.34-3.52-3.34-1.11-.89-2.39-1.58-3.31-2.69-1.88-2.26-2.28-5.63-.97-8.26Z"/>
  <path class="cls-19" d="M28.54,78.56c2.16-1.7,5.14-2.45,7.8-1.61,2.53.69,4.48,2.61,6.06,4.62-.06,1.26-.18,2.54-.16,3.81-.06,5.49.96,11.04,3.26,16.05-2.17,2.28-5.33,3.44-8.44,3.53-2.72.1-5.54-.74-7.54-2.63-.75-.78-1.39-1.69-1.79-2.7-.89-2.18-.66-4.6-1.35-6.84-.44-1.62-1.17-3.16-1.4-4.84-.22-1.53-.27-3.12.23-4.6.55-1.92,1.8-3.57,3.34-4.8Z"/>
  <path class="cls-14" d="M103.46,109.53c1.33-.07,2.59.36,3.82.81,1.57.39,3.19.97,4.29,2.22.96,1.08,1.54,2.52,1.45,3.97-.05,1.97-1.02,3.77-2.19,5.3-2.65,3.35-6.83,5.55-11.13,5.48-1.92-.05-3.96-.46-5.46-1.73-1.22-1-1.7-2.8-1.1-4.26.67-1.85,2.29-3.09,3.25-4.76.57-.97.81-2.07,1.29-3.08.64-1.47,1.79-2.76,3.28-3.4.79-.34,1.65-.54,2.51-.54Z"/>
  <path class="cls-1" d="M14.99,102.92c1.54-.44,3.2-.43,4.76-.07,2.23.53,4.28,1.69,6.01,3.19,1.66,1.41,3.09,3.2,3.7,5.32.63,2.11.37,4.44-.57,6.43-1.44,2.99-4.08,5.51-7.32,6.41-4.22-6.03-7.27-12.89-8.94-20.06.74-.48,1.5-.96,2.35-1.2Z"/>
  <path class="cls-3" d="M47.76,116.06c2.51.15,4.93,1.38,6.59,3.27,1.24,1.4,2.09,3.22,2.09,5.11.05,1.96-1.1,3.83-2.73,4.87-1,.69-2.2,1.01-3.23,1.62-1.04.57-2.15,1.1-3.35,1.25-1.7.17-3.48-.25-4.85-1.3-3.38-2.38-4.45-7.49-2.21-10.98,1.58-2.59,4.69-4.04,7.69-3.83Z"/>
  <path class="cls-3" d="M73.03,126.91c2.01-1.47,4.71-2.07,7.13-1.33,1.63.41,2.97,1.49,4.21,2.58,1.15,1.01,2.64,1.5,3.87,2.41,1.74,1.24,2.89,3.27,3.06,5.41.08,1.85-.48,3.73-1.58,5.22-1.35,1.87-3.48,3.05-5.69,3.59-2.17.51-4.39.76-6.62.79-1.72-.01-3.44-.06-5.16-.23-2.38-.28-4.78-.6-7.03-1.45-.74-.29-1.44-.67-2.09-1.14-1.01-.84-1.77-2.13-1.6-3.49.2-2.12,1.65-3.85,3.23-5.16,1.66-1.39,3.75-2.25,5.14-3.95.96-1.16,1.87-2.39,3.13-3.25Z"/>
  <path class="cls-18" d="M32.93,151.58c1.23-.35,2.52.12,3.51.86,1.42,1.06,2.37,2.58,3.3,4.05.9-.7,1.79-1.43,2.81-1.94,1.17-.62,2.54-.98,3.87-.71,1.41.33,2.43,1.48,3.23,2.62.78,1.22,1.36,2.54,1.87,3.89v.03c-.62,1.12-1.6,2.06-2.81,2.54-1.51.58-3.15.73-4.75.69-1.79,0-3.55-.3-5.31-.61-1.93-.35-3.82-.91-5.59-1.75-1.43-.76-2.83-1.77-3.57-3.25-.5-1.02-.84-2.18-.74-3.31,1.17-1.29,2.43-2.67,4.19-3.1Z"/>
  <path class="cls-23" d="M71.15,160.06c1.07-.91,2.47-1.6,3.92-1.41,1.51.23,2.69,1.32,3.59,2.48.64.75,1.06,1.64,1.58,2.47.96-.83,1.93-1.66,3.08-2.23,1.01-.54,2.18-.79,3.32-.62,1.29.26,2.28,1.25,3.02,2.29.72.99,1.19,2.14,1.67,3.26.06.16-.06.3-.12.44-.48.93-1.15,1.79-2.04,2.36-1.13.79-2.51,1.1-3.86,1.28-2.01.22-4.04.03-6.02-.34-2.08-.33-4.14-.86-6.04-1.78-.85-.44-1.69-.94-2.38-1.62-1.21-1.2-1.78-2.98-1.62-4.65.58-.69,1.18-1.39,1.9-1.94Z"/>
</svg>