<?xml version="1.0" encoding="UTF-8"?>
<svg id="_图层_1" data-name="图层 1" xmlns="http://www.w3.org/2000/svg" viewBox="0 0 134.6 155.17">
  <defs>
    <style>
      .cls-1 {
        fill: #1c3350;
      }

      .cls-2 {
        fill: #182b43;
      }

      .cls-3 {
        fill: #7c9db8;
      }

      .cls-4 {
        fill: #fbfbfb;
      }

      .cls-5 {
        fill: #597993;
      }

      .cls-6 {
        fill: #152a47;
      }

      .cls-7 {
        fill: #577892;
      }

      .cls-8 {
        fill: #5f839f;
      }

      .cls-9 {
        fill: #192d46;
      }

      .cls-10 {
        fill: #587791;
      }

      .cls-11 {
        fill: #f8efe0;
      }

      .cls-12 {
        fill: #fdfdfe;
      }

      .cls-13 {
        fill: #fefdfe;
      }

      .cls-14 {
        fill: #17283e;
      }

      .cls-15 {
        fill: #fdfdfd;
      }
    </style>
  </defs>
  <path class="cls-3" d="M48.99,17.04c6.53-3.51,13.92-5.27,21.3-5.56,1.51-.11,3.03.03,4.55.06,5.71.29,11.36,1.42,16.8,3.14,4.7,1.49,9.27,3.41,13.61,5.77,1.67.91,3.31,1.88,4.86,2.99,1.61,1.17,3.11,2.66,3.75,4.59.54,1.59.38,3.34-.1,4.93-.72,2.39-1.97,4.57-3.27,6.69-.1.13-.18.3-.32.38-2.78,1.38-5.86,2.09-8.94,2.31-2.33.1-4.67.02-6.99-.29-2.81-.33-5.54-1.09-8.35-1.4-2.52-.34-5.07-.37-7.6-.26-4.47.35-8.92,1.61-12.74,3.99-1.87,1.17-3.57,2.64-4.92,4.4-1.47,1.9-2.49,4.19-2.67,6.6-.2,1.93.33,3.89,1.28,5.57.83,1.44,1.98,2.68,3.28,3.7,1.63,1.28,3.47,2.27,5.35,3.11,3.9,1.68,8.01,2.81,12.14,3.75,1.19.26,2.32.72,3.47,1.12,3.6,1.29,7.13,2.82,10.39,4.83,2.47,1.51,4.78,3.28,6.81,5.35,3.51,3.57,6.08,8.04,7.53,12.82,1.74,5.82,2.05,12.09.75,18.04-.92,4.22-2.64,8.28-5.13,11.81-2.75,3.92-6.41,7.21-10.61,9.51-4.59,2.51-9.75,3.89-14.95,4.29-7.01.53-14.19-.64-20.53-3.72-.79-.42-1.66-.87-2.59-.72-.52.12-1.09.31-1.42.76-2.41,3.51-5.81,6.3-9.64,8.14-3.95,1.88-8.43,2.8-12.79,2.19-.9-.16-1.62-1.03-1.56-1.95-.03-.88.64-1.54,1.02-2.27,1.16-1.98,1.87-4.17,2.45-6.37.75-2.72,1.85-5.42,3.75-7.55.58-.65,1.24-1.22,1.96-1.71-3.07-1.52-5.45-4.11-7.33-6.92-1.34-1.96-2.46-4.05-3.84-5.98-.88-1.27-1.88-2.44-2.95-3.55-.4-.42-.91-.76-1.17-1.29-.39-.71-.34-1.66.2-2.28.39-.51,1.03-.7,1.64-.82,4.77-1.18,9.85-.52,14.39,1.25,5.31,2.08,9.97,5.76,13.25,10.42.81,1.43,1.98,2.65,3.43,3.43,3,1.63,6.48,2.21,9.86,2.2,4.52-.05,9.14-1.3,12.74-4.11,1.46-1.16,2.72-2.59,3.64-4.21,1.47-2.59,2.01-5.71,1.43-8.64-.66-3.77-2.94-7.11-5.84-9.54-3.05-2.58-6.72-4.3-10.46-5.62-1.32-.42-2.64-.88-3.99-1.22-2.07-.59-4.09-1.32-6.13-1.99-2.13-.7-4.2-1.58-6.3-2.37.5-.55,1.01-1.08,1.41-1.71.95-1.28,1.83-2.64,2.35-4.16.36-1.08.11-2.28-.48-3.23-1.05-1.77-2.74-3.09-4.54-4.04-1.53-.74-3.2-1.32-4.92-1.28-1.16.03-2.4.67-2.86,1.79-.57,1.27-.53,2.69-.56,4.05-.03.83,0,1.66.04,2.5-.12-.08-.24-.16-.36-.24-2.72-2.39-5.05-5.24-6.86-8.38-.09-.16-.24-.28-.37-.4v-.03c-.15-.82-.76-1.44-1.04-2.21-.31-.82-.71-1.6-1-2.42-1.84-4.91-2.64-10.18-2.52-15.41.03-.65.14-1.31-.03-1.94.03-.04.09-.11.13-.15.33-5.37,1.71-10.71,4.18-15.5,3.27-6.4,8.65-11.59,14.94-15Z"/>
  <path class="cls-15" d="M77.3,25.45c1.18-.26,2.43,0,3.5.55,1.48.81,2.55,2.33,2.78,4,.05.39.12.8-.03,1.18-.1-1.54-1.21-2.93-2.66-3.44-1.4-.52-3.06-.28-4.22.67-1.19.97-1.81,2.6-1.49,4.11.32,1.6,1.6,2.97,3.21,3.31.67.18,1.37.06,2.04-.03-.02.03-.05.09-.07.12-.4-.1-.74.2-1.12.23-.98.12-1.99.11-2.92-.26-.87-.32-1.62-.89-2.25-1.56-1.08-1.31-1.6-3.14-1.13-4.8.48-2.05,2.27-3.75,4.36-4.07Z"/>
  <path class="cls-2" d="M76.67,28.4c1.16-.95,2.82-1.19,4.22-.67,1.44.52,2.55,1.9,2.66,3.44.1,1.34-.59,2.65-1.53,3.56-.44.46-1.01.74-1.55,1.06h-.03c-.67.09-1.37.21-2.04.03-1.61-.34-2.89-1.71-3.21-3.31-.32-1.51.3-3.15,1.49-4.11Z"/>
  <path class="cls-4" d="M80.62,29.03c.71-.24,1.58.22,1.69.98.18.81-.64,1.66-1.46,1.52-.63-.08-1.12-.66-1.14-1.28.03-.54.37-1.07.91-1.22Z"/>
  <path class="cls-10" d="M59.43,34.35c.3-.09.66.09.73.4.23.81.31,1.66.63,2.45.49,1.19,1.14,2.32,1.91,3.35.29.4.67.72.96,1.12.19.24.12.64-.15.79-.29.16-.64.05-.92-.08-.58-.29-1.04-.76-1.51-1.2-.93-.87-1.52-2.05-1.89-3.26-.32-.97-.39-2.03-.18-3.03.05-.24.19-.48.42-.56Z"/>
  <path class="cls-7" d="M54.64,34.72c.38-.05.72.3.7.68.12,1.47.6,2.89,1.15,4.25.55,1.25,1.34,2.37,2.2,3.43.33.4.75.72,1.11,1.1.33.31.11.94-.34.99-.48.05-.91-.23-1.31-.43-2.92-1.79-4.6-5.36-4.21-8.75.07-.47.14-1.14.71-1.26Z"/>
  <path class="cls-5" d="M50.59,39.5c.31-.09.61.15.67.45.21.77.44,1.55.84,2.25.63,1.36,1.53,2.59,2.6,3.64.33.36,1,.61.85,1.21-.1.42-.64.41-.96.28-2.72-1.03-4.53-3.91-4.56-6.79.04-.39.1-.94.56-1.05Z"/>
  <path class="cls-11" d="M101.21,42.34c3.09-.22,6.16-.92,8.94-2.31-.6,1.16-1.43,2.17-2.18,3.24-.7.89-1.38,1.8-2.13,2.65-1.23,1.27-2.43,2.56-3.81,3.67-3.59,3.07-8.13,5.01-12.83,5.45-2.33.24-4.7.14-7.01-.21-1.8-.21-3.59-.53-5.4-.74-1.58-.19-3.24-.14-4.73.49-1.86.77-3.27,2.52-3.63,4.5-.39,1.66-.07,3.44.76,4.92.98,1.81,2.58,3.19,4.3,4.28,1.68,1.07,3.5,1.89,5.34,2.64.39.19.83.31,1.17.6-4.13-.94-8.24-2.07-12.14-3.75-1.88-.85-3.73-1.83-5.35-3.11-1.31-1.02-2.46-2.26-3.28-3.7-.95-1.68-1.48-3.64-1.28-5.57.18-2.41,1.2-4.7,2.67-6.6,1.35-1.75,3.04-3.22,4.92-4.4,3.82-2.38,8.27-3.63,12.74-3.99,2.53-.12,5.08-.09,7.6.26,2.81.31,5.54,1.07,8.35,1.4,2.31.31,4.65.4,6.99.29Z"/>
  <path class="cls-1" d="M84.35,43.7c.24.02.51.08.64.31.29.4.65.74,1.03,1.04-.11.25-.26.49-.43.7-.18-.03-.36-.07-.53-.1-.1-.09-.2-.18-.29-.26-.27-.26-.51-.55-.76-.82.18-.24.34-.5.34-.81v-.05Z"/>
  <path class="cls-6" d="M84.01,44.56c-.11-.33-.02-.69.34-.81,0,.31-.16.57-.34.81Z"/>
  <path class="cls-14" d="M85.59,45.74c.18-.21.33-.44.43-.7.72.56,1.55.96,2.39,1.33-.29.02-.58-.04-.86-.14-.08.16-.17.32-.25.49.07.15.14.29.22.44-.9-.36-1.75-.86-2.46-1.52.18.03.36.07.53.1Z"/>
  <path class="cls-12" d="M84.61,45.81c.02-.15.07-.3.15-.43.09.09.2.18.29.26.71.66,1.56,1.16,2.46,1.52.02,0,.07.03.09.04.29.12.59.24.9.34-.17.18-.35.36-.55.5-.83.57-1.63,1.21-2.58,1.57-.43.16-1.08-.03-1.16-.55-.14-1.1.24-2.17.39-3.25Z"/>
  <path class="cls-1" d="M87.55,46.24c.27.1.56.15.86.14.25.03.49.13.74.19v.02c-.01.05-.04.15-.05.2.31.07.63.14.94.2-.38,0-.72.15-1.03.37-.47.12-.94-.43-1.41-.15-.02,0-.07-.03-.09-.04-.07-.15-.15-.29-.22-.44.08-.16.16-.33.25-.49Z"/>
  <path class="cls-9" d="M94.4,46.71c.29-.07.64-.24.91-.02.31.21.26.74-.07.9-.41.19-.85.29-1.3.37-1.44.25-2.92.17-4.35-.12-.37-.08-.73-.17-1.08-.29-.3-.1-.6-.21-.9-.34.47-.28.93.27,1.41.15.3-.22.64-.37,1.03-.37-.32-.06-.63-.13-.94-.2.01-.05.03-.15.04-.2,1.71.43,3.54.61,5.26.12Z"/>
  <path class="cls-8" d="M21.98,54.19c2.22-2.55,4.79-4.86,7.76-6.49.17.64.06,1.3.03,1.94-.12,5.23.68,10.5,2.52,15.41.29.82.7,1.6,1,2.42.28.77.89,1.39,1.03,2.21-.74-.53-1.45-1.12-2.25-1.58-3.67-2.24-8.03-3.24-12.32-3.09-.69.06-1.43-.06-1.96-.53-.51-.45-.67-1.18-.56-1.83.14-.83.44-1.62.77-2.38,1.01-2.21,2.4-4.23,3.98-6.08Z"/>
  <path class="cls-13" d="M89.59,47.83c1.43.29,2.91.37,4.35.12-.41,1.06-.91,2.1-1.6,3-.24.32-.67.58-1.08.43-.34-.1-.48-.46-.62-.75-.21-.48-.49-.93-.65-1.44-.16-.45-.2-.93-.4-1.36Z"/>
  <path class="cls-8" d="M42.44,72.19c.45-1.12,1.69-1.75,2.86-1.79,1.72-.04,3.39.53,4.92,1.28,1.8.96,3.48,2.27,4.54,4.04.59.95.84,2.15.48,3.23-.51,1.52-1.4,2.88-2.35,4.16-.39.63-.91,1.17-1.41,1.71-1.33,1.49-2.89,2.78-4.62,3.8-.87.51-1.81.9-2.8,1.09-.72.16-1.53-.14-1.93-.77-.31-.45-.37-1.01-.34-1.54.21-2.89.29-5.78.13-8.67-.03-.83-.07-1.66-.04-2.5.03-1.36,0-2.78.56-4.05Z"/>
  <path class="cls-11" d="M63.91,89.2c1.35.34,2.66.79,3.99,1.22,3.74,1.33,7.41,3.04,10.46,5.62,2.9,2.43,5.18,5.77,5.84,9.54.57,2.93.04,6.05-1.43,8.64-.92,1.63-2.18,3.05-3.64,4.21-3.6,2.81-8.22,4.06-12.74,4.11-3.39,0-6.86-.57-9.86-2.2-1.45-.78-2.63-2-3.43-3.43,4.07.57,8.3.33,12.19-1.05,2.65-.98,5.15-2.49,7-4.65.94-1.16,1.77-2.44,2.28-3.86,1.36-3.46.92-7.56-1.15-10.65-1.35-2.12-3.26-3.83-5.38-5.16-1.14-.68-2.3-1.33-3.5-1.9-.22-.11-.45-.24-.6-.45Z"/>
</svg>