<?xml version="1.0" encoding="UTF-8"?>
<svg id="_图层_1" data-name="图层 1" xmlns="http://www.w3.org/2000/svg" viewBox="0 0 132.52 172.97">
  <defs>
    <style>
      .cls-1 {
        fill: #1eaee5;
      }

      .cls-2 {
        fill: #1b84b6;
      }

      .cls-3 {
        fill: #2e9dc9;
      }

      .cls-4 {
        fill: #1d85b7;
      }

      .cls-5 {
        fill: #31a2cf;
      }

      .cls-6 {
        fill: #40aacf;
      }

      .cls-7 {
        fill: #41a9cf;
      }

      .cls-8 {
        fill: #44a7ce;
      }

      .cls-9 {
        fill: #42a5cd;
      }

      .cls-10 {
        fill: #63c6dd;
      }

      .cls-11 {
        fill: #2a1b18;
      }

      .cls-12 {
        fill: #ee9235;
      }

      .cls-13 {
        fill: #eea332;
      }

      .cls-14 {
        fill: #40aad0;
      }

      .cls-15 {
        fill: #43abd0;
      }

      .cls-16 {
        fill: #46aad0;
      }

      .cls-17 {
        fill: #1d86b7;
      }

      .cls-18 {
        fill: #66cbe0;
      }

      .cls-19 {
        fill: #f6b746;
      }

      .cls-20 {
        fill: #1796c6;
      }

      .cls-21 {
        fill: #31a0c7;
      }

      .cls-22 {
        fill: #42aacf;
      }

      .cls-23 {
        fill: #44a7cd;
      }

      .cls-24 {
        fill: #1b83b6;
      }

      .cls-25 {
        fill: #45a7ce;
      }

      .cls-26 {
        fill: #ed9437;
      }

      .cls-27 {
        fill: #eea334;
      }

      .cls-28 {
        fill: #46a9cf;
      }

      .cls-29 {
        fill: #eea233;
      }

      .cls-30 {
        fill: #43a6cd;
      }

      .cls-31 {
        fill: #60d0e3;
      }

      .cls-32 {
        fill: #3a2419;
      }

      .cls-33 {
        fill: #43a6cc;
      }

      .cls-34 {
        fill: #f8a094;
      }

      .cls-35 {
        fill: #1d85b6;
      }

      .cls-36 {
        fill: #332319;
      }

      .cls-37 {
        fill: #351f15;
      }

      .cls-38 {
        fill: #47a7cd;
      }

      .cls-39 {
        fill: #fbfbfc;
      }

      .cls-40 {
        fill: #79cadf;
      }

      .cls-41 {
        fill: #ed9236;
      }

      .cls-42 {
        fill: #fdfefe;
      }

      .cls-43 {
        fill: #42abd0;
      }

      .cls-44 {
        fill: #1e94c4;
      }

      .cls-45 {
        fill: #f8cb54;
      }
    </style>
  </defs>
  <path class="cls-38" d="M32.15,14.82c2.89-.77,5.96-.35,8.8.44,3.56,1.07,6.83,3.03,9.53,5.57,1.45,1.44,2.8,3.03,3.68,4.88-3.14.21-6.27.62-9.36,1.23-1.84-2.63-4.35-4.78-7.14-6.35-.88-.48-1.79-.94-2.77-1.19-.29-.09-.72.02-.72.38-.06.38.36.53.62.69,3.18,1.61,5.96,3.97,8.23,6.7.06.03.17.1.22.14-1.64.39-3.24.91-4.83,1.49-1.15-1.23-2.57-2.18-4.03-3.01-1.79-.98-3.7-1.77-5.72-2.12-.33-.02-.79-.15-1,.2-.21.3.04.71.37.78,3.18,1.03,6.24,2.58,8.75,4.8-1.44.65-2.86,1.35-4.23,2.13-.21-.17-.43-.33-.67-.46-1.61-.78-3.37-1.24-5.15-1.42-.36-.03-.82-.06-1.05.28-.14.27.02.6.29.71.66.3,1.39.41,2.07.64,1.03.3,2.01.76,2.98,1.21-2.65,1.83-5.11,4.02-6.88,6.72-.05-.01-.15-.04-.2-.05-.24-.48-.62-.98-.62-1.53.11-.3.03-.62-.19-.85-.02.05-.07.16-.09.22-.36-.86-.54-1.78-.77-2.68l.05-.15c.15-.16.25-.48,0-.6-.02.13-.06.38-.08.5-.43-2.26-.54-4.6-.18-6.87.03.23.08.47.12.7.14-.73.46-1.53.16-2.26.97-4.57,4.1-8.77,8.52-10.48.6.3,1.26-.1,1.83-.35-.14-.01-.42-.04-.56-.06Z"/>
  <path class="cls-3" d="M30.88,15.22c.41-.16.83-.33,1.27-.4.14.01.42.04.56.06-.56.24-1.22.64-1.83.35Z"/>
  <path class="cls-24" d="M34.17,19.79c0-.37.43-.48.72-.38.98.25,1.89.71,2.77,1.19,2.79,1.57,5.3,3.71,7.14,6.35-.53.1-1.04.25-1.56.37-.06-.03-.17-.1-.22-.14-2.27-2.73-5.05-5.09-8.23-6.7-.26-.16-.67-.31-.62-.69Z"/>
  <path class="cls-4" d="M27.67,23.88c.21-.35.67-.22,1-.2,2.02.34,3.93,1.13,5.72,2.12,1.46.82,2.88,1.77,4.03,3.01-.54.22-1.09.44-1.63.66-2.51-2.22-5.57-3.78-8.75-4.8-.33-.07-.58-.48-.37-.78Z"/>
  <path class="cls-40" d="M54.16,25.71c2.92-.13,5.85-.05,8.78.04,6.35.16,12.7.44,19.06.56.49.01.99-.02,1.48.09-.6.1-1.2.13-1.8.13,5.13.01,10.27,0,15.4,0,.33,0,.67-.04,1.01-.07,3.12.03,6.27.2,9.32.95,2.43.6,4.74,2,6.06,4.19-2.83.89-5.83.98-8.78,1.07-.68.04-1.51.12-1.85.8-.27.54.14,1.13.65,1.33.89.38,1.86.46,2.81.56,1.94.21,3.91.13,5.85-.14.94-.12,1.84-.42,2.78-.53.57,1.76.94,3.6,1,5.46-.03-.25-.07-.49-.11-.74l-.2.07c-2.82.78-5.76,1.05-8.68,1.13-1.03.03-2.1-.12-3.09.23-.6.19-1.05.9-.76,1.5.34.68,1.15.87,1.83,1.06,2.69.6,5.48.58,8.21.33.88-.05,1.72-.32,2.56-.53.08-.02.25-.05.33-.07-.03,1.99-.29,3.97-.79,5.9,0-.13.01-.4.01-.53-1.35.31-2.7.62-4.09.74-1.99.16-3.99.13-5.99.02-.61-.03-1.27-.03-1.82.28-.47.25-.7.92-.36,1.36.41.55,1.11.76,1.74.96,3.03.84,6.24.86,9.34.44-.67,1.81-1.86,3.39-3.24,4.72-2.18,2.08-5.1,3.16-8.02,3.7-3.3.59-6.66.68-10,.78-7.51.12-15.02-.14-22.53-.09-2.68-.01-5.55.13-7.86,1.65-2.19,1.48-3.2,4.1-3.68,6.6-.63,3.47-.65,7.01-.68,10.53-.2.03-.39.08-.58.12,0,4.28,0,8.57-.02,12.85,0,3-.11,6.01-.03,9.01.24.17.52.26.79.37-.08-.02-.23-.06-.31-.08,0,6.69-.11,13.38-.22,20.07-.14,6.19-.27,12.38-.67,18.56-.17,2.6-.37,5.21-.87,7.77-.42,2.14-1.01,4.32-2.3,6.11-1.32,1.86-3.57,2.79-5.77,3.08-3.26.41-6.57.27-9.82-.03v-.05c.1-.16.18-.32.24-.5.69-4.09-1.1-8.37-4.24-11-1.94-1.71-4.36-2.81-6.85-3.46-1.41-.43-2.91-.47-4.37-.31-.48-.61-.97-1.21-1.49-1.79-.43-2.92-.75-5.86-.93-8.81-.17-3.56-.35-7.12-.52-10.68-.12-2.51-.25-5.03-.37-7.54.84-.13,1.67-.26,2.51-.39,1.87-1.51,2.86-3.82,3.6-6.05,1.23-4.22,1.7-8.64,1.65-13.02-.05-2.47-.1-5.09-1.32-7.31-.76-1.48-2.21-2.59-3.84-2.94-1.21-.21-2.45-.15-3.66-.02-.02-3.56-.02-7.13-.02-10.69,0-3.22.16-6.45.17-9.67.22-5.76.43-11.61,2.02-17.2.66-2.37,1.61-4.68,2.91-6.77.11-.17.18-.37.24-.56.05.01.15.04.2.05,1.77-2.7,4.23-4.89,6.88-6.72.5-.33,1.01-.65,1.52-.95,1.37-.79,2.79-1.49,4.23-2.13.54-.23,1.08-.44,1.63-.66,1.58-.58,3.19-1.1,4.83-1.49.52-.12,1.03-.27,1.56-.37,3.09-.62,6.21-1.03,9.36-1.23Z"/>
  <path class="cls-5" d="M22.36,25.7c.3.73-.03,1.53-.16,2.26-.05-.23-.09-.47-.12-.7.03-.53.17-1.04.29-1.55Z"/>
  <path class="cls-14" d="M81.67,26.54c.6,0,1.2-.04,1.8-.13,4,0,8.01,0,12.01,0,.87.02,1.73-.02,2.6.06-.33.03-.67.07-1.01.07-5.13,0-10.27,0-15.4,0Z"/>
  <path class="cls-17" d="M25.69,30c.24-.33.69-.31,1.05-.28,1.78.18,3.54.64,5.15,1.42.24.12.46.29.67.46-.52.3-1.03.62-1.52.95-.97-.45-1.95-.91-2.98-1.21-.69-.23-1.41-.34-2.07-.64-.27-.11-.43-.44-.29-.71Z"/>
  <path class="cls-9" d="M104.67,32.67c2.94-.09,5.94-.18,8.78-1.07.66.93,1.1,2,1.45,3.09-.94.12-1.84.41-2.78.53-1.93.27-3.9.35-5.85.14-.95-.1-1.93-.18-2.81-.56-.5-.2-.92-.79-.65-1.33.34-.68,1.18-.76,1.85-.8Z"/>
  <path class="cls-20" d="M22.33,33.62c.26.12.16.44,0,.6l-.08-.1c.02-.13.06-.38.08-.5Z"/>
  <path class="cls-36" d="M46.54,37.16c.62-1.78,2.58-3.25,4.51-2.76.36.04.58.53.31.8-.18.25-.53.15-.79.2-.69.04-1.38.24-1.93.68-.18.12-.34.26-.49.42-.36.32-.59.74-.89,1.11-.28.3-.92-.04-.72-.45Z"/>
  <path class="cls-44" d="M23.14,36.84c.23.23.31.55.19.85-.21-.12-.29-.41-.29-.63.02-.05.07-.16.09-.22Z"/>
  <path class="cls-42" d="M49.33,40.05c1.64-.79,3.62-.97,5.34-.36,2.24.8,4.05,2.72,4.64,5.03.16.72.18,1.47.19,2.2l-.2-.14c-.29-1.67-1.42-3.21-3.02-3.82-2.16-.97-4.85.09-5.99,2.11-.59,1.09-.88,2.4-.54,3.62.37,1.77,1.79,3.27,3.56,3.69,1.17.39,2.47.15,3.54-.41.3-.17.57-.38.85-.59l.19-.07c-1.18,1.52-3.01,2.44-4.9,2.7-1.13.14-2.26-.08-3.34-.41-2.05-.83-3.65-2.66-4.23-4.79-.37-1.33-.33-2.72,0-4.05.59-2.02,2.06-3.72,3.91-4.7Z"/>
  <path class="cls-33" d="M106.92,40.6c2.92-.07,5.86-.34,8.68-1.13-.06,1.23.06,2.47.07,3.71-.85.21-1.69.47-2.56.53-2.73.26-5.52.27-8.21-.33-.67-.18-1.49-.38-1.83-1.06-.29-.6.16-1.32.76-1.5.99-.35,2.06-.19,3.09-.23Z"/>
  <path class="cls-21" d="M115.59,39.48l.2-.07c.03.24.07.49.11.74.11.98.1,1.98.09,2.97-.08.02-.25.05-.33.07-.01-1.24-.14-2.47-.07-3.71Z"/>
  <path class="cls-37" d="M50.29,45.06c1.14-2.02,3.83-3.08,5.99-2.11,1.6.62,2.73,2.16,3.02,3.82.21,1.67-.38,3.43-1.6,4.59-.28.21-.55.42-.85.59-.62-.16-1.23.11-1.84.2-.56.13-1.16-.03-1.7.2-1.77-.42-3.19-1.92-3.56-3.69-.35-1.22-.05-2.53.54-3.62Z"/>
  <path class="cls-10" d="M44.88,47.56c-.18-1.07-.06-2.22.41-3.2.03.1.09.29.12.39-.33,1.33-.38,2.72,0,4.05-.02.11-.07.32-.1.43-.34-.49-.34-1.1-.44-1.66Z"/>
  <path class="cls-39" d="M53.59,44.39c1.06-.33,2.16.84,1.8,1.89-.26,1.16-1.99,1.54-2.69.56-.71-.83-.17-2.25.89-2.45Z"/>
  <path class="cls-25" d="M111.13,49.22c1.38-.12,2.74-.43,4.09-.74,0,.13-.01.4-.01.53-.25,1.12-.68,2.19-1.07,3.26h-.09c-3.1.43-6.31.41-9.34-.43-.63-.2-1.33-.41-1.74-.96-.33-.44-.11-1.11.36-1.36.55-.3,1.21-.31,1.82-.28,2,.11,4,.14,5.99-.02Z"/>
  <path class="cls-14" d="M27.18,49.63c-.03-.22-.01-.73.33-.47.49.72.99,1.5,1.8,1.89,1.15.57,2.54.31,3.57-.37.34-.23.61-.61,1.05-.63-.06.83-.66,1.51-1.3,1.99-.98.67-2.29.83-3.38.34-1.12-.45-1.93-1.56-2.07-2.75Z"/>
  <path class="cls-11" d="M55,52.17c.61-.1,1.22-.36,1.84-.2-1.07.56-2.37.79-3.54.41.54-.23,1.14-.07,1.7-.2Z"/>
  <path class="cls-32" d="M62.23,53.07c.34-.24.68.17.77.48.51,1.43,1.94,2.45,3.45,2.54,1.5.04,2.91-.94,3.51-2.3.13-.23.18-.56.46-.68.31-.14.6.19.64.47-.47,2.14-2.59,3.74-4.77,3.63-.97-.13-1.95-.42-2.71-1.06-.69-.57-1.22-1.33-1.5-2.18-.1-.3-.21-.74.16-.9Z"/>
  <path class="cls-34" d="M49.64,53.59c1.08.33,2.21.55,3.34.41.57.44,1.25.78,1.66,1.4.73.96.9,2.34.34,3.42-.4.88-1.21,1.51-2.08,1.9-.9.31-1.86.37-2.8.27-1.31-.19-2.6-.85-3.33-2-.57-.94-.64-2.17-.16-3.16.61-1.15,1.78-1.92,3.02-2.24Z"/>
  <path class="cls-18" d="M45.96,56.77c.07-.48.21-1.01.64-1.3,0,.09,0,.27.01.36-.48.99-.41,2.22.16,3.16.07.29-.15.39-.31.14-.46-.68-.62-1.55-.51-2.36Z"/>
  <path class="cls-7" d="M32,57.4c.07,0,.22.01.29.02.37.99.76,2.02,1.57,2.73.93.89,2.36,1.29,3.59.81,1.26-.34,2.13-1.37,2.86-2.38.39-.23.42.37.32.62-.54,1.73-2.04,3.25-3.88,3.5-1.54.18-3.2-.53-4.03-1.87-.65-.99-1.07-2.25-.72-3.42Z"/>
  <path class="cls-31" d="M50.1,60.98c.94.11,1.9.05,2.8-.27l.38.06c-1.09.7-2.53.82-3.71.31.13-.03.4-.08.53-.1Z"/>
  <path class="cls-43" d="M24.85,68.19c.27-.03.37.28.51.45.45.74,1.06,1.42,1.88,1.75,1.21.44,2.65.22,3.66-.59.35-.24.62-.68,1.09-.66,0,.87-.68,1.52-1.3,2.03-1.2.95-2.96.97-4.25.21-.7-.41-1.15-1.13-1.46-1.86-.15-.42-.28-.89-.12-1.32Z"/>
  <path class="cls-14" d="M36.54,71.06c-.05-.24.2-.36.34-.5.47.77.7,1.69,1.39,2.32.79.92,2.06,1.32,3.25,1.17,1.17-.19,2.2-.9,2.92-1.82.2-.23.37-.55.71-.54.04,1.12-.7,2.08-1.47,2.82-1.16,1.12-2.99,1.32-4.46.75-.88-.42-1.7-1.08-2.12-1.98-.31-.69-.57-1.44-.57-2.2Z"/>
  <path class="cls-15" d="M26.34,78.51c-.03-.38-.21-1.01.26-1.19.26.23.32.59.47.88.52,1.3,1.69,2.39,3.09,2.62,1.05.16,2.1-.28,2.96-.86.61-.39.89-1.13,1.54-1.46.06.2.17.43.07.64-.46,1.51-1.79,2.71-3.31,3.09-1.08.28-2.24-.03-3.16-.63-1.07-.68-1.64-1.91-1.92-3.1Z"/>
  <path class="cls-38" d="M68.34,79.17c4.8-.46,9.61-.91,14.44-.87,2.13.1,4.27.26,6.33.86,1.82.52,3.62,1.46,4.71,3.07.73,1.2,1.1,2.68.72,4.06-.58,2.36-2.56,4.22-4.82,4.99,1.63,1.22,2.94,2.91,3.47,4.9.74,2.43.26,5.17-1.21,7.24-1.08,1.55-2.71,2.67-4.49,3.27-2.67.98-5.56.91-8.35.77-5.46-.47-10.77-1.93-16.02-3.44-1.64-.5-3.29-.97-4.91-1.52-.27-.11-.55-.2-.79-.37-.08-3,.03-6.01.03-9.01.01-4.28.02-8.57.02-12.85.19-.04.38-.08.58-.12,3.43-.33,6.88-.6,10.31-.99Z"/>
  <path class="cls-45" d="M18.63,84.12c1.21-.13,2.45-.19,3.66.02,1.63.35,3.08,1.45,3.84,2.94,1.22,2.22,1.27,4.84,1.32,7.31.05,4.38-.42,8.8-1.65,13.02-.74,2.23-1.72,4.54-3.6,6.05-.78.57-1.67,1.02-2.64,1.13-1.54.21-3.15-.37-4.27-1.44-1.77-1.69-2.4-4.26-2.2-6.64-1.43.43-3.04.44-4.39-.27-1.53-.67-2.57-2.13-3.14-3.66-.95-2.7-.63-5.7.44-8.31,1.97-4.89,6.42-8.63,11.51-9.94.37-.09.74-.16,1.12-.21Z"/>
  <path class="cls-2" d="M61.89,84.78c5.38-.1,10.77-.17,16.15.01.33.04.82,0,.95.4.2.4-.26.8-.65.74-.9-.01-1.8.11-2.69.13-2.91-.01-5.82.06-8.73-.1-1.59-.04-3.17-.18-4.76-.22-.23-.01-.5-.07-.62-.28-.2-.27.02-.69.35-.69Z"/>
  <path class="cls-6" d="M36.94,86.6c.45.26.55.81.83,1.2.56.82,1.3,1.57,2.27,1.87,1.13.33,2.42.19,3.39-.5.8-.5,1.35-1.29,2.03-1.93.3.5.02,1.08-.21,1.55-.5.89-1.23,1.68-2.15,2.13-.89.37-1.91.59-2.86.33-1.49-.35-2.78-1.51-3.23-2.98-.16-.53-.36-1.13-.07-1.65Z"/>
  <path class="cls-13" d="M21.43,88.43c.53-.14.71.66.25.87-1.85,1.08-3.72,2.12-5.62,3.12-.91.49-1.8,1.06-2.8,1.36-.38.16-.72-.35-.5-.66.34-.52.98-.73,1.48-1.06,2.34-1.3,4.67-2.67,7.18-3.62Z"/>
  <path class="cls-35" d="M61.72,90.79c.29-.13.61-.05.92-.05,5.09.45,10.16,1,15.23,1.64.37.05.89.14.9.6.06.41-.38.66-.74.6-5.38-.26-10.72-1.06-16.03-1.95-.43,0-.66-.63-.28-.85Z"/>
  <path class="cls-29" d="M22.35,93.49c.36-.22.8.21.63.58-.28.41-.7.69-1.06,1.04-2.11,1.76-4.16,3.59-6.4,5.19-.24.16-.57.35-.84.14-.29-.23-.15-.66.09-.87,2.08-1.86,4.25-3.6,6.45-5.32.37-.27.71-.57,1.12-.77Z"/>
  <path class="cls-22" d="M30.66,97.25c.03-.23,0-.58.34-.45.37.68.63,1.44,1.18,2.02.83,1.17,2.42,1.8,3.81,1.32,1.37-.34,2.24-1.53,3.06-2.58.38.36.15.9,0,1.32-.63,1.5-2.05,2.79-3.73,2.87-1.09.11-2.25-.21-3.08-.94-1.02-.87-1.65-2.2-1.57-3.55Z"/>
  <path class="cls-17" d="M61.72,96.81c.27-.18.61-.06.9-.03,3.34.62,6.67,1.3,9.99,2.02,1.25.32,2.53.5,3.76.9.35.12.47.6.27.9-.28.23-.67.18-1,.15-4.55-.74-9.03-1.87-13.48-3.06-.39-.06-.8-.55-.43-.89Z"/>
  <path class="cls-27" d="M23.32,99.22c.35-.3.85.24.63.6-.34.74-.85,1.38-1.29,2.06-1.11,1.51-2.18,3.09-3.56,4.36-.57.35-.81-.57-.45-.9,1.55-2.04,3.1-4.09,4.67-6.12Z"/>
  <path class="cls-30" d="M32.37,114.14c1.1-.32,2.46.15,2.99,1.21.57,1.05.43,2.52-.54,3.29-1.07,1.03-2.99.84-3.82-.39-1.04-1.37-.3-3.65,1.38-4.1Z"/>
  <path class="cls-23" d="M44.27,119.21c.76-.18,1.56-.03,2.25.32,1.44.78,2.21,2.64,1.67,4.2-.27.9-.93,1.64-1.75,2.07-1.04.54-2.34.43-3.34-.13-1.26-.77-1.93-2.38-1.55-3.82.3-1.3,1.4-2.39,2.72-2.64Z"/>
  <path class="cls-28" d="M29.97,130.78c1.34-.44,2.91.6,2.99,2.01.2,1.16-.64,2.31-1.76,2.57-1.05.28-2.34-.24-2.73-1.29-.54-1.26.12-2.94,1.5-3.28Z"/>
  <path class="cls-8" d="M39.51,136.68c1.26-.5,2.89.42,2.97,1.81.29,1.44-1.09,2.94-2.55,2.62-1.33-.16-2.2-1.7-1.78-2.93.2-.67.7-1.26,1.36-1.5Z"/>
  <path class="cls-19" d="M7.04,143.86c4.05-3.11,9.53-4.08,14.48-3,.51.58,1,1.19,1.49,1.79.81,1.11,1.8,2.06,2.73,3.06,1.42,1.47,3.36,2.23,5.18,3.06,2.08.95,4.03,2.35,5.24,4.32.81,1.23,1.44,2.59,1.76,4.03.07.29.15.57.28.85l.03-.04v.05c-.06.6.03,1.21.07,1.81.05,2.16-.29,4.37-1.22,6.34-.73,1.64-2.07,3.08-3.79,3.69-1.93.73-4.14.35-5.9-.66-1.69-.89-2.98-2.41-3.83-4.09-.93-1.73-1.35-3.67-1.56-5.61-.07-1.21-.18-2.43-.02-3.64.05-.56.23-1.11.11-1.67.32-.55.38-1.21.58-1.8.18-.56.41-1.1.59-1.65-.93.38-1.59,1.17-2.39,1.76-1.92,1.48-3.62,3.21-5.3,4.95l.26.05c-2.27.74-4.75.98-7.11.51-1.33-.25-2.58-.88-3.62-1.74-1.65-1.41-2.51-3.69-2.17-5.84.32-2.66,2.09-4.9,4.13-6.52Z"/>
  <path class="cls-16" d="M23,142.65c1.46-.15,2.96-.12,4.37.31,2.49.65,4.91,1.74,6.85,3.46,3.14,2.63,4.93,6.92,4.24,11-.13-.25-.28-.49-.42-.72-.03.1-.1.31-.13.42-.32-1.44-.95-2.8-1.76-4.03-1.21-1.97-3.16-3.37-5.24-4.32-1.82-.83-3.76-1.59-5.18-3.06-.93-1-1.93-1.95-2.73-3.06Z"/>
  <path class="cls-12" d="M21.72,145.11c.57-.02,1.15-.11,1.71.03.43.24.11.87-.33.87-3.95.99-7.8,2.39-11.43,4.23-.58.24-1.11.65-1.75.7-.49-.07-.55-.77-.17-1.02,1.51-1.35,3.35-2.27,5.19-3.09,2.16-.9,4.43-1.6,6.78-1.73Z"/>
  <path class="cls-41" d="M28.3,149.76c.32-.04.8-.2.99.17.51.9.74,1.91,1.1,2.87.85,3.09,1.22,6.32.93,9.52.01.37-.25.68-.59.79-.39-.05-.6-.42-.59-.78-.16-2.67-.54-5.32-.96-7.96-.26-1.54-.7-3.06-.88-4.61Z"/>
  <path class="cls-26" d="M20.85,152.45c.8-.59,1.46-1.38,2.39-1.76-.18.56-.41,1.1-.59,1.65-.2.6-.25,1.25-.58,1.8-1.85,1.48-3.99,2.61-6.26,3.31l-.26-.05c1.68-1.74,3.38-3.47,5.3-4.95Z"/>
  <path class="cls-1" d="M38.05,156.7c.14.24.28.48.42.72-.06.18-.14.34-.25.5l-.03.04c-.12-.28-.21-.56-.28-.85.03-.1.1-.31.13-.42Z"/>
</svg>