<?xml version="1.0" encoding="UTF-8"?>
<svg id="_图层_1" data-name="图层 1" xmlns="http://www.w3.org/2000/svg" viewBox="0 0 133.05 148.24">
  <defs>
    <style>
      .cls-1 {
        fill: #f5a22b;
      }

      .cls-2 {
        fill: #f4991c;
      }

      .cls-3 {
        fill: #fde8bf;
      }

      .cls-4 {
        fill: #fbb6a9;
      }

      .cls-5 {
        fill: #feba40;
      }

      .cls-6 {
        fill: #382006;
      }

      .cls-7 {
        fill: #fbf6ed;
      }

      .cls-8 {
        fill: #f4991b;
      }

      .cls-9 {
        fill: #fdf0d8;
      }

      .cls-10 {
        fill: #fdebc7;
      }

      .cls-11 {
        fill: #422404;
      }

      .cls-12 {
        fill: #fcf4e5;
      }

      .cls-13 {
        fill: #f59d1f;
      }

      .cls-14 {
        fill: #f49a1d;
      }

      .cls-15 {
        fill: #4d2a04;
      }

      .cls-16 {
        fill: #f59a1c;
      }

      .cls-17 {
        fill: #f59b1e;
      }

      .cls-18 {
        fill: #fdeac3;
      }

      .cls-19 {
        fill: #faf9f9;
      }

      .cls-20 {
        fill: #f5a332;
      }

      .cls-21 {
        fill: #b76916;
      }

      .cls-22 {
        fill: #fafaf9;
      }

      .cls-23 {
        fill: #fdebc6;
      }

      .cls-24 {
        fill: #4d2b04;
      }

      .cls-25 {
        fill: #fab5a9;
      }

      .cls-26 {
        fill: #432504;
      }

      .cls-27 {
        fill: #f4981c;
      }

      .cls-28 {
        fill: #fdf2de;
      }

      .cls-29 {
        fill: #f4a129;
      }

      .cls-30 {
        fill: #fde9c1;
      }

      .cls-31 {
        fill: #b66816;
      }

      .cls-32 {
        fill: #f2a12f;
      }
    </style>
  </defs>
  <path class="cls-31" d="M43.03,5.4c1.56-1.23,3.59-1.87,5.57-1.69,2.24.16,4.37,1.34,5.76,3.09.31.36.51.79.82,1.15,1.02-1.71,2.59-3.13,4.48-3.78,1.67-.6,3.55-.65,5.24-.06,2.71.93,4.94,3.31,5.49,6.15,1.51-.96,3.29-1.56,5.09-1.52,2.74-.06,5.42,1.32,7.11,3.45,2.04,2.51,2.38,6.19,1.03,9.1,1.92.27,3.73,1.2,5.03,2.64,1.53,1.67,2.38,3.95,2.24,6.22.02,2.38-1.13,4.68-2.85,6.28-.22.22-.49.37-.66.63,2.04,1.15,3.52,3.23,4.03,5.51.37,1.73.28,3.58-.39,5.22-.81,2.16-2.57,3.96-4.71,4.81-.89.39-1.85.52-2.81.62.81,1.58.96,3.41.76,5.16-.43,2.59-2.05,4.98-4.34,6.28-2.09,1.26-4.71,1.47-7.04.81-.73-.21-1.43-.54-2.1-.91-.21,2.18-1.37,4.22-3.03,5.62-2.8,2.44-7.17,2.84-10.35.92-1.25-.72-2.28-1.79-3.01-3.03-.98,1.7-2.59,3.01-4.42,3.69-2.14.77-4.58.74-6.67-.18-2.76-1.13-4.86-3.8-5.19-6.78-.63.32-1.29.58-1.97.76-2.14.53-4.49.27-6.42-.8-1.99-1.07-3.52-2.95-4.17-5.11-.66-2.11-.44-4.46.5-6.45-2.27-.11-4.5-1.13-6-2.85-1.53-1.76-2.29-4.16-2.09-6.48.2-2.77,1.76-5.47,4.23-6.81-1.58-1.1-2.81-2.71-3.37-4.56-.73-2.36-.44-5.03.81-7.17,1.21-2.18,3.51-3.68,5.96-4.03-.81-2.04-1.02-4.37-.3-6.46.82-2.42,2.7-4.48,5.08-5.43,2.03-.86,4.39-.9,6.47-.18,1.11.37,2.1,1.01,3.03,1.71.25-2.17,1.42-4.2,3.14-5.53Z"/>
  <path class="cls-5" d="M33.81,13.73c1.77-.72,3.91-.58,5.48.55,1.42.95,2.3,2.53,2.72,4.16,5.34-2.91,11.69-3.68,17.65-2.69,1.42.24,2.81.63,4.18,1.08,1.24.43,2.41,1.02,3.6,1.57.4-1.53,1.24-2.99,2.5-3.97.89-.65,1.96-1.07,3.07-1.11,1.9-.12,3.76.74,5.09,2.06,1.4,1.34,2.31,3.27,2.2,5.24-.06,1.63-.85,3.24-2.16,4.23-.69.62-1.54,1.01-2.41,1.33.97,1.53,1.82,3.13,2.47,4.82,1.13,2.82,1.72,5.83,1.94,8.86.14,2.85-.04,5.76-.9,8.5-1.21,4.12-3.96,7.7-7.47,10.15-3.85,2.72-8.51,4.05-13.15,4.56-5.18.5-10.53.06-15.43-1.76-3.94-1.44-7.6-3.89-10.07-7.33-2-2.75-3.22-6.04-3.6-9.41-.55-5.24.4-10.61,2.59-15.39.5-1.02,1.08-2.01,1.65-2.99-1.74-.61-3.41-1.76-4.15-3.51-.79-1.65-.56-3.61.21-5.23.82-1.66,2.28-3,4-3.7Z"/>
  <path class="cls-23" d="M35.04,17.3c.97-.42,2.18-.36,3.03.3.79.57,1.27,1.45,1.55,2.37-1.56,1.11-2.92,2.47-4.15,3.92-1.16-.43-2.35-1.21-2.68-2.48-.45-1.69.72-3.46,2.25-4.12Z"/>
  <path class="cls-10" d="M71.65,17.42c.83-.5,1.91-.52,2.78-.09.99.49,1.83,1.34,2.16,2.41.21.75.22,1.61-.19,2.29-.54.9-1.42,1.57-2.43,1.85-1.23-1.46-2.63-2.77-4.15-3.92.31-1.02.92-1.95,1.82-2.54Z"/>
  <path class="cls-24" d="M41.4,30.76c.56-.13,1.2-.2,1.72.1.35.21.34.82-.07.94-.52.02-1.06-.12-1.56.09-.49.14-.88.48-1.18.88-.18.32-.72.33-.89,0-.14-.17-.07-.42.04-.59.42-.72,1.14-1.24,1.94-1.43Z"/>
  <path class="cls-15" d="M66.76,30.73c1.3-.33,2.75.37,3.39,1.53.21.35-.13.84-.53.75-.25,0-.35-.27-.5-.43-.46-.6-1.24-.89-1.99-.8-.28,0-.67.15-.85-.15-.22-.38.06-.86.49-.91Z"/>
  <path class="cls-28" d="M39.54,36.97c.56-.74,1.42-1.23,2.33-1.39,1.1-.16,2.28.26,3.01,1.1.91.98,1.31,2.36,1.23,3.68-.11-1.13-.69-2.22-1.65-2.84-.74-.43-1.65-.64-2.48-.37-1.34.33-2.26,1.61-2.44,2.94-.32,1.6.45,3.46,1.98,4.16-.61-.05-1.09-.47-1.55-.83-1.72-1.63-1.92-4.6-.43-6.45Z"/>
  <path class="cls-9" d="M66.46,35.66c.71-.18,1.47-.1,2.15.15-.23.41-.59.74-1,.95-.36.09-.73.07-1.09.08.02.06.06.17.09.23-.05,0-.14.01-.19.01-.28-.05-.56-.08-.84-.08-.1-.15-.2-.3-.3-.45.4-.36.9-.55,1.41-.7-.06-.05-.17-.15-.23-.19Z"/>
  <path class="cls-7" d="M63.74,38.68c.32-1.38,1.33-2.63,2.72-3.02.06.05.17.15.23.19-.51.15-1.02.33-1.41.7.1.15.2.3.3.45.28,0,.56.03.84.08-.79.21-1.53.67-2.01,1.35-.65.89-.87,2.04-.69,3.11-.33-.92-.18-1.93.03-2.86Z"/>
  <path class="cls-12" d="M67.6,36.76c.41-.21.78-.54,1-.95.92.38,1.6,1.19,2.03,2.07.72,1.73.54,3.93-.81,5.32-.36.4-.75.84-1.31.92,1.85-1.06,2.32-3.72,1.24-5.48-.6-1.1-1.92-1.73-3.15-1.56-.02-.06-.07-.17-.09-.23.36-.02.73,0,1.09-.08Z"/>
  <path class="cls-26" d="M39.54,40.09c.18-1.33,1.11-2.6,2.44-2.94.83-.26,1.74-.06,2.48.37.96.62,1.54,1.71,1.65,2.84.09.95-.21,1.92-.73,2.71-.81,1.21-2.51,1.81-3.86,1.17-1.53-.7-2.29-2.56-1.98-4.16Z"/>
  <path class="cls-11" d="M64.4,38.43c.48-.68,1.22-1.14,2.01-1.35.05,0,.14-.01.19-.01,1.23-.16,2.55.46,3.15,1.56,1.08,1.76.62,4.42-1.24,5.48-1.05.6-2.41.48-3.39-.19-.77-.56-1.23-1.46-1.42-2.38-.18-1.08.05-2.23.69-3.11Z"/>
  <path class="cls-19" d="M41.83,38.23c.63-.27,1.36.28,1.38.93.05.55-.41,1.06-.95,1.12-.56.07-1.11-.42-1.12-.98-.03-.46.27-.89.69-1.07Z"/>
  <path class="cls-22" d="M65.84,38.31c.62-.38,1.48.16,1.49.86.08.78-.91,1.46-1.57.96-.65-.4-.59-1.48.08-1.82Z"/>
  <path class="cls-18" d="M58.82,43.25c.96.11,1.88.42,2.76.8,1.73.68,3.26,1.87,4.33,3.39,1.18,1.73,1.71,3.91,1.4,5.99-.33,2.45-1.8,4.67-3.8,6.09-2.08,1.47-4.61,2.18-7.12,2.37-2.36.23-4.77-.04-7.03-.75-2.29-.74-4.47-2.11-5.78-4.17-1.2-1.74-1.67-3.94-1.32-6.02.26-1.97,1.33-3.77,2.77-5.1,1.52-1.31,3.41-2.15,5.37-2.54.09,0,.26,0,.34,0-.65.73-.55,1.84-.07,2.63.75,1.28,2.13,2.09,3.57,2.31,0,1.88,0,3.76,0,5.65-1.47-.09-3.06-.56-3.98-1.78-.27-.31-.26-.85-.68-1.01-.44-.15-.83.37-.63.76.57,1.5,2.04,2.45,3.55,2.84,1.58.39,3.27.36,4.83-.08.62-.16,1.2-.46,1.73-.83.44-.32.84-.71,1.15-1.16.26-.43.75-1.2.1-1.52-.53-.18-.7.44-.86.8-.23.36-.54.65-.86.93-.57.4-1.21.68-1.88.86-.47.1-.95.16-1.43.19.01-1.88,0-3.75.01-5.63,1.49-.26,2.94-1.1,3.67-2.47.42-.78.52-1.86-.14-2.54Z"/>
  <path class="cls-25" d="M36.65,44.68c.77-.14,1.59-.06,2.29.29.69.37,1.28,1.11,1.19,1.93-.07.89-.88,1.55-1.7,1.77-.73.18-1.51.18-2.23-.05-.83-.29-1.59-1.06-1.54-1.99.02-1.05,1.03-1.79,1.98-1.95Z"/>
  <path class="cls-4" d="M71.33,44.71c.71-.16,1.47-.12,2.16.13.73.29,1.39.97,1.4,1.79.03.6-.29,1.17-.76,1.52-.75.61-1.78.74-2.71.58-.73-.14-1.43-.57-1.78-1.23-.27-.58-.21-1.31.2-1.81.37-.47.9-.84,1.49-.98Z"/>
  <path class="cls-6" d="M60.29,51.11c-.53-.18-.7.44-.86.8-.22.36-.54.65-.86.93-.57.4-1.21.68-1.88.86-.47.1-.95.16-1.43.19.01-1.88,0-3.75.01-5.63,1.49-.26,2.94-1.1,3.67-2.47.42-.78.52-1.86-.14-2.54-1.14-.95-2.73-.97-4.14-1-1.36.02-2.89.1-3.95,1.05-.65.73-.55,1.84-.07,2.63.75,1.28,2.13,2.09,3.57,2.31,0,1.88,0,3.76,0,5.65-1.47-.09-3.06-.56-3.98-1.78-.27-.31-.26-.85-.68-1.01-.44-.15-.83.37-.63.76.57,1.5,2.04,2.45,3.55,2.84,1.58.39,3.27.36,4.83-.08.62-.16,1.2-.46,1.73-.83.44-.32.84-.71,1.15-1.16.26-.43.75-1.2.1-1.52Z"/>
  <path class="cls-5" d="M70.8,64.57c.67.36,1.36.69,2.1.91,0,12.47,0,24.93,0,37.4.04,2.93-.1,5.86.14,8.78.13,1.15.34,2.46,1.32,3.21,1.2.85,2.73.81,4.13.9,7.03.01,14.05,0,21.08,0,1.76-.01,3.55,0,5.27.41,1.94.48,3.8,1.5,5.01,3.12,1.78,2.27,2.16,5.27,2.23,8.06.1.89.06,1.79.09,2.68,1.89-.81,3.12-2.64,3.7-4.56.22-.77.4-1.55.54-2.34.95.58,2.04.89,3.13,1.04,0,1.09-.3,2.14-.6,3.17-.67,2.09-1.93,4.03-3.76,5.28-.91.63-1.95,1.07-3.02,1.32-.07,2.71-.12,5.55-1.33,8.04-.96,2-2.86,3.45-4.98,4.05-1.17.33-2.39.48-3.6.51-3.3.07-6.59.02-9.89.04-7.97,0-15.93,0-23.9,0,.67-1.29.69-2.78.57-4.19-.13-1.36-.61-2.68-1.41-3.79-.94-1.33-2.38-2.27-3.93-2.74-1.9-.58-3.97-.69-5.91-.21-1.51.35-2.9,1.2-3.87,2.41-1.46,1.81-1.93,4.28-1.56,6.54.1.72.44,1.39.94,1.92-1.08,0-2.16,0-3.24,0,.54-.85.6-1.88.65-2.85.06-2.17-.6-4.44-2.18-5.98-1.66-1.67-4.08-2.34-6.38-2.37-2.11-.06-4.33.54-5.87,2.06-.14-1.65-.07-3.3-.09-4.95,0-22.29,0-44.59,0-66.88.68-.18,1.34-.45,1.97-.76.33,2.98,2.42,5.66,5.19,6.78,2.09.91,4.53.94,6.67.18,1.84-.68,3.44-1.99,4.42-3.69.73,1.24,1.76,2.31,3.01,3.03,3.18,1.92,7.55,1.52,10.35-.92,1.66-1.4,2.82-3.44,3.03-5.62Z"/>
  <path class="cls-3" d="M47.68,81.91c1.88-.19,3.87.13,5.44,1.22,2.12,1.4,3.25,3.87,3.71,6.29.41,1.84.44,3.73.46,5.61.11,1.92-.1,3.84.03,5.75-.12,4.58.06,9.16-.11,13.74-.17,2.4-.43,4.87-1.49,7.06-.83,1.88-2.38,3.48-4.36,4.12-2.29.75-4.93.55-6.98-.74-1.58-1-2.6-2.66-3.22-4.38-.94-2.74-1.09-5.67-1.11-8.54,0-5.97-.02-11.95.02-17.93.1-3.1.39-6.39,2.21-9.01,1.19-1.83,3.25-2.97,5.4-3.2Z"/>
  <path class="cls-8" d="M63.24,83.47c.36-.15.81-.05,1.05.26.55.67.62,1.58.62,2.41-.03.76-.08,1.59-.57,2.21-.29.4-.95.55-1.33.19-.57-.55-.71-1.38-.72-2.14-.02-1.02.04-2.28.95-2.93Z"/>
  <path class="cls-2" d="M67.28,90.36c.43-.25.96.04,1.2.41.44.73.46,1.61.45,2.43-.01.74-.16,1.52-.62,2.12-.36.45-1.09.4-1.42-.06-.58-.76-.56-1.8-.54-2.71.04-.79.19-1.74.92-2.19Z"/>
  <path class="cls-14" d="M63.36,97.19c.39-.07.82.11,1.03.45.42.66.49,1.47.49,2.24,0,.76-.11,1.56-.52,2.22-.29.49-1.07.63-1.46.17-.48-.54-.59-1.3-.65-1.99-.03-.83.04-1.71.44-2.46.14-.28.36-.55.68-.63Z"/>
  <path class="cls-21" d="M120.24,112.2c.65-.51,1.56-.72,2.35-.44.7.24,1.2.89,1.38,1.59.21.91.05,1.87-.34,2.71.65-.22,1.43-.3,2.03.11.64.45.84,1.28.86,2.03-.02,1.83-.94,3.59-2.34,4.74-1.27,1.05-3.01,1.48-4.63,1.25-1.1-.15-2.18-.46-3.13-1.04-1.45-.82-2.56-2.35-2.69-4.03-.08-.92.27-1.86.99-2.46-.24-.77-.4-1.59-.23-2.39.16-.71.57-1.41,1.22-1.79.72-.42,1.69-.33,2.32.22.44.35.68.86.92,1.35.28-.71.7-1.38,1.32-1.85Z"/>
  <path class="cls-16" d="M96.33,119.04c.92-.1,1.92-.06,2.75.42.42.24.6.87.23,1.24-.5.52-1.27.65-1.96.7-.82,0-1.72-.05-2.4-.55-.41-.29-.46-.98-.04-1.29.42-.3.93-.44,1.43-.52Z"/>
  <path class="cls-17" d="M85.46,121.37c.86-.18,1.77-.08,2.6.19.41.13.78.49.81.94-.03.42-.38.72-.74.89-.8.37-1.72.34-2.57.26-.5-.05-1.01-.19-1.39-.54-.3-.25-.32-.73-.09-1.03.31-.45.88-.59,1.38-.7Z"/>
  <path class="cls-27" d="M101.84,122.84c.89-.18,1.83-.1,2.68.22.41.16.86.52.76,1.01-.09.54-.66.81-1.14.94-.99.23-2.05.23-3.01-.12-.47-.16-.91-.63-.75-1.16.21-.59.9-.77,1.45-.89Z"/>
  <path class="cls-30" d="M36.26,137.4c1.54-1.52,3.75-2.11,5.87-2.06,2.3.02,4.72.7,6.38,2.37,1.58,1.54,2.24,3.82,2.18,5.98-.04.97-.11,2.01-.65,2.85l-.04.08c-.96-.12-1.93.03-2.9-.06-.94-.07-1.89.06-2.83,0,.08-.63.01-1.27-.05-1.89-.07-.94-.14-1.87-.13-2.81.04-.3-.21-.63-.52-.63-.28-.03-.51.24-.51.5-.09,1.1.1,2.2.16,3.3,0,.53.02,1.05.05,1.58-1.19,0-2.37-.11-3.55-.09-.4-1.61-.37-3.34.11-4.93-.17-.46-.88-.6-1.05-.07-.48,1.58-.55,3.3-.14,4.9-.64,0-1.26-.19-1.87-.37-1.14-.33-2.08-1.32-2.32-2.49-.43-2.2.3-4.54,1.82-6.17Z"/>
  <path class="cls-30" d="M57.78,135.67c1.94-.48,4.01-.37,5.91.21,1.55.47,2.99,1.41,3.93,2.74.79,1.11,1.28,2.44,1.41,3.79.11,1.41.09,2.9-.57,4.19,7.97,0,15.93,0,23.9,0,3.3-.02,6.59.03,9.89-.04-.08.03-.25.09-.33.12-10.77-.02-21.54-.01-32.3,0-2.3-.07-4.61-.05-6.91-.05.15-1.44-.01-2.89-.19-4.32-.08-.32-.06-.74-.37-.95-.29-.23-.76.03-.75.39.03.7.19,1.39.24,2.1.12.9.04,1.82.06,2.73-.49.12-1,.07-1.5.06-.76-.03-1.52.01-2.28-.06-.31-1.55-.32-3.17.05-4.7.17-.42-.38-.82-.74-.58-.25.15-.3.46-.37.73-.32,1.49-.3,3.04-.02,4.53-1.17.14-2.37.09-3.55,0-.5-.53-.84-1.2-.94-1.92-.37-2.26.1-4.74,1.56-6.54.97-1.21,2.37-2.06,3.87-2.41Z"/>
  <path class="cls-29" d="M38.77,141.53c.17-.53.88-.39,1.05.07-.48,1.59-.51,3.32-.11,4.93-.35,0-.71-.02-1.06-.02l-.02-.07c-.4-1.6-.33-3.32.14-4.9Z"/>
  <path class="cls-32" d="M43.05,141.74c0-.27.23-.54.51-.5.32,0,.56.32.52.63,0,.94.07,1.87.13,2.81-.31.35-.19.83-.18,1.25-.19,0-.38,0-.57,0-.03-.43-.06-.86-.09-1.28-.06.13-.11.27-.16.41-.07-1.1-.26-2.2-.16-3.3Z"/>
  <path class="cls-20" d="M57.22,141.28c.36-.24.91.16.74.58-.38,1.54-.36,3.16-.05,4.7-.34.09-.7.06-1.05.06l-.02-.09c-.29-1.49-.3-3.04.02-4.53.07-.26.12-.57.37-.73Z"/>
  <path class="cls-1" d="M61.38,141.74c-.02-.36.46-.62.75-.39.31.2.29.62.37.95.18,1.43.34,2.88.19,4.32-.34.01-.67.02-1.01.02v-.08c-.02-.91.06-1.82-.06-2.73-.05-.7-.21-1.39-.24-2.1Z"/>
  <path class="cls-13" d="M43.22,145.04c.05-.14.11-.27.16-.41.03.43.06.85.09,1.28.19,0,.38,0,.57,0-.01-.42-.13-.9.18-1.25.06.63.12,1.26.05,1.89-.32.12-.67.03-1,.05-.03-.53-.04-1.05-.05-1.58Z"/>
</svg>