<?xml version="1.0" encoding="UTF-8"?>
<svg id="_图层_1" data-name="图层 1" xmlns="http://www.w3.org/2000/svg" viewBox="0 0 174.93 145.68">
  <defs>
    <style>
      .cls-1 {
        fill: #f990ac;
      }

      .cls-2 {
        fill: #f890ac;
      }

      .cls-3 {
        fill: #3d2206;
      }

      .cls-4 {
        fill: #99cfcd;
      }

      .cls-5 {
        fill: #dc9ecb;
      }

      .cls-6 {
        fill: #fcfcfc;
      }

      .cls-7 {
        fill: #f88fab;
      }

      .cls-8 {
        fill: #974d42;
      }

      .cls-9 {
        fill: #fede90;
      }

      .cls-10 {
        fill: #ba8bb9;
      }

      .cls-11 {
        fill: #fed1da;
      }

      .cls-12 {
        fill: #8b433a;
      }

      .cls-13 {
        fill: #fed470;
      }

      .cls-14 {
        fill: #fcc54f;
      }

      .cls-15 {
        fill: #fdadc0;
      }

      .cls-16 {
        fill: #fca9bf;
      }

      .cls-17 {
        fill: #fb9db1;
      }

      .cls-18 {
        fill: #b45556;
      }

      .cls-19 {
        fill: #fed573;
      }

      .cls-20 {
        fill: #fdc856;
      }

      .cls-21 {
        fill: #fed36e;
      }

      .cls-22 {
        fill: #f78aa8;
      }

      .cls-23 {
        fill: #a3d3d2;
      }

      .cls-24 {
        fill: #f27998;
      }

      .cls-25 {
        fill: #fde6e4;
      }

      .cls-26 {
        fill: #c795c3;
      }

      .cls-27 {
        fill: #fdf7f5;
      }

      .cls-28 {
        fill: #f181a0;
      }

      .cls-29 {
        fill: #d9a1cc;
      }

      .cls-30 {
        fill: #a4d3d2;
      }

      .cls-31 {
        fill: #d09ac7;
      }

      .cls-32 {
        fill: #c493c1;
      }

      .cls-33 {
        fill: #fce6e4;
      }

      .cls-34 {
        fill: #b55756;
      }

      .cls-35 {
        fill: #fedd8e;
      }

      .cls-36 {
        fill: #fde8e5;
      }

      .cls-37 {
        fill: #fdfbfa;
      }

      .cls-38 {
        fill: #ca98c6;
      }

      .cls-39 {
        fill: #e1a0cb;
      }

      .cls-40 {
        fill: #f583a0;
      }

      .cls-41 {
        fill: #fdbece;
      }

      .cls-42 {
        fill: #fa9eb2;
      }
    </style>
  </defs>
  <path class="cls-13" d="M26.87,12.76c.26-.63.99-1.03,1.72-1.02.58.07,1.08.37,1.5.72.81.65,1.49,1.42,2.2,2.15-.2.14-.49.22-.58.46-.27.67-.31,1.48-.91,2-.54.35-1.26.16-1.84.38-.34.16-.35.54-.43.84-.01.08-.04.25-.06.33.16-.54-.42-.86-.62-1.31-.41-.84-.6-1.75-.89-2.62-.21-.62-.35-1.32-.09-1.95Z"/>
  <path class="cls-14" d="M31.71,15.08c.08-.24.37-.32.58-.46.41.39.68.88.8,1.41.09.96-.55,1.99-1.58,2.31-.97.34-2,.05-2.98-.03.09-.3.09-.68.43-.84.59-.22,1.3-.04,1.84-.38.6-.53.64-1.33.91-2Z"/>
  <path class="cls-21" d="M33.09,16.03c1.66.49,2.54,1.97,3.55,3.15-.39.11-.92.12-1.05.55-.4.88-.68,1.89-1.59,2.46-.82.56-1.89.44-2.85.49-.45-.02-.59.44-.81.71-.83-.62-1.15-1.59-1.49-2.47-.25-.73-.54-1.5-.38-2.27.01-.08.04-.25.06-.33.99.08,2.02.38,2.98.03,1.03-.31,1.66-1.35,1.58-2.31Z"/>
  <path class="cls-11" d="M63.16,21.45c.8-.33,1.75-.68,2.61-.31.93.32,1.39,1.21,1.69,2.02.74,2.31.79,4.77.28,7.13-.21.93-.42,1.87-.83,2.74-.7,1.44-1.58,2.82-2.75,3.98-1.48,1.32-3.28,2.43-5.33,2.83-1.5.24-3.01-.3-4.23-1.06-.94-.56-1.68-1.4-2.07-2.36-.28-.71-.27-1.47-.24-2.21.03-.26.07-.52.14-.77.33-1.14.8-2.23,1.41-3.27.42-.69.84-1.38,1.31-2.05.31-.42.65-.82.98-1.22,1.97-2.16,4.27-4.16,7.05-5.44Z"/>
  <path class="cls-19" d="M31.27,23.91c1.31.28,2.72.03,3.86-.63.04.14.07.28.11.42.39-.15.81-.17,1.22-.05.05-.09.1-.17.15-.25.17.04.34.07.51.11-.12.06-.23.13-.34.19.13.07.26.13.39.2.13-.04.27-.09.4-.13.47.45.94.92,1.27,1.46.3.48.43,1.04.54,1.58,0,.31.09.65-.12.93-.54.77-1.49,1.2-2.44,1.41-.41.1-.83.2-1.25.1-1-.23-2.03-.14-3.05-.27-.22-.2-.44-.39-.64-.6-.63-.7-.88-1.6-1.19-2.44-.29-.78-.35-1.62-.22-2.44.25.16.5.34.8.43Z"/>
  <path class="cls-22" d="M41.2,24.61c4.02-.8,8.35-.59,12.16.88.96.38,1.9.82,2.75,1.38-.34.4-.67.8-.98,1.22-1.01-.49-2.04-.96-3.15-1.22-1.7-.39-3.48-.43-5.21-.24-1.17.12-2.23.62-3.35.91-.09-.44-.23-.9-.57-1.24-.53-.58-1.38-.94-1.64-1.71Z"/>
  <path class="cls-20" d="M42.84,26.33c-.53-.58-1.38-.94-1.64-1.71-.04-.1-.08-.2-.12-.3-.53-1.02-1.3-1.92-2.14-2.74-.52-.5-1.11-.97-1.83-1.2-.16-.4-.28-.81-.48-1.2-.39.11-.92.12-1.05.55-.4.88-.68,1.89-1.59,2.46-.82.56-1.89.44-2.85.49-.45-.02-.59.44-.81.71l.14.09c.25.16.5.34.8.43,1.31.28,2.72.03,3.86-.63.04.14.07.28.11.42.39-.15.81-.17,1.22-.05.05-.09.1-.17.15-.25.17.04.34.07.51.11-.12.06-.23.13-.34.19.13.07.26.13.39.2.13-.04.27-.09.4-.13.47.45.94.92,1.27,1.46.3.48.43,1.04.54,1.58,0,.31.09.65-.12.93-.54.77-1.49,1.2-2.44,1.41-.41.1-.83.2-1.25.1-1-.23-2.03-.14-3.05-.27,0,1.15.44,2.23.91,3.28.2.3.47.57.74.82.98-.03,1.99-.06,2.92-.38,1.45-.4,2.62-1.31,3.8-2.13.74-.58,1.47-1.2,2.06-1.91.27-.31.4-.69.46-1.07-.09-.44-.23-.9-.57-1.24ZM36,22.52c.11-.11.21-.22.3-.34-.09.12-.2.23-.3.34ZM36.44,22c.13-.18.25-.37.35-.57-.1.2-.22.39-.35.57Z"/>
  <path class="cls-42" d="M62.87,26.21c.22-.11.56-.06.63.19.26.7.19,1.46.19,2.18-.05,1.84-.67,3.67-1.89,5.14-.66.86-1.56,1.56-2.58,2.04-.65.3-1.46.42-2.14.13-.43-.17-.72-.56-.75-.98-.08-.76.16-1.52.43-2.23,1.09-2.75,3.44-4.95,6.12-6.48Z"/>
  <path class="cls-5" d="M46.77,26.65c1.73-.19,3.51-.15,5.21.24,1.11.25,2.15.73,3.15,1.22-.46.67-.89,1.36-1.31,2.05-2.01-.76-4.28-.84-6.38-.35-1.85.46-3.57,1.35-4.92,2.59-.15-.06-.3-.1-.44-.17-.05-.2.02-.4.05-.6-.34.18-.69.36-1.03.54.17-.27.33-.54.5-.81-.27-.24-.5-.52-.71-.8.74-.58,1.47-1.2,2.06-1.91.27-.31.4-.69.46-1.07,1.12-.29,2.18-.79,3.35-.91Z"/>
  <path class="cls-7" d="M31.89,28.36c.2.21.42.4.64.6,0,1.15.44,2.23.91,3.28-.41.41-.93.76-1.19,1.28-.14.45.27.8.61,1.05-1.07,1.48-1.87,3.11-2.34,4.82-.34,1.17-.61,2.39-1.29,3.46-.81,1.4-2.17,2.56-3.82,3.1-.79.28-1.68.02-2.47.31-.58.36-.15,1.06.02,1.52-1.89-.7-3.54-1.99-4.5-3.64-.39-.73-.71-1.56-.55-2.38.08-.42.49-.92,1.01-.76.35.22.61.54.99.72.75.35,1.7.37,2.42-.05.99-.55,1.51-1.59,1.68-2.6.27-1.72.7-3.46,1.6-5,1.36-2.45,3.68-4.35,6.27-5.7Z"/>
  <path class="cls-38" d="M47.45,29.81c2.1-.48,4.37-.41,6.38.35-.61,1.04-1.08,2.13-1.41,3.27-1.88.22-3.52,1.27-4.66,2.62-.85.95-1.39,2.08-2.03,3.15-.7,1.21-1.53,2.34-2.45,3.42-1.3,1.45-2.86,2.7-4.61,3.68-1.59.81-3.26,1.51-5.04,1.87-1.33.27-2.67.49-4.04.52,1.12-.65,2.2-1.35,3.26-2.08,1.42-1.02,2.61-2.31,3.53-3.73,1.1-1.52,1.65-3.29,2.27-5.01.77-2.08,2.12-3.97,3.88-5.47,1.36-1.24,3.07-2.13,4.92-2.59Z"/>
  <path class="cls-2" d="M108.24,30.47c4.15-1.41,8.98-.58,12.5,1.79,2.04,1.34,3.66,3.14,4.95,5.09.74,1.16,1.46,2.37,2.53,3.31.96.87,2.28,1.43,3.65,1.41,1.06,0,2.19-.04,3.16.44,1.22.55,2.01,1.71,2.13,2.93-1.02.46-1.81,1.23-2.8,1.73-1.77.92-3.8,1.42-5.83,1.43-2.42.06-4.76-.76-6.79-1.9-.57-.31-1.12-.69-1.79-.79-.38-.05-.64.25-.86.48l-.05.07c-.34-.56-.84-1.02-1.25-1.53-1.25-1.49-2.63-2.92-4.39-3.92-1.81-1.03-4.01-1.54-6.14-1.23-1.32.2-2.64.61-3.7,1.38-.55.38-.9,1.07-1.67,1.08-.22-.6-.37-1.22-.35-1.86-.11-1.68.21-3.39.97-4.92,1.07-2.28,3.17-4.15,5.73-5.01Z"/>
  <path class="cls-39" d="M37.1,32.68c1.45-.4,2.62-1.31,3.8-2.13.21.29.44.56.71.8-.16.27-.33.54-.5.81.34-.18.69-.35,1.03-.54-.02.2-.1.4-.05.6.14.07.29.11.44.17-1.76,1.5-3.11,3.39-3.88,5.47-.62,1.72-1.16,3.49-2.27,5.01-.92,1.42-2.11,2.71-3.53,3.73-1.06.73-2.15,1.42-3.26,2.08-.58.06-1.15.12-1.73.12-1.09-.04-2.17-.19-3.22-.46-.57-.15-1.15-.3-1.66-.58-.17-.46-.59-1.17-.02-1.52.78-.29,1.68-.03,2.47-.31,1.65-.53,3.01-1.69,3.82-3.1.68-1.06.94-2.28,1.29-3.46.47-1.71,1.27-3.35,2.34-4.82.37-.55.9-.98,1.31-1.5.98-.03,1.99-.06,2.92-.38Z"/>
  <path class="cls-28" d="M33.44,32.23c.2.3.47.57.74.82-.41.52-.94.96-1.31,1.5-.35-.25-.75-.6-.61-1.05.25-.52.77-.87,1.19-1.28Z"/>
  <path class="cls-4" d="M64.16,37c1.17-1.16,2.05-2.55,2.75-3.98.3.21.59.43.88.65-.41.9-.42,1.89-.71,2.82-.24.72-.89,1.21-1.41,1.76-.29.28-.26.69-.3,1.05-.34-.79-.71-1.59-1.23-2.3Z"/>
  <path class="cls-16" d="M47.75,36.05c1.14-1.34,2.78-2.4,4.66-2.62-.07.25-.11.51-.14.77-1.47,1.01-2.89,2.19-3.62,3.77-.78,1.34-1.61,2.7-2.84,3.75-.68.59-1.59.94-2.54.89.92-1.07,1.75-2.21,2.45-3.42.63-1.07,1.17-2.2,2.03-3.15Z"/>
  <path class="cls-30" d="M67.8,33.66c1.54,1.15,2.72,2.64,3.74,4.18,2.28,3.61,3.01,7.98,2.09,12.05-.44,2.12-1.46,4.16-1.29,6.35.08,1,.35,2.01,1.05,2.81.52.69,1.36,1.22,2.29,1.26.3.03.67-.01.88.24.28.3.17.75-.04,1.05-.74,1.07-2.08,1.68-3.42,1.87-.99.1-1.99.06-2.96-.14-.92-.18-1.74-.62-2.54-1.05-1.35-.82-2.46-1.96-3.18-3.29-.64-1.16-1.05-2.43-1.17-3.72-.12-.96.09-1.92.08-2.88.54-.74,1.1-1.47,1.48-2.29,1.63-3.38,1.92-7.31.59-10.82.04-.36,0-.77.3-1.05.51-.55,1.17-1.04,1.41-1.76.28-.93.3-1.92.71-2.82Z"/>
  <path class="cls-41" d="M48.66,37.97c.73-1.58,2.15-2.76,3.62-3.77-.03.74-.03,1.5.24,2.21.39.96,1.13,1.8,2.07,2.36,1.22.76,2.74,1.3,4.23,1.06.27,1.24.42,2.49.55,3.75.1,2.08.1,4.29-1.02,6.16-.58.8-1.45,1.68-2.61,1.6-.32.04-.72-.09-.97.14-.3.45-.08,1.02.23,1.41.62.77,1.64,1.22,2.66,1.36,1.21.19,2.44-.09,3.54-.53.23,1.09.52,2.16.87,3.22.24.77.82,1.43,1.51,1.91.22.18.53.14.81.15.72,1.33,1.83,2.46,3.18,3.29-.07,3.39,0,6.78-.03,10.16,0,3.45,0,6.91,0,10.36-.01,2.4-.03,4.8.27,7.19.32,2.74,1,5.47,2.31,7.96,1.58,3.05,4.38,5.6,7.83,6.87,3.46,1.26,7.35,1.45,10.96.68,3.51-.72,6.73-2.63,8.78-5.33,2.34-2.97,3.38-6.61,3.81-10.19.21-2.1.32-4.21.3-6.33,0-12.76.01-25.51,0-38.27.02-1.05-.06-2.1.07-3.14.78-.01,1.13-.7,1.67-1.08,1.05-.77,2.38-1.18,3.7-1.38,2.13-.31,4.32.2,6.14,1.23,1.76,1,3.14,2.43,4.39,3.92.41.51.91.97,1.25,1.53.06.63.33,1.21.57,1.79.53,1.42,1.37,2.74,2.43,3.89,1.1,1.13,2.53,1.97,4.07,2.51.59.2,1.18.43,1.74.7-.06.57-.16,1.15-.12,1.73.08.88.38,1.72.66,2.56.46,1.42,1.23,2.74,1.72,4.14.75,1.9,1.03,3.91,1.43,5.88-.17.75-.07,1.52-.09,2.29,0,2.39,0,4.78.06,7.17-.05,4.47-.05,8.95-.41,13.42-.14,1.39-.21,2.79-.37,4.18-.49,3.73-1.15,7.45-2.2,11.08-1.33,4.31-3.37,8.46-6.13,12.18-.36.47-.75.91-1.13,1.37-.45-.64-.97-1.25-1.72-1.61-.76-.41-1.66-.56-2.53-.51-.6.02-1.14.28-1.72.36-.45-.33-.73-.8-1.2-1.1-1.44-.92-3.41-1.16-5.05-.54-.73.25-1.33.73-1.91,1.18-.64-.23-1.31-.48-2.01-.46-1.02,0-2.01.37-2.78.96-.92.64-1.6,1.52-2.14,2.44-.47.9-.85,1.87-.88,2.88-.35.82-.64,1.7-.48,2.58.11.65.49,1.24,1.02,1.68-2.76.69-5.56,1.25-8.4,1.56-7.63.82-15.46.34-22.85-1.61,1.34-1.1,1.2-3.02.33-4.33.2-1.35-.6-2.6-1.37-3.68-.99-1.34-2.6-2.52-4.46-2.44-.63,0-1.18.28-1.77.44-.4-.18-.68-.51-1.04-.74-1.68-1.07-4.11-1.14-5.79-.04-.51.34-.89.79-1.3,1.22-1.47-.7-3.34-.58-4.71.25-.64.35-1.04.94-1.4,1.52-2.41-2.55-4.28-5.49-5.81-8.55-2.26-4.53-3.77-9.35-4.71-14.25-.59-2.9-.95-5.84-1.13-8.78-.22-3.21-.13-6.42-.16-9.63-.05-1.22-.04-2.44,0-3.65-.05-2.15-.05-4.31,0-6.46-.05-1.28-.03-2.56,0-3.84.2-.87.51-1.72.62-2.61.3-2.57,0-5.23-1.09-7.64-.79-1.84-2.06-3.49-3.63-4.84-.97-.92-2.21-1.54-3.33-2.28.58,0,1.15-.06,1.73-.12,1.36-.03,2.71-.25,4.04-.52,1.78-.37,3.45-1.07,5.04-1.87,1.75-.97,3.32-2.23,4.61-3.68.95.04,1.86-.3,2.54-.89,1.23-1.05,2.07-2.41,2.84-3.75Z"/>
  <path class="cls-35" d="M58.82,39.83c2.05-.4,3.86-1.5,5.33-2.83.52.71.89,1.5,1.23,2.3,1.33,3.5,1.04,7.44-.59,10.82-.39.82-.95,1.55-1.48,2.29-.68.46-1.33.98-2.1,1.32-1.1.44-2.34.72-3.54.53-1.02-.14-2.04-.59-2.66-1.36-.31-.4-.53-.96-.23-1.41.25-.23.65-.1.97-.14,1.16.09,2.03-.8,2.61-1.6,1.12-1.87,1.12-4.09,1.02-6.16-.13-1.26-.28-2.51-.55-3.75Z"/>
  <path class="cls-8" d="M42.05,45.74c.2-.25.54-.34.86-.37,1.1-.09,2.23.34,2.91,1.13-.31.12-.63.21-.97.18-.49-.23-.98-.51-1.55-.56-.37,0-.71.16-1.08.2-.22-.11-.32-.38-.18-.58Z"/>
  <path class="cls-24" d="M134.36,47.18c.99-.5,1.78-1.27,2.8-1.73.11,1.87-1.18,3.63-2.95,4.5-1.44.79-3.11,1.23-4.78,1.31-2.67.13-5.28-.82-7.38-2.27-1.13-.72-2.06-1.65-2.96-2.59.22-.23.48-.53.86-.48.67.1,1.22.48,1.79.79,2.03,1.14,4.38,1.95,6.79,1.9,2.04-.01,4.06-.52,5.83-1.43Z"/>
  <path class="cls-12" d="M44.85,46.68c.34.02.66-.06.97-.18.07.26.35.57.1.81-.14.18-.43.19-.61.05-.19-.2-.32-.44-.46-.68Z"/>
  <path class="cls-29" d="M119.03,46.48l.05-.07c.9.94,1.83,1.87,2.96,2.59,2.1,1.45,4.72,2.4,7.38,2.27,1.25,1.19,2.86,2.04,3.97,3.35.54.61,1.1,1.2,1.65,1.8,1.71,1.99,2.82,4.33,3.75,6.69.61,1.54.84,3.17,1.03,4.79.1,1.4.23,2.81-.02,4.21-.06.53-.68.74-1.07,1.05-.38-1.21-.74-2.43-1.27-3.59-.52-1.08-1.07-2.15-1.74-3.16-.53-.8-1.2-1.51-1.86-2.22-1.16-1.2-2.05-2.6-2.79-4.04-.68-1.22-1.01-2.61-1.91-3.73-.33-.44-.8-.78-1.32-1.03-.56-.28-1.14-.5-1.74-.7-1.55-.53-2.98-1.38-4.07-2.51-1.06-1.15-1.9-2.47-2.43-3.89-.24-.58-.52-1.16-.57-1.79Z"/>
  <path class="cls-36" d="M24.64,48.35c1.05.27,2.13.41,3.22.46,1.12.74,2.36,1.36,3.33,2.28,1.57,1.35,2.84,3,3.63,4.84,1.1,2.4,1.39,5.06,1.09,7.64-.11.89-.42,1.74-.62,2.61-.54-.05-1.07,0-1.61.01-1.67,0-3.35-.14-4.96-.56-.71-.2-1.43-.4-2.05-.79,1.48-.29,2.93-1.39,2.92-2.86.04-.41-.66-.6-.87-.23-.19.46-.23.99-.62,1.37-.52.59-1.39.79-2.2.77-.29-.03-.54.11-.75.27h-.02c-1.04-.56-1.92-1.34-2.72-2.17-1.51-1.81-2.31-4.12-2.06-6.39.17-1.83,1.07-3.55,2.27-5.02.62-.78,1.4-1.44,2.02-2.23Z"/>
  <path class="cls-3" d="M41.76,49.75c1.96-.53,4.12.81,4.53,2.59.35,1.09.04,2.32-.79,3.16-.29.3-.64.56-1.02.77-1.16.59-2.69.57-3.81-.1-.84-.46-1.39-1.27-1.61-2.13-.46-1.77.72-3.82,2.69-4.3Z"/>
  <path class="cls-31" d="M129.43,51.26c1.68-.08,3.34-.52,4.78-1.31,3.57,1.64,6.31,4.6,7.71,7.99,1.24,3.08,1.4,6.46.7,9.67-.61,2.64-1.58,5.27-3.28,7.5-.25-.64-.42-1.3-.62-1.96.39-.31,1.01-.51,1.07-1.05.25-1.39.12-2.81.02-4.21-.19-1.62-.42-3.25-1.03-4.79-.93-2.36-2.04-4.7-3.75-6.69-.55-.6-1.11-1.19-1.65-1.8-1.11-1.31-2.72-2.16-3.97-3.35Z"/>
  <path class="cls-6" d="M41.47,51.07c.85-.28,1.77.53,1.55,1.31-.15.76-1.29,1.17-1.94.64-.75-.5-.52-1.71.38-1.94Z"/>
  <path class="cls-15" d="M61.21,53.72c.77-.33,1.42-.85,2.1-1.32,0,.96-.2,1.92-.08,2.88.11,1.3.53,2.56,1.17,3.72-.28,0-.58.03-.81-.15-.69-.48-1.27-1.14-1.51-1.91-.35-1.06-.64-2.14-.87-3.22Z"/>
  <path class="cls-9" d="M127.85,55.37c.52.25.98.59,1.32,1.03.9,1.13,1.22,2.51,1.91,3.73.74,1.45,1.63,2.84,2.79,4.04.66.71,1.33,1.42,1.86,2.22.67,1.01,1.22,2.08,1.74,3.16.53,1.16.89,2.38,1.27,3.59.2.66.36,1.32.62,1.96.39,1.33.64,2.72,1.31,3.97.52.96,1.21,1.9,2.21,2.5.93.57,2.06.93,3.19.78.46-.06.87-.33,1.34-.33.42.15.58.59.45.97-.53,1.8-2.43,3.06-4.4,3.32-3.02.33-6.02-1.16-7.78-3.34-1.64-1.98-2.44-4.42-2.88-6.84-.35-2.16-.6-4.34-1.24-6.45-.4-1.97-.68-3.98-1.43-5.88-.5-1.41-1.26-2.72-1.72-4.14-.28-.84-.58-1.68-.66-2.56-.04-.58.06-1.15.12-1.73Z"/>
  <path class="cls-17" d="M44.49,56.28c.38-.21.73-.47,1.02-.77.3.21.59.44.88.67.66-.17,1.31-.46,2.01-.38.92.05,1.83.39,2.43,1.05.62.58.73,1.44.64,2.21-.08.8-.68,1.47-1.37,1.92-.77.51-1.77.53-2.69.45-1.01-.08-1.84-.77-2.32-1.55-.51-.92-.23-2.01.26-2.89-.3-.22-.59-.46-.86-.7Z"/>
  <path class="cls-34" d="M24.63,56.7c.35-.25.99-.17,1.07.28.13.53-.74.43-.8.88-.07.24,0,.54-.22.73-.33.17-.74-.07-.78-.39-.09-.57.19-1.18.72-1.49Z"/>
  <path class="cls-18" d="M28.72,61.74c.2-.37.9-.18.87.23,0,1.47-1.44,2.57-2.92,2.86l-.09.03c-.48-.23-.96-.45-1.42-.71.21-.16.46-.31.75-.27.8.02,1.67-.18,2.2-.77.39-.38.43-.91.62-1.37Z"/>
  <path class="cls-1" d="M131.51,79.14c.07,1.11.54,2.16.81,3.24.23,1,.55,1.99.97,2.94.86,2.02,2.77,3.39,4.13,5.1,1.63,2.14,2.68,4.65,3.03,7.23.11.77.18,1.55.22,2.33.19,2.36.99,4.76,2.71,6.57,1.31,1.33,2.99,2.42,4.92,2.85,1.79.45,3.78.43,5.48-.3.64-.27,1.21-.67,1.75-1.08.63.51.24,1.29-.1,1.84-1.33,2.1-3.92,3.34-6.52,3.59-1.28,0-2.58.1-3.84-.13-2.66-.39-5.17-1.57-7.04-3.34-1.76-1.63-2.94-3.75-3.47-5.98-.41-1.73-.9-3.47-1.85-5.03-.52-.84-1.08-1.7-1.98-2.25.16-1.39.23-2.79.37-4.18.36-4.46.37-8.94.41-13.42Z"/>
  <path class="cls-23" d="M156.29,96.76c-.63-.65-1.37-1.33-2.35-1.47-.42-.07-.94.25-.87.67.06.38.24.74.32,1.11.17.66-.06,1.35-.38,1.94-.51.89-1.59,1.44-2.67,1.49-1.18.02-2.3-.62-2.88-1.54-.68-1.08-.79-2.37-.73-3.6.06-.94.05-1.88-.11-2.81-.31-2.31-1.41-4.53-3.17-6.23-3.02.33-6.02-1.16-7.78-3.34-1.64-1.98-2.44-4.42-2.88-6.84-.35-2.16-.6-4.34-1.24-6.45-.17.75-.07,1.52-.09,2.29,0,2.39,0,4.78.06,7.17.07,1.11.54,2.16.81,3.24.23,1,.55,1.99.97,2.94.86,2.02,2.77,3.39,4.13,5.1,1.63,2.14,2.68,4.65,3.03,7.23.11.77.18,1.55.22,2.33.19,2.36.99,4.76,2.71,6.57,1.31,1.33,2.99,2.42,4.92,2.85,1.79.45,3.78.43,5.48-.3.64-.27,1.21-.67,1.75-1.08,1.47-1.27,2.33-3.06,2.58-4.88.29-2.23-.21-4.64-1.81-6.39Z"/>
  <path class="cls-10" d="M130.72,96.73c.89.55,1.46,1.42,1.98,2.25.95,1.56,1.45,3.3,1.85,5.03.52,2.23,1.71,4.35,3.47,5.98,1.87,1.76,4.38,2.95,7.04,3.34,1.27.23,2.56.12,3.84.13-.18.58-.78.92-1.3,1.24-2.57,1.5-5.83,1.77-8.77,1.2-2.37-.48-4.63-1.49-6.45-2.96-1.76-1.36-2.99-3.19-3.87-5.12,1.05-3.63,1.71-7.35,2.2-11.08Z"/>
  <path class="cls-40" d="M114.02,103.88c.17-.96,1.43-1.5,2.37-1.13.66.18,1.02.75,1.32,1.28.38-.32.77-.69,1.31-.76.71-.13,1.59.04,1.95.67.52.82.2,1.88-.42,2.59-.76.79-1.78,1.34-2.79,1.82-.32.14-.63.34-.99.37-.66-.39-1.08-1.04-1.59-1.58-.81-.89-1.53-2.05-1.18-3.25Z"/>
  <path class="cls-37" d="M120.34,109.71c.11-.1.22-.11.35-.03.26.48.23,1.08.64,1.5.37.23.81.33,1.14.62-.35.29-.84.34-1.23.57-.5.36-.47,1.05-.96,1.42-.46-.44-.27-1.16-.75-1.58-.37-.24-.86-.3-1.15-.64.41-.33,1.05-.27,1.39-.67.31-.34.35-.81.57-1.19Z"/>
  <path class="cls-27" d="M112.79,111.01c.28-.37.26-.95.78-1.14.3.59.22,1.46,1,1.73.22.15.76.22.6.57-.37.3-.99.29-1.25.72-.23.39-.32.84-.68,1.16-.41-.46-.23-1.15-.7-1.57-.37-.23-.8-.36-1.18-.56.31-.51,1.13-.4,1.43-.91Z"/>
  <path class="cls-25" d="M54.5,118.35c1.69-1.1,4.11-1.03,5.79.04.36.23.64.57,1.04.74.59-.15,1.14-.44,1.77-.44,1.86-.08,3.47,1.1,4.46,2.44.77,1.09,1.57,2.34,1.37,3.68-.85-1.13-2.11-2.03-3.57-2.39-.76-.19-1.55-.06-2.32.04-.53-.35-1.06-.72-1.69-.9-1.38-.33-2.88.05-3.9.95-1.15-.08-2.29-.28-3.44-.22-.65.51-1,1.27-1.65,1.79-.56.53-1.48.67-1.88,1.36-1.04-.79-1.9-1.75-2.69-2.75-.32-.41-.51-.89-.71-1.36.37-.57.76-1.17,1.4-1.52,1.38-.84,3.24-.96,4.71-.25.41-.43.8-.88,1.3-1.22Z"/>
  <path class="cls-33" d="M109.04,117.96c1.64-.62,3.6-.39,5.05.54.47.3.76.77,1.2,1.1.58-.08,1.13-.34,1.72-.36.87-.04,1.77.1,2.53.51.75.36,1.28.98,1.72,1.61-.26.85-.87,1.56-1.46,2.24-.59.68-1.24,1.31-1.89,1.93-.18-.82-1.21-.93-1.78-1.45-.65-.52-1-1.3-1.74-1.73-1.13-.22-2.28.05-3.41.11-.54-.16-.93-.6-1.48-.76-1.17-.38-2.58-.35-3.61.33-.23.15-.45.32-.67.48-.83-.14-1.7-.26-2.52,0-1.43.37-2.57,1.33-3.4,2.42.02-1.01.4-1.97.88-2.88.54-.92,1.22-1.8,2.14-2.44.78-.59,1.76-.96,2.78-.96.71-.02,1.37.23,2.01.46.59-.45,1.18-.93,1.91-1.18Z"/>
  <path class="cls-32" d="M57.45,122.52c1.02-.9,2.53-1.28,3.9-.95.63.17,1.16.55,1.69.9.76-.1,1.55-.22,2.32-.04,1.47.36,2.72,1.26,3.57,2.39.87,1.31,1.01,3.23-.33,4.33-.84.71-2.01.93-3.1,1.13-2.03.3-4.11.36-6.16.23-1.6-.09-3.2-.32-4.69-.89-1.34-.56-2.55-1.43-3.32-2.58-.37-.49-.61-1.05-.86-1.6.4-.69,1.32-.83,1.88-1.36.65-.52,1-1.28,1.65-1.79,1.15-.06,2.3.15,3.44.22Z"/>
  <path class="cls-26" d="M105.9,122.03c1.03-.69,2.44-.71,3.61-.33.55.16.94.6,1.48.76,1.13-.05,2.28-.32,3.41-.11.74.42,1.09,1.21,1.74,1.73.57.51,1.59.63,1.78,1.45-.38.73-.75,1.48-1.32,2.11-.88.98-2.04,1.76-3.35,2.18-.87.28-1.78.46-2.69.57-2.25.27-4.53.27-6.78.03-1.36-.19-2.83-.36-3.91-1.21-.53-.44-.91-1.03-1.02-1.68-.16-.88.13-1.77.48-2.58.83-1.09,1.97-2.05,3.4-2.42.82-.27,1.69-.15,2.52,0,.22-.17.44-.33.67-.48Z"/>
</svg>