<?xml version="1.0" encoding="UTF-8"?>
<svg id="_图层_1" data-name="图层 1" xmlns="http://www.w3.org/2000/svg" viewBox="0 0 137.92 164.18">
  <defs>
    <style>
      .cls-1 {
        fill: #fcbdbd;
      }

      .cls-2 {
        fill: #e6b583;
      }

      .cls-3 {
        fill: #f2c28e;
      }

      .cls-4 {
        fill: #e3b080;
      }

      .cls-5 {
        fill: #f1c08b;
      }

      .cls-6 {
        fill: #e7b788;
      }

      .cls-7 {
        fill: #e1b07d;
      }

      .cls-8 {
        fill: #f0bf8b;
      }

      .cls-9 {
        fill: #e4b383;
      }

      .cls-10 {
        fill: #e7b786;
      }

      .cls-11 {
        fill: #f1c08c;
      }

      .cls-12 {
        fill: #e5b280;
      }

      .cls-13 {
        fill: #e5b382;
      }

      .cls-14 {
        fill: #51331b;
      }

      .cls-15 {
        fill: #52341c;
      }

      .cls-16 {
        fill: #b57e4e;
      }

      .cls-17 {
        fill: #fee6c9;
      }

      .cls-18 {
        fill: #f2c08b;
      }

      .cls-19 {
        fill: #fdbebf;
      }

      .cls-20 {
        fill: #f1c089;
      }

      .cls-21 {
        fill: #56361d;
      }
    </style>
  </defs>
  <path class="cls-16" d="M32.02,29.12c1.34-5.8,6.85-10.57,12.91-10.44,3.83-.15,7.58,1.7,10.08,4.55,1.9,2.13,3.02,4.82,3.65,7.57,5.75-.76,11.57-1,17.37-.93,4.85.04,9.69.5,14.48,1.25,1.87.27,3.7.79,5.56,1.08.64-2.36,1.63-4.64,3.16-6.58,2.63-3.46,7.07-5.45,11.41-5.06,5.84.48,10.86,5.45,11.61,11.22.63,4.09-.74,8.36-3.41,11.5-.84,1.04-1.87,1.9-2.89,2.75,1.68,2.86,3.03,5.93,3.77,9.16,1.38,5.69,1.41,11.72-.02,17.4-1.45,5.98-4.9,11.44-9.69,15.3-.38.27-.67.65-.95,1.02,1.38.84,2.87,1.49,4.18,2.45,5.5,3.76,9.21,9.76,10.85,16.16,1.34,5.17,1.63,10.59,1.02,15.89-.7,6.65-3.32,13.18-7.82,18.18-3.79,4.27-8.9,7.2-14.32,8.88-7.35,2.32-15.11,2.96-22.78,3.19-6.5.31-13.01.09-19.51-.11-5.35-.29-10.76-.45-15.98-1.78-2.64-.7-5.29-1.97-6.9-4.26-1.48-1.98-2.02-4.46-2.32-6.87-.43-4.96-.28-9.95-.29-14.92,0-2.85.02-5.71.02-8.56.06-.71-.89-.71-1.34-.99-5.94-2.71-11.48-6.43-15.9-11.25-2.94-3.22-5.37-6.94-6.95-11.01-1.35-3.58-2.19-7.48-1.63-11.32.39-2.72,1.52-5.37,3.43-7.37,1.97-2.09,4.7-3.47,7.56-3.74,3.55-.52,7.26,1.01,9.53,3.76,2.53,3.09,3.94,6.87,5.5,10.5.07-.62.15-1.24.12-1.86-.16-2.47-.03-4.95-.07-7.43.05-5.98-.1-11.97.04-17.95.11-4.76.08-9.71,2.12-14.12-1.06-1-2.14-1.99-3-3.17-2.55-3.4-3.62-7.93-2.61-12.09ZM40.52,27.82c-1.39,1.36-2.1,3.34-2.1,5.27,0,2.31.81,4.63,2.38,6.34,2.82-2.97,6.35-5.23,10.2-6.63.6-.26,1.31-.37,1.81-.81-.89-3.51-4.39-6.39-8.08-6.1-1.58.06-3.11.79-4.2,1.92ZM105.35,28.68c-1.92,1.24-3.3,3.18-4.04,5.32.89.48,1.82.87,2.72,1.31,3.14,1.64,5.99,3.8,8.53,6.26,1.9-1.96,3.12-4.64,3-7.4-.06-2.16-1.14-4.29-2.94-5.51-2.17-1.38-5.1-1.33-7.28.01ZM58.78,53.95c-1.35.39-2.05,1.82-2.31,3.1-.23,1.63-.24,3.47.79,4.85.83,1.2,2.65,1.61,3.87.76,1.13-.78,1.61-2.2,1.75-3.51.12-1.55-.2-3.24-1.27-4.43-.69-.78-1.84-1.08-2.83-.77ZM94.05,53.99c-1.18.43-1.85,1.62-2.17,2.77-.44,1.74-.21,3.7.8,5.21,1.09,1.53,3.65,1.48,4.67-.11,1.29-2.04,1.28-4.9-.11-6.88-.69-.99-2.06-1.44-3.19-.99ZM74.6,56.43c-2.96.48-5.66,2.23-7.27,4.75-2.15,3.43-2.92,7.75-1.94,11.69.61,2.61,2.33,4.98,4.74,6.2,3.35,1.74,7.31,1.93,10.96,1.22,2.88-.55,5.63-2.22,7.09-4.8,1.53-2.59,1.72-5.75,1.25-8.66-.55-3.72-2.58-7.4-5.95-9.24-2.71-1.39-5.9-1.7-8.87-1.15ZM101.09,64.53c-1.17.17-2.41.67-3.02,1.75-.7,1.14-.35,2.79.79,3.52,1.4.88,3.18,1,4.77.65,1.13-.23,2.23-.95,2.65-2.06.35-1.09-.06-2.38-.99-3.05-1.2-.88-2.77-1.02-4.2-.81ZM50.72,64.76c-1.38.35-2.61,1.62-2.42,3.13.07,1.44,1.42,2.43,2.74,2.64,1.39.22,2.9.22,4.2-.39.99-.48,1.83-1.51,1.69-2.66-.02-.95-.62-1.8-1.42-2.27-1.43-.85-3.23-.88-4.8-.44ZM25.06,76.71c-1.91.63-1.83,3.57-.26,4.53.77.39,1.82.24,2.38-.43.7-.85.79-2.12.25-3.07-.43-.82-1.47-1.38-2.37-1.03ZM18.71,76.95c-.79.15-1.27.94-1.41,1.68-.3,1.5.81,3.32,2.44,3.33,1.29-.05,2.1-1.47,1.81-2.66-.12-1.37-1.4-2.68-2.84-2.35ZM13.69,81.77c-.48.26-.81.74-.97,1.25-.55,1.56.95,3.51,2.63,3.18,1.06-.16,1.82-1.28,1.63-2.32-.17-1.47-1.83-2.88-3.29-2.1ZM22.67,83.09c-1.05.14-2,.65-2.83,1.29-2.15,1.53-3,4.62-1.94,7.03.92,2.09,3.32,3.3,5.55,3.08,2.45-.23,4.9-1.83,5.59-4.28.61-1.97.11-4.26-1.4-5.7-1.28-1.29-3.22-1.64-4.97-1.42ZM71.75,99.17c-.88.14-1.82.17-2.62.62-.76.47-.81,1.46-.89,2.26-.17,3-.12,6-.16,9,0,4.45-.12,8.91.12,13.36,0,.87.29,1.92,1.23,2.21,1.85.51,3.8.55,5.71.7,3.96.13,8.06,0,11.8-1.46,3.11-1.25,5.81-3.68,7.12-6.8,1.75-4.1,1.56-9.03-.65-12.92-1.45-2.53-3.83-4.45-6.52-5.53-4.77-1.98-10.08-1.91-15.13-1.44ZM44.1,109.97c-.24,1.37-.15,2.77-.16,4.15.04.4-.05.86.23,1.2.32.17.6-.1.87-.25-.39-1.69-.21-3.43,0-5.13.1-.39-.19-.67-.38-.95-.23.3-.53.59-.57.99ZM49.9,116.26c-.36,1.78-.23,3.61-.02,5.4.03.42.44.64.81.42.25-1.26-.15-2.54-.07-3.8,0-.75.3-1.56-.14-2.24-.14.06-.43.17-.58.23ZM41.96,121.19c-.35.79-.22,1.7-.27,2.55.02,1.21-.12,2.47.38,3.61.29-.17.78-.3.64-.75-.14-1.69-.15-3.39.05-5.07.09-.43-.56-.81-.8-.34ZM46.75,128.43c-.32.1-.37.48-.39.77-.09,1.39.01,2.8.25,4.17.07.36.11.77.4,1.03.3.03.67-.11.66-.46,0-.93-.28-1.84-.34-2.77-.1-.81.05-1.62.05-2.42-.03-.34-.36-.45-.63-.33ZM53.21,129.64c-.5.95-.2,2.04-.1,3.04.18.95.25,2.03.98,2.75.15-.27.45-.52.34-.86-.32-1.57-.57-3.17-.66-4.77-.14-.04-.42-.12-.56-.16ZM42.23,136.64c-.12.87-.04,1.76.05,2.63.14,1,.25,2.05.84,2.9.16-.05.48-.16.64-.21-.47-1.85-.76-3.76-.72-5.67-.31.04-.76-.08-.81.35ZM50.27,138.96c-.37.13-.35.66-.32.99.17,1.26.45,2.53.94,3.71.1.45.89.58.92.02-.29-1.25-.77-2.47-.87-3.76-.06-.37-.11-1.16-.66-.96ZM57.67,139.78c.29,1.57.78,3.11,1.51,4.53.26.45.72.05,1.03-.12-.44-.9-.92-1.8-1.17-2.79-.16-.58-.24-1.19-.52-1.73-.28-.18-.58.04-.85.1Z"/>
  <path class="cls-8" d="M40.52,27.82c1.09-1.13,2.62-1.86,4.2-1.92,3.7-.29,7.19,2.59,8.08,6.1-.5.44-1.21.55-1.81.81-3.85,1.39-7.37,3.66-10.2,6.63-1.57-1.72-2.38-4.04-2.38-6.34,0-1.93.71-3.91,2.1-5.27Z"/>
  <path class="cls-11" d="M105.35,28.68c2.18-1.34,5.11-1.39,7.28-.01,1.8,1.22,2.88,3.35,2.94,5.51.12,2.76-1.1,5.44-3,7.4-2.54-2.46-5.39-4.62-8.53-6.26-.9-.44-1.83-.83-2.72-1.31.74-2.14,2.12-4.09,4.04-5.32Z"/>
  <path class="cls-15" d="M58.78,53.95c.99-.31,2.14-.01,2.83.77,1.06,1.19,1.39,2.88,1.27,4.43-.14,1.31-.62,2.73-1.75,3.51-1.22.85-3.04.44-3.87-.76-1.02-1.39-1.01-3.22-.79-4.85.26-1.28.96-2.71,2.31-3.1Z"/>
  <path class="cls-14" d="M94.05,53.99c1.13-.45,2.5,0,3.19.99,1.39,1.99,1.41,4.85.11,6.88-1.02,1.59-3.57,1.64-4.67.11-1-1.51-1.24-3.47-.8-5.21.32-1.15.98-2.35,2.17-2.77Z"/>
  <path class="cls-17" d="M74.6,56.43c2.97-.56,6.16-.24,8.87,1.15,3.38,1.84,5.4,5.52,5.95,9.24.47,2.91.28,6.08-1.25,8.66-1.46,2.58-4.22,4.25-7.09,4.8-3.65.71-7.61.52-10.96-1.22-2.41-1.22-4.13-3.59-4.74-6.2-.98-3.94-.21-8.26,1.94-11.69,1.61-2.52,4.32-4.27,7.27-4.75ZM75.27,59.77c-1.07.18-2.23.48-2.95,1.34-.86,1.03-.74,2.61.05,3.64.98,1.34,2.6,1.96,4.15,2.36-.05,1.35.07,2.71-.04,4.06-.44,1.14-1.93,1.6-2.99,1.04-.83-.39-1.14-1.34-1.85-1.89-.31.24-.6.51-.82.84.36.76.77,1.53,1.48,2.01,1.5,1.11,3.77.91,4.96-.56.93,1.06,2.45,1.59,3.81,1.12,1.32-.37,2.7-1.58,2.51-3.06-.32-.06-.64-.27-.97-.17-.46.52-.74,1.22-1.36,1.59-1.04.74-2.76.3-3.21-.93-.09-1.38-.01-2.76-.03-4.15,1.35-.24,2.71-.74,3.69-1.73.85-.82,1.44-2.09,1.03-3.26-.32-1.04-1.29-1.76-2.31-2.02-1.68-.43-3.45-.47-5.17-.24Z"/>
  <path class="cls-21" d="M75.27,59.77c1.71-.23,3.49-.19,5.17.24,1.03.26,1.99.98,2.31,2.02.41,1.17-.18,2.45-1.03,3.26-.98.99-2.34,1.49-3.69,1.73.01,1.38-.07,2.77.03,4.15.45,1.22,2.16,1.67,3.21.93.62-.37.9-1.07,1.36-1.59.33-.1.65.1.97.17.19,1.48-1.19,2.69-2.51,3.06-1.37.46-2.88-.07-3.81-1.12-1.19,1.47-3.46,1.67-4.96.56-.71-.48-1.12-1.26-1.48-2.01.22-.33.51-.6.82-.84.71.55,1.02,1.5,1.85,1.89,1.05.57,2.54.11,2.99-1.04.1-1.35-.01-2.71.04-4.06-1.55-.41-3.18-1.02-4.15-2.36-.8-1.03-.91-2.61-.05-3.64.72-.87,1.89-1.16,2.95-1.34Z"/>
  <path class="cls-1" d="M101.09,64.53c1.43-.21,3-.06,4.2.81.93.67,1.34,1.96.99,3.05-.42,1.11-1.52,1.83-2.65,2.06-1.59.34-3.37.23-4.77-.65-1.14-.73-1.48-2.37-.79-3.52.6-1.09,1.84-1.58,3.02-1.75Z"/>
  <path class="cls-19" d="M50.72,64.76c1.57-.44,3.36-.41,4.8.44.8.47,1.4,1.32,1.42,2.27.13,1.15-.7,2.19-1.69,2.66-1.3.62-2.8.62-4.2.39-1.33-.21-2.67-1.2-2.74-2.64-.2-1.5,1.03-2.78,2.42-3.13Z"/>
  <path class="cls-20" d="M25.06,76.71c.9-.35,1.95.21,2.37,1.03.54.95.45,2.22-.25,3.07-.57.67-1.62.82-2.38.43-1.57-.96-1.65-3.9.26-4.53Z"/>
  <path class="cls-3" d="M18.71,76.95c1.44-.33,2.72.99,2.84,2.35.29,1.19-.52,2.61-1.81,2.66-1.62-.01-2.74-1.83-2.44-3.33.14-.74.62-1.53,1.41-1.68Z"/>
  <path class="cls-5" d="M13.69,81.77c1.46-.78,3.12.64,3.29,2.1.19,1.05-.56,2.17-1.63,2.32-1.68.34-3.18-1.62-2.63-3.18.15-.51.49-.99.97-1.25Z"/>
  <path class="cls-18" d="M22.67,83.09c1.75-.22,3.69.12,4.97,1.42,1.51,1.44,2.01,3.72,1.4,5.7-.69,2.44-3.14,4.05-5.59,4.28-2.23.22-4.62-.99-5.55-3.08-1.06-2.41-.21-5.5,1.94-7.03.83-.63,1.78-1.15,2.83-1.29Z"/>
  <path class="cls-12" d="M44.1,109.97c.04-.4.34-.69.57-.99.19.29.48.57.38.95-.22,1.7-.4,3.44,0,5.13-.27.15-.55.41-.87.25-.28-.33-.19-.8-.23-1.2,0-1.38-.08-2.78.16-4.15Z"/>
  <path class="cls-13" d="M49.9,116.26c.15-.06.44-.17.58-.23.44.68.13,1.49.14,2.24-.08,1.27.32,2.55.07,3.8-.37.22-.77,0-.81-.42-.21-1.79-.34-3.62.02-5.4Z"/>
  <path class="cls-10" d="M41.96,121.19c.23-.47.89-.09.8.34-.2,1.68-.19,3.38-.05,5.07.14.45-.35.58-.64.75-.5-1.14-.36-2.4-.38-3.61.05-.85-.08-1.76.27-2.55Z"/>
  <path class="cls-7" d="M46.75,128.43c.27-.12.61,0,.63.33,0,.81-.15,1.61-.05,2.42.06.93.34,1.83.34,2.77.01.35-.37.49-.66.46-.29-.27-.33-.67-.4-1.03-.23-1.38-.34-2.78-.25-4.17.02-.29.07-.67.39-.77Z"/>
  <path class="cls-9" d="M53.21,129.64c.14.04.42.12.56.16.09,1.61.34,3.2.66,4.77.11.34-.19.59-.34.86-.74-.72-.8-1.8-.98-2.75-.1-1.01-.4-2.1.1-3.04Z"/>
  <path class="cls-6" d="M42.23,136.64c.05-.43.51-.31.81-.35-.04,1.92.25,3.82.72,5.67-.16.05-.48.16-.64.21-.6-.85-.7-1.9-.84-2.9-.09-.87-.18-1.76-.05-2.63Z"/>
  <path class="cls-2" d="M50.27,138.96c.55-.2.6.6.66.96.1,1.29.58,2.5.87,3.76-.03.56-.81.43-.92-.02-.49-1.18-.77-2.45-.94-3.71-.03-.33-.04-.86.32-.99Z"/>
  <path class="cls-4" d="M57.67,139.78c.28-.06.57-.28.85-.1.28.54.35,1.15.52,1.73.25.98.72,1.88,1.17,2.79-.3.17-.76.57-1.03.12-.73-1.41-1.22-2.96-1.51-4.53Z"/>
</svg>