<?xml version="1.0" encoding="UTF-8"?>
<svg id="_图层_1" data-name="图层 1" xmlns="http://www.w3.org/2000/svg" viewBox="0 0 145.13 158.79">
  <defs>
    <style>
      .cls-1 {
        fill: #9d6938;
      }

      .cls-2 {
        fill: #4b3827;
      }

      .cls-3 {
        fill: #4a3623;
      }

      .cls-4 {
        fill: #996738;
      }

      .cls-5 {
        fill: #4b3927;
      }

      .cls-6 {
        fill: #ac7542;
      }

      .cls-7 {
        fill: #9b6837;
      }

      .cls-8 {
        fill: #d8b681;
      }

      .cls-9 {
        fill: #ee9676;
      }

      .cls-10 {
        fill: #986636;
      }

      .cls-11 {
        fill: #fbfbfb;
      }

      .cls-12 {
        fill: #eac999;
      }

      .cls-13 {
        fill: #ebcc9b;
      }

      .cls-14 {
        fill: #956436;
      }

      .cls-15 {
        fill: #574b3f;
      }

      .cls-16 {
        fill: #543e2c;
      }

      .cls-17 {
        fill: #9a6737;
      }

      .cls-18 {
        fill: #986537;
      }

      .cls-19 {
        fill: #483522;
      }

      .cls-20 {
        fill: #ebcc9c;
      }

      .cls-21 {
        fill: #675a4e;
      }

      .cls-22 {
        fill: #eccc9c;
      }

      .cls-23 {
        fill: #986737;
      }

      .cls-24 {
        fill: #ee9677;
      }

      .cls-25 {
        fill: #ebcc9d;
      }

      .cls-26 {
        fill: #d7b580;
      }

      .cls-27 {
        fill: #f2987a;
      }

      .cls-28 {
        fill: #d9b782;
      }

      .cls-29 {
        fill: #fafafa;
      }

      .cls-30 {
        fill: #574b40;
      }

      .cls-31 {
        fill: #e3c392;
      }

      .cls-32 {
        fill: #9c6837;
      }

      .cls-33 {
        fill: #d9b681;
      }

      .cls-34 {
        fill: #f3997c;
      }
    </style>
  </defs>
  <path class="cls-12" d="M109.09,8.46c.78-1.04,2.11-1.63,3.4-1.58,1.42-.02,2.75.68,3.83,1.56,1.22.97,2.2,2.2,3.06,3.49,1.57,2.44,2.65,5.2,3.26,8.03-1.05.28-2.09.61-3.18.7-2.64.19-5.29-.29-7.79-1.15-.88-.25-1.71-.7-2.64-.77.02-1.23-.07-2.48-.43-3.67-.26-.97-.71-1.91-.7-2.94-.09-1.32.37-2.63,1.17-3.67Z"/>
  <path class="cls-12" d="M15.34,9.62c1.13-1.1,2.48-2.1,4.07-2.36,1.31-.26,2.75.22,3.63,1.24,1.24,1.44,1.54,3.56.84,5.32-.67,1.5-.81,3.17-.83,4.79-.92.15-1.76.56-2.64.84-2.49.76-5.11,1.27-7.73,1.08-1.02-.04-2-.32-2.95-.65.93-3.83,2.82-7.46,5.6-10.27Z"/>
  <path class="cls-8" d="M20.42,19.45c.88-.28,1.72-.69,2.64-.84.13,1.38.23,2.78.66,4.1-.69.7-1.64,1.05-2.5,1.49-1.93.8-3.94,1.43-6.01,1.74-1.08.14-2.17.13-3.25.06-1.08-.07-2.11-.42-3.11-.82.11-1.79.41-3.56.89-5.29.96.33,1.94.61,2.95.65,2.62.18,5.23-.32,7.73-1.08Z"/>
  <path class="cls-26" d="M109.05,18.73c.92.08,1.76.53,2.64.77,2.49.86,5.14,1.34,7.79,1.15,1.09-.09,2.13-.42,3.18-.7.45,1.72.67,3.5.74,5.27-1.02.33-2.03.76-3.12.8-2.15.24-4.33-.08-6.4-.66-1.92-.57-3.77-1.38-5.47-2.43.31-1.38.71-2.78.65-4.21Z"/>
  <path class="cls-20" d="M23.72,22.72c.58,1.81,1.41,3.55,2.52,5.09-.86.55-1.57,1.29-2.42,1.87-2.35,1.74-4.97,3.13-7.71,4.14-1.92.71-3.95,1.05-5.97,1.27-1.04-3.19-1.49-6.57-1.28-9.92.99.41,2.03.75,3.11.82,1.08.07,2.17.08,3.25-.06,2.07-.3,4.08-.93,6.01-1.74.86-.43,1.81-.78,2.5-1.49Z"/>
  <path class="cls-13" d="M105.93,27.82c1.08-1.48,1.88-3.15,2.46-4.88,1.7,1.05,3.55,1.86,5.47,2.43,2.07.58,4.25.9,6.4.66,1.09-.04,2.1-.47,3.12-.8.15,3.49-.38,7-1.51,10.31,0-.1-.02-.29-.03-.39-.89-.18-1.8-.16-2.69-.34-2.4-.45-4.72-1.32-6.85-2.5-1.64-.83-3.17-1.88-4.62-3.02-.59-.49-1.14-1.04-1.77-1.48Z"/>
  <path class="cls-33" d="M23.82,29.68c.84-.57,1.56-1.32,2.42-1.87.81,1.06,1.72,2.02,2.74,2.88-.38.64-.76,1.29-1.25,1.85-1.84,2.07-4.03,3.82-6.49,5.1-2.78,1.49-5.88,2.53-9.07,2.51-.81-1.63-1.55-3.31-2.03-5.06,2.03-.22,4.05-.56,5.97-1.27,2.74-1.02,5.36-2.4,7.71-4.14Z"/>
  <path class="cls-28" d="M103.13,30.83c1.02-.91,2-1.89,2.8-3,.63.44,1.18.99,1.77,1.48,1.45,1.14,2.97,2.18,4.62,3.02,2.14,1.18,4.45,2.05,6.85,2.5.89.17,1.8.15,2.69.34,0,.1.02.29.03.39-.5,1.61-1.16,3.17-1.94,4.66-2.27,0-4.54-.38-6.64-1.25-2.42-.95-4.65-2.35-6.64-4.01-1.36-1.19-2.7-2.49-3.53-4.11Z"/>
  <path class="cls-25" d="M28.98,30.69c1.93,1.43,4.1,2.46,6.28,3.44-.1.47-.06.96-.06,1.43,0,.57-.15,1.13-.09,1.7.11.79.35,1.56.79,2.23.23.33.13.75.06,1.12-.29.54-.44,1.14-.34,1.75-1.06.04-2.15.22-3.04.82-1.09.7-1.74,1.94-1.94,3.2-.1.77.03,1.55.13,2.31-.78-.11-1.68-.07-2.24.56-.26.36-.35.8-.36,1.23-.35-.14-.72-.24-1.09-.29-.24-.04-.47-.09-.71-.13-1.44-.23-3.17-.17-4.22.99-.19.33-.33.7-.33,1.1-4.04-3.24-7.32-7.38-9.64-12,3.18.01,6.29-1.02,9.07-2.51,2.46-1.28,4.66-3.03,6.49-5.1.49-.56.86-1.21,1.25-1.85Z"/>
  <path class="cls-20" d="M99.62,33.08c1.24-.63,2.41-1.4,3.51-2.25.83,1.63,2.17,2.92,3.53,4.11,1.99,1.67,4.22,3.06,6.64,4.01,2.1.87,4.37,1.26,6.64,1.25-2.35,4.56-5.62,8.64-9.57,11.92-.03.2-.05.4-.11.59.09-.65.1-1.4-.41-1.89-.79-.78-1.96-.98-3.03-.97-.85-.01-1.68.21-2.48.48-.23.07-.46.15-.68.22-.11-.51-.12-1.08-.46-1.49-.45-.44-1.14-.31-1.71-.26.39-1.49.21-3.17-.67-4.46-.63-.98-1.66-1.69-2.8-1.9-.51-.1-1.04-.1-1.56-.09.04-.31.11-.63.05-.94-.08-.35-.39-.58-.63-.82.29-1.2.51-2.47.21-3.7-.16-.64-.53-1.23-1.06-1.61,1.47-.84,3.1-1.37,4.58-2.19Z"/>
  <path class="cls-31" d="M35.2,35.56c0-.48-.03-.96.06-1.43.64.31,1.26.63,1.89.96.17.11.38.11.58.11-.6.14-1.08.62-1.28,1.2-.41,1.08-.14,2.25.06,3.34.02.07.05.22.06.29l.02.15c-.21.14-.42.28-.63.42.06-.37.17-.78-.06-1.12-.43-.67-.68-1.44-.79-2.23-.06-.57.09-1.13.09-1.7Z"/>
  <path class="cls-10" d="M28.17,50.49c0-.44.1-.88.36-1.23.27.88.41,1.8.73,2.67-.74-.27-1.53-.57-2-1.25.1-.07.19-.15.29-.22-.25-.01-.49-.03-.74-.04.09-.08.18-.15.27-.22.38.05.74.15,1.09.29Z"/>
  <path class="cls-6" d="M102.27,62.35c.6-.86,1.16-1.75,1.73-2.63,1.37-.93,2.62-2.03,3.79-3.2,1.06-1.08,2.08-2.31,2.48-3.8.09-.65.1-1.4-.41-1.89-.79-.78-1.96-.98-3.03-.97-.85-.01-1.68.21-2.48.48.04.1.11.3.15.4-.67.48-1.38.91-2.17,1.17.2-.63.62-1.15,1.04-1.64.1.09.19.19.29.29-.11-.51-.12-1.08-.46-1.49-.45-.44-1.14-.31-1.71-.26.39-1.49.21-3.17-.67-4.46-.63-.98-1.66-1.69-2.8-1.9-.51-.1-1.04-.1-1.56-.09.04-.31.11-.63.05-.94-.08-.35-.39-.58-.63-.82.29-1.2.51-2.47.21-3.7-.16-.64-.53-1.23-1.06-1.61-1.22-.61-2.63-.16-3.79.38-2.07,1-3.84,2.54-5.28,4.31-.5.65-1.04,1.34-1.16,2.18-.08.36.2.63.5.77-2.47,2.5-4.65,5.25-6.86,7.97-1.76,2.23-3.57,4.43-5.24,6.73.76.12,1.5.38,2.2.69.64.28,1.17.9,1.2,1.61,0,.55-.38.98-.66,1.41.73.16,1.47.29,2.16.6,1.56.73,3.07,1.76,3.95,3.28.38.68.66,1.62.14,2.3-.53.64-1.43.59-2.19.64,1.06,1.15,1.85,2.67,1.78,4.27-.02.7-.49,1.38-1.19,1.54-1.12.29-2.19-.28-3.22-.64,0,.53.03,1.06-.07,1.58-.15.81-.99,1.43-1.81,1.32-.93-.12-1.77-.63-2.44-1.28.08,1.37-.19,2.87-1.12,3.92-.74.85-2.01,1.08-3.04.68-1.33-.39-2.23-1.52-2.91-2.65-.58.86-1.14,1.8-2.1,2.3-.36-.42-.67-.88-.93-1.36-.41.41-.79.84-1.15,1.3-.15.15-.28.41-.53.37-.66-.09-1.13-.64-1.47-1.16-.66-1.04-.68-2.31-.66-3.49-.65.49-1.26,1.09-2.07,1.27-.73.24-1.66.15-2.13-.52-.38-.66-.26-1.45-.28-2.18-.34.12-.68.24-1.02.35-.64.23-1.34.3-2,.11-.51-.23-1.08-.53-1.26-1.1-.3-.86.05-1.77.43-2.54.52-1.13,1.62-1.85,2.17-2.96.2-.35-.05-.76-.3-1-.49-.42-1.28-.33-1.74.09.14.52.2,1.07.17,1.61-.39-.09-.84-.13-1.09-.48-.46-.54-.26-1.31-.02-1.9.62-1.48,1.99-2.46,3.34-3.23.93-.57,2-.81,3.05-1.03-.31-.35-.73-.66-.81-1.15-.08-.71.36-1.39.94-1.76.96-.6,2.11-.77,3.22-.84-.31-.51-.61-1.02-.97-1.49-.93-1.24-1.85-2.48-2.83-3.69.22-.18.51-.36.55-.66.16-.93-.34-1.79-.83-2.53-1.17-1.7-2.88-3.15-4.92-3.62-1.15-1.38-2.25-2.82-3.58-4.05-.45-1-1.24-1.78-2.02-2.53-1.6-1.59-3.43-3.07-5.63-3.72-.58-.16-1.2-.27-1.79-.09-.6.14-1.08.62-1.28,1.2-.41,1.08-.14,2.25.06,3.34.02.07.05.22.06.29l.02.15c-.21.14-.42.28-.63.42-.29.54-.44,1.14-.34,1.75-1.06.04-2.15.22-3.04.82-1.09.7-1.74,1.94-1.94,3.2-.1.77.03,1.55.13,2.31-.78-.11-1.68-.07-2.24.56.27.88.41,1.8.73,2.67-.74-.27-1.53-.57-2-1.25.1-.07.19-.15.29-.22-.25-.01-.49-.03-.74-.04.09-.08.18-.15.27-.22-.24-.04-.47-.09-.71-.13-1.44-.23-3.17-.17-4.22.99-.19.33-.33.7-.33,1.1.02.63.25,1.23.55,1.79.78,1.47,1.94,2.7,3.2,3.78.7.58,1.39,1.19,2.19,1.62.17.08.32.2.42.37.58.88,1.13,1.78,1.73,2.64.73-.05,1.48-.04,2.2.14,1.28.26,2.55.73,3.54,1.6-1.5-.49-3.05-.94-4.63-1.01-.9-.03-1.69-.54-2.58-.6-.49,0-.97.15-1.45.26-1.32.39-2.68.96-3.53,2.1-.83,1.11-.67,2.65-.16,3.87,1.49,3.88,5.89,6.25,9.96,5.66,1.26-.12,2.42-.62,3.56-1.13.28,1.04.27,2.14.57,3.18.28.96.6,2,1.41,2.66.4-.03.8.02,1.18.12.47-.74.53-1.63.91-2.4.43.44.65,1.19,1.33,1.29.38.09.71-.18,1.04-.32.5.24,1.05.27,1.59.28-.14.27-.18.71-.54.78-.34-.06-.66-.19-.99-.3-.27.19-.52.48-.85.54-.44-.09-.81-.37-1.19-.59-.23.24-.45.49-.68.73.27.25.44.59.63.9,1.32,2.05,2.65,4.1,4,6.13.3.47.68.89.85,1.43.3,1,.6,2.01.77,3.05.81,4.69.64,9.47.68,14.21-.02.6.06,1.22-.1,1.8-.61,1.93-1.58,3.78-1.74,5.83-.01.86.06,1.97.91,2.44.43.26.93.07,1.33-.16-.1.86-.22,1.72-.36,2.57-.4,1.94-1.21,3.78-1.55,5.74.09.46-.03,1.08.41,1.38.53.34.49,1.14,1.07,1.44.48.28,1.06.07,1.49-.21.69-.43.97-1.23,1.52-1.8.25,1.02-.06,2.13.36,3.12.18.47.72.79,1.21.59.9-.27,1.32-1.18,1.99-1.76-.08,1.08-.68,2.09-1.54,2.73-.74.55-1.94.41-2.44-.39-.26-.51-.28-1.09-.39-1.64-.54.42-1.13.81-1.83.91-.35.79-.71,1.57-1.06,2.36-.53,1.18-1.06,2.42-.99,3.74.02.71.31,1.55,1.06,1.78.6.25,1.25-.03,1.79-.29-.55,1.58-1.09,3.17-1.34,4.83-.09.85-.08,1.79.38,2.54.42.65,1.27.87,2,.74.92-.31,1.72-.9,2.34-1.64,0,.87,0,1.85.56,2.57.53.69,1.55.77,2.3.43.93-.45,1.54-1.3,2.22-2.04.16.68.32,1.41.83,1.92.48.54,1.33.57,1.94.24.74-.37,1.1-1.16,1.54-1.82.22.67.46,1.36.98,1.86.4.43.97.65,1.55.65,1.1-.14,1.76-1.12,2.12-2.08.32.95.99,1.87,2.04,2.05.39,0,.8-.03,1.14-.25.77-.47,1.18-1.31,1.56-2.09.34.57.65,1.2,1.21,1.59.59.38,1.44.51,2.02.04.66-.5.88-1.34,1.06-2.11.57.75,1.13,1.58,2.02,1.99.76.4,1.84.39,2.41-.34.63-.73.56-1.75.56-2.65.62.73,1.38,1.38,2.32,1.64.75.27,1.67-.04,2.07-.74.51-.83.38-1.86.32-2.78-.25-1.54-.77-3.01-1.23-4.49.41.19.85.38,1.31.33.68-.03,1.23-.6,1.4-1.23.23-.88.09-1.81-.2-2.65-.48-1.43-1.24-2.73-1.83-4.11.41,0,.88.04,1.22-.26.67-.5.84-1.4.86-2.19.08-2.57-1.09-4.93-1.72-7.37-.25-.89-.19-1.82-.31-2.73.41.09.89.28,1.29.02.61-.36.85-1.1.9-1.77.11-2.38-1.15-4.51-1.81-6.72-.07-2.23-.02-4.47-.03-6.7.03-4.1.02-8.31,1.41-12.22.62-1.23,1.47-2.33,2.19-3.5,1.02-1.63,2.12-3.2,3.06-4.87-.52-.64-.76-1.55-.28-2.28.32.6.93,1.39.43,2.05.23.27.53.53.91.49.72-.06,1.29-.61,1.65-1.2.55-.94.8-2.02.98-3.09.12-.65.06-1.34.37-1.95,2.41,1.38,5.45,1.62,8.05.61,2.34-.84,4.31-2.67,5.32-4.94.42-1.04.74-2.23.32-3.32-.42-1.21-1.61-1.91-2.72-2.38-1.13-.52-2.36-.75-3.59-.84-.27.25-.52.59-.91.64-.65.09-1.32.06-1.97.18-1.15.18-2.23.65-3.36.91.14-.13.29-.27.44-.39,1.56-1.03,3.47-1.48,5.33-1.37Z"/>
  <path class="cls-14" d="M102.33,51.91c.2-.63.62-1.15,1.04-1.64.1.09.19.19.29.29.23-.07.46-.15.68-.22.04.1.11.3.15.4-.67.48-1.38.91-2.17,1.17Z"/>
  <path class="cls-4" d="M29.91,62.36c.73-.05,1.48-.04,2.2.14,1.28.26,2.55.73,3.54,1.6-1.5-.49-3.05-.94-4.63-1.01-.9-.03-1.69-.54-2.58-.6.49-.08.98-.13,1.48-.13Z"/>
  <path class="cls-18" d="M96.94,63.71c1.56-1.03,3.47-1.48,5.33-1.37.12,0,.34.02.46.03-.27.25-.52.59-.91.64-.65.09-1.32.06-1.97.18-1.15.18-2.23.65-3.36.91.14-.13.29-.27.44-.39Z"/>
  <path class="cls-9" d="M30.94,66.87c1.66-.18,3.48,0,4.88.99.46.3.43.92.28,1.39-.16.59-.66,1-1.15,1.32-1.6,1.02-3.73,1-5.38.12-.91-.62-1.86-1.38-2.16-2.49-.13-.26.16-.39.34-.48,1-.47,2.1-.68,3.18-.86Z"/>
  <path class="cls-24" d="M98.8,66.88c2.02-.26,4.07.18,5.93.96-.16,1.2-1.14,2.1-2.11,2.73-1.15.77-2.61.92-3.94.68-.94-.24-1.88-.7-2.45-1.51-.39-.55-.46-1.44.12-1.89.69-.58,1.58-.84,2.46-.96Z"/>
  <path class="cls-18" d="M82.05,65.21c-.88-1.52-2.39-2.55-3.95-3.28-.69-.31-1.43-.44-2.16-.6.29-.43.67-.87.66-1.41-.03-.72-.56-1.33-1.2-1.61-.7-.31-1.44-.58-2.2-.69-2.56-.24-5.23.56-7.14,2.3-1.7-1.55-4.01-2.46-6.32-2.32-1.11.07-2.26.24-3.22.84-.59.36-1.02,1.05-.94,1.76.09.48.5.8.81,1.15-1.05.22-2.12.46-3.05,1.03-1.35.77-2.72,1.75-3.34,3.23-.24.59-.44,1.36.02,1.9.26.34.71.39,1.09.48.03-.54-.03-1.09-.17-1.61.47-.41,1.25-.51,1.74-.09.26.24.51.65.3,1-.55,1.11-1.64,1.84-2.17,2.96-.38.78-.73,1.69-.43,2.54.18.57.75.87,1.26,1.1.66.19,1.36.12,2-.11.34-.11.68-.24,1.02-.35.02.73-.11,1.52.28,2.18.47.67,1.4.76,2.13.52.82-.19,1.43-.78,2.07-1.27-.01,1.19,0,2.46.66,3.49.34.52.81,1.07,1.47,1.16.25.04.38-.22.53-.37.36-.46.73-.89,1.15-1.3.27.48.57.94.93,1.36.95-.5,1.52-1.44,2.1-2.3.68,1.14,1.59,2.27,2.91,2.65,1.03.4,2.3.17,3.04-.68.94-1.05,1.2-2.55,1.12-3.92.66.65,1.5,1.16,2.44,1.28.82.11,1.66-.51,1.81-1.32.1-.52.07-1.05.07-1.58,1.03.36,2.1.93,3.22.64.7-.16,1.17-.84,1.19-1.54.07-1.6-.72-3.12-1.78-4.27.75-.05,1.65,0,2.19-.64.52-.68.24-1.62-.14-2.3Z"/>
  <path class="cls-32" d="M39.96,79.21c.47-.74.53-1.63.91-2.4.43.44.65,1.19,1.33,1.29.38.09.71-.18,1.04-.32.5.24,1.05.27,1.59.28-.14.27-.18.71-.54.78-.34-.06-.66-.19-.99-.3-.27.19-.52.48-.85.54-.44-.09-.81-.37-1.19-.59-.23.24-.45.49-.68.73-.48.51-1.31.22-1.8-.13.4-.03.8.02,1.18.12Z"/>
  <path class="cls-23" d="M91.29,79.21c-.52-.64-.76-1.55-.28-2.28.32.6.93,1.39.43,2.05l-.15.23Z"/>
  <path class="cls-3" d="M54.2,82.73c.7-.18,1.49-.07,2.09.36.88.57,1.33,1.62,1.47,2.63.15,1.03-.13,2.12-.75,2.95-.49.62-1.22,1.1-2.04,1.09-1.15.07-2.28-.66-2.73-1.72-.46-1.11-.47-2.4-.02-3.51.33-.86,1.08-1.57,1.98-1.8Z"/>
  <path class="cls-19" d="M76.72,82.73c.76-.21,1.6-.03,2.21.47.9.72,1.33,1.9,1.31,3.04.05,1.14-.41,2.32-1.33,3.01-1.15.88-3.03.61-3.83-.61-.66-1-.88-2.28-.6-3.44.29-1.11,1.07-2.2,2.25-2.47Z"/>
  <path class="cls-11" d="M53.58,84.09c.62-.27,1.35.31,1.32.97,0,.52-.46,1.01-.99,1.02-.5.04-.95-.39-1.01-.88-.07-.47.25-.93.68-1.11Z"/>
  <path class="cls-29" d="M75.96,84.1c.68-.35,1.51.37,1.35,1.09-.04.76-1.1,1.21-1.63.62-.56-.47-.36-1.42.28-1.71Z"/>
  <path class="cls-34" d="M50.42,90.41c1.08-.22,2.4.06,2.97,1.09.44.71.08,1.64-.56,2.09-.75.57-1.75.61-2.64.44-.77-.19-1.56-.76-1.62-1.61-.02-1.03.92-1.8,1.85-2.01Z"/>
  <path class="cls-27" d="M80.3,90.41c.74-.11,1.55-.13,2.21.28.6.35,1.12,1,1.04,1.74-.12.89-.96,1.48-1.79,1.64-.86.11-1.81.04-2.53-.48-.59-.42-.83-1.26-.55-1.93.28-.66.93-1.09,1.62-1.24Z"/>
  <path class="cls-22" d="M63.31,90.66c2.61-.29,5.28-.17,7.84.42,2.42.58,4.79,1.69,6.46,3.58,1.06,1.25,1.8,2.83,1.81,4.48.13,1.88-.65,3.78-2,5.09-1.32,1.38-3.1,2.21-4.91,2.73-3.01.83-6.17.95-9.27.68-2.5-.27-5.04-.85-7.17-2.23-1.4-.88-2.53-2.22-3.07-3.8-.56-1.74-.42-3.69.39-5.33.83-1.57,2.15-2.84,3.68-3.71,1.91-1.06,4.06-1.66,6.23-1.91Z"/>
  <path class="cls-2" d="M60.54,95.14c.39-.11.84-.09,1.21.11.86.46,1.03,1.87.2,2.45-.6.48-1.53.34-2-.26-.63-.71-.33-2,.59-2.31Z"/>
  <path class="cls-5" d="M70.56,95.15c.79-.33,1.78.22,1.89,1.08.28,1.1-.99,2.15-2.02,1.64-1.18-.44-1.01-2.34.13-2.72Z"/>
  <path class="cls-16" d="M63.56,100.63c.49-.21.6.39.83.68.81,1.01,2.55.94,3.33-.06.2-.24.29-.69.68-.7.42.1.37.61.2.91-.42.8-1.27,1.37-2.17,1.45-1.12.14-2.36-.36-2.95-1.36-.16-.27-.28-.75.08-.92Z"/>
  <path class="cls-1" d="M46.21,126.74c-.55-1.11-.42-2.4-.21-3.57.09.46-.03,1.08.41,1.38.53.34.49,1.14,1.07,1.44.48.28,1.06.07,1.49-.21.69-.43.97-1.23,1.52-1.8.25,1.02-.06,2.13.36,3.12.18.47.72.79,1.21.59.9-.27,1.32-1.18,1.99-1.76-.08,1.08-.68,2.09-1.54,2.73-.74.55-1.94.41-2.44-.39-.26-.51-.28-1.09-.39-1.64-.54.42-1.13.81-1.83.91-.64.09-1.33-.21-1.62-.8Z"/>
  <path class="cls-17" d="M61.34,126.28c.06-.65.1-1.33.42-1.9.08,1.67.11,3.4.8,4.95.27.58.83,1.05,1.48,1.09.69-.06,1.18-.64,1.49-1.21.38-.61.54-1.32.81-1.97.02-.14.28-.22.33-.07.27.51.36,1.15.86,1.52.34.34.91.28,1.26-.02.33-.29.57-.67.88-.98.2,1.04-.71,2.28-1.83,2.15-.47-.05-.8-.42-1.16-.67-.31,1.08-.96,2.14-2.04,2.58-.53.16-1.14.15-1.65-.07-.79-.48-1.26-1.34-1.47-2.22-.27-1.03-.24-2.11-.18-3.16Z"/>
  <path class="cls-7" d="M81.85,124.85c.62.1,1.25.21,1.82.48.5.34.47,1.04.56,1.58.01.19.08.63-.26.49-1.12-.33-1.91-1.43-2.12-2.56Z"/>
  <path class="cls-21" d="M49.68,143.25c.92-.31,1.72-.9,2.34-1.64,0,.87,0,1.85.56,2.57.53.69,1.55.77,2.3.43.93-.45,1.54-1.3,2.22-2.04.16.68.32,1.41.83,1.92.48.54,1.33.57,1.94.24.74-.37,1.1-1.16,1.54-1.82.22.67.46,1.36.98,1.86.4.43.97.65,1.55.65,0,1.41-.09,2.82-.25,4.22-.12,1.06-.56,2.21-1.57,2.73-1.27.63-2.73.76-4.12.69-.61-.06-1.26-.14-1.79-.47-.36-.69-.23-1.48-.23-2.22,0-.81.21-1.65-.1-2.43-.17.14-.43.23-.49.47-.21.66-.28,1.36-.36,2.05-.08.61.05,1.22,0,1.83-.12.12-.26.22-.39.33.05.02.14.05.18.07-.07.14-.26.1-.38.15-1.34.27-2.8.1-4-.58-.85-.49-1.25-1.48-1.32-2.42-.14-2.21.29-4.4.56-6.58Z"/>
  <path class="cls-21" d="M80.06,141.56c.62.73,1.38,1.38,2.32,1.64.22,1.68.44,3.36.56,5.05.04,1.19.11,2.58-.78,3.51-1.11,1.14-2.86,1.29-4.36,1.1.09-.07.19-.14.29-.2-.32-.09-.65-.17-.97-.26-.02-1.24.01-2.51-.36-3.7-.08-.29-.29-.5-.47-.72-.5.7-.18,1.59-.21,2.39.08.66-.11,1.43.32,2-.4,0-.67.36-1.04.46-1.18.39-2.47.29-3.68.12-1.04-.2-2.22-.54-2.77-1.52-.62-1.07-.6-2.36-.72-3.55-.08-.82-.1-1.65-.09-2.47.39,0,.8-.03,1.14-.25.77-.47,1.18-1.31,1.56-2.09.34.57.65,1.2,1.21,1.59.59.38,1.44.51,2.02.04.66-.5.88-1.34,1.06-2.11.57.75,1.13,1.58,2.02,1.99.76.4,1.84.39,2.41-.34.63-.73.56-1.75.56-2.65Z"/>
  <path class="cls-15" d="M55.39,148.39c.06-.24.32-.33.49-.47.3.78.11,1.62.1,2.43,0,.74-.14,1.54.23,2.22-.09-.07-.28-.2-.37-.26-.34.12-.66.32-1.02.35-.05-.02-.14-.05-.18-.07.13-.11.27-.21.39-.33.06-.61-.07-1.22,0-1.83.08-.69.15-1.39.36-2.05Z"/>
  <path class="cls-30" d="M76.08,150.36c.03-.79-.29-1.69.21-2.39.18.22.39.44.47.72.38,1.2.34,2.46.36,3.7.32.08.65.17.97.26-.1.07-.19.13-.29.2-.48-.14-1-.21-1.41-.51-.43-.57-.24-1.33-.32-2Z"/>
</svg>