<?xml version="1.0" encoding="UTF-8"?>
<svg id="_图层_1" data-name="图层 1" xmlns="http://www.w3.org/2000/svg" viewBox="0 0 135.71 158.3">
  <defs>
    <style>
      .cls-1 {
        fill: #f4bacb;
      }

      .cls-2 {
        fill: #7a6b96;
      }

      .cls-3 {
        fill: #8979a7;
      }

      .cls-4 {
        fill: #f7eedb;
      }

      .cls-5 {
        fill: #f8eedb;
      }

      .cls-6 {
        fill: #fbfbfb;
      }

      .cls-7 {
        fill: #8a79a8;
      }

      .cls-8 {
        fill: #f3b9cb;
      }

      .cls-9 {
        fill: #7d6d99;
      }

      .cls-10 {
        fill: #726787;
      }

      .cls-11 {
        fill: #211511;
      }

      .cls-12 {
        fill: #f7eeda;
      }

      .cls-13 {
        fill: #b4a5cb;
      }

      .cls-14 {
        fill: #756a8a;
      }

      .cls-15 {
        fill: #fcfbfc;
      }

      .cls-16 {
        fill: #cdc9d4;
      }
    </style>
  </defs>
  <path class="cls-13" d="M22.88,20.59c2.01-.67,4.32-.31,6.06.89,2,1.33,3.33,3.51,3.91,5.82.16.74.31,1.49.38,2.25,2.44-1.08,5.11-1.49,7.76-1.58.97-.01,1.95-.1,2.92-.07,2.9.07,5.87.18,8.64,1.14,2.18.74,4.17,2.18,5.31,4.21,1.27,2.18,1.62,4.74,1.8,7.22.06,1.65.16,3.3.12,4.95,0,7.31,0,14.62,0,21.93.01.63-.06,1.27-.05,1.9.07,1.62.06,3.25-.02,4.88.39.01.77-.04,1.16-.09.35.02.69.06,1.04.08-2.34.12-4.65.48-6.96.86-1.76.3-3.5.74-5.23,1.2-2.04.63-4.1,1.27-5.99,2.28-1.86.94-3.59,2.22-4.85,3.89-1.4,1.83-2.22,4.06-2.5,6.34-.07,1.03-.07,2.07,0,3.1.42,3.66,1.95,7.3,4.72,9.8,1.76,1.59,3.95,2.69,6.24,3.28,2.43.66,4.96.84,7.47.96,3.81.11,7.61.07,11.42.04,1.39.05,2.79.03,4.18,0,1.56.03,3.12.05,4.69,0,3.08.05,6.17-.04,9.25,0,2.11.05,4.23-.02,6.35,0,3.94-.04,7.93-.05,11.77-1.03,2.01-.56,4-1.37,5.62-2.72,2.63-2.06,4.36-5.14,5.07-8.38.37-1.83.52-3.74.23-5.59-.23-1.5-.73-2.95-1.42-4.31-.91-1.67-2.27-3.05-3.79-4.18-1.7-1.17-3.59-2.03-5.53-2.72-2.65-.95-5.4-1.59-8.17-2.07-1.6-.24-3.19-.56-4.81-.59.12-.06.23-.13.35-.19,0-10.19,0-20.38,0-30.57.12-2.61.25-5.28,1.14-7.76.65-1.89,1.74-3.66,3.3-4.94,1.43-1.17,3.18-1.88,4.96-2.29,1.71-.38,3.46-.55,5.21-.56,1.05-.07,2.11-.06,3.16,0,2.89.04,5.82.43,8.48,1.61.16-2.08.76-4.17,2-5.87,1-1.43,2.43-2.59,4.11-3.11,2-.65,4.32-.31,6.01.95,2.81,2.01,4.01,5.94,2.89,9.19-.64,1.86-1.99,3.42-3.59,4.54-1.34,1.01-2.9,1.67-4.44,2.29,1.21,3.81,1.23,7.85,1.19,11.8,0,31.6,0,63.21,0,94.82.02,1.27-.05,2.55-.22,3.81-.18,1.25-.7,2.47-1.6,3.37-.15-.52-.08-1.06-.19-1.59-.19-1.36-.9-2.7-2.06-3.46-1.35-.89-3.21-.85-4.54.06-1.25.88-1.89,2.39-2.06,3.87-.14,1.28-.08,2.57.02,3.84-.19.01-.37.03-.56.06-.16.02-.32.04-.47.06-.21.01-.43.01-.64.02.04-1.44.1-2.91-.31-4.3-.25-.97-.76-1.88-1.47-2.58-1.42-1.35-3.81-1.5-5.36-.3-.83.66-1.4,1.63-1.65,2.66-.4,1.53-.3,3.13-.23,4.7-.6.03-1.2,0-1.79-.02.1-1.55.22-3.13-.18-4.65-.29-1.21-.95-2.38-2-3.09-1.37-.97-3.34-.99-4.69,0-1.05.77-1.63,2.02-1.86,3.27-.1.73-.13,1.46-.14,2.2-.86-.67-1.42-1.65-1.79-2.66-.39-1.22-.51-2.51-.53-3.79-.12-1.42-.05-2.86-.06-4.28,0-9.38,0-18.76,0-28.14-.01-.97.06-1.99-.4-2.88-.67-1.12-1.96-1.77-3.26-1.73-7.6,0-15.2,0-22.81,0-1.16,0-2.44.37-3.14,1.37-.76,1.04-.74,2.4-.65,3.63-.01,10.39.02,20.79-.02,31.18-.08,1.58-.13,3.19-.63,4.7-.33,1.02-.94,1.93-1.74,2.64-.13-.79,0-1.61-.16-2.4-.23-1.29-.93-2.56-2.08-3.24-1.42-.89-3.38-.77-4.69.28-.96.78-1.56,1.93-1.81,3.13-.32,1.45-.21,2.95-.19,4.42v.06c-.6-.02-1.2.09-1.8.05.16-1.61.23-3.26-.2-4.84-.29-1.01-.85-1.98-1.71-2.6-1.38-1-3.39-1.04-4.79-.07-1.11.79-1.79,2.06-2.08,3.37-.3,1.26-.22,2.57-.26,3.85v.08c-.54-.1-1.08-.08-1.62-.1.12-1.92.31-3.94-.47-5.76-.48-1.26-1.59-2.24-2.89-2.59-.97-.26-2.01-.11-2.91.32-.97.49-1.65,1.41-2.03,2.41-.41,1.05-.45,2.19-.45,3.31-1.09-.85-1.84-2.1-2.05-3.46-.3-1.88-.22-3.8-.23-5.7,0-32.24,0-64.48,0-96.72.05-2.84.33-5.69,1.18-8.41-1.86-.69-3.66-1.59-5.21-2.84-1.61-1.3-2.8-3.17-3.13-5.23-.29-1.98.1-4.07,1.2-5.76.88-1.44,2.27-2.57,3.88-3.1Z"/>
  <path class="cls-1" d="M24.22,25.09c.82-.24,1.72-.1,2.48.26,1.05.56,1.88,1.47,2.42,2.52.58,1.09.91,2.29,1.16,3.48-1.31,1.06-2.4,2.4-3.16,3.91-.47-.14-.89-.41-1.32-.64-1.41-.81-2.76-1.83-3.63-3.22-.64-.99-.91-2.23-.63-3.39.29-1.35,1.33-2.56,2.68-2.92Z"/>
  <path class="cls-8" d="M121.42,26.34c.85-.9,2.09-1.52,3.35-1.34,1.07.13,2.01.82,2.6,1.71.75,1.16.84,2.7.27,3.95-.42,1.02-1.16,1.86-2.01,2.54-1.02.84-2.16,1.54-3.36,2.08-.72-1.41-1.71-2.68-2.91-3.71-.23-.15-.13-.43-.09-.65.39-1.65.98-3.31,2.15-4.57Z"/>
  <path class="cls-2" d="M47,58.18c.91-.21,1.92-.18,2.76.26.29.15.21.62-.09.7-.52.06-1.06-.02-1.58.07-.87.14-1.71.49-2.43,1.01-.34.22-.63.52-.99.71-.35.11-.61-.31-.43-.6.55-1.07,1.6-1.87,2.76-2.15Z"/>
  <path class="cls-9" d="M100.36,58.15c1.69-.38,3.53.46,4.45,1.91.15.23.3.58.05.8-.27.2-.56-.03-.77-.2-.66-.56-1.41-1.04-2.25-1.3-.69-.21-1.42-.19-2.14-.2-.31.02-.5-.36-.32-.61.26-.26.64-.32.97-.41Z"/>
  <path class="cls-11" d="M47.63,65.77c.98-.28,2.08-.18,2.99.3,1.18.59,2,1.81,2.13,3.11.22,1.64-.7,3.34-2.18,4.07-1.27.68-2.89.53-4.08-.25-1.43-.96-2.14-2.88-1.6-4.53.39-1.28,1.45-2.33,2.74-2.7Z"/>
  <path class="cls-11" d="M99.98,65.77c1.23-.35,2.62-.08,3.63.72,1.29,1.02,1.85,2.86,1.31,4.43-.45,1.36-1.66,2.45-3.08,2.7-1.98.45-4.16-.91-4.62-2.89-.65-2.04.68-4.43,2.76-4.95Z"/>
  <path class="cls-6" d="M46.73,67.01c.71-.36,1.69,0,1.96.75.32.71-.14,1.61-.87,1.83-.69.25-1.54-.15-1.77-.85-.24-.64.07-1.43.68-1.73Z"/>
  <path class="cls-15" d="M98.98,67.06c.86-.55,2.15.14,2.13,1.17.08,1.03-1.18,1.8-2.07,1.27-.95-.44-.95-1.93-.06-2.44Z"/>
  <path class="cls-16" d="M66.72,73.7c1.77-.15,3.55-.05,5.32-.18,1.94,0,3.89,0,5.83,0,1.86.12,3.72.04,5.57.18,2.19.07,4.39.15,6.57.38-.12.06-.24.13-.35.19,1.62.03,3.21.35,4.81.59,2.77.48,5.52,1.12,8.17,2.07,1.94.69,3.83,1.54,5.53,2.72,1.52,1.13,2.88,2.51,3.79,4.18.69,1.35,1.2,2.8,1.42,4.31.29,1.86.14,3.76-.23,5.59-.71,3.24-2.44,6.32-5.07,8.38-1.62,1.35-3.61,2.16-5.62,2.72-3.84.98-7.84.98-11.77,1.03-2.12-.01-4.23.06-6.35,0-3.08-.03-6.17.06-9.25,0-1.56.05-3.12.02-4.69,0-1.39.03-2.79.05-4.18,0-3.81.03-7.62.07-11.42-.04-2.51-.12-5.03-.3-7.47-.96-2.29-.59-4.48-1.69-6.24-3.28-2.77-2.5-4.29-6.14-4.72-9.8-.06-1.03-.07-2.07,0-3.1.28-2.28,1.1-4.51,2.5-6.34,1.26-1.68,2.98-2.96,4.85-3.89,1.89-1.01,3.95-1.66,5.99-2.28,1.73-.46,3.47-.89,5.23-1.2,2.31-.38,4.62-.73,6.96-.86-.35-.02-.7-.06-1.04-.08,1.06-.17,2.13-.14,3.19-.23.89-.09,1.78-.06,2.66-.11Z"/>
  <path class="cls-10" d="M58.66,79.46c.74-.25,1.55.08,2.16.51,1.08.88,1.84,2.3,1.61,3.73-.1.69-.57,1.36-1.28,1.51-.89.19-1.82-.23-2.42-.88-.92-.93-1.53-2.31-1.19-3.62.12-.58.55-1.08,1.12-1.25Z"/>
  <path class="cls-10" d="M90.08,79.46c.86-.31,1.91.23,2.16,1.11.33,1.04.02,2.2-.6,3.07-.47.65-1.05,1.27-1.84,1.5-.71.26-1.6.09-2.04-.56-.53-.73-.45-1.71-.22-2.54.41-1.17,1.28-2.29,2.54-2.59Z"/>
  <path class="cls-8" d="M46.1,86.42c1.78-.43,3.6,1.08,3.75,2.85.28,1.75-1.17,3.46-2.91,3.61-1.29.13-2.64-.62-3.16-1.83-.59-1.29-.27-2.95.8-3.89.42-.38.96-.62,1.52-.74Z"/>
  <path class="cls-8" d="M102.64,86.4c1.84-.39,3.73,1.26,3.71,3.12.05.84-.28,1.68-.82,2.32-.72.73-1.78,1.19-2.81,1.01-.79-.12-1.57-.5-2.04-1.16-.57-.75-.83-1.74-.64-2.66.22-1.29,1.3-2.39,2.59-2.62Z"/>
  <path class="cls-14" d="M63.42,92.15c.3-.11.73-.17.9.16.17.31-.18.53-.39.69,1.4,1.72,3.37,2.92,5.48,3.58,1.7.58,3.51.76,5.3.83,2.13-.03,4.3-.28,6.29-1.09,1.85-.68,3.52-1.84,4.79-3.34-.19-.17-.49-.34-.39-.64.07-.36.52-.32.79-.24.65.22,1.31.66,1.52,1.35-.14.2-.33.43-.6.4-.2-.09-.35-.26-.51-.41-1.16,1.76-2.98,2.98-4.89,3.82-2.49,1-5.21,1.43-7.9,1.26-2.55-.14-5.14-.71-7.36-2.03-1.32-.74-2.46-1.79-3.31-3.04-.2.14-.38.33-.62.4-.33,0-.58-.37-.41-.67.26-.51.76-.86,1.29-1.05Z"/>
  <path class="cls-7" d="M29.75,105.3c.81-.13,1.7.07,2.31.64,1.04.95,1.55,2.49,1.2,3.87-.15.61-.4,1.23-.89,1.64-.59.49-1.39.81-2.17.63-1.02-.2-1.8-1.03-2.23-1.94-.39-.99-.46-2.13-.08-3.13.32-.8.98-1.51,1.84-1.7Z"/>
  <path class="cls-7" d="M118.74,105.3c.98-.19,2.04.29,2.55,1.13.94,1.61.66,3.94-.86,5.11-.66.52-1.58.73-2.39.44-.7-.22-1.2-.82-1.49-1.46-.52-1-.52-2.24-.03-3.26.39-.94,1.17-1.78,2.21-1.96Z"/>
  <path class="cls-3" d="M34.31,113.15c.71-.16,1.46.11,2,.57.81.73,1.3,1.82,1.25,2.92.06,1.1-.38,2.23-1.2,2.97-.54.5-1.33.74-2.05.54-.77-.17-1.36-.76-1.75-1.42-.53-.89-.61-1.99-.45-3,.23-1.16,1-2.3,2.2-2.59Z"/>
  <path class="cls-3" d="M114.42,113.16c.79-.16,1.67.13,2.17.77,1.04,1.23,1.2,3.05.58,4.5-.33.75-.92,1.45-1.74,1.69-.79.27-1.67-.05-2.22-.65-1.33-1.43-1.38-3.8-.21-5.34.36-.45.84-.85,1.42-.97Z"/>
  <path class="cls-12" d="M29.73,146.08c.89-.43,1.94-.57,2.91-.32,1.3.35,2.4,1.33,2.89,2.59.78,1.82.59,3.84.47,5.76-2.99-.32-6.23-.49-8.74-2.32,0-1.11.04-2.26.45-3.31.38-1,1.06-1.92,2.03-2.41Z"/>
  <path class="cls-12" d="M115.82,146.36c1.33-.91,3.19-.96,4.54-.06,1.16.76,1.87,2.1,2.06,3.46.11.52.04,1.07.19,1.59v.04c-.97.88-2.17,1.51-3.43,1.87-1.95.51-3.96.77-5.97.87.18-.02.37-.04.56-.06-.09-1.28-.16-2.57-.02-3.84.17-1.48.81-2.99,2.06-3.87Z"/>
  <path class="cls-4" d="M50.45,146.77c1.31-1.05,3.27-1.17,4.69-.28,1.15.69,1.85,1.95,2.08,3.24.16.79.04,1.6.16,2.4v.03c-1.82,1.41-4.13,1.91-6.38,2.09-.85.05-1.71.19-2.55.07-.02-1.47-.13-2.97.19-4.42.25-1.2.85-2.35,1.81-3.13Z"/>
  <path class="cls-12" d="M94.41,146.64c1.35-1,3.33-.98,4.69,0,1.05.7,1.72,1.87,2,3.09.4,1.52.28,3.11.18,4.65-1.43-.02-2.85-.15-4.26-.36-1.65-.24-3.3-.8-4.62-1.84v-.06c.02-.73.05-1.47.15-2.2.23-1.25.81-2.5,1.86-3.27Z"/>
  <path class="cls-5" d="M39.95,146.92c1.41-.97,3.41-.93,4.79.07.86.62,1.42,1.6,1.71,2.6.43,1.57.36,3.23.2,4.84-1.93-.08-3.86,0-5.79-.09-1.09-.05-2.18-.02-3.26-.2.05-1.29-.03-2.59.26-3.85.29-1.31.97-2.58,2.08-3.37Z"/>
  <path class="cls-12" d="M104.96,147.03c1.55-1.2,3.95-1.05,5.36.3.71.7,1.23,1.61,1.47,2.58.42,1.39.35,2.86.31,4.3.21,0,.42,0,.64-.02-.59.1-1.19.03-1.79.07-1.39.17-2.78.08-4.18.13-1.23,0-2.47,0-3.7,0-.06-1.57-.16-3.17.23-4.7.25-1.03.82-2,1.65-2.66Z"/>
</svg>