<?xml version="1.0" encoding="UTF-8"?>
<svg id="_图层_1" data-name="图层 1" xmlns="http://www.w3.org/2000/svg" viewBox="0 0 135.29 158.84">
  <defs>
    <style>
      .cls-1 {
        fill: #ab6633;
      }

      .cls-2 {
        fill: #f9ddad;
      }

      .cls-3 {
        fill: #854821;
      }

      .cls-4 {
        fill: #f39484;
      }

      .cls-5 {
        fill: #50290f;
      }

      .cls-6 {
        fill: #fefefe;
      }
    </style>
  </defs>
  <path class="cls-6" d="M89.45,62.49c.83-.35,1.79.5,1.59,1.37-.14.9-1.43,1.31-2.03.61-.63-.57-.36-1.72.44-1.98Z"/>
  <path class="cls-1" d="M35.11,26.81c.84-.11,1.7-.05,2.54-.14,1.64-.08,3.29-.03,4.93-.14,1.74-.02,3.49-.02,5.24-.01,1.6,2.03,2.45,4.6,2.53,7.17.04,3.22-1.13,6.43-3.23,8.88-3.97,4.76-10.81,6.84-16.77,5.2-2.02-.54-3.94-1.54-5.48-2.97-.66-.68-1.22-1.48-1.54-2.38-.44-1.09-.55-2.27-.61-3.43-.07-2.07-.11-4.22.64-6.19.64-1.83,2.05-3.32,3.76-4.2,2.45-1.28,5.26-1.68,7.99-1.78Z"/>
  <path class="cls-1" d="M91.54,34.14c.36-.32.84-.44,1.31-.53.73-.03,1.44.17,2.13.41,4.41,1.53,8.6,3.75,12.2,6.74,2.61,2.17,4.95,4.64,7.17,7.2,2.02,2.36,3.91,4.83,5.54,7.48,1.58,2.53,2.95,5.21,3.87,8.06,1.04,3.09,1.7,6.35,1.62,9.63-.13,3.06-1.07,6.24-3.28,8.46-.33.29-.6.69-.99.88-.41-.05-.75.25-1.11.38-1.48.59-3.14.61-4.69.34-1-.23-2.02-.51-2.9-1.06-.73-.46-1.51-.89-2.1-1.53-.54-.59-1.15-1.12-1.59-1.79-.8-1.18-1.53-2.41-2.04-3.74-.76-1.78-1.2-3.67-1.68-5.54-.95-4.2-1.71-8.44-2.99-12.56-1.06-3.4-2.23-6.8-3.98-9.92-1.39-2.61-3.12-5.09-5.38-7.01l-.04.17c-.79-1.13-1.56-2.35-1.78-3.74-.11-.82.06-1.76.72-2.31Z"/>
  <path class="cls-1" d="M91.76,76.24c.17-.32.69-.45.9-.1.22.31-.03.68-.25.9-.19-.01-.42.07-.54-.12-.05-.22-.07-.45-.11-.68Z"/>
  <path class="cls-1" d="M25.85,85.61c1.58-.62,3.36-.72,4.99-.27,1.82.5,3.41,1.72,4.41,3.31,1.23,1.82,1.76,4.02,1.84,6.19,0,.73.07,1.48.3,2.18.25.73.69,1.37,1.14,1.99.9,1.18,1.42,2.67,1.42,4.16,0,2.3-1.05,4.55-2.72,6.12-1.46,1.43-3.4,2.34-5.42,2.6-2.03.25-4.13-.09-5.96-1.02,0-8.42-.01-16.84,0-25.27Z"/>
  <path class="cls-1" d="M104.14,112.98c1.77-1.14,3.92-1.71,6.02-1.46,2.11.22,4.11,1.25,5.52,2.82-.12.77-.46,1.5-.7,2.25-2.75,7.85-7.49,15.06-13.86,20.44-2.07-.91-4.4-1.13-6.63-.89-1.47.19-2.89.63-4.25,1.22-.06-.26-.12-.51-.19-.76-.62-1.99-.45-4.19.35-6.1.77-1.74,2-3.3,3.59-4.37.98-.69,2.12-1.14,3.04-1.91.94-.78,1.67-1.8,2.14-2.93.46-1.03.58-2.17,1.01-3.21.71-2.07,2.11-3.91,3.96-5.09Z"/>
  <path class="cls-1" d="M100.13,144.67c-.17-.38.38-.72.63-.37.45.72.6,1.6.73,2.43.13,1.55.02,3.18-.66,4.61l-.02.05c-.36.03-.72.03-1.08,0,.93-2.1.98-4.52.41-6.72Z"/>
  <path class="cls-1" d="M93.1,144.56c.14-.42.69-.29.81.08.56,1.34.69,2.83.56,4.26-.11.9-.24,1.84-.66,2.66l-.02.05c-.34,0-.69,0-1.03-.01.66-1.78.89-3.71.62-5.58-.07-.49-.21-.96-.27-1.45Z"/>
  <path class="cls-1" d="M29.9,144.92c.08-.24.4-.45.62-.25.28.18.1.54.07.8-.31,1.36-.36,2.78-.17,4.16.09.61.16,1.24.45,1.79-.37-.03-.73-.04-1.1-.04-.21-.6-.35-1.23-.41-1.86-.12-1.54-.08-3.15.53-4.59Z"/>
  <path class="cls-1" d="M37.66,145.29c-.06-.3.05-.58.34-.7.56.24.54.92.67,1.42.28,1.85.35,3.8-.25,5.6-.32.02-.64.01-.97,0,.02-.18.04-.35.07-.52.42-1.9.36-3.87.13-5.79Z"/>
  <path class="cls-2" d="M47.81,26.51c3.24-.03,6.48-.02,9.72.01.97.07,1.94.09,2.91.11,3.58.2,7.16.54,10.72,1,7.07.93,14.13,2.45,20.65,5.42.35.17.73.31,1.04.55-.46.09-.94.21-1.31.53-.66.55-.84,1.49-.72,2.31.21,1.39.98,2.61,1.78,3.74,1.09,1.56,2.15,3.13,3.12,4.77,1.27,2.19,2.38,4.48,3.32,6.83,1.74,4.5,2.9,9.21,3.71,13.97.75,3.94,1.17,8.01,2.82,11.71.82,1.78,1.94,3.47,3.49,4.71.97.81,2.08,1.42,3.29,1.8,2.25.75,4.77.59,6.92-.39.13.77.12,1.55.14,2.33.28,6.43-.23,12.89-1.38,19.22-.47,2.5-1.08,4.98-1.76,7.43-.2.59-.3,1.21-.58,1.77-1.42-1.58-3.42-2.6-5.52-2.82-2.1-.25-4.25.32-6.02,1.46-1.85,1.18-3.24,3.03-3.96,5.09-.42,1.04-.54,2.18-1.01,3.21-.47,1.13-1.2,2.15-2.14,2.93-.92.77-2.06,1.22-3.04,1.91-1.59,1.07-2.82,2.63-3.59,4.37-.8,1.91-.97,4.11-.35,6.1,0,.09.01.28.02.38-1.04.29-1.94.88-2.84,1.45-2.07,1.44-3.67,3.58-4.29,6.04-.32,1.07-.27,2.19-.29,3.29-.2-.42-.08-.91-.12-1.36-5.44,1.75-11.1,2.84-16.8,3.3-3.64.32-7.3.4-10.96.39-3.06-.02-6.12,0-9.18-.11.85-.88,1.08-2.18,1.05-3.36.09-2.16-.71-4.31-2.07-5.97-.98-1.15-2.2-2.09-3.57-2.71-3.21-1.43-6.98-1.47-10.26-.25-.85.37-1.73.73-2.44,1.33.74-.31,1.44-.73,2.22-.97,2.85-.94,5.99-.97,8.85-.05,1.57.53,3.08,1.32,4.24,2.52,1.72,1.7,2.54,4.19,2.37,6.58-.1,1.21-.4,2.4-1.07,3.43-.82.57-1.84.81-2.82.94-1.22.1-2.44.17-3.66.14.59-1.8.53-3.75.25-5.6-.13-.5-.12-1.18-.67-1.42-.28.12-.4.4-.34.7.23,1.92.29,3.89-.13,5.79-.03.17-.05.35-.07.52-2.19.06-4.4.13-6.58-.19-.3-.55-.37-1.18-.45-1.79-.19-1.38-.14-2.8.17-4.16.03-.26.21-.62-.07-.8-.22-.2-.55.01-.62.25-.61,1.44-.65,3.05-.53,4.59.06.63.21,1.26.41,1.86-1.43-.13-2.92-.48-4.03-1.45-1.08-.93-1.56-2.39-1.61-3.78-.07-1.58.22-3.14.43-4.7.42-2.78.7-5.57.9-8.37.26-3.61.42-7.23.36-10.85.01-3.78,0-7.56.01-11.33,1.83.93,3.93,1.26,5.96,1.02,2.02-.27,3.96-1.18,5.42-2.6,1.67-1.57,2.72-3.82,2.72-6.12,0-1.49-.51-2.98-1.42-4.16-.45-.62-.89-1.26-1.14-1.99-.24-.7-.3-1.44-.3-2.18-.08-2.17-.61-4.38-1.84-6.19-1-1.59-2.59-2.81-4.41-3.31-1.64-.46-3.41-.35-4.99.27-.03-6.45,0-12.9-.02-19.35,0-6.04.05-12.09-.56-18.1-.1-1.07-.31-2.12-.46-3.19l.05-.19c1.54,1.43,3.45,2.42,5.48,2.97,5.96,1.64,12.8-.44,16.77-5.2,2.09-2.44,3.27-5.66,3.23-8.88-.08-2.57-.93-5.14-2.53-7.17ZM89.23,54.17c-.3.1-.62.22-.79.51-.23.35.05.88.47.88.36-.04.71-.14,1.08-.17,1.12-.03,2.28.52,2.85,1.51.14.27.48.44.76.28.42-.16.45-.7.26-1.05-.82-1.64-2.9-2.47-4.63-1.96ZM59.2,55.37c-1.53.21-3.21.68-4.15,2.01-.9,1.32-.88,2.99-.94,4.53,0,17.22,0,34.43,0,51.64,0,1.25-.02,2.5.17,3.74.17,1.05.61,2.1,1.46,2.77,1.18.96,2.75,1.2,4.21,1.36,2.35.16,4.7-.13,7-.61,4.76-1.02,9.3-3.48,12.42-7.27,2.42-2.91,4.03-6.42,5.02-10.05.93-3.29,1.4-6.69,1.64-10.09.17-2.49.24-4.99.06-7.48.02-1.05-.13-2.08-.14-3.12,1.5.53,3.2.53,4.66-.13,1.18-.5,2.17-1.39,2.82-2.49.12-.24.28-.51.18-.78-.09-.33-.54-.51-.83-.33-.28.13-.35.46-.52.69-1.03,1.58-3.05,2.45-4.91,2.13-1.49-.18-2.83-1.2-3.46-2.55-.45-.98-.58-2.06-.5-3.13,1.63-.15,3.17-1.11,4.09-2.47.49-.8.85-1.82.49-2.74-.31-.77-1.08-1.24-1.83-1.52-1.25-.44-2.59-.58-3.9-.51.2-.07.42-.04.63-.05-.35-1.18-.94-2.27-1.53-3.34-1.51-2.61-3.62-4.87-6.15-6.52-3.77-2.53-8.35-3.58-12.84-3.8-1.05-.1-2.11.03-3.16.1ZM90.77,60.91c-.9.12-1.8.49-2.41,1.19-1.59,1.66-1.54,4.55.09,6.17.8.75,1.9,1.19,3,1.1,1.13-.04,2.19-.67,2.87-1.55.7-.95,1.04-2.19.83-3.37-.17-1.09-.75-2.13-1.65-2.79-.77-.59-1.78-.84-2.73-.74ZM97.29,70.44c-1.51.23-2.78,1.54-2.98,3.05-.22,1.23.37,2.51,1.36,3.24,1.56,1.28,4.12.91,5.3-.71,1.05-1.36.85-3.49-.43-4.64-.84-.85-2.11-1.1-3.25-.95ZM90.16,75.1c-.31.15-.38.65-.1.87.31.31.93,0,.88-.43.03-.38-.48-.67-.78-.44ZM91.76,76.24c.04.23.06.46.11.68.12.19.35.11.54.12.22-.23.47-.59.25-.9-.21-.35-.73-.22-.9.1ZM88.95,77.64c-.36.22-.31.8.09.95.37.18.7-.17.77-.51-.07-.37-.51-.71-.86-.44Z"/>
  <path class="cls-2" d="M94.49,136.14c2.23-.24,4.56-.02,6.63.89,1.64.79,3.13,1.98,4.1,3.55,1.31,2.05,1.83,4.62,1.29,7-.29,1.17-.91,2.31-1.96,2.96-1.1.68-2.44.91-3.72.81.69-1.42.8-3.06.66-4.61-.13-.83-.27-1.71-.73-2.43-.25-.35-.79-.02-.63.37.57,2.2.52,4.62-.41,6.72l-.04.09c-1.96.1-3.93.26-5.88.08.42-.82.55-1.75.66-2.66.13-1.43,0-2.93-.56-4.26-.11-.37-.66-.5-.81-.08.05.49.2.96.27,1.45.27,1.88.04,3.81-.62,5.58-1.85.06-3.7-.04-5.54-.27-1.14-.19-2.35-.43-3.26-1.18-.25-.52-.57-1.01-.66-1.59-.12-.64-.22-1.3-.22-1.95.12-1.86.75-3.69,1.88-5.18,1.33-1.84,3.22-3.21,5.3-4.08,1.35-.59,2.78-1.03,4.25-1.22Z"/>
  <path class="cls-3" d="M92.63,40.01c2.26,1.93,3.99,4.41,5.38,7.01,1.75,3.12,2.92,6.52,3.98,9.92,1.27,4.12,2.03,8.37,2.99,12.56.48,1.87.92,3.76,1.68,5.54.5,1.33,1.24,2.57,2.04,3.74.45.66,1.05,1.2,1.59,1.79.59.64,1.37,1.07,2.1,1.53.88.56,1.89.83,2.9,1.06,1.55.27,3.21.26,4.69-.34.37-.13.7-.43,1.11-.38-.53.49-1.19.82-1.84,1.13-2.15.98-4.67,1.14-6.92.39-1.2-.37-2.32-.99-3.29-1.8-1.55-1.24-2.67-2.93-3.49-4.71-1.65-3.7-2.07-7.77-2.82-11.71-.81-4.76-1.97-9.47-3.71-13.97-.94-2.36-2.05-4.64-3.32-6.83-.97-1.63-2.04-3.21-3.12-4.77l.04-.17Z"/>
  <path class="cls-3" d="M90.16,75.1c.31-.23.81.06.78.44.04.42-.58.74-.88.43-.28-.21-.21-.71.1-.87Z"/>
  <path class="cls-3" d="M88.95,77.64c.35-.27.78.07.86.44-.07.34-.4.69-.77.51-.39-.15-.45-.73-.09-.95Z"/>
  <path class="cls-3" d="M12.79,112.73c.45-.68,1.07-1.35,1.91-1.49.56-.14,1.18.13,1.47.62.27.44.35.95.5,1.44.65,2.24,1.95,4.27,3.65,5.87,1.55,1.45,3.48,2.46,5.51,3.06.05,3.62-.1,7.24-.36,10.85-2.35-.23-4.65-.94-6.7-2.1-1.36-.79-2.68-1.77-3.54-3.11-.37-.59-.71-1.28-.55-1.99.05-.3.25-.54.49-.71-1.12-.61-1.98-1.62-2.59-2.72-.46-.9-.76-1.97-.44-2.97.11-.41.45-.75.87-.83-.51-.89-.91-1.86-.98-2.89,0-1.04.17-2.12.75-3.01Z"/>
  <path class="cls-5" d="M89.23,54.17c1.74-.51,3.82.32,4.63,1.96.19.35.16.89-.26,1.05-.28.16-.63-.01-.76-.28-.57-.99-1.73-1.53-2.85-1.51-.36.03-.72.14-1.08.17-.42,0-.7-.53-.47-.88.17-.29.49-.41.79-.51Z"/>
  <path class="cls-5" d="M90.77,60.91c.96-.1,1.96.15,2.73.74.9.66,1.48,1.7,1.65,2.79.21,1.17-.13,2.41-.83,3.37-.68.88-1.74,1.51-2.87,1.55-1.1.09-2.2-.35-3-1.1-1.63-1.62-1.68-4.51-.09-6.17.61-.7,1.51-1.07,2.41-1.19ZM89.45,62.49c-.8.26-1.07,1.4-.44,1.98.61.7,1.9.29,2.03-.61.2-.86-.76-1.71-1.59-1.37Z"/>
  <path class="cls-5" d="M79.48,69.98c.76-.68,1.81-.85,2.78-.98,1.31-.07,2.65.06,3.9.51.74.29,1.51.75,1.83,1.52.36.92,0,1.94-.49,2.74-.91,1.36-2.45,2.31-4.09,2.47-.08,1.06.06,2.15.5,3.13.63,1.35,1.97,2.37,3.46,2.55,1.86.32,3.87-.55,4.91-2.13.17-.23.24-.56.52-.69.29-.18.74,0,.83.33.1.27-.06.54-.18.78-.66,1.09-1.65,1.99-2.82,2.49-1.46.66-3.16.65-4.66.13v-.08s-.05.06-.05.06c-.85-.37-1.65-.89-2.23-1.63-1.17-1.37-1.56-3.25-1.45-5.01-1.65-.37-2.94-1.77-3.44-3.36-.31-.96-.1-2.13.7-2.8Z"/>
  <path class="cls-4" d="M97.29,70.44c1.15-.16,2.42.1,3.25.95,1.28,1.14,1.48,3.27.43,4.64-1.18,1.62-3.74,1.98-5.3.71-.99-.73-1.58-2.01-1.36-3.24.2-1.51,1.47-2.82,2.98-3.05Z"/>
  <path class="cls-4" d="M90.05,136.59c.07.25.13.51.19.76-2.08.88-3.97,2.25-5.3,4.08-1.12,1.49-1.75,3.32-1.88,5.18,0,.65.1,1.31.22,1.95.09.58.41,1.07.66,1.59-.7-.6-1.18-1.49-1.3-2.4.02-1.1-.04-2.23.29-3.29.62-2.46,2.22-4.6,4.29-6.04.9-.57,1.8-1.16,2.84-1.45,0-.09-.01-.28-.02-.38Z"/>
  <path class="cls-4" d="M30.74,137.69c3.28-1.22,7.05-1.18,10.26.25,1.37.62,2.6,1.56,3.57,2.71,1.36,1.66,2.16,3.81,2.07,5.97.03,1.18-.21,2.48-1.05,3.36-.21.21-.44.38-.68.55.66-1.02.97-2.22,1.07-3.43.17-2.39-.65-4.88-2.37-6.58-1.16-1.2-2.67-1.99-4.24-2.52-2.86-.92-6.01-.89-8.85.05-.77.24-1.47.66-2.22.97.71-.6,1.59-.96,2.44-1.33Z"/>
</svg>