<?xml version="1.0" encoding="UTF-8"?>
<svg id="_图层_1" data-name="图层 1" xmlns="http://www.w3.org/2000/svg" viewBox="0 0 149.3 136.12">
  <defs>
    <style>
      .cls-1 {
        fill: #50361b;
      }

      .cls-2 {
        fill: #4d3318;
      }

      .cls-3 {
        fill: #51371d;
      }

      .cls-4 {
        fill: #51361b;
      }

      .cls-5 {
        fill: #53371b;
      }

      .cls-6 {
        fill: #3e260e;
      }

      .cls-7 {
        fill: #fab077;
      }

      .cls-8 {
        fill: #f39733;
      }

      .cls-9 {
        fill: #281c11;
      }

      .cls-10 {
        fill: #fde6c1;
      }

      .cls-11 {
        fill: #ce7621;
      }

      .cls-12 {
        fill: #4b331c;
      }

      .cls-13 {
        fill: #fde5bf;
      }

      .cls-14 {
        fill: #fab177;
      }

      .cls-15 {
        fill: #52371b;
      }

      .cls-16 {
        fill: #4b331b;
      }

      .cls-17 {
        fill: #52361a;
      }

      .cls-18 {
        fill: #51361e;
      }

      .cls-19 {
        fill: #3c250b;
      }

      .cls-20 {
        fill: #53381c;
      }

      .cls-21 {
        fill: #50361c;
      }

      .cls-22 {
        fill: #fde6c2;
      }

      .cls-23 {
        fill: #faf9f9;
      }

      .cls-24 {
        fill: #fdd2a7;
      }

      .cls-25 {
        fill: #fccc9e;
      }

      .cls-26 {
        fill: #fdd5ab;
      }

      .cls-27 {
        fill: #f29532;
      }

      .cls-28 {
        fill: #4c341d;
      }

      .cls-29 {
        fill: #53371c;
      }

      .cls-30 {
        fill: #fab885;
      }

      .cls-31 {
        fill: #f9f8f8;
      }

      .cls-32 {
        fill: #f09330;
      }

      .cls-33 {
        fill: #f18a19;
      }

      .cls-34 {
        fill: #523820;
      }

      .cls-35 {
        fill: #422403;
      }

      .cls-36 {
        fill: #f0922e;
      }

      .cls-37 {
        fill: #fde6c0;
      }

      .cls-38 {
        fill: #fde6bf;
      }

      .cls-39 {
        fill: #fde5c0;
      }

      .cls-40 {
        fill: #22180f;
      }
    </style>
  </defs>
  <g>
    <path class="cls-32" d="M141.81,22.04c-.79-1.71-2.01-3.25-3.62-4.25-1.76-1.14-3.91-1.61-5.99-1.48-8.91.75-17.82,1.58-26.73,2.32.32-.29.69-.53,1.02-.81,2.16-1.78,3.26-4.74,2.79-7.49-.42-2.73-2.26-5.19-4.74-6.41-1.3-.69-2.8-1.03-4.27-.86-3.46.17-6.51,2.93-7.26,6.27-3.64-1.36-7.55-2.01-11.44-1.96.09,1.32.1,2.64.1,3.96,1.76.02,3.56.17,5.2.83.49.2,1.03.61.96,1.2-.11.59-.76.8-1.26.93-1.65.35-3.34.37-5.01.57-.07.69-.14,1.38-.26,2.07-.16.93-.29,1.89-.75,2.73-.21.41-.71.71-1.17.56-.54-.16-.81-.7-1.06-1.15-.59-1.22-1.01-2.51-1.32-3.82-1.69.14-3.38.37-5.08.32-.55-.02-1.27-.17-1.4-.8-.06-.63.5-1.07.99-1.37,1.44-.83,3.07-1.27,4.7-1.59-.22-1.31-.49-2.6-.59-3.93-3.76.6-7.41,1.84-10.74,3.7-.49-.94-1.05-1.86-1.79-2.63-1.29-1.4-3.1-2.32-5-2.51-1.92-.27-3.87.36-5.44,1.45-1.95,1.37-3.3,3.54-3.68,5.89-.35,2.29.31,4.74,1.85,6.49.91,1.11,2.16,1.87,3.48,2.41-.13.18-.17.54-.46.51-8.11.69-16.21,1.42-24.31,2.13-.99.1-1.99.13-2.97.37-2.3.48-4.41,1.84-5.77,3.77-1.09,1.55-1.81,3.4-1.87,5.3-.11.92-.09,1.87.11,2.78.27,1.82.97,3.58,2.07,5.07,1.34,1.86,3.35,3.22,5.58,3.74,1.16.28,2.36.31,3.54.2,2.39-.2,4.78-.43,7.17-.62.03-1.1.06-2.2.1-3.3.1-1.29.18-2.59.34-3.87.12-.94.21-1.89.57-2.77.14-.4.55-.75.99-.66.5.11.75.62.92,1.06.36,1.01.53,2.07.76,3.11.32,2,.62,4.01.82,6.03,1.03-.09,2.06-.16,3.09-.26-.17-2.67-.17-5.36.02-8.03.1-.77.1-1.65.64-2.26.34-.4.99-.23,1.24.19.54.86.76,1.88,1.03,2.85.37,1.32.61,2.68.9,4.02.15.95.29,1.9.45,2.84,2.39-.19,4.79-.41,7.18-.63-1.23-1.36-2.35-2.88-3-4.61.06-.05.17-.15.23-.2,2.19-1.73,5.04-2.5,7.8-2.46.39-.36.66-.84,1.16-1.07.97-.63,2.2-.66,3.27-.3.79.25,1.51.7,2.05,1.34.26-.03.52-.05.78-.09,1-.29,1.99-.7,2.78-1.39,1.47-1.24,3.09-2.42,5-2.84.61-.78,1.6-1.12,2.53-1.34,1.62-.34,3.35-.48,4.96-.01.43.11.81.34,1.12.65.92-.04,1.79.32,2.66.59,1.15.37,2.12,1.1,3.22,1.59.75.36,1.58.47,2.39.59.21-.02.43-.04.64-.07.43-.67,1.13-1.1,1.76-1.56,1.45-.86,3.56-.84,4.74.49.16-.03.33-.06.49-.09.88-.16,1.79-.21,2.68-.14,1.43.1,2.87.32,4.19.9.38.18.8.33,1.07.68.32.14.67.25,1.03.15,1.03-.22,2.07-.04,3.11-.07.21-.16.39-.35.58-.54.04.34.13.67.27.99.08-1.73.14-3.46.4-5.17.08-.47.19-.97.52-1.33.18-.18.43-.35.7-.26.53.11.77.65.95,1.1.32.91.52,1.86.75,2.8.42,2.07.79,4.15,1.06,6.24,1.02-.1,2.05-.17,3.08-.27-.2-2.76-.32-5.53-.17-8.3.05-.54.09-1.1.29-1.61.12-.32.41-.58.75-.62.35-.01.67.2.86.49.47.68.72,1.48.97,2.26.41,1.24.74,2.51,1.05,3.77.27,1.2.51,2.4.74,3.61,2.67-.23,5.35-.46,8.02-.71,2.39-.26,4.7-1.39,6.27-3.23,1.75-1.98,2.6-4.64,2.62-7.26-.02-1.67-.25-3.38-.99-4.89ZM22.27,35.49c-.58-.63-.95-1.53-.72-2.4.16-.26.35-.55.66-.63.66-.2,1.35.19,1.74.72.43.58.83,1.32.62,2.07-.08.35-.36.6-.63.81-.61.14-1.26-.12-1.67-.58ZM32.31,41.06c-1.21,1.79-3.81,2.37-5.71,1.39-1.15-.65-1.97-1.87-2.11-3.19-.09-.83.13-1.67.49-2.42.19-.33.4-.64.65-.93,1.43-1.57,4.05-1.85,5.75-.56,1.73,1.27,2.15,3.95.93,5.71ZM137.39,31.25c-.44,1.03-1.32,1.85-2.37,2.22-1.5.55-3.26.24-4.48-.79-1.58-1.26-1.79-3.71-.74-5.37,1.07-1.79,3.57-2.48,5.42-1.54,2.03.85,3.11,3.47,2.16,5.48Z"/>
    <path class="cls-32" d="M109.89,117.11c-.64-.47-1.32-.89-2.03-1.24-.59-.27-1.2-.5-1.81-.74-.06-1.24-.28-2.47-.25-3.71-.04-.06-.11-.18-.15-.24-1.64.2-3.32.44-4.94.01-.46-.13-.92-.5-.95-1.01.08-.83.89-1.25,1.54-1.6,1.33-.66,2.68-1.3,4.08-1.8-.15-1.88-.33-3.75-.49-5.62-1.79.21-3.61.42-5.4.1-.47-.1-.97-.22-1.33-.57-.39-.38-.36-1.05-.03-1.45.47-.62,1.19-.96,1.87-1.3,1.44-.69,2.92-1.3,4.44-1.79-.19-2.15-.38-4.31-.57-6.46-1.3.13-2.6.36-3.92.27-.83-.05-1.68-.13-2.43-.5-.46-.23-.78-.76-.65-1.28.15-.61.69-1.01,1.2-1.32.97-.57,1.99-1.02,3.04-1.42.76-.29,1.51-.63,2.31-.82-.25-2.95-.52-5.9-.77-8.85-.94.21-1.92.24-2.88.28-1.03.01-2.07-.02-3.06-.32-.51-.16-1.05-.55-1.07-1.13-.02-.66.51-1.16,1.01-1.51,1.05-.69,2.21-1.18,3.38-1.62.72-.27,1.43-.59,2.18-.78-.18-2.01-.36-4.02-.53-6.03-1.05.09-2.09.32-3.14.28-1.09-.03-2.25,0-3.23-.54-.5-.27-.75-.92-.45-1.43.49-.9,1.5-1.28,2.35-1.73,1.3-.6,2.63-1.13,3.99-1.58.02-.91-.14-1.81-.2-2.72-.33-3.71-.62-7.42-1-11.12-2.52,1.39-5.24,2.37-8.02,3.1-4.57,1.15-9.26,1.72-13.97,1.86-4.65.1-9.38-.31-13.81-1.8.41,4.6.8,9.21,1.22,13.82,1.65.25,3.29.59,4.88,1.07.64.2,1.32.41,1.83.88.39.36.48,1.01.15,1.44-.4.54-1.07.78-1.69.98-1.54.43-3.14.61-4.74.62.17,2.02.36,4.03.53,6.05,1.85.31,3.71.6,5.49,1.21.62.24,1.35.54,1.59,1.23.2.47-.03,1.03-.44,1.3-1.07.74-2.38.96-3.63,1.14-.84.16-1.7.14-2.54.2.25,2.95.5,5.89.78,8.84.86.11,1.71.28,2.54.48,1.12.23,2.24.48,3.3.91.58.26,1.26.65,1.3,1.36-.02.76-.72,1.26-1.37,1.5-1.7.65-3.54.75-5.34.82.17,2.16.37,4.32.57,6.48,1.05.13,2.07.39,3.1.61,1.04.24,2.1.45,3.07.92.46.22.91.62.91,1.17.09.68-.56,1.12-1.1,1.36-1.74.77-3.67.86-5.54.93.17,1.88.32,3.76.5,5.64.57.1,1.14.21,1.69.36,1.26.32,2.55.58,3.73,1.13.5.21.85.84.6,1.36-.26.55-.86.8-1.41.97-1.37.4-2.81.54-4.24.56.11,1.32.22,2.64.35,3.96-.71.39-1.42.76-2.05,1.29-3.07,2.32-4.57,6.51-3.63,10.25.35,1.59,1.19,3.06,2.41,4.13-.05-.49-.23-.96-.31-1.44-.26-1.38,0-2.8.5-4.09.8-1.77,2.23-3.26,3.99-4.11,1.92-.97,4.12-1.31,6.25-1.1,1.92.23,3.83.96,5.23,2.32,1.03.97,1.83,2.2,2.15,3.58.3,1.26.39,2.66-.2,3.85,3.3-.18,6.58-.53,9.87-.83-1.41-2.1-1.15-4.99.14-7.08,1.25-2.09,3.48-3.43,5.81-3.97,2.13-.51,4.41-.36,6.47.41,2.25.87,4.16,2.75,4.85,5.09.32,1.11.24,2.27.19,3.41,1.67-2.06,2.04-4.94,1.37-7.46-.49-2.14-1.79-4.04-3.47-5.42Z"/>
  </g>
  <path class="cls-10" d="M53.13,14.97c.08-2.43,2.51-4.64,4.97-4.11,1.59.27,2.8,1.56,3.37,3.02-1.93,1.49-3.67,3.25-5.02,5.28-1.87-.42-3.46-2.21-3.32-4.18Z"/>
  <path class="cls-38" d="M98.71,8.05c.86-.5,1.9-.74,2.89-.52,1.33.31,2.56,1.17,3.16,2.42.54,1.06.57,2.37.04,3.44-.44.95-1.24,1.66-2.14,2.15-1.78-1.76-3.79-3.26-5.97-4.48.3-1.19.96-2.35,2.02-3.01Z"/>
  <path class="cls-4" d="M67.4,21.58c.55-.08,1.16-.18,1.67.1.31.16.5.6.25.9-.19.33-.6.22-.91.24-1.01-.05-1.96.51-2.6,1.26-.14.2-.4.24-.63.22-.37-.09-.37-.56-.28-.85.46-.98,1.45-1.64,2.5-1.86Z"/>
  <path class="cls-1" d="M91.06,19.51c.69-.22,1.44-.09,2.12.11.7.24,1.44.63,1.77,1.34.19.32-.07.82-.47.78-.23.05-.41-.13-.59-.25-.49-.39-1.09-.65-1.72-.74-.52-.07-1.03.11-1.54.13-.33-.12-.5-.51-.36-.83.15-.31.48-.45.78-.54Z"/>
  <path class="cls-4" d="M52.29,28.79c.19-1.42.62-2.8,1.14-4.14.86.15,1.66.54,2.46.87.93.45,1.93.79,2.75,1.43.42.32.68.98.32,1.44-.4.46-1.06.53-1.63.6-1.68.11-3.37-.03-5.04-.2Z"/>
  <path class="cls-4" d="M102.53,22.4c1.2-.9,2.43-1.8,3.81-2.41.76,1.21,1.41,2.5,1.81,3.87l-.05.09c-1.2.35-2.42.63-3.65.83-.75.16-1.53.26-2.29.13-.44-.07-.85-.42-.88-.88.05-.74.72-1.2,1.23-1.64Z"/>
  <path class="cls-10" d="M25.59,29.17c.25-.13.56-.2.83-.08.71.27,1.09.99,1.31,1.67.24.7.24,1.55-.24,2.15-.41.5-1.22.48-1.66.04-.54-.55-.8-1.32-.92-2.07-.06-.62.07-1.4.68-1.71Z"/>
  <path class="cls-10" d="M134.51,19.64c.29-.1.65-.16.93.03.62.36.79,1.15.76,1.82-.05.69-.23,1.42-.71,1.94-.42.48-1.27.55-1.7.05-.44-.51-.5-1.23-.41-1.87.11-.76.42-1.59,1.13-1.97Z"/>
  <path class="cls-39" d="M30.32,29.56c.54-.28,1.23-.01,1.53.49.39.63.48,1.42.37,2.15-.08.63-.53,1.28-1.2,1.34-.72.06-1.31-.56-1.42-1.24-.22-.93-.23-2.2.72-2.74Z"/>
  <path class="cls-22" d="M129.91,20.81c.3-.11.66-.14.95.04.67.33.87,1.14.91,1.82.08.77-.18,1.68-.91,2.07-.74.27-1.48-.35-1.64-1.06-.27-.96-.33-2.32.68-2.87Z"/>
  <path class="cls-40" d="M67.94,26.97c1.05-.2,2.2.21,2.89,1.03,1.35,1.4,1.51,3.8.31,5.34-.83,1.05-2.37,1.52-3.63,1.03-1.72-.64-2.64-2.68-2.28-4.43.23-1.4,1.27-2.69,2.7-2.97Z"/>
  <path class="cls-40" d="M91.87,24.88c.76-.18,1.56.03,2.23.39,2.2,1.28,2.52,4.84.51,6.44-1.19,1.01-3.16,1.04-4.26-.13-1.56-1.44-1.57-4.1-.2-5.67.44-.52,1.05-.88,1.71-1.03Z"/>
  <path class="cls-37" d="M21.55,33.1c.16-.26.35-.55.66-.63.66-.2,1.35.19,1.74.72.43.58.83,1.32.62,2.07-.08.35-.36.6-.63.81-.61.14-1.26-.12-1.67-.58-.58-.63-.95-1.54-.72-2.4Z"/>
  <path class="cls-13" d="M138.39,22.43c.3-.09.65-.14.94.02.55.25.76.93.65,1.5-.15.8-.54,1.62-1.26,2.06-.55.35-1.37.09-1.6-.52-.23-.61-.09-1.28.17-1.86.24-.49.57-1,1.1-1.2Z"/>
  <path class="cls-31" d="M68.98,28.67c.49-.25,1.1.07,1.26.57.33.72-.52,1.66-1.26,1.24-.78-.29-.73-1.49,0-1.81Z"/>
  <path class="cls-23" d="M93.01,26.54c.62-.25,1.34.33,1.28.98,0,.66-.8,1.2-1.38.83-.71-.35-.65-1.53.1-1.8Z"/>
  <path class="cls-4" d="M51.9,32.49c.01-.25.35-.13.51-.15,1.8.1,3.62.23,5.38.67.54.13,1.18.5,1.14,1.13-.02.64-.66.93-1.15,1.17-1.7.78-3.54,1.21-5.37,1.57-.37-1.43-.55-2.92-.51-4.4Z"/>
  <path class="cls-17" d="M106.51,27.98c.9-.23,1.78-.51,2.7-.65.24,1.51.44,3.04.28,4.57-1.81-.04-3.64-.18-5.42-.57-.52-.16-1.16-.27-1.43-.8-.26-.51.12-1.07.56-1.32,1.02-.6,2.18-.9,3.3-1.22Z"/>
  <path class="cls-37" d="M25.63,35.91c1.43-1.57,4.05-1.85,5.75-.56,1.73,1.27,2.15,3.95.93,5.71-1.21,1.79-3.81,2.37-5.71,1.39-1.15-.65-1.97-1.87-2.11-3.19-.09-.83.13-1.67.49-2.42.19-.33.4-.64.65-.93Z"/>
  <path class="cls-38" d="M129.81,27.32c1.07-1.79,3.57-2.48,5.42-1.54,2.03.85,3.11,3.47,2.16,5.48-.44,1.03-1.32,1.85-2.37,2.22-1.5.55-3.26.24-4.48-.79-1.58-1.26-1.79-3.71-.74-5.37Z"/>
  <path class="cls-9" d="M79.05,31.26c1.62-.34,3.35-.48,4.96-.01.43.11.81.34,1.12.65.36.44.55,1.02.47,1.58-.14,1.11-.88,2.06-1.71,2.76-.57.49-1.22.88-1.93,1.13.05.55.05,1.11.15,1.66.21,1.01,1.08,1.83,2.1,1.98,1.27.24,2.64-.72,2.82-2,.07-.36-.02-.82.34-1.04.38-.32.95.04,1,.49.23,1.64-.97,3.25-2.5,3.75-1.55.56-3.37-.04-4.37-1.32-.39.73-.97,1.38-1.73,1.73-1.24.6-2.8.49-3.91-.34-.66-.5-1.17-1.21-1.41-2.01-.07-.33-.16-.71.06-1.01.23-.33.79-.38,1.03-.04.14.27.16.59.28.88.28.76,1,1.3,1.79,1.45,1.2.28,2.53-.53,2.85-1.72.23-.77.04-1.58-.02-2.36-1.61-.33-3.22-1.23-4-2.73-.37-.67-.36-1.53.08-2.16.61-.78,1.6-1.12,2.53-1.34Z"/>
  <path class="cls-20" d="M38.4,35.97c.14-.4.55-.75.99-.66.5.11.75.62.92,1.06.36,1.01.53,2.07.76,3.11.32,2,.62,4.01.82,6.03-1.5.14-3,.26-4.5.41.03-1.1.06-2.2.1-3.3.1-1.29.18-2.59.34-3.87.12-.94.21-1.89.57-2.77Z"/>
  <path class="cls-4" d="M45.64,34.95c.34-.4.99-.23,1.24.19.54.86.76,1.88,1.03,2.85.37,1.32.61,2.68.9,4.02.15.95.29,1.9.45,2.84-1.43.14-2.85.26-4.28.39-.17-2.67-.17-5.36.02-8.03.1-.77.1-1.65.64-2.26Z"/>
  <path class="cls-15" d="M114.87,28.91c.18-.18.43-.35.7-.26.53.11.77.65.95,1.1.32.91.52,1.86.75,2.8.42,2.07.79,4.15,1.06,6.24-1.45.13-2.89.25-4.34.39,0-1.26-.05-2.51-.03-3.77.08-1.73.14-3.46.4-5.17.08-.47.19-.97.52-1.33Z"/>
  <path class="cls-20" d="M121.52,28.62c.12-.32.41-.58.75-.62.35-.01.67.2.86.49.47.68.72,1.48.97,2.26.41,1.24.74,2.51,1.05,3.77.27,1.2.51,2.4.74,3.61-1.5.13-3,.27-4.49.4-.2-2.76-.32-5.53-.17-8.3.05-.54.09-1.1.29-1.61Z"/>
  <path class="cls-37" d="M71.52,35.44c1.47-1.24,3.09-2.42,5-2.84-.44.63-.45,1.49-.08,2.16.78,1.5,2.39,2.4,4,2.73.06.78.25,1.59.02,2.36-.32,1.19-1.65,2-2.85,1.72-.79-.15-1.5-.69-1.79-1.45-.12-.29-.13-.6-.28-.88-.24-.34-.81-.3-1.03.04-.22.29-.13.68-.06,1.01.23.8.74,1.51,1.41,2.01,1.11.83,2.67.94,3.91.34.76-.34,1.35-.99,1.73-1.73,1,1.28,2.82,1.88,4.37,1.32,1.53-.5,2.73-2.11,2.5-3.75-.04-.45-.62-.81-1-.49-.36.22-.28.68-.34,1.04-.18,1.29-1.55,2.24-2.82,2-1.02-.15-1.89-.97-2.1-1.98-.1-.55-.1-1.11-.15-1.66.71-.25,1.36-.64,1.93-1.13.84-.7,1.57-1.65,1.71-2.76.09-.57-.11-1.14-.47-1.58.92-.04,1.79.32,2.66.59,1.15.37,2.12,1.1,3.22,1.59.75.36,1.58.47,2.39.59.18.02.36.02.54.02-.33.75-.4,1.67.09,2.37.54.74,1.48,1.05,2.35,1.22,1.08.05,2.23-.07,3.18-.63.4-.2.62-.61.96-.89.21-.08.44-.12.67-.15.64-.02,1.28.11,1.93.09.49,0,.69-.68.3-.96-.48-.21-1.02-.19-1.53-.26-.23-.04-.46-.08-.68-.12-.06-.61-.15-1.24-.53-1.74.12-.06.25-.12.38-.18.88-.16,1.79-.21,2.68-.14,1.43.1,2.87.32,4.19.9.38.18.8.33,1.07.68-.43,1.76-1.18,3.44-2.19,4.94-.62,1.01-1.46,1.84-2.27,2.69-.59.61-1.28,1.09-1.93,1.63-.79.65-1.73,1.09-2.58,1.66-2.52,1.39-5.24,2.37-8.02,3.1-4.57,1.15-9.26,1.72-13.97,1.86-4.65.1-9.38-.31-13.81-1.8-.86-.24-1.66-.64-2.47-.99-.98-.47-1.96-.96-2.83-1.61-.85-.68-1.75-1.31-2.48-2.12-1.23-1.36-2.35-2.88-3-4.61.06-.05.17-.15.23-.2,2.19-1.73,5.04-2.5,7.8-2.46l-.02.05c-.33.6-.37,1.3-.11,1.94-.76.18-1.55.33-2.24.71-.37.3-.05.97.41.88.72-.13,1.42-.37,2.14-.48.42-.06.8.14,1.11.4.39.3.85.47,1.32.59.75.08,1.51-.02,2.26.12.04-.09.08-.19.12-.28.7-.38,1.4-.88,1.81-1.57.42-.75.14-1.62-.23-2.33.23-.05.45-.1.67-.17,1-.29,1.99-.7,2.78-1.39Z"/>
  <path class="cls-14" d="M62.63,35.89c.97-.63,2.2-.66,3.27-.3-.08.02-.25.06-.34.08.25.45.39.94.5,1.44-1.54.07-3.07-.3-4.61-.09l.02-.05c.39-.36.66-.84,1.16-1.07Z"/>
  <path class="cls-7" d="M95.8,33.04c1.45-.86,3.56-.84,4.74.49-1.32.16-2.59.56-3.88.84-.89.23-1.81.22-2.72.33-.18,0-.36,0-.54-.02.21-.02.43-.04.64-.07.43-.67,1.13-1.1,1.76-1.56Z"/>
  <path class="cls-30" d="M65.56,35.66c.08-.02.25-.06.34-.08.79.25,1.51.7,2.05,1.34.26-.03.52-.05.78-.09-.22.07-.45.12-.67.17-.67.06-1.33.08-2,.11-.11-.5-.24-1-.5-1.44Z"/>
  <path class="cls-24" d="M100.54,33.53c.16-.03.33-.06.49-.09-.13.06-.25.12-.38.18.39.5.48,1.13.53,1.74.23.04.45.09.68.12-1.92-.12-3.85.18-5.66.81-.33.1-.58.53-.32.83.24.33.68.14,1.01.08,1.39-.38,2.83-.6,4.28-.59-.23.03-.46.07-.67.15-.34.28-.56.69-.96.89-.95.57-2.1.68-3.18.63-.87-.17-1.81-.48-2.35-1.22-.49-.7-.42-1.62-.09-2.37.91-.11,1.83-.09,2.72-.33,1.29-.27,2.56-.68,3.88-.84Z"/>
  <path class="cls-26" d="M61.45,37.01c1.53-.2,3.07.16,4.61.09.67-.03,1.33-.05,2-.11.37.71.64,1.58.23,2.33-.42.7-1.11,1.19-1.81,1.57-.04.09-.08.18-.12.28-.75-.14-1.51-.04-2.26-.12.1-.04.29-.12.39-.16-.09-.22-.17-.45-.26-.67.15-.04.3-.08.45-.12-.25-.02-.52-.02-.69-.25.75-.04,1.5.07,2.25.11.37.02.66-.42.5-.76-.2-.31-.59-.31-.9-.38-1.49-.22-3.02-.18-4.5.12-.26-.64-.22-1.33.11-1.94Z"/>
  <path class="cls-28" d="M59.11,39.65c.69-.38,1.48-.52,2.24-.71,1.48-.3,3.01-.33,4.5-.12.32.06.71.07.9.38.16.34-.13.78-.5.76-.75-.03-1.5-.14-2.25-.11-.78-.02-1.56.07-2.33.2-.73.1-1.42.34-2.14.48-.46.08-.79-.59-.41-.88Z"/>
  <path class="cls-12" d="M96.21,36.28c1.81-.63,3.74-.93,5.66-.81.51.07,1.05.05,1.53.26.39.28.2.96-.3.96-.64.02-1.28-.11-1.93-.09-1.44-.02-2.89.2-4.28.59-.33.06-.77.26-1.01-.08-.26-.29-.02-.73.32-.83Z"/>
  <path class="cls-36" d="M108.97,34.88c.32.14.67.25,1.03.15,1.03-.22,2.07-.04,3.11-.07.21-.16.39-.35.58-.54.04.34.13.67.27.99-.01,1.26.03,2.51.03,3.77-2.41.19-4.81.43-7.21.63,1.02-1.5,1.77-3.18,2.19-4.94Z"/>
  <path class="cls-25" d="M61.66,40.06c.77-.13,1.55-.22,2.33-.2.16.23.44.22.69.25-.15.04-.3.08-.45.12.09.22.17.45.26.67-.1.04-.29.12-.39.16-.47-.12-.94-.29-1.32-.59-.31-.27-.68-.47-1.11-.4Z"/>
  <path class="cls-28" d="M65.89,41.77c.31-.06.66-.21.95-.03.27.14.33.57.11.78-.15.17-.38.21-.58.28-1.63.45-3.22,1.04-4.69,1.89-.3.14-.59.42-.94.31-.28-.13-.39-.54-.19-.78.22-.28.55-.43.84-.62,1.37-.87,2.92-1.45,4.5-1.83Z"/>
  <path class="cls-16" d="M96.19,39.13c.17-.13.4-.07.6-.08,2.01,0,4.02.46,5.82,1.34.51.22.32,1.15-.28.99-1.18-.38-2.35-.8-3.58-.98-.79-.18-1.6-.18-2.39-.31-.43-.08-.54-.72-.18-.95Z"/>
  <path class="cls-37" d="M81.79,52.83c1.54-.33,3.17-.08,4.56.64,1.8.9,3.14,2.51,4.14,4.23.69,1.19,1.23,2.45,1.62,3.77.75,2.29,1.2,4.66,1.52,7.04.3,1.66.36,3.36.62,5.03.48,5.13.91,10.26,1.37,15.39.16,2.16.42,4.31.5,6.47.27,3.76.59,7.52.34,11.29-.2,3.01-.58,6.09-1.88,8.85-.73,1.53-1.76,2.98-3.23,3.89-1.18.76-2.62,1.07-4.01.93-1.99-.2-3.76-1.38-5.02-2.89-2.03-2.38-3.04-5.42-3.8-8.4-.96-3.7-1.37-7.51-1.78-11.31-.66-6.72-1.2-13.45-1.81-20.18-.27-3.54-.54-7.09-.5-10.64.04-1.63.16-3.26.45-4.87.42-2.06,1.03-4.13,2.22-5.88,1.07-1.64,2.73-2.97,4.69-3.35Z"/>
  <path class="cls-29" d="M65.44,62.78c1.65.25,3.29.59,4.88,1.07.64.2,1.32.41,1.83.88.39.36.48,1.01.15,1.44-.4.54-1.07.78-1.69.98-1.54.43-3.14.61-4.74.62-.14-1.67-.29-3.33-.43-5Z"/>
  <path class="cls-20" d="M97.21,61.21c1.3-.6,2.63-1.13,3.99-1.58.14,1.25.3,2.5.32,3.75.02.42.11.83.17,1.25-1.05.09-2.09.32-3.14.28-1.09-.03-2.25,0-3.23-.54-.5-.27-.75-.92-.45-1.43.49-.9,1.5-1.28,2.35-1.73Z"/>
  <path class="cls-20" d="M66.4,73.82c1.85.31,3.71.6,5.49,1.21.62.24,1.35.54,1.59,1.23.2.47-.03,1.03-.44,1.3-1.07.74-2.38.96-3.63,1.14-.84.16-1.7.14-2.54.2-.18-1.69-.28-3.39-.46-5.08Z"/>
  <path class="cls-15" d="M100.03,71.44c.72-.27,1.43-.59,2.18-.78.08,1.7.3,3.39.44,5.09-.94.21-1.92.24-2.88.28-1.03.01-2.07-.02-3.06-.32-.51-.16-1.05-.55-1.07-1.13-.02-.66.51-1.16,1.01-1.51,1.05-.69,2.21-1.18,3.38-1.62Z"/>
  <path class="cls-15" d="M67.64,87.74c.86.11,1.71.28,2.54.48,1.12.23,2.24.48,3.3.91.58.26,1.26.65,1.3,1.36-.02.76-.72,1.26-1.37,1.5-1.7.65-3.54.75-5.34.82-.16-1.69-.31-3.38-.44-5.07Z"/>
  <path class="cls-29" d="M101.12,85.43c.76-.29,1.51-.63,2.31-.82.17,1.69.27,3.39.45,5.07-1.3.13-2.6.36-3.92.27-.83-.05-1.68-.13-2.43-.5-.46-.23-.78-.76-.65-1.28.15-.61.69-1.01,1.2-1.32.97-.57,1.99-1.02,3.04-1.42Z"/>
  <path class="cls-20" d="M112.92,94.12c.76-.78,1.84-1.27,2.93-1.28,1.23-.02,2.46.52,3.25,1.46,1.37,1.6,1.62,3.81,1.78,5.84-.03-.02-.08-.06-.1-.08,0-.67-.06-1.35-.23-2,.01.63.04,1.26.09,1.89-2.02-1.11-4.79-.9-6.47.74-.25.24-.47.51-.69.78-.39-1.05-1.08-1.96-1.45-3.02-.54-1.46-.17-3.2.9-4.33Z"/>
  <path class="cls-4" d="M68.64,99.3c1.05.13,2.07.39,3.1.61,1.04.24,2.1.45,3.07.92.46.22.91.62.91,1.17.09.68-.56,1.12-1.1,1.36-1.74.77-3.67.86-5.54.93-.15-1.67-.29-3.33-.44-5Z"/>
  <path class="cls-4" d="M100.01,97.93c1.44-.69,2.92-1.3,4.44-1.79.13,1.67.27,3.35.44,5.02-1.79.21-3.61.42-5.4.1-.47-.1-.97-.22-1.33-.57-.39-.38-.36-1.05-.03-1.45.47-.62,1.19-.96,1.87-1.3Z"/>
  <path class="cls-35" d="M120.55,98.05c.17.65.23,1.32.23,2-.04-.03-.11-.08-.15-.11-.05-.63-.07-1.26-.09-1.89Z"/>
  <path class="cls-8" d="M114.16,100.68c1.68-1.64,4.45-1.85,6.47-.74.04.03.11.08.15.11.03.02.08.06.1.08.16,1.47.13,2.96-.12,4.42-.12.68-.2,1.38-.47,2.02-1.45-1.92-3.93-3.13-6.35-2.77.02-.81-.25-1.57-.47-2.34.22-.27.44-.54.69-.78Z"/>
  <path class="cls-1" d="M113.94,103.8c2.42-.35,4.89.85,6.35,2.77-.03.54-.32,1.07-.49,1.59-.29.79-.68,1.53-1.1,2.25-.6-.8-1.27-1.57-2.13-2.1-.96-.66-2.07-1.04-3.19-1.31.33-1.03.61-2.1.56-3.2Z"/>
  <path class="cls-4" d="M69.58,109.93c.57.1,1.14.21,1.69.36,1.26.32,2.55.58,3.73,1.13.5.21.85.84.6,1.36-.26.55-.86.8-1.41.97-1.37.4-2.81.54-4.24.56-.14-1.46-.26-2.92-.38-4.39Z"/>
  <path class="cls-5" d="M101.3,108.59c1.33-.66,2.68-1.3,4.08-1.8.1,1.46.24,2.92.39,4.38l-.12.02c-1.64.2-3.32.44-4.94.01-.46-.13-.92-.5-.95-1.01.08-.83.89-1.25,1.54-1.6Z"/>
  <path class="cls-27" d="M113.33,106.99h.05c1.12.29,2.23.66,3.19,1.32.85.53,1.53,1.3,2.13,2.1-.96,1.65-2.22,3.12-3.73,4.28-.24-2.14-1.24-4.25-2.96-5.59.51-.65,1.04-1.33,1.32-2.12Z"/>
  <path class="cls-4" d="M109.91,110.62c.78-.38,1.48-.91,2.09-1.52,1.72,1.34,2.72,3.45,2.96,5.59-.89.69-1.85,1.29-2.89,1.7-.36-1.51-.85-3.01-1.56-4.39-.23-.45-.45-.89-.6-1.37Z"/>
  <path class="cls-11" d="M107.59,111.39c.8-.16,1.59-.38,2.32-.76.15.48.38.92.6,1.37.71,1.39,1.2,2.88,1.56,4.39-.7.32-1.43.56-2.18.72-.64-.47-1.32-.89-2.03-1.24.06,0,.18,0,.25,0,.05-1.52-.26-3.01-.52-4.5Z"/>
  <path class="cls-2" d="M105.8,111.42c.6.04,1.19.05,1.79-.04.26,1.49.56,2.98.52,4.5-.06,0-.19,0-.25,0-.59-.27-1.2-.5-1.81-.74-.06-1.24-.28-2.47-.25-3.71Z"/>
  <path class="cls-37" d="M71.23,124.31c1.92-.97,4.12-1.31,6.25-1.1,1.92.23,3.83.96,5.23,2.32,1.03.97,1.83,2.2,2.15,3.58.3,1.26.39,2.66-.2,3.85l-.07.11c-.45.59-1.19.85-1.84,1.15-.87.28-1.8.65-2.73.5.08-.6,0-1.21-.04-1.81-.09-1.08-.17-2.17-.38-3.24-.04-.34-.33-.67-.7-.6-.35.11-.51.5-.46.84.25,1.45.35,2.92.42,4.39.01.22.06.45.11.67-1.65.18-3.31.3-4.96.44.16-.48.03-.97,0-1.46-.08-.99-.31-1.97-.26-2.97-.04-.42.08-.96-.27-1.28-.35-.31-.92.02-.91.46-.01,1.75.11,3.52.49,5.24-2.08.29-4.34-.06-6.01-1.41v-.05c-.06-.49-.24-.96-.32-1.44-.26-1.38,0-2.8.5-4.09.8-1.77,2.23-3.26,3.99-4.11Z"/>
  <path class="cls-37" d="M100.49,121.09c2.13-.51,4.41-.36,6.47.41,2.25.87,4.16,2.75,4.85,5.09.32,1.11.24,2.27.19,3.41v.05c-1.41,1.61-3.57,2.4-5.68,2.43.16-1.49-.05-3.01-.26-4.48-.11-.42-.03-1.05-.53-1.22-.46-.19-.82.39-.72.8.26,1.59.39,3.2.41,4.81.04.06.12.17.15.23-.57.18-1.17.15-1.76.21-1.07.06-2.14.18-3.22.26.04-.14.09-.28.14-.41-.03-.05-.08-.15-.1-.21-.11-1.08-.23-2.16-.28-3.24,0-.56.08-1.16-.15-1.68-.23-.43-.92-.33-1.01.15-.12,1.29.04,2.58.17,3.86.06.53.1,1.07.3,1.56-1.57.2-3.2-.03-4.64-.68-.08-.11-.16-.21-.25-.3-1.41-2.1-1.15-4.99.14-7.08,1.25-2.09,3.48-3.43,5.81-3.97Z"/>
  <path class="cls-34" d="M72.57,130.17c-.01-.44.56-.78.91-.46.35.32.24.85.27,1.28-.05,1,.18,1.98.26,2.97.04.48.17.98,0,1.46-.32.03-.65.12-.96,0-.39-1.71-.5-3.48-.49-5.24Z"/>
  <path class="cls-3" d="M78.44,129.91c-.06-.34.11-.74.46-.84.36-.06.66.27.7.6.21,1.07.29,2.16.38,3.24.04.6.11,1.21.04,1.81-.24.31-.7.18-1.04.25-.05-.22-.1-.44-.11-.67-.07-1.47-.17-2.94-.42-4.39Z"/>
  <path class="cls-21" d="M98.96,127.7c.09-.48.78-.58,1.01-.15.24.52.14,1.12.15,1.68-.07-.14-.15-.28-.22-.42,0,.78.15,1.55.19,2.33.02.4.04.8.15,1.18l.16.15c.03.05.08.15.1.21-.05.14-.09.27-.14.41-.31.02-.64.11-.95.04-.2-.5-.24-1.04-.3-1.56-.12-1.28-.29-2.57-.17-3.86Z"/>
  <path class="cls-18" d="M104.79,127.58c-.09-.41.26-.99.72-.8.5.17.42.8.53,1.22.2,1.48.42,2.99.26,4.48-.28.15-.61.14-.91.18l-.04-.06c-.04-.06-.11-.17-.15-.23-.02-1.61-.15-3.22-.41-4.81Z"/>
  <path class="cls-6" d="M78.83,132.36c-.03-.96-.34-1.91-.23-2.88.14.69.22,1.39.23,2.09.02,1,.34,1.98.2,2.99-.21-.71-.15-1.46-.21-2.2Z"/>
  <path class="cls-19" d="M99.91,128.81c.08.14.15.27.22.42.04,1.08.17,2.16.28,3.24l-.16-.15c-.12-.38-.13-.78-.15-1.18-.04-.78-.19-1.55-.19-2.33Z"/>
  <path class="cls-33" d="M84.59,133.07l.07-.11c3.3-.18,6.58-.53,9.87-.83.03.04.1.12.13.16-3.38.37-6.78.6-10.17.93l.1-.15Z"/>
  <path class="cls-20" d="M86.89,12.16c-1.65-.66-3.45-.81-5.2-.83,0-.69,0-1.39-.02-2.08,2.32-.37,3.91-.88,3.87-1.31-.05-.58-3.15-.79-6.92-.46-.15.01-.3.03-.45.04-.38.04-.76.08-1.15.13-2.99.37-5.18.99-5.13,1.49.04.42,1.66.65,3.97.61.11.68.24,1.37.35,2.05-1.62.31-3.25.75-4.7,1.59-.48.3-1.05.73-.99,1.37.14.63.85.79,1.4.8,1.7.04,3.39-.18,5.08-.32.25,1.04.57,2.07.99,3.06-3.01.37-5.22.99-5.18,1.49.05.58,3.15.79,6.92.46,3.77-.33,6.78-1.07,6.73-1.66-.04-.5-2.33-.72-5.36-.57.07-.37.13-.74.2-1.1.12-.68.19-1.37.26-2.07,1.67-.19,3.36-.21,5.01-.57.5-.13,1.15-.34,1.26-.93.07-.59-.47-1.01-.96-1.2Z"/>
</svg>