<?xml version="1.0" encoding="UTF-8"?>
<svg id="_图层_1" data-name="图层 1" xmlns="http://www.w3.org/2000/svg" viewBox="0 0 129.83 164.58">
  <defs>
    <style>
      .cls-1 {
        fill: #f1aa45;
      }

      .cls-2 {
        fill: #f3ddb8;
      }

      .cls-3 {
        fill: #f0dfc1;
      }

      .cls-4 {
        fill: #f2e1c1;
      }

      .cls-5 {
        fill: #352215;
      }

      .cls-6 {
        fill: #533725;
      }

      .cls-7 {
        fill: #cca67e;
      }

      .cls-8 {
        fill: #ddba95;
      }

      .cls-9 {
        fill: #f0a944;
      }

      .cls-10 {
        fill: #e1b991;
      }

      .cls-11 {
        fill: #65452d;
      }

      .cls-12 {
        fill: #cca57d;
      }

      .cls-13 {
        fill: #f0a843;
      }

      .cls-14 {
        fill: #dcb994;
      }

      .cls-15 {
        fill: #dfb991;
      }

      .cls-16 {
        fill: #f0dec0;
      }

      .cls-17 {
        fill: #cca47c;
      }

      .cls-18 {
        fill: #f5e0b9;
      }

      .cls-19 {
        fill: #e1be9b;
      }

      .cls-20 {
        fill: #e1bb94;
      }

      .cls-21 {
        fill: #cca77f;
      }

      .cls-22 {
        fill: #f3d9af;
      }

      .cls-23 {
        fill: #dcb894;
      }

      .cls-24 {
        fill: #ad8968;
      }

      .cls-25 {
        fill: #5f432f;
      }

      .cls-26 {
        fill: #fbfafb;
      }

      .cls-27 {
        fill: #f5e0bb;
      }

      .cls-28 {
        fill: #f5b590;
      }

      .cls-29 {
        fill: #f5deb6;
      }

      .cls-30 {
        fill: #cba57d;
      }

      .cls-31 {
        fill: #e2bc93;
      }

      .cls-32 {
        fill: #cba67e;
      }

      .cls-33 {
        fill: #f2d8ad;
      }

      .cls-34 {
        fill: #4a2d16;
      }

      .cls-35 {
        fill: #f5dfb8;
      }

      .cls-36 {
        fill: #f2d7ac;
      }

      .cls-37 {
        fill: #e3bd95;
      }

      .cls-38 {
        fill: #dfbc98;
      }

      .cls-39 {
        fill: #f5e1bc;
      }

      .cls-40 {
        fill: #8a684e;
      }

      .cls-41 {
        fill: #cca67d;
      }

      .cls-42 {
        fill: #e0b991;
      }

      .cls-43 {
        fill: #e0b992;
      }

      .cls-44 {
        fill: #dfbb97;
      }

      .cls-45 {
        fill: #efddc0;
      }

      .cls-46 {
        fill: #f2d9af;
      }

      .cls-47 {
        fill: #fdfdfd;
      }

      .cls-48 {
        fill: #e1ba92;
      }

      .cls-49 {
        fill: #593b26;
      }
    </style>
  </defs>
  <path class="cls-24" d="M115.26,105.6c2.16-6.22,3.32-12.78,3.44-19.36.05-3.77-.09-7.55-.61-11.29-.59-4.27-1.57-8.5-2.99-12.58-1.24-3.62-2.85-7.1-4.68-10.45h-.04c-1.26-2.31-2.76-4.48-4.36-6.57-6.14-7.98-14.81-13.96-24.41-16.97-6.45-2.09-13.21-3.06-19.95-3.63-3.42-.27-6.85-.51-10.29-.57.48-.77.76-1.69.59-2.6-.21-1.1-1.31-1.93-2.43-1.87-1.11,0-2.08.64-2.86,1.38-.17-1.6-1.49-3.08-3.15-3.17-1.45-.14-2.84.69-3.63,1.88-.44.74-.8,1.53-.97,2.37-.19.72-.17,1.47-.28,2.21-.07.02-.21.06-.28.08-.5-1.24-.95-2.51-1.45-3.76-.65-.26-1.38-.51-2.08-.29-.88.22-1.58,1-1.68,1.9-.17,1.14.48,2.18,1.11,3.06-4.78,1.83-9.09,5-11.97,9.26-2.63,3.75-4.21,8.29-4.16,12.89.83-.22,1.76-.19,2.48.31.38-.86.67-1.76,1.1-2.6,1.28-2.61,3.06-4.99,5.28-6.86,3.07-2.59,6.93-4.29,10.94-4.63,3.45-.29,7.02.33,10.06,2.03,1.58.91,3.02,2.09,4.16,3.51,1.82,2.23,2.94,4.98,3.37,7.81.6,3.63.12,7.33-.61,10.91,4.73-2.81,10.51-3.55,15.88-2.57,4.71.84,9.1,3.26,12.42,6.69,1.66,1.69,3.03,3.64,4.22,5.67,1.99,3.59,3.25,7.54,3.9,11.58.67,4.15.72,8.4.2,12.58-.57,4.4-1.85,8.75-4.07,12.61-2.14,3.71-5.18,6.94-8.95,9.02-3.44,1.94-7.39,2.89-11.32,2.94-4.93.09-9.92-1.35-13.93-4.24-3.38-2.39-6.01-5.73-7.85-9.42-2.77-5.48-4-11.67-3.89-17.79-1.37,2.23-3.01,4.31-5.05,5.96-1.76,1.38-3.81,2.5-6.06,2.73-1.13.18-2.26,0-3.38-.19.4.51.76,1.05,1.22,1.51,1.08,1.06,1.98,2.29,2.95,3.46,1.23,1.64,2.47,3.43,2.63,5.53.11,1.07-.36,2.22-1.3,2.8-.55.35-1.23.37-1.86.43.63,1.42,1.36,2.96,1,4.56-.2,1.19-1.13,2.23-2.33,2.44-1.74.32-3.45-.51-4.77-1.58.03.65.07,1.3-.03,1.94-.15.94-.7,1.88-1.65,2.18.86,1.7,1.88,3.32,2.96,4.88,2.72,3.88,5.97,7.41,9.74,10.31,5.06,3.94,10.97,6.74,17.18,8.32,1.44.39,2.91.64,4.38.9,6.59,1.08,13.37.92,19.92-.4,1.48-.3,2.95-.67,4.39-1.11,2.07-.63,4.09-1.4,6.09-2.24,3.06,2.84,6.07,5.72,9.17,8.52.41.34.74.81,1.22,1.04.03,0,.09.02.12.02.62.15,1.23.39,1.87.47,1.26.21,2.7-.05,3.59-1.03.5-.52.66-1.25.86-1.93.71.27,1.44.59,2.22.51.82-.1,1.53-.68,1.92-1.39.49-.91.49-1.98.4-2.98.62.19,1.25.4,1.9.35.7-.02,1.38-.37,1.78-.95.72-1.02.87-2.34.64-3.54.76.14,1.55.33,2.32.12.95-.24,1.62-1.04,2.08-1.85.64-1.13.77-2.46.78-3.74h0c-3.96-3.23-7.89-6.48-11.7-9.88-.2-.11,0-.3.08-.41,3.61-4.58,6.46-9.75,8.41-15.25ZM98.42,50.95c.3-.13.63.03.9.15,1.3.63,2.18,1.9,2.57,3.27.08.52.2,1.14-.16,1.58-.39.38-.96.08-1.36-.12-1.29-.93-2.12-2.43-2.28-4.01,0-.31-.01-.74.32-.87ZM99.7,63.68c-.16.35-.59.28-.9.32-1.61-.93-2.57-2.81-2.46-4.65.02-.31.12-.71.47-.79.38,0,.74.19,1.04.4,1.05.79,1.75,2,1.98,3.29,0,.48.06.99-.13,1.44ZM106.06,54.17c.19-.41.71-.55,1.08-.3,1.09.64,1.73,1.8,2.22,2.93.06.7.23,1.45-.07,2.12-.28.46-.95.2-1.28-.08-1.36-1.12-2.09-2.92-1.95-4.67Z"/>
  <path class="cls-6" d="M21.39,4.46c2.37-.47,4.85-.38,7.19.22,3.88,1,7.28,3.67,9.22,7.17,1.35,2.42,1.89,5.2,2.12,7.94-.44.74-.8,1.53-.97,2.37-.19.72-.17,1.47-.28,2.21-.07.02-.21.06-.28.08-.5-1.24-.95-2.51-1.45-3.76-.9-2.15-2.02-4.29-3.83-5.81-1.51-1.32-3.57-2.06-5.58-1.83-.91.15-1.83.48-2.51,1.11-.84.73-1.09,1.87-1.82,2.69-1.02,1.33-2.63,2.19-4.31,2.21-1.45.09-2.92-.45-4.02-1.4-1.5-1.34-2.2-3.44-1.94-5.42.25-2.12,1.47-4.04,3.1-5.38,1.54-1.25,3.43-2.01,5.36-2.4Z"/>
  <path class="cls-18" d="M60.99,28.32c.95-.07,1.94.14,2.71.72.28.23.56.53.58.91,0,.36-.32.65-.65.75-1.18.38-2.52.13-3.54-.55-.37-.26-.76-.72-.56-1.2.3-.49.95-.54,1.47-.62Z"/>
  <path class="cls-39" d="M46.5,28.45c.7-.07,1.47-.02,2.07.38.29.21.57.61.4.98-.18.46-.68.66-1.12.79-.9.22-1.96.21-2.72-.4-.29-.21-.4-.64-.2-.95.37-.49.98-.73,1.57-.8Z"/>
  <path class="cls-29" d="M71.86,30.25c1.16-.24,2.42.04,3.39.73.41.31.81.69.95,1.2.1.31-.12.62-.4.75-.41.19-.88.19-1.32.16-1.04-.1-2.1-.52-2.8-1.32-.24-.28-.5-.6-.47-.99.08-.29.36-.47.65-.53Z"/>
  <path class="cls-27" d="M52.94,30.88c.86-.09,1.8.02,2.51.55.32.25.59.69.42,1.1-.29.5-.92.64-1.45.68-.76.03-1.57-.07-2.23-.48-.32-.21-.64-.55-.62-.96.14-.6.84-.8,1.38-.88Z"/>
  <path class="cls-22" d="M84.57,33.37c1.78-.27,3.67.76,4.41,2.4.17.35.15.89-.29,1.02-.8.25-1.68-.03-2.4-.4-.89-.52-1.72-1.27-2.07-2.27-.14-.29.06-.64.35-.75Z"/>
  <path class="cls-4" d="M27.03,38.36c3.07-2.59,6.93-4.29,10.94-4.63,3.45-.29,7.02.33,10.06,2.03,1.58.91,3.02,2.09,4.16,3.51,1.82,2.23,2.94,4.98,3.37,7.81.6,3.63.12,7.33-.61,10.91-4.18,2.45-7.38,6.33-9.48,10.66-1.01,1.95-1.8,4.02-2.38,6.13-1.01,3.33-1.46,6.8-1.54,10.28-1.37,2.23-3.01,4.31-5.05,5.96-1.76,1.38-3.81,2.5-6.06,2.73-1.13.18-2.26,0-3.38-.19-.92-.83-1.6-1.87-2.43-2.78-1.71-2.07-3.35-4.21-4.56-6.62-.55-1.03-.95-2.2-1.88-2.97-.46-.39-1.1-.41-1.65-.25.52-6.89,2.52-13.65,5.71-19.78-.55-1.04-1.09-2.1-1.44-3.23,1.46-1.32,2.33-3.24,2.43-5.2-.19-1.9-1.1-3.73-2.61-4.93.38-.86.67-1.76,1.1-2.6,1.28-2.61,3.06-4.99,5.28-6.86Z"/>
  <path class="cls-35" d="M64.93,33.8c1.26-.31,2.68.07,3.58,1.02.24.26.45.62.43.99-.11.31-.38.53-.7.59-1.25.26-2.59-.14-3.53-.99-.3-.28-.59-.68-.48-1.12.09-.3.43-.4.7-.48Z"/>
  <path class="cls-18" d="M56.86,35.77c.93-.16,1.95,0,2.71.58.31.23.6.58.54,1,.02.44-.46.67-.83.74-.99.2-2.11.03-2.91-.61-.34-.27-.65-.73-.47-1.18.21-.32.6-.44.95-.52Z"/>
  <path class="cls-36" d="M78.29,36.42c.71-.27,1.5-.06,2.19.21.95.42,1.86,1.07,2.33,2.02.17.35.24.9-.17,1.12-.77.35-1.67.09-2.39-.26-.87-.5-1.68-1.19-2.11-2.11-.15-.31-.24-.81.15-.98Z"/>
  <path class="cls-49" d="M35.69,38.3c1.22-.34,2.55-.11,3.68.42.56.29,1.13.63,1.49,1.17.2.35-.14.8-.53.73-.37-.2-.67-.49-1.03-.71-.78-.47-1.69-.67-2.59-.67-.52,0-1.01.18-1.52.26-.29,0-.48-.36-.37-.62.14-.35.53-.49.87-.58Z"/>
  <path class="cls-33" d="M71.58,38.49c.87-.25,1.8.02,2.59.41.73.41,1.49.95,1.73,1.78.14.37-.08.8-.45.92-.59.23-1.23.08-1.8-.11-.92-.31-1.72-.94-2.28-1.73-.27-.38-.42-1.16.2-1.27Z"/>
  <path class="cls-2" d="M61.87,40.39c.17-.47.75-.51,1.18-.56,1.23-.07,2.66.56,3.01,1.83-.19.56-.78.79-1.33.78-.78.02-1.55-.26-2.17-.72-.41-.31-.78-.79-.69-1.33Z"/>
  <path class="cls-37" d="M87.61,41.14c.43-.21.93-.04,1.36.11,1.34.53,2.59,1.54,3,2.97.07.34.15.85-.23,1.03-.59.25-1.25.02-1.79-.25-1.13-.54-1.96-1.57-2.45-2.7-.13-.36-.29-.92.12-1.17Z"/>
  <path class="cls-46" d="M96.23,41.65c.48-.16,1.01.03,1.46.22,1.24.6,2.25,1.72,2.62,3.06.07.38.15.9-.24,1.13-.48.25-1.03-.03-1.48-.23-1.18-.65-2.13-1.76-2.52-3.06-.1-.37-.2-.86.17-1.12Z"/>
  <path class="cls-47" d="M35.05,43.05c.9-.2,1.84-.11,2.74.08.48.1.95.28,1.35.58.47.35,1,.62,1.38,1.07l-.23-.05c-.72-.52-1.56-.9-2.46-.94-1.67-.12-3.36.7-4.3,2.08-.73,1.03-1.02,2.35-.82,3.59.19,1.55,1.27,2.92,2.67,3.58.88.42,1.88.5,2.84.38-.1.05-.29.16-.38.21-1.92.48-4.11-.02-5.52-1.45-.74-.79-1.3-1.77-1.47-2.85-.13-1.02-.08-2.09.35-3.04.67-1.62,2.15-2.89,3.87-3.25Z"/>
  <path class="cls-5" d="M33.53,45.87c.94-1.38,2.63-2.21,4.3-2.08.9.03,1.74.42,2.46.94.91.77,1.54,1.87,1.68,3.05.44,2.46-1.27,5.17-3.76,5.65-.96.12-1.96.05-2.84-.38-1.4-.66-2.48-2.03-2.67-3.58-.19-1.24.09-2.57.82-3.59Z"/>
  <path class="cls-31" d="M77.86,44.61c.45-.15.94-.03,1.4.07,1.29.33,2.43,1.25,2.96,2.47.12.34.28.82-.06,1.08-.26.26-.65.22-.98.19-1.5-.23-2.77-1.31-3.46-2.62-.2-.37-.34-.98.14-1.19Z"/>
  <path class="cls-26" d="M38.39,45.27c.88-.17,1.8.64,1.69,1.54-.07.88-1.03,1.59-1.89,1.3-.73-.2-1.2-1.01-1.01-1.74.11-.59.65-1,1.22-1.11Z"/>
  <path class="cls-1" d="M18.17,47.52c.83-.22,1.76-.19,2.48.31,1.5,1.2,2.42,3.03,2.61,4.93-2.75,1.2-5.82,1.14-8.75,1.38-.65-.04-1.55.25-1.95-.42-.16-.5.17-.98.42-1.4,1.04-1.58,2.43-2.9,3.95-4.02.4-.28.79-.59,1.25-.78Z"/>
  <path class="cls-42" d="M88.87,49.07c.38-.19.81.03,1.17.16,1.33.52,2.35,1.7,2.78,3.05.13.4.24.9-.07,1.25-.36.27-.84.19-1.24.05-1.5-.57-2.58-2.01-2.89-3.57-.02-.31-.11-.77.24-.94Z"/>
  <path class="cls-10" d="M98.42,50.95c.3-.13.63.03.9.15,1.3.63,2.18,1.9,2.57,3.27.08.52.2,1.14-.16,1.58-.39.38-.96.08-1.36-.12-1.29-.93-2.12-2.43-2.28-4.01,0-.31-.01-.74.32-.87Z"/>
  <path class="cls-11" d="M14.5,54.14c2.94-.25,6-.18,8.75-1.38-.11,1.96-.97,3.88-2.43,5.2-1.41-.54-2.71-1.33-3.97-2.15-.79-.54-1.64-1.02-2.35-1.67Z"/>
  <path class="cls-28" d="M40.96,53.71c1.46-.34,3.04.06,4.25.93.78.6,1.34,1.59,1.22,2.59-.08.63-.46,1.16-.87,1.62-.7.76-1.72,1.11-2.7,1.33-1.69.36-3.61-.03-4.86-1.27-.59-.56-.88-1.39-.76-2.19.06-.84.69-1.47,1.28-2,.68-.6,1.58-.82,2.44-1.01Z"/>
  <path class="cls-48" d="M106.06,54.17c.19-.41.71-.55,1.08-.3,1.09.64,1.73,1.8,2.22,2.93.06.7.23,1.45-.07,2.12-.28.46-.95.2-1.28-.08-1.36-1.12-2.09-2.92-1.95-4.67Z"/>
  <path class="cls-43" d="M96.81,58.55c.38,0,.74.19,1.04.4,1.05.79,1.75,2,1.98,3.29,0,.48.06.99-.13,1.44-.16.35-.59.28-.9.32-1.61-.93-2.57-2.81-2.46-4.65.02-.31.12-.71.47-.79Z"/>
  <path class="cls-20" d="M104.75,61.91c.29-.1.59.03.84.2,1.42.98,2.22,2.77,2.02,4.49-.04.32-.17.73-.53.81-.48.09-.88-.28-1.21-.57-1.1-1.1-1.68-2.71-1.52-4.27.04-.25.12-.57.39-.65Z"/>
  <path class="cls-17" d="M25.19,67.22c.57.02.74.7.84,1.16.11.91.16,1.89-.26,2.74-.27.57-.59,1.2-1.19,1.48-.43.22-.95-.14-1.07-.57-.47-1.46-.14-3.19.92-4.31.21-.21.44-.44.74-.49Z"/>
  <path class="cls-12" d="M31.07,68.62c.3-.25.7-.05.89.23.37.51.46,1.17.54,1.78.11,1.12-.13,2.37-.95,3.19-.41.39-1.1.15-1.3-.34-.76-1.56-.55-3.7.82-4.86Z"/>
  <path class="cls-41" d="M37.58,69.14c.45-.23.84.23,1.05.57.63,1.08.75,2.43.39,3.62-.18.51-.44,1.14-1.04,1.24-.45.02-.75-.38-.95-.74-.52-1.03-.64-2.25-.3-3.35.16-.51.37-1.07.85-1.35Z"/>
  <path class="cls-15" d="M102.24,70.13c.55-.01.95.48,1.29.86.83.92,1.16,2.19,1.19,3.41-.05.48-.11,1.1-.59,1.35-.48.12-.9-.2-1.21-.53-1.05-1.19-1.55-2.87-1.23-4.44.05-.29.24-.6.55-.64Z"/>
  <path class="cls-7" d="M22.12,74.98c.36-.2.75.12.88.45.67,1.53.46,3.5-.74,4.71-.33.37-.99.39-1.27-.05-.51-.8-.42-1.8-.34-2.7.19-.92.62-1.92,1.47-2.41Z"/>
  <path class="cls-30" d="M28.14,75.99c.34-.04.63.24.8.51.56.94.6,2.09.45,3.14-.16.65-.44,1.33-.96,1.78-.4.34-.98.09-1.18-.34-.62-1.15-.67-2.59-.17-3.79.23-.5.5-1.11,1.06-1.3Z"/>
  <path class="cls-32" d="M34.54,76.81c.31-.2.7,0,.9.27,1,1.26,1.1,3.1.41,4.53-.18.41-.63.82-1.11.63-.53-.22-.75-.81-.94-1.31-.31-.94-.31-1.98-.02-2.92.16-.44.35-.93.76-1.2Z"/>
  <path class="cls-40" d="M14.98,82.19c.43-.51.94-1,1.58-1.22.55-.16,1.19-.14,1.65.25.93.76,1.33,1.94,1.88,2.97,1.21,2.4,2.85,4.55,4.56,6.62.82.91,1.51,1.95,2.43,2.78.4.51.76,1.05,1.22,1.51,1.08,1.06,1.98,2.29,2.95,3.46,1.23,1.64,2.47,3.43,2.63,5.53.11,1.07-.36,2.22-1.3,2.8-.55.35-1.23.37-1.86.43.63,1.42,1.36,2.96,1,4.56-.2,1.19-1.13,2.23-2.33,2.44-1.74.32-3.45-.51-4.77-1.58.03.65.07,1.3-.03,1.94-.15.94-.7,1.88-1.65,2.18-.88-.21-1.72-.6-2.42-1.17-3.49-2.67-5.86-6.55-7.31-10.64-.96-2.97-1.58-6.06-1.7-9.18-.14-3.06.13-6.17,1.07-9.1.53-1.64,1.3-3.23,2.4-4.57Z"/>
  <path class="cls-21" d="M24.91,83.21c.33-.13.66.09.82.38.76,1.2.89,2.79.29,4.09-.15.33-.33.67-.64.88-.37.26-.9.05-1.11-.31-.62-1.06-.72-2.38-.33-3.53.2-.56.44-1.17.97-1.5Z"/>
  <path class="cls-30" d="M31.34,83.92c.36-.11.66.17.85.43.79,1.05.89,2.46.59,3.7-.14.44-.32.92-.71,1.19-.42.29-.95,0-1.17-.4-.73-1.21-.89-2.81-.26-4.1.18-.31.35-.68.7-.83Z"/>
  <path class="cls-3" d="M16.29,91.47c.39-.32.79.11,1.03.39.73.96,1.13,2.22.91,3.43-.1.6-.18,1.34-.76,1.69-.34.2-.73-.03-.96-.3-.97-1.08-1.25-2.68-.86-4.06.12-.42.27-.88.64-1.16Z"/>
  <path class="cls-16" d="M22.26,94.35c.35-.27.79.02,1.07.26,1.04.94,1.73,2.33,1.6,3.75-.06.46-.1,1.03-.54,1.3-.38.18-.79-.06-1.07-.3-1-.86-1.53-2.2-1.47-3.51.03-.51.03-1.11.42-1.5Z"/>
  <path class="cls-16" d="M17.82,100.08c.2-.18.49-.11.68.04,1.51,1.05,2.09,3.13,1.54,4.86-.1.36-.49.66-.87.54-.62-.24-1.02-.8-1.36-1.34-.57-.88-.65-2-.49-3.02.09-.39.18-.82.5-1.08Z"/>
  <path class="cls-45" d="M24.37,103.01c.27-.24.65-.07.91.11,1.43,1,2.19,2.89,1.8,4.6-.07.51-.73.74-1.14.45-1.32-.76-1.98-2.34-1.97-3.82.02-.46.04-1,.39-1.34Z"/>
  <path class="cls-44" d="M101.56,125.46c.6-.26,1.26.04,1.82.29,1.05.57,2.08,1.41,2.4,2.61.1.35.12.84-.26,1.04-.54.23-1.15.02-1.64-.24-1.04-.6-1.89-1.55-2.34-2.66-.12-.33-.28-.77.02-1.04Z"/>
  <path class="cls-38" d="M96.81,128.91c.58-.13,1.16.13,1.69.34,1.24.55,2.3,1.62,2.62,2.97.09.33-.04.75-.39.88-.48.15-1.01.04-1.45-.17-1.29-.64-2.24-1.84-2.7-3.18-.1-.29-.12-.73.24-.84Z"/>
  <path class="cls-14" d="M108.68,131.01c.59-.32,1.26.07,1.8.32,1.04.48,1.84,1.45,2.08,2.57.13.47-.39.87-.83.76-1.41-.18-2.41-1.38-2.94-2.62-.11-.32-.36-.71-.12-1.03Z"/>
  <path class="cls-8" d="M103.91,133.52c.83-.07,1.62.38,2.3.82.78.58,1.54,1.35,1.73,2.34.1.37-.1.82-.48.92-.59.11-1.16-.15-1.63-.47-1-.7-1.8-1.7-2.15-2.88-.09-.26-.07-.62.24-.72Z"/>
  <path class="cls-23" d="M92.91,133.65c.25-.17.55-.02.81.06,1.24.44,2.33,1.37,2.85,2.58.16.39.29.92-.04,1.25-.34.28-.82.14-1.2.01-1.24-.57-2.12-1.74-2.57-3.01-.08-.29-.2-.74.14-.9Z"/>
  <path class="cls-25" d="M124.61,136.15c-.83-1.04-1.99-1.75-3-2.59-1.05-.8-2.08-1.62-3.14-2.42-.01,1.28-.14,2.61-.78,3.74-.46.82-1.14,1.61-2.08,1.85-.77.21-1.56.02-2.32-.12.23,1.2.08,2.52-.64,3.54-.4.58-1.08.93-1.78.95-.65.04-1.29-.16-1.9-.35.09,1,.1,2.07-.4,2.98-.39.71-1.1,1.29-1.92,1.39-.78.09-1.51-.24-2.22-.51-.2.67-.36,1.4-.86,1.93-.89.97-2.33,1.24-3.59,1.03-.64-.08-1.25-.31-1.87-.47-.03,0-.09-.02-.12-.02h-.08c1.08,1.11,2.28,2.11,3.41,3.17.89.78,1.75,1.6,2.72,2.29.73.49,1.65.87,2.54.61.84-.31,1.22-1.25,1.26-2.08.72.66,1.54,1.24,2.41,1.69.86.45,1.91.66,2.84.31,1.02-.38,1.65-1.4,1.83-2.44.17-1.17-.04-2.38-.52-3.46.77.38,1.59.73,2.45.8.54-.22,1.11-.16,1.65,0,.58-.05,1.12-.33,1.58-.67.77-.56,1.17-1.5,1.28-2.42.11-1.47-.51-2.89-1.38-4.04,1.13.21,2.32.27,3.42-.11v-.02c.9-.37,1.7-1.09,1.91-2.07.23-.89-.14-1.8-.7-2.49Z"/>
  <path class="cls-19" d="M98.92,137.01c.4-.3.95-.09,1.38.04,1.41.53,2.79,1.57,3.15,3.11.14.4-.03.91-.45,1.06-.68.19-1.35-.14-1.91-.5-1.01-.63-1.68-1.67-2.13-2.74-.1-.3-.26-.67-.04-.96Z"/>
  <path class="cls-9" d="M77.11,140.86c1.48-.3,2.95-.67,4.39-1.11.03,1.4-.03,2.81.02,4.21,1.45.21,2.87.6,4.24,1.13,1.18.45,2.35.98,3.34,1.77.6.48.99,1.34.64,2.08-.28.79-1.25,1.13-2.01.92-1.38-.36-2.56-1.21-3.92-1.62.64.87,1.44,1.68,1.66,2.77.21.71-.09,1.53-.7,1.94-.46.33-1.06.32-1.59.21-.73-.19-1.18-.84-1.63-1.39-.85-1.03-1.65-2.12-2.72-2.93-.64.43-1.33.78-1.99,1.18-.63.37-1.33.69-2.07.65-.65-.03-1.33-.38-1.56-1.02-.32-.71-.06-1.56.48-2.08,1.02-1,2.24-1.77,3.38-2.63.25-1.35-.02-2.74.05-4.1Z"/>
  <path class="cls-13" d="M52.81,140.36c1.44.39,2.91.64,4.38.9.11,1.21-.11,2.43,0,3.64,1.12.77,2.24,1.56,3.27,2.44.36.31.68.71.79,1.18.23.79-.21,1.71-.99,2-.69.28-1.47.12-2.12-.19-.92-.44-1.8-.96-2.66-1.5-1.12.91-2.02,2.04-2.91,3.15-.43.54-.93,1.12-1.65,1.23-1.07.27-2.26-.66-2.16-1.79.11-1.28.99-2.32,1.84-3.21-1.31.41-2.51,1.12-3.79,1.59-.87.34-2.06-.08-2.3-1.04-.29-.94.4-1.83,1.16-2.3,2.15-1.34,4.62-2.11,7.11-2.52,0-1.2-.01-2.4,0-3.6Z"/>
  <path class="cls-34" d="M116.84,147.97c.54-.22,1.11-.16,1.65,0-.55.08-1.11.09-1.65,0Z"/>
</svg>