<?xml version="1.0" encoding="UTF-8"?>
<svg id="_图层_1" data-name="图层 1" xmlns="http://www.w3.org/2000/svg" viewBox="0 0 127.4 169.57">
  <defs>
    <style>
      .cls-1 {
        fill: #ef9088;
      }

      .cls-2 {
        fill: #413120;
      }

      .cls-3 {
        fill: #666665;
      }

      .cls-4 {
        fill: #454444;
      }

      .cls-5 {
        fill: #424242;
      }

      .cls-6 {
        fill: #aba9aa;
      }

      .cls-7 {
        fill: #686868;
      }

      .cls-8 {
        fill: #8a9d5d;
      }

      .cls-9 {
        fill: #4b4b4c;
      }

      .cls-10 {
        fill: #676867;
      }

      .cls-11 {
        fill: #686867;
      }

      .cls-12 {
        fill: #676766;
      }

      .cls-13 {
        fill: #ee9389;
      }

      .cls-14 {
        fill: #fcfafa;
      }

      .cls-15 {
        fill: #696969;
      }

      .cls-16 {
        fill: #feedd2;
      }

      .cls-17 {
        fill: #ee948a;
      }

      .cls-18 {
        fill: #7e9761;
      }

      .cls-19 {
        fill: #627627;
      }

      .cls-20 {
        fill: #676767;
      }
    </style>
  </defs>
  <path class="cls-6" d="M14.71,15.99c2.44-1.18,5.23-1.51,7.91-1.19,3.23.44,6.21,2.25,8.22,4.79,1.55,1.91,2.56,4.2,3.18,6.57,2.35-1.43,4.96-2.4,7.65-2.94.31-.02.36-.36.48-.58.6-1.32,1.53-2.57,2.87-3.2.75-.37,1.77-.45,2.42.16.57.57.52,1.45.51,2.2.62-.92,1.34-1.84,2.38-2.3.65-.32,1.41-.46,2.11-.25.55.19.95.72,1,1.3.05.57-.22,1.1-.42,1.62.71-.47,1.54-.82,2.41-.73.5.04.98.41,1.1.91.11.41-.04.82-.14,1.22,3.04.72,5.93,2.01,8.51,3.76.93-3.59,2.8-7.03,5.72-9.38,1.48-1.17,3.17-2.1,4.99-2.61,2.7-.77,5.65-.8,8.31.13.97.39,2.08.89,2.44,1.96.26.8-.12,1.62-.68,2.19,2.04.16,4.02,1.03,5.55,2.38,1.29,1.14,2.28,2.68,2.52,4.4.12.92.05,1.94-.55,2.69-.32.42-.84.58-1.33.71,1.33,1.55,2,3.63,1.89,5.67-.08.95-.33,1.98-1.07,2.64-.5.43-1.2.42-1.81.31.39,1.63.35,3.4-.35,4.94-.39.83-.98,1.61-1.81,2.02-.73.34-1.56.11-2.2-.31-.33,1.96-1.71,3.62-3.41,4.6-2.15,1.17-4.73,1.4-7.1.88-.25,4.34-1.58,8.66-4.04,12.27,3.33-2.97,6.71-5.9,10.05-8.86,3.1-2.75,6.25-5.44,9.26-8.29,1.58-1.53,3.09-3.15,4.89-4.43,1.7-1.23,3.68-2.13,5.78-2.37,2.2-.24,4.53.2,6.38,1.46,1.61,1.07,2.81,2.69,3.48,4.49.76,2.11.91,4.44.43,6.64-.64,3.04-2.2,5.79-4.07,8.24-1.86,2.41-3.94,4.64-6.09,6.8-1.9,1.95-3.88,3.83-5.85,5.72-5.8,5.54-11.68,11-17.42,16.59-.22.18-.43.53-.17.77,3.01,3.23,6.11,6.38,9.13,9.6,3.04,3.17,6.06,6.35,9.09,9.53,3.48,3.74,7.04,7.38,10.46,11.17,2.21.09,4.4.91,6.04,2.4,1.28,1.16,2.23,2.67,2.73,4.32.8,2.55.61,5.33-.23,7.85-1.84,5.32-6.26,9.66-11.58,11.47-2.48.85-5.2,1.09-7.77.49-1.91-.41-3.66-1.37-5.17-2.59-1.87-1.55-3.38-3.47-4.88-5.36-2.86-3.59-5.68-7.21-8.51-10.83-2.81-3.53-5.56-7.09-8.36-10.63-1.84-2.33-3.7-4.65-5.54-6.98-.3-.37-.57-.78-.93-1.1-.24-.23-.66-.13-.83.14-.18.26-.14.59-.15.89.02,4.3-.07,8.59-.07,12.89-.02,2.9,0,5.8-.06,8.7-.09,2.65-.2,5.34-.98,7.89-.63,2.12-1.84,4.1-3.56,5.5-1.51,1.29-3.37,2.1-5.28,2.59-2.5.6-5.08.7-7.63.67-3.07-.02-6.15.11-9.19-.31-2.4-.31-4.76-1.15-6.73-2.57-2.03-1.48-3.46-3.67-4.21-6.05-1.05-3.26-1.05-6.72-1.09-10.11-.08-2.31-.04-4.61-.05-6.92.02-2.63-.03-5.25.05-7.88.02-6.6.04-13.21.07-19.81.1-8.63.08-17.26.15-25.88,0-2.28-.08-4.58-.46-6.84-.27-1.62-.77-3.19-1.16-4.79-.52-2.16-.83-4.38-.81-6.61-2.1.33-4.4.25-6.25-.9-1.27-.76-2.22-1.99-2.67-3.39-.39.41-.84.83-1.42.92-1,.22-1.97-.41-2.52-1.19-1.06-1.53-1.34-3.52-.96-5.32-.65.2-1.41.36-2-.06-.86-.62-1.16-1.73-1.25-2.74-.14-2.19.65-4.39,2.01-6.1-.56-.07-1.15-.23-1.51-.69-.51-.65-.48-1.54-.36-2.31.47-2.29,1.81-4.34,3.52-5.9,1.47-1.34,3.29-2.29,5.24-2.71-.37-.41-.67-.93-.56-1.5.18-1.22,1.27-2,2.29-2.53Z"/>
  <path class="cls-8" d="M120.46,24.21c1.71-.14,3.45-.07,5.09.48-.14,1.62-.66,3.18-1.24,4.7-1.26,2.9-2.99,5.64-5.32,7.8-2.37,2.25-5.31,4.04-8.56,4.59-.38-.46-.79-.9-1.26-1.26,1.97-2.72,4.23-5.25,6.76-7.47.35-.33.82-.58.98-1.06.11-.52-.62-.88-.99-.51-2.49,2.03-4.74,4.37-6.69,6.93-.36.46-.7.93-1.08,1.38-.33-.17-.65-.34-.97-.51.32-3.85,2-7.54,4.56-10.42,2.21-2.55,5.36-4.29,8.72-4.66Z"/>
  <path class="cls-16" d="M15.68,26.86c.94-1.46,2.62-2.32,4.31-2.56,1.99-.35,4.05.29,5.7,1.4,1.55,1.04,2.8,2.48,3.72,4.1-2.87,2.87-4.99,6.44-6.4,10.23-.52,1.45-.97,2.93-1.24,4.44-2.12,0-4.29-.72-5.83-2.21-.75-.76-1.32-1.78-1.3-2.87,0-.78.35-1.51.83-2.11-.63-.04-1.31-.09-1.82-.5-.73-.54-.96-1.54-.82-2.41.3-1.99,1.92-3.67,3.86-4.16-.46-.3-.95-.62-1.2-1.13-.36-.71-.24-1.58.19-2.23Z"/>
  <path class="cls-16" d="M73.37,25.46c1.34-.82,2.92-1.27,4.5-1.23,1.8.09,3.64.84,4.78,2.28.5.64.82,1.51.52,2.31-.23.66-.8,1.11-1.41,1.41,1.56.4,2.96,1.5,3.58,3.01.38.96.49,2.13-.1,3.03-.5.76-1.45,1-2.31.99.53.71.86,1.6.74,2.5-.16,1.3-1.06,2.37-2.08,3.12-1.7,1.24-3.85,1.72-5.93,1.68-.38-1.82-.82-3.64-1.53-5.37-1.23-3.16-3.04-6.11-5.34-8.61,1.05-2.06,2.59-3.92,4.58-5.12Z"/>
  <path class="cls-18" d="M106.64,25.57c.32-.52.69-1.09,1.3-1.29.2.18.44.34.54.6.62,1.41.66,2.98.61,4.49-.22,3.32-1.47,6.47-3.05,9.37-.1,0-.2,0-.3,0-.46-.87-.67-1.85-.85-2.81-.68-3.51-.09-7.28,1.73-10.36Z"/>
  <path class="cls-19" d="M115.91,31.49c.37-.37,1.1,0,.99.51-.15.48-.63.74-.98,1.06-2.53,2.22-4.79,4.74-6.76,7.47-.33-.26-.67-.5-1.02-.73.38-.45.72-.92,1.08-1.38,1.95-2.56,4.19-4.9,6.69-6.93Z"/>
  <path class="cls-4" d="M33.65,39.71c.37-.07.76-.1,1.13-.03.4.09.7.61.44.97-.16.28-.51.31-.8.33-.78.05-1.54.41-2.03,1.01-.2.21-.38.51-.7.53-.39.05-.74-.37-.63-.75.1-.38.36-.69.63-.97.53-.54,1.21-.95,1.97-1.1Z"/>
  <path class="cls-5" d="M62.52,39.71c1.06-.19,2.19.23,2.95.99.33.33.7.71.75,1.21.04.44-.47.81-.86.58-.43-.32-.7-.83-1.17-1.09-.52-.32-1.13-.37-1.71-.45-.32-.05-.55-.4-.48-.72.06-.26.28-.45.53-.53Z"/>
  <path class="cls-9" d="M44.8,43.09c.9-1.27,2.34-2.35,3.96-2.22,1.38,0,2.55.91,3.35,1.97,1.18,1.58,1.84,3.47,2.27,5.38.38,2.04.53,4.27-.41,6.19-.86,1.77-2.83,2.79-4.75,2.83-.42,0-.83-.03-1.25-.03-.07.16-.13.32-.2.47.02-.1.05-.31.06-.42-.92-.15-1.86-.32-2.67-.79-.73-.44-1.44-.98-1.86-1.74-.95-1.59-.99-3.53-.78-5.32.32-2.23,1-4.45,2.28-6.33Z"/>
  <path class="cls-11" d="M100.69,41.82c.47-.23,1.09-.11,1.41.32.4.52.33,1.27,0,1.81-.28.47-.66.95-1.22,1.08-.51.13-1.11-.13-1.29-.64-.39-.98.19-2.12,1.09-2.58Z"/>
  <path class="cls-12" d="M104.39,41.82c.62-.3,1.43.01,1.64.68.29.88-.24,1.77-.84,2.38-.44.45-1.19.71-1.75.33-.61-.39-.64-1.25-.37-1.86.27-.62.68-1.25,1.32-1.53Z"/>
  <path class="cls-3" d="M107.25,44.09c.63-.26,1.51-.02,1.72.68.36,1.12-.56,2.19-1.55,2.57-.58.25-1.36.05-1.64-.54-.17-.46-.09-1,.14-1.43.3-.55.72-1.08,1.33-1.29Z"/>
  <path class="cls-2" d="M34.7,46.1c.95-.14,1.94.24,2.64.88,1.45,1.39,1.5,3.98.04,5.38-1.13,1.16-3.18,1.27-4.39.17-1.52-1.31-1.62-3.85-.31-5.34.5-.61,1.25-.97,2.02-1.09Z"/>
  <path class="cls-2" d="M61.45,46.16c.93-.19,1.93.07,2.65.69,1.65,1.37,1.69,4.2.11,5.64-1.16,1.09-3.17,1.11-4.33,0-1.29-1.17-1.52-3.25-.62-4.73.46-.81,1.27-1.42,2.19-1.6Z"/>
  <path class="cls-7" d="M101.05,46.24c2.07-.4,4.3,1.13,4.72,3.18.13.54.14,1.11,0,1.64-.16.59-.61,1.1-1.21,1.28-.67.19-1.39.1-2.04-.13-1.12-.4-2.11-1.13-2.88-2.03-.43-.52-.77-1.16-.75-1.85,0-.73.43-1.43,1.08-1.75.34-.17.71-.27,1.09-.35Z"/>
  <path class="cls-20" d="M108.58,47.57c.43-.1.95-.06,1.25.29.28.31.26.77.2,1.16-.17.74-.81,1.35-1.55,1.52-.4.08-.88.06-1.18-.25-.41-.39-.33-1.04-.15-1.52.22-.62.8-1.05,1.42-1.2Z"/>
  <path class="cls-17" d="M30.18,53.53c1.14-.14,2.38.04,3.32.74.7.5,1.25,1.29,1.25,2.18.05.75-.36,1.45-.89,1.94-.84.84-2.08,1.18-3.25,1.11-1.15-.04-2.34-.49-3.07-1.41-.56-.71-.71-1.72-.33-2.55.52-1.16,1.74-1.88,2.97-2.02Z"/>
  <path class="cls-13" d="M65.75,53.55c.95-.12,1.95-.04,2.81.4.76.39,1.47,1.02,1.69,1.88.15.65.11,1.37-.25,1.95-.54.89-1.52,1.45-2.52,1.66-1.34.24-2.83.03-3.9-.86-.81-.66-1.24-1.82-.87-2.82.46-1.25,1.73-2.06,3.03-2.2Z"/>
  <path class="cls-5" d="M47.97,57.22c.42,0,.83.02,1.25.03.06.35.1.74.36,1.01.57.67,1.67.75,2.35.2.31-.23.43-.61.67-.9.27-.29.81-.23.98.14.19.31.11.7-.12.96-.36.42-.45.97-.71,1.44-.71,1.37-2.08,2.43-3.64,2.58-1.82.25-3.68-.76-4.6-2.33-.27-.41-.41-.88-.61-1.32-.2-.35-.58-.68-.43-1.13.07-.48.76-.73,1.07-.32.26.4.48.88.95,1.09.86.46,2.04-.02,2.29-.97.07-.16.13-.32.2-.47Z"/>
  <path class="cls-1" d="M46.1,60.52c1.37-1.2,3.58-1.17,4.96,0-.68.73-1.68,1.12-2.68,1.04-.87-.01-1.67-.44-2.28-1.04Z"/>
  <path class="cls-16" d="M42.95,70.03c4.09-.72,8.46.97,11.12,4.13,1.26,1.5,2.2,3.26,2.75,5.13.79,2.69.94,5.53.75,8.32-.17,2.91-.51,5.8-.75,8.71-.47,5.44-.24,10.9-.23,16.35.05,4.48.08,9.03-1,13.41-.52,2.14-1.37,4.23-2.75,5.97-.91,1.1-2.02,2.05-3.31,2.66-1.93.97-4.16,1.15-6.28.87-2.2-.31-4.27-1.42-5.79-3.04-2.02-2.14-3.11-4.96-3.82-7.77-1.05-4.59-1.21-9.32-1.2-14.01.03-2.42,0-4.85.08-7.27,0-2.67.02-5.34.04-8.01.05-4.89-.12-9.83.95-14.63.54-2.44,1.38-4.87,2.9-6.88,1.57-2.08,3.97-3.5,6.53-3.93Z"/>
  <path class="cls-20" d="M105.95,123.59c.56-.22,1.24-.05,1.61.43.29.36.39.84.37,1.3.01,1.03-.45,2.04-1.21,2.72-.59.53-1.66.63-2.18-.04-.6-.76-.47-1.82-.18-2.68.28-.74.81-1.47,1.59-1.73Z"/>
  <path class="cls-7" d="M101.07,124.92c.49-.13,1.06-.02,1.4.37.45.53.58,1.26.47,1.93-.12.8-.47,1.6-1.13,2.09-.44.34-1.09.37-1.58.13-.66-.4-.82-1.27-.78-1.98.07-1.03.59-2.18,1.63-2.54Z"/>
  <path class="cls-7" d="M110.72,125.71c.47-.09,1.02-.01,1.37.34.43.42.5,1.08.4,1.65-.13.92-.72,1.72-1.46,2.25-.48.32-1.09.49-1.65.35-.61-.15-.97-.8-.98-1.4.03-1.39.9-2.87,2.32-3.19Z"/>
  <path class="cls-15" d="M104.41,129.92c1.04-.18,2.14.07,3.01.68.82.53,1.32,1.44,1.56,2.37.39,1.96-.42,3.96-1.63,5.49-.61.78-1.32,1.49-2.16,2.02-1.04.71-2.31,1.19-3.58,1.02-1.12-.17-2.2-.9-2.62-1.98-.37-.95-.42-2-.28-3,.29-1.7,1.07-3.31,2.22-4.59.91-1,2.11-1.8,3.48-2Z"/>
  <path class="cls-10" d="M112.52,130.41c.46-.1,1-.03,1.34.32.34.33.42.83.39,1.28-.03.85-.55,1.61-1.18,2.13-.58.47-1.47.65-2.12.22-.56-.45-.63-1.28-.45-1.93.29-.93,1.04-1.79,2.01-2.02Z"/>
  <path class="cls-14" d="M62.64,47.59c.55-.21,1.23.09,1.39.67.27.81-.76,1.66-1.49,1.19-.71-.38-.65-1.56.1-1.86Z"/>
  <path class="cls-14" d="M35.71,47.59c.55-.21,1.23.09,1.39.67.27.81-.76,1.66-1.49,1.19-.71-.38-.65-1.56.1-1.86Z"/>
</svg>