<?xml version="1.0" encoding="UTF-8"?>
<svg id="_图层_1" data-name="图层 1" xmlns="http://www.w3.org/2000/svg" viewBox="0 0 165.68 169.56">
  <defs>
    <style>
      .cls-1 {
        fill: #faadab;
      }

      .cls-2 {
        fill: #723d16;
      }

      .cls-3 {
        fill: #955827;
      }

      .cls-4 {
        fill: #d2924e;
      }

      .cls-5 {
        fill: #cf904c;
      }

      .cls-6 {
        fill: #9e602e;
      }

      .cls-7 {
        fill: #fde0ba;
      }

      .cls-8 {
        fill: #9d5f2e;
      }

      .cls-9 {
        fill: #d0914d;
      }

      .cls-10 {
        fill: #d2914d;
      }

      .cls-11 {
        fill: #fde0bb;
      }

      .cls-12 {
        fill: #fddfb8;
      }

      .cls-13 {
        fill: #fddfb9;
      }

      .cls-14 {
        fill: #d0904b;
      }

      .cls-15 {
        fill: #d1904c;
      }

      .cls-16 {
        fill: #d08f4b;
      }

      .cls-17 {
        fill: #e4aa68;
      }

      .cls-18 {
        fill: #fcfafa;
      }

      .cls-19 {
        fill: #fddfba;
      }

      .cls-20 {
        fill: #efd9c6;
      }

      .cls-21 {
        fill: #4c2405;
      }

      .cls-22 {
        fill: #cf8f4b;
      }

      .cls-23 {
        fill: #d08f4a;
      }
    </style>
  </defs>
  <path class="cls-17" d="M53.76,6c1.19-1.16,2.45-2.4,4.09-2.9.53-.19,1.17-.02,1.47.48.66,1.02.95,2.23,1.23,3.4.32,1.72.51,3.47.35,5.22-.25,3.97-1.54,7.96-4.11,11.04,2.63,1.54,4.6,4,6.02,6.66,1.54,2.82,2.46,5.92,3.34,8.99,1.68,5.55,3.26,11.14,4.99,16.68,1.89,6.25,3.86,12.46,5.8,18.69,1.71,5.6,3.34,11.23,5.01,16.84.64,2.22,1.31,4.43,1.94,6.66-2.14-1.21-4.76-1.74-7.16-1.09-1.24.33-2.43.93-3.32,1.86-.63.68-1.18,1.56-1.09,2.52.03.66.44,1.28,1.03,1.56.8.42,1.72.45,2.6.46-1.89.83-3.63,2.13-4.73,3.9-.78,1.22-1.33,2.68-1.08,4.14.13.82.59,1.68,1.42,1.97.9.37,1.87.04,2.74-.26-1.19,1.54-2.13,3.33-2.35,5.29-.11,1.23.03,2.56.79,3.59.43.6,1.18.98,1.93.84,1.03-.11,1.73-.95,2.42-1.63-.63,1.73-.88,3.64-.5,5.46.31,1.2.82,2.45,1.86,3.21.58.45,1.46.56,2.09.14.43-.29.73-.71,1.06-1.1-.15,2.08.33,4.29,1.7,5.9.5.6,1.29,1.09,2.09.88.58-.14.85-.72,1.11-1.2.39,1.69,1.18,3.38,2.59,4.45.73.56,1.8.8,2.64.33.88-.46,1.43-1.35,1.87-2.22.39-.77.61-1.61.79-2.46.34.5.74,1.09,1.4,1.13.74.06,1.3-.54,1.68-1.1,1.14-1.64,1.4-3.71,1.35-5.66.39.52.86,1.12,1.57,1.14,1.12.12,1.97-.8,2.46-1.69,1.28-2.28,1.19-5.1.42-7.53.52.54,1.01,1.14,1.68,1.49.76.41,1.79.25,2.34-.43,1.03-1.19,1.16-2.89.95-4.39-.2-1.48-.89-2.82-1.64-4.09.6.22,1.25.54,1.9.35.97-.22,1.53-1.19,1.73-2.1.3-1.75-.34-3.51-1.27-4.97-.74-1.1-1.7-2.03-2.75-2.84.76.12,1.63.3,2.3-.2.89-.61.89-1.87.54-2.78-1.04-2.72-4.06-4.48-6.94-4.18-.61.09-1.18.3-1.77.47,2.93-8.5,5.77-17.02,8.55-25.56,3.39-10.28,6.78-20.55,10.2-30.81,1.27-3.85,2.53-7.71,3.87-11.55.18.72.12,1.51.52,2.16.61,1.11,1.82,1.81,3.06,1.91.88.12,1.75-.14,2.56-.45.03.93.35,1.88,1.04,2.54.83.75,2.02,1.13,3.13.92.65-.09,1.23-.4,1.79-.7.08.87.34,1.78,1.04,2.36,1.28,1.24,3.43,1.13,4.78.05.04.76.19,1.56.74,2.12.89.96,2.35,1.27,3.57.84,1.16-.42,2.17-1.2,2.93-2.18-5.44,12.91-11.16,25.71-16.51,38.67-1.22,2.98-2.43,5.98-3.64,8.96-.15.56-.47,1.07-.54,1.64-.6.77-.84,1.74-1.22,2.63-1.43,3.58-2.87,7.17-4.29,10.76-1.03,2.7-2.18,5.35-3.24,8.04-2.14,5.3-4.32,10.58-6.5,15.86-1.92,4.8-3.95,9.55-5.79,14.38-1.19,3.18-2.33,6.42-2.76,9.81-2.24,1.34-4.83,2.09-7.44,2.07-1.19.02-2.37-.15-3.54-.26-.56-2.4-1.13-4.8-1.73-7.19-.4.96-.56,2-.84,3-.35,1.38-.71,2.76-1.08,4.14h-.08c-2.66.52-5.46.43-8.03-.45-.95-.3-1.83-.76-2.73-1.19-.31-2.82-1.04-5.57-2.02-8.23-1.12-3.06-2.36-6.08-3.61-9.09-2.78-6.77-5.63-13.52-8.44-20.28-4.35-10.55-8.74-21.09-13.37-31.53-2.38-5.43-4.81-10.83-7.35-16.18-.64-1.48-1.4-2.9-2.04-4.38,4.23-.6,8.46-1.88,11.92-4.46,1.92-1.45,3.58-3.29,4.6-5.49,1.26-2.59,1.81-5.53,1.53-8.4-.26-2.8-1.19-5.59-3.03-7.76-1.21-1.41-2.84-2.49-4.66-2.91-2.61-.63-5.4-.13-7.76,1.09-.44.19-.5.72-.76,1.07-.55.74-1.45,1.13-2.33,1.31-.53.1-.83.57-1.17.93-2.11,2.42-3.45,5.41-4.32,8.48-2.81-1.14-6-1.28-8.91-.44-1.36.45-2.64,1.13-3.75,2.04.81-1.56,1.73-3.12,2.07-4.87.37-1.94.45-3.95,1.17-5.82.29-.87.72-1.68,1.18-2.48-.7-.38-1.39-1-1.39-1.86-.04-1.06.74-1.89,1.52-2.49-.5-.4-.95-.92-.96-1.59.07-.47.13-.95.34-1.38.22-.37.57-.63.91-.88.82-.48,1.77-.65,2.71-.62-.07-.44-.18-.9-.04-1.34.15-.44.44-.81.75-1.15.99-.53,2.18-.72,3.29-.48.21.04.43.09.64.14-.42-.61-.56-1.46-.15-2.11.44-.8,1.37-1.17,2.24-1.27,1.33-.15,2.66.36,3.71,1.15.08-.45.17-.94.5-1.28.68-.79,1.83-.88,2.8-.72,1.88.43,3.46,1.76,4.44,3.4.12-.99.06-2,.27-2.98.61-3.94,2.34-7.74,5.06-10.66Z"/>
  <path class="cls-10" d="M24.03,7.08c.75-.17,1.44.24,2.04.63,2.23,1.46,4.04,3.5,5.45,5.75,1.3,2.1,2.24,4.43,2.72,6.86-1.11-.24-2.29-.05-3.29.48-.71-2.53-1.83-4.98-3.55-6.99-.4-.44-.86-.93-1.48-1.02-.5-.05-.81.43-.94.84-.53,1.58-.35,3.3.05,4.89.46,1.95,1.41,3.74,2.51,5.39-.34.25-.69.51-.91.88-.21.43-.27.91-.34,1.38-1.03-1.2-1.8-2.6-2.46-4.03-1.46-3.27-2.17-6.92-1.73-10.49.14-1.12.42-2.23.83-3.28.23-.51.52-1.11,1.1-1.28Z"/>
  <path class="cls-7" d="M56.09,8.78c.38-.12.85,0,1.04.38.35.68.33,1.47.36,2.21-.03,2.32-.67,4.59-1.59,6.71-.73,1.6-1.59,3.18-2.88,4.4-.35.37-1.09.54-1.39.01-.48-1.17-.42-2.47-.41-3.71.13-2.88,1-5.77,2.7-8.12.6-.74,1.27-1.51,2.17-1.87Z"/>
  <path class="cls-11" d="M24.99,13.62c.13-.41.44-.89.94-.84.62.09,1.08.58,1.48,1.02,1.72,2,2.85,4.46,3.55,6.99-.31.34-.59.71-.75,1.15-.14.44-.03.9.04,1.34-.94-.03-1.89.14-2.71.62-1.1-1.66-2.05-3.44-2.51-5.39-.4-1.59-.58-3.31-.05-4.89Z"/>
  <path class="cls-13" d="M125,25.47c1.69-1.85,4.27-2.63,6.73-2.54,1.75.08,3.48.35,5.17.78,2.37.56,4.68,1.38,6.83,2.52,1.82.92,3.6,2.05,4.86,3.69.93,1.19,1.42,2.76,1.17,4.27-.19,1.59-.91,3.03-1.64,4.43-.75.97-1.77,1.76-2.93,2.18-1.22.42-2.68.12-3.57-.84-.56-.56-.71-1.37-.74-2.12-1.35,1.08-3.5,1.19-4.78-.05-.7-.58-.96-1.49-1.04-2.36-.57.31-1.15.62-1.79.7-1.11.21-2.3-.17-3.13-.92-.69-.65-1.01-1.61-1.04-2.54-.81.31-1.68.57-2.56.45-1.24-.1-2.46-.8-3.06-1.91-.4-.65-.34-1.44-.52-2.16v-.06c.5-1.25,1.05-2.53,2.03-3.5Z"/>
  <path class="cls-5" d="M29.66,26.28c.23-.88,1.01-1.57,1.88-1.8.27-.1.49.1.7.23-.72.36-1.63.84-1.7,1.75-.06.59.55.83.93,1.14-.46.53-1.3.76-1.42,1.53-.03.65.62.95,1.06,1.28-.47.48-.99.97-1.12,1.66-.17.59.16,1.27.72,1.51.53.24,1.16.26,1.71.07.41-.14.68-.59,1.15-.58-.02.67-.2,1.43.24,2.01.48.64,1.4.6,2.09.4.79-.22,1.31-.9,1.8-1.51.49.31.1.85-.15,1.2-.49.56-1.16.94-1.84,1.2-1.34.4-2.81-.63-2.98-2-.59.18-1.22.31-1.82.14-.94-.26-1.82-1.12-1.73-2.16-.02-.63.31-1.2.65-1.71-.31-.45-.71-.93-.66-1.52-.04-.64.51-1.06.94-1.43-.25-.42-.61-.88-.47-1.41Z"/>
  <path class="cls-7" d="M43.94,31.87c2.36-1.23,5.16-1.72,7.76-1.09,1.82.42,3.45,1.49,4.66,2.91,1.83,2.17,2.77,4.96,3.03,7.76.28,2.87-.27,5.8-1.53,8.4-1.02,2.19-2.68,4.03-4.6,5.49-3.46,2.57-7.7,3.86-11.92,4.46-3.63.33-7.36.41-10.92-.52-1.52-.41-3.03-.97-4.35-1.85-2.65-1.56-4.37-4.52-4.56-7.57-.04-1.59.43-3.19,1.19-4.57,1.11-.91,2.39-1.59,3.75-2.04,2.91-.84,6.1-.71,8.91.44.87-3.07,2.21-6.06,4.32-8.48.34-.36.64-.84,1.17-.93.88-.18,1.77-.57,2.33-1.31.26-.35.32-.88.76-1.07Z"/>
  <path class="cls-21" d="M49.87,36.96c.03-.36.64-.32.67.02.06.6-.29,1.14-.68,1.56.14.11.28.23.42.34.47-.24.9-.57,1.15-1.06.13-.37.72-.26.74.12-.09.71-.62,1.25-1.17,1.64.09.12.17.24.26.35.35-.1.76-.15.99-.45.17-.13.29-.44.55-.4.28-.02.49.34.33.57-.3.58-.85,1-1.45,1.21.36.99.41,2.09.07,3.08-.52,1.59-2,2.85-3.68,2.99-1.93.24-3.9-.98-4.58-2.79-.42-1.09-.4-2.34.08-3.41.72-1.85,2.82-3.07,4.78-2.68.22.01.45.15.67.06.39-.3.69-.71.86-1.17Z"/>
  <path class="cls-18" d="M48.53,39.86c.65-.24,1.44.11,1.63.79.32.95-.9,1.94-1.75,1.39-.83-.45-.76-1.83.12-2.18Z"/>
  <path class="cls-3" d="M24.29,47.77c1.18-.66,2.54-.93,3.88-.96.57,0,1.26.08,1.59.6.32.49.11,1.12-.21,1.55-.55.74-1.29,1.31-2.07,1.79-.21.05-.43.09-.64.12-1.05-.16-2.14-.5-2.9-1.27-.55-.54-.29-1.5.36-1.84Z"/>
  <path class="cls-20" d="M25.39,48.02c.49-.37,1.11-.42,1.7-.47-.24.62-1.23,1.09-1.7.47Z"/>
  <path class="cls-1" d="M49.64,47.95c.68-.08,1.39-.1,2.06.04.75.18,1.46.77,1.55,1.58.12.72-.34,1.37-.87,1.8-1.18.92-2.78,1.27-4.23.9-.51-.12-.96-.44-1.26-.86-.48-.73-.16-1.72.43-2.29.63-.6,1.47-.99,2.32-1.16Z"/>
  <path class="cls-2" d="M26.83,50.88c.22-.03.43-.07.64-.12.3.86.52,1.77.98,2.57.66.98,2.09,1.3,3.12.75.83-.43,1.34-1.31,1.43-2.23.2-.07.48-.18.58.08.08,1.24-.76,2.48-1.92,2.92-1.11.46-2.43.19-3.33-.59-.29.34-.58.73-1.01.89-.7.3-1.53.04-2.09-.43-.3-.19-.09-.71.26-.64.41.2.8.54,1.29.46.5-.03.8-.49.99-.9-.44-.87-.77-1.81-.95-2.77Z"/>
  <path class="cls-14" d="M119.34,55.35c.01-.29.36-.5.59-.28.23.43.16.96.43,1.38.47.71,1.43.94,2.22.75.76-.24,1.34-.91,1.56-1.66.08-.38.49-.24.73-.12.01.65.02,1.4.51,1.9.64.84,2.01.84,2.74.12.21-.15.37-.45.66-.43.3.02.31.38.19.59-.28.51-.82.8-1.34,1.03-.82.38-1.8.16-2.51-.36-.41-.3-.63-.78-.9-1.19-.69.64-1.57,1.23-2.56,1.07-1.37-.08-2.47-1.43-2.33-2.78Z"/>
  <path class="cls-22" d="M67.81,63.86c.18-.31.58-.03.57.25-.05,1.26-1.16,2.37-2.41,2.48-.72.07-1.49.03-2.11-.38-.68-.42-1.07-1.18-1.26-1.94.18-.1.36-.21.54-.31.41.6.73,1.36,1.46,1.63.8.39,1.77.15,2.44-.4.41-.34.52-.89.77-1.34Z"/>
  <path class="cls-23" d="M122.23,70.41c.17.04.41,0,.53.16.12.68.12,1.48.68,1.97.55.38,1.29.53,1.94.33.56-.16.94-.65,1.43-.94.16.2.38.46.17.71-.82,1.17-2.65,1.65-3.85.78-.61-.49-1.1-1.22-1.06-2.03,0-.33.09-.66.17-.98Z"/>
  <path class="cls-16" d="M65.49,71.2c.08-.41.73-.34.77.06.3,1.23-.12,2.69-1.22,3.39-1.06.73-2.47.61-3.59.1-.19,1.27-1.09,2.37-2.27,2.85-.73.3-1.57.22-2.3-.06-.61-.27-1.09-.79-1.47-1.32-.25-.25.02-.72.35-.65.17.11.31.27.45.42.9,1.09,2.9,1.23,3.76.02.47-.58.79-1.34.58-2.09-.02-.33-.32-.85.13-1.01.3-.13.44.22.6.4.39.59,1.09.9,1.76,1.04,1.04.04,2.15-.6,2.45-1.63.17-.49.02-1.01.02-1.51Z"/>
  <path class="cls-9" d="M111.75,80.48c-.09-.39.48-.72.71-.33.14.42.15.91.44,1.27.36.44.91.78,1.5.74.96,0,1.69-.85,1.92-1.72.05-.39.7-.33.67.06.05.76.25,1.61.93,2.06.65.34,1.48.35,2.12-.04.49-.25.7-.8,1.09-1.16.3-.09.5.27.41.53-.49,1.54-2.49,2.3-3.88,1.48-.56-.28-.95-.78-1.22-1.32-.64.56-1.44,1.1-2.34.95-1.26-.11-2.24-1.29-2.34-2.51Z"/>
  <path class="cls-15" d="M63.22,81.64c.09-.26.37-.28.6-.31.32.74.47,1.59.14,2.36-.37,1.16-1.65,1.92-2.85,1.76-.61-.12-1.25-.36-1.63-.87-.19-.24,0-.63.31-.6.43.16.79.5,1.25.54.54.07,1.18.06,1.6-.35.44-.45.79-1.08.69-1.73-.03-.27-.1-.53-.11-.8Z"/>
  <path class="cls-15" d="M67.11,81.37c.16-.15.42-.08.48.13.17.52.19,1.12.55,1.56.48.58,1.32.78,2.02.53.49-.1.79-.53,1.17-.81.27-.06.58.3.41.55-.59,1.07-2,1.4-3.12,1.06-1.23-.32-1.92-1.78-1.6-2.96l.09-.05Z"/>
  <path class="cls-4" d="M130.17,85.91c.71-.28,1.54-.46,2.25-.11.64.28.99,1.01.97,1.68.05,1.22-.61,2.34-1.38,3.23.6-.03,1.25.09,1.68.54.72.74.66,1.96.13,2.8-.52.98-1.49,1.61-2.52,1.94.41.41.75.97.62,1.57-.22,1.23-1.31,2.05-2.37,2.56-2.36,1.13-5.05,1.21-7.63,1.13,1.42-3.59,2.86-7.17,4.29-10.76.38-.89.62-1.85,1.22-2.63.75-.84,1.7-1.51,2.73-1.97Z"/>
  <path class="cls-12" d="M76.71,96.69c2.41-.65,5.02-.12,7.16,1.09l.04.02c1.77,6.02,3.79,11.96,5.71,17.93.28.84.53,1.69.86,2.5.19.43.45.92.93,1.07.44.07.74-.33.94-.66.61-1.05.93-2.23,1.37-3.35,1.21-3.36,2.46-6.71,3.65-10.08.99-2.74,2-5.47,2.91-8.24h.05c.58-.19,1.16-.4,1.77-.49,2.88-.3,5.89,1.46,6.94,4.18.35.92.34,2.17-.54,2.78-.67.5-1.54.32-2.3.2,1.04.81,2.01,1.74,2.75,2.84.93,1.46,1.58,3.22,1.27,4.97-.19.91-.76,1.88-1.73,2.1-.66.19-1.3-.13-1.9-.35.75,1.27,1.44,2.61,1.64,4.09.22,1.5.08,3.19-.95,4.39-.55.68-1.58.83-2.34.43-.68-.35-1.17-.95-1.68-1.49.78,2.43.86,5.25-.42,7.53-.49.89-1.35,1.81-2.46,1.69-.71-.02-1.18-.62-1.57-1.14.05,1.95-.21,4.02-1.35,5.66-.39.56-.94,1.16-1.68,1.1-.67-.03-1.07-.63-1.4-1.13-.18.84-.4,1.69-.79,2.46-.43.87-.98,1.75-1.87,2.22-.84.46-1.91.23-2.64-.33-1.41-1.07-2.2-2.76-2.59-4.45-.26.48-.53,1.06-1.11,1.2-.8.21-1.59-.29-2.09-.88-1.38-1.61-1.86-3.83-1.7-5.9-.32.39-.63.81-1.06,1.1-.63.42-1.51.31-2.09-.14-1.04-.76-1.55-2.01-1.86-3.21-.38-1.82-.13-3.73.5-5.46-.69.68-1.39,1.52-2.42,1.63-.75.14-1.5-.24-1.93-.84-.75-1.02-.89-2.36-.79-3.59.22-1.95,1.16-3.75,2.35-5.29-.87.31-1.84.63-2.74.26-.82-.29-1.29-1.14-1.42-1.97-.25-1.46.3-2.93,1.08-4.14,1.1-1.78,2.84-3.07,4.73-3.9-.88,0-1.8-.04-2.6-.46-.6-.28-1.01-.91-1.03-1.56-.09-.97.45-1.85,1.09-2.52.89-.93,2.09-1.53,3.32-1.86Z"/>
  <path class="cls-19" d="M96.19,151.42c2.61.03,5.2-.73,7.44-2.07-.27,2.01-.36,4.05-.09,6.07-2.8,1.71-6.26,2.06-9.43,1.42-.23-.97-.61-1.89-.79-2.88-.17-.95-.48-1.86-.67-2.8,1.18.12,2.36.29,3.54.26Z"/>
  <path class="cls-7" d="M78.16,149.47c.89.43,1.78.89,2.73,1.19,2.57.88,5.37.97,8.03.47-.1.97-.46,1.89-.7,2.83-.25.98-.56,1.94-.84,2.91-3.18.61-6.61.23-9.43-1.42.32-1.98.39-3.98.21-5.97Z"/>
  <path class="cls-8" d="M77.94,155.44c2.82,1.66,6.26,2.03,9.43,1.42-.44,1.37-.85,2.84-1.85,3.92-1.4,1.48-3.73,1.7-5.56.98-1.37-.53-2.35-1.88-2.44-3.34-.06-1.01.18-2,.42-2.98Z"/>
  <path class="cls-6" d="M94.11,156.83c3.17.64,6.64.29,9.43-1.42.21,1.15.51,2.34.25,3.51-.26,1.2-1.11,2.25-2.21,2.78-1.47.63-3.21.61-4.64-.11-.88-.44-1.49-1.27-1.92-2.12-.4-.84-.72-1.72-.92-2.64Z"/>
</svg>