<?xml version="1.0" encoding="UTF-8"?>
<svg id="_图层_1" data-name="图层 1" xmlns="http://www.w3.org/2000/svg" viewBox="0 0 149.38 179.55">
  <defs>
    <style>
      .cls-1 {
        fill: #e4a76c;
      }

      .cls-2 {
        fill: #ca8a5b;
      }

      .cls-3 {
        fill: #b97d53;
      }

      .cls-4 {
        fill: #9e653f;
      }

      .cls-5 {
        fill: #e9b074;
      }

      .cls-6 {
        fill: #f9d9ab;
      }

      .cls-7 {
        fill: #efb686;
      }

      .cls-8 {
        fill: #b9794e;
      }

      .cls-9 {
        fill: #fce7c5;
      }

      .cls-10 {
        fill: #c38454;
      }

      .cls-11 {
        fill: #ca8a59;
      }

      .cls-12 {
        fill: #f8d19b;
      }

      .cls-13 {
        fill: #b7794e;
      }

      .cls-14 {
        fill: #b6794e;
      }

      .cls-15 {
        fill: #e7a96e;
      }

      .cls-16 {
        fill: #be7f51;
      }

      .cls-17 {
        fill: #fce8c5;
      }

      .cls-18 {
        fill: #fb8676;
      }

      .cls-19 {
        fill: #fb8473;
      }

      .cls-20 {
        fill: #e7ac71;
      }

      .cls-21 {
        fill: #d49561;
      }

      .cls-22 {
        fill: #be7f53;
      }

      .cls-23 {
        fill: #c48659;
      }

      .cls-24 {
        fill: #c48658;
      }

      .cls-25 {
        fill: #a96f4a;
      }

      .cls-26 {
        fill: #d59763;
      }

      .cls-27 {
        fill: #492b18;
      }

      .cls-28 {
        fill: #c7895a;
      }

      .cls-29 {
        fill: #da9b65;
      }

      .cls-30 {
        fill: #f9f9f9;
      }

      .cls-31 {
        fill: #c78857;
      }

      .cls-32 {
        fill: #cd905f;
      }

      .cls-33 {
        fill: #b3764d;
      }

      .cls-34 {
        fill: #b5784f;
      }

      .cls-35 {
        fill: #fce8c7;
      }

      .cls-36 {
        fill: #9f6540;
      }

      .cls-37 {
        fill: #c38558;
      }

      .cls-38 {
        fill: #d39664;
      }

      .cls-39 {
        fill: #ba7d53;
      }

      .cls-40 {
        fill: #b8794e;
      }

      .cls-41 {
        fill: #c88959;
      }

      .cls-42 {
        fill: #cf8e5c;
      }

      .cls-43 {
        fill: #472a17;
      }

      .cls-44 {
        fill: #c18356;
      }

      .cls-45 {
        fill: #e8ab6f;
      }

      .cls-46 {
        fill: #c58759;
      }

      .cls-47 {
        fill: #fbfafb;
      }

      .cls-48 {
        fill: #e7ab6f;
      }

      .cls-49 {
        fill: #dd9b63;
      }

      .cls-50 {
        fill: #edb979;
      }

      .cls-51 {
        fill: #6f3f27;
      }

      .cls-52 {
        fill: #e1a368;
      }

      .cls-53 {
        fill: #fefdfc;
      }

      .cls-54 {
        fill: #e5a96e;
      }

      .cls-55 {
        fill: #e8af73;
      }

      .cls-56 {
        fill: #ac714b;
      }

      .cls-57 {
        fill: #e4aa71;
      }

      .cls-58 {
        fill: #d08e5c;
      }

      .cls-59 {
        fill: #cb8f61;
      }

      .cls-60 {
        fill: #fbe7c5;
      }

      .cls-61 {
        fill: #efbb7b;
      }

      .cls-62 {
        fill: #b77a51;
      }

      .cls-63 {
        fill: #bb7d51;
      }

      .cls-64 {
        fill: #db9a64;
      }

      .cls-65 {
        fill: #c78759;
      }

      .cls-66 {
        fill: #b4774f;
      }

      .cls-67 {
        fill: #fb8577;
      }

      .cls-68 {
        fill: #ecb878;
      }

      .cls-69 {
        fill: #e3a56c;
      }
    </style>
  </defs>
  <path class="cls-44" d="M44.15,8.39c-.08-.7.78-.84,1.3-.69,2.03.49,3.77,1.75,5.26,3.18-.1-.36-.33-.74-.2-1.12.33-.39.92-.15,1.33,0,2.11,1.11,3.54,3.1,4.81,5.06,0-.39-.06-.81.12-1.18.28-.24.7-.11.96.09.91.71,1.52,1.73,2.04,2.74.61,1.15.99,2.4,1.38,3.65.09-.32.09-.71.36-.94.56-.18.86.45,1.07.85.57,1.26.92,2.63,1.09,4.01.05-.39-.04-.87.3-1.14.43-.15.6.38.69.69.35,1.64.29,3.33.32,4.99.2-.32.34-.75.72-.92.33-.11.6.19.7.47.33.82.41,1.72.43,2.6-.1.3-.21.59-.32.89-.09-.24.02-.65-.33-.68-.53.14-.29.78-.35,1.19-.17-.04-.34-.08-.51-.11.08.67-.24,1.26-.54,1.83-.08.04-.25.11-.33.15-.07.21-.15.43-.22.64-.05-.15-.11-.3-.16-.44-.06.26-.12.51-.18.77-.55,0-.65-.53-.77-.95-.33.17-.68.32-1.04.42.11-.33.24-.64.41-.94-.07-.12-.13-.24-.2-.36.22-.31.43-.64.62-.97-.16-.02-.32-.04-.48-.06-.15.33-.46.37-.78.31-.05.06-.14.19-.19.25-.22.01-.45.03-.67.05.02.23.04.45.06.68-.77.13-.95.93-1.35,1.47-.18-.24-.29-.62-.65-.63-1.2-3.34-2.73-6.63-4.97-9.41-2.55-3.25-6.16-5.71-10.22-6.62-3.59-.89-7.41-.63-10.89.59l-.11-.08c-.27-.25-.55-.47-.8-.74-.32-.36-.42-.88-.75-1.23-.25-.17-.55-.23-.83-.32-.23.43-.46.89-.91,1.13-.02-.28-.03-.55-.06-.83.75-1.28,2.21-1.91,3.58-2.31,1.27-.43,2.58-.72,3.92-.76.28.04.44-.25.4-.5-.29-.38-.69-.65-1.05-.96.83-.34,1.72-.5,2.62-.5,1.12-.05,2.21.24,3.33.3-.5-.79-1.36-1.24-2.15-1.69-.74-.42-1.52-.8-2.35-1.02-.37-.19-.82-.36-1-.77-.02-.34.32-.5.59-.61,1.03-.36,2.15-.3,3.22-.24,1.52.26,3,.77,4.37,1.48-.2-.26-.41-.51-.62-.76Z"/>
  <path class="cls-14" d="M37.6,9.28c.83.22,1.61.6,2.35,1.02.79.45,1.65.9,2.15,1.69-1.11-.06-2.21-.35-3.33-.3-.9,0-1.79.16-2.62.5.36.31.76.58,1.05.96.05.25-.12.54-.4.5-1.34.04-2.66.33-3.92.76-1.37.4-2.83,1.03-3.58,2.31-.32.34-.67.66-1.06.92-.39.26-.89.27-1.27.54-.67.51-1.17,1.21-1.56,1.95.1.13.2.27.31.4-.39.15-1.03.33-1.16-.24-.09-.67.2-1.33.46-1.93,1.07-2.32,3.11-4.14,5.46-5.11-.45-.09-1.01.04-1.35-.32-.22-.56.32-1.04.7-1.37,2.14-1.77,5.02-2.57,7.77-2.29Z"/>
  <path class="cls-65" d="M30.27,16.42c.28.09.59.15.83.32.33.36.43.87.75,1.23.25.27.53.49.8.74.06.09.16.26.22.35-.22.26-.42.55-.72.73-1.41.82-2.76,1.8-3.77,3.1-.25.29-.37.66-.45,1.04l-.05.22c1.02-.12,2.02-.39,3.04-.49.43.08.89.13,1.27.35.1.31.11.64.15.97.46-.22.54-.72.64-1.17.45.15,1.04.19,1.23.71-.45.27-.84.64-1.05,1.13.38.2.75.4,1.12.6-.15.09-.29.17-.44.26.06.06.19.19.25.25-1.56.14-3.12.42-4.58,1.01-.4.17-.82.44-.95.89-.19.64-.32,1.31-.59,1.92-.2.42-.29.87-.29,1.34.89-.26,1.76-.62,2.69-.68,1.03-.09,2.11.04,3.03.53.26.29.58.8.25,1.16-2.07-.03-4.08.77-5.75,1.95-.38.27-.81.49-1.25.66-.82-.34-.83-1.33-.8-2.08.04-2.06,1.11-4.02,2.72-5.28-.82.16-1.59.46-2.38.72-.81.26-1.49.79-2.31,1.04-.46.09-.83-.36-.85-.79-.23-2.79.69-5.65,2.49-7.8.37-.43.81-.79,1.19-1.22-.35.1-.69.23-1.01.4-.1-.13-.2-.27-.31-.4.39-.74.89-1.44,1.56-1.95.38-.27.88-.29,1.27-.54.39-.26.74-.58,1.06-.92.02.28.04.55.06.83.45-.24.68-.7.91-1.13Z"/>
  <path class="cls-35" d="M32.76,18.79c3.48-1.21,7.3-1.48,10.89-.59,4.05.91,7.67,3.37,10.22,6.62,2.24,2.78,3.77,6.06,4.97,9.41.95,2.69,1.71,5.43,2.51,8.16,1.55,5.56,3.41,11.03,5.63,16.35-.8.45-1.61.91-2.24,1.59-.04,0-.11-.02-.15-.03-2.31-5.46-4.38-11.03-6.04-16.72-.86-2.73-1.61-5.5-2.64-8.17-1.27-3.47-2.96-6.86-5.51-9.58-1.81-1.96-4.03-3.52-6.45-4.65-1.81-.81-3.68-1.52-5.64-1.83-1.34-.19-2.68-.45-4.03-.46-.51,0-1.02.02-1.52-.1Z"/>
  <path class="cls-69" d="M34.28,18.9c1.36,0,2.69.27,4.03.46,1.97.31,3.84,1.02,5.64,1.83,2.41,1.13,4.63,2.69,6.45,4.65,2.55,2.72,4.24,6.1,5.51,9.58,1.03,2.67,1.77,5.44,2.64,8.17,1.67,5.69,3.73,11.27,6.04,16.72-.35.77-.84,1.48-1.05,2.3-.5,1.66-.32,3.46.2,5.1.5,1.21,1.34,2.23,2.11,3.28l-.29.46c-.84-1.11-1.7-2.22-2.44-3.4-1.34-1.67-2.39-3.54-3.76-5.19-.51-.64-.88-1.37-1.4-2-.64-.77-1.09-1.67-1.74-2.43-.63-.73-1.07-1.6-1.67-2.34-.49-.64-1.03-1.25-1.46-1.94-.54-.88-1.23-1.66-1.85-2.49-1.09-1.4-2.16-2.8-3.27-4.19-.27-.34-.49-.71-.65-1.1.05-.23.19-.33.41-.3.46.05.8.4,1.15.67-1.06-1.23-1.79-2.71-2.92-3.88-.04.11-.12.31-.16.42.11-.63.37-1.44-.2-1.93-.34-.14-.71-.19-1.06-.27.4-.05.8,0,1.19.1-.97-1.3-2.17-2.41-3.39-3.47-.7-.62-1.55-1.03-2.27-1.61-.08-.29.28-.25.45-.3.36-.08.71.03,1.05.14-.49-.48-1.12-.79-1.71-1.13.04-.02.13-.05.17-.06.13-.36.21-.82.64-.94.96-.51,1.96.09,2.92.27-.37-.42-.81-.78-1.29-1.08-1.99-1.28-4.16-2.25-6.39-3.05-1.01-.39-2.1-.28-3.16-.36.17-.91,1.09-1.26,1.81-1.66.92-.48,1.99-.4,2.95-.72.75-.25,1.53-.26,2.31-.33.98.03,1.94.23,2.92.3-2.3-1.83-5.18-2.79-8.03-3.39-.36-.11-.73-.21-1.1-.3.08-.06.16-.12.24-.18-.25-.14-.52-.25-.74-.44-.2-.26-.33-.58-.48-.87.14-.1.28-.2.42-.3l-.13-.2c.16-.17.33-.34.5-.5.68-.17,1.35-.34,2.02-.54-.87-.43-1.71-.9-2.54-1.4-.06-.09-.16-.26-.22-.35l.11.08c.5.12,1.01.09,1.52.1Z"/>
  <path class="cls-58" d="M32.87,19.07c.83.5,1.67.97,2.54,1.4-.67.19-1.34.37-2.02.54-.93.15-1.71.69-2.53,1.12-.52.28-.97.67-1.43,1.04-.43.39-1.06.4-1.5.78.07-.38.19-.74.45-1.04,1.01-1.3,2.36-2.28,3.77-3.1.3-.18.5-.47.72-.73Z"/>
  <path class="cls-49" d="M30.87,22.12c.82-.43,1.6-.97,2.53-1.12-.17.16-.33.33-.5.5l.13.2c-.14.1-.28.2-.42.3.15.29.28.61.48.87.22.19.49.3.74.44-.08.06-.16.12-.24.18.37.08.73.19,1.1.3-1.25-.04-2.51-.36-3.76-.12-1.02.11-2.02.37-3.04.49l.05-.22c.44-.37,1.07-.39,1.5-.78.46-.37.9-.76,1.43-1.04Z"/>
  <path class="cls-42" d="M30.93,23.67c1.26-.24,2.51.09,3.76.12,2.85.6,5.72,1.56,8.03,3.39-.98-.06-1.94-.27-2.92-.3-1.1-.19-2.21-.37-3.32-.26-.79.07-1.59.09-2.38.15-.06-.06-.19-.19-.25-.25.15-.09.29-.17.44-.26-.37-.2-.75-.4-1.12-.6.21-.49.6-.86,1.05-1.13-.18-.52-.78-.56-1.23-.71-.09.45-.18.95-.64,1.17-.04-.32-.04-.66-.15-.97-.39-.22-.84-.27-1.27-.35Z"/>
  <path class="cls-64" d="M36.47,26.62c1.11-.11,2.23.07,3.32.26-.77.07-1.56.08-2.31.33-.97.32-2.04.24-2.95.72-.72.4-1.64.75-1.81,1.66,1.06.08,2.15-.03,3.16.36,2.22.8,4.4,1.76,6.39,3.05.48.3.92.66,1.29,1.08-.96-.18-1.96-.78-2.92-.27-.43.12-.51.58-.64.94-.04.02-.13.05-.17.06-1.76-.67-3.63-1.34-5.55-1.08-.31-.01-.87.16-.91-.29.12-.22.34-.36.53-.52-.06,0-.19,0-.25,0,.32-.36.01-.87-.25-1.16-.92-.49-2-.62-3.03-.53-.93.06-1.8.42-2.69.68,0-.46.09-.92.29-1.34.27-.62.4-1.28.59-1.92.13-.45.55-.71.95-.89,1.46-.59,3.02-.87,4.58-1.01.79-.06,1.59-.08,2.38-.15Z"/>
  <path class="cls-22" d="M66.82,30.73c.15,1.51-.06,3.02,0,4.53.17-.25.26-.61.55-.75.42-.13.65.34.72.67.26,1.29.09,2.61.08,3.91-.02,1.06-.29,2.1-.2,3.16.22-.35.43-.72.7-1.04.38.38.36.95.42,1.44.06,1.54.34,3.07.3,4.62-.03.57-.03,1.14-.03,1.71.21-.15.38-.49.68-.33.28.77.35,1.6.53,2.4.54,2.42,1.16,4.83,1.86,7.21.23.72.5,1.44.63,2.19-.68-.37-1.2-.98-1.9-1.32-1.27-.7-2.79-.68-4.18-.4-2.22-5.32-4.08-10.79-5.63-16.35-.8-2.73-1.56-5.48-2.51-8.16.36,0,.47.39.65.63.4-.55.58-1.34,1.35-1.47-.02-.23-.04-.45-.06-.68.22-.02.45-.03.67-.05.05-.06.14-.19.19-.25.32.06.63.01.78-.31.16.02.32.04.48.06-.19.33-.4.66-.62.97.06.12.13.24.2.36-.16.3-.3.62-.41.94.36-.1.7-.25,1.04-.42.12.42.22.95.77.95.06-.26.12-.51.18-.77.05.15.11.3.16.44.07-.21.15-.43.22-.64.08-.04.25-.11.33-.15.3-.57.62-1.17.54-1.83.17.04.34.07.51.11.06-.4-.18-1.05.35-1.19.34.03.24.44.33.68.11-.3.23-.59.32-.89Z"/>
  <path class="cls-31" d="M135.36,46.33c.62-.46,1.62-.17,1.91.55.31.75.22,1.59.09,2.37-.07,0-.21.01-.28.02-.23-.53-.49-1.23-1.16-1.29-.8-.07-1.41.55-1.88,1.11,0-.21.02-.42.03-.62.22-.8.58-1.65,1.29-2.14Z"/>
  <path class="cls-10" d="M139.25,48.36c.49-.38,1.09-.69,1.73-.64.73.13,1.29.87,1.19,1.62-.03.68-.41,1.26-.8,1.78-.23-.6-.33-1.29-.8-1.76-.38-.41-.85-.7-1.32-.99Z"/>
  <path class="cls-5" d="M134.04,49.09c.47-.57,1.08-1.18,1.88-1.11.67.06.93.76,1.16,1.29.07,0,.21-.01.28-.02-.15.5-.3,1.01-.37,1.53.27-.24.45-.58.73-.81.71-.25,1.54-.62,2.25-.18.67.43.67,1.31.76,2.01v.03c-.32.28-.63.58-.9.91.47-.17.94-.37,1.43-.52.4.51.94.96,1.1,1.62.19.59-.08,1.19-.27,1.75-.4.29-.94.35-1.32.68.7.11,1.4.16,2.09.35-.37-.06-.74-.09-1.11-.13.19.51.33,1.03.33,1.58-.44.57-.9,1.14-1.43,1.63-.17,0-.35.01-.51.01-5.59,6.11-11.66,11.73-17.65,17.43-7.16,6.73-14.37,13.43-21.61,20.08-.42-.54-.7-1.17-.88-1.83.33-.03.66-.06,1-.08-.12-.49-.31-.96-.53-1.4.22-.23.43-.47.65-.7.41-.4.74-.86,1.03-1.35.43-.69.8-1.42,1.15-2.17.53-1.69.67-3.46,1.02-5.19.11-1.99.15-4.02-.44-5.95-.17-.65-.48-1.26-.52-1.94.19-.59.81-.78,1.35-.93.21-.35.21-.77.29-1.16,1.34-1.27,2.82-2.42,4.19-3.68,7.05-6.18,14.15-12.32,21.29-18.39-.14-.42-.26-.85-.37-1.28.07.03.21.08.28.1.22-.48.32-1.21.95-1.31.67-.17,1.18.36,1.69.71.08-.02.23-.05.3-.06.07-.02.21-.05.28-.07.15-.69.28-1.39.47-2.08-.02.21-.03.42-.03.62Z"/>
  <path class="cls-21" d="M137.72,49.98c.42-.61.96-1.13,1.53-1.61.46.29.94.58,1.32.99.47.47.57,1.16.8,1.76-.21.23-.42.46-.62.69-.1-.7-.09-1.58-.76-2.01-.71-.44-1.55-.07-2.25.18Z"/>
  <path class="cls-24" d="M130.08,49.24c.24-.72,1.09-1.25,1.83-.92.86.43,1.25,1.4,1.42,2.3-.07.02-.23.05-.3.06-.51-.35-1.02-.88-1.69-.71-.63.11-.73.83-.95,1.31-.07-.02-.21-.08-.28-.1-.13-.63-.31-1.32-.02-1.94Z"/>
  <path class="cls-59" d="M40.65,38.67c.58-.44,1.46-.1,1.76.53.21.45.33.94.38,1.43-.02.09-.07.27-.09.35-.37-.3-.7-.71-1.17-.84-.58-.12-1.08.25-1.57.51.08-.68.04-1.55.69-1.98Z"/>
  <path class="cls-28" d="M141.27,52.22c.7-.18,1.44-.53,2.17-.24.74.39.97,1.38.57,2.1-.43.71-1.16,1.19-1.92,1.51.19-.56.46-1.16.27-1.75-.16-.66-.69-1.11-1.1-1.62Z"/>
  <path class="cls-11" d="M36.07,39.64c.33-.65,1.24-.81,1.82-.4.48.34.83.82,1.13,1.31-.49.25-1.14-.12-1.57.31-.34.39-.57.87-.83,1.32-.47-.73-.99-1.67-.55-2.53Z"/>
  <path class="cls-55" d="M39.96,40.64c.48-.26.99-.63,1.57-.51.48.12.8.53,1.17.84.02-.09.07-.27.09-.35.09.67.02,1.35.13,2.02.15-.22.31-.45.46-.68.93.24,1.66.85,2.32,1.51-.13.27-.29.53-.44.79.64.76,1.31,1.5,1.99,2.22l.05-.12c.17.39.39.76.65,1.1,1.1,1.39,2.18,2.79,3.27,4.19.62.83,1.31,1.61,1.85,2.49.43.69.96,1.3,1.46,1.94.61.74,1.04,1.61,1.67,2.34.65.76,1.11,1.66,1.74,2.43.52.63.9,1.36,1.4,2,1.36,1.65,2.42,3.53,3.76,5.19.75,1.18,1.6,2.29,2.44,3.4-.44.64-.9,1.28-1.32,1.93-1.22,1.7-1.73,3.77-2.24,5.77-.51,1.64-.4,3.4-.17,5.08.11.78.25,1.55.41,2.31.04-.01.11-.03.15-.05-.13.83.3,1.61.91,2.13l-.23-.1c.44,1.17,1.32,2.11,2.13,3.04-.6.2-1.19.42-1.82.55.09.13.18.26.27.39-.1.36-.18.72-.27,1.09-7.41-11.34-14.8-22.69-21.94-34.2-2.1-3.32-4.25-6.62-6.11-10.08-.11-.18-.37-.15-.54-.23-.27-.51-.6-.99-.73-1.56-.03-.48.23-.91.4-1.34-.12-.02-.36-.06-.47-.08.5-.1,1.01-.02,1.52.03-.29-.36-.66-.63-1.03-.9v-.03c.1-.53.15-1.08.35-1.59.23-.52.8-.72,1.26-.99.38.27.75.55,1.14.8-.18-.43-.48-.83-.62-1.26.26-.45.49-.93.83-1.32.43-.43,1.08-.06,1.57-.31.35.5.6,1.06.98,1.54-.03-.48-.06-.96-.04-1.44Z"/>
  <path class="cls-37" d="M134.77,52.2c.28.22.58.44.78.74.29.82.29,1.76-.07,2.56-.18,0-.35-.03-.52-.05-.07-.99-.3-1.95-.68-2.86.16-.13.33-.26.49-.39Z"/>
  <path class="cls-46" d="M43.38,41.97c.33-.36.71-.65,1.14-.89.36.08.72.13,1.06.27.57.5.31,1.3.2,1.93l-.08.2c-.66-.66-1.4-1.28-2.32-1.51Z"/>
  <path class="cls-26" d="M135.55,52.95c.92.23,1.51,1.05,2.07,1.77.56.69.9,1.58.82,2.48.02.24-.26.33-.4.46-.75-.81-1.24-1.89-2.2-2.49-.18.43-.33,1.14-.95,1,.02-.24.04-.48.07-.71.17.02.34.04.52.05.36-.8.36-1.74.07-2.56Z"/>
  <path class="cls-53" d="M45.95,42.86c1.13,1.17,1.86,2.65,2.92,3.88-.35-.27-.69-.61-1.15-.67-.22-.03-.36.07-.41.3l-.05.12c-.68-.72-1.35-1.47-1.99-2.22.15-.26.3-.52.44-.79l.08-.2c.04-.11.12-.31.16-.42Z"/>
  <path class="cls-2" d="M34.37,41.88c.66-.05,1.19.44,1.73.75-.46.26-1.03.47-1.26.99-.21.5-.25,1.05-.35,1.59-.58-.53-1.18-1.17-1.27-1.98-.07-.67.48-1.33,1.16-1.34Z"/>
  <path class="cls-32" d="M40.66,44.41c.34-.48,1.03-.73,1.48-.23-.27.32-.56.61-.8.95-.35.47-.4,1.1-.76,1.57-.06-.03-.2-.08-.26-.11l-.05-.2c-.15-.69.1-1.37.4-1.99Z"/>
  <path class="cls-23" d="M141.75,56.49c.37.04.74.07,1.11.13.48.26.96.69.95,1.28.03.83-.73,1.37-1.4,1.69-.17-.49-.29-1-.33-1.52,0-.55-.14-1.07-.33-1.58Z"/>
  <path class="cls-29" d="M37.43,47.7c-.09-1.75,1.61-3.1,3.23-3.29-.3.61-.55,1.3-.4,1.99-.13-.03-.26-.06-.4-.08-.8.46-1.49,1.2-2.43,1.39Z"/>
  <path class="cls-38" d="M140.65,59.71c.54-.49.99-1.06,1.43-1.63.05.52.17,1.03.33,1.52-.58.12-1.17.2-1.76.12Z"/>
  <path class="cls-41" d="M32.5,47.38c-.12-.8.73-1.46,1.49-1.27.12.02.35.06.47.08-.17.43-.43.86-.4,1.34.13.56.47,1.05.73,1.56-.98-.08-2.15-.61-2.29-1.7Z"/>
  <path class="cls-61" d="M66.98,58.75c1.39-.28,2.9-.3,4.18.4.7.34,1.22.95,1.9,1.32l.05.03c.16.57.61.98.9,1.48.68,1.15,1.12,2.42,1.34,3.73,1.3-.15,2.59-.45,3.91-.48-.19,1.55.01,3.12.21,4.66.12.75.21,1.54.64,2.19.14.21.41.44.68.28.5-.23.67-.81.79-1.3.45-1.92.67-3.88.79-5.84.42.02.84.03,1.26.04-.33,2.57-.48,5.18-.21,7.76.06.47.23,1.11.8,1.15.54.04.84-.51,1.02-.94.94-2.42,1.41-4.98,1.77-7.54.66.19,1.35.23,2.02.42-.25-.04-.5-.07-.74-.09-.36,2.08-.81,4.17-.7,6.29.05.43.17,1.02.68,1.09.61-.17.91-.79,1.18-1.3.79-1.72,1.39-3.53,1.86-5.36,1.23.39,2.38.98,3.59,1.42.82-2.02,2.25-3.85,4.24-4.81,1.12-.59,2.44-.74,3.68-.54,1.61.29,3.02,1.44,3.69,2.93.83,1.64.7,3.61.11,5.3-.74,1.9-2.18,3.47-3.88,4.56.1.22.19.43.29.65.65-.58,1.26-1.2,1.96-1.71-.08.39-.08.81-.29,1.16-.54.15-1.16.33-1.35.93.04.67.35,1.29.52,1.94.58,1.93.55,3.96.44,5.95-.34,1.73-.49,3.5-1.02,5.19-.19-1.02-1.09-1.72-1.92-2.27,1.25-2.74,1.39-6.04-.02-8.74-.63-1.01-1.4-1.99-2.47-2.57-.97-.51-2.02-.96-3.13-.96-1.97,0-3.93.79-5.36,2.14-1.32,1.19-2.25,2.76-2.9,4.4-.45,1.12-.54,2.33-.75,3.5-.54,0-1.08,0-1.62.03-.37-.83-1.32-1.14-2.15-1.27-.84-.09-1.84-.02-2.4.7-.52-.15-1.04-.3-1.57-.45.02-1.5.26-3.03-.1-4.5-.5-2.13-1.37-4.29-3.07-5.73-1.13-.95-2.49-1.69-3.98-1.85-2.01-.17-4.05.68-5.42,2.13-1.29,1.6-2.28,3.54-2.39,5.62-.09.94.07,1.88-.05,2.81-.73.51-1.48.98-2.18,1.54-.23-1.68-.34-3.44.17-5.08.5-2,1.01-4.07,2.24-5.77.42-.65.88-1.29,1.32-1.93l.29-.46c-.76-1.05-1.61-2.07-2.11-3.28-.52-1.63-.7-3.43-.2-5.1.21-.83.7-1.53,1.05-2.3.04,0,.11.02.15.03.63-.68,1.44-1.14,2.24-1.59Z"/>
  <path class="cls-4" d="M66.88,63.09c.67-1.06,2.19-1.41,3.26-.76,1.46.86,2.23,2.54,2.41,4.17-1.41.57-2.82,1.17-4.03,2.11-.21.12-.4.37-.66.36-.72-.71-1.32-1.6-1.5-2.61-.22-1.1-.18-2.34.51-3.28Z"/>
  <path class="cls-36" d="M99.82,66.53c.86-.47,2-.7,2.86-.1.86.53,1.3,1.55,1.28,2.53-.07,1.78-1.21,3.36-2.73,4.23-1.06-1.44-2.49-2.54-3.91-3.61.57-1.19,1.31-2.4,2.5-3.06Z"/>
  <path class="cls-13" d="M83.62,65.25c1.14.08,2.26.25,3.39.43-.36,2.56-.83,5.12-1.77,7.54-.18.43-.48.98-1.02.94-.57-.03-.74-.68-.8-1.15-.27-2.58-.12-5.19.21-7.76Z"/>
  <path class="cls-40" d="M79.26,65.22c1.03-.04,2.07-.1,3.1-.01-.12,1.96-.34,3.93-.79,5.84-.12.49-.29,1.06-.79,1.3-.26.16-.53-.07-.68-.28-.42-.65-.52-1.44-.64-2.19-.2-1.54-.4-3.1-.21-4.66Z"/>
  <path class="cls-8" d="M88.28,66.01c.25.03.49.06.74.09.76.19,1.52.41,2.28.63-.47,1.83-1.07,3.64-1.86,5.36-.27.51-.57,1.14-1.18,1.3-.51-.08-.63-.67-.68-1.09-.11-2.12.35-4.21.7-6.29Z"/>
  <path class="cls-60" d="M66.45,74.26c1.37-1.45,3.42-2.3,5.42-2.13,1.48.16,2.85.9,3.98,1.85,1.71,1.44,2.58,3.61,3.07,5.73.36,1.48.13,3,.1,4.5.52.15,1.04.3,1.57.45-.37,1.2.74,2.17,1.77,2.51-.2.41-.25.87-.25,1.32-.92,1.3-3.16.99-3.73-.49-.2.05-.43.05-.59.21-.16.63.45,1.06.88,1.41.03.76.13,1.54.47,2.23.44.94,1.22,1.77,2.27,1.98,1.26.34,2.59-.28,3.32-1.31.45-.6.75-1.29.96-2.01.51-.27,1.02-.6,1.19-1.18-.18-.11-.36-.23-.56-.31-.48.32-.91.8-1.53.81-.92.1-1.79-.43-2.2-1.24.08-.46.14-.92.19-1.38,1.08-.02,2.39-.75,2.35-1.97.54-.02,1.08-.03,1.62-.03.21-1.18.3-2.38.75-3.5.65-1.64,1.58-3.21,2.9-4.4,1.44-1.35,3.39-2.14,5.36-2.14,1.11,0,2.16.45,3.13.96,1.06.58,1.84,1.56,2.47,2.57,1.41,2.7,1.27,6,.02,8.74.82.54,1.72,1.25,1.92,2.27-.34.74-.71,1.47-1.15,2.17-.1-.74-.32-1.52-.93-2.01-1.26-.98-3.12-1.07-4.49-.25-1.09.6-1.24,2.33-.21,3.07,1.27,1.03,3.11,1.14,4.6.55-.22.23-.44.47-.65.7-2.03,2.01-4.73,3.23-7.49,3.86-.78.23-1.61.25-2.39.46-.51,1.36-.76,2.82-.76,4.27.06,1.76.28,3.52.59,5.25.49,3.15.56,6.45-.48,9.51-.73,1.98-1.84,3.88-3.51,5.22-.81.72-1.76,1.24-2.72,1.73-2.23-1.31-4.79-2.12-7.39-2.02-1.3.06-2.59.29-3.84.64-2.02-1.59-3.48-3.87-4.08-6.37-.5-2.37-.43-4.87.21-7.21.66-2.86,2.12-5.43,3.01-8.21.52-1.64.65-3.39.52-5.1-1.25-.52-2.51-1.07-3.65-1.8-1.16-.76-2.34-1.53-3.27-2.57-.81-.93-1.69-1.87-2.13-3.04l.23.1c.81.42,1.68.84,2.62.77.92-.05,1.95-.3,2.47-1.13.4-.49.41-1.18.11-1.72-.6-1.18-2.03-1.63-3.27-1.7-1.16-.1-2.42.51-2.84,1.64-.04.01-.11.03-.15.05-.17-.76-.3-1.54-.41-2.31.7-.55,1.45-1.03,2.18-1.54.13-.93-.04-1.88.05-2.81.11-2.08,1.1-4.02,2.39-5.62Z"/>
  <path class="cls-43" d="M71.42,77.07c1.26-.14,2.44.69,3.09,1.73.93,1.58.88,3.64,0,5.23-.47.81-1.18,1.51-2.07,1.84-.94.31-2.01.24-2.86-.3-.89-.53-1.37-1.51-1.63-2.47-.36-1.64.01-3.47,1.13-4.75.6-.68,1.41-1.24,2.34-1.28Z"/>
  <path class="cls-43" d="M94.23,80.04c1.43-.28,2.92.55,3.55,1.84,1.02,2.09.56,4.88-1.25,6.39-1.1.92-2.77.93-3.95.15-.71-.52-1.19-1.31-1.42-2.15-.44-1.74-.09-3.72,1.13-5.07.5-.58,1.2-.97,1.93-1.15Z"/>
  <path class="cls-30" d="M70.18,78.7c.73-.25,1.55.41,1.46,1.17.03.88-1.09,1.54-1.83,1.06-.79-.57-.54-1.93.37-2.23Z"/>
  <path class="cls-47" d="M93.29,81.61c.52-.26,1.2.05,1.41.58.34.84-.35,2-1.32,1.8-1.13-.23-1.18-2.03-.09-2.38Z"/>
  <path class="cls-27" d="M80.59,84.67c.56-.72,1.56-.79,2.4-.7.83.13,1.78.44,2.15,1.27.04,1.22-1.27,1.95-2.35,1.97-.11,0-.32-.02-.43-.02-1.03-.34-2.14-1.31-1.77-2.51Z"/>
  <path class="cls-6" d="M74.74,84.17c.03-.05.09-.15.11-.2.11.42.38.75.58,1.13-.38.63-.95,1.17-1.5,1.66-.6-.09-1.09-.48-1.51-.89.89-.33,1.6-1.03,2.07-1.84.06.03.18.1.24.14Z"/>
  <path class="cls-12" d="M89.71,86.93c.46-.27.91-.61,1.45-.67.22.85.71,1.63,1.42,2.15-.53.26-1.11.37-1.68.47-.37-.67-.78-1.31-1.19-1.95Z"/>
  <path class="cls-19" d="M96.73,89.6c1.36-.81,3.23-.73,4.49.25.61.49.84,1.27.93,2.01-.29.49-.62.96-1.03,1.35-1.49.59-3.33.48-4.6-.55-1.02-.74-.88-2.46.21-3.07Z"/>
  <path class="cls-18" d="M62.39,86.49c.42-1.13,1.68-1.74,2.84-1.64,1.24.06,2.67.51,3.27,1.7.31.53.29,1.23-.11,1.72-.53.83-1.55,1.08-2.47,1.13-.94.06-1.81-.35-2.62-.77-.62-.52-1.04-1.3-.91-2.13Z"/>
  <path class="cls-7" d="M82.36,87.18c.11,0,.32.02.43.02-.05.46-.11.92-.19,1.38-.12-.02-.36-.07-.49-.09,0-.45.06-.91.25-1.32Z"/>
  <path class="cls-51" d="M77.79,88.21c.16-.15.39-.16.59-.21.57,1.47,2.81,1.79,3.73.49.12.02.36.07.49.09.41.8,1.28,1.34,2.2,1.24.62,0,1.05-.49,1.53-.81.2.07.38.2.56.31-.17.58-.69.91-1.19,1.18-.22.71-.51,1.41-.96,2.01-1.41-1.46-3.91-1.94-5.59-.67-.34-.69-.44-1.47-.47-2.23-.43-.34-1.04-.77-.88-1.41Z"/>
  <path class="cls-67" d="M79.14,91.85c1.68-1.27,4.18-.79,5.59.67-.73,1.03-2.06,1.65-3.32,1.31-1.06-.21-1.83-1.04-2.27-1.98Z"/>
  <path class="cls-50" d="M92.97,97.77c2.76-.62,5.46-1.85,7.49-3.86.22.45.41.92.53,1.4-.33.03-.67.06-1,.08.18.66.46,1.28.88,1.83-.71.71-1.58,1.28-2.16,2.11.01-.08.04-.24.06-.32-1.63.33-3.34,1.13-4.13,2.68-.62,1.25-.64,2.71-.43,4.06-.35.9-.1,1.88-.03,2.81.17,1.78.59,3.53,1.26,5.19,1.5,3.79,3.91,7.12,6.23,10.45,3.4,4.6,7.01,9.04,10.92,13.23,1.5,1.61,3.2,3.03,4.88,4.45,0-.04,0-.13,0-.17v-.3c1.96,3.46,3.84,6.97,5.8,10.43,1.9-.1,3.83-.17,5.69.3.95.24,1.82.77,2.45,1.53-.26.47-.45.98-.81,1.38-.23.17-.54.18-.81.27-.79-.41-1.65-.86-2.56-.86-.55.07-.59.88-.06,1.02,1,.33,2.06.66,2.77,1.49-.51.53-.89,1.21-1.56,1.56-.13-.15-.25-.29-.37-.43-.09.02-.28.06-.37.08-.68-.53-1.44-.99-2.28-1.21-.52-.15-.95.7-.38.94,1.03.5,1.99,1.19,2.57,2.22-.39.13-.75.34-1.08.6-.69.53-1.53.79-2.31,1.13-.45-.92-1.03-1.83-1.9-2.4-.41-.25-1.02.17-.84.65.25.36.61.65.88,1.01.33.43.51.95.68,1.46-.82.63-1.98.77-2.88.23-.94-.38-1.41-1.52-2.47-1.64-.21-.05-.43-.09-.64-.14h-.02c-.39-.71-.83-1.4-1.19-2.13-.35-.75-1.04-1.25-1.58-1.85-7.7-8.1-15.22-16.36-22.77-24.59-2.56-2.77-5.15-5.5-7.73-8.24.96-.49,1.92-1,2.72-1.73,1.67-1.34,2.78-3.23,3.51-5.22,1.03-3.06.97-6.36.48-9.51-.31-1.74-.53-3.49-.59-5.25,0-1.45.25-2.92.76-4.27.78-.22,1.61-.23,2.39-.46Z"/>
  <path class="cls-68" d="M65.2,91.56c.93,1.04,2.11,1.81,3.27,2.57,1.14.74,2.4,1.28,3.65,1.8.12,1.71,0,3.46-.52,5.1-.89,2.78-2.35,5.35-3.01,8.21-.64,2.34-.71,4.83-.21,7.21.6,2.5,2.06,4.78,4.08,6.37-9.94,6.39-19.8,12.9-29.76,19.26-3.13,1.98-6.24,4-9.42,5.9-.7.59-1.26,1.33-1.93,1.95h-.03c-.48-.03-1-.07-1.44.17-.99.51-1.99,1.14-3.14,1.15-.58-.07-1.07-.42-1.6-.65-.11.08-.21.16-.32.25-.02-.06-.06-.18-.08-.24.32-.81.92-1.48,1.64-1.95.24-.19.58-.33.69-.63.04-.47-.52-.79-.92-.58-.89.38-1.62,1.07-2.24,1.8-.39-.8-1.32-1.06-1.84-1.75-.28-.34-.57-.68-.88-.98.76-.84,1.91-1.04,2.95-1.31.48-.15.35-.97-.15-.97-1.08-.05-2.16.28-3.06.88-.47-.69-.8-1.45-1.01-2.26.81-.36,1.7-.51,2.59-.53.33.04.75-.29.6-.62-.07-.2-.23-.41-.45-.42-1.01-.15-2.04.07-3,.37-.16-.81-.17-1.63-.18-2.45v-.02c1.68-.8,3.61-.54,5.36-.12.84.22,1.68.47,2.49.75,2.67-2.8,5.31-5.65,7.96-8.47.11-.01.21-.02.32-.03.7-.03,1.27-.5,1.89-.77,1.99-.94,3.84-2.14,5.69-3.33,4.19-2.77,8.2-5.79,12.07-8.99,2.01-1.69,4.01-3.41,5.84-5.3,2.2-2.17,4.06-4.75,5.1-7.68.3-1,.74-1.97.82-3.02.48-1.44.85-3.05.29-4.52-.55-1.35-1.7-2.44-3.07-2.94,0,.1,0,.3,0,.39-.13-.58-.52-1.05-.86-1.53v-.05c.1-.37.18-.73.28-1.09-.09-.13-.18-.26-.27-.39.62-.13,1.22-.35,1.82-.55Z"/>
  <path class="cls-63" d="M64.24,94.77c1.37.51,2.52,1.59,3.07,2.94.56,1.47.19,3.08-.29,4.52-1.07,2.57-2.88,4.74-4.88,6.65-2.18,2.11-4.5,4.06-6.77,6.06-6.5,5.56-13.07,11.04-19.76,16.37-.11.01-.21.02-.32.03,2.94-3.14,5.91-6.24,8.85-9.37,4.21-4.44,8.38-8.91,12.67-13.27,1.39-1.41,2.77-2.82,4.14-4.25.64-.69,1.38-1.31,1.84-2.15.59-1.06,1.08-2.19,1.36-3.37.29-1.25.09-2.52.08-3.78,0-.1,0-.29,0-.39Z"/>
  <path class="cls-9" d="M67.02,102.24c-.07,1.05-.52,2.02-.82,3.02-1.04,2.93-2.91,5.5-5.1,7.68-1.83,1.89-3.83,3.61-5.84,5.3-3.86,3.2-7.88,6.23-12.07,8.99-1.85,1.19-3.7,2.39-5.69,3.33-.62.27-1.19.73-1.89.77,6.69-5.33,13.26-10.81,19.76-16.37,2.27-2,4.59-3.96,6.77-6.06,1.99-1.91,3.81-4.08,4.88-6.65Z"/>
  <path class="cls-17" d="M94.19,108.58c-.07-.93-.33-1.91.03-2.81.21,1.22.51,2.43,1,3.57,1.45,3.49,3.74,6.52,5.79,9.65,5.35,7.67,10.84,15.25,16.47,22.72,0,.04,0,.13,0,.17-1.68-1.42-3.37-2.84-4.88-4.45-3.9-4.18-7.52-8.63-10.92-13.23-2.31-3.33-4.73-6.66-6.23-10.45-.67-1.66-1.1-3.41-1.26-5.19Z"/>
  <path class="cls-16" d="M117.48,141.42c-1.32-2.49-2.73-4.94-4.07-7.42-4.74-8.66-9.47-17.33-14.49-25.84-.96-1.46-1.14-3.26-1.15-4.96-.03-1.35.53-2.6.94-3.85.01-.08.04-.24.06-.32-1.63.33-3.34,1.13-4.13,2.68-.62,1.25-.64,2.71-.43,4.06.21,1.22.51,2.43,1,3.57,1.45,3.49,3.74,6.52,5.79,9.65,5.35,7.67,10.84,15.25,16.47,22.72v-.3Z"/>
  <path class="cls-1" d="M17.9,141.06c.23-.81.87-1.43,1.58-1.84.02.82.03,1.64.18,2.45-.66.29-1.26.73-1.74,1.27-.13-.62-.22-1.27-.02-1.88Z"/>
  <path class="cls-52" d="M130.61,155.06c.35-.41.55-.92.81-1.38.45.64.77,1.42.66,2.22-.04.53-.37.97-.52,1.47-.3-.88-.96-1.58-1.76-2.04.27-.08.58-.09.81-.27Z"/>
  <path class="cls-34" d="M19.66,141.67c.96-.3,1.99-.53,3-.37.23.02.39.22.45.42.15.34-.27.66-.6.62-.89.02-1.77.17-2.59.53-.72.32-1.15,1-1.6,1.6-.08,0-.24-.02-.32-.02-.67-.26-.59-1.12-.09-1.51.48-.54,1.08-.98,1.74-1.27Z"/>
  <path class="cls-66" d="M127.18,155.49c-.53-.14-.49-.95.06-1.02.91,0,1.77.45,2.56.86.8.45,1.46,1.16,1.76,2.04.15.34.3.78.02,1.11-.18.26-.53.24-.81.27-.13-.64-.41-1.25-.83-1.76-.71-.84-1.77-1.16-2.77-1.49Z"/>
  <path class="cls-20" d="M18.33,144.48c.46-.6.88-1.29,1.6-1.6.21.8.54,1.57,1.01,2.26-.69.46-1.26,1.1-1.68,1.82-.77-.54-1.06-1.49-.9-2.39-.09-.03-.27-.08-.36-.11.08,0,.24.02.32.02Z"/>
  <path class="cls-57" d="M129.95,156.98c.42.5.7,1.11.83,1.76-.07.63-.38,1.27-.96,1.59-.27.19-.76.28-.58.72-.27-1.07-.73-2.13-1.6-2.86.09-.02.27-.06.37-.08.12.14.25.28.37.43.67-.35,1.05-1.03,1.56-1.56Z"/>
  <path class="cls-62" d="M20.95,145.13c.9-.6,1.98-.93,3.06-.88.51,0,.64.82.15.97-1.04.27-2.19.47-2.95,1.31-.56.56-.93,1.28-1.09,2.05-.32.05-.71.09-.93-.21-.37-.42-.14-1,.08-1.43.42-.72.99-1.35,1.68-1.82Z"/>
  <path class="cls-33" d="M124.98,157.91c-.57-.23-.14-1.09.38-.94.84.21,1.6.68,2.28,1.21.86.72,1.33,1.79,1.6,2.86.34.75-.52,1.63-1.24,1.14-.05-.7-.14-1.42-.45-2.06-.57-1.02-1.54-1.71-2.57-2.22Z"/>
  <path class="cls-15" d="M20.12,148.59c.15-.78.53-1.49,1.09-2.05.31.31.6.64.88.98.52.69,1.45.94,1.84,1.75-.02.03-.05.08-.07.1-.4.65-.71,1.35-.93,2.08-.52-.45-.77-1.1-.73-1.79-.77-.18-1.51-.5-2.07-1.07Z"/>
  <path class="cls-3" d="M26.16,147.47c.4-.21.96.1.92.58-.12.3-.45.44-.69.63-.73.47-1.33,1.14-1.64,1.95l-.04-.09c-.2-.44-.46-.87-.85-1.16.02-.02.05-.08.07-.1.62-.73,1.35-1.42,2.24-1.8Z"/>
  <path class="cls-39" d="M121.41,160.12c-.17-.48.43-.91.84-.65.88.56,1.45,1.48,1.9,2.4l-.05.02c-.39.17-.75.41-1.09.67l-.04.03c-.17-.51-.35-1.03-.68-1.46-.27-.36-.62-.64-.88-1.01Z"/>
  <path class="cls-54" d="M126.47,160.73c.33-.26.68-.47,1.08-.6.31.64.4,1.35.45,2.06-.7.44-1.53.53-2.33.47-.16.68-.57,1.27-1.17,1.62-.01-.81-.15-1.61-.39-2.38l.05-.02c.79-.34,1.63-.6,2.31-1.13Z"/>
  <path class="cls-45" d="M29.88,150.12c.44-.24.96-.21,1.44-.18-1.09,1.11-2.14,2.4-3.69,2.84-1.21.42-2.54.12-3.63-.5.05-.02.16-.05.21-.07.14-.57.31-1.13.5-1.68l.04.09c.02.06.06.18.08.24.11-.08.21-.17.32-.25.52.23,1.02.58,1.6.65,1.15,0,2.15-.64,3.14-1.15Z"/>
  <path class="cls-48" d="M116.98,161.03c.21.04.43.09.64.14,1.06.13,1.53,1.26,2.47,1.64.9.54,2.06.41,2.88-.23l.04-.03c.19.73.04,1.5.18,2.23-1.16.36-2.44.25-3.48-.39-1.31-.74-2.03-2.11-2.72-3.37Z"/>
  <path class="cls-56" d="M23.86,149.37c.39.3.65.72.85,1.16-.19.55-.36,1.11-.5,1.68-.05.02-.15.05-.21.07-.46.27-.94-.08-1.18-.47.03-.09.08-.27.11-.35.21-.73.53-1.43.93-2.08Z"/>
  <path class="cls-25" d="M123.01,162.56c.34-.26.7-.5,1.09-.67.23.77.38,1.57.39,2.38,0,.11,0,.33-.01.44-.38.26-.91.47-1.29.08-.14-.74.02-1.5-.18-2.23Z"/>
</svg>