<?xml version="1.0" encoding="UTF-8"?>
<svg id="_图层_1" data-name="图层 1" xmlns="http://www.w3.org/2000/svg" viewBox="0 0 107.2 162.27">
  <defs>
    <style>
      .cls-1 {
        fill: #f1a69a;
      }

      .cls-2 {
        fill: #f09990;
      }

      .cls-3 {
        fill: #f9e8d4;
      }

      .cls-4 {
        fill: #f4b1b0;
      }

      .cls-5 {
        fill: #fbfbfa;
      }

      .cls-6 {
        fill: #5c4a43;
      }

      .cls-7 {
        fill: #624e46;
      }

      .cls-8 {
        fill: #f2a699;
      }

      .cls-9 {
        fill: #f1a699;
      }

      .cls-10 {
        fill: #f0a699;
      }

      .cls-11 {
        fill: #5f4c44;
      }

      .cls-12 {
        fill: #22150d;
      }

      .cls-13 {
        fill: #fbfafc;
      }

      .cls-14 {
        fill: #f1a79a;
      }

      .cls-15 {
        fill: #f1dec9;
      }

      .cls-16 {
        fill: #f4b1b1;
      }
    </style>
  </defs>
  <path class="cls-15" d="M100.04,141.52c-.42-2.41-1.74-4.58-2.96-6.72-5.99-9.84-12.07-19.64-18.14-29.43-.28-.47-.63-.92-.8-1.44,2.63-1.15,5.12-2.56,7.41-4.2,3.13-2.23,5.77-5.01,7.8-8.12,3.25-5.07,4.9-10.93,5.04-16.79.03-3.97-.57-7.99-2.13-11.71-1.32-3.19-3.49-6.07-6.22-8.41-2.87-2.46-6.38-4.23-10.07-5.43,2.85-3.19,5.57-6.48,7.92-10,2.19-3.31,4.15-6.79,5.28-10.53.72-2.54,1.12-5.21.62-7.81-.31-1.84-1.05-3.65-2.39-5.08-1.43-1.55-3.59-2.51-5.8-2.66-2.06-.18-4.17.21-6.02,1.06-2.32,1.05-4.22,2.74-5.74,4.62-2.7,3.45-4.37,7.46-5.64,11.51-1.66,5.46-2.48,11.1-2.97,16.74-1.11-.01-2.21-.03-3.32-.11-1.59-.03-3.17-.05-4.76-.07-3.56-.11-7.13-.09-10.7-.1-.63-.01-1.27.04-1.89-.05-.09-.74-.07-1.48-.13-2.22-.25-2.98-.61-5.95-1.07-8.91-.79-4.62-1.91-9.25-4.09-13.51-1.55-2.85-3.71-5.52-6.67-7.29-2.07-1.3-4.64-1.87-7.13-1.68-2.34.14-4.59,1.11-6.25,2.61-1.69,1.59-2.79,3.65-3.27,5.81-.25,1.04-.23,2.11-.18,3.17.23,2.63,1.18,5.16,2.31,7.57,2.36,4.88,5.55,9.39,9.07,13.64.36.42.76.81,1.06,1.27-1.82.15-3.68.16-5.43.72-1.34.39-2.56,1.17-3.32,2.26-.55.81-.85,1.75-1.02,2.68-.24,1.58-.23,3.19-.24,4.79.01,6.41.06,12.82.05,19.24.06,1.17.06,2.35.05,3.52.02,9.66.05,19.32.06,28.98.07,2.25,0,4.51.03,6.76-.02,2.07.05,4.15-.07,6.22-.03,1.42,0,2.85-.07,4.27-.02,3.61-.1,7.23-.08,10.85.02,1.41,0,2.84.32,4.24.38,1.55,1.24,3.09,2.75,3.98.97.66,2.16.98,3.31,1.26-.05-.74-.1-1.47-.15-2.21-.08-1.45.04-2.9.21-4.33.05-.28.08-.57.24-.82.22-.34.89-.24.98.15.03.26-.02.53-.05.79-.23,1.32-.2,2.66-.21,3.99-.01.87.16,1.73.21,2.59,1.67.26,3.37.29,5.05.35-.09-1.53.05-3.06-.02-4.59.02-1.04-.14-2.1-.01-3.13.19-.56,1.14-.34,1.1.22.11,2.5.08,5.01.05,7.52,1.66-.08,3.32-.07,4.97-.26.25-2.26.28-4.55-.06-6.81-.02-.3-.14-.67.14-.89.31-.29.89-.06.93.32.44,2.37.46,4.8.17,7.2,1.84-.2,3.73-.79,4.99-2.08,1.21-1.21,1.74-2.84,1.92-4.44.27-2.45.2-4.92.21-7.38,0-6.83,0-13.67,0-20.51.01-.66-.02-1.34.25-1.96.15-.36.65-.34,1-.37,1.58-.07,3.26-.15,4.72.49,1.26.58,1.99,1.73,2.71,2.79,2.15,3.23,4.18,6.51,6.26,9.78,2.67,4.21,5.33,8.43,8.02,12.63,1.24,1.88,2.41,3.79,3.74,5.62,1.1,1.49,2.37,2.95,4.07,3.91,2.31,1.36,5.12,1.68,7.8,1.86.01-1.33-.32-2.64-.84-3.88-.25-.64-.64-1.22-.9-1.85-.19-.44.54-.84.87-.45.6.66.91,1.49,1.25,2.28.45,1.27.78,2.6.84,3.93,1.33,0,2.65.13,3.98.07-.08-.66-.1-1.32-.27-1.96-.33-1.18-.69-2.37-1.37-3.43-.2-.3-.38-.77.04-.99.45-.23.79.23.98.54.51.87.97,1.78,1.24,2.73.25,1.01.53,2.02.53,3.06,1.35-.06,2.71-.02,4.04-.23-.03-1.52-.57-2.98-1.21-4.37-.2-.43-.52-.81-.68-1.25-.12-.5.71-.75.98-.32.7.89,1.2,1.91,1.51,2.97.28.93.59,1.88.53,2.86.69-.13,1.36-.32,2.01-.56,1.2-.43,2.17-1.37,2.54-2.49.3-.82.27-1.71.17-2.56ZM69.12,87c-.61,2.01-2.03,3.8-3.92,4.97-1.42.87-3.03,1.47-4.69,1.83-2.78.64-5.66.64-8.5.74-1.63.02-3.25-.09-4.88-.09-.53-.03-1.2.03-1.57-.39-.25-.4-.25-.88-.28-1.33-.08-3.35-.02-6.71-.04-10.07.01-1.64-.04-3.29.06-4.93.1-.63.15-1.52.94-1.76,1.01-.28,2.08-.29,3.12-.39,2.68-.1,5.37-.19,8.05-.04,2.45.08,4.97.29,7.22,1.25,1.64.7,3.11,1.83,3.93,3.33,1.18,2.1,1.27,4.61.56,6.86Z"/>
  <path class="cls-16" d="M24.4,24.81c.75-1.05,2.21-1.57,3.55-1.45,1.21.1,2.33.64,3.22,1.39,1.3,1.01,2.2,2.36,3,3.72,1.6,2.88,2.49,6.03,3.18,9.18.64,3.05,1.16,6.13,1.49,9.22-1.43.08-2.87.12-4.3.14-2.96-3.68-5.76-7.5-8.01-11.58-1.24-2.34-2.38-4.78-2.73-7.38-.14-1.09-.04-2.27.6-3.23Z"/>
  <path class="cls-4" d="M81.48,23.57c1.25-.38,2.72-.18,3.7.65.88.68,1.13,1.77,1.18,2.77.04,1.72-.55,3.39-1.19,5-.94,2.23-2.19,4.34-3.52,6.39-.93,1.48-1.97,2.9-3,4.32-1.33,1.71-2.61,3.46-4.02,5.12-1.28-.25-2.57-.4-3.86-.55.02-.57.15-1.12.24-1.68.9-5.04,1.97-10.1,4.03-14.86.75-1.53,1.5-3.07,2.63-4.41.99-1.18,2.19-2.35,3.82-2.75Z"/>
  <path class="cls-6" d="M37.09,55.38c.76-1,2.33-1.4,3.56-.94.21.07.25.3.36.45-.11.17-.25.31-.43.41-.86-.23-1.88-.14-2.54.45-.21.16-.38.46-.71.41-.43-.02-.46-.54-.24-.79Z"/>
  <path class="cls-11" d="M68.44,54.4c1.11-.36,2.46-.06,3.26.74.15.17.33.35.34.57.07.35-.46.6-.75.38-.33-.26-.6-.59-1.02-.73-.57-.24-1.22-.19-1.82-.06-.17-.11-.32-.24-.44-.4.1-.19.17-.43.42-.51Z"/>
  <path class="cls-12" d="M40.1,58.71c1.14-.23,2.38.08,3.23.79.82.66,1.26,1.67,1.27,2.65-.04.92-.43,1.86-1.18,2.5-1.12.95-2.89,1.21-4.26.56-1.29-.57-2.13-1.87-2.07-3.18,0-1.56,1.3-3.05,3-3.33Z"/>
  <path class="cls-12" d="M68.02,58.71c1.2-.24,2.54.07,3.42.86,1.25,1.09,1.52,2.97.62,4.32-.68,1.1-2.09,1.75-3.46,1.68-.98-.08-1.93-.49-2.57-1.18-1.05-1.12-1.23-2.84-.38-4.09.52-.79,1.37-1.39,2.37-1.59Z"/>
  <path class="cls-5" d="M39.2,59.89c.7-.36,1.63.16,1.68.87.07.53-.36,1.09-.96,1.14-.63.1-1.29-.33-1.36-.91-.08-.44.19-.91.64-1.1Z"/>
  <path class="cls-13" d="M67.36,59.85c.86-.34,1.86.58,1.47,1.36-.21.66-1.2.93-1.77.49-.72-.45-.59-1.64.3-1.85Z"/>
  <path class="cls-2" d="M52.17,63.48c.5-.51,1.29-.69,2.02-.71,1.03-.06,2.14-.04,3.05.48.52.3.67.96.41,1.45-.43.87-1.33,1.51-2.32,1.8-.34.03-.68.04-1.01.01-.95-.34-1.85-.93-2.29-1.79-.18-.4-.19-.91.15-1.25Z"/>
  <path class="cls-4" d="M33.66,66.34c1.04-.14,2.19,0,3.01.65.85.6,1.38,1.57,1.29,2.55.06,1-.62,1.92-1.5,2.47-1.41.79-3.45.72-4.63-.4-.74-.63-1.14-1.59-1-2.51.15-1.36,1.37-2.53,2.83-2.77Z"/>
  <path class="cls-4" d="M74.72,66.32c1.81-.33,3.71.88,4.03,2.52.28,1.24-.38,2.6-1.59,3.22-1.45.8-3.5.58-4.64-.58-.77-.71-.93-1.78-.75-2.73.29-1.28,1.51-2.32,2.95-2.44Z"/>
  <path class="cls-7" d="M54.32,66.52c.34.02.68.02,1.01-.01.01.59-.04,1.18.01,1.76.12,1.05,1.17,1.92,2.33,1.95,1.09.1,2.25-.49,2.6-1.47.1-.2.12-.51.41-.56.34-.09.68.23.61.54-.16.77-.7,1.46-1.41,1.89-1.59.99-4.09.58-5.05-1-.6.83-1.57,1.45-2.68,1.52-1.66.2-3.52-.85-3.77-2.41-.12-.42.54-.74.84-.39.23.47.4,1,.86,1.34.95.75,2.53.74,3.46-.04.41-.36.69-.86.77-1.37.03-.58-.01-1.17.01-1.75Z"/>
  <path class="cls-3" d="M12.19,108.54c.72-.56,1.68-.79,2.62-.76,1.39.01,2.68.7,3.57,1.65.07,2.25,0,4.51.03,6.76-.02,2.07.05,4.15-.07,6.22-.03,1.42,0,2.85-.07,4.27-.89.81-1.94,1.55-3.19,1.82-1.54.32-3.29.04-4.45-.98-1.26-1.02-1.7-2.71-1.29-4.17.13-.52.42-.98.6-1.48-1.28-.26-2.5-.93-3.14-2-1.22-1.86-.52-4.5,1.46-5.68.81-.55,1.81-.76,2.8-.84-.16-.49-.35-.99-.39-1.51-.05-1.23.42-2.56,1.53-3.32Z"/>
  <path class="cls-1" d="M24.86,139.64c.22-.34.89-.24.98.15.03.26-.02.53-.05.79-.23,1.32-.2,2.66-.21,3.99-.01.87.16,1.73.21,2.59-.41-.04-.82-.08-1.22-.15-.05-.74-.1-1.47-.15-2.21-.08-1.45.04-2.9.21-4.33.05-.28.08-.57.24-.82Z"/>
  <path class="cls-8" d="M30.8,139.78c.19-.56,1.14-.34,1.1.22.11,2.5.08,5.01.05,7.52-.37,0-.75,0-1.12-.02-.09-1.53.05-3.06-.02-4.59.02-1.04-.14-2.1-.01-3.13Z"/>
  <path class="cls-14" d="M37,139.57c.31-.29.89-.06.93.32.44,2.37.46,4.8.17,7.2-.39.09-.79.14-1.19.18.25-2.26.28-4.55-.06-6.81-.02-.3-.14-.67.14-.89Z"/>
  <path class="cls-9" d="M82.06,141.7c-.19-.44.54-.84.87-.45.6.66.91,1.49,1.25,2.28.45,1.27.78,2.6.84,3.93-.41,0-.81-.01-1.22-.03.01-1.33-.32-2.64-.84-3.88-.25-.64-.64-1.22-.9-1.85Z"/>
  <path class="cls-10" d="M87.4,141.14c.45-.23.79.23.98.54.51.87.97,1.78,1.24,2.73.25,1.01.53,2.02.53,3.06-.38.04-.77.05-1.15.04-.08-.66-.1-1.32-.27-1.96-.33-1.18-.69-2.37-1.37-3.43-.2-.3-.38-.77.04-.99Z"/>
  <path class="cls-10" d="M92.31,141.63c-.12-.5.71-.75.98-.32.7.89,1.2,1.91,1.51,2.97.28.93.59,1.88.53,2.86-.38.04-.75.08-1.13.11-.03-1.52-.57-2.98-1.21-4.37-.2-.43-.52-.81-.68-1.25Z"/>
</svg>