<?xml version="1.0" encoding="UTF-8"?>
<svg id="_图层_1" data-name="图层 1" xmlns="http://www.w3.org/2000/svg" viewBox="0 0 165.22 157.26">
  <defs>
    <style>
      .cls-1 {
        fill: #fbf1dd;
      }

      .cls-2 {
        fill: #b6776a;
      }

      .cls-3 {
        fill: #727d8a;
      }

      .cls-4 {
        fill: #fff;
      }

      .cls-5 {
        fill: #bbc4d0;
      }

      .cls-6 {
        fill: #fbf2e0;
      }

      .cls-7 {
        fill: #fccfc0;
      }

      .cls-8 {
        fill: #8696a8;
      }

      .cls-9 {
        fill: #1b1b1a;
      }

      .cls-10 {
        fill: #8496a7;
      }

      .cls-11 {
        fill: #fba79b;
      }
    </style>
  </defs>
  <g>
    <path class="cls-8" d="M28.7,126.92c.76-.52,2.44,2.64,6.21,3.69,1.05.29,3.46.96,5.87,0,1.11-.44,1.74-1.04,2.94-.96,1.13.08,2.54.75,2.66,1.63.18,1.33-2.6,2.91-4.78,3.45-1.93.48-3.59.2-4.6.02-1.75-.31-3.05-.92-3.73-1.27-1.33-.7-3.6-1.89-4.44-4.3-.08-.24-.66-1.9-.13-2.25Z"/>
    <path class="cls-3" d="M25.88,125.57s-.5-.48-1.27-.75c-.19-.07-1.22-.42-1.59,0-.32.37-.02,1.21.34,1.73.81,1.17,2.38,1.42,2.32,1.62-.04.13-.71-.1-1.12.27-.24.22-.34.61-.27.89.22.87,2.39,1.61,3.97.89,1.42-.65,2.03-2.33,2.06-3.55.1-3.68-4.88-6.72-6.08-5.94-.63.41-.5,2.07.07,3.14.55,1.04,1.6,1.68,1.57,1.71Z"/>
  </g>
  <path class="cls-5" d="M139.81,10.16c-2.34-2.29-8.37-.33-9.38,0-1.5.49-2.59.96-2.59.96-2.19.93-2.8,1.53-4.26,1.82-1.19.23-2.13,0-2.84,0-17.63,0-35.27,0-52.9,0-.28-.01-.56-.02-.85-.02h-5.53c-.28,0-.56,0-.85.02h-4.41c-3.74-3.73-8.5-5.96-13.69-5.96-11.99,0-21.71,11.92-21.71,26.63s9.39,26.21,21.1,26.61v65.26c0,7.93,4.78,14.79,11.61,17.85,3.07,2.34,6.76,1.77,7.15,1.71,2.41.04,6.07.08,10.51.05,14.49-.1,15.95-.81,26.63-.82,5.45,0,11.08.17,22.12,0,8.57-.13,11.88-.34,14.34-2.87,1.96-2.02,2.27-6.13,2.87-14.34.75-10.23-.43-12.81-1.64-14.47-.71-.98-2.4-3.34-5.33-4.1-5.7-1.47-9.76,4.89-20.21,5.55-.66.04-1.29,0-3.41,0-4.98,0-15.05-1.77-15.18-3.04-.65-6.7-1.97-11.83-2.99-15.75-.56-2.17-1.23-4.43-1.23-4.43-.34-1.15.98-2.86,1.91-2.86,8.28,0,16.56,0,24.84,0,.6,0,3.78-.07,6.34-2.64,1.63-1.63,2.64-3.87,2.64-6.34v-4.78c0-4.94-4.04-8.98-8.98-8.98h-32.18c2.08-12.24,2.42-16.85,2.31-18.73-.04-.72.17-2.34.6-5.57.04-.33.14-.99.6-1.63.81-1.14,2.16-1.38,2.32-1.41.48-.08.86-.04.94-.03,2.02.22,17.28-.6,25.43-1.19,0,0,23.44-1.79,25.95-6.96.48-1,.03-.65.82-14.47.13-2.32.24-3.97-.86-5.05Z"/>
  <path class="cls-1" d="M128.37,139.74c.37.49,1.31,1.73,2.57,1.73.35,0,1.3-.1,2.5-1.66,1.98-2.58,2.27-6.09,2.58-10.79.36-5.52.53-9.39-.73-13.45-.41-1.33-1.07-2.97-2.39-3.33-1.13-.31-2.25.45-2.65.73-5.33,3.64-5.54,21.9-1.88,26.76Z"/>
  <path class="cls-6" d="M128.38,113.34c.06.68-.61.78-1.61,2.54-.88,1.54-.72,2.08-1.3,2.33-1.09.47-2.87-.9-3.68-2.22-.4-.65-.52-1.23-.56-1.47-.08-.47-.24-1.46.33-2.29.56-.81,1.52-.99,1.95-1.07,2.14-.4,4.76.86,4.87,2.18Z"/>
  <path class="cls-6" d="M125.19,119.19c.27.43-.19.8-.35,2.86-.04.5-.06.82-.04,1.28.07,1.22.38,1.51.17,1.81-.41.58-2.13.19-3.24-.48-.61-.37-.98-.79-1.14-.99-.29-.36-.77-.96-.81-1.74-.07-1.19.92-2.06,1.12-2.24,1.39-1.23,3.77-1.32,4.28-.5Z"/>
  <path class="cls-6" d="M124.48,126.18c.31.31.02.68.19,2.47.07.72.18,1.33.26,1.8.35,1.91.64,2.29.38,2.57-.4.44-1.57.02-3.01-.49-.79-.29-1.13-.5-1.36-.66-.37-.28-.99-.73-1.23-1.47-.36-1.11.34-2.18.51-2.46,1.09-1.68,3.55-2.43,4.24-1.75Z"/>
  <path class="cls-6" d="M125.12,133.97c.4.18.13.65.85,2.31.27.61.46,1.26.74,1.87.19.42.3.64.2.84-.13.25-.61.29-1.57.37-.59.04-.89.07-1.2.02-.36-.06-.96-.16-1.4-.6-.67-.67-.54-1.71-.52-1.93.21-1.75,2.11-3.23,2.9-2.88Z"/>
  <path class="cls-6" d="M112.44,69.89c0,1.69,2.31,3.05,5.16,3.05,1.21,0,2.32-.25,3.2-.66-.95-1.95-2.64-3.73-4.89-5.27-2.02.41-3.47,1.55-3.47,2.88Z"/>
  <path class="cls-6" d="M115.54,76.48c0,1.69,2.31,3.05,5.16,3.05.06,0,.11,0,.17,0,.06-.96.09-1.98.09-3.05,0-.96-.03-1.98-.09-3.05-.06,0-.11,0-.17,0-2.85,0-5.16,1.37-5.16,3.05Z"/>
  <path class="cls-6" d="M112.44,83.42c0,1.34,1.67,2.46,3.84,2.66,1.91-1.28,3.37-2.75,4.27-4.35-.84-.61-2.11-1-3.55-1-2.52,0-4.56,1.21-4.56,2.7Z"/>
  <path class="cls-6" d="M73.57,48.59c0,1.27,2.48,2.17,3.84,2.66,10.27,3.67,25.42.1,25.28-1.09-.05-.43-2.07-.05-8.3-.81-5.39-.66-9.76-1.67-12.71-2.45-.62-.39-1.89-1-3.55-1-2.52,0-4.56,1.21-4.56,2.7Z"/>
  <path class="cls-7" d="M46.87,38.69c0-6.86,1.84-13.02,4.77-17.27-2.52-2.87-5.91-4.62-9.63-4.62-7.8,0-14.13,7.71-14.13,17.22s6.33,17.22,14.13,17.22c2.33,0,4.52-.69,6.46-1.9-1.02-3.19-1.6-6.8-1.6-10.63Z"/>
  <path class="cls-10" d="M116.69,142.45c-1-3.01-1.56-6.27-1.56-9.68,0-.63.03-1.26.06-1.88.23,3.86,1.17,7.49,2.66,10.73-.38.29-.77.57-1.16.83Z"/>
  <path class="cls-10" d="M113.87,143.04c-.5-1.5-.78-3.14-.78-4.84,0-.32.01-.63.03-.94.12,1.93.58,3.74,1.33,5.37-.19.14-.38.28-.58.42Z"/>
  <path class="cls-10" d="M56.57,51.68c-.39-.29-.76-.6-1.13-.92-3.04,5.12-7.91,8.68-13.53,9.45v3.06c6.37-.87,11.79-5.34,14.66-11.59Z"/>
  <path class="cls-10" d="M106.61,86.83c.25-.07-1.8-4.61-1.28-10.89.28-3.4,1.21-6.15,2.01-8.04-1.22,1.78-2.85,4.74-3.17,8.6-.48,5.75,2.19,10.4,2.44,10.33Z"/>
  <path class="cls-10" d="M100.43,85.14c.21-.06-1.49-3.83-1.07-9.06.23-2.83,1.01-5.12,1.68-6.69-1.01,1.48-2.37,3.95-2.64,7.16-.4,4.79,1.82,8.65,2.03,8.59Z"/>
  <path class="cls-9" d="M64.95,28.16c.02.08.17.11.39.14,1.9.2,2.69-.89,4.52-1.12,1.19-.15,1.75.2,3.99-.07.43-.05.7-.1.7-.18.02-.24-2-.87-4.04-.8-2.96.09-5.68,1.64-5.58,2.04Z"/>
  <path class="cls-10" d="M55.81,122.05c.41.21,4.34-4.42,13.95-7.42,5.2-1.62,10.3-2.22,14-2.46-4.07-.24-10.33-.24-16.24,1.6-8.82,2.73-12.13,8.07-11.7,8.29Z"/>
  <path class="cls-10" d="M118.46,17.14c-.24.03-.65,2.87-.9,4.54-.36,2.46-.28,2.87-.64,5.52-.4,2.95-.78,4.4-.66,4.41.17.01,1.14-2.66,1.75-5.59.98-4.74.74-8.92.45-8.88Z"/>
  <path class="cls-10" d="M106.77,17.63c-.14.14.35,2.76.64,4.29.42,2.27.58,2.58,1.05,5,.52,2.7.68,4.12.75,4.07.11-.07,0-2.82-.39-5.6-.64-4.51-1.88-7.94-2.05-7.77Z"/>
  <path class="cls-10" d="M95.11,15.56c-.18.16.55,3.31.97,5.15.63,2.73.86,3.09,1.55,6.01.78,3.24,1.02,4.95,1.13,4.89.14-.08-.06-3.37-.67-6.7-.98-5.4-2.76-9.54-2.98-9.34Z"/>
  <ellipse class="cls-11" cx="65.5" cy="43.55" rx="4.26" ry="3.71"/>
  <ellipse class="cls-9" cx="73.57" cy="35.11" rx="3.71" ry="4.78" transform="translate(-1.32 2.92) rotate(-2.25)"/>
  <ellipse class="cls-4" cx="73.83" cy="32.33" rx=".65" ry=".72"/>
  <path class="cls-7" d="M138.75,11.73c-1.35-1-4.63.06-6.05,2.18-1.59,2.39.41,4.25.08,10.4-.2,3.87-1.12,5.52-.08,6.4,1.17.99,4,.32,5.39-1.37,1.42-1.72.43-3.41.48-8.47.06-5.95,1.48-8.18.18-9.15Z"/>
  <path class="cls-2" d="M136.94,17.38c-.03,1.04-.23,3.36-.71,3.39-.43.03-1.08-1.73-1.02-3.45.06-1.72.83-3.43,1.25-3.37.48.07.52,2.39.48,3.43Z"/>
  <path class="cls-2" d="M134.82,26.03c.16-1.03.62-3.31,1.1-3.28.43.02.87,1.85.61,3.55-.26,1.7-1.23,3.31-1.64,3.2-.47-.12-.23-2.43-.08-3.46Z"/>
</svg>