<?xml version="1.0" encoding="UTF-8"?>
<svg id="_图层_1" data-name="图层 1" xmlns="http://www.w3.org/2000/svg" viewBox="0 0 124.27 141.45">
  <defs>
    <style>
      .cls-1 {
        fill: #322418;
      }

      .cls-2 {
        fill: #bc966b;
      }

      .cls-3 {
        fill: #977b5e;
      }

      .cls-4 {
        fill: #907355;
      }

      .cls-5 {
        fill: #654930;
      }

      .cls-6 {
        fill: #927556;
      }

      .cls-7 {
        fill: #312317;
      }

      .cls-8 {
        fill: #f9f9f9;
      }

      .cls-9 {
        fill: #a68e73;
      }

      .cls-10 {
        fill: #a58d73;
      }

      .cls-11 {
        fill: #443020;
      }

      .cls-12 {
        fill: #907356;
      }

      .cls-13 {
        fill: #a78159;
      }

      .cls-14 {
        fill: #a68e74;
      }

      .cls-15 {
        fill: #bb966a;
      }

      .cls-16 {
        fill: #443120;
      }

      .cls-17 {
        fill: #a17b54;
      }

      .cls-18 {
        fill: #917355;
      }

      .cls-19 {
        fill: #e6c8a1;
      }

      .cls-20 {
        fill: #c58d67;
      }

      .cls-21 {
        fill: #f0af8d;
      }

      .cls-22 {
        fill: #4b3724;
      }

      .cls-23 {
        fill: #fbeacf;
      }

      .cls-24 {
        fill: #654a30;
      }

      .cls-25 {
        fill: #c48c67;
      }

      .cls-26 {
        fill: #a58c72;
      }

      .cls-27 {
        fill: #907255;
      }

      .cls-28 {
        fill: #a47d55;
      }

      .cls-29 {
        fill: #a68d73;
      }

      .cls-30 {
        fill: #fafafa;
      }

      .cls-31 {
        fill: #fae7cb;
      }

      .cls-32 {
        fill: #a58d72;
      }

      .cls-33 {
        fill: #654a2f;
      }

      .cls-34 {
        fill: #8f7154;
      }

      .cls-35 {
        fill: #f0af8c;
      }
    </style>
  </defs>
  <path class="cls-19" d="M101.53,128.09c-.15-1.99,0-3.98-.26-5.96-.16-.95-.65-1.92-1.53-2.39-.95-.52-2.06-.6-3.12-.67-1.58-.05-3.16-.05-4.73-.07-1.43-.08-2.86,0-4.28-.25.09.03.26.08.34.11-.95.83-2.16,1.29-3.39,1.48-1.35.16-2.78.1-4.04-.46-.92-.41-1.64-1.21-1.99-2.14-.46-1.11-.36-2.34-.34-3.52.03-1.38.32-2.73.53-4.08-.23,0-.46,0-.69-.03.02-.37.04-.75.12-1.12.5-2.65,1.42-5.2,2.35-7.73.64-1.52,1.18-3.09,2.04-4.51.02-7.59,0-15.18,0-22.77,0-5.25-.02-10.5.05-15.75.35-.52.85-.93,1.22-1.44,1.77-2.23,2.67-5.04,2.9-7.85.27-3.44.1-6.91.44-10.35.18-.64.67-1.38,1.41-1.4,1.36-.12,2.74-.23,4.06-.64,2.15-.63,4.15-1.8,5.69-3.43,1.29-1.42,2.37-3.24,2.3-5.22,0-.93-.57-1.8-1.35-2.27-1.39-.88-3.08-1.13-4.71-1.1-2.79,0-5.56.87-7.86,2.44-.6.41-1.23.79-1.78,1.27-.17.13-.32.29-.53.36-.04.01-.11.04-.14.06-1.45-1.64-3.44-2.69-5.46-3.45-2.11-.75-4.33-1.2-6.56-1.39,1.01.84,1.82,1.98,2.11,3.28.3,1.22.32,2.57-.23,3.72-.18.38-.69.4-1,.19-.49-.31-.87-.75-1.32-1.11.06,1.05-.26,2.09-.84,2.96-.19.3-.49.51-.83.63-.18-.26-.36-.51-.54-.77-.33,1.04-.83,2.12-1.81,2.68-.35.22-.78.03-1.08-.18-.87-.61-1.37-1.57-1.77-2.52-.11.29-.26.58-.5.79-1.13-.8-1.41-2.32-1.49-3.62-.41.38-.81.79-1.27,1.11-.28.21-.76.23-.97-.09-.51-.73-.52-1.65-.51-2.5.04-1.78.91-3.5,2.29-4.62-2.2.27-4.4.66-6.5,1.4-2.07.71-4.03,1.86-5.51,3.49-.03-.07-.09-.2-.12-.26-.01.06-.04.17-.05.22-.71-.63-1.51-1.15-2.29-1.68-.88-.6-1.86-1-2.82-1.44-2.45-.98-5.2-1.24-7.78-.67-1.15.3-2.4.79-2.99,1.9-.59,1.13-.32,2.46.14,3.58,1.02,2.53,3.21,4.44,5.67,5.53,1.75.81,3.68,1.22,5.6,1.31.35.07.81-.04,1.06.28.37.48.73,1.04.7,1.67.12,1.54.11,3.08.2,4.62.06,2.51-.06,5.06.5,7.53.49,2.47,1.66,4.82,3.47,6.59.12.14.32.26.32.46.05,12.81,0,25.63.04,38.45.16.31.34.63.48.95,1.51,3.3,2.75,6.74,3.59,10.27.14.72.38,1.45.25,2.19-.2-.04-.4-.08-.6-.12.16,1.03.39,2.04.47,3.08.06,1.05.21,2.11.06,3.16-.1,1.14-.57,2.28-1.46,3.01-1,.82-2.34,1.12-3.62,1.09-.81.03-1.61-.09-2.38-.31-.84-.27-1.66-.65-2.32-1.24.09-.03.26-.08.34-.11-1.13.17-2.28.19-3.42.2-1.95,0-3.89.08-5.84.13-1.26.12-2.73.25-3.57,1.31-.98,1.24-.83,2.93-.89,4.42-.09,1.05-.06,2.11-.1,3.16,0,1.11-.06,2.21,0,3.32.13-1.12.38-2.32,1.21-3.14.73-.79,1.83-1.06,2.86-1.2,1.32-.11,2.76-.03,3.88.75.18.16.39.13.57,0,.56-.41,1.23-.62,1.91-.72,1.06-.14,2.16-.08,3.19.21,1.15.34,2.12,1.24,2.48,2.39.47,1.48.48,3.06.45,4.6,0,.3-.1.58-.29.81.76.09,1.52.06,2.28.06,8.31,0,16.61,0,24.92,0,2.89-.03,5.78.05,8.66-.03-.37-.39-.32-.96-.33-1.45-.02-1.26.08-2.54.43-3.76.27-.91.83-1.75,1.67-2.22,1.24-.71,2.74-.73,4.13-.62.62.17,1.26.31,1.77.74.23,0,.47,0,.7,0,.85-.67,1.99-.77,3.04-.78,1.28.03,2.69.25,3.62,1.21.7.64.99,1.57,1.17,2.47.2-.81.06-1.66.1-2.49Z"/>
  <path class="cls-29" d="M35.91,6.69c3.46-.44,7.01-.22,10.38.72.5.14.99.29,1.46.49-.3.32-.72.47-1.09.67-2.2,1.36-3.96,3.45-4.77,5.92-.39,1.32-.82,2.67-.72,4.06-1.53-.57-3.11-1.03-4.73-1.25-.22-.03-.44-.06-.65-.12.05-.77-.39-1.43-.6-2.15-.52-2.02-.6-4.18-.04-6.2.16-.75.72-1.36.75-2.15Z"/>
  <path class="cls-32" d="M88.92,7.35c2.24-.59,4.55-.85,6.86-.86.8.08,1.62.03,2.42.17.24.04.47.09.71.13.05.65.45,1.18.67,1.78.79,2.56.63,5.41-.49,7.84-.12.21-.09.45-.03.68.32.03.65.07.98.08-1.92.09-3.8.53-5.63,1.11-.25,0-.51-.01-.76-.02-.02-1.2-.18-2.42-.62-3.55-.29-.86-.63-1.72-1.15-2.48-.59-.96-1.26-1.9-2.17-2.57-.3-.21-.6-.42-.87-.66.05-.01.17-.03.22-.04.52.53,1.34.44,1.87.94.59.5,1.18,1.02,1.6,1.68.36.54.56,1.19,1.02,1.66.07-.48.04-.97-.17-1.41-.53-1.17-1.13-2.41-2.26-3.1-.63-.48-1.41-.63-2.14-.88-.07-.05-.14-.1-.21-.15.04-.1.09-.2.13-.3l.02-.04Z"/>
  <path class="cls-34" d="M98.2,6.66c.71.09,1.47.04,2.15.27.3.76.75,1.46.89,2.27.18,1,.38,2.01.27,3.03-.07,1.18-.3,2.34-.72,3.44-.21.5-.44,1-.63,1.5h-.11c-.33-.02-.65-.05-.98-.09-.06-.23-.09-.47.03-.68,1.12-2.44,1.27-5.29.49-7.84-.22-.6-.63-1.12-.67-1.78-.24-.04-.48-.09-.71-.13Z"/>
  <path class="cls-34" d="M34.47,6.85c.48-.04.96-.14,1.45-.16-.03.79-.59,1.4-.75,2.15-.56,2.02-.48,4.18.04,6.2.21.71.65,1.37.6,2.15-.38-.02-.77-.03-1.15-.06-.81-1.64-1.29-3.44-1.36-5.26,0-.98.11-1.97.34-2.93.16-.71.53-1.34.8-2.01,0-.02.02-.05.03-.07Z"/>
  <path class="cls-9" d="M25.3,10.38c2.72-1.84,5.88-3.05,9.14-3.45-.26.67-.64,1.3-.8,2.01-.23.96-.34,1.95-.34,2.93.07,1.82.55,3.63,1.36,5.26-1.83-.06-3.68.07-5.44.61-.09-.37-.26-.73-.6-.95-1.51-1.18-2.51-2.94-2.88-4.81-.08-.53-.02-1.08-.18-1.6-.06,0-.19,0-.25,0Z"/>
  <path class="cls-26" d="M100.35,6.93c3.21.43,6.34,1.59,9.03,3.41-.14,1.05-.28,2.12-.7,3.11-.38.93-.95,1.78-1.59,2.55-.38.47-.93.76-1.35,1.2-.18.17-.11.41-.05.62-1.77-.6-3.67-.75-5.53-.64.2-.51.43-1,.63-1.5.43-1.1.66-2.27.72-3.44.1-1.02-.09-2.03-.27-3.03-.14-.81-.59-1.51-.89-2.27Z"/>
  <path class="cls-3" d="M85.47,8.55c1.07-.57,2.26-.87,3.43-1.15-.04.1-.09.2-.13.3.07.05.14.1.21.15-.36-.02-.7.08-.92.37.29.3.67.49,1.01.74-.05.01-.17.03-.22.04.27.24.57.45.87.66.91.68,1.58,1.62,2.17,2.57.52.76.85,1.61,1.15,2.48.44,1.13.6,2.34.62,3.55.25,0,.51.02.76.02-.64.25-1.28.53-1.91.81-.31-1.18-.34-2.42-.73-3.59-.61-1.64-1.44-3.24-2.73-4.45-.83-.77-1.75-1.49-2.87-1.76-.39-.06-.56-.43-.72-.75Z"/>
  <path class="cls-18" d="M47.75,7.9c.59.15,1.14.39,1.69.65-.22.35-.53.65-.93.78-2.63,1-4.57,3.39-5.37,6.05-.31.87-.49,1.77-.59,2.68-.01.36-.23.65-.47.9-.3-.14-.6-.27-.9-.41-.1-1.39.33-2.74.72-4.06.8-2.47,2.57-4.56,4.77-5.92.38-.2.79-.35,1.09-.67Z"/>
  <path class="cls-12" d="M88.06,8.22c.22-.29.56-.39.92-.37.73.25,1.52.4,2.14.88,1.13.7,1.73,1.93,2.26,3.1.21.44.24.93.17,1.41-.46-.47-.66-1.12-1.02-1.66-.42-.66-1.01-1.18-1.6-1.68-.53-.5-1.36-.41-1.87-.94-.34-.25-.71-.44-1.01-.74Z"/>
  <path class="cls-29" d="M49.44,8.55c3.47,1.45,6.48,3.88,8.81,6.81-1.12-.02-2.24.14-3.34.39-1.23.39-2.47.84-3.54,1.56-1.39.93-2.7,2.04-3.58,3.46-.37.51-.69,1.07-.88,1.68-1.38-1.44-3.03-2.62-4.83-3.49.24-.25.46-.54.47-.9.11-.91.29-1.82.59-2.68.8-2.65,2.74-5.04,5.37-6.05.4-.13.71-.43.93-.78Z"/>
  <path class="cls-29" d="M79.32,12.38c1.79-1.64,3.9-2.91,6.13-3.85l.02.03c.16.31.33.68.72.75,1.12.28,2.04.99,2.87,1.76,1.29,1.21,2.12,2.81,2.73,4.45.39,1.16.41,2.41.73,3.59-1.94.98-3.73,2.28-5.11,3.96-1.39,1.61-2.26,3.58-3.01,5.55-.04.01-.11.04-.14.06-1.45-1.64-3.44-2.69-5.46-3.45-2.11-.75-4.33-1.2-6.56-1.39-.12-.04-.25-.08-.37-.12.28-.12.27-.48.38-.72.49-1.38,1.11-2.71,1.86-3.98,1.07-1.89,2.33-3.68,3.82-5.26,1.16.42,2.45-.06,3.62.33,1.46.64,2.96,1.3,4.09,2.47.62.66,1.19,1.37,1.6,2.18.29.58.71,1.09,1.01,1.66.17.31.36.61.59.88.18-.61.11-1.26-.12-1.85-.44-1.43-1.44-2.57-2.36-3.72-.86-1.05-2.09-1.67-3.22-2.37-1.07-.88-2.55-.63-3.81-.95Z"/>
  <path class="cls-27" d="M24.28,11.16c.34-.27.67-.54,1.02-.79.06,0,.19,0,.25,0,.17.52.1,1.07.18,1.6.37,1.87,1.37,3.63,2.88,4.81.34.21.5.57.6.95-.31.12-.62.24-.93.35-.59-.54-1.3-.95-1.81-1.58-.69-.7-1.17-1.56-1.57-2.45-.46-.89-.51-1.92-.61-2.89Z"/>
  <path class="cls-27" d="M108.68,13.45c.41-.99.56-2.06.7-3.11.45.29.87.61,1.27.97-.26.89-.31,1.84-.7,2.7-.43.93-.95,1.84-1.68,2.56-.55.56-1.14,1.07-1.76,1.55-.27-.1-.54-.2-.81-.29-.06-.2-.14-.45.05-.62.42-.43.97-.72,1.35-1.2.64-.77,1.21-1.62,1.59-2.55Z"/>
  <path class="cls-14" d="M20.88,15.14c.9-1.5,2.05-2.86,3.4-3.97.11.98.16,2,.61,2.89.4.89.89,1.75,1.57,2.45.51.63,1.22,1.04,1.81,1.58-1.11.45-2.14,1.09-3.05,1.88-.81.74-1.48,1.64-2.02,2.59-.54,1-.83,2.1-1.22,3.16-.34.88-1.61,1.12-2.27.45-.69-.71-.8-1.76-.92-2.7-.24-2.92.63-5.84,2.09-8.35Z"/>
  <path class="cls-26" d="M110.64,11.31c1.48,1.18,2.66,2.71,3.58,4.36,1.52,2.78,2.23,6.07,1.59,9.21-.17.67-.52,1.41-1.22,1.64-.65.26-1.43-.11-1.73-.72-.25-.52-.37-1.08-.59-1.61-.67-1.94-1.91-3.71-3.61-4.89-.66-.5-1.41-.85-2.16-1.19.62-.47,1.21-.99,1.76-1.55.74-.72,1.25-1.63,1.68-2.56.39-.85.44-1.8.7-2.7Z"/>
  <path class="cls-4" d="M77.92,13.73c.44-.48.88-.96,1.4-1.36,1.26.33,2.73.08,3.81.95,1.13.7,2.36,1.32,3.22,2.37.92,1.14,1.92,2.29,2.36,3.72.23.59.3,1.24.12,1.85-.23-.27-.43-.57-.59-.88-.3-.57-.72-1.08-1.01-1.66-.41-.81-.99-1.52-1.6-2.18-1.12-1.17-2.63-1.82-4.09-2.47-1.17-.39-2.46.09-3.62-.33Z"/>
  <path class="cls-6" d="M54.92,15.75c1.09-.24,2.21-.4,3.34-.39.28.34.53.69.78,1.05-.21.17-.4.4-.69.4-1.1.09-2.2.15-3.27.42-1.19.38-2.4.82-3.41,1.57-.62.46-1.26.92-1.77,1.51-.52.63-1.12,1.19-1.52,1.9-.21.38-.61.59-.98.78-.16-.18-.32-.35-.48-.53.19-.61.51-1.17.88-1.68.89-1.43,2.2-2.54,3.58-3.46,1.08-.73,2.31-1.18,3.54-1.56Z"/>
  <path class="cls-10" d="M59.04,16.41c1.61,2.21,2.86,4.68,3.76,7.26-.11.03-.21.07-.32.11-2.2.27-4.4.66-6.5,1.4-2.07.71-4.03,1.86-5.51,3.49-.03-.07-.09-.2-.12-.26-.71-1.94-1.64-3.82-2.96-5.42.38-.19.77-.39.98-.78.4-.71,1.01-1.27,1.52-1.9.5-.6,1.15-1.05,1.77-1.51,1.01-.76,2.22-1.19,3.41-1.57,1.07-.27,2.18-.32,3.27-.42.29,0,.49-.23.69-.4Z"/>
  <path class="cls-17" d="M62.8,23.67c2.14-.32,4.32-.37,6.48-.26.86.07,1.74.07,2.58.29.12.04.24.08.37.12,1.01.84,1.82,1.98,2.11,3.28.3,1.22.32,2.57-.23,3.72-.18.38-.69.4-1,.19-.49-.31-.87-.75-1.32-1.11.06,1.05-.26,2.09-.84,2.96-.19.3-.49.51-.83.63-.18-.26-.36-.51-.54-.77-.33,1.04-.83,2.12-1.81,2.68-.35.22-.78.03-1.08-.18-.87-.61-1.37-1.57-1.77-2.52-.11.29-.26.58-.5.79-1.13-.8-1.41-2.32-1.49-3.62-.41.38-.81.79-1.27,1.11-.28.21-.76.23-.97-.09-.51-.73-.52-1.65-.51-2.5.04-1.78.91-3.5,2.29-4.62.1-.04.21-.07.32-.11Z"/>
  <path class="cls-20" d="M39.26,29.39c1.88-.47,3.88-.12,5.63.66,1.28.6,2.48,1.38,3.5,2.36-.21.82-.49,1.62-.6,2.46-.77.16-1.55.2-2.33.13-2.1-.29-4.23-1.03-5.79-2.52-.74-.66-1.4-1.44-1.7-2.4.32-.39.82-.55,1.29-.69Z"/>
  <path class="cls-25" d="M91.2,29.55c1.57-.47,3.3-.52,4.86.03.3.12.77.37.56.76-.35.87-1,1.59-1.68,2.21-1.44,1.34-3.34,2.08-5.25,2.4-.92.16-1.85.08-2.76-.05-.12-.85-.34-1.68-.58-2.5,1.41-1.26,3.01-2.37,4.86-2.86Z"/>
  <path class="cls-11" d="M55.84,33.35c.56-.08,1.3-.19,1.7.32.25.31,0,.88-.41.82-1.02-.17-2.07.26-2.71,1.06-.24.39-.9.11-.76-.34.29-.96,1.22-1.65,2.18-1.86Z"/>
  <path class="cls-16" d="M77.61,33.35c1.35-.34,2.94.42,3.42,1.74.16.36-.17.8-.56.61-.31-.27-.55-.61-.9-.83-.59-.4-1.34-.49-2.03-.39-.32.04-.6-.32-.51-.62.1-.25.33-.43.58-.51Z"/>
  <path class="cls-1" d="M55.71,40.02c.62-.21,1.34-.19,1.91.15.87.45,1.42,1.37,1.58,2.32.17.95.15,1.99-.32,2.86-.47.96-1.52,1.65-2.6,1.55-1.02-.09-1.89-.83-2.29-1.75-.46-1.07-.46-2.31-.03-3.39.31-.78.93-1.48,1.75-1.74Z"/>
  <path class="cls-7" d="M77.69,39.97c.77-.22,1.59.07,2.21.54.57.46.88,1.16,1.04,1.86.25,1.15.12,2.44-.58,3.41-.57.8-1.6,1.28-2.58,1.07-.8-.13-1.48-.68-1.86-1.39-.6-1.13-.64-2.51-.16-3.69.32-.85,1.03-1.58,1.93-1.81Z"/>
  <path class="cls-30" d="M57.15,41.19c.59-.28,1.4.3,1.28.96-.04.65-.87,1.15-1.42.71-.63-.37-.53-1.41.15-1.67Z"/>
  <path class="cls-8" d="M78.81,41.26c.59-.39,1.48.2,1.37.89-.01.57-.73,1.1-1.26.79-.66-.28-.73-1.31-.11-1.67Z"/>
  <path class="cls-23" d="M66.05,45.97c1.74-.25,3.57,0,5.13.82,1.89.92,3.28,2.75,3.75,4.79.29,1.38.23,2.86-.31,4.17-.65,1.55-1.91,2.81-3.44,3.5-.94.46-1.96.76-3.01.81-1.21.04-2.44.04-3.59-.35-1.81-.53-3.44-1.76-4.33-3.43-.63-1.29-.87-2.79-.62-4.21.31-1.97,1.5-3.77,3.16-4.88.99-.63,2.1-1.05,3.27-1.21Z"/>
  <path class="cls-21" d="M53.4,48.04c.77-.09,1.57.06,2.25.44.53.34,1,.91,1,1.57,0,.59-.37,1.13-.86,1.44-.91.57-2.08.69-3.08.31-.71-.22-1.37-.72-1.6-1.45-.19-.6.11-1.24.57-1.64.47-.43,1.11-.6,1.73-.68Z"/>
  <path class="cls-35" d="M80.02,48.15c.82-.15,1.71-.16,2.47.23.59.28,1.03.88,1.07,1.54.04.47-.22.9-.53,1.23-.64.63-1.56.85-2.43.87-.83,0-1.69-.32-2.22-.97-.42-.52-.42-1.28-.08-1.84.34-.63,1.06-.91,1.73-1.06Z"/>
  <path class="cls-22" d="M70.87,54.41c-.29.32-.45.77-.85.97-.7.5-1.84.33-2.21-.49-.07-.58-.02-1.17-.03-1.75.79-.34,1.53-.78,2.17-1.36.55-.47,1.12-1.1,1.09-1.88,0-.65-.54-1.19-1.16-1.29-.95-.18-1.82.36-2.54.92-.5-.31-.98-.69-1.56-.84-.51-.15-1.11-.15-1.54.19-.49.34-.69,1.01-.49,1.57.18.61.66,1.05,1.12,1.45.62.5,1.28.97,2.03,1.24.01.55.03,1.1,0,1.65-.11.37-.41.66-.77.77-.75.28-1.68-.08-2.04-.8-.11-.2-.24-.46-.51-.42-.32.06-.42.44-.28.7.51,1.16,2.01,1.77,3.18,1.28.33-.13.59-.38.86-.61.58.63,1.49.94,2.33.72.78-.16,1.46-.73,1.77-1.46.18-.34-.19-.78-.55-.57Z"/>
  <path class="cls-31" d="M59.46,62.31c.61.09,1.19.31,1.8.41,3.25.74,6.63.78,9.93.4,1.37-.15,2.7-.49,4.04-.8,1.1,2.16,2.12,4.38,2.81,6.71.38,1.26.74,2.56.76,3.88-.24-.13-.48-.25-.72-.36.02.55.34,1,.61,1.45.21.33.14.74.08,1.1-.72-.35-1.19-1.06-1.93-1.37.1.54.29,1.05.35,1.6.11,1.13.29,2.27.17,3.41-.06.53-.12,1.05-.19,1.58,0,.15-.07.27-.16.39-.16-.46-.23-.97-.53-1.38-.1-.17-.36-.08-.3.13.05.81.21,1.61.25,2.43.01.37-.02.77-.23,1.09-.17.16-.33-.04-.42-.17-.5-.63-.75-1.45-1.4-1.96,0,1.79-.16,3.61-.77,5.3-.3-.36-.36-.84-.5-1.28-.06-.01-.18-.04-.24-.05,0,.59-.07,1.17-.09,1.76-.02.43.08.9-.16,1.29-.19.32-.37.71-.75.84-.47-.74-.57-1.7-1.16-2.35-.2.99-.43,1.98-.82,2.91-.21.5-.31,1.04-.55,1.52-.03.02-.1.05-.13.06-.39-.33-.49-.88-.88-1.22-.25.56-.1,1.18-.2,1.77-.14.37-.61.94-1.02.58-.55-.4-.74-1.07-.98-1.67-.2.02-.29.31-.44.45-.71-.92-1.02-2.06-1.41-3.13-.15-.41-.2-.84-.28-1.27-.55.64-.67,1.53-1.1,2.24-.14.19-.32-.04-.43-.13-.28-.31-.57-.67-.59-1.11-.05-.57-.08-1.15-.05-1.72,0-.18.05-.38-.06-.54-.39.19-.45.71-.68,1.05-.28-.31-.28-.76-.39-1.14-.21-.86-.26-1.75-.39-2.63-.07-.5.01-1.01,0-1.52-.67.65-1.01,1.55-1.62,2.25-.57-.44-.38-1.22-.36-1.83,0-.66.14-1.31.24-1.96-.54.13-.67.76-1.04,1.11-.43-2.22-.22-4.52.33-6.7-.69.38-1.21,1.03-1.93,1.34-.1-.45-.19-.97.06-1.39.26-.49.5-1,.65-1.54-.25.2-.48.41-.72.61-.08-.55.1-1.08.19-1.61.29-1.61.86-3.14,1.42-4.67.6-1.41,1.2-2.83,1.94-4.18Z"/>
  <path class="cls-2" d="M52.12,96.76c.16.31.34.63.48.95,1.51,3.3,2.75,6.74,3.59,10.27.14.72.38,1.45.25,2.19-.2-.04-.4-.08-.6-.12.16,1.03.39,2.04.47,3.08.06,1.05.21,2.11.06,3.16-.1,1.14-.57,2.28-1.46,3.01-1,.82-2.34,1.12-3.62,1.09-.81.03-1.61-.09-2.38-.31-.84-.27-1.66-.65-2.32-1.24.09-.03.26-.08.34-.11,1.25-.26,2.53-.72,3.39-1.71,1.18-1.23,1.36-3.01,1.47-4.63.07-2.47.19-4.94.18-7.42.06-.65.08-1.3.06-1.94.06-2.09.03-4.19.08-6.29Z"/>
  <path class="cls-15" d="M80.51,101.26c.64-1.52,1.18-3.09,2.04-4.51.05,1.08-.1,2.17.02,3.25.02,1.99.04,3.97.05,5.96-.02,1.06.12,2.1.09,3.16.04.93.01,1.86.11,2.79.05,1.66.13,3.48,1.21,4.84.83,1.17,2.24,1.7,3.59,1.99.09.03.26.08.34.11-.95.83-2.16,1.29-3.39,1.48-1.35.16-2.78.1-4.04-.46-.92-.41-1.64-1.21-1.99-2.14-.46-1.11-.36-2.34-.34-3.52.03-1.38.32-2.73.53-4.08-.23,0-.46,0-.69-.03.02-.37.04-.75.12-1.12.5-2.65,1.42-5.2,2.35-7.73Z"/>
  <path class="cls-5" d="M34.32,128.14c.73-.79,1.83-1.06,2.86-1.2,1.32-.11,2.76-.03,3.88.75-.09.2-.19.4-.19.63,0,1.58-.04,3.17-.02,4.75.03.76-.1,1.55.09,2.3-1.62.14-3.24-.05-4.86-.06-.49,0-.97-.1-1.46-.12-.39-.03-.8-.04-1.17-.21-.36-.16-.43-.59-.45-.94-.02-.92-.02-1.84.09-2.76.13-1.12.38-2.32,1.21-3.14Z"/>
  <path class="cls-5" d="M43.54,126.97c1.06-.14,2.16-.08,3.19.21,1.15.34,2.12,1.24,2.48,2.39.47,1.48.48,3.06.45,4.6,0,.3-.1.58-.29.81-.66.29-1.4.18-2.09.3-1.85.04-3.7.14-5.55.11.01-.07.05-.2.06-.27.11-.92,0-1.86.03-2.79.03-1.34-.03-2.67-.04-4.01-.01-.22-.09-.43-.15-.64.56-.41,1.23-.62,1.91-.72Z"/>
  <path class="cls-33" d="M87,127.57c1.24-.71,2.74-.73,4.13-.62.62.17,1.26.31,1.77.74-.19.72-.08,1.48-.12,2.22-.05,1.46.05,2.92-.05,4.38-.04.37.03.73.16,1.08-1.23.13-2.45-.02-3.68-.03-1.32-.05-2.65-.03-3.94-.28l-.03-.04c-.37-.39-.32-.96-.33-1.45-.02-1.26.08-2.54.43-3.76.27-.91.83-1.75,1.67-2.22Z"/>
  <path class="cls-24" d="M93.6,127.68c.85-.67,1.99-.77,3.04-.78,1.28.03,2.69.25,3.62,1.21.7.64.99,1.57,1.17,2.47.13,1.06.17,2.14.14,3.22-.02.35-.01.75-.26,1.03-.2.22-.51.26-.78.31-1.37.13-2.75.2-4.13.21-.93.07-1.88.1-2.81.02.29-.9.12-1.86.16-2.79.04-1.18-.09-2.35,0-3.52.03-.46-.02-.93-.14-1.37Z"/>
  <path class="cls-13" d="M41.06,127.69c.18.16.39.13.57,0,.06.21.14.42.15.64.01,1.34.07,2.67.04,4.01-.03.93.09,1.87-.03,2.79-.04.1-.09.19-.14.29-.23-.07-.47-.08-.7-.05-.2-.75-.07-1.53-.09-2.3-.03-1.58.02-3.17.02-4.75,0-.23.1-.43.19-.63Z"/>
  <path class="cls-28" d="M92.9,127.69c.23,0,.47,0,.7,0,.12.45.17.91.14,1.37-.08,1.17.05,2.35,0,3.52-.04.93.13,1.88-.16,2.79-.23-.02-.47-.02-.7,0-.13-.35-.2-.71-.16-1.08.1-1.46,0-2.92.05-4.38.04-.74-.07-1.49.12-2.22Z"/>
</svg>