<?xml version="1.0" encoding="UTF-8"?>
<svg id="_图层_1" data-name="图层 1" xmlns="http://www.w3.org/2000/svg" viewBox="0 0 156.06 127.8">
  <defs>
    <style>
      .cls-1 {
        fill: #f2b2ad;
      }

      .cls-2 {
        fill: #2b2c2b;
      }

      .cls-3 {
        fill: #f3b4ae;
      }

      .cls-4 {
        fill: #635873;
      }

      .cls-5 {
        fill: #846aa6;
      }

      .cls-6 {
        fill: #303030;
      }

      .cls-7 {
        fill: #fafafb;
      }

      .cls-8 {
        fill: #f9f9f9;
      }

      .cls-9 {
        fill: #2b2b2b;
      }

      .cls-10 {
        fill: #f1b0ac;
      }

      .cls-11 {
        fill: #e38092;
      }

      .cls-12 {
        fill: #625873;
      }

      .cls-13 {
        fill: #574d69;
      }

      .cls-14 {
        fill: #ba9fe2;
      }
    </style>
  </defs>
  <path class="cls-5" d="M146.61,107.17c0-20.89,0-41.78,0-62.66-.02-7.05.06-14.1.01-21.15.01-1.57-.13-3.14-.13-4.71-.15-2.23-.28-4.48-.84-6.65-.48-1.82-1.33-3.57-2.64-4.88-1.23-1.24-2.81-2.03-4.43-2.54-2.47-.73-5.09-.8-7.63-.45-2.29.37-4.59,1.11-6.49,2.54-1.52,1.12-2.68,2.71-3.49,4.46-2.07,4.2-4.25,8.35-6.37,12.52-2.43,4.69-4.79,9.41-7.23,14.1-2.14,4.2-4.32,8.37-6.44,12.58-.15-.67-.05-1.36-.12-2.04-.15-1.65-.54-3.27-1.09-4.82,1.08-.87,2.08-1.85,2.9-3,2.36-3.23,3.41-7.34,3.56-11.36.1-3.17-.15-6.39-1.09-9.43-.29-.89-.63-1.79-1.15-2.56-.22-.33-.52-.61-.89-.74-.68-.25-1.4,0-2.07.13-2.38.69-4.48,2.17-6.29,3.9-3.45,3.37-5.96,7.88-6.78,12.78-2.9-.76-5.95-.72-8.86-.04-.93-5.2-3.68-9.98-7.53-13.38-1.65-1.43-3.51-2.64-5.58-3.26-.71-.16-1.47-.4-2.18-.1-.6.27-.96.88-1.24,1.47-.67,1.43-1.09,2.98-1.37,4.55-.5,2.84-.62,5.75-.29,8.62.31,2.54.95,5.07,2.14,7.32,1,2,2.44,3.77,4.2,5.09-.86,2.07-1.15,4.34-1.17,6.58-1.72-3.36-3.43-6.72-5.17-10.06-4.98-9.74-10.1-19.4-15.09-29.13-.89-1.94-2.29-3.62-4.04-4.75-2.71-1.76-5.97-2.35-9.12-2.32-2.66.1-5.38.66-7.68,2.13-1.94,1.24-3.38,3.29-4.01,5.57-.85,2.96-.91,6.08-1.05,9.14,0,2.13-.14,4.26-.12,6.39,0,27.55,0,55.1,0,82.65-.04.79.08,1.57.09,2.36.13,2,.74,4.09,2.22,5.45,1.63,1.55,3.95,1.99,6.08,1.81,2.09-.16,4.19-1.22,5.32-3.12,1.12-1.92,1.22-4.25,1.22-6.44-.03-19.9-.01-39.81-.02-59.71.01-1.26.01-2.53.23-3.77.14-.78.52-1.59,1.26-1.92.87-.38,1.87-.17,2.72.17,1.77.73,3.22,2.07,4.59,3.42,3.25,3.36,5.98,7.2,8.62,11.09,5.33,7.96,10.14,16.28,14.8,24.68.78,1.54,1.71,2.99,2.41,4.57,1.61,2.7,2.97,5.64,5.2,7.86l.1-.02c-.03.06-.1.19-.13.25-1.49,1.37-2.67,3.09-3.47,4.99-.51,1.26-.93,2.67-.59,4.04.14.63.69,1.17,1.33,1.11.61.03,1.11-.42,1.47-.89-.07.74.04,1.55.53,2.12.55.57,1.48.59,2.1.15.49-.37.79-.93,1.05-1.48.1.48.21.99.56,1.34.34.4.91.44,1.37.31.69-.29,1.14-.99,1.46-1.67.86-1.96.93-4.18.85-6.3.12.02.35.05.46.07,1.1.16,2.22.21,3.31-.02.11-.02.34-.05.45-.06-.08,1.74-.07,3.52.42,5.21.27.91.66,1.83,1.37,2.47.39.37.97.43,1.47.3.6-.26.92-.97.91-1.62.3.42.47.95.89,1.29.59.56,1.56.67,2.18.1.65-.55.73-1.5.6-2.3.27.34.55.71.96.86.53.25,1.22.11,1.58-.38.37-.46.41-1.09.45-1.66-.06-1.48-.58-2.91-1.28-4.19-.78-1.47-1.8-2.81-3.02-3.91,1.23-1.27,2.27-2.73,3.16-4.28.76-1.24,1.39-2.57,2.18-3.8.34-.77.75-1.51,1.14-2.26.72-1.18,1.32-2.44,2.02-3.63,2.46-4.44,5-8.82,7.62-13.16,3.48-5.68,7.04-11.32,11.09-16.58,1.83-2.32,3.74-4.61,6.01-6.48,1.09-.86,2.31-1.62,3.68-1.87.63-.06,1.34-.1,1.87.32.65.47.87,1.34.98,2.11.23,2.04.16,4.1.17,6.14,0,12.1,0,24.2-.05,36.29-.01,6.84.01,13.68-.03,20.52.01,2.3.09,4.76,1.31,6.76,1.17,1.91,3.35,2.89,5.46,2.99,2.31.18,4.83-.51,6.38-2.42.9-1.11,1.37-2.53,1.57-3.96.27-1.9.16-3.82.18-5.74ZM72.82,57.65c-.51.32-1.13.32-1.7.27-.79-.24-1.41-.93-1.7-1.72-.03-.79.33-1.6,1-1.99,1.14-.75,2.95-.25,3.39,1.15.34.89-.22,1.89-.99,2.3ZM97.22,56.73c-.4.66-1.09,1.14-1.84,1.22-.86,0-1.81-.36-2.19-1.22-.34-.65-.19-1.46.23-2.03.59-.71,1.59-1.04,2.46-.75.62.16,1.12.62,1.42,1.2.19.51.19,1.1-.09,1.57Z"/>
  <path class="cls-3" d="M64.14,21.51c.27-.51.78-.92,1.36-.85.83.09,1.6.48,2.32.91,1.91,1.21,3.44,3.02,4.54,5.04.89,1.65,1.52,3.45,1.77,5.32.11,1.11.24,2.23.04,3.34-2.11,1.22-3.9,2.99-5.32,5.03-.31.42-.47.95-.83,1.33-.79-.76-1.5-1.6-2.15-2.48-2.75-4.13-3.65-9.44-2.79-14.36.22-1.13.5-2.28,1.06-3.28Z"/>
  <path class="cls-3" d="M96.89,23.48c1.21-1.27,2.66-2.41,4.37-2.79.55-.15,1.12.14,1.43.62.85,1.28,1.11,2.85,1.33,4.35.51,4.52-.31,9.3-2.74,13.12-.7,1.04-1.47,2.03-2.41,2.84-1.36-2.48-3.3-4.61-5.64-6.09-.21-.14-.5-.26-.48-.57-.3-4.22,1.32-8.49,4.14-11.5Z"/>
  <path class="cls-4" d="M74.15,43.12c.45-.13.98-.14,1.36.18.27.2.3.68.07.92-.32.43-.92.18-1.35.39-.46.11-.77.51-1.09.83-.3.3-.92.05-.87-.41.1-1.01.99-1.72,1.89-1.91Z"/>
  <path class="cls-12" d="M91.7,43.11c.59-.18,1.23-.04,1.74.3.55.31,1.12.78,1.2,1.48.05.36-.25.74-.61.62-.51-.21-.82-.77-1.37-.91-.44-.19-1-.01-1.36-.4-.34-.36-.03-1,.39-1.1Z"/>
  <path class="cls-2" d="M74.52,47.71c1.52-.5,3.21.66,3.53,2.26.4,1.51-.43,3.23-1.84,3.77-1.25.48-2.83-.02-3.47-1.28-.99-1.69-.15-4.32,1.78-4.74Z"/>
  <path class="cls-9" d="M91.08,47.68c.97-.26,2.05.08,2.71.86.63.64.88,1.59.83,2.49-.02,1.03-.62,1.97-1.44,2.51-.88.53-2.01.51-2.89-.01-1.12-.65-1.61-2.13-1.39-3.41.2-1.16,1.07-2.18,2.18-2.44Z"/>
  <path class="cls-7" d="M74.42,48.52c.92-.12,1.59,1.25.88,1.93-.53.68-1.66.35-1.87-.47-.19-.68.35-1.37.99-1.46Z"/>
  <path class="cls-8" d="M90.74,48.53c.84-.24,1.67.87,1.21,1.66-.31.68-1.26.85-1.74.28-.64-.58-.26-1.75.53-1.94Z"/>
  <path class="cls-13" d="M81.76,52.13c.52-.42,1.19-.12,1.69.18.31-.18.61-.46.99-.41.5-.03,1,.41.99.95-.03.6-.47,1.06-.9,1.41-.35.25-.66.63-1.09.74-.74-.28-1.36-.88-1.79-1.57-.26-.38-.32-1.01.11-1.29Z"/>
  <path class="cls-1" d="M70.41,54.2c1.14-.75,2.95-.25,3.39,1.15.34.89-.22,1.89-.99,2.3-.51.32-1.13.32-1.7.27-.79-.24-1.41-.93-1.7-1.72-.03-.79.33-1.6,1-1.99Z"/>
  <path class="cls-10" d="M93.42,54.7c.59-.71,1.59-1.04,2.46-.75.62.16,1.12.62,1.42,1.2.19.51.19,1.1-.09,1.57-.4.66-1.09,1.14-1.84,1.22-.86,0-1.81-.36-2.19-1.22-.34-.65-.19-1.46.23-2.03Z"/>
  <path class="cls-6" d="M79.94,55.48c1.7.7,3.58.75,5.37.48.58-.06,1.1-.39,1.68-.45.06.86-.2,1.71-.54,2.48-.16.33-.31.71-.61.92-.32-.51-.86-.8-1.39-1.01-1.22-.47-2.67-.04-3.52.99-.61-1.01-1.1-2.2-1-3.42Z"/>
  <path class="cls-11" d="M80.95,58.9c.85-1.02,2.3-1.45,3.52-.99.53.2,1.07.5,1.39,1.01l.06.09c-.66.9-1.73,1.54-2.83,1.36-.89-.11-1.65-.7-2.14-1.46Z"/>
  <g>
    <path class="cls-14" d="M52.09,58.98c-2.64-3.89-5.37-7.73-8.62-11.09-1.37-1.35-2.82-2.68-4.59-3.42-.85-.35-1.84-.55-2.72-.17-.73.32-1.12,1.13-1.26,1.92-.21,1.24-.21,2.51-.23,3.77,0,19.9,0,39.81.02,59.71.65-2.64,1.43-5.26,2.58-7.71,1.01-2.2,2.27-4.31,3.97-6,1.47-1.5,3.37-2.65,5.45-2.78,1.8-.14,3.57.49,5.1,1.44-.02-.7-.03-1.39-.03-2.09.06-2,.52-4.02,1.59-5.7,1.06-1.72,2.78-2.99,4.7-3.4,1.89-.44,3.89-.12,5.66.68,2,.85,3.73,2.28,5.26,3.86.09.09.2.17.31.24-.7-1.58-1.63-3.03-2.41-4.57-4.65-8.4-9.46-16.73-14.8-24.68Z"/>
    <path class="cls-14" d="M131.63,46.58c-.11-.78-.33-1.64-.98-2.11-.54-.41-1.25-.38-1.87-.32-1.37.25-2.58,1-3.68,1.87-2.28,1.86-4.18,4.16-6.01,6.48-4.04,5.26-7.61,10.9-11.09,16.58-2.62,4.33-5.16,8.72-7.62,13.16-.7,1.19-1.3,2.45-2.02,3.63-.39.75-.8,1.48-1.14,2.26.51-.29.85-.81,1.29-1.19,1.81-1.66,3.95-3.03,6.34-3.52,2.1-.45,4.41-.11,6.18,1.21,1.58,1.12,2.65,2.89,3.19,4.78.46,1.69.56,3.47.4,5.21,1.46-.87,3.1-1.51,4.8-1.45,1.51.04,2.98.61,4.23,1.49,1.56,1.12,2.82,2.65,3.88,4.29,1.5,2.39,2.58,5.03,3.41,7.75.3.93.47,1.91.77,2.85.04-6.84.02-13.68.03-20.52.05-12.1.05-24.2.05-36.29,0-2.05.06-4.11-.17-6.14Z"/>
    <path class="cls-14" d="M88.17,67.37c-1.83-1.2-4.04-1.71-6.18-1.4-2.1.26-4.08,1.31-5.58,2.88-1.79,1.78-2.96,4.15-3.65,6.6-.71,2.44-.96,5.02-.81,7.56.27,4.12,1.57,8.3,4.23,11.41,1.53,1.75,3.61,3.05,5.88,3.33,1.51.22,3.08-.01,4.49-.65,1.58-.68,2.93-1.86,4.01-3.24,1.13-1.39,1.95-3.03,2.59-4.73.88-2.32,1.23-4.82,1.29-7.3-.02-3.36-.61-6.8-2.19-9.76-.95-1.9-2.35-3.56-4.08-4.71Z"/>
  </g>
</svg>