<?xml version="1.0" encoding="UTF-8"?>
<svg id="_图层_1" data-name="图层 1" xmlns="http://www.w3.org/2000/svg" viewBox="0 0 145.08 138.39">
  <defs>
    <style>
      .cls-1 {
        fill: #fcfcfc;
      }

      .cls-2 {
        fill: #2a1d16;
      }

      .cls-3 {
        fill: #241711;
      }

      .cls-4 {
        fill: #76a9d9;
      }

      .cls-5 {
        fill: #fbfbfb;
      }

      .cls-6 {
        fill: #241710;
      }

      .cls-7 {
        fill: #fab8c1;
      }

      .cls-8 {
        fill: #fef7e6;
      }

      .cls-9 {
        fill: #fecc50;
      }

      .cls-10 {
        fill: #5591c6;
      }

      .cls-11 {
        fill: #5793c7;
      }

      .cls-12 {
        fill: #76a8d8;
      }

      .cls-13 {
        fill: #fecd52;
      }

      .cls-14 {
        fill: #8dbce8;
      }

      .cls-15 {
        fill: #fab9c2;
      }

      .cls-16 {
        fill: #2d1e14;
      }

      .cls-17 {
        fill: #261914;
      }

      .cls-18 {
        fill: #fdfdfd;
      }
    </style>
  </defs>
  <path class="cls-14" d="M130.47,36.66c-1.64-6.21-4.66-12.16-9.07-17.17-3.28-3.74-7.36-6.91-11.9-9.31-6.26-3.3-13.36-4.95-20.43-5.94-6.69-.92-13.44-1.37-20.18-1.77-.93-.03-1.86-.16-2.79-.12-1.26-.07-2.53-.14-3.79-.2-1.21.06-2.42-.14-3.63-.09-2.61-.11-5.23-.1-7.84-.08-3.73.13-7.53.19-11.13,1.14-2.4.65-4.72,1.81-6.28,3.63-1.83,2.01-2.75,4.59-3.19,7.14-.19,1-.25,2.03-.4,3.04-.84,11.71-1.7,23.42-2.51,35.12.04.48-.04.95-.1,1.42-.41,5.46-.75,10.93-1.22,16.39v.02c-.02,1.14-.17,2.27-.22,3.4-1.07,14.85-2.13,29.7-3.2,44.55-.13,1.27-.11,2.54-.12,3.82.18,1.57.33,3.25,1.38,4.58.65-.8,1.47-1.49,2.45-1.95,2.22-1.04,4.85-1.2,7.29-.76,1.82.32,3.61,1.01,4.96,2.2.26-1.98.33-3.97.5-5.96,1.74-23.82,3.62-47.62,5.35-71.44.23-2.75.33-5.51.66-8.25.33-2.59.98-5.19,2.31-7.5,1.3-2.34,3.45-4.24,5.96-5.49,3.91-1.97,8.5-2.47,12.93-2.38-.14-.31-.4-.64-.33-.98,1.04-1.83,2.92-3.25,5.12-3.76,1.63-.41,3.41-.28,5,.25,2.19.77,3.99,2.45,4.78,4.47.1.38-.21.7-.41,1,6.94.77,13.91,2.37,20.02,5.62,4.48,2.41,8.29,5.88,10.88,9.99,1.88,2.94,3.11,6.2,3.68,9.55.64,3.51.59,7.1,0,10.6-.58,3.45-1.73,6.83-3.46,9.94-3.01,5.5-7.87,10.18-13.9,12.96-3.28,1.54-6.82,2.59-10.46,3.19-4.17.69-8.45.84-12.69.69-3.68-.11-7.35-.41-11.01-.79-1.1-.03-2.34.06-3.15.82-1.05.88-1.09,2.28-1.15,3.5-.8,11.12-1.61,22.25-2.39,33.37,1.43.21,2.86.57,4.12,1.27,1.16.57,2.11,1.47,2.77,2.51.49-.5.77-1.13,1.08-1.74.66-1.67.89-3.44,1.13-5.19.29-3.25.6-6.51.85-9.76.35-4.06.71-8.12,1-12.18,0-.42.47-.76.92-.67,1.95.14,3.9.32,5.86.45,3.49.21,7,.26,10.49.02,6.54-.42,13.02-1.81,18.92-4.37,4.65-1.97,8.89-4.7,12.57-7.93,3.89-3.44,7.09-7.51,9.47-11.95.66-1.16,1.2-2.37,1.73-3.59,1.2-2.85,2.2-5.78,2.83-8.79.25-1.19.57-2.37.74-3.58,1.21-7.59,1.2-15.44-.78-22.96Z"/>
  <path class="cls-2" d="M54.7,7.84c.62-.07,1.32-.03,1.85.31.39.29.03.91-.45.77-.79-.24-1.75-.2-2.38.33-.23.17-.31.52-.64.56-.41.1-.79-.4-.56-.72.47-.69,1.3-1.14,2.17-1.25Z"/>
  <path class="cls-17" d="M92.75,10.6c1.38-.25,2.96.44,3.47,1.67.12.35-.26.72-.65.61-.3-.11-.35-.43-.55-.63-.54-.59-1.47-.82-2.27-.69-.29.07-.66-.18-.59-.47-.02-.29.32-.45.59-.49Z"/>
  <path class="cls-18" d="M52.81,12.66c1.1-.61,2.5-.63,3.71-.27,1.91.58,3.22,2.36,3.34,4.15.1.47.12.96-.07,1.42.04-1.49-1.07-3.04-2.69-3.42-1.22-.29-2.6.07-3.41.94-1.26,1.29-1.49,3.33-.6,4.87.67,1.21,2.26,1.97,3.71,1.6-.86.37-1.84.41-2.78.32-1.53-.3-2.95-1.27-3.55-2.61-1.18-2.44-.3-5.72,2.34-6.99Z"/>
  <path class="cls-18" d="M90.42,15.35c1.3-.67,2.97-.64,4.3-.02.79.41,1.45,1.01,1.97,1.69,1.03,1.64,1.15,3.74.22,5.41-.81,1.67-2.82,2.85-4.86,2.57-.57-.16-1.24-.15-1.73-.47l-.03-.15c1.15.45,2.53.09,3.38-.69,1.46-1.36,1.81-3.71.55-5.32-.73-1.01-2.13-1.58-3.42-1.36-1.65.22-2.88,1.64-3,3.12-.3-.22-.14-.54-.08-.83.17-1.6,1.15-3.15,2.68-3.96Z"/>
  <path class="cls-6" d="M90.81,17.01c1.3-.22,2.7.35,3.42,1.36,1.25,1.61.91,3.96-.55,5.32-.85.78-2.23,1.14-3.38.69-1.12-.33-1.87-1.26-2.28-2.22-.27-.65-.25-1.35-.2-2.03.11-1.48,1.35-2.9,3-3.12Z"/>
  <path class="cls-3" d="M53.68,15.48c.81-.87,2.2-1.23,3.41-.94,1.63.38,2.73,1.93,2.69,3.42.08,1.72-1.15,3.51-2.99,3.99-1.45.38-3.05-.39-3.71-1.6-.9-1.55-.67-3.58.6-4.87Z"/>
  <path class="cls-5" d="M55.27,15.66c1.08-.23,1.86,1.12,1.26,1.87-.2.32-.58.48-.95.55-.61.06-1.22-.36-1.35-.9-.22-.67.31-1.39,1.05-1.52Z"/>
  <path class="cls-1" d="M90.22,18.15c.76-.16,1.51.5,1.5,1.18.06.53-.35,1.01-.88,1.19-.57.21-1.28-.07-1.53-.58-.46-.69.04-1.66.91-1.8Z"/>
  <path class="cls-13" d="M71.05,19.99c1.63-.41,3.41-.28,5,.25,2.19.77,3.99,2.45,4.78,4.47.1.38-.21.7-.41,1-1.19,1.56-3.01,2.73-5.08,3.1-3.55.75-7.53-1.07-9.08-4.09-.14-.31-.4-.64-.33-.98,1.04-1.83,2.92-3.25,5.12-3.76Z"/>
  <path class="cls-15" d="M43.11,20.92c.72-.05,1.49,0,2.13.33,1.08.5,1.82,1.57,1.85,2.67,0,.8-.37,1.59-1.03,2.11-1.42,1.26-4.07,1.02-5.25-.46-.71-.96-.8-2.29-.11-3.27.48-.8,1.43-1.28,2.41-1.4Z"/>
  <path class="cls-7" d="M102.33,25.16c.95-.09,1.96.17,2.69.76.93.72,1.41,1.95,1.04,3.02-.41,1.4-2.08,2.35-3.64,2.12-1.44-.1-2.8-1.14-3-2.47-.38-1.64,1.09-3.34,2.91-3.43Z"/>
  <path class="cls-16" d="M69.12,23.98c.11-.31.5-.44.8-.25.26.3.32.7.61.98.8.86,2.08,1.21,3.27,1.19,1.16,0,2.37-.5,2.94-1.45.2-.45,1.01-.22.86.27-.53,1.05-1.68,1.74-2.9,1.96-1.31.19-2.76.07-3.9-.63-.79-.48-1.51-1.19-1.68-2.06Z"/>
  <path class="cls-8" d="M115,50.87c-.57-3.35-1.8-6.61-3.68-9.55-2.59-4.12-6.41-7.58-10.88-9.99-6.11-3.25-13.08-4.85-20.02-5.62-1.19,1.56-3.01,2.73-5.08,3.1-3.55.75-7.53-1.07-9.08-4.09-4.43-.09-9.02.42-12.93,2.38-2.51,1.25-4.67,3.15-5.96,5.49-1.34,2.31-1.98,4.91-2.31,7.5-.33,2.74-.44,5.5-.66,8.25-1.73,23.82-3.6,47.62-5.35,71.44-.17,1.98-.24,3.98-.5,5.96,1.16,1.12,2.12,2.63,1.85,4.21.6.1,1.21.12,1.82.15.97.02,1.94.18,2.92.2.57,0,1.18.26,1.72.01.18-1.97,1.79-3.6,3.68-4.43,1.93-.84,4.14-.99,6.25-.74.78-11.12,1.59-22.25,2.39-33.37.06-1.22.1-2.62,1.15-3.5.81-.76,2.05-.85,3.15-.82,3.66.38,7.33.69,11.01.79,4.24.14,8.52,0,12.69-.69,3.64-.59,7.18-1.65,10.46-3.19,6.04-2.78,10.9-7.46,13.9-12.96,1.73-3.11,2.87-6.49,3.46-9.94.59-3.5.64-7.09,0-10.6ZM96.9,60.53c-1.3,2.83-3.54,5.3-6.37,6.95-2.43,1.43-5.23,2.31-8.11,2.66-1.04.13-2.08.29-3.14.28-2.29.11-4.59.09-6.88-.08-2.84-.37-5.85-.49-8.39-1.85-1.12-.54-1.89-1.54-2.32-2.61-.46-1.41-.6-2.89-.44-4.34.04-.59-.07-1.19-.01-1.78.26-3.47.49-6.94.75-10.41.17-1.9.17-3.82.56-5.69.16-1.88.51-3.9,1.98-5.31,1.25-1.06,3.01-1.48,4.69-1.59,1.27-.15,2.55-.05,3.82-.08,1.85.05,3.7.24,5.53.52,3.54.4,7.09,1.14,10.32,2.58,1.42.54,2.65,1.4,3.86,2.24,1.09.88,2.14,1.84,2.92,2.97,1.34,1.67,2.07,3.67,2.51,5.67.57,3.32.11,6.76-1.28,9.85Z"/>
  <path class="cls-4" d="M130.51,63.2c.25-1.19.57-2.37.74-3.58,2.3,1.37,4.15,3.32,5.51,5.49,1.36,2.2,2.23,4.68,2.28,7.21.09,1.34-.18,2.68-.49,3.98-.4,1.25-1,2.52-2.08,3.41-.88.73-2.12,1.04-3.3.91-1.11-.2-2.22-.51-3.17-1.09-1.68-.99-3.02-2.41-4.05-3.96.66-1.16,1.2-2.37,1.73-3.59,1.2-2.85,2.2-5.78,2.83-8.79Z"/>
  <path class="cls-12" d="M27.32,52.06c-1.25.24-2.46.66-3.56,1.25-3,1.55-5.41,3.94-7.1,6.65-1.44,2.39-2.25,5.13-2.11,7.88.07,1.33.46,2.72,1.5,3.71.94.81,2.28,1.15,3.55,1.07,2.42-.15,4.68-1.24,6.42-2.73v-.02c.47-5.46.8-10.93,1.22-16.39.06-.47.14-.95.1-1.42ZM19.51,69.66c-.17.41-.82.5-1.16.2-.25-.29-.11-.67.06-.95,1.11-1.83,2.67-3.45,4.59-4.6.25.01.52-.02.76.08.36.18.38.71.03.9-.64.4-1.28.81-1.81,1.33-1.01.88-1.81,1.93-2.47,3.04Z"/>
  <path class="cls-11" d="M130.23,71.66c.26-.12.59-.05.81.12.76.55,1.28,1.32,1.78,2.06.52.78,1.01,1.59,1.26,2.47.12.48.4.96.29,1.46-.16.42-.78.4-1.09.13-.35-1.07-.81-2.11-1.36-3.11-.51-.86-1.22-1.6-1.9-2.35-.23-.26-.06-.62.21-.78Z"/>
  <path class="cls-10" d="M23,64.3c.25.01.52-.02.76.08.36.18.38.71.03.9-.64.4-1.28.81-1.81,1.33-1.01.88-1.81,1.93-2.47,3.04-.17.41-.82.5-1.16.2-.25-.29-.11-.67.06-.95,1.11-1.83,2.67-3.45,4.59-4.6Z"/>
  <path class="cls-9" d="M26.29,124.3c2.22-1.04,4.85-1.2,7.29-.76,1.82.32,3.61,1.01,4.96,2.2,1.16,1.12,2.12,2.63,1.85,4.21-.12.78-.84,1.39-1.68,1.54-1.42.29-2.87-.42-3.79-1.39-.12-.09-.18-.27-.35-.28-.37.87-1.22,1.59-2.23,1.78-.83.16-1.7-.05-2.43-.44-.67-.4-1.09-1.07-1.29-1.76-.26.03-.4.27-.61.39-.83.56-1.88.95-2.94.82-.76-.1-1.53-.44-1.93-1.06-.57-1.1-.05-2.4.7-3.3.65-.8,1.47-1.49,2.45-1.95Z"/>
  <path class="cls-9" d="M50.53,125.89c1.93-.84,4.14-.99,6.25-.74,1.43.21,2.86.57,4.12,1.27,1.16.57,2.11,1.47,2.77,2.51.48.81.8,1.74.68,2.66-.07.67-.59,1.25-1.25,1.51-1.07.41-2.33.14-3.27-.46-.51-.3-.9-.73-1.34-1.1-.31.9-1.18,1.62-2.2,1.8-.85.04-1.81.02-2.52-.48-.6-.42-1.01-1.05-1.19-1.71-.2,0-.31.18-.45.27-.92.71-2.17,1.11-3.38.9-1.02-.16-1.95-1.01-1.91-1.99.18-1.97,1.79-3.6,3.68-4.43Z"/>
</svg>