<?xml version="1.0" encoding="UTF-8"?>
<svg id="_图层_1" data-name="图层 1" xmlns="http://www.w3.org/2000/svg" viewBox="0 0 137.96 173.15">
  <defs>
    <style>
      .cls-1 {
        fill: #f7a350;
      }

      .cls-2 {
        fill: #611e01;
      }

      .cls-3 {
        fill: #4b1702;
      }

      .cls-4 {
        fill: #4c1b06;
      }

      .cls-5 {
        fill: #c8804b;
      }

      .cls-6 {
        fill: #571e07;
      }

      .cls-7 {
        fill: #4b1805;
      }

      .cls-8 {
        fill: #f7a75a;
      }

      .cls-9 {
        fill: #fa8f80;
      }

      .cls-10 {
        fill: #fdbf7e;
      }

      .cls-11 {
        fill: #4b1a04;
      }

      .cls-12 {
        fill: #fdca96;
      }

      .cls-13 {
        fill: #f29641;
      }

      .cls-14 {
        fill: #fbc388;
      }

      .cls-15 {
        fill: #f6a14e;
      }

      .cls-16 {
        fill: #f27167;
      }

      .cls-17 {
        fill: #fa8f81;
      }

      .cls-18 {
        fill: #f39743;
      }

      .cls-19 {
        fill: #571e05;
      }

      .cls-20 {
        fill: #581b02;
      }

      .cls-21 {
        fill: #531b01;
      }

      .cls-22 {
        fill: #491905;
      }

      .cls-23 {
        fill: #c87f4a;
      }

      .cls-24 {
        fill: #38160b;
      }

      .cls-25 {
        fill: #f19440;
      }

      .cls-26 {
        fill: #f7a453;
      }

      .cls-27 {
        fill: #fbc081;
      }

      .cls-28 {
        fill: #fbfbfb;
      }

      .cls-29 {
        fill: #f09440;
      }

      .cls-30 {
        fill: #611f03;
      }

      .cls-31 {
        fill: #f6a14f;
      }

      .cls-32 {
        fill: #fecf99;
      }

      .cls-33 {
        fill: #f59e4b;
      }

      .cls-34 {
        fill: #fcc68f;
      }

      .cls-35 {
        fill: #fbc58d;
      }

      .cls-36 {
        fill: #451806;
      }

      .cls-37 {
        fill: #fb9081;
      }

      .cls-38 {
        fill: #551b05;
      }

      .cls-39 {
        fill: #401705;
      }

      .cls-40 {
        fill: #fffcdc;
      }

      .cls-41 {
        fill: #521c04;
      }

      .cls-42 {
        fill: #3f1104;
      }

      .cls-43 {
        fill: #472316;
      }

      .cls-44 {
        fill: #fffbe4;
      }

      .cls-45 {
        fill: #fbfafa;
      }

      .cls-46 {
        fill: #fefefe;
      }

      .cls-47 {
        fill: #da564d;
      }

      .cls-48 {
        fill: #fcc58b;
      }

      .cls-49 {
        fill: #4c1905;
      }

      .cls-50 {
        fill: #f49b47;
      }

      .cls-51 {
        fill: #c67f4b;
      }

      .cls-52 {
        fill: #fee5c1;
      }

      .cls-53 {
        fill: #f39945;
      }

      .cls-54 {
        fill: #441707;
      }

      .cls-55 {
        fill: #fcc388;
      }

      .cls-56 {
        fill: #c8824f;
      }

      .cls-57 {
        fill: #4d1b05;
      }
    </style>
  </defs>
  <path class="cls-26" d="M88.41,22.57c1.33-.69,2.81-1.34,4.34-1.09,1.11.3,1.88,1.3,2.26,2.34.93,2.52,1.18,5.22,1.45,7.88.29,3.74.26,7.51-.2,11.24-.03.17-.06.34-.09.51-.76-.82-1.64-1.53-2.44-2.31.3-2.67.48-5.37.28-8.05-.1-2.29-.31-4.62-1.07-6.8-.2-.59-.55-1.24-1.2-1.41-.75-.15-1.46.23-2.12.55-1.7.93-3.14,2.24-4.52,3.58-1.59,1.6-3.04,3.34-4.29,5.22-1.38-.43-2.77-.8-4.18-1.14,1.64-2.15,3.51-4.12,5.49-5.95,1.93-1.72,4-3.32,6.27-4.56Z"/>
  <path class="cls-52" d="M89.64,25.43c.65-.32,1.37-.7,2.12-.55.65.17,1,.82,1.2,1.41.76,2.18.97,4.51,1.07,6.8.19,2.68.01,5.38-.28,8.05.8.78,1.68,1.48,2.44,2.31.03-.17.06-.34.09-.51,0,.19.01.38.02.57,1.33,1.47,2.54,3.06,3.48,4.81.52,1.02,1.11,2.05,1.27,3.21-2.28-.03-4.56.3-6.76.9-.32.09-.75.19-.82.57-.09.4.39.68.74.56.84.13,1.65-.3,2.49-.34-.02-.05-.07-.16-.09-.21.8-.15,1.61-.25,2.42-.31.83.26,1.71.03,2.56.1.29,1.57.66,3.13.69,4.74-.07-.02-.22-.07-.29-.09-.34-.11-.67-.22-1-.31-.71-.21-1.42-.41-2.15-.53-1.41-.28-2.85-.43-4.29-.47-.45-.04-.79.34-.66.78.3.38.81.26,1.23.31.66.07,1.33.11,2,.18.3.07.62.11.93.15.97.18,1.92.43,2.88.67h0c.41.16.84.3,1.26.46.28.74-.03,1.52-.03,2.28-.12.7.02,1.51-.45,2.09-2.25-1.58-4.79-2.77-7.46-3.46-.42-.22-1.13-.04-1,.55.28.53.99.47,1.48.67,2.41.79,4.71,1.93,6.77,3.4-.07.87-.47,1.66-.83,2.44-.97,2.05-2.32,3.96-4.16,5.33-2.02,1.5-4.51,2.41-7.04,2.37-2.09.02-4.12-.63-6.02-1.44-1.68-.77-3.28-1.7-4.95-2.47-4.01-1.99-8.61-2.78-13.06-2.25-4.76.48-9.33,2.63-12.77,5.96-3,2.89-5.29,6.49-6.81,10.36-1.83,4.65-2.64,9.66-2.73,14.64-.1,5.39.64,10.81,2.42,15.91,1.55,4.32,3.88,8.42,7.15,11.66,2.71,2.77,6.03,4.92,9.67,6.27,5.44,2.01,11.46,2.17,17.08.89.79-.16,1.57-.45,2.38-.51-.08,1.51.26,3.13,1.3,4.27.71.84,1.81,1.32,2.91,1.28.88-.02,1.73-.39,2.41-.94,1.06-.8,1.8-1.94,2.37-3.12.62-1.5,1.13-3.15.84-4.79.96-.14,1.95-.14,2.9.07.89,2.41.17,5.15-1.27,7.18-.74,1.16-1.7,2.14-2.49,3.26-1.49,1.98-2.62,4.31-2.89,6.79-.33,2.44.11,5.08,1.63,7.07,1.02,1.26,2.51,2.26,4.18,2.29-1.21.5-2.39,1.13-3.67,1.43-.02.09-.05.25-.06.34-.17-1.31-.64-2.63-1.57-3.6-.41-.42-.78-.89-1.26-1.23-1.7-1.16-3.74-1.77-5.79-1.77-.39.02-.98-.1-1.15.37-.18.37.24.69.59.62,1.42-.04,2.87.19,4.18.74,1.16.6,2.38,1.27,3.04,2.44.87,1.19,1.15,2.75.88,4.2-.4,1.76-2.12,2.98-3.86,3.17.57-1.49.71-3.19.21-4.72-.07-.28-.44-.52-.7-.31-.28.2-.16.57-.12.85.3,1.51.14,3.17-.69,4.5-1.37.09-2.74.15-4.11.2.67-1.39.83-3,.61-4.52-.05-.34-.15-.77-.54-.86-.3.02-.53.29-.46.59.22,1.59.13,3.35-.77,4.73-1.73-.03-3.52-.38-4.94-1.45-.46-.4-.81-.91-1.04-1.46-.3-.89-.36-1.83-.3-2.76.11-.94.38-1.87.9-2.66.1-.2.28-.39.25-.62-.04-.38-.6-.57-.85-.25-.99,1.23-1.28,2.86-1.34,4.4-.02.79.11,1.59.43,2.31.13.29.26.59.43.86-4.94.52-9.95.34-14.85-.39.75-1.3.78-2.87.51-4.31-.11-.86-.45-1.67-.86-2.43-.15-.27-.38-.57-.71-.6-.26.02-.44.26-.46.51.14.4.39.74.57,1.12.7,1.44.73,3.13.3,4.65-.3,1.06-1.2,1.8-2.15,2.26-1.19.66-2.58.68-3.89.82-.89-1.39-.93-3.15-.74-4.74.07-.31-.17-.61-.49-.59-.28.07-.42.34-.46.61-.3,1.58-.16,3.27.53,4.74-1.37.05-2.74-.07-4.11-.16-.9-1.44-.93-3.26-.61-4.88.09-.31-.26-.67-.56-.53-.18.05-.26.23-.32.39-.49,1.56-.38,3.28.24,4.79-.6-.19-1.21-.37-1.79-.64-.62-.33-1.15-.81-1.58-1.36-.48-.79-.69-1.72-.59-2.64.11-1.08.39-2.2,1.11-3.04.35-.42.69-.86,1.12-1.21,1.61-1.2,3.64-1.82,5.65-1.75.23,0,.46,0,.68-.04.39-.18.34-.9-.14-.91-1.35-.1-2.74-.02-4.02.44.25-1.1-.03-2.24-.49-3.24-.72-1.41-1.97-2.47-3.27-3.32-1.25-.83-2.4-1.88-3.12-3.21-1.16-2.02-1.41-4.39-1.66-6.66-.2-2.25-.48-4.52-1.23-6.66-.79-2.29-2.14-4.46-4.15-5.86-3.75-2.74-9.39-2.03-12.59,1.25-.35-.83-.55-1.71-.8-2.58-.69-2.19-1.23-4.43-1.73-6.67,1.96.04,3.95-.51,5.54-1.67,1.67-1.19,2.92-2.98,3.35-4.99.38-1.46.21-3.01-.24-4.44-.77-2.09-2.46-3.86-4.56-4.62-1.88-.68-4.01-.63-5.87.08-.16-2.46,0-4.92.1-7.38.12-1.56.22-3.12.41-4.67,0,.11,0,.33,0,.44,1.43.07,2.87-.04,4.27-.36,7.01-1.73,12.68-8.14,13.25-15.38.17-1.72-.1-3.46-.62-5.1.14-.08.27-.17.41-.25,1.02-.61,2.07-1.16,3.17-1.61.4-.11.51-.74.11-.93-.37-.16-.75.1-1.09.22-1,.45-1.99.93-2.92,1.52-.41-1-.83-1.99-1.27-2.97,1.11-.38,2.25-.63,3.39-.89.31-.08.7-.02.93-.28.24-.25.1-.73-.23-.81-.45-.04-.89.09-1.33.18-1.12.19-2.23.5-3.31.85-.31-.7-.68-1.38-1.02-2.06-.38-.73-.79-1.47-1.41-2.03,1.09-.29,2.24.19,3.3-.22,1.18.06,2.35.28,3.5.5.35.09.67-.29.56-.62-.06-.34-.44-.42-.72-.48-3.29-.68-6.7-.71-10.01-.17.21-.85.78-1.54,1.15-2.32.33-.7.69-1.38,1.14-2.02.62-.9,1.13-1.88,1.78-2.76.18-.3.53-.6.41-.99-.83-3.63-1.34-7.33-1.5-11.05-.09-2.34-.04-4.7.45-6.99.18-.72.45-1.51,1.13-1.9.75-.4,1.64-.3,2.43-.11,2.23.6,4.29,1.7,6.24,2.93,2.26,1.46,4.37,3.15,6.29,5.04,1.2-.53,2.41-1.04,3.61-1.57.91-.32,1.79-.74,2.74-.93.62,1.51,1.43,2.94,2.44,4.22.63.73,1.33,1.56,2.34,1.74.53.12,1.07-.23,1.27-.71.49-1.05.23-2.24.11-3.34-.24-1.1-.44-2.22-.85-3.27.9-.12,1.78-.34,2.67-.46.25,1.19.54,2.37.97,3.5.43,1.13.84,2.29,1.57,3.26.37.51.85,1.07,1.52,1.09.58.04,1.05-.42,1.26-.92.5-1.13.58-2.39.59-3.61-.05-1.37-.05-2.76-.42-4.08.03.01.09.04.12.05.86.3,1.77-.12,2.66-.07-.12.97.07,1.93.22,2.88.21,1.25.46,2.53,1.11,3.64.26.43.67.83,1.19.87.57,0,1.04-.4,1.35-.84.72-.96,1.03-2.15,1.34-3.29.2-.75.23-1.54.36-2.3.04-.15.08-.3.13-.45.7-.09,1.42.13,2.1-.09.35-.09.7.07,1.05.11.9.18,1.83.24,2.7.55,1.4.34,2.8.71,4.18,1.14,1.26-1.87,2.7-3.62,4.29-5.22,1.38-1.33,2.83-2.65,4.52-3.58Z"/>
  <path class="cls-8" d="M26.4,25.9c1.02-.3,2.09-.12,3.12,0,3.63.73,6.94,2.49,10.02,4.49,2.32,1.54,4.56,3.23,6.57,5.15-1.2.52-2.41,1.04-3.61,1.57-1.92-1.89-4.03-3.58-6.29-5.04-1.95-1.22-4-2.33-6.24-2.93-.79-.19-1.68-.29-2.43.11-.68.39-.95,1.18-1.13,1.9-.49,2.29-.54,4.66-.45,6.99.17,3.72.67,7.42,1.5,11.05.13.39-.23.68-.41.99-.66.88-1.16,1.86-1.78,2.76-.83-2.67-1.24-5.45-1.63-8.2-.1-1.14-.3-2.27-.34-3.41-.16-1.1-.07-2.21-.22-3.31.02-1.32-.07-2.65.07-3.97.1-2.02.22-4.1.98-6.01.38-1.01,1.21-1.85,2.26-2.15Z"/>
  <path class="cls-37" d="M89.64,28.88c.49-.16,1.06.07,1.3.53.35.66.44,1.41.55,2.14.25,2.33.25,4.71-.11,7.03-.01.2-.16.47-.4.42-.74-.4-1.43-.88-2.16-1.3-1.6-.88-3.24-1.69-4.94-2.37-.18-.05-.2-.28-.12-.41.23-.47.55-.9.86-1.33.92-1.22,1.89-2.42,3.05-3.43.58-.53,1.19-1.09,1.97-1.29Z"/>
  <path class="cls-29" d="M63.91,32.01c2.2-.2,4.44-.12,6.65.1.07.28.12.56.11.85-.13.77-.16,1.55-.36,2.3-.3,1.14-.61,2.33-1.34,3.29-.31.44-.79.84-1.35.84-.53-.04-.94-.44-1.19-.87-.65-1.11-.9-2.39-1.11-3.64-.15-.95-.34-1.91-.22-2.88-.89-.05-1.8.37-2.66.07.49-.06.98-.02,1.47-.06Z"/>
  <path class="cls-25" d="M55.12,33.01c2.38-.48,4.77-.97,7.2-.99.37,1.32.37,2.72.42,4.08,0,1.22-.09,2.48-.59,3.61-.21.5-.68.96-1.26.92-.68-.02-1.16-.58-1.52-1.09-.73-.97-1.14-2.13-1.57-3.26-.43-1.13-.72-2.32-.97-3.5-.9.12-1.78.34-2.67.46.41,1.05.62,2.17.85,3.27.12,1.1.38,2.29-.11,3.34-.2.49-.74.83-1.27.71-1.01-.18-1.71-1.01-2.34-1.74-1-1.28-1.82-2.71-2.44-4.22,2.04-.71,4.13-1.3,6.26-1.62Z"/>
  <path class="cls-32" d="M70.56,32.11c.78.09,1.57.11,2.34.31-.68.22-1.4,0-2.1.09-.05.15-.09.3-.13.45,0-.29-.04-.57-.11-.85Z"/>
  <path class="cls-17" d="M30.04,32.73c.58-.16,1.18.03,1.73.23,1.92.72,3.59,1.93,5.21,3.16.77.68,1.6,1.32,2.28,2.1.24.25.05.63-.23.74-2.91,1.64-5.51,3.79-7.86,6.15-.35.31-.59.78-1.04.95-.41-.09-.41-.59-.51-.92-.6-3.39-1.12-6.85-.79-10.3.09-.8.32-1.84,1.2-2.11Z"/>
  <path class="cls-4" d="M79.34,41.66c1.02-.35,2.18-.04,2.99.63.23.23.54.47.51.84,0,.35-.49.56-.75.33-.36-.27-.68-.61-1.13-.74-.59-.21-1.23-.12-1.8.11-.23.12-.5-.05-.6-.26-.14-.48.39-.77.77-.9Z"/>
  <path class="cls-43" d="M43.33,46.68c.66-.83,1.73-1.33,2.79-1.27.34.02.79.18.82.58.05.26-.21.51-.46.52-.34,0-.68-.03-1.01-.02.04-.04.12-.11.16-.15.38-.04.78-.04,1.13-.21-.09-.15-.18-.3-.27-.45-.61-.05-1.28-.1-1.82.25-.65.38-1.43.86-1.53,1.69.18.11.35.22.53.34-.25.06-.59.09-.71-.19-.14-.41.14-.79.39-1.09Z"/>
  <path class="cls-38" d="M44.65,45.94c.54-.35,1.21-.3,1.82-.25.09.15.18.3.27.45-.35.17-.75.17-1.13.21-.04.04-.12.11-.16.15h0c-.37-.05-.73-.08-1.1-.14-.46.15-.26.74-.32,1.1-.13.17-.26.34-.39.51-.18-.12-.35-.23-.53-.34.1-.82.88-1.3,1.53-1.69Z"/>
  <path class="cls-54" d="M44.36,46.35c.37.06.73.09,1.1.15-.54.2-1.05.51-1.42.95.06-.36-.13-.94.32-1.1Z"/>
  <path class="cls-3" d="M76.8,48.03c.96-1.45,2.88-2.21,4.57-1.74,1.38.35,2.49,1.49,2.93,2.84.56,1.83.1,4.03-1.44,5.25-.17.11-.35.22-.52.33-.39.26-.86.39-1.31.5-.7.13-1.42.07-2.1-.12-1.03-.33-1.89-1.09-2.4-2.04-.81-1.56-.73-3.57.28-5.03Z"/>
  <path class="cls-28" d="M78.16,47.76c.9-.11,1.7.93,1.37,1.77-.2.69-.99,1.13-1.68.92-.74-.27-1.05-1.17-.77-1.88.2-.42.61-.75,1.08-.82Z"/>
  <path class="cls-3" d="M47.01,49.69c1.23-.18,2.51.31,3.37,1.19,1.7,1.67,1.72,4.68.14,6.44-.75.84-1.83,1.39-2.95,1.46-.98.04-1.97-.24-2.74-.85-1.93-1.43-2.29-4.46-.9-6.38.69-1.03,1.84-1.75,3.08-1.86Z"/>
  <path class="cls-45" d="M45.05,51.31c.91-.3,1.86.65,1.65,1.56-.13.96-1.42,1.48-2.15.79-.81-.65-.51-2.09.5-2.35Z"/>
  <path class="cls-57" d="M94.27,52.42c2.2-.6,4.48-.92,6.76-.9,1.83-.07,3.66.11,5.46.45.66.15,1.34.29,1.95.59.06.15.13.29.19.44-.13.24-.3.56-.62.47-.51-.09-1.01-.24-1.51-.37-1.14-.19-2.27-.46-3.43-.48-1.35-.02-2.71-.05-4.06.05-.81.06-1.62.16-2.42.31-.8.15-1.61.3-2.4.55-.35.12-.84-.15-.74-.56.07-.39.5-.48.82-.57Z"/>
  <path class="cls-3" d="M61.54,53.09c1.05-.42,2.22-.59,3.35-.52.55.08,1.24.14,1.54.68.28.44.07.98-.2,1.37-.46.62-1.06,1.15-1.8,1.4,0,.46.05.95.36,1.32.75,1.09,2.53,1.17,3.42.21.33-.32.46-.75.61-1.17.26-.41.91-.14.9.32-.11.88-.7,1.66-1.44,2.11-.92.54-2.09.59-3.06.16-.43-.19-.78-.51-1.14-.81-.72,1.36-2.45,1.98-3.9,1.55-.86-.27-1.72-.86-1.98-1.76-.14-.45.52-.88.84-.49.28.42.55.88,1.03,1.1,1.14.62,2.73.08,3.21-1.13.2-.41.09-.86.06-1.29-.96-.15-1.94-.62-2.49-1.44-.38-.62.07-1.38.7-1.61Z"/>
  <path class="cls-46" d="M94.2,53.56c.78-.25,1.59-.4,2.4-.55.02.05.07.16.09.21-.84.05-1.65.47-2.49.34Z"/>
  <path class="cls-9" d="M84.14,53.72c1.38-.53,2.97-.72,4.38-.18.92.3,1.73.93,2.18,1.79.49.91.32,2.07-.27,2.89-.48.76-1.24,1.3-2.05,1.67-1.56.7-3.41.68-4.97,0-.87-.41-1.65-1.15-1.88-2.11-.31-1.1.23-2.26,1.01-3.03l-.21-.02c.17-.11.34-.22.52-.33.45-.18.83-.5,1.29-.66Z"/>
  <path class="cls-40" d="M78.75,55.28s.13-.14.17-.18c.68.2,1.4.26,2.1.12.05.06.16.17.21.23-.83.04-1.7.13-2.49-.16Z"/>
  <path class="cls-41" d="M93.88,56.9c-.13-.44.21-.82.66-.78,1.44.04,2.87.19,4.29.47l-.31.2c.16.02.32.05.49.07-.05.15-.11.31-.16.46-.28.02-.56.06-.8.21-.31-.05-.62-.09-.93-.15l-.07-.2c-1.03-.27-2.1-.26-3.16-.29Z"/>
  <path class="cls-39" d="M98.51,56.8l.31-.2c.73.12,1.44.32,2.15.53-.38.19-.8.05-1.19,0,.12.07.25.15.38.22-.12.08-.23.16-.34.24.39.15.84.24,1.09.61-.96-.23-1.91-.49-2.88-.67.24-.14.52-.19.8-.21.05-.15.11-.31.16-.46-.16-.02-.33-.05-.49-.07Z"/>
  <path class="cls-11" d="M22.99,57.28c3.31-.53,6.73-.51,10.01.17.28.06.66.15.72.48.1.33-.22.71-.56.62-1.16-.22-2.32-.44-3.5-.5-1.2-.12-2.4-.06-3.59-.03-1.22.08-2.45.2-3.64.47-1.12.2-2.2.55-3.27.92-.38.22-.91-.17-.77-.59.1-.26.38-.39.63-.48.52-.19,1.04-.4,1.59-.51,0,.05-.02.15-.03.2-.47.17-.95.32-1.41.52.23.13.47.37.76.28.66-.13,1.3-.33,1.94-.52-.11-.09-.23-.17-.34-.26.06-.07.13-.15.19-.22-.33.04-.72.23-1.01-.03.75-.24,1.52-.39,2.3-.52Z"/>
  <path class="cls-42" d="M93.88,56.9c1.06.02,2.13.02,3.16.29l.07.2c-.66-.08-1.33-.12-2-.18-.42-.05-.93.08-1.23-.31Z"/>
  <path class="cls-19" d="M99.78,57.14c.39.04.81.18,1.19,0,.34.09.67.2,1,.31-.04.05-.12.15-.16.2.22.09.44.17.66.26-.47.36-1.05.16-1.56.31h0c-.25-.37-.7-.47-1.09-.61.11-.08.23-.16.34-.24-.13-.07-.25-.15-.38-.22Z"/>
  <path class="cls-36" d="M101.82,57.64s.12-.15.16-.2c.07.02.22.07.29.09,1.55.53,3.04,1.26,4.41,2.17.28.15.34.45.32.75-.19.12-.39.36-.64.26-.39-.16-.73-.4-1.09-.61-.98-.59-2.04-1.02-3.1-1.43-.42-.16-.84-.3-1.26-.46.52-.15,1.1.05,1.56-.31-.22-.09-.44-.17-.66-.26Z"/>
  <path class="cls-6" d="M20.59,57.84s0-.08,0-.11l.09.07c.29.26.68.07,1.01.03-.06.07-.13.14-.19.22.11.09.23.17.34.26-.64.19-1.28.4-1.94.52-.29.09-.52-.14-.76-.28.46-.2.94-.34,1.41-.52,0-.05.02-.15.03-.2Z"/>
  <path class="cls-37" d="M42.24,57.97c1.37-.16,2.81.17,3.94.97.69.55,1.25,1.38,1.23,2.29.06,1.22-.69,2.33-1.67,2.98-1.81,1.19-4.28,1.28-6.18.24-.97-.52-1.71-1.54-1.73-2.67,0-1.06.61-2.05,1.45-2.68.87-.64,1.9-1.05,2.98-1.14Z"/>
  <path class="cls-13" d="M22.41,58.5c1.2-.27,2.42-.4,3.64-.47.07.06.22.19.3.25.62.56,1.03,1.3,1.41,2.03.34.69.71,1.36,1.02,2.06-.12.04-.25.09-.37.13-.39.15-.77.3-1.16.45-2.03.81-3.96,1.88-5.7,3.19-.27.23-.69.46-.61.88.03.45.64.51.91.22,1.83-1.44,3.9-2.52,6.04-3.41.26-.1.52-.2.79-.3.22-.07.44-.14.66-.21.44.98.87,1.97,1.27,2.97-.03.02-.09.05-.13.07-.59.35-1.16.74-1.72,1.14-.73.52-1.39,1.13-2.05,1.74-.25.25-.52.49-.7.8-.18.29.05.73.41.72.27.03.45-.22.63-.38.77-.84,1.69-1.53,2.6-2.2.41-.3.84-.58,1.27-.84.52,1.64.79,3.38.62,5.1-.56,7.24-6.24,13.65-13.25,15.38-1.4.33-2.84.43-4.27.36,0-.11,0-.33,0-.44.65-5.72,1.79-11.39,3.56-16.88,1.31-4.23,2.95-8.36,4.82-12.37Z"/>
  <path class="cls-44" d="M26.06,58.03c1.2-.03,2.4-.09,3.59.03-1.06.41-2.21-.07-3.3.22-.07-.06-.22-.19-.3-.25Z"/>
  <path class="cls-47" d="M64.06,58.16c.36.3.71.62,1.14.81.97.43,2.14.38,3.06-.16.09,1.16-.04,2.35-.5,3.42-.22-.68-.93-.98-1.52-1.26-1.13-.39-2.38-.17-3.49.19-.75.21-1.27.84-1.7,1.46-.49-.89-.89-1.88-.89-2.91,1.45.42,3.17-.2,3.9-1.55Z"/>
  <path class="cls-39" d="M93.22,60.14c-.13-.59.58-.77,1-.55-.23.15-.8.13-.73.5.34.36.98.22,1.21.71-.49-.2-1.2-.13-1.48-.67Z"/>
  <path class="cls-49" d="M94.23,59.59c2.67.69,5.2,1.88,7.46,3.46.53.4,1.07.78,1.55,1.23.12.37-.16.84-.59.73-.44-.17-.78-.54-1.17-.8-2.07-1.47-4.36-2.61-6.77-3.4-.23-.5-.88-.36-1.21-.71-.07-.37.51-.35.73-.5Z"/>
  <path class="cls-16" d="M62.76,61.16c1.11-.36,2.36-.58,3.49-.19.59.28,1.3.58,1.52,1.26-.36.96-1.08,1.81-2.06,2.18-1.7.72-3.83-.16-4.65-1.79.43-.62.94-1.25,1.7-1.46Z"/>
  <path class="cls-24" d="M32.09,61.52c.44-.09.88-.22,1.33-.18.34.08.48.55.23.81-.23.26-.62.2-.93.28.2-.15.41-.29.61-.43,0-.16,0-.31,0-.46-.41.04-.85.14-1.25-.02Z"/>
  <path class="cls-7" d="M28.79,62.37c1.08-.36,2.18-.66,3.31-.85.4.16.84.06,1.25.02,0,.15,0,.31,0,.46-.21.14-.41.28-.61.43-1.14.26-2.28.52-3.39.89-.22.07-.44.14-.66.21.04-.2.19-.34.33-.47-.03-.32-.31-.46-.59-.57.12-.05.25-.09.37-.13Z"/>
  <path class="cls-2" d="M27.26,62.95c.38-.15.77-.3,1.16-.45.27.1.55.24.59.57-.14.13-.29.27-.33.47-.26.1-.52.2-.79.3-.26-.08-.54-.04-.8-.09-.08-.12-.15-.24-.23-.36.16-.08.32-.16.48-.24-.02-.05-.06-.14-.09-.19Z"/>
  <path class="cls-20" d="M21.55,66.14c1.74-1.32,3.68-2.38,5.7-3.19.02.05.06.14.09.19-.16.08-.32.16-.48.24.07.12.14.25.23.36.26.05.54.01.8.09-2.14.89-4.21,1.98-6.04,3.41-.27.29-.87.23-.91-.22-.08-.42.34-.65.61-.88Z"/>
  <path class="cls-22" d="M33.53,64.77c.34-.12.72-.38,1.09-.22.4.19.29.82-.11.93-1.1.45-2.15,1-3.17,1.61-.17-.2-.33-.42-.45-.65-.13-.03-.27-.05-.4-.08.03-.02.09-.06.13-.07.93-.58,1.92-1.07,2.92-1.52Z"/>
  <path class="cls-30" d="M28.77,67.5c.56-.4,1.12-.79,1.72-1.14.13.02.27.05.4.08.13.23.28.45.45.65-.14.08-.28.16-.41.25-.44.26-.87.54-1.27.84-.46.08-.83-.23-.88-.68Z"/>
  <path class="cls-21" d="M26.72,69.24c.66-.61,1.32-1.22,2.05-1.74.05.45.42.76.88.68-.91.68-1.83,1.37-2.6,2.2-.18.17-.35.41-.63.38-.35.01-.58-.43-.41-.72.18-.31.44-.55.7-.8Z"/>
  <path class="cls-1" d="M13.52,99.79c1.87-.71,3.99-.76,5.87-.08,2.11.76,3.79,2.53,4.56,4.62.45,1.43.62,2.98.24,4.44-.44,2.01-1.68,3.8-3.35,4.99-1.59,1.16-3.58,1.71-5.54,1.67-1.05-5.15-1.7-10.38-1.79-15.64Z"/>
  <path class="cls-8" d="M93.91,109.09c1.61-1.43,3.74-2.15,5.86-2.27,3.29-.14,6.63,1.13,8.99,3.42-1.41.16-2.86.45-4.06,1.25-2.58,1.69-4.35,4.47-5.02,7.45-.13.52-.14,1.06-.27,1.57-.03.03-.09.09-.13.12-.68-.27-1.41-.28-2.13-.35-1.35-.08-2.72-.44-3.81-1.27-1.65-1.23-2.4-3.46-2.02-5.45.29-1.74,1.24-3.34,2.58-4.48Z"/>
  <path class="cls-52" d="M108.76,110.24h.07c.97.87,1.84,1.86,2.53,2.98.02.08.06.23.08.31-1.31-.19-2.66.09-3.78.79-1.29.77-2.4,1.91-3.04,3.28-.33.74-.6,1.64-.14,2.39.35.65,1.2.82,1.85.55.77-.33,1.44-.87,2.19-1.24,1.58-.81,3.38-1.42,5.18-1.14-.02-.08-.05-.25-.06-.33.46,1.11.64,2.31.91,3.48.18,1.13.37,2.27.36,3.41-1.3-.87-2.95-1.1-4.48-.89-.92.12-1.85.39-2.63.91-.54.37-1.02.92-1.07,1.6,0,.75.67,1.31,1.36,1.45.95.2,1.93.27,2.87.52,1.35.34,2.66.93,3.75,1.81-.08,1.32-.43,2.6-.71,3.88-.18.67-.29,1.38-.64,2-1.11-1.94-3.13-3.25-5.26-3.81-1.06-.25-2.27-.39-3.25.18-.57.32-1,1-.8,1.67.17.74.85,1.16,1.42,1.57,1.57,1.1,2.99,2.46,4.01,4.1.5.79.83,1.66,1.24,2.5-2.87,5.09-7.23,9.3-12.28,12.22-.29.16-.6.29-.93.32,1.66-1.37,3.17-2.97,4.22-4.87,1.48-2.63,2.24-5.69,2.03-8.71-.23-3.42-1.71-6.85-4.44-9,2.46-2.09,3.67-5.72,2.58-8.81-.41-1.26-1.4-2.25-2.63-2.73.03-.03.09-.09.13-.12.13-.51.14-1.05.27-1.57.67-2.99,2.44-5.77,5.02-7.45,1.2-.8,2.65-1.09,4.06-1.25Z"/>
  <path class="cls-50" d="M107.66,114.32c1.13-.69,2.47-.97,3.78-.79.19.02.28.21.38.35.75,1.24,1.38,2.56,1.81,3.95.01.08.04.25.06.33-1.8-.28-3.6.32-5.18,1.14-.75.37-1.42.91-2.19,1.24-.65.27-1.5.1-1.85-.55-.45-.75-.18-1.65.14-2.39.64-1.38,1.75-2.51,3.04-3.28Z"/>
  <path class="cls-18" d="M17.84,124.68c3.2-3.27,8.84-3.99,12.59-1.25,2.01,1.4,3.36,3.57,4.15,5.86.76,2.14,1.03,4.41,1.23,6.66.25,2.27.5,4.64,1.66,6.66.73,1.33,1.87,2.38,3.12,3.21,1.31.85,2.56,1.9,3.27,3.32.46,1,.74,2.15.49,3.24-1.56.58-3.09,1.47-4.09,2.84-5.71-3.45-10.48-8.32-14.21-13.82-3.5-5.16-6.2-10.83-8.22-16.72Z"/>
  <path class="cls-31" d="M110.42,123.84c1.53-.21,3.18.01,4.48.89.19,1.79.04,3.62-.2,5.4-1.09-.88-2.4-1.47-3.75-1.81-.94-.25-1.92-.32-2.87-.52-.69-.14-1.35-.71-1.36-1.45.05-.68.53-1.24,1.07-1.6.78-.52,1.7-.79,2.63-.91Z"/>
  <path class="cls-15" d="M86.21,131.61c1.73-.75,3.55-1.44,5.45-1.54.29,1.64-.22,3.29-.84,4.79-.57,1.18-1.31,2.33-2.37,3.12-.68.55-1.53.91-2.41.94-1.1.05-2.2-.44-2.91-1.28-1.04-1.14-1.39-2.77-1.3-4.27v-.1c1.5-.45,2.96-1.02,4.39-1.65Z"/>
  <path class="cls-53" d="M94.56,130.14c1.72.29,3.41.94,4.77,2.04,2.73,2.16,4.21,5.58,4.44,9,.22,3.02-.54,6.08-2.03,8.71-1.05,1.9-2.56,3.5-4.22,4.87-1.15.87-2.5,1.4-3.81,1.97-1.67-.03-3.16-1.03-4.18-2.29-1.51-1.99-1.95-4.63-1.63-7.07.28-2.49,1.4-4.81,2.89-6.79.79-1.12,1.75-2.1,2.49-3.26,1.44-2.04,2.16-4.78,1.27-7.18Z"/>
  <path class="cls-33" d="M104.85,132.38c.98-.57,2.19-.44,3.25-.18,2.13.56,4.15,1.86,5.26,3.81-.55,2.18-1.52,4.25-2.63,6.21-.41-.84-.75-1.71-1.24-2.5-1.02-1.63-2.44-2.99-4.01-4.1-.57-.42-1.26-.84-1.42-1.57-.2-.66.22-1.35.8-1.67Z"/>
  <path class="cls-48" d="M44.37,152.38c1.28-.46,2.67-.54,4.02-.44.48,0,.53.73.14.91-.22.05-.45.04-.68.04-2.01-.07-4.03.55-5.65,1.75-.43.35-.76.79-1.12,1.21-.73.84-1.01,1.96-1.11,3.04-.1.91.11,1.85.59,2.64-.32.13-.66.22-1.01.21h-.05c-1.01-2.1-.64-4.72.78-6.54,1-1.37,2.53-2.25,4.09-2.84Z"/>
  <path class="cls-55" d="M80.21,152.27c.17-.47.76-.36,1.15-.37,2.05,0,4.09.61,5.79,1.77.48.34.85.81,1.26,1.23.93.97,1.4,2.29,1.57,3.6.24,1.52-.22,3.18-1.32,4.29-.67.72-1.58,1.14-2.5,1.44-1.96.57-4.01.73-6.04.72-.92.12-1.83-.11-2.75-.08-1.66-.26-3.48-.58-4.71-1.82.3-.18.6-.37.89-.57,1.41,1.06,3.2,1.41,4.94,1.45-.09.15-.19.3-.24.48.06.14.14.28.22.41.19,0,.39.02.59.04.25-.26.45-.55.6-.88,1.37-.05,2.74-.12,4.11-.2-.1.17-.19.35-.29.52.21.35.65.4.98.16.29-.28.45-.65.61-1.01,1.74-.19,3.46-1.41,3.86-3.17.27-1.44,0-3-.88-4.2-.67-1.17-1.89-1.84-3.04-2.44-1.32-.55-2.76-.79-4.18-.74-.35.07-.77-.25-.59-.62Z"/>
  <path class="cls-14" d="M55.63,155.06c.02-.25.2-.49.46-.51.34.03.56.32.71.6.41.76.75,1.57.86,2.43.27,1.44.24,3.01-.51,4.31-.61,1.07-1.61,1.91-2.78,2.31-1.59.64-3.33.69-5.02.79-1.2-.05-2.39-.04-3.58-.18-.41-.06-.85-.03-1.24-.2.19,0,.38.02.57.03.12-.12.23-.24.35-.36-.09-.17-.18-.33-.28-.5,1.37.09,2.74.21,4.11.16.14.29.26.62.52.83.22.06.44.07.66.1.09-.15.17-.3.25-.45-.06-.18-.17-.34-.26-.5,1.32-.14,2.71-.16,3.89-.82.95-.46,1.86-1.2,2.15-2.26.44-1.52.4-3.22-.3-4.65-.18-.38-.43-.72-.57-1.12Z"/>
  <path class="cls-35" d="M72.5,154.71c.24-.31.81-.13.85.25.04.24-.15.43-.25.62-.52.8-.8,1.73-.9,2.66-.02-.03-.07-.09-.09-.12-.2.42-.44.88-.95.98.06-1.54.35-3.17,1.34-4.4Z"/>
  <path class="cls-27" d="M72.11,158.13s.07.09.09.12c-.05.93,0,1.87.3,2.76-.11-.03-.21-.05-.32-.07-.13.18-.26.36-.39.53-.05-.01-.15-.04-.2-.05-.33-.72-.45-1.52-.43-2.31.5-.09.74-.56.95-.98Z"/>
  <path class="cls-51" d="M43.69,158.75c.06-.16.14-.34.32-.39.3-.14.65.22.56.53-.32,1.62-.29,3.44.61,4.88.09.16.18.33.28.5-.12.12-.23.24-.35.36-.19-.01-.38-.02-.57-.03h-.08c-.17-.36-.36-.7-.52-1.06-.63-1.51-.73-3.23-.24-4.79Z"/>
  <path class="cls-23" d="M84.56,158.41c.26-.21.62.02.7.31.5,1.53.36,3.23-.21,4.72-.16.36-.32.73-.61,1.01-.32.24-.76.19-.98-.16.09-.18.19-.35.29-.52.83-1.33,1-2.98.69-4.5-.04-.28-.16-.65.12-.85Z"/>
  <path class="cls-56" d="M48.76,159.19c.04-.27.18-.54.46-.61.32-.02.56.28.49.59-.19,1.59-.14,3.34.74,4.74.1.16.21.31.26.5-.07.16-.16.3-.25.45-.22-.03-.45-.04-.66-.1-.26-.21-.37-.54-.52-.83-.68-1.47-.82-3.15-.53-4.74Z"/>
  <path class="cls-5" d="M79.25,159.18c-.07-.3.17-.58.46-.59.39.09.49.52.54.86.22,1.52.07,3.12-.61,4.52-.15.32-.35.62-.6.88-.2-.02-.39-.03-.59-.04-.08-.14-.16-.27-.22-.41.05-.17.15-.33.24-.48.89-1.39.99-3.14.77-4.73Z"/>
  <path class="cls-12" d="M72.18,160.94c.11.02.21.05.32.07.24.55.59,1.06,1.04,1.46-.29.2-.58.39-.89.57-.23-.24-.47-.48-.64-.76-.17-.28-.3-.57-.43-.86.05.01.15.04.2.05.14-.17.27-.35.39-.53Z"/>
  <path class="cls-10" d="M39.55,161.76c.35,0,.69-.09,1.01-.21.43.55.96,1.03,1.58,1.36-.29.21-.61.41-.8.73-.75-.45-1.42-1.08-1.8-1.88Z"/>
  <path class="cls-34" d="M42.14,162.91c.57.27,1.18.45,1.79.64.16.36.35.7.52,1.06-1.08-.1-2.14-.46-3.1-.96.19-.32.5-.52.8-.73Z"/>
</svg>