<?xml version="1.0" encoding="UTF-8"?>
<svg id="_图层_1" data-name="图层 1" xmlns="http://www.w3.org/2000/svg" viewBox="0 0 111.99 151.82">
  <defs>
    <style>
      .cls-1 {
        fill: #6baae6;
      }

      .cls-2 {
        fill: #5fa9f8;
      }

      .cls-3 {
        fill: #bcdbf7;
      }

      .cls-4 {
        fill: #60cfc2;
      }

      .cls-5 {
        fill: #fede90;
      }

      .cls-6 {
        fill: #7bb9f7;
      }

      .cls-7 {
        fill: #6cb2ed;
      }

      .cls-8 {
        fill: #fff;
      }

      .cls-9 {
        fill: #070809;
      }

      .cls-10 {
        fill: #75afe9;
      }

      .cls-11 {
        fill: #86bff9;
      }

      .cls-12 {
        fill: #a1dcd6;
      }

      .cls-13 {
        fill: #77b0ea;
      }

      .cls-14 {
        fill: #c1dffd;
      }

      .cls-15 {
        fill: #fafbfb;
      }

      .cls-16 {
        fill: #63abf8;
      }

      .cls-17 {
        fill: #85bff9;
      }

      .cls-18 {
        fill: #b4dbc7;
      }

      .cls-19 {
        fill: #bcddfd;
      }

      .cls-20 {
        fill: #7cb9f7;
      }

      .cls-21 {
        fill: #7bb9f3;
      }

      .cls-22 {
        fill: #a0dbd5;
      }

      .cls-23 {
        fill: #e5d686;
      }

      .cls-24 {
        fill: #f8f8fa;
      }

      .cls-25 {
        fill: #020100;
      }

      .cls-26 {
        fill: #fedd8f;
      }

      .cls-27 {
        fill: #86c0f9;
      }

      .cls-28 {
        fill: #010100;
      }

      .cls-29 {
        fill: #61aaf8;
      }

      .cls-30 {
        fill: #e6d786;
      }

      .cls-31 {
        fill: #9edad4;
      }

      .cls-32 {
        fill: #fede91;
      }

      .cls-33 {
        fill: #c8e5f9;
      }

      .cls-34 {
        fill: #060708;
      }

      .cls-35 {
        fill: #e0e4af;
      }

      .cls-36 {
        fill: #67a8e6;
      }

      .cls-37 {
        fill: #b4d9fd;
      }

      .cls-38 {
        fill: #fefefe;
      }

      .cls-39 {
        fill: #5ad0c7;
      }

      .cls-40 {
        fill: #060909;
      }

      .cls-41 {
        fill: #95c9fa;
      }
    </style>
  </defs>
  <path class="cls-37" d="M60.34,12.49c5.31-1.55,10.96-1.8,16.41-.92,3.83.68,7.56,1.97,10.92,3.92.91.59,1.85,1.16,2.68,1.87,1.99,1.62,3.57,3.72,4.67,6.04,1,2.24,1.66,4.62,2.08,7.03.43,2.41.55,4.86.63,7.3,0,1.16.2,2.32.59,3.41.31.9,1.24,1.29,1.88,1.91.79.7,1.31,1.7,1.36,2.76.03.86-.03,1.76-.43,2.54-.39.74-.9,1.45-1.6,1.92-1.57,1.1-3.64,1.27-5.47.81-1-.33-1.96-.83-2.79-1.47-.26-.2-.54-.35-.83-.5-.02.06-.07.18-.09.24-.03-.07-.07-.2-.1-.26-.66.14-1.04.71-1.57,1.08-.44.32-.91.59-1.39.84-.41.09-.82.21-1.24.28-1.16.15-2.35-.04-3.41-.52-.65-.31-1.17-.8-1.73-1.22-.4-.33-.99-.65-1.48-.31-.67.48-1.29,1.04-1.99,1.48-.44.26-.93.4-1.43.5-1.51.25-3.12,0-4.4-.86-.42-.28-.77-.65-1.15-.97-.44-.39-1.19-.46-1.64-.05-.79.67-1.59,1.4-2.61,1.68-.87.23-1.78.33-2.67.3-.48-.09-.93-.28-1.39-.43-.03.25-.06.49-.09.74,0-.26,0-.51,0-.77-.54-.38-1.08-.77-1.57-1.21-.26-.22-.51-.48-.84-.59-.37-.1-.73.1-1.02.31-.52.45-1.07.88-1.69,1.17-1.08.53-2.3.77-3.49.64-.28-.05-.56-.11-.83-.19-.8-.26-1.57-.64-2.2-1.21-.36-.27-.66-.72-1.15-.74-.07.15-.13.31-.19.47,0-.18,0-.35,0-.52-.84.18-1.42.86-2.15,1.25-1.38.75-3,1.05-4.55.81-1.45-.27-2.85-1.04-3.74-2.23-.62-.9-.98-2-.89-3.1.04-1.44.92-2.77,2.14-3.5,1.26-.84,1.47-2.47,1.67-3.85.2-2.78.47-5.58,1.24-8.28.71-2.81,1.89-5.51,3.57-7.87.38-.5.7-1.06,1.16-1.49-.3,1.44-.69,2.94-.31,4.4.08.45.56.6.95.68,1.6.3,3.28-.27,4.53-1.29,1.16-1.01,2.11-2.35,2.38-3.89.14-.82.05-1.8-.59-2.4-.54-.5-1.34-.47-2.01-.35-.3.03-.63.16-.92,0-.29-.14-.6-.25-.92-.34.79-.61,1.63-1.14,2.43-1.72,2.26-1.44,4.74-2.53,7.31-3.3Z"/>
  <path class="cls-2" d="M50.6,17.5c.32.08.62.19.92.34.29.16.62.03.92,0,.68-.12,1.48-.15,2.01.35.64.61.73,1.58.59,2.4-.27,1.54-1.22,2.88-2.38,3.89-1.25,1.01-2.92,1.58-4.53,1.29-.38-.08-.87-.24-.95-.68-.38-1.46.01-2.96.31-4.4.87-1.21,2.02-2.18,3.1-3.19Z"/>
  <path class="cls-29" d="M83.86,17.89c.62-.19,1.3-.09,1.89.15,1.11.52,1.87,1.72,1.82,2.95.02,1.24-1.11,2.42-2.37,2.36-.89-.02-1.82-.41-2.32-1.18-.47-.72-.73-1.6-.59-2.46.13-.83.77-1.54,1.56-1.82Z"/>
  <path class="cls-16" d="M90.66,24.31c.87-.12,1.82.25,2.36.96.59.89.64,2.22-.13,3.02-.46.43-1.14.54-1.75.54-1.5-.05-2.56-1.81-2.01-3.18.24-.67.82-1.23,1.54-1.34Z"/>
  <path class="cls-9" d="M77.66,27.28c.19-.36.61-.45.98-.46,1.04,0,2.05.65,2.46,1.61.14.35-.43.6-.61.28-.33-.47-.74-.93-1.34-1.03-.5-.2-1.23.23-1.5-.39Z"/>
  <path class="cls-40" d="M53.98,28.58c.33-1.23,1.74-2.07,2.97-1.65.33.05.37.65.01.67-.55.02-1.16-.03-1.64.31-.34.2-.45.63-.75.87-.24.17-.42-.08-.59-.21Z"/>
  <path class="cls-28" d="M54.76,32.39c1.39-1.14,3.71-.78,4.68.75,1.06,1.45.56,3.72-.99,4.61-.78.5-1.75.65-2.64.39-.37-.14-.73-.28-1.06-.49-1.71-1.21-1.61-4.02.01-5.25Z"/>
  <path class="cls-25" d="M77.32,31.9c1.44-.52,3.19.1,3.92,1.45.68,1.17.54,2.73-.31,3.77-.54.71-1.42,1.08-2.29,1.17-1.14.04-2.35-.49-2.97-1.47-.87-1.27-.65-3.15.47-4.21.33-.32.73-.56,1.17-.71Z"/>
  <path class="cls-24" d="M54.62,34.1c-.19-.7.51-1.48,1.23-1.25.6.12,1.09.77.86,1.38-.14.45-.6.65-1.01.79-.5-.07-1.01-.38-1.08-.92Z"/>
  <path class="cls-15" d="M76.94,32.93c.66-.27,1.5.33,1.42,1.05.03.79-1.03,1.26-1.63.79-.66-.43-.56-1.58.21-1.84Z"/>
  <path class="cls-20" d="M51.4,38.1c.9-.63,2.22-.72,3.14-.08.29.22.56.47.79.76.46.63.48,1.53.08,2.19-.62,1.09-2.06,1.53-3.23,1.17-.91-.24-1.68-1.03-1.73-1.99-.08-.79.34-1.57.96-2.05Z"/>
  <path class="cls-33" d="M54.75,37.65c.33.21.69.36,1.06.49.13.07.26.14.39.22-.2.02-.41.05-.61.07-.09.12-.18.24-.27.35-.23-.28-.49-.54-.79-.76l.22-.38Z"/>
  <path class="cls-6" d="M80.63,37.81c.74.16,1.45-.31,2.18-.07.97.19,1.69,1.07,1.8,2.03.12.91-.51,1.77-1.29,2.17-1.03.57-2.42.42-3.28-.41-.63-.54-.83-1.49-.51-2.25.24-.56.65-1.04,1.09-1.47Z"/>
  <path class="cls-34" d="M64.51,38.64c-.2-.34.21-.78.55-.55.23.3.3.7.55.99.85,1.01,2.55,1.19,3.58.36.44-.33.66-.83.89-1.3.23-.26.57-.01.69.24-.23.88-.85,1.65-1.68,2.04-1.64.87-4.04.08-4.58-1.77Z"/>
  <path class="cls-36" d="M49.23,49.02c.49.02.79.47,1.15.74.63.57,1.4.96,2.2,1.21-.25.32-.51.63-.73.97-.94-.23-1.72-.82-2.53-1.32-.11.25-.23.49-.34.74-.03-.08-.09-.25-.12-.33-.07.06-.15.12-.22.19,0-.1,0-.29,0-.38.1-.46.29-.89.41-1.35.05-.16.11-.32.19-.47Z"/>
  <path class="cls-4" d="M58.59,49.36c.29-.21.65-.41,1.02-.31.34.1.58.36.84.59.49.45,1.03.84,1.57,1.21,0,.25,0,.51,0,.77,0,.11,0,.32,0,.43-1.27-.5-2.3-1.4-3.34-2.26-.03-.14-.06-.29-.09-.43Z"/>
  <path class="cls-7" d="M68.79,49.33c.45-.41,1.2-.34,1.64.05.39.32.74.69,1.15.97,1.28.86,2.9,1.11,4.4.86.18,0,.35.01.53.02-.04.36.13.92-.31,1.08-1.59.38-3.28,0-4.68-.8-.68-.34-1.15-.99-1.83-1.33-.57-.02-.94.55-1.41.81-.3.18-.64.32-.91.54-.03.16-.05.33-.06.5-.06-.12-.11-.24-.17-.36-1.1.41-2.26.66-3.44.75-.06.34-.13.69-.21,1.03-.06-.72,0-1.44,0-2.16.9.03,1.81-.07,2.67-.3,1.02-.28,1.82-1.01,2.61-1.68Z"/>
  <path class="cls-39" d="M79.41,49.23c.5-.34,1.08-.03,1.48.31-.07.45-.12.9-.13,1.36-.28-.14-.54-.3-.84-.38-.82.44-1.51,1.11-2.42,1.39-.02-.4-.05-.8-.09-1.2.7-.44,1.32-1,1.99-1.48Z"/>
  <path class="cls-1" d="M88.66,50.17c.52-.36.91-.94,1.57-1.08.02.07.07.2.1.26.1.26.19.53.26.8-.11.16-.24.3-.39.41-.67.48-1.35.93-2.07,1.33.1.18.2.36.31.54-.1.25-.21.5-.31.75-.33-.71-.58-1.44-.84-2.18.48-.26.95-.53,1.39-.84Z"/>
  <path class="cls-41" d="M80.89,49.54c.56.43,1.09.92,1.73,1.22.01.38.02.76.06,1.13-.66-.27-1.28-.61-1.92-.91v-.09c0-.46.06-.91.13-1.36Z"/>
  <path class="cls-31" d="M58.68,49.79c1.04.86,2.07,1.76,3.34,2.26-.12,1.81-.62,3.57-1.31,5.23-.52,1.01-1.04,2.08-1.98,2.77-.46.35-1.08.42-1.64.33-.64-.11-1.14-.7-1.22-1.33-.05-.43.19-.82.47-1.12,1.38-1.51,2.1-3.52,2.3-5.53.07-.87.01-1.74.05-2.61Z"/>
  <path class="cls-13" d="M90.58,50.15c.11.79.43,1.53.82,2.22.71,1.38,1.94,2.46,3.38,3.01.93.33,1.11,1.7.44,2.36-.55.53-1.4.68-2.12.49-1.23-.32-2.28-1.13-3.08-2.1-.8-.86-1.34-1.92-1.92-2.94.1-.25.21-.5.31-.75-.1-.18-.2-.36-.31-.54.72-.4,1.4-.86,2.07-1.33.16-.11.28-.25.39-.41Z"/>
  <path class="cls-18" d="M68.29,51c.47-.26.84-.83,1.41-.81.68.34,1.15.99,1.83,1.33,0,.25,0,.5,0,.76-1.12.19-2.25-.11-3.28-.55.01-.24.02-.48.03-.72Z"/>
  <path class="cls-22" d="M77.5,51.91c.91-.28,1.6-.95,2.42-1.39.3.07.57.24.84.38v.09c-.14,2.14.37,4.35,1.59,6.13.3.44.74.79.99,1.27.24.49.07,1.05-.03,1.55-.34.26-.7.57-1.15.59-.6.08-1.17-.19-1.69-.46-1.47-1.38-2.23-3.33-2.66-5.25-.2-.94-.29-1.89-.32-2.85v-.05Z"/>
  <path class="cls-10" d="M49.32,50.63c.81.51,1.58,1.09,2.53,1.32l-.03.05c-.49,1.47-1.38,2.77-2.42,3.89-.49.48-.93,1.03-1.53,1.38-.58.35-1.21.66-1.88.8-.74.12-1.57-.17-2.01-.79-.46-.68-.14-1.71.6-2.03,1.06-.47,1.98-1.19,2.73-2.07.53-.73.95-1.53,1.32-2.35,0,.1,0,.29,0,.38.07-.06.15-.13.22-.19.03.08.09.25.12.33.11-.25.23-.49.34-.74Z"/>
  <path class="cls-30" d="M53.4,51.17c1.2.13,2.42-.1,3.49-.64-.01.42,0,.83-.06,1.25-.45.28-.99.27-1.5.37-.69.13-1.38.2-2.08.21,0-.06.02-.17.03-.22.04-.33.08-.65.11-.98Z"/>
  <path class="cls-27" d="M75.99,51.21c.49-.1.99-.24,1.43-.5.04.4.07.8.09,1.2v.05c-.12.03-.24.07-.36.1-.21.06-.42.13-.61.23-.17.81-.04,1.65-.08,2.47-.08,2.96.69,5.83,1.31,8.7.59,2.44,1,4.93,1.21,7.43.09,2.03-.04,4.08-.58,6.04-.16.59-.27,1.19-.31,1.8-.21,1.47-.31,2.97-.2,4.46-.16,2.5-1.05,4.88-1.28,7.37-.19,2.39-.17,4.82.24,7.19.6,3.65,1.71,7.24,1.8,10.96.21,3.53-.3,7.07-1.27,10.46-1.11,3.85-2.84,7.54-5.28,10.72-2.76,3.5-6.55,6.14-10.7,7.72-1.37.54-2.82.87-4.26,1.17-1.57.31-3.18.42-4.75.75-.77.15-1.51.41-2.27.6-1.18.12-2.36.19-3.52.43-1.94.36-3.77,1.2-5.36,2.36-1.51,1.17-2.73,2.66-4.21,3.86-2.09,1.77-4.75,3.11-7.56,3-1.18.03-2.38-.25-3.38-.87-.84-.64-1.66-1.61-1.49-2.74,0-.78.49-1.45,1.13-1.86.72-.51,1.64-.48,2.48-.43,1.05,0,2.12.05,3.14-.22,1.12-.29,2.22-.73,3.16-1.41,1.09-.74,2.01-1.69,3.02-2.53,1.6-1.36,3.45-2.44,5.45-3.11,2.93-.91,6.03-.86,9.04-1.27,2.57-.3,5.13-.82,7.52-1.84,1.86-.76,3.61-1.78,5.23-2.96,3.28-2.49,5.98-5.74,7.87-9.4,1.18-2.41,1.96-5,2.45-7.63.31-1.58.35-3.2.43-4.81.01-1.8-.13-3.59-.27-5.39-.09-.81-.17-1.62-.34-2.42-.19-.88-.95-1.45-1.43-2.16-1.11-1.57-1.5-3.52-1.66-5.4-.07-.76-.07-1.53-.01-2.29.15-2.1.54-4.18,1.28-6.16.56-1.63,1.27-3.21,1.59-4.91.19-1,.28-2.01.25-3.03-.02-.88-.23-1.75-.36-2.62-.14-1.8-.45-3.58-.72-5.36-.13-.93-.43-1.83-.4-2.77-.03-.01-.07-.03-.1-.04-.36-1.79-.86-3.55-1.18-5.35-.16-.95-.37-1.88-.49-2.83-.06-1.11-.2-2.22-.21-3.33-.01-.79.02-1.58.03-2.38,0-.25,0-.5,0-.76,1.4.8,3.09,1.18,4.68.8.44-.16.27-.72.31-1.08-.18-.01-.35-.02-.53-.02Z"/>
  <path class="cls-23" d="M82.63,50.77c1.06.48,2.25.67,3.41.52.03.3.06.6.09.9-.74.4-1.64.45-2.43.18-.33-.11-.66-.22-.99-.31-.01-.06-.02-.11-.02-.16-.04-.38-.05-.75-.06-1.13Z"/>
  <path class="cls-21" d="M52.57,50.98c.27.08.55.15.83.19-.03.33-.07.65-.11.98-.5.03-.99-.04-1.48-.15l.03-.05c.22-.34.48-.65.73-.97Z"/>
  <path class="cls-14" d="M67.38,51.54c.28-.22.61-.36.91-.54,0,.24-.02.48-.03.72-.09,1.01-.18,2.04.04,3.05.35,1.59.92,3.15.98,4.79.05,1.31-.21,2.59-.36,3.89-.09.7-.15,1.4-.23,2.1-.76,2.07-.88,4.32-.83,6.5.13,3.72,1.34,7.26,2.22,10.84.29,1.09.35,2.23.71,3.3-.11,1.74-.48,3.46-.7,5.19-.38,2.2-.41,4.45-.27,6.67.27,2.43.82,4.84.87,7.29.16,1.97.04,3.95-.13,5.91-.16,1.85-.56,3.68-1,5.48-.67,2.53-1.84,4.91-3.31,7.07-2.6,3.81-6.68,6.52-11.14,7.65-2.67.72-5.47.8-8.21.64-.74-.04-1.48-.07-2.21-.07-.31-.29-.63-.59-1.02-.74-.57-.22-1.19-.26-1.8-.33-2.4-.23-4.8-.56-7.13-1.23-1.64-.49-3.3-1.01-4.74-1.95,1.1.19,2.16.58,3.29.59,1.81.16,3.55-.47,5.34-.65.8-.11,1.62-.16,2.42-.29,1.02.14,2.06.07,3.08.19,2.43.28,4.9.45,7.33.08,1.64-.28,3.26-.76,4.78-1.44,3.03-1.44,5.64-3.81,7.22-6.79,1.85-3.33,2.41-7.21,2.39-10.98-.06-3.07-.36-6.14-.13-9.2.1-1.91.48-3.78.74-5.67.32-2.2.3-4.44-.06-6.64-.56-3.01-1.83-5.82-2.55-8.79-.47-1.76-.72-3.57-.87-5.39-.21-3.07.19-6.17,1.18-9.08.66-2.06,1.66-3.99,2.26-6.07.58-1.81.91-3.7.94-5.6,0-.17.03-.33.06-.5Z"/>
  <path class="cls-17" d="M63.71,52.43c1.17-.09,2.33-.34,3.44-.75.06.12.11.24.17.36-.03,1.9-.36,3.79-.94,5.6-.59,2.08-1.6,4.01-2.26,6.07-.99,2.91-1.39,6.02-1.18,9.08.15,1.81.4,3.63.87,5.39.72,2.97,1.99,5.78,2.55,8.79.36,2.19.38,4.44.06,6.64-.26,1.89-.64,3.77-.74,5.67-.23,3.07.06,6.14.13,9.2.02,3.77-.55,7.64-2.39,10.98-1.58,2.98-4.19,5.35-7.22,6.79-1.52.68-3.13,1.16-4.78,1.44-2.43.38-4.9.21-7.33-.08-1.02-.13-2.06-.05-3.08-.19-3.05-.8-6-2.2-8.25-4.44-1.91-1.98-3.22-4.64-3.22-7.43-.07-1.81.6-3.69,1.96-4.91.84-.76,2.03-1.11,3.14-.88.62.17,1.19.56,1.54,1.09.47.76.48,1.72.24,2.56-.27.98-.48,1.99-.32,3.01.15,1.64.99,3.18,2.22,4.28,2.12,1.97,5.06,2.87,7.91,2.98,2.4.1,4.79-.44,6.98-1.38,3.14-1.33,5.66-3.9,7.2-6.91,1.01-1.97,1.5-4.18,1.54-6.38.06-1.68-.1-3.36-.19-5.04-.16-2.56-.17-5.14,0-7.7.07-2.23.47-4.44.58-6.67.06-1.56-.08-3.13-.31-4.67-.5-3.05-1.63-5.97-1.99-9.04-.36-2.43-.37-4.91.01-7.34.59-4.18,2.58-8.03,3.11-12.23.16-.94.2-1.89.32-2.83.08-.34.14-.69.21-1.03Z"/>
  <path class="cls-26" d="M55.35,52.16c.5-.1,1.05-.09,1.5-.37-.25,1.4-.56,2.8-1.17,4.09-.5,1.15-1.09,2.29-2.01,3.16-.51.47-1,1.07-1.73,1.16-.64.09-1.43.14-1.92-.37-.49-.52-.58-1.45-.07-1.99.27-.28.64-.45.93-.72,1.32-1.24,2.08-2.98,2.4-4.74.7-.02,1.39-.09,2.08-.21Z"/>
  <path class="cls-35" d="M68.26,51.72c1.03.43,2.15.74,3.28.55-.01.79-.05,1.58-.03,2.38,0,1.11.15,2.22.21,3.33-.04.3-.1.59-.15.88-.66.06-1.59-.1-1.93.63-.12.02-.24.04-.36.07-.06-1.64-.62-3.2-.98-4.79-.22-1-.13-2.03-.04-3.05Z"/>
  <path class="cls-12" d="M76.53,52.3c.19-.1.4-.16.61-.23.11,1.87-.2,3.74.1,5.61.09,1.4.61,2.7,1.04,4.02.62,1.63,1.37,3.2,2.22,4.72.54.92.9,1.93,1.22,2.94,1.37,4.56,1.72,9.42,1.03,14.13-.26,2.06-.91,4.04-1.21,6.09-.25,1.5-.17,3.02-.17,4.54.17,2.6.75,5.15,1.32,7.69.33,1.79.57,3.6.77,5.42.23,3.22.03,6.46-.61,9.62-.98,4.37-2.43,8.68-4.73,12.54-1.28,2.22-2.8,4.31-4.63,6.11-2.3,2.24-4.95,4.13-7.86,5.47-2.02.98-4.16,1.69-6.35,2.16-2.35.57-4.83.55-7.1,1.44-1.25.47-2.37,1.28-3.27,2.26-.67.72-1.12,1.61-1.57,2.47-.46.87-1.09,1.72-2.02,2.15-.7.38-1.52.44-2.3.31-.83-.23-1.56-.85-1.79-1.7-.38-1.05,0-2.21.68-3.05,1.41-1.72,2.75-3.56,4.59-4.86,1.08-.87,2.35-1.45,3.6-2.01.76-.18,1.5-.44,2.27-.6,1.57-.33,3.18-.43,4.75-.75,1.44-.3,2.88-.63,4.26-1.17,4.15-1.58,7.94-4.22,10.7-7.72,2.44-3.18,4.17-6.88,5.28-10.72.97-3.39,1.49-6.93,1.27-10.46-.09-3.72-1.2-7.31-1.8-10.96-.41-2.37-.43-4.8-.24-7.19.22-2.49,1.12-4.87,1.28-7.37.28-1.1.3-2.24.32-3.36,0-.37-.06-.74-.13-1.1.04-.61.14-1.21.31-1.8.54-1.96.67-4.02.58-6.04-.2-2.51-.62-4.99-1.21-7.43-.62-2.87-1.39-5.74-1.31-8.7.04-.82-.09-1.66.08-2.47Z"/>
  <path class="cls-5" d="M82.71,52.06c.33.1.66.21.99.31.79.27,1.69.22,2.43-.18h.02c.11.95.47,1.86.76,2.78.25.83.85,1.48,1.4,2.12.35.41.84.66,1.21,1.06.46.68.16,1.77-.61,2.09-.41.18-.87.3-1.31.21-.48-.13-.88-.45-1.27-.75-.68-.53-1.1-1.3-1.61-1.97-1.03-1.74-1.73-3.67-2.01-5.67Z"/>
  <path class="cls-27" d="M90.06,102.47c-.25-1.42-.64-2.8-.95-4.2-.37-1.54-.63-3.1-.8-4.66-.23-2.36-.11-4.74.32-7.07.32-1.7.6-3.42.71-5.15.39-4.84-.19-9.75-1.61-14.39-.73-2.52-1.77-4.94-2.48-7.46-.18-.6-.42-1.18-.53-1.8-1.03-1.74-1.73-3.67-2.01-5.67-.01-.06-.02-.11-.02-.16-.66-.27-1.28-.61-1.92-.91-.14,2.14.37,4.35,1.59,6.13.3.44.74.79.99,1.27.24.49.07,1.05-.03,1.55-.34.26-.7.57-1.15.59-.6.08-1.17-.19-1.69-.46.57,1.93,1.33,3.8,2.08,5.67,1.04,2.68,1.88,5.46,2.23,8.32.33,2.09.31,4.21.22,6.32-.19,2.37-.6,4.72-1.08,7.05-.49,2.32-.56,4.7-.41,7.06.25,3.69,1.62,7.19,2.08,10.85.44,3.1.27,6.25-.25,9.33-.78,4.45-2.17,8.78-4.01,12.9-1.98,4.29-4.59,8.36-8.13,11.53-1.56,1.43-3.28,2.67-5.1,3.74-1.47.85-3.01,1.58-4.59,2.19-.67.24-1.21.84-1.33,1.55-.07.8.54,1.62,1.34,1.75.47.07.94.04,1.41,0,.62-.11,1.17-.43,1.75-.65,3.04-1.33,6-2.91,8.62-4.97,3.26-2.55,5.97-5.77,8.08-9.32,2.68-4.48,4.61-9.39,5.87-14.45.76-2.97,1.26-6.01,1.38-9.08.14-2.48-.13-4.96-.56-7.4Z"/>
  <path class="cls-38" d="M67.84,72.04c-.05-2.19.07-4.43.83-6.5-.14,2.36-.03,4.74.42,7.07.39,2.44,1.22,4.79,1.56,7.23.32,1.75.33,3.54.24,5.31-.02.35-.08.69-.13,1.03-.36-1.07-.42-2.21-.71-3.3-.88-3.58-2.09-7.13-2.22-10.84Z"/>
  <path class="cls-8" d="M73.38,66.16s.07.03.1.04c-.03.94.27,1.85.4,2.77.27,1.78.58,3.56.72,5.36-.37-1.36-.72-2.73-.9-4.13-.2-1.34-.23-2.7-.32-4.05Z"/>
  <path class="cls-3" d="M78.07,78.75c.06.36.13.73.13,1.1-.03,1.12-.05,2.26-.32,3.36-.11-1.49-.02-2.99.2-4.46Z"/>
  <path class="cls-32" d="M75.27,103.33c-.09-.81-.17-1.62-.34-2.42-.19-.88-.95-1.45-1.43-2.16-1.11-1.57-1.5-3.52-1.66-5.4-.07-.76-.07-1.53-.01-2.29.15-2.1.54-4.18,1.28-6.16.56-1.63,1.27-3.21,1.59-4.91.19-1,.28-2.01.25-3.03-.02-.88-.23-1.75-.36-2.62-.37-1.36-.72-2.73-.9-4.13-.2-1.34-.23-2.7-.32-4.05-.36-1.79-.86-3.55-1.18-5.35-.16-.95-.37-1.88-.49-2.83-.04.3-.1.59-.15.88-.66.06-1.59-.1-1.93.63-.12.02-.24.04-.36.07.05,1.31-.21,2.59-.36,3.89-.09.7-.15,1.4-.23,2.1-.14,2.36-.03,4.74.42,7.07.39,2.44,1.22,4.79,1.56,7.23.32,1.75.33,3.54.24,5.31-.02.35-.08.69-.13,1.03-.11,1.74-.48,3.46-.7,5.19-.38,2.2-.41,4.45-.27,6.67.27,2.43.82,4.84.87,7.29.16,1.97.04,3.95-.13,5.91-.16,1.85-.56,3.68-1,5.48-.67,2.53-1.84,4.91-3.31,7.07-2.6,3.81-6.68,6.52-11.14,7.65-2.67.72-5.47.8-8.21.64-.74-.04-1.48-.07-2.21-.07-2.45-.04-4.91.14-7.29.71-1.33.28-2.6.77-3.9,1.14-2.31.77-4.79,1.25-7.23.91-1.04-.13-2.01-.52-2.97-.92-.68-.28-1.21-.8-1.76-1.26-.82-.68-1.95-.97-2.99-.75-.87.19-1.61.87-1.86,1.72-.32,1.09-.06,2.27.53,3.22.72,1.08,1.74,1.95,2.92,2.5,1.9,1.02,4.11,1.25,6.23,1.25,1.48-.07,2.97-.2,4.41-.54,2.11-.48,4.13-1.26,6.14-2.04,1.13-.46,2.3-.78,3.48-1.05.87-.16,1.75-.2,2.63-.28,2.93-.91,6.03-.86,9.04-1.27,2.57-.3,5.13-.82,7.52-1.84,1.86-.76,3.61-1.78,5.23-2.96,3.28-2.49,5.98-5.74,7.87-9.4,1.18-2.41,1.96-5,2.45-7.63.31-1.58.35-3.2.43-4.81.01-1.8-.13-3.59-.27-5.39Z"/>
  <path class="cls-11" d="M16.42,117.47c.55-1.17,1.77-2.07,3.09-2.02.71-.05,1.4.23,1.94.68.93.72,1.36,1.88,1.66,2.98.59,2.43,1.95,4.63,3.71,6.39.96.86,1.99,1.66,3.15,2.26,1.44.94,3.1,1.47,4.74,1.95,2.32.67,4.73.99,7.13,1.23.6.07,1.22.1,1.8.33.4.16.71.46,1.02.74-2.45-.04-4.91.14-7.29.71-1.33.28-2.6.77-3.9,1.14-.66-.16-1.32-.3-1.98-.44-3.34-.88-6.53-2.35-9.29-4.43-1.16-.8-2.16-1.79-3.12-2.8-1.48-1.66-2.69-3.64-3.03-5.87-.1-.96-.07-1.98.38-2.85Z"/>
  <path class="cls-19" d="M85.6,105.33c-.47-3.66-1.83-7.15-2.08-10.85-.15-2.36-.07-4.74.41-7.06.48-2.33.89-4.68,1.08-7.05.09-2.11.11-4.23-.22-6.32-.36-2.86-1.2-5.64-2.23-8.32-.75-1.87-1.5-3.74-2.08-5.67-1.47-1.38-2.23-3.33-2.66-5.25-.2-.94-.29-1.89-.32-2.85-.12.03-.24.07-.36.1.11,1.87-.2,3.74.1,5.61.09,1.4.61,2.7,1.04,4.02.62,1.63,1.37,3.2,2.22,4.72.54.92.9,1.93,1.22,2.94,1.37,4.56,1.72,9.42,1.03,14.13-.26,2.06-.91,4.04-1.21,6.09-.25,1.5-.17,3.02-.17,4.54.17,2.6.75,5.15,1.32,7.69.33,1.79.57,3.6.77,5.42.23,3.22.03,6.46-.61,9.62-.98,4.37-2.43,8.68-4.73,12.54-1.28,2.22-2.8,4.31-4.63,6.11-2.3,2.24-4.95,4.13-7.86,5.47-2.02.98-4.16,1.69-6.35,2.16-.65.45-1.42.69-2.03,1.2-.63.54-1.18,1.25-1.3,2.1-.17.99.35,2.05,1.22,2.56,1.09.73,2.49.69,3.74.52,1.38-.23,2.73-.62,4.01-1.18-.47.04-.94.06-1.41,0-.8-.13-1.42-.95-1.34-1.75.12-.71.66-1.31,1.33-1.55,1.59-.61,3.12-1.34,4.59-2.19,1.82-1.07,3.54-2.31,5.1-3.74,3.54-3.17,6.15-7.24,8.13-11.53,1.85-4.12,3.23-8.45,4.01-12.9.52-3.08.69-6.23.25-9.33Z"/>
</svg>