<?xml version="1.0" encoding="UTF-8"?>
<svg id="_图层_1" data-name="图层 1" xmlns="http://www.w3.org/2000/svg" viewBox="0 0 116.09 125.95">
  <defs>
    <style>
      .cls-1 {
        fill: #cca074;
      }

      .cls-2 {
        fill: #f8d39b;
      }

      .cls-3 {
        fill: #e99d33;
      }

      .cls-4 {
        fill: #d3a877;
      }

      .cls-5 {
        fill: #3c2921;
      }

      .cls-6 {
        fill: #fbbc9a;
      }

      .cls-7 {
        fill: #cb9e73;
      }

      .cls-8 {
        fill: #c18760;
      }

      .cls-9 {
        fill: #fbbb9a;
      }

      .cls-10 {
        fill: #f9dbb2;
      }

      .cls-11 {
        fill: #e0a556;
      }

      .cls-12 {
        fill: #fbecd8;
      }

      .cls-13 {
        fill: #f7d5a9;
      }

      .cls-14 {
        fill: #f9dab1;
      }

      .cls-15 {
        fill: #fbe8ce;
      }

      .cls-16 {
        fill: #9c6d52;
      }

      .cls-17 {
        fill: #e1be9a;
      }

      .cls-18 {
        fill: #fefdfd;
      }

      .cls-19 {
        fill: #cda175;
      }

      .cls-20 {
        fill: #ddb685;
      }

      .cls-21 {
        fill: #fdfcfd;
      }

      .cls-22 {
        fill: #e0a555;
      }

      .cls-23 {
        fill: #dbb280;
      }

      .cls-24 {
        fill: #31221b;
      }

      .cls-25 {
        fill: #f8d39d;
      }

      .cls-26 {
        fill: #cb9f74;
      }

      .cls-27 {
        fill: #cc9f74;
      }

      .cls-28 {
        fill: #d49868;
      }

      .cls-29 {
        fill: #fdfdfd;
      }

      .cls-30 {
        fill: #f7d6aa;
      }

      .cls-31 {
        fill: #f7d5a8;
      }

      .cls-32 {
        fill: #fbe8cf;
      }
    </style>
  </defs>
  <path class="cls-8" d="M95.48,22.36c-.37-.41-.81-.77-1.15-1.2,1.28-1.25,2.37-2.81,2.69-4.6.21-1.1-.25-2.33-1.26-2.88.94-1.9,1.56-4,1.61-6.13,0-.92-.14-1.96-.87-2.6-.59-.53-1.45-.52-2.19-.41-1.07.23-2.09.64-3.11,1.04-2.31.94-4.57,2.02-6.86,3.03-1.26.53-2.58,1.21-3.99,1.01-5.32-2.02-10.99-3.01-16.66-3.21-2.37-.16-4.75-.05-7.12.06-5.07.36-10.14.99-15.06,2.27-.93.23-1.84.55-2.78.74-1.32.26-2.73.29-4-.23-3.15-1.24-6.16-2.84-9.34-4.02-1.01-.37-2.05-.82-3.15-.74-.7.02-1.37.44-1.68,1.06-.45.87-.45,1.9-.37,2.86.18,1.84.72,3.64,1.58,5.27-.5.28-.93.71-1.11,1.27-.38.91-.18,1.93.17,2.81.53,1.31,1.38,2.5,2.44,3.44-.36.36-.74.71-1.09,1.09-1.76,1.74-3.35,3.66-4.83,5.65-2.97,4.05-5.41,8.49-7.25,13.17.63.13,1.27.2,1.89.36,2.22.5,4.25,1.6,6.08,2.92,2.88,2.13,5.24,4.92,7.02,8.02.04-.21.08-.41.15-.61.7-2.08,1.13-4.25,1.35-6.44.14-1.25.1-2.5.09-3.75,0-.52-.11-1.03-.05-1.55-.73-2.27-1.2-4.64-1.16-7.03-.04-3.91,1.02-7.82,3.07-11.15.47-.73.96-1.45,1.53-2.11,2.02-2.43,4.78-4.28,7.86-5.06,1.9-.45,3.88-.59,5.83-.35,2.46.29,4.87,1.04,7.08,2.18,2.9,1.5,5.49,3.68,7.26,6.44.25.39.44.81.71,1.18,1.25-2.59,3.31-4.72,5.68-6.31,3.56-2.4,7.87-3.78,12.18-3.51,2.18.14,4.34.73,6.25,1.81,2.99,1.71,5.36,4.4,6.88,7.48,1.9,3.84,2.55,8.27,1.92,12.5-.17,1.33-.57,2.61-.89,3.91.02.45-.03.9-.06,1.35-.09,2.48.13,4.96.67,7.38.24,1.23.65,2.41,1,3.61,1.09-1.96,2.45-3.76,4.01-5.36,1.99-2.06,4.34-3.81,6.99-4.91,1.28-.51,2.63-.91,4.02-.94-2.69-6.99-6.75-13.46-11.96-18.84Z"/>
  <path class="cls-23" d="M58.37,9.11c.7-.1,1.49.09,1.95.65.33.36.48.85.49,1.33-.02,1.07-.53,2.16-1.45,2.73-.33.22-.76.22-1.09.03-1.21-.69-1.79-2.26-1.37-3.58.21-.64.83-1.07,1.48-1.17Z"/>
  <path class="cls-20" d="M50.97,10.6c1.43-.37,2.98.49,3.6,1.79.21.49.33,1.08.14,1.59-.22.43-.78.46-1.2.49-1.15-.02-2.31-.49-3.13-1.32-.44-.45-.76-1.16-.45-1.77.17-.43.61-.67,1.04-.78Z"/>
  <path class="cls-4" d="M65.23,10.61c.64-.16,1.35-.1,1.93.23.47.26.73.86.55,1.37-.13.52-.48.93-.88,1.26-.62.54-1.43.78-2.21.97-.51.08-1.06.05-1.54-.16-.41-.22-.43-.75-.35-1.15.23-1.24,1.27-2.28,2.51-2.52Z"/>
  <path class="cls-12" d="M37.94,14.74c1.9-.45,3.88-.59,5.83-.35,2.46.29,4.87,1.04,7.08,2.18,2.9,1.5,5.49,3.68,7.26,6.44.25.39.44.81.71,1.18,1.25-2.59,3.31-4.72,5.68-6.31,3.56-2.4,7.87-3.78,12.18-3.51,2.18.14,4.34.73,6.25,1.81,2.99,1.71,5.36,4.4,6.88,7.48,1.9,3.84,2.55,8.27,1.92,12.5-.17,1.33-.57,2.61-.89,3.91-.43.68-.77,1.41-1.21,2.09-1.92,2.97-4.67,5.37-7.81,6.98-1.97.97-4.07,1.67-6.23,2.02,0,.05,0,.14,0,.19-1.66-3.39-4.26-6.37-7.56-8.26-1.81-1.05-3.81-1.75-5.88-2.06-.57-.07-1.14-.06-1.7-.2,1.05-1.2,1.84-2.67,2.11-4.24.14-.65-.07-1.37-.58-1.8-.5-.41-1.1-.66-1.72-.81-1.4-.31-2.93-.2-4.2.51-.43.23-.82.58-.97,1.05-.19.47-.09.98.02,1.46.35,1.44,1.12,2.76,2.09,3.88-3.25.09-6.46,1.22-9.08,3.13-2.56,1.85-4.61,4.37-6,7.2-1.48-.3-2.96-.61-4.36-1.18-4.15-1.58-7.86-4.45-10.15-8.29-.33-.55-.58-1.14-.94-1.67-.73-2.27-1.2-4.64-1.16-7.03-.04-3.91,1.02-7.82,3.07-11.15.47-.73.96-1.45,1.53-2.11,2.02-2.43,4.78-4.28,7.86-5.06Z"/>
  <path class="cls-2" d="M34.68,27.49c1.46-3.39,5.07-5.75,8.77-5.61,1.98.07,3.94.8,5.43,2.11,1.27,1.04,2.17,2.49,2.72,4.03.24.83.35,1.71.39,2.57.06,1.03-.25,2.02-.53,2.99-.14.32-.22.72-.56.89.1-.31.19-.63.27-.94.18-.31.28-.65.3-1.01.07-1,.13-2.04-.2-3.01-.31-.91-.68-1.81-1.28-2.57-.86-1.09-2-1.98-3.3-2.5-1.91-.72-4.13-.67-5.97.23-1.31.64-2.48,1.62-3.24,2.87-1.08,1.64-1.45,3.7-1.09,5.62.2,1,.61,1.94,1.13,2.81.4.67.98,1.21,1.56,1.73-.26.01-.52-.01-.78-.06-.66-.12-1.33-.1-2-.08-.88-.99-1.58-2.16-2-3.42-.72-2.15-.58-4.57.35-6.64Z"/>
  <path class="cls-25" d="M83.02,27.99c-.71-1.88-2.05-3.52-3.75-4.6-1.98-1.32-4.49-1.79-6.81-1.31-1.55.34-3,1.1-4.15,2.19-1.25,1.15-2.11,2.68-2.53,4.31-.24.97-.23,1.98-.2,2.98.06.69.29,1.36.5,2.02.17.47.35.97.73,1.32-.21-.47-.33-.98-.45-1.48-.23-.24-.22-.58-.26-.89-.04-.65-.13-1.3-.05-1.94.06-.54.23-1.05.38-1.57.28-.99.86-1.88,1.55-2.63,1.17-1.34,2.86-2.17,4.62-2.4.88-.03,1.77-.09,2.63.14.81.2,1.58.52,2.29.95,2.01,1.22,3.4,3.39,3.66,5.72.22,1.75-.23,3.56-1.15,5.06-.47.71-1.04,1.36-1.68,1.92.46.07.88-.19,1.33-.23.51-.06,1.03-.04,1.54-.02.14-.2.3-.38.46-.57,1.97-2.49,2.51-6.03,1.36-8.99Z"/>
  <path class="cls-18" d="M40.74,24.66c1.85-.89,4.06-.95,5.97-.23,1.3.52,2.43,1.41,3.3,2.5.6.76.97,1.66,1.28,2.57.33.97.27,2.01.2,3.01-.02.36-.12.7-.3,1.01.19-1.01.15-2.06-.16-3.04-.51-1.73-1.85-3.19-3.51-3.86-1.41-.57-3.05-.61-4.45,0-.92.35-1.73.96-2.37,1.7-1.1,1.29-1.62,3.04-1.43,4.72.13,1.05.55,2.06,1.17,2.92,1.12,1.5,2.97,2.43,4.84,2.4,1.06,0,2.11-.29,3.03-.83v.12c-.6.7-1.48,1.06-2.34,1.34-1.35.48-2.83.42-4.2.07-.99-.22-1.86-.76-2.66-1.37-.58-.52-1.16-1.06-1.56-1.73-.52-.87-.93-1.81-1.13-2.81-.35-1.92.02-3.98,1.09-5.62.77-1.25,1.93-2.23,3.24-2.87Z"/>
  <path class="cls-18" d="M67.96,26.39c1.17-1.34,2.86-2.17,4.62-2.4.88-.03,1.77-.09,2.63.14.81.2,1.58.52,2.29.95,2.01,1.22,3.4,3.39,3.66,5.72.22,1.75-.23,3.56-1.15,5.06-.47.71-1.04,1.36-1.68,1.92-.31.2-.65.37-.96.58-.6.42-1.31.65-2.02.8-1.58.37-3.26.15-4.72-.52-.6-.28-1.21-.59-1.62-1.13h.16c1.34.8,2.99,1.06,4.51.68,1.68-.4,3.16-1.57,3.93-3.12.69-1.38.9-3.02.42-4.5-.37-1.3-1.19-2.48-2.3-3.25-2.23-1.73-5.69-1.46-7.66.55-1.44,1.41-2.12,3.55-1.72,5.53-.23-.24-.22-.58-.26-.89-.04-.65-.13-1.3-.05-1.94.06-.54.23-1.05.38-1.57.28-.99.86-1.88,1.55-2.63Z"/>
  <path class="cls-5" d="M68.07,27.89c1.97-2.01,5.43-2.28,7.66-.55,1.12.77,1.93,1.95,2.3,3.25.48,1.48.27,3.12-.42,4.5-.77,1.55-2.25,2.71-3.93,3.12-1.51.37-3.16.11-4.51-.68-1.02-.63-1.88-1.52-2.38-2.62-.21-.47-.33-.98-.45-1.48-.4-1.98.28-4.12,1.72-5.53Z"/>
  <path class="cls-24" d="M51.03,30.49c-.51-1.73-1.85-3.19-3.51-3.86-1.41-.57-3.05-.61-4.45,0-.92.35-1.73.96-2.37,1.7-1.1,1.29-1.62,3.04-1.43,4.72.13,1.05.55,2.06,1.17,2.92,1.12,1.5,2.97,2.43,4.84,2.4,1.06,0,2.11-.29,3.03-.83,1.18-.69,2.11-1.8,2.61-3.07.1-.31.19-.63.27-.94.19-1.01.15-2.06-.16-3.04ZM44.47,31.08c-.5.63-1.48.74-2.15.32-.76-.45-.99-1.49-.61-2.26.39-.64,1.17-1.01,1.91-.83.33.12.65.31.88.59.52.61.51,1.59-.03,2.18Z"/>
  <path class="cls-21" d="M41.71,29.14c.39-.64,1.17-1.01,1.91-.83.33.12.65.31.88.59.52.61.51,1.59-.03,2.18-.5.63-1.48.74-2.15.32-.76-.45-.99-1.49-.61-2.26Z"/>
  <path class="cls-29" d="M69.78,28.33c1.16-.34,2.37.88,2.04,2.04-.19.97-1.33,1.53-2.23,1.17-.88-.3-1.3-1.39-.94-2.22.2-.48.62-.87,1.12-.99Z"/>
  <path class="cls-3" d="M56.03,34.49c1.27-.71,2.8-.82,4.2-.51.62.15,1.23.4,1.72.81.51.43.72,1.15.58,1.8-.27,1.58-1.06,3.05-2.11,4.24-.49.48-.95,1.11-1.66,1.23-.67-.14-1.14-.72-1.6-1.19-.97-1.11-1.74-2.43-2.09-3.88-.1-.48-.2-.99-.02-1.46.15-.47.54-.82.97-1.05Z"/>
  <path class="cls-6" d="M33.77,38.58c.7-.62,1.64-.94,2.56-1.03.67-.02,1.34-.04,2,.08.25.05.52.07.78.06.79.61,1.66,1.16,2.66,1.37-.3.19-.67-.06-.99-.13.25.49.48,1.06.3,1.61-.26.81-1.04,1.32-1.78,1.63-1.37.49-2.92.49-4.27-.05-.74-.3-1.51-.76-1.79-1.55-.3-.69,0-1.51.54-2Z"/>
  <path class="cls-9" d="M78.32,37.79c.46.07.88-.19,1.33-.23.51-.06,1.03-.04,1.54-.02.92.1,1.85.43,2.56,1.04.53.47.82,1.25.57,1.94-.23.67-.82,1.15-1.45,1.44-.95.49-2.05.63-3.11.57-1.01-.07-2.03-.43-2.79-1.11-.51-.45-.76-1.19-.56-1.84.08-.22.22-.42.3-.64-.45.07-.91.42-1.37.23.71-.15,1.42-.38,2.02-.8.31-.21.64-.38.96-.58Z"/>
  <path class="cls-17" d="M26.64,40.08c.35.53.61,1.12.94,1.67,2.29,3.83,6,6.71,10.15,8.29,1.4.56,2.88.88,4.36,1.18-1.87,3.66-2.68,7.76-3.09,11.82-.45,5.26-.06,10.64,1.53,15.68,1.06,3.24,2.73,6.34,5.15,8.77,2.41,2.47,5.54,4.23,8.91,4.99,5.38,1.23,11.33.09,15.72-3.31,1.99-1.5,3.63-3.45,4.9-5.59,1.47-2.55,2.42-5.37,3.01-8.24.81-4.08.89-8.28.49-12.41-.41-3.99-1.36-7.96-3.14-11.57,0-.05,0-.14,0-.19,2.16-.35,4.27-1.05,6.23-2.02,3.14-1.61,5.89-4.01,7.81-6.98.44-.68.78-1.41,1.21-2.09.02.45-.03.9-.06,1.35-.09,2.48.13,4.96.67,7.38.24,1.23.65,2.41,1,3.61-1.63,2.81-2.69,5.93-3.15,9.14-.46,3.14-.16,6.33.47,9.43,1.3,6.13,4.04,11.96,8,16.82,1.22,1.45,2.53,2.86,4.1,3.93.54.32,1.12.74,1.79.66-1.93,3.34-4.27,6.44-6.86,9.29-4.27,4.66-9.37,8.59-15.08,11.31-.63-1.62-1.78-3.03-3.28-3.93-1.73-1.04-3.84-1.4-5.83-1.08-2.08.33-4.06,1.5-5.21,3.28-1.18,1.79-1.65,4.13-.96,6.18-2.7.42-5.44.61-8.17.6-2.28,0-4.55-.25-6.82-.47.3-.6.36-1.28.36-1.94.08-2.21-.89-4.44-2.59-5.85-2.7-2.3-6.93-2.53-9.87-.55-1.44.93-2.52,2.38-3.09,4-.3-.27-.7-.37-1.05-.56-4.27-2.11-8.17-4.92-11.63-8.17-3.79-3.53-7.02-7.65-9.65-12.11.8.05,1.5-.45,2.13-.88,1.67-1.24,3.06-2.81,4.34-4.43,2.34-3.01,4.2-6.39,5.59-9.94,1.73-4.44,2.73-9.23,2.47-14.01-.14-1.91-.5-3.8-1.08-5.62-.58-1.76-1.28-3.5-2.23-5.1.04-.21.08-.41.15-.61.7-2.08,1.13-4.25,1.35-6.44.14-1.25.1-2.5.09-3.75,0-.52-.11-1.03-.05-1.55Z"/>
  <path class="cls-16" d="M8.55,45.18c.48-1.37.89-2.76,1.55-4.06.63.13,1.27.2,1.89.36,2.22.5,4.25,1.6,6.08,2.92,2.88,2.13,5.24,4.92,7.02,8.02.95,1.6,1.65,3.34,2.23,5.1.58,1.82.94,3.71,1.08,5.62.26,4.78-.73,9.57-2.47,14.01-1.39,3.55-3.25,6.92-5.59,9.94-1.28,1.62-2.68,3.19-4.34,4.43-.63.43-1.33.93-2.13.88-.53-.16-.88-.63-1.17-1.07-.89-1.32-1.54-2.78-2.21-4.22-.83-1.91-1.55-3.86-2.2-5.84-.04-.13-.06-.26-.08-.39.4.66.81,1.34,1.39,1.86.7.63,1.6,1.11,2.56,1.1,1.11,0,2.12-.69,2.73-1.59.92-1.38,1.22-3.08,1.16-4.72.47.86,1.09,1.68,1.97,2.14.85.47,1.94.53,2.78.03,1.03-.55,1.64-1.6,2.08-2.64,1.29-3.33.89-7.4-1.45-10.18.02,1.56-.34,3.15-1.19,4.47-.57.84-1.45,1.58-2.51,1.61-.93.08-1.82-.38-2.46-1.02-.71-.76-1.2-1.71-1.5-2.7-.07,1.53-.5,3.11-1.51,4.3-.65.77-1.71,1.27-2.72,1.04-1.03-.2-1.83-1-2.31-1.89-.5-.86-.69-1.85-.94-2.81-.07.41-.14.82-.21,1.24-.49-3.58-.63-7.21-.46-10.82.27.41.29.93.53,1.36.36.89,1.07,1.63,1.95,2.01.85.32,1.84.21,2.62-.24.63-.34,1.13-.88,1.56-1.44.33-.43.51-.95.78-1.42.05,1.35.39,2.77,1.35,3.77.62.67,1.55,1.07,2.46.96.79-.07,1.53-.46,2.09-1.01,1.26-1.21,2.02-2.87,2.4-4.56.22-1.2.35-2.44.1-3.65-.35.37-.64.8-1.05,1.11-.72.56-1.66.91-2.58.74-.94-.13-1.71-.79-2.22-1.55-.68-1.03-.93-2.28-1-3.5-.78.92-1.85,1.71-3.11,1.7-1.12.07-2.15-.58-2.81-1.45-.87-1.1-1.15-2.53-1.3-3.9.29-1.37.72-2.71,1.14-4.04Z"/>
  <path class="cls-16" d="M103.43,42.14c1.28-.51,2.63-.91,4.02-.94.4.74.66,1.55.95,2.33.6,1.7,1.13,3.42,1.59,5.15.05.22.14.44.12.67-.22,1.02-.3,2.1-.85,3.02-.59,1.11-1.63,2.12-2.94,2.19-1.36.14-2.58-.7-3.44-1.68-.06,1.43-.46,2.92-1.43,4.01-.72.86-1.95,1.28-3.03.96-.58-.18-1.13-.47-1.57-.88-.32-.28-.55-.63-.86-.92-.28,1.73-.02,3.52.57,5.17.47,1.21,1.16,2.36,2.13,3.22.68.57,1.58.94,2.48.85.78-.07,1.52-.48,2.01-1.08.88-.99,1.2-2.35,1.24-3.65.46,1.11,1.17,2.16,2.21,2.8.87.56,2.05.68,2.99.2.83-.42,1.42-1.21,1.79-2.06.2-.43.22-.91.4-1.35.29,3.66.03,7.34-.39,10.98-.06-.42-.14-.84-.2-1.26-.21.86-.39,1.74-.81,2.52-.47.96-1.25,1.87-2.32,2.14-.89.26-1.87-.08-2.53-.69-1.27-1.17-1.68-2.94-1.86-4.59-.31,1.03-.82,2.01-1.58,2.76-.6.57-1.4.97-2.24.94-1.01-.01-1.93-.61-2.5-1.41-.96-1.34-1.35-3.02-1.34-4.65-2.32,2.76-2.73,6.81-1.45,10.12.44,1.11,1.11,2.24,2.23,2.76.95.47,2.13.29,2.98-.32.72-.46,1.19-1.19,1.62-1.91-.06,1.8.29,3.74,1.51,5.13.79.95,2.16,1.41,3.35,1.01,1.3-.42,2.26-1.5,2.89-2.68.01.05.04.16.05.21-1.02,2.9-2.07,5.81-3.53,8.52-.38.71-.76,1.43-1.28,2.06-.22.25-.48.51-.82.58-.66.08-1.25-.34-1.79-.66-1.57-1.07-2.88-2.48-4.1-3.93-3.96-4.86-6.7-10.69-8-16.82-.63-3.09-.93-6.29-.47-9.43.46-3.21,1.53-6.34,3.15-9.14,1.09-1.96,2.45-3.76,4.01-5.36,1.99-2.06,4.34-3.81,6.99-4.91Z"/>
  <path class="cls-28" d="M5.93,57.09c.34-2.65.81-5.29,1.48-7.88.15,1.36.43,2.79,1.3,3.9.65.87,1.69,1.53,2.81,1.45,1.26,0,2.33-.78,3.11-1.7.07,1.22.32,2.47,1,3.5.51.77,1.28,1.42,2.22,1.55.92.17,1.86-.18,2.58-.74.41-.31.7-.74,1.05-1.11.24,1.21.12,2.45-.1,3.65-.38,1.69-1.14,3.35-2.4,4.56-.56.55-1.3.94-2.09,1.01-.92.12-1.85-.28-2.46-.96-.96-1-1.3-2.42-1.35-3.77-.27.47-.45.99-.78,1.42-.43.56-.93,1.1-1.56,1.44-.78.46-1.77.57-2.62.24-.89-.37-1.59-1.12-1.95-2.01-.24-.43-.26-.95-.53-1.36l-.02-.03c.13-1.06.18-2.12.32-3.17Z"/>
  <path class="cls-28" d="M109.27,52.38c.55-.92.63-2,.85-3.02.29.79.39,1.64.59,2.45.52,2.65.96,5.33,1.13,8.03,0,.11,0,.21,0,.32-.19.43-.2.92-.4,1.35-.36.84-.95,1.63-1.79,2.06-.94.47-2.11.36-2.99-.2-1.04-.64-1.75-1.69-2.21-2.8-.04,1.3-.37,2.65-1.24,3.65-.5.6-1.23,1.02-2.01,1.08-.9.09-1.8-.28-2.48-.85-.98-.86-1.66-2.01-2.13-3.22-.59-1.64-.85-3.43-.57-5.17.31.28.54.64.86.92.44.41.99.7,1.57.88,1.09.32,2.31-.1,3.03-.96.96-1.09,1.37-2.58,1.43-4.01.86.98,2.07,1.82,3.44,1.68,1.32-.07,2.35-1.08,2.94-2.19Z"/>
  <path class="cls-14" d="M21.45,66.89c2.33,2.78,2.74,6.85,1.45,10.18-.44,1.04-1.05,2.1-2.08,2.64-.85.5-1.94.44-2.78-.03-.89-.46-1.5-1.28-1.97-2.14.06,1.63-.25,3.34-1.16,4.72-.61.89-1.62,1.59-2.73,1.59-.96,0-1.86-.48-2.56-1.1-.58-.52-.99-1.2-1.39-1.86-.42-1.13-.69-2.31-.99-3.47-.48-2.08-.91-4.17-1.14-6.29.07-.41.14-.83.21-1.24.25.95.44,1.94.94,2.81.48.89,1.28,1.69,2.31,1.89,1.01.23,2.07-.27,2.72-1.04,1.01-1.19,1.44-2.76,1.51-4.3.3.99.79,1.94,1.5,2.7.64.64,1.53,1.11,2.46,1.02,1.06-.03,1.94-.77,2.51-1.61.85-1.32,1.21-2.91,1.19-4.47Z"/>
  <path class="cls-10" d="M94.61,77.03c-1.29-3.31-.87-7.36,1.45-10.12-.02,1.63.37,3.31,1.34,4.65.57.81,1.5,1.4,2.5,1.41.84.02,1.64-.37,2.24-.94.77-.76,1.28-1.74,1.58-2.76.17,1.65.58,3.42,1.86,4.59.67.62,1.64.95,2.53.69,1.07-.27,1.86-1.18,2.32-2.14.42-.79.59-1.67.81-2.52.06.42.14.84.2,1.26-.28,2.37-.76,4.71-1.33,7.03-.25,1.03-.61,2.03-.85,3.06-.01-.05-.04-.16-.05-.21-.63,1.18-1.59,2.25-2.89,2.68-1.19.4-2.56-.06-3.35-1.01-1.22-1.39-1.57-3.33-1.51-5.13-.44.72-.9,1.45-1.62,1.91-.85.61-2.03.79-2.98.32-1.12-.52-1.79-1.65-2.23-2.76Z"/>
  <path class="cls-15" d="M78.62,93.29c.16-.05.32.05.47.1,1.89.74,4.06.77,5.95,0,.18-.06.38-.17.58-.1.19.2.08.48.02.71-.35,1.22-1.18,2.37-2.39,2.84-.56.24-1.19.29-1.78.17-1.27-.28-2.29-1.31-2.74-2.51-.09-.37-.42-.88-.11-1.21Z"/>
  <path class="cls-32" d="M32.22,93.4c.75.27,1.5.57,2.3.65,1.49.25,3-.09,4.4-.62.19-.1.36.17.31.34-.17,1.23-.94,2.35-1.99,3-.85.54-1.97.66-2.89.23-1.25-.53-2.08-1.79-2.34-3.09-.07-.19,0-.46.23-.51Z"/>
  <path class="cls-31" d="M41.94,93.59c1.99.8,4.26.63,6.2-.2.1.11.26.22.2.39-.2,1.09-.79,2.13-1.67,2.82-.8.56-1.85.83-2.81.54-.83-.19-1.46-.82-1.98-1.46-.38-.59-.68-1.26-.74-1.97.05-.43.54-.22.79-.12Z"/>
  <path class="cls-30" d="M69.64,93.4c.36-.03.67.19,1.01.28,1.8.63,3.83.53,5.57-.22.18-.12.43-.07.49.15,0,.59-.27,1.13-.53,1.64-.49.85-1.26,1.59-2.22,1.84-.71.2-1.51.16-2.18-.17-1.19-.55-1.99-1.76-2.23-3.03-.05-.17.02-.34.07-.49Z"/>
  <path class="cls-30" d="M50.64,96.8c1.26.47,2.6.83,3.96.71.91-.05,1.77-.34,2.61-.67.23-.15.47.15.38.38-.12.75-.5,1.44-.95,2.05-.74.97-2.01,1.55-3.23,1.31-1.59-.32-2.72-1.83-2.96-3.37-.05-.17.1-.28.19-.4Z"/>
  <path class="cls-13" d="M60.31,96.83c.13-.05.26.01.38.05,1.31.54,2.77.76,4.18.54.72-.09,1.41-.34,2.08-.59.21-.09.41.17.35.37-.15.92-.64,1.78-1.3,2.44-.77.73-1.9,1.16-2.96.89-.83-.17-1.52-.72-2.05-1.36-.38-.5-.61-1.11-.79-1.7-.04-.2-.12-.52.1-.63Z"/>
  <path class="cls-7" d="M74.98,99.93c.13-.18.37-.02.54.01,1.22.44,2.53.69,3.83.53.74-.1,1.47-.27,2.16-.54.15-.03.35-.17.48-.02.15.1.08.3.07.45-.23,1.06-.82,2.06-1.72,2.68-.68.49-1.56.71-2.39.56-.94-.14-1.73-.79-2.28-1.55-.38-.58-.72-1.24-.75-1.95.02-.04.05-.13.06-.17Z"/>
  <path class="cls-19" d="M35.88,100.36c.17-.08.35.02.51.07,1.65.67,3.55.8,5.25.23.36-.11.7-.27,1.07-.36.23.02.28.28.23.46-.29,1.47-1.35,2.85-2.83,3.27-1.25.37-2.62-.25-3.4-1.24-.44-.58-.81-1.24-.93-1.97,0-.16-.08-.38.1-.46Z"/>
  <path class="cls-27" d="M65.23,102.18c.33-.18.67.15,1,.21,1.85.61,3.92.48,5.71-.27.27-.13.43.24.34.46-.14.61-.43,1.19-.75,1.72-.75,1.14-2.21,1.84-3.56,1.5-1.36-.35-2.36-1.55-2.7-2.87-.06-.24-.15-.51-.04-.75Z"/>
  <path class="cls-1" d="M45.72,102.41c.6.18,1.18.45,1.8.56,1.54.34,3.16.11,4.59-.52.2-.12.51-.05.48.23-.22,1.59-1.38,3.08-2.96,3.48-.91.22-1.87-.08-2.6-.64-.77-.55-1.25-1.42-1.51-2.31-.06-.26-.18-.76.2-.8Z"/>
  <path class="cls-26" d="M55.38,103.03c.25-.13.5.08.74.14,1.85.73,3.97.66,5.79-.12.17-.1.46-.09.48.16.03.44-.17.86-.34,1.27-.55,1.23-1.73,2.26-3.12,2.33-.67,0-1.34-.2-1.89-.57-.94-.69-1.61-1.75-1.76-2.91,0-.11.03-.2.1-.29Z"/>
  <path class="cls-22" d="M39.3,109.24c2.94-1.98,7.18-1.76,9.87.55,1.7,1.42,2.67,3.65,2.59,5.85,0,.66-.06,1.34-.36,1.94-.38.82-1.26,1.36-2.17,1.32-1.24.01-2.32-.9-2.82-1.99-.16.74-.56,1.45-1.16,1.92-.87.65-2.14.66-3.04.06-.72-.52-1.11-1.37-1.23-2.23-.54.78-1.32,1.41-2.26,1.59-.76.1-1.62-.07-2.16-.67-.57-.6-.76-1.46-.75-2.26.04-.71.13-1.42.4-2.08.57-1.61,1.65-3.06,3.09-4Z"/>
  <path class="cls-11" d="M72.58,107.99c1.99-.32,4.1.03,5.83,1.08,1.49.9,2.65,2.31,3.28,3.93.4,1.16.62,2.47.19,3.65-.33.95-1.34,1.57-2.34,1.51-1.07-.01-2-.71-2.59-1.56-.09.7-.37,1.39-.84,1.92-.63.68-1.65.97-2.55.71-1.06-.26-1.85-1.25-2.02-2.3-.03.02-.09.07-.12.09-.49.89-1.33,1.67-2.36,1.83-1.08.22-2.2-.42-2.65-1.4-.69-2.06-.22-4.39.96-6.18,1.15-1.79,3.13-2.95,5.21-3.28Z"/>
</svg>