<?xml version="1.0" encoding="UTF-8"?>
<svg id="_图层_1" data-name="图层 1" xmlns="http://www.w3.org/2000/svg" viewBox="0 0 158.21 160.32">
  <defs>
    <style>
      .cls-1 {
        fill: #efe6db;
      }

      .cls-2 {
        fill: #49494c;
      }

      .cls-3 {
        fill: #efe6dd;
      }

      .cls-4 {
        fill: #464649;
      }

      .cls-5 {
        fill: #4b4b4e;
      }

      .cls-6 {
        fill: #414144;
      }

      .cls-7 {
        fill: #aca6a3;
      }

      .cls-8 {
        fill: #47474a;
      }

      .cls-9 {
        fill: #f0e7dd;
      }

      .cls-10 {
        fill: #fbfbfb;
      }

      .cls-11 {
        fill: #fdb5a4;
      }

      .cls-12 {
        fill: #4d4c4f;
      }

      .cls-13 {
        fill: #48484c;
      }

      .cls-14 {
        fill: #fec9ba;
      }

      .cls-15 {
        fill: #ece4db;
      }

      .cls-16 {
        fill: #39393c;
      }

      .cls-17 {
        fill: #4c4c4e;
      }

      .cls-18 {
        fill: #454546;
      }

      .cls-19 {
        fill: #fec9b9;
      }

      .cls-20 {
        fill: #48494c;
      }

      .cls-21 {
        fill: #4a4a4e;
      }

      .cls-22 {
        fill: #f0e8de;
      }

      .cls-23 {
        fill: #404042;
      }

      .cls-24 {
        fill: #fef0e6;
      }

      .cls-25 {
        fill: #424245;
      }

      .cls-26 {
        fill: #f8f2e8;
      }

      .cls-27 {
        fill: #414143;
      }

      .cls-28 {
        fill: #313031;
      }

      .cls-29 {
        fill: #eee7dd;
      }

      .cls-30 {
        fill: #4c4c4f;
      }

      .cls-31 {
        fill: #22201f;
      }

      .cls-32 {
        fill: #48484b;
      }

      .cls-33 {
        fill: #39393b;
      }

      .cls-34 {
        fill: #4a4a4d;
      }

      .cls-35 {
        fill: #47474b;
      }

      .cls-36 {
        fill: #0f0e0c;
      }

      .cls-37 {
        fill: #4b4a4b;
      }
    </style>
  </defs>
  <path class="cls-24" d="M53.14,8.91c1.47-.67,3.3-.77,4.71.11.57.39,1.15.82,1.51,1.42,1.07,1.65,1.54,3.68,1.32,5.64-.03.3.03.6.04.91-.11.52-.17,1.05-.27,1.57-.04-.07-.13-.22-.17-.3-.24.69-.25,1.43-.48,2.11-.19.58-.36,1.17-.57,1.74-.11-.25-.11-.71-.49-.66-.42-.1-.57.35-.78.6-.41.18-.91.01-1.3.26-.41.26-.89.36-1.32.6.59-1.28.97-2.65,1.18-4.05.12-1.25.06-2.62-.71-3.66-.44-.66-1.32-1.04-2.09-.75-.93.26-1.54,1.09-1.95,1.91-.86,1.87-.99,4-.71,6.02-.53.66-1.42.35-2.14.44-.04.17-.09.33-.13.5-.05-.14-.11-.29-.16-.43-.06,0-.17-.02-.23-.03-.03.21-.05.42-.07.63-.37-1.86-.41-3.77-.23-5.65.25-2.44.9-4.97,2.52-6.88.64-.88,1.53-1.56,2.51-2.04Z"/>
  <path class="cls-24" d="M36.85,9.18c1.2-.68,2.68-.89,4.01-.5,1.43.47,2.43,1.71,3.11,3,.68,1.43.93,3.01,1.15,4.56.08.91-.03,1.82.07,2.73-.29-.49-.66-.93-1.04-1.35-.36.58-.44,1.26-.54,1.93-.23.78-.48,1.57-.92,2.26-.34.53-.4,1.17-.68,1.72-.47.39-1.14.32-1.71.4.46-1.31.83-2.67.92-4.07.01-.95.12-1.93-.16-2.86-.22-.77-.5-1.56-1.08-2.13-.7-.7-1.95-.74-2.67-.06-.89.75-1.27,1.92-1.41,3.05-.25,2.21.11,4.46.91,6.52-.86.34-1.94.56-2.4,1.46-.94-2.65-1.6-5.44-1.57-8.27-.03-1.49.18-2.99.72-4.39.58-1.67,1.72-3.2,3.31-4.02Z"/>
  <path class="cls-12" d="M63.99,14.28c1.55-.74,3.47-.58,4.91.36,1.37.94,2.13,2.56,2.41,4.16.56-1.03,1.24-2.06,2.27-2.67,1.01-.69,2.28-.91,3.48-.74,1.08.14,2.06.75,2.77,1.55.76.9,1.12,2.07,1.26,3.22.44-.44.73-1.03,1.23-1.44,1.74-1.64,4.87-1.83,6.52.03.82.9,1.11,2.16,1.13,3.35.55-.56,1.12-1.14,1.89-1.38,1.08-.46,2.35-.4,3.37.17.98.51,1.55,1.56,1.76,2.62.17.99.1,2.04-.24,2.99.06.09.12.17.19.26.31-.01.63-.01.94.03-.4.04-.8.08-1.21.1-.03-.03-.1-.1-.13-.13-.71.09-1.43,0-2.15,0-1.71-.02-3.42-.07-5.13-.07-.02-.43.25-.78.4-1.16.43-1,.39-2.13.29-3.19-.45.32-.61.88-.75,1.38-.17.69-.3,1.38-.43,2.07-.06.23-.13.47-.19.7-1.7.1-3.4-.05-5.1.06-.26.26-.44.58-.65.87-.02-.26-.03-.51-.05-.77-.06.04-.17.13-.23.17-.03-.13-.05-.26-.08-.39-.61,0-1.23,0-1.84-.02.11-.07.23-.13.35-.2-.33-.46-.14-1.04-.07-1.56.23-1.19.34-2.4.28-3.62,0-.2-.1-.38-.19-.55-.54,1.07-.72,2.28-1.07,3.42-.16.74-.4,1.46-.57,2.2-.68.08-1.36.03-2.04.02-.21-.02-.4.07-.57.16-.02,0-.06.03-.08.03-.98-.13-1.97-.21-2.96-.2-.98-.1-1.96-.1-2.93-.17.29-1.67.68-3.33.68-5.03,0-.56.04-1.13-.15-1.66-.59.63-.74,1.51-.91,2.32-.24,1.37-.39,2.76-.77,4.1-.49,0-.99,0-1.45.19-.32,0-.64-.01-.95-.05-.44-.41-1.09-.19-1.62-.27.02-1.56.36-3.09.38-4.65,0-.37-.07-.73-.18-1.08-.34.4-.42.94-.52,1.44-.24,1.43-.45,2.86-.71,4.28.17.06.34.12.52.18-.17-.02-.35-.04-.52-.06-.86-.13-1.73-.1-2.59-.21-.46-.07-1.05.12-1.43-.18.04-1.06.29-2.1.24-3.16.09-1.11.09-2.23.27-3.34,0-.37-.07-.73-.09-1.1.3-.2.35-.58.52-.87.51-1.11,1.42-2.04,2.54-2.54Z"/>
  <path class="cls-19" d="M37.3,14.82c.73-.68,1.97-.64,2.67.06.58.57.86,1.36,1.08,2.13.27.93.17,1.91.16,2.86-.09,1.39-.46,2.76-.92,4.07-.18.45-.41.87-.72,1.24-.77.05-1.53.19-2.29.31-.16-.37-.33-.73-.48-1.1-.8-2.06-1.16-4.32-.91-6.52.14-1.12.52-2.29,1.41-3.05Z"/>
  <path class="cls-14" d="M53.74,14.44c.77-.28,1.65.09,2.09.75.77,1.05.82,2.42.71,3.66-.21,1.39-.59,2.77-1.18,4.05-.3.64-.59,1.3-1.03,1.86-.2.31-.61.14-.91.15-.59-.08-1.18.02-1.76-.08-.35-.77-.42-1.64-.57-2.47-.28-2.02-.16-4.15.71-6.02.41-.82,1.02-1.65,1.95-1.91Z"/>
  <path class="cls-6" d="M60.46,18.56c.09-.52.16-1.05.27-1.57.12.22.2.46.2.71.03.37.1.73.09,1.1-.17,1.1-.17,2.22-.27,3.34.05,1.06-.2,2.11-.24,3.16.38.3.97.11,1.43.18.86.11,1.73.08,2.59.21.02.36.03.72-.01,1.08-.08.14-.17.28-.25.41-.03-.09-.08-.28-.11-.38-.38.05-.75.14-1.11.26-.09-.06-.18-.13-.26-.19-.1.11-.2.21-.3.32-.78-.21-1.58-.05-2.37-.15-.46-.14-.92-.36-1.23-.73.03.5.25,1.04,0,1.51-.15-.86-.26-1.74-.57-2.56-.05-.14.06-.28.1-.41.96-1.99,1.67-4.11,2.05-6.29Z"/>
  <path class="cls-9" d="M43.61,19.55c.1-.66.18-1.35.54-1.93.38.42.75.86,1.04,1.35-1.62,1.24-2.13,3.42-2.17,5.37-.06.23-.13.46-.19.7-1.09.02-2.18.01-3.26.14.31-.37.55-.8.72-1.24.57-.09,1.24-.01,1.71-.4.28-.55.34-1.2.68-1.72.44-.69.7-1.48.92-2.26Z"/>
  <path class="cls-30" d="M45.19,18.97c.82-.67,1.84-1.26,2.93-1.15-.18,1.88-.14,3.79.23,5.65.07.4.17.79.23,1.19-1.32-.07-2.65.02-3.97.04-.2-.01-.39.07-.57.16-.32.05-.65.05-.97.05-.02-.19-.03-.38-.05-.57.04-1.95.54-4.13,2.17-5.37Z"/>
  <path class="cls-26" d="M59.81,20.38c.23-.69.24-1.43.48-2.11.04.07.13.22.17.3-.38,2.18-1.09,4.3-2.05,6.29-.04.13-.15.27-.1.41.31.82.42,1.7.57,2.56.57,3.54.5,7.17-.07,10.71-.06.39-.14.83.12,1.17.14.23.47.17.69.1.55-.26.96-.73,1.35-1.18,1.25-1.53,2.03-3.38,2.59-5.26.61-2.14.86-4.37.96-6.59.04-.36.03-.72.01-1.08.17.02.34.05.52.06.71.04,1.43.05,2.14.09.31.04.63.06.95.05.77.04,1.55.06,2.32.15.09.82.2,1.64.28,2.47.3,4.15-.32,8.33-1.48,12.31-.18.72-.43,1.41-.56,2.14-.05.26.02.62.32.69.59.1,1.06-.34,1.48-.69,1.5-1.36,2.61-3.09,3.54-4.87,1.7-3.32,2.47-7.03,2.63-10.73.01-.34,0-.69-.01-1.03.02,0,.06-.03.08-.03,1.3-.02,2.59.1,3.88.13.61.02,1.23.03,1.84.02.03.13.05.26.08.39.06,1.41.23,2.83.08,4.24-.06,2.56-.57,5.09-1.09,7.59-.04.33-.14.74.13,1,.28.26.68.06.96-.09.91-.53,1.6-1.35,2.26-2.15,2.08-2.66,3.34-5.87,4.1-9.13.13-.53.27-1.05.27-1.6,1.71,0,3.42.05,5.13.07.72,0,1.43.08,2.15,0,.03.03.1.09.13.13-.34,2.75-1.12,5.44-2.19,7.99-1.63,3.98-4.03,7.64-7.01,10.74-.32.37-.77.83-.59,1.37.29.31.76.14,1.12.07,2.02-.61,3.85-1.74,5.53-3,1.93-1.48,3.62-3.24,5.1-5.17,1.77-2.36,3.28-4.92,4.35-7.67.49-1.32.97-2.67,1.15-4.07.08.03.16.06.25.08,1.07-.04,2.1.34,3.11.64.8.22,1.5.69,2.2,1.12.54.43,1.01.95,1.5,1.44.83,1.03,1.34,2.28,1.66,3.56.33,1.67.27,3.4-.04,5.08-.1.53-.37,1.03-.3,1.59-.03.04-.1.13-.13.17l.08-.42c-3.59.77-6.77,2.75-9.69,4.9-1.87,1.37-3.66,2.86-5.57,4.18-3.35,2.4-7,4.36-10.86,5.8-.57.17-1.09.54-1.23,1.15.17.24.36.5.66.58,2.18.71,4.49.94,6.77.97,3.36.08,6.71-.49,9.95-1.33.14.08.28.16.43.24-1.61,2.47-3.36,4.86-5.1,7.24-1.13,1.62-2.27,3.24-3.4,4.87-.09.12-.2.2-.33.26-4.97,1.28-9.77,3.11-14.69,4.57-2.56.78-5.16,1.42-7.77,2.03-.44.07-.93.48-.69.96.26.35.73.46,1.12.63,2.59.88,5.34,1.23,8.07,1.29,2.73.02,5.45-.3,8.14-.74-.66,1.31-1.55,2.49-2.33,3.73-1.07,1.6-2.14,3.21-3.2,4.81-1.18,1.64-2.19,3.4-3.4,5.01-.14.18-.16.41-.22.62l-.11-.06c.03-.1.09-.29.13-.39-3.91,1.12-7.77,2.51-11.39,4.4-3.44,1.78-6.71,3.87-9.75,6.26-.26.21-.56.42-.64.77-.09.24.08.55.34.57.63.07,1.26-.01,1.89-.06,4.2-.39,8.36-1.09,12.57-1.37-.64,1.25-1.5,2.38-2.25,3.57-.94,1.49-2.07,2.85-2.91,4.4.49.13,1,.09,1.51.09,3.34-.03,6.69-.04,10.03.06.5,6.09,1.92,12.17,4.67,17.65-.12.11-.22.29-.41.28-1.65.08-3.3,0-4.94.07-.89.1-1.78.05-2.67.07-.57,0-1.15.05-1.71-.11-.02-.23-.05-.45-.09-.67-.03.25-.07.5-.14.74-.12-2.65-.42-5.32-1.38-7.8-.49-1.31-1.07-2.61-1.94-3.71-.22-.28-.58-.55-.95-.36-.41.39-.41,1.01-.51,1.54-.34,2.41-.71,4.81-1.15,7.2-.18,1.05-.44,2.07-.59,3.12v.02c-1.5.01-3,.1-4.49-.03-1.11,0-2.23,0-3.34-.01-.51-.02-1.03.05-1.51-.14.05-1.92.12-3.85.38-5.75.39-3.1,1.26-6.11,2.13-9.1.15-.54.43-1.11.28-1.68-.31-.48-.9-.09-1.27.09-3.15,1.85-5.41,4.89-7,8.12-.89,1.81-1.52,3.74-1.96,5.7-.17.8-.39,1.61-.37,2.44,2.6.22,5.21.26,7.81.31v.08c-.41,0-.82,0-1.23.02.07.45.08.9,0,1.35-.15,1.84.05,3.7-.22,5.53-.16.06-.28.16-.36.3-3.82.61-7.76.41-11.5-.57.08-.05.16-.1.25-.15-.09-.02-.25-.07-.34-.1-.11-.75.12-1.49.1-2.23-.01-.58.11-1.15.14-1.73,0-1.02.24-2.03.12-3.05-.6-.15-1.23-.22-1.84-.14-.1.45-.09.93-.25,1.37-.02-.11-.05-.32-.06-.43-.42.21-.88.41-1.15.82-.63.89-.68,2.01-.86,3.05-.09.4.04.8.15,1.18-.41,0-.82-.02-1.21.09.72.05,1.44.02,2.16.07,0,.05-.01.16-.02.21h-.06c-3.95-.07-7.91-.56-11.68-1.75.03-.04.08-.12.1-.17-.08-.02-.25-.06-.33-.08.26-1.63.65-3.24,1.03-4.85.91-.03,1.79-.24,2.69-.32.46-.03.9-.21,1.27-.49,1.24.23,2.48.54,3.74.61.81-3.49,2.14-6.89,4.18-9.85,1.01-1.53,2.2-2.95,3.48-4.26.81-.8,1.69-1.52,2.52-2.28.26-.25.6-.57.47-.98-.23-.31-.65-.19-.97-.15-2.08.37-4.06,1.2-5.94,2.15-3.72,1.96-6.9,4.91-9.19,8.43-.88,1.37-1.7,2.81-2.16,4.39-.05-.08-.09-.17-.13-.24-.09-.06-.19-.1-.26-.18-.76-.95-1.41-2.03-1.6-3.25-.56-2.57.23-5.2,1.36-7.51,1.84-3.54,4.2-6.77,6.49-10.02h.04c.77,0,1.53-.15,2.28-.26,4.54-.63,9.05-1.71,13.25-3.56,2.03-.9,4.01-1.96,5.79-3.29.26-.24.68-.47.64-.88-.14-.41-.64-.3-.98-.29-2.44.3-4.9.35-7.35.25-2.38-.12-4.73-.5-7.05-1-.04.03-.11.08-.15.11.05-.14.17-.23.28-.31.23-.44.64-.75.9-1.17.24-.38.48-.75.78-1.09,1.83-2.36,3.56-4.8,5.47-7.1.48.27,1,.45,1.53.61,2.68.9,5.43,1.64,8.25,1.88,4.08.35,8.33-.14,12.03-1.99.35-.2.88-.46.76-.94-.12-.44-.67-.46-1.04-.55-5.69-.87-11.09-3.16-15.99-6.14.74-1.1,1.61-2.11,2.4-3.18,1.2-1.43,2.28-2.95,3.46-4.4.69-.66,1.05-1.7,2.02-2.04,1.71.4,3.46.6,5.21.74,5.11.42,10.31-.47,15.04-2.44,1.15-.51,2.3-1.04,3.36-1.73.27-.2.65-.43.59-.82-.03-.36-.44-.46-.74-.48-2.87-.3-5.74-.7-8.54-1.46-2.72-.7-5.33-1.75-7.87-2.92-.11-.76.69-1.15,1-1.75,1.88-2.38,3.83-4.7,5.65-7.12-.68-.12-1.38.05-2.04-.15.72-.08,1.44-.03,2.16-.02.31-.36.73-.66.84-1.14-.97-.23-1.94-.5-2.95-.47-3.07-.05-6.15-.06-9.2.33-1.37.13-2.74.25-4.11.42-1.55.24-3.13.33-4.63.81-.72.21-1.49.33-2.09.81.28.02.56.03.84.04-.33.19-.74.12-1.1.18-5.21.64-10.36,1.67-15.52,2.62-.05-2.49-.58-4.97-1.52-7.28-.97-2.37-2.49-4.52-4.44-6.19-2.72-2.35-6.29-3.7-9.88-3.7-1.23-.02-2.47.1-3.67.36.44-.7.76-1.48,1.25-2.15.72-.92,1.42-1.86,2.25-2.68,1.19-1.05,2.4-2.13,3.83-2.86,2.21-1.32,4.69-2.11,7.17-2.77.93-.22,1.86-.45,2.81-.58.76-.12,1.52-.27,2.29-.31,1.08-.13,2.17-.12,3.26-.14.07-.23.13-.46.19-.7.01.19.03.38.05.57.32,0,.65,0,.97-.05,1.5-.06,3,0,4.5-.03l.03-.17c-.06-.4-.16-.79-.23-1.19.02-.21.04-.42.07-.63.06,0,.17.02.23.03.05.14.11.29.16.43.04-.17.08-.33.13-.5.72-.09,1.61.22,2.14-.44.15.83.22,1.69.57,2.47.58.09,1.18,0,1.76.08.3,0,.7.16.91-.15.44-.56.73-1.22,1.03-1.86.42-.23.91-.33,1.32-.6.39-.24.89-.08,1.3-.26.21-.26.36-.7.78-.6.38-.05.38.42.49.66.21-.58.38-1.16.57-1.74Z"/>
  <path class="cls-25" d="M70.37,21.6c.17-.81.33-1.69.91-2.32.2.53.16,1.11.15,1.66,0,1.7-.39,3.37-.68,5.03.98.06,1.96.06,2.93.17.99-.01,1.98.07,2.96.2.02.34.03.69.01,1.03-.1-.15-.19-.29-.29-.44-.21.28-.38.66-.75.74-.54.11-1.09.07-1.63.17.07.11.14.22.21.33-.4.01-.93-.17-1.14.29-.28.14-.57.25-.86.35.03-.47.48-.65.86-.77-.31-.28-.76-.31-1.1-.55-.28-.23-.67-.19-.98-.05-.07.36-.1.74-.24,1.09-.08-.82-.2-1.64-.28-2.47-.77-.09-1.54-.11-2.32-.15.46-.2.96-.18,1.45-.19.38-1.34.53-2.73.77-4.1Z"/>
  <path class="cls-23" d="M65.25,21.29c.1-.5.18-1.04.52-1.44.11.35.18.71.18,1.08-.01,1.56-.36,3.09-.38,4.65.53.08,1.19-.14,1.62.27-.71-.04-1.43-.05-2.14-.09-.17-.05-.35-.12-.52-.18.27-1.42.48-2.85.71-4.28Z"/>
  <path class="cls-27" d="M80.98,20.5c.09.17.19.35.19.55.05,1.21-.05,2.43-.28,3.62-.07.51-.26,1.09.07,1.56-.12.07-.23.13-.35.2-1.29-.03-2.59-.15-3.88-.13.18-.09.37-.18.57-.16.68.02,1.36.06,2.04-.02.17-.74.41-1.46.57-2.2.36-1.14.53-2.34,1.07-3.42Z"/>
  <path class="cls-27" d="M89.19,23.73c.15-.5.31-1.06.75-1.38.1,1.07.14,2.19-.29,3.19-.15.38-.41.73-.4,1.16,0,.54-.15,1.07-.27,1.6-.14-.21-.28-.42-.44-.61-.25-.27-.2-.66-.33-.99.2-.01.4-.03.6-.04-.01-.29-.04-.58-.05-.86.13-.69.26-1.39.43-2.07Z"/>
  <path class="cls-1" d="M36.8,24.4c.15.37.31.73.48,1.1-.95.13-1.88.36-2.81.58l-.07-.22c.46-.9,1.54-1.12,2.4-1.46Z"/>
  <path class="cls-16" d="M44.03,24.87c.18-.08.36-.17.57-.16,1.32-.02,2.65-.11,3.97-.04l-.03.17c-1.5.04-3-.03-4.5.03Z"/>
  <path class="cls-8" d="M88.57,26.5c.06-.23.13-.47.19-.7.02.29.04.58.05.86-.2.01-.4.03-.6.04.13.33.08.72.33.99.16.19.3.4.44.61-.76,3.26-2.02,6.48-4.1,9.13-.67.8-1.35,1.62-2.26,2.15-.28.15-.68.35-.96.09-.27-.26-.17-.67-.13-1,.52-2.5,1.03-5.02,1.09-7.59.15-1.41-.02-2.83-.08-4.24.06-.04.17-.13.23-.17.02.26.03.51.05.77.21-.29.39-.62.65-.87,1.7-.11,3.4.04,5.1-.06Z"/>
  <path class="cls-4" d="M58.88,26.31c.31.37.77.59,1.23.73.79.1,1.59-.07,2.37.15.1-.11.2-.21.3-.32.09.06.17.13.26.19.36-.12.73-.21,1.11-.26.03.09.08.28.11.38.08-.14.17-.27.25-.41-.1,2.22-.34,4.45-.96,6.59-.56,1.88-1.34,3.73-2.59,5.26-.39.45-.8.93-1.35,1.18-.22.07-.55.13-.69-.1-.26-.33-.18-.78-.12-1.17.56-3.54.63-7.17.07-10.71.26-.47.04-1.01,0-1.51Z"/>
  <path class="cls-32" d="M96.66,26.89c.4-.02.8-.07,1.21-.1,1.65.04,3.3.03,4.94.18.44.02.88.05,1.31.18-.18,1.4-.66,2.75-1.15,4.07-1.07,2.75-2.58,5.32-4.35,7.67-1.48,1.92-3.17,3.69-5.1,5.17-1.68,1.26-3.5,2.39-5.53,3-.36.08-.82.25-1.12-.07-.18-.54.26-1,.59-1.37,2.98-3.1,5.37-6.77,7.01-10.74,1.07-2.55,1.85-5.24,2.19-7.99Z"/>
  <path class="cls-8" d="M75.63,27.66c.37-.08.54-.47.75-.74.09.15.19.29.29.44-.16,3.7-.94,7.42-2.63,10.73-.92,1.78-2.04,3.51-3.54,4.87-.42.35-.89.79-1.48.69-.31-.07-.38-.42-.32-.69.13-.73.38-1.43.56-2.14,1.16-3.99,1.78-8.16,1.48-12.31.13-.35.17-.72.24-1.09.31-.14.7-.18.98.05.34.24.78.27,1.1.55-.39.12-.84.3-.86.77.3-.09.58-.21.86-.35.21-.46.74-.27,1.14-.29-.07-.11-.14-.22-.21-.33.54-.1,1.09-.06,1.63-.17Z"/>
  <path class="cls-36" d="M43.57,33.74c.53-.18,1.1-.27,1.65-.15-.51.2-1.12.38-1.65.15Z"/>
  <path class="cls-31" d="M45.22,33.59c1.82.12,3.39,1.79,3.49,3.61.15,1.4-.46,2.87-1.61,3.7-.54.38-1.15.69-1.81.77-1.25.22-2.55-.3-3.43-1.18-1.23-1.33-1.41-3.47-.47-5,.48-.81,1.27-1.45,2.17-1.74.54.23,1.14.05,1.65-.15Z"/>
  <path class="cls-10" d="M45.95,35.22c.59-.23,1.22.21,1.48.73.32.78-.42,1.69-1.23,1.63-.76.02-1.33-.86-1.09-1.56.12-.39.47-.67.84-.8Z"/>
  <path class="cls-7" d="M19.98,36.54c1.21-.26,2.44-.37,3.67-.36,3.6,0,7.17,1.35,9.88,3.7,1.95,1.67,3.47,3.82,4.44,6.19.94,2.31,1.46,4.79,1.52,7.28-2.75.67-5.54,1.17-8.36,1.35-2.63.15-5.37-.15-7.75-1.35-1.17-.63-2.23-1.49-3.05-2.54-1.41-1.92-2.06-4.31-2.1-6.67-.09-2.63.56-5.26,1.74-7.61Z"/>
  <path class="cls-2" d="M102.75,45.31c2.92-2.15,6.1-4.13,9.69-4.9l-.08.42c-1.05,3.81-3.16,7.22-5.37,10.46-1.16,1.68-2.36,3.34-3.56,4.99-.21.31-.64.26-.95.38-3.25.84-6.59,1.42-9.95,1.33-2.28-.03-4.59-.26-6.77-.97-.31-.07-.49-.33-.66-.58.14-.61.66-.97,1.23-1.15,3.86-1.44,7.51-3.41,10.86-5.8,1.91-1.32,3.69-2.81,5.57-4.18Z"/>
  <path class="cls-11" d="M50.93,40.89c.91-.09,1.85-.05,2.67.4,1.05.46,1.9,1.53,1.79,2.72.07.81-.34,1.58-.92,2.12-1,1-2.49,1.39-3.87,1.29-1.15-.1-2.41-.51-3.01-1.59-.7-.94-.51-2.3.21-3.17.7-1.05,1.92-1.61,3.13-1.78Z"/>
  <path class="cls-18" d="M22.19,42.04c.71-.2,1.41.47,1.4,1.17.11.8-.72,1.68-1.53,1.32-1.09-.38-.98-2.22.13-2.5Z"/>
  <path class="cls-37" d="M28.25,42.1c.52-.14,1.12.14,1.34.64.29.58.09,1.33-.41,1.73-.56.42-1.47.15-1.75-.48-.31-.7.04-1.69.82-1.89Z"/>
  <path class="cls-28" d="M31.7,46.83c.15-.38.75-.43.99-.1.22.35.16.79.1,1.18-.42,1.83-2.43,3.16-4.28,2.71-.86-.2-1.79-.66-2.12-1.53.12-.37.45-.73.87-.61.43.29.79.72,1.33.81,1.15.38,2.42-.38,2.9-1.43.17-.32.13-.68.21-1.02Z"/>
  <path class="cls-29" d="M66.11,48.47c3.05-.38,6.13-.38,9.2-.33,1-.03,1.98.24,2.95.47-.11.48-.53.78-.84,1.14-.72-.01-1.45-.06-2.16.02-3.36.03-6.73-.06-10.09.09-3.02.08-6.04.41-9.04.69-.28,0-.56-.02-.84-.04.6-.48,1.37-.6,2.09-.81,1.5-.47,3.08-.57,4.63-.81,1.37-.16,2.74-.29,4.11-.42Z"/>
  <path class="cls-32" d="M70.38,58.68c.07.03.21.08.28.11,2.54,1.17,5.15,2.22,7.87,2.92,2.79.75,5.66,1.16,8.54,1.46.3.02.71.12.74.48.07.39-.32.62-.59.82-1.06.69-2.21,1.22-3.36,1.73-4.73,1.97-9.92,2.86-15.04,2.44-1.75-.14-3.5-.33-5.21-.74-.07-.02-.2-.07-.27-.09.22-.4.48-.76.76-1.12,1.52-1.95,3.02-3.92,4.56-5.86.57-.73,1.11-1.47,1.72-2.16Z"/>
  <path class="cls-20" d="M79.38,73.83c4.92-1.45,9.72-3.29,14.69-4.57-.04.22-.14.42-.26.6-1.78,2.67-3.56,5.33-5.37,7.98-.05.04-.14.12-.19.16-2.69.43-5.41.76-8.14.74-2.73-.06-5.48-.41-8.07-1.29-.39-.17-.86-.28-1.12-.63-.25-.48.25-.89.69-.96,2.61-.61,5.21-1.25,7.77-2.03Z"/>
  <path class="cls-2" d="M54.38,79.14c.44-.54.86-1.11,1.34-1.61,4.9,2.98,10.29,5.26,15.99,6.14.37.09.92.11,1.04.55.12.49-.42.74-.76.94-3.7,1.85-7.95,2.34-12.03,1.99-2.82-.24-5.58-.98-8.25-1.88-.53-.16-1.05-.34-1.53-.61,1.34-1.89,2.81-3.67,4.21-5.51Z"/>
  <path class="cls-13" d="M67.74,96.11c3.61-1.89,7.47-3.27,11.39-4.4-.03.1-.09.29-.13.39-2.22,3.41-4.5,6.79-6.77,10.18h-.09c-4.21.28-8.37.98-12.57,1.37-.63.04-1.26.13-1.89.06-.26-.03-.43-.34-.34-.57.08-.35.38-.56.64-.77,3.04-2.39,6.32-4.48,9.75-6.26Z"/>
  <path class="cls-8" d="M42.89,94.21c2.32.5,4.68.88,7.05,1,2.45.09,4.91.05,7.35-.25.33,0,.83-.12.98.29.04.41-.38.64-.64.88-1.78,1.34-3.76,2.39-5.79,3.29-4.2,1.85-8.71,2.94-13.25,3.56-.76.11-1.51.26-2.28.25,1.45-2.33,3.15-4.49,4.76-6.71.54-.75,1.13-1.47,1.68-2.22.04-.03.11-.08.15-.11Z"/>
  <path class="cls-17" d="M117.96,100.29c.81-.4,1.66-.86,2.59-.83.45,0,.66.48.68.87,0,.54-.07,1.08-.25,1.6.82-.46,1.71-.79,2.64-.95.74-.08,1.66.07,2.01.82.48,1.04.47,2.24.26,3.34-.22,1.25-.87,2.39-1.69,3.33.37.03.83.04,1.05.4.3.49.02,1.07-.27,1.5-1.76,2.56-5.22,3.66-8.17,2.83-.96-.57-1.96-1.1-2.83-1.8-1.09-2.47-1.05-5.54.46-7.83.85-1.39,2.09-2.52,3.51-3.3Z"/>
  <path class="cls-32" d="M41.75,111.64c1.88-.96,3.85-1.78,5.94-2.15.32-.03.74-.16.97.15.14.41-.2.72-.47.98-.83.77-1.71,1.49-2.52,2.28-1.29,1.31-2.47,2.73-3.48,4.26-2.04,2.96-3.38,6.36-4.18,9.85-1.27-.07-2.5-.38-3.74-.61-1.21-.29-2.41-.74-3.39-1.52-.16-.14-.32-.28-.47-.43.46-1.57,1.27-3.01,2.16-4.39,2.3-3.52,5.47-6.47,9.19-8.43Z"/>
  <path class="cls-32" d="M78.52,110.41c2.64-.04,5.27-.03,7.91,0,.01.06.03.18.05.24.33,3.15.51,6.32,1,9.45.27,1.79.6,3.57.96,5.34.17.85.43,1.68.53,2.54-.18.13-.4.13-.61.15-1.12.07-2.24.08-3.36.16-.54.02-1.09.06-1.63,0-.04-.06-.13-.18-.17-.23-2.75-5.48-4.17-11.56-4.67-17.65Z"/>
  <path class="cls-26" d="M86.68,110.42c2.79-.1,5.58-.03,8.38-.05,1.46.14,2.94.03,4.4.21,1.62.14,3.25.42,4.76,1.05,1.06.56,2.12,1.21,2.86,2.18.43.55.81,1.15,1.1,1.79.26.79.63,1.53.78,2.35.17.6.15,1.24.42,1.8.02,1.19,0,2.45-.57,3.54-.14.3-.46.58-.32.94.28,1.15.54,2.31.8,3.47.23,1.49.65,2.96.81,4.47-3.05,1.01-6.23,1.66-9.44,1.78-.85.07-1.72-.04-2.56.1-.36-.92-.35-1.92-.53-2.88-.22-1.2-.32-2.42-.61-3.6.24-.01.49-.03.73-.04-.03-.05-.09-.14-.12-.19,1.67-.23,3.34-.47,4.99-.82.28-.07.57-.13.81-.29,0-.71-.33-1.38-.5-2.06-1.09-3.44-3.01-6.7-5.8-9.03-.44-.35-.9-.76-1.47-.86-.34-.07-.62.27-.55.6.11.87.37,1.7.53,2.56.71,3.28,1.29,6.6,1.36,9.96-.62.06-1.25.07-1.87.2-.09.97.12,1.93.12,2.9,0,.72.1,1.43.13,2.14-.01.74.22,1.49,0,2.22-.08.02-.25.07-.33.09.03.04.08.13.1.18-2.83.75-5.79.85-8.69.68-.81-.05-1.62-.13-2.42-.27.03-.05.1-.16.13-.22-.21-.01-.42-.03-.63-.03-.25-1.54-.07-3.11-.24-4.66-.03-.71,0-1.41,0-2.12.92-.14,1.86.03,2.78-.08-.33-.05-.66-.09-.99-.15,1.12-.08,2.24-.09,3.36-.16.21-.02.43-.02.61-.15-.1-.86-.36-1.69-.53-2.54-.36-1.77-.69-3.55-.96-5.34-.49-3.13-.67-6.3-1-9.45.05-.06.15-.17.2-.22Z"/>
  <path class="cls-26" d="M113.98,111.41c.87.7,1.87,1.23,2.83,1.8-.07.77-.57,1.41-.95,2.06-1.24,1.97-3.17,3.56-5.43,4.16.06-1.42-.42-2.81-1.15-4.02.75-.38,1.56-.65,2.23-1.17,1.05-.72,1.82-1.77,2.49-2.83Z"/>
  <path class="cls-13" d="M58.89,111.82c.37-.18.96-.58,1.27-.09.15.57-.13,1.14-.28,1.68-.86,2.99-1.74,6-2.13,9.1-.27,1.9-.34,3.83-.38,5.75v.14c-2.61-.06-5.22-.1-7.82-.31-.01-.83.2-1.64.37-2.44.44-1.96,1.07-3.89,1.96-5.7,1.59-3.23,3.86-6.27,7-8.12Z"/>
  <path class="cls-34" d="M95.04,114.88c-.07-.33.21-.67.55-.6.57.1,1.03.51,1.47.86,2.79,2.33,4.71,5.59,5.8,9.03.18.68.5,1.34.5,2.06-.24.16-.53.22-.81.29-1.65.35-3.32.59-4.99.82-.22.03-.43.04-.65.05-.06-3.36-.65-6.68-1.36-9.96-.16-.86-.42-1.69-.53-2.56Z"/>
  <path class="cls-3" d="M108.17,115.6c.36-.07.73-.13,1.1-.19.73,1.2,1.21,2.6,1.15,4.02-.34.12-.69.25-1.05.33-.27-.56-.25-1.21-.42-1.8-.15-.82-.53-1.57-.78-2.35Z"/>
  <path class="cls-35" d="M68.97,116.56c.36-.19.73.08.95.36.86,1.11,1.45,2.4,1.94,3.71.96,2.49,1.26,5.16,1.38,7.8-2.17,0-4.35.05-6.52-.02.14-1.05.41-2.08.59-3.12.44-2.39.81-4.79,1.15-7.2.1-.52.1-1.15.51-1.54Z"/>
  <path class="cls-15" d="M30.88,124.88c.98.78,2.18,1.23,3.39,1.52-.37.28-.8.46-1.27.49-.9.09-1.79.3-2.69.32.23-.77.25-1.59.57-2.34Z"/>
  <path class="cls-22" d="M41.03,129.46c.27-.41.73-.61,1.15-.82.01.11.05.32.06.43-.4,1.58-.45,3.24-.98,4.78-.72-.06-1.44-.03-2.16-.07.39-.11.8-.09,1.21-.09-.11-.39-.23-.78-.15-1.18.18-1.04.22-2.16.86-3.05Z"/>
  <path class="cls-5" d="M29.06,132.76c.06-.21.14-.63.45-.44,3.77,1.19,7.73,1.68,11.68,1.75.01.99-.18,1.96-.4,2.93-.24.98-.87,1.9-1.83,2.3-1.58.67-3.34.62-5.03.58-1.33-.14-2.72-.28-3.92-.93-.93-.5-1.49-1.54-1.49-2.58-.02-1.22.26-2.43.54-3.61Z"/>
  <path class="cls-5" d="M100.66,133.95c3.21-.12,6.39-.76,9.44-1.78.44,1.3.69,2.69.67,4.07.02,1.09-.6,2.17-1.56,2.68-1.11.58-2.37.76-3.6.88-1.17.15-2.34.03-3.51-.07-1.1-.16-2.31-.47-2.98-1.42-.86-1.24-.91-2.82-1.02-4.27.85-.14,1.71-.03,2.56-.1Z"/>
  <path class="cls-5" d="M95.07,135.13l.22-.06c.14.64.16,1.31.2,1.97,0,.95,0,1.99-.59,2.79-.6.85-1.66,1.18-2.63,1.37-1.24.21-2.52.26-3.77.17.81-.1,1.64.04,2.45-.14-.72-.08-1.44,0-2.16-.03-.43,0-.89-.1-1.29.12-.76-.02-1.52-.23-2.24-.48-1.01-.39-1.63-1.41-1.75-2.45-.11-.96-.21-1.96,0-2.91.15.02.3.04.45.07.8.14,1.61.22,2.42.27,2.91.17,5.87.07,8.69-.68Z"/>
  <path class="cls-21" d="M44.06,135.11c3.74.97,7.69,1.17,11.5.57.08-.02.24-.05.32-.07.2,1,.02,2.01-.04,3.02-.13,1.11-.91,2.09-1.95,2.47-1.13.4-2.35.42-3.54.44-1.53-.01-3.09-.13-4.55-.63-.97-.34-1.75-1.21-1.89-2.24-.14-1.18-.11-2.39.14-3.55Z"/>
  <path class="cls-33" d="M87.49,141.32c.4-.22.86-.13,1.29-.12.72.03,1.44-.05,2.16.03-.8.18-1.63.04-2.45.14-.34.02-.68,0-1.01-.05Z"/>
</svg>