<?xml version="1.0" encoding="UTF-8"?>
<svg id="_图层_1" data-name="图层 1" xmlns="http://www.w3.org/2000/svg" viewBox="0 0 172.96 142.82">
  <defs>
    <style>
      .cls-1 {
        fill: #5381bc;
      }

      .cls-2 {
        fill: #6891c7;
      }

      .cls-3 {
        fill: #bbd6e9;
      }

      .cls-4 {
        fill: #3a250e;
      }

      .cls-5 {
        fill: #fcfcfc;
      }

      .cls-6 {
        fill: #517fba;
      }

      .cls-7 {
        fill: #e0eaf6;
      }

      .cls-8 {
        fill: #a6c9e4;
      }

      .cls-9 {
        fill: #f9fafc;
      }

      .cls-10 {
        fill: #5a86c0;
      }

      .cls-11 {
        fill: #aacce5;
      }

      .cls-12 {
        fill: #bdd8eb;
      }

      .cls-13 {
        fill: #e0eaf7;
      }

      .cls-14 {
        fill: #364350;
      }

      .cls-15 {
        fill: #e1ecf6;
      }

      .cls-16 {
        fill: #b7d4e9;
      }

      .cls-17 {
        fill: #a8cae4;
      }

      .cls-18 {
        fill: #5a86bf;
      }

      .cls-19 {
        fill: #d7e7f4;
      }

      .cls-20 {
        fill: #5c88c1;
      }

      .cls-21 {
        fill: #f9fbfd;
      }

      .cls-22 {
        fill: #f78e91;
      }

      .cls-23 {
        fill: #e1ebf7;
      }

      .cls-24 {
        fill: #39230a;
      }

      .cls-25 {
        fill: #d1e2f2;
      }

      .cls-26 {
        fill: #5c88c0;
      }

      .cls-27 {
        fill: #bfd9ef;
      }

      .cls-28 {
        fill: #dde9f4;
      }

      .cls-29 {
        fill: #fcfdfd;
      }

      .cls-30 {
        fill: #bcd8ea;
      }

      .cls-31 {
        fill: #a7cae4;
      }

      .cls-32 {
        fill: #accde6;
      }
    </style>
  </defs>
  <path class="cls-15" d="M123.31,115s0-.08,0-.12c0-3.38-6.99-6.11-15.62-6.11s-15.6,2.73-15.62,6.1c-.76-.25-1.48-.62-2.16-1.03,0,.36.13.7.31,1.01.28.5.52,1.04.81,1.54v-.26c.58.17,1.14.41,1.73.53,1.95,2.51,7.9,4.33,14.94,4.33s12.71-1.74,14.8-4.15c.32-.09.64-.18.96-.26,0,.06-.01.19-.02.26.3-.45.61-.97.9-1.58.23-.48.41-.93.56-1.35-.31.31-.83.75-1.58,1.08Z"/>
  <path class="cls-3" d="M39.11,14.58c1.62-1.18,4.03-1.16,5.58.15,1.28,1.08,1.69,2.93,1.31,4.52-.35,1.63-1.4,2.98-2.46,4.22-2.24,2.63-3.56,5.91-4.36,9.24-.25,1.25-.45,2.51-.52,3.78,0,.21-.09.41-.16.6-.67,0-1.34.01-2.01,0-.22-.6-.2-1.26-.4-1.87-.47-1.61-1.38-3.11-2.65-4.21-1.21-1.06-2.78-1.57-4.35-1.82-1.48-.24-3.05-.81-3.91-2.11-1.04-1.48-.67-3.71.74-4.83,1.09-.94,2.66-1.04,4.01-.72,2.3.67,4.08,2.51,5.22,4.57.22.39.42.79.64,1.18-.09-2.64-.24-5.32.43-7.9.47-1.83,1.36-3.65,2.91-4.81Z"/>
  <path class="cls-16" d="M48.03,24.92c.81-.16,1.64-.07,2.43.15,1.42.44,2.47,1.93,2.27,3.43-.13,1.3-1.15,2.41-2.4,2.75-1.44.42-2.96-.06-4.42.24-1.25.2-2.38.88-3.32,1.7-.55.48-.94,1.12-1.45,1.64-.2.21-.59,0-.54-.29,0-1.6.64-3.12,1.33-4.54,1.26-2.39,3.35-4.59,6.11-5.09Z"/>
  <path class="cls-2" d="M114.81,28.86c.5-.52,1.33-.9,2.03-.51.75.31.94,1.16,1.29,1.81.64,1.13,1.54,2.14,2.68,2.78,1.75,1.1,3.87,1.27,5.79,1.92,2.21.7,4.24,2.02,5.7,3.83,1.86,2.3,2.68,5.29,2.67,8.21,1.36-3.28,4.06-6.12,7.48-7.22,1.82-.62,3.78-.72,5.67-.42,1.72.24,3.42.82,5.18.69,1.35-.09,2.67-.66,3.66-1.59.45-.42.95-.89,1.61-.94.73-.09,1.43.4,1.71,1.07.58,1.28.29,2.72.12,4.06-.42,2.18-1.15,4.32-2.27,6.25-1.41,2.42-3.46,4.49-5.92,5.84-3.01,1.7-6.59,2.1-9.99,1.76-1.59-.06-3.32.14-4.6,1.18-1.34,1.08-1.97,2.8-2.18,4.47-.26,1.62-.13,3.27,0,4.89.3,4.24-.37,8.46-1.16,12.62-1.22,6.21-2.75,12.36-4.29,18.5-1.05,4.35-2.21,8.69-3.71,12.92-.49,1.18-.88,2.42-1.57,3.51-.54.42-1.3.62-1.96.36-1.06-.31-1.84-1.13-2.49-1.98-.38-.49-.77-1.02-1.37-1.25-.68-.16-1.46-.12-2.02.33-.8.65-1.36,1.54-2.19,2.16-1.16.93-2.65,1.45-4.15,1.38-1.38-.12-2.68-.75-3.68-1.69-.93-.88-1.61-1.96-2.37-2.98-.57-.79-1.64-1.26-2.59-.93-.84.23-1.37.97-1.85,1.64-.96,1.33-2.16,2.56-3.71,3.17-1.13.42-2.39.68-3.58.37-1.01-.23-1.94-.68-2.81-1.21-.36-.28-.41-.79-.6-1.18-1.44-3.38-2.5-6.92-4.04-10.27-.55-1.13-1.12-2.28-2.01-3.18-.53-.54-1.33-.88-2.08-.68-.9.26-1.58.99-2.08,1.75-1.1,1.71-1.83,3.63-2.58,5.52-.77,1.99-1.54,3.98-2.32,5.96-.03.05-.08.15-.11.21-.49,0-1.03-.1-1.48.16-.57.28-.94.82-1.33,1.31-1.23,1.53-3.03,2.81-5.07,2.79-1.37.1-2.74-.35-3.84-1.16-.88-.66-1.56-1.55-2.22-2.43-.45-.61-1.14-1.13-1.93-1.11-.76-.04-1.45.42-1.9,1.01-1.16,1.52-2.52,3.08-4.43,3.6-.91-.72-1.86-1.41-2.6-2.31-1.2-1.43-2.19-3.04-2.97-4.73-2.29-4.9-3.3-10.26-5.13-15.33-1-2.67-2.21-5.29-3.94-7.57-1.44-1.81-3.24-3.38-5.35-4.35-.23-.11-.47-.22-.71-.33-1.39-.56-2.85-.96-4.34-1.09-.52-.06-1.04-.11-1.57-.11-1.61-.01-3.23.11-4.83-.16-.21-.03-.42-.07-.63-.1-.92-.15-1.8-.48-2.66-.84-.28-.19-.36-.58-.52-.87-1.26-2.66-2.16-5.47-2.93-8.31-.63-2.54-1.05-5.15-1.14-7.77-.1-3.37.52-6.78,1.85-9.89,1.49-3.5,3.98-6.54,7.05-8.77,5.79-4.15,13.41-5.8,20.34-4,2.78.72,5.39,2.13,7.47,4.12,1.88,1.82,3.34,4.04,4.36,6.44.9,1.99,1.39,4.13,1.84,6.26.68,3.9,1.09,7.83,1.74,11.73.73,4.14,1.53,8.28,2.72,12.32.34,1.07.66,2.19,1.36,3.1.32.44,1.03.56,1.43.17.48-.44.76-1.04,1.03-1.62,1.27-2.94,2.17-6.01,3.2-9.03.88-2.81,1.73-5.64,2.62-8.45.73-2.37,1.6-4.74,2.96-6.83,1.14-1.79,2.79-3.25,4.74-4.1,2.76-1.24,5.96-1.36,8.87-.58,2.36.61,4.46,2.1,5.85,4.1,1.52,2.19,2.37,4.75,3.09,7.29,1.22,4.43,2.48,8.85,3.88,13.22.82,2.4,1.54,4.85,2.69,7.12.31.63.69,1.25,1.23,1.72.43.35,1.04.54,1.57.32.81-.29,1.32-1.06,1.7-1.79,1.03-2.02,1.8-4.16,2.52-6.31,1.37-3.89,2.57-7.84,4.01-11.71.91-2.45,2-4.87,3.48-7.04,1.85-2.69,4.52-4.92,7.69-5.83.67-.2,1.34-.45,2.05-.49-1.26-1.2-2.96-1.69-4.45-2.53-3.65-1.91-6.54-5.26-7.8-9.19-1.11-3.28-1.14-6.88-.25-10.21.3-1.05.67-2.13,1.41-2.96Z"/>
  <path class="cls-31" d="M27.29,32.91c1.42-.23,2.85.4,3.88,1.35.28.2.32.67,0,.85-.57.07-1.17,0-1.72.23-.82.26-1.45,1-2.35,1.01-.51.04-1.06-.13-1.38-.55-.54-.7-.34-1.78.3-2.34.36-.3.81-.48,1.27-.54Z"/>
  <path class="cls-1" d="M117.3,35.99c.4-.2.71.27.66.63-.02,3.34,1.41,6.75,4.02,8.89.93.81,2.04,1.36,3.13,1.92,2.19.98,4.11,2.99,4.3,5.47.08.43-.53.92-.85.48-.23-.47-.15-1.02-.33-1.51-.44-1.13-1.24-2.12-2.26-2.79-.85-.53-1.76-.96-2.65-1.41-1.99-1.04-3.67-2.67-4.75-4.64-1.03-1.92-1.56-4.09-1.57-6.27,0-.28.04-.62.3-.78Z"/>
  <path class="cls-18" d="M45.09,44.53c.7-.19,1.46.12,1.97.61.76.6,1.27,1.74.71,2.64-.79,1.1-2.79,1.01-3.38-.25-.33-.71-.65-1.62-.17-2.34.19-.33.51-.57.88-.66Z"/>
  <path class="cls-6" d="M154.46,44.68c.14-.29.49-.11.73-.13,0,.93-.6,1.72-1.04,2.49-1.67,2.85-4.72,4.86-8.02,5.2-1.67.24-3.38-.11-5.03.29-1.27.29-2.47.87-3.46,1.71-.22.14-.43.42-.72.3-.17-.04-.26-.21-.31-.37.21-.41.57-.72.92-1.02,1.67-1.4,3.91-1.93,6.05-1.86,3.46.32,7.06-1.18,9.19-3.94.7-.79,1.1-1.79,1.68-2.66Z"/>
  <path class="cls-26" d="M44.12,49.45c.49-.16,1.04.13,1.28.56.1.3.1.62.09.94.11.97-1.32,1.45-1.95.81-.39-.33-.49-.88-.43-1.36.09-.49.57-.79,1.01-.94Z"/>
  <path class="cls-10" d="M48.6,50.01c1.46-.44,2.73,1.7,1.68,2.79-.8.98-2.54.17-2.58-1.01-.07-.68.2-1.53.9-1.77Z"/>
  <path class="cls-14" d="M31.37,56.92c1.5-.36,3.36.34,3.92,1.87.07.41-.63.54-.78.17-.48-.76-1.29-1.32-2.22-1.34-.49-.03-.94.18-1.41.3-.24.11-.58-.11-.49-.38.12-.43.6-.54.98-.62Z"/>
  <path class="cls-24" d="M30.95,62.39c.96-.15,1.98.05,2.83.52,1.15.73,2,1.96,2.18,3.32.3,1.92-.77,3.97-2.53,4.79-1.88.96-4.39.23-5.52-1.54-.92-1.39-1-3.3-.22-4.77.67-1.2,1.87-2.14,3.26-2.31Z"/>
  <path class="cls-5" d="M33.04,64.62c1.02-.42,2.26.51,2.17,1.6.03,1.03-1.06,1.93-2.07,1.62-.82-.22-1.37-1.09-1.2-1.92.09-.59.53-1.11,1.09-1.3Z"/>
  <path class="cls-22" d="M36.43,70.27c1.44-.37,3.22.35,3.74,1.81.43,1.06-.11,2.32-1.03,2.95-.99.73-2.37.79-3.47.29-.87-.38-1.51-1.26-1.52-2.22-.11-1.34,1.02-2.54,2.28-2.82Z"/>
  <path class="cls-20" d="M130.89,70.2c.47-.17,1.07-.09,1.39.33.47.59.47,1.41.36,2.12-.18.87-1.17,1.65-2.06,1.26-1.03-.35-1.25-1.72-.82-2.6.25-.47.63-.9,1.13-1.11Z"/>
  <path class="cls-4" d="M23.86,72.5c.2-.16.5-.3.72-.1.29.24.14.66.11.98-.32,1.87-2.43,3.13-4.25,2.69-1.22-.32-2.42-1.16-2.78-2.43-.1-.38.46-.69.73-.4.28.38.42.86.8,1.16,1.03,1.02,2.89,1.05,3.89-.02.5-.49.81-1.18.79-1.89Z"/>
  <path class="cls-26" d="M126.7,73.28c.53-.15,1.01.29,1.29.7.47.75.07,1.76-.55,2.3-.75.51-1.82-.08-1.91-.94-.18-.85.33-1.8,1.17-2.05Z"/>
  <path class="cls-13" d="M17.17,79.23c.86.36,1.74.69,2.66.84.13,1.44.52,2.82.87,4.22,1.39,5.19,3.19,10.27,5.2,15.25,1.07,2.62,2.17,5.23,3.44,7.76,1.49,3.04,3.1,6.06,5.18,8.75-.8-.02-1.42-.59-2.11-.94-.15-.11-.25-.28-.35-.43-1.31-2.1-2.57-4.24-3.61-6.48-1.02-1.97-1.85-4.03-2.79-6.05-.61-1.5-1.22-2.99-1.85-4.48-2-4.91-3.6-9.96-5.35-14.96-.41-1.17-.94-2.3-1.29-3.48Z"/>
  <path class="cls-12" d="M19.83,80.07c.21.04.42.07.63.1.33,1.07.6,2.15.82,3.24,1.45,5.53,3.34,10.94,5.51,16.22,1.41,3.53,3.09,6.94,4.8,10.33,1.52,2.79,3.23,5.48,5.29,7.9.4.15.85-.02,1.25-.12.79-.24,1.51-.68,2.14-1.22-.46-.72-1.08-1.32-1.58-2.01-1.37-1.82-2.55-3.77-3.63-5.77-1.15-2-2.14-4.09-3.06-6.2-2.33-5.37-4.29-10.92-5.68-16.61-.45-1.84-.86-3.71-1.02-5.6.53,0,1.05.05,1.57.11-.28,0-.57.03-.85.05.9,5.71,2.62,11.27,4.66,16.67,1.95,5.09,4.2,10.1,7.17,14.69.95,1.38,1.85,2.82,3.05,4.01.47-.4.84-.92,1.34-1.28.53-.28,1.28-.34,1.73.11.6.56,1.12,1.2,1.79,1.69,1.37,1.19,3.22,1.83,5.04,1.61,2.07-.14,3.95-1.34,5.24-2.93.49-.58.88-1.35,1.65-1.6.72-.25,1.51.13,1.94.72,1.13,1.45,2.48,2.89,4.3,3.4,1.44.47,3,.3,4.42-.16,1.35-.49,2.45-1.46,3.37-2.53.39-.41.8-.88,1.4-.94,0,.09-.01.28-.02.37-1.59,3.63-4.05,6.96-7.38,9.16-2.55,1.68-5.51,2.69-8.52,3.11-4.63.67-9.48.22-13.77-1.69-3.64-1.61-6.79-4.22-9.26-7.32.54.03,1.08.14,1.61.26-.39-.62-.77-1.24-1.26-1.78-2.08-2.69-3.69-5.7-5.18-8.75-1.26-2.53-2.37-5.14-3.44-7.76-2.01-4.98-3.81-10.06-5.2-15.25-.35-1.39-.74-2.78-.87-4.22Z"/>
  <path class="cls-23" d="M20.46,80.17c1.6.27,3.22.15,4.83.16.16,1.9.57,3.76,1.02,5.6,1.39,5.69,3.35,11.23,5.68,16.61.92,2.11,1.92,4.19,3.06,6.2,1.08,2,2.26,3.95,3.63,5.77.5.69,1.12,1.29,1.58,2.01-.63.54-1.34.98-2.14,1.22-.4.1-.85.27-1.25.12-2.06-2.41-3.78-5.11-5.29-7.9-1.72-3.39-3.39-6.8-4.8-10.33-2.17-5.29-4.06-10.69-5.51-16.22-.22-1.09-.49-2.18-.82-3.24Z"/>
  <path class="cls-23" d="M26.01,80.49c.28-.02.57-.04.85-.05,1.49.13,2.95.54,4.34,1.09-.15.8,0,1.61.18,2.4.46,2.62,1.04,5.21,1.8,7.75,1.64,5.49,3.74,10.86,6.61,15.83,1.03,1.82,2.23,3.53,3.54,5.15.55.66.93,1.51,1.73,1.91.8.39,1.51.94,2.35,1.24-.27.18-.53.38-.79.58-.29-.02-.58-.03-.87-.03-.67-.48-1.19-1.13-1.79-1.69-.45-.45-1.2-.39-1.73-.11-.5.36-.87.87-1.34,1.28-1.2-1.18-2.1-2.63-3.05-4.01-2.97-4.59-5.22-9.6-7.17-14.69-2.05-5.4-3.76-10.95-4.66-16.67Z"/>
  <path class="cls-27" d="M31.2,81.53c.24.1.47.21.71.33.04.69.07,1.37.19,2.05.65,3.17,1.42,6.32,2.4,9.41,1.49,4.46,3.2,8.88,5.52,12.99,1.83,3.22,3.96,6.35,6.9,8.66.29.28.72.51.76.96l-.27-.11c-.84-.3-1.55-.85-2.35-1.24-.8-.4-1.18-1.25-1.73-1.91-1.31-1.63-2.51-3.34-3.54-5.15-2.87-4.97-4.97-10.34-6.61-15.83-.76-2.55-1.34-5.14-1.8-7.75-.18-.79-.33-1.59-.18-2.4Z"/>
  <path class="cls-7" d="M31.91,81.86c2.11.97,3.91,2.53,5.35,4.35,1.73,2.28,2.94,4.9,3.94,7.57,1.83,5.07,2.84,10.43,5.13,15.33.78,1.7,1.77,3.3,2.97,4.73.75.9,1.69,1.59,2.6,2.31-.36.11-.72.25-1.1.24-1.05-.02-2.14-.03-3.12-.47-.04-.45-.47-.68-.76-.96-2.94-2.31-5.08-5.44-6.9-8.66-2.31-4.11-4.03-8.52-5.52-12.99-.98-3.09-1.75-6.24-2.4-9.41-.12-.68-.15-1.37-.19-2.05Z"/>
  <path class="cls-8" d="M139.02,97.41c.54-.18,1.14-.17,1.67.05,1.1.42,1.77,1.68,1.54,2.82-.22,1.21-1.07,2.22-2.09,2.85-1.02.65-2.23.9-3.31,1.44-.68.32-1.3.76-1.96,1.12-.33.26-.83-.1-.77-.49.05-.32.21-.62.34-.91.64-1.35,1.17-2.74,1.8-4.1.58-1.19,1.45-2.38,2.77-2.79Z"/>
  <path class="cls-17" d="M16.24,103.19c1.17-.26,2.39.14,3.32.85,1.33,1,2.27,2.45,2.92,3.96.23.58.45,1.19.52,1.82.04.34-.36.61-.67.47-.53-.31-1-.74-1.57-.98-1.34-.64-2.89-.45-4.27-.93-1.04-.36-2-1.2-2.17-2.33-.23-1.27.69-2.55,1.92-2.84Z"/>
  <path class="cls-29" d="M107.21,104.57c1.15-.33,2.29.92,1.88,2.04-.3,1.12-1.92,1.45-2.68.59-.81-.82-.32-2.39.8-2.63Z"/>
  <path class="cls-31" d="M142.68,105.96c1.16-.11,2.47.19,3.22,1.15.72.89.64,2.32-.23,3.08-.74.67-1.84.67-2.76.49-1.36-.34-2.56-1.18-3.96-1.37-.45-.05-.91,0-1.36-.04-.41-.08-.48-.65-.16-.88,1.42-1.36,3.29-2.25,5.25-2.44Z"/>
  <path class="cls-29" d="M51.01,106.83c.88-.41,2,.23,2.17,1.17.27,1.02-.66,2.05-1.68,2.01-.52-.08-1.04-.36-1.31-.83-.48-.82-.07-2.01.82-2.35Z"/>
  <path class="cls-21" d="M112.12,108.9c.52-.41,1.34.31,1.02.88-.19.51-.99.59-1.25.11-.25-.32-.1-.79.24-.99Z"/>
  <path class="cls-9" d="M68.1,109.46c.48-.45,1.34.18,1.09.77-.14.42-.73.67-1.08.36-.4-.24-.37-.87,0-1.13Z"/>
  <path class="cls-30" d="M100.81,112.59c.37-.51.92-.97,1.58-1.01.67-.05,1.32.33,1.67.89,1.24,1.9,2.88,3.81,5.18,4.38,2.19.61,4.62-.1,6.26-1.64.72-.58,1.18-1.5,2.07-1.87.62-.28,1.37.02,1.77.53.79.99,1.67,2.04,2.92,2.43.46.07.94.05,1.4.21-2,3.71-5.06,6.97-8.98,8.65-2.77,1.23-5.86,1.65-8.87,1.4-2.96-.22-5.87-1.22-8.35-2.86-2.76-1.81-4.8-4.5-6.43-7.33v-.26c.71.21,1.39.53,2.13.6,1.99.24,4.01-.5,5.53-1.78.83-.67,1.49-1.51,2.12-2.36Z"/>
  <path class="cls-28" d="M74.19,111.77c-.03.05-.08.15-.11.21-.49,0-1.03-.1-1.48.16-.57.28-.94.82-1.33,1.31-1.23,1.53-3.03,2.81-5.07,2.79-1.37.1-2.74-.35-3.84-1.16-.88-.66-1.56-1.55-2.22-2.43-.45-.61-1.14-1.13-1.93-1.11-.76-.04-1.45.42-1.9,1.01-1.16,1.52-2.52,3.08-4.43,3.6-.36.11-.72.25-1.1.24-1.05-.02-2.14-.03-3.12-.47l-.27-.11c-.27.18-.53.38-.79.58-.29-.02-.58-.03-.87-.03,1.37,1.19,3.22,1.83,5.04,1.61,2.07-.14,3.95-1.34,5.24-2.93.49-.58.88-1.35,1.65-1.6.72-.25,1.51.13,1.94.72,1.13,1.45,2.48,2.89,4.3,3.4,1.44.47,3,.3,4.42-.16,1.35-.49,2.45-1.46,3.37-2.53.39-.41.8-.88,1.4-.94,0,.09-.01.28-.02.37.38-.84.85-1.65,1.1-2.54Z"/>
  <path class="cls-32" d="M132.58,112.84c1.09-.24,2.26-.07,3.26.41.71.33,1.28,1.01,1.4,1.8.12.79-.42,1.63-1.2,1.83-.74.18-1.52-.15-2.05-.68-.54-.54-1-1.16-1.66-1.56-.39-.26-.83-.39-1.24-.6-.32-.17-.23-.67.08-.79.44-.21.92-.32,1.39-.41Z"/>
  <path class="cls-11" d="M19.3,113.84c1.87-.33,3.73.52,5.11,1.75.29.22.14.82-.26.78-.65.04-1.31.11-1.92.38-1.03.37-1.89,1.16-3,1.31-.82.11-1.76-.24-2.13-1.02-.41-.83-.13-1.88.56-2.47.46-.39,1.05-.59,1.63-.72Z"/>
  <path class="cls-25" d="M32.41,115.11c.68.35,1.3.91,2.11.94.49.54.87,1.17,1.26,1.78-.53-.12-1.06-.23-1.61-.26h-.05c-.57-.82-1.28-1.56-1.72-2.46Z"/>
  <path class="cls-19" d="M42.43,117.17c.26-.06.72-.13.78.23-.01.37-.34.97-.78.78-.43-.15-.42-.86,0-1.01Z"/>
</svg>