<?xml version="1.0" encoding="UTF-8"?>
<svg id="_图层_1" data-name="图层 1" xmlns="http://www.w3.org/2000/svg" viewBox="0 0 157.12 141.8">
  <defs>
    <style>
      .cls-1 {
        fill: #759043;
      }

      .cls-2 {
        fill: #718c42;
      }

      .cls-3 {
        fill: #789246;
      }

      .cls-4 {
        fill: #f4cf72;
      }

      .cls-5 {
        fill: #f4d073;
      }

      .cls-6 {
        fill: #fcfcfc;
      }

      .cls-7 {
        fill: #f4d174;
      }

      .cls-8 {
        fill: #759144;
      }

      .cls-9 {
        fill: #f5d073;
      }

      .cls-10 {
        fill: #f5d070;
      }

      .cls-11 {
        fill: #f4d074;
      }

      .cls-12 {
        fill: #fde499;
      }

      .cls-13 {
        fill: #7e994b;
      }

      .cls-14 {
        fill: #fee49b;
      }

      .cls-15 {
        fill: #f5d279;
      }

      .cls-16 {
        fill: #a1b75c;
      }

      .cls-17 {
        fill: #759044;
      }

      .cls-18 {
        fill: #f4d176;
      }

      .cls-19 {
        fill: #759143;
      }

      .cls-20 {
        fill: #87a250;
      }

      .cls-21 {
        fill: #f4d071;
      }

      .cls-22 {
        fill: #f5d276;
      }

      .cls-23 {
        fill: #749043;
      }

      .cls-24 {
        fill: #f3cf74;
      }

      .cls-25 {
        fill: #f5d074;
      }

      .cls-26 {
        fill: #fde49b;
      }

      .cls-27 {
        fill: #5c7534;
      }

      .cls-28 {
        fill: #372904;
      }

      .cls-29 {
        fill: #749044;
      }

      .cls-30 {
        fill: #362803;
      }

      .cls-31 {
        fill: #a2b75e;
      }

      .cls-32 {
        fill: #f5d275;
      }

      .cls-33 {
        fill: #fee499;
      }

      .cls-34 {
        fill: #728e42;
      }

      .cls-35 {
        fill: #769145;
      }

      .cls-36 {
        fill: #fde39a;
      }

      .cls-37 {
        fill: #f5d174;
      }

      .cls-38 {
        fill: #728e43;
      }

      .cls-39 {
        fill: #f6d378;
      }

      .cls-40 {
        fill: #fde49a;
      }

      .cls-41 {
        fill: #fee49a;
      }

      .cls-42 {
        fill: #f4d075;
      }

      .cls-43 {
        fill: #fc986c;
      }

      .cls-44 {
        fill: #435420;
      }

      .cls-45 {
        fill: #40501b;
      }

      .cls-46 {
        fill: #5f7736;
      }

      .cls-47 {
        fill: #fb976b;
      }

      .cls-48 {
        fill: #f5d278;
      }

      .cls-49 {
        fill: #a3b85e;
      }
    </style>
  </defs>
  <path class="cls-8" d="M131.12,56.79c.05.6.09,1.09.12,1.42-.36-.14-1.08-.46-1.71-1.18-.13-.15-.67-.79-.91-1.8-.42-1.74.37-3.23.69-3.85.4-.76.87-1.29,1.19-1.62.09.97.17,1.78.22,2.35.14,1.56.25,2.84.4,4.68Z"/>
  <path class="cls-35" d="M135.7,78.29c-1.06.59-2.32,1.32-3.56.8-1.1-.33-1.46-1.59-1.41-2.62.14-1.47.8-2.82,1.56-4.07-1.01-.5-1.95-1.24-2.36-2.33-.99-2.51.04-5.56,2.07-7.24.12,2.25-.03,4.51.26,6.75.2,1.3.08,2.65.57,3.89.37,1.42.87,2.86,1.89,3.95.31.3.66.55.97.86Z"/>
  <path class="cls-35" d="M130.72,28.65c-.95.09-2.1.21-2.81-.56-.68-.59-.53-1.61-.16-2.33.58-1.01,1.49-1.77,2.43-2.42-.56-.68-.99-1.52-.94-2.43.11-2.12,1.83-3.98,3.83-4.54-.64,1.66-1.48,3.23-2,4.94-.28,1-.8,1.93-.85,2.98-.19,1.14-.31,2.33.07,3.45.12.32.3.61.42.93Z"/>
  <path class="cls-29" d="M131.03,47.39c-1.17-.2-2.28-.84-2.91-1.86-.78-1.31-.82-2.98-.24-4.37.37-1.01,1.19-1.78,2.07-2.36.13.59.09,1.19.17,1.79.15,1.18.28,2.37.42,3.55.17,1.08.34,2.16.49,3.25Z"/>
  <path class="cls-34" d="M129.9,37.36c-1.02-.34-1.92-1.04-2.45-1.97-.59-1.1-.61-2.44-.22-3.61.39-1.38,1.45-2.49,2.74-3.08.01,1.11-.11,2.21-.07,3.32.02.94-.04,1.89-.03,2.83,0,.84.07,1.68.03,2.52Z"/>
  <path class="cls-26" d="M132.63,16.07c.66-.02,1.22.4,1.54.96,1.15,1.98,1.7,4.23,2.6,6.33-1.13-.08-2.25.06-3.33.35-.18-1.44-.39-2.87-.5-4.32-.1-1.11-.3-2.2-.31-3.31Z"/>
  <path class="cls-15" d="M133.43,23.7c1.09-.29,2.21-.42,3.33-.35.05.34,0,.68-.02,1.01-1.06.16-2.15.08-3.19.37-.04-.35-.08-.69-.12-1.04Z"/>
  <path class="cls-26" d="M133.56,24.74c1.04-.3,2.13-.21,3.19-.37.27.21.59.41.69.77.82,2.23,1.56,4.49,2.2,6.77-1.64.63-3.45.51-5.13.97-.33-2.71-.63-5.42-.95-8.13Z"/>
  <path class="cls-26" d="M134.7,33.86c.44-.02.98-.08,1.59-.24.53-.14.98-.32,1.34-.49.35-.18,1.54-.73,2.09-.25.22.19.25.49.27.64.16,1.41.48,2.8.59,4.22.05.65.15,1.61.42,2.78-.7.14-1.7.42-2.76,1.05-.69.41-1.23.86-1.63,1.25-.19-1.5-.45-3.13-.83-4.85-.32-1.47-.69-2.85-1.07-4.11Z"/>
  <path class="cls-39" d="M134.52,32.87c1.69-.46,3.49-.34,5.13-.97.07.39.15.78.22,1.18-.67.07-1.77.21-2.87.41-.41.07-.78.15-1.23.27-.41.11-.76.23-1,.31-.06-.16-.13-.35-.18-.58-.05-.23-.06-.44-.07-.62Z"/>
  <path class="cls-40" d="M140.99,40.52c.84,3.78,1.69,7.56,2.53,11.35-1.54-.16-3.08.16-4.61.31-.06-.16-.11-.33-.16-.49-.09-.54-.21-1.35-.34-2.35-.17-1.29-.13-1.22-.22-1.77-.28-1.69-.74-2.89-.95-3.39-.24-.58-.48-1.05-.64-1.36,1.46-.77,2.93-1.53,4.39-2.3Z"/>
  <path class="cls-32" d="M138.75,51.69c.05.16.11.33.16.49,1.53-.15,3.06-.47,4.61-.31.07.33.11.67.16,1.01-1.57.07-3.21-.05-4.69.55-.09-.58-.17-1.15-.24-1.73Z"/>
  <path class="cls-41" d="M138.99,53.42c1.48-.6,3.12-.48,4.69-.55.37,2.3.74,4.59,1.13,6.88-1.63-.23-3.28-.07-4.86.36-.31-2.23-.67-4.46-.97-6.7Z"/>
  <path class="cls-7" d="M139.96,60.12c1.58-.43,3.23-.59,4.86-.36.06.35.12.7.17,1.06-.7-.08-1.4-.22-2.11-.17-.94.05-1.83.36-2.76.51-.06-.35-.11-.69-.16-1.03Z"/>
  <path class="cls-33" d="M140.12,61.15c.92-.15,1.82-.46,2.76-.51.71-.05,1.41.09,2.11.17.33,2.03.71,4.05,1.04,6.08-1.66-.28-3.38-.07-4.99.37-.31-2.04-.62-4.07-.91-6.11Z"/>
  <path class="cls-4" d="M141.04,67.26c1.61-.44,3.33-.66,4.99-.37.07.34.12.69.17,1.04-1.67-.26-3.37-.04-5.01.33-.05-.33-.1-.66-.15-.99Z"/>
  <path class="cls-14" d="M141.19,68.25c1.63-.37,3.34-.59,5.01-.33.39,2.19.78,4.38,1.12,6.58-1.7-.75-3.58-.21-5.31.13-.22-2.13-.55-4.25-.81-6.38Z"/>
  <path class="cls-9" d="M142,74.63c1.73-.34,3.61-.87,5.31-.13.01.09.04.27.05.36-.02.19-.03.37-.05.56-1.71-.32-3.49-.18-5.18.22-.05-.34-.1-.68-.14-1.02Z"/>
  <path class="cls-12" d="M147.36,74.87c.59,3.87,1.18,7.76,1.36,11.68-1.8-.68-3.81-.57-5.69-.24-.17-3.56-.48-7.11-.9-10.65,1.68-.41,3.46-.54,5.18-.22.02-.19.03-.38.05-.56Z"/>
  <path class="cls-10" d="M143.04,86.3c1.87-.33,3.88-.44,5.69.24.03.38.05.77.07,1.15-1.81-.7-3.81-.72-5.68-.27-.02-.38-.05-.75-.08-1.13Z"/>
  <path class="cls-12" d="M143.12,87.43c1.87-.46,3.87-.43,5.68.27.3,3.96.24,7.94.19,11.91-.14,4.25-.59,8.49-1.43,12.66-.05-.22,0-.52-.26-.62-.68-.36-1.41-.59-2.11-.91-.98-.45-2.06-.62-3.13-.68l-.2-.27c.67-3.56,1.04-7.18,1.22-10.8,1.16-.01,2.34-.19,3.49.03.79.12,1.55.41,2.29.7.07-.39.07-.79-.02-1.17-1.8-.8-3.8-.65-5.73-.68.15-3.48.12-6.96-.02-10.43Z"/>
  <path class="cls-21" d="M143.13,97.86c1.92.03,3.92-.12,5.73.68.09.39.09.78.02,1.17-.75-.29-1.5-.58-2.29-.7-1.16-.22-2.33-.04-3.49-.03,0-.38.02-.75.04-1.13Z"/>
  <path class="cls-22" d="M141.72,109.88s.11-.07.14-.09l.2.27c1.07.06,2.15.23,3.13.68.69.32,1.43.55,2.11.91.26.1.2.4.26.62-.02.07-.07.22-.09.3-.05.08-.14.23-.18.31-.99-.58-2.04-1.06-3.14-1.4-.83-.26-1.71-.27-2.56-.43.08-.39.12-.78.14-1.17Z"/>
  <path class="cls-40" d="M141.59,111.05c.85.16,1.73.18,2.56.43,1.1.34,2.15.82,3.14,1.4.05-.08.14-.23.18-.31-1.03,4.85-2.83,9.66-5.97,13.55-1.13-1.79-2.62-3.37-4.41-4.52,2.25-3.14,3.64-6.8,4.49-10.55Z"/>
  <path class="cls-24" d="M136.49,122.35c.2-.25.41-.49.6-.75,1.78,1.16,3.28,2.73,4.41,4.52-.2.29-.42.56-.66.82-.6-.9-1.28-1.75-2-2.56-.73-.74-1.58-1.34-2.35-2.03Z"/>
  <path class="cls-40" d="M128.23,128.12c3.19-1.17,6.13-3.09,8.26-5.77.77.69,1.62,1.3,2.35,2.03.72.81,1.4,1.66,2,2.56-2.86,3.33-6.74,5.7-10.89,7.06-.2-1.19-.64-2.32-.86-3.51-.14-.84-.5-1.61-.85-2.38Z"/>
  <path class="cls-39" d="M138.08,46.84c.52-.09,1.05-.19,1.58-.29.88-.17,1.73-.36,2.55-.55.09.39.17.78.26,1.17-1.41.15-2.47.33-2.91.41-.64.13-1.23.27-1.23.27-.04.01-.08.02-.1.03-.02-.14-.04-.29-.06-.44-.03-.2-.06-.4-.08-.6Z"/>
  <path class="cls-39" d="M136.48,41.95c.56-.18,1.15-.39,1.76-.62.97-.38,1.86-.78,2.67-1.19.07.35.14.69.21,1.04-1.28.55-2.19.96-2.72,1.24-.22.12-.78.42-1.6.62,0,0,0,0,0,0-.04.01-.08.02-.1.03-.06-.1-.13-.24-.18-.42-.08-.29-.07-.54-.04-.69Z"/>
  <rect class="cls-39" x="134.05" y="20.44" width="1.23" height="30.5" transform="translate(-4.46 28.39) rotate(-11.84)"/>
  <path class="cls-19" d="M58.9,5.02c1.05-1.28,2.77-1.79,4.38-1.75,1.68,0,3.37.67,4.48,1.94.7.76,1.07,1.75,1.27,2.75,0,.11-.03.32-.04.42-2.57-.47-5.18-.68-7.78-.84-1.06-.04-2.12.08-3.18-.03l-.2-.13c0-.89.53-1.69,1.06-2.37Z"/>
  <path class="cls-1" d="M45.5,5.54c1.05-.92,2.46-1.3,3.83-1.41,1.36-.1,2.8.18,3.89,1.04.75.56,1.34,1.31,1.7,2.18,0,.08.02.25.02.34-2.34.3-4.7.54-7.02.96-1.38.28-2.8.38-4.13.87-.01-.11-.03-.32-.05-.43.09-1.35.73-2.66,1.77-3.54Z"/>
  <path class="cls-8" d="M70.17,8.56c.69-1.5,2.21-2.65,3.89-2.72,1.6-.07,3.22.47,4.51,1.42,1.51,1.17,2.14,3.18,1.9,5.04-1.92-.84-3.82-1.75-5.82-2.38-1.46-.56-3-.85-4.47-1.37Z"/>
  <path class="cls-19" d="M129.11,105.77c-1.34-.97-1.96-2.65-2.03-4.26-.12-1.67.45-3.41,1.65-4.6.71-.75,1.68-1.18,2.66-1.45.11,0,.32,0,.42.01-.3,2.59-.34,5.21-.33,7.82.03,1.06.21,2.11.18,3.17l-.12.21c-.89.06-1.72-.42-2.43-.91Z"/>
  <path class="cls-8" d="M131.92,94.31c-1.54-.59-2.79-2.03-2.96-3.71-.17-1.6.26-3.25,1.13-4.59,1.07-1.58,3.04-2.34,4.91-2.22-.71,1.97-1.5,3.92-2,5.97-.46,1.49-.65,3.05-1.08,4.55Z"/>
  <path class="cls-16" d="M54.91,7.35c.04.06.13.19.17.26.84-.03,1.67-.07,2.51-.13.04-.03.13-.09.18-.12l.07.02c.05.03.15.1.2.13,1.06.1,2.12-.01,3.18.03,2.6.16,5.21.37,7.78.84,0-.1.03-.32.04-.42.02.09.05.26.06.35.36.08.72.13,1.06.25,1.47.52,3.01.81,4.47,1.37,2.01.63,3.9,1.54,5.82,2.38.97.48,1.94.98,2.84,1.58.79.68,1.72,1.15,2.55,1.77,1.55,1.19,3.11,2.36,4.5,3.74.36.34.76.63,1.13.96.91.95,1.83,1.91,2.63,2.96.3.46.6.93.97,1.35,1.29,1.4,2.26,3.06,3.32,4.63.58.85,1.02,1.78,1.64,2.61.27.45.52.92.76,1.39.56,1.2,1.14,2.38,1.72,3.58.58,1.32,1.15,2.64,1.75,3.96.31.65.48,1.37.84,2,.26.52.39,1.1.58,1.64.26.98.63,1.93.94,2.9.36,1.08.62,2.2.98,3.28.44,1.26.69,2.58,1.11,3.85.15.52.25,1.06.37,1.59.29,1.46.66,2.9.93,4.36.47,1.88.72,3.81,1.23,5.69,1.25,6.87,2.29,13.77,3.18,20.69.33-.02.66-.04.99-.06-.33.06-.66.1-.99.14.2,1.26.17,2.56.55,3.78.43,3.55.91,7.09,1.58,10.6.07.03.21.08.28.1-.06.03-.19.1-.25.13.09,1.29.46,2.54.73,3.8.29,1.38.97,2.64,1.75,3.8.99,1.51,2.49,2.81,4.3,3.17.43.07.86.08,1.3.02,1.22-.23,2.3-.93,3.11-1.85-.1-.07-.19-.13-.28-.19.23,0,.42-.09.55-.28,1.08-1.37,1.66-3.04,2.14-4.7.93-3.31,1.39-6.73,1.75-10.14,1.24-12.35.35-24.79-.72-37.11-.49-5.75-1.07-11.5-1.37-17.26-.13-3.7-.33-7.41-.1-11.1.05-2.91.32-5.82.7-8.71.21-1.35.4-2.74.98-4,.2-.45.6-.92,1.14-.89.4-.02.73.27.96.57.92,1.18,1.11,2.63,1.13,3.57.06,2.42.34.55,1.24,8.51.06.53.23,2.1.5,4.32.04.35.08.69.12,1.04.32,2.71.62,5.42.95,8.13.05.41.09.82.15,1.23.4,2.74.72,5.5,1.12,8.23.07.58.15,1.16.24,1.73.3,2.24.66,4.46.97,6.7.05.34.11.69.16,1.03.3,2.04.61,4.07.91,6.11.05.33.1.66.15.99.27,2.13.59,4.25.81,6.38.04.34.09.68.14,1.02.42,3.54.73,7.09.9,10.65.03.37.06.75.08,1.13.14,3.48.17,6.96.02,10.43-.02.37-.03.75-.04,1.13-.18,3.62-.55,7.23-1.22,10.8-.04.02-.11.07-.14.09-.02.39-.05.79-.14,1.17-.85,3.74-2.25,7.41-4.49,10.55-.19.26-.4.51-.6.75-2.12,2.67-5.07,4.6-8.26,5.77-.46.16-.92.3-1.39.45-2.93.85-6.01,1.03-9.03.84-.32-.03-.64-.06-.95-.1-2.97-.32-5.91-1.11-8.56-2.51-.3-.15-.6-.3-.89-.47-2.52-1.49-4.78-3.41-6.6-5.7-.24-.33-.49-.65-.73-.97-1.94-2.6-3.51-5.46-4.81-8.43-.17-.4-.35-.79-.52-1.18-1.43-3.21-2.48-6.56-3.53-9.91-.16-.5-.32-1.01-.46-1.51-.93-3.21-1.74-6.46-2.54-9.7-.09-.42-.18-.84-.28-1.26-.81-3.26-1.48-6.55-2.27-9.82-.1-.48-.2-.95-.3-1.42-.66-3.22-1.47-6.39-2.29-9.57-.14-.49-.27-.99-.39-1.49-.75-2.82-1.62-5.62-2.75-8.32-.15-.38-.31-.76-.47-1.13-1.08-2.42-2.33-4.79-4.03-6.84-.26-.34-.54-.67-.84-.98-1.66-1.76-3.64-3.26-5.94-4.06-.36-.13-.72-.23-1.09-.32-1.9-.45-3.92-.22-5.71.53-1.89.86-3.58,2.23-4.69,4-1.23,1.63-2.05,3.54-2.58,5.5-1.37,5.3-1.24,10.84-.77,16.25.04,1.2.18,2.4.35,3.59.28,2.79.48,5.59.47,8.39.03,1.22-.04,2.43,0,3.65,1.31.62,2.4,1.73,2.84,3.12.47,1.28.47,2.74-.09,3.99-.4,1.1-1.23,1.95-2.09,2.71.93.93,1.63,2.15,1.67,3.49.21,2.22-1.39,4.3-3.4,5.1.66,1.03,1.19,2.21,1.11,3.47.05,2.26-1.88,4.07-3.94,4.66.77,1.49,1.12,3.33.39,4.9-.51,1.25-1.64,2.12-2.87,2.6.9,1.39,1.28,3.29.44,4.8-.46.96-1.33,1.61-2.21,2.15.7.87,1.03,1.98,1.15,3.08.16,1.76-.68,3.57-2.07,4.65-1.02.76-2.3,1.21-3.57,1.14-1.17,1.26-2.82,2.13-4.56,2.1-1.67.07-3.35-.62-4.46-1.86-.21-.32-.62-.21-.94-.25-1.49-.11-2.95-.85-3.86-2.05-1.06-1.31-1.38-3.12-.96-4.74.15-.77.59-1.43.9-2.13-.72-.44-1.49-.88-1.97-1.59-.65-.92-.97-2.09-.73-3.2.09-.74.43-1.41.78-2.06-1.05-.39-2.05-1-2.65-1.97-.78-1.17-.92-2.7-.49-4.03.16-.49.42-.93.61-1.4-1.39-.55-2.71-1.49-3.31-2.91-.66-1.72-.18-3.74,1.05-5.09-.5-.38-1.05-.7-1.5-1.14-.94-.99-1.55-2.35-1.4-3.73.17-1.36.76-2.71,1.81-3.62-.98-.73-1.82-1.71-2.21-2.88-.73-1.97-.12-4.31,1.43-5.72.4-.46,1-.68,1.44-1.09-.16-3.38-.23-6.76-.4-10.14-.05-.76,0-1.52-.12-2.27-.11,0-.33.02-.45.03.16-.06.31-.12.47-.17-.04-1.17-.06-2.34-.16-3.51-.22-4.74-.1-9.49-.02-14.23.25-7.61.05-15.29,1.33-22.83.93-5.23,2.77-10.44,6.18-14.58,3.02-3.68,7.27-6.16,11.71-7.74,1.36-.53,2.77-.91,4.18-1.29.01-.08.04-.24.05-.33.01.11.03.32.05.43,1.33-.49,2.75-.59,4.13-.87,2.33-.42,4.68-.66,7.02-.96,0-.08-.02-.25-.02-.34Z"/>
  <path class="cls-38" d="M45.31,11.84c1.01-.3,2.09-.23,3.13-.15.7.06,1.05,1,.61,1.52-.33.37-.84.35-1.29.33-1.53-.08-3.15.5-4.09,1.75-.86,1.15-.98,2.7-.62,4.06.18.6-.1,1.34-.73,1.53-1.49.41-3.19.97-3.93,2.44-.77,1.33-.62,3.02.14,4.31.23.43.57.85.6,1.35-.06.34-.23.67-.48.91-.94.68-2.12,1.13-2.76,2.15-.46.81-.64,1.78-.53,2.7.14,1.05.87,1.85,1.44,2.69.41.54.39,1.42-.18,1.85-.66.55-1.39,1.07-1.86,1.81-.5.85-.7,1.91-.36,2.85.25.93,1.05,1.52,1.61,2.25.49.56.39,1.51-.18,1.99-.75.68-1.68,1.27-2.02,2.28-.3.72-.19,1.54.08,2.25.35.86,1.11,1.45,1.68,2.16.41.5.43,1.28.02,1.78-.32.37-.75.62-1.1.96-.56.5-.93,1.19-1.08,1.92-.22,1.44.68,2.79,1.75,3.65.45.34.7.92.64,1.47-.11.63-.69,1-1.11,1.41-.81.77-1.47,1.86-1.28,3.02.2.99.86,1.83,1.6,2.5.38.37.85.71.97,1.26.18.66-.19,1.34-.71,1.74-.88.71-1.56,1.8-1.48,2.96.16,1.33,1.17,2.3,2.12,3.13.64.52.66,1.64,0,2.15-.69.61-1.32,1.32-1.61,2.21-.46.34-1.17.56-1.68.2-.2-.11-.44-.27-.35-.53.2-1.16,1.01-2.08,1.83-2.87-.26-.48-.81-.76-1.14-1.2-.81-1.11-1.42-2.47-1.2-3.87.15-1.42,1.03-2.61,2.02-3.58-1.56-1.13-2.64-3.04-2.44-4.99.1-1.51,1.06-2.83,2.17-3.79-1.15-1.14-2.23-2.58-2.19-4.28-.08-1.12.35-2.21,1.02-3.09.36-.49.83-.88,1.24-1.33-1.17-1.11-2-2.66-2.01-4.3.06-1.1.38-2.22,1.08-3.09.36-.52.9-.86,1.34-1.31-.81-.92-1.55-1.98-1.76-3.22-.48-2.2.77-4.53,2.67-5.62-1.3-1.29-1.84-3.22-1.56-5.01.14-1.44,1.04-2.67,2.1-3.6.4-.36.92-.55,1.35-.87-.03-.37-.37-.66-.49-1.02-.67-1.68-.67-3.69.23-5.29.92-1.64,2.58-2.79,4.42-3.15-.16-1.44-.13-2.95.52-4.27.74-1.54,2.21-2.73,3.87-3.12Z"/>
  <path class="cls-38" d="M55.68,12.81c1.01-.3,2.09-.23,3.13-.15.7.06,1.05,1,.61,1.52-.33.37-.84.35-1.29.33-1.53-.08-3.15.5-4.09,1.75-.86,1.15-.98,2.7-.62,4.06.18.6-.1,1.34-.73,1.53-1.49.41-3.19.97-3.93,2.44-.77,1.33-.62,3.02.14,4.31.23.43.57.85.6,1.35-.06.34-.23.67-.48.91-.94.68-2.12,1.13-2.76,2.15-.46.81-.64,1.78-.53,2.7.14,1.05.87,1.85,1.44,2.69.41.54.39,1.42-.18,1.85-.66.55-1.39,1.07-1.86,1.81-.5.85-.7,1.91-.36,2.85.25.93,1.05,1.52,1.61,2.25.49.56.39,1.51-.18,1.99-.75.68-1.68,1.27-2.02,2.28-.3.72-.19,1.54.08,2.25.35.86,1.11,1.45,1.68,2.16.41.5.43,1.28.02,1.78-.32.37-.75.62-1.1.96-.56.5-.93,1.19-1.08,1.92-.22,1.44.68,2.79,1.75,3.65.45.34.7.92.64,1.47-.11.63-.69,1-1.11,1.41-.81.77-1.47,1.86-1.28,3.02.2.99.86,1.83,1.6,2.5.38.37.85.71.97,1.26.18.66-.19,1.34-.71,1.74-.88.71-1.56,1.8-1.48,2.96.16,1.33,1.17,2.3,2.12,3.13.64.52.66,1.64,0,2.15-.69.61-1.32,1.32-1.61,2.21-.46.34-1.17.56-1.68.2-.2-.11-.44-.27-.35-.53.2-1.16,1.01-2.08,1.83-2.87-.26-.48-.81-.76-1.14-1.2-.81-1.11-1.42-2.47-1.2-3.87.15-1.42,1.03-2.61,2.02-3.58-1.56-1.13-2.64-3.04-2.44-4.99.1-1.51,1.06-2.83,2.17-3.79-1.15-1.14-2.23-2.58-2.19-4.28-.08-1.12.35-2.21,1.02-3.09.36-.49.83-.88,1.24-1.33-1.17-1.11-2-2.66-2.01-4.3.06-1.1.38-2.22,1.08-3.09.36-.52.9-.86,1.34-1.31-.81-.92-1.55-1.98-1.76-3.22-.48-2.2.77-4.53,2.67-5.62-1.3-1.29-1.84-3.22-1.56-5.01.14-1.44,1.04-2.67,2.1-3.6.4-.36.92-.55,1.35-.87-.03-.37-.37-.66-.49-1.02-.67-1.68-.67-3.69.23-5.29.92-1.64,2.58-2.79,4.42-3.15-.16-1.44-.13-2.95.52-4.27.74-1.54,2.21-2.73,3.87-3.12Z"/>
  <path class="cls-23" d="M83.31,13.88c.78-.72,1.72-1.35,2.8-1.47,1.59-.27,3.18.45,4.34,1.5,1.07.92,1.74,2.29,1.75,3.71,0,.95-.32,1.87-.71,2.73-.36-.33-.77-.63-1.13-.96-1.38-1.38-2.95-2.55-4.5-3.74-.83-.62-1.77-1.09-2.55-1.77Z"/>
  <path class="cls-19" d="M67.78,19.6c.75-.09,1.48.25,2.1.63.65.47,1.3,1.22,1.11,2.08-.22.77-1.09,1.17-1.84,1.06-1.19-.11-2.42-.88-2.73-2.09-.21-.85.53-1.66,1.36-1.69Z"/>
  <path class="cls-17" d="M94.12,23.31c1.12-.45,2.42-.58,3.56-.11,1.45.61,2.63,1.86,3.11,3.35.66,1.76.32,3.8-.73,5.34-.62-.82-1.06-1.76-1.64-2.61-1.07-1.57-2.03-3.23-3.32-4.63-.36-.42-.67-.89-.97-1.35Z"/>
  <path class="cls-17" d="M75.56,25.16c.71-.27,1.55-.08,2.13.4.58.47,1.21,1.01,1.37,1.79.18.77-.41,1.59-1.18,1.7-.62.14-1.24-.13-1.75-.47-.58-.42-1.15-.94-1.37-1.65-.25-.68.16-1.47.8-1.77Z"/>
  <path class="cls-23" d="M65.87,26.26c1.96-.55,4.1.47,5.16,2.15.33.62.55,1.4.2,2.07-.35.88-1.33,1.29-2.23,1.3-1.3-.03-2.55-.6-3.49-1.49-.59-.57-1.01-1.36-.99-2.2.03-.8.58-1.57,1.34-1.83Z"/>
  <path class="cls-17" d="M74.74,32.26c.81-.22,1.67.1,2.36.54.75.59,1.53,1.39,1.53,2.41.1.66-.36,1.29-.96,1.53-.64.25-1.36.13-1.96-.16-1.02-.56-1.99-1.5-2.05-2.73-.09-.71.43-1.37,1.09-1.59Z"/>
  <path class="cls-19" d="M107.67,89.36c-.16.44-.54.75-.93.99-.44.23-1.03.39-1.46.05-.37-.33-.35-.92-.09-1.31.39-.63,1.15-1.1,1.91-.95.53.12.78.75.57,1.22Z"/>
  <path class="cls-17" d="M102.45,92.17c-.05.47-.38.88-.81,1.08-.42.2-.89.39-1.37.27-.48-.11-.78-.66-.62-1.12.09-.38.41-.66.74-.85.39-.21.84-.38,1.29-.31.45.05.77.49.77.93Z"/>
  <path class="cls-23" d="M104.48,86.48c-.23,1.24-1.38,2.15-2.6,2.28-.44.01-.93-.08-1.2-.46-.4-.43-.35-1.09-.11-1.59.37-.71,1.03-1.25,1.78-1.53.48-.17,1.03-.19,1.49.05.44.24.71.75.65,1.25Z"/>
  <path class="cls-17" d="M98.73,89.78c-.1.51-.51.9-.94,1.16-.53.26-1.19.47-1.76.19-.39-.13-.62-.55-.59-.95.03-.42.3-.79.63-1.05.59-.42,1.38-.69,2.08-.39.42.14.65.61.59,1.04Z"/>
  <path class="cls-29" d="M100.81,33.3c1.42-.19,2.93.16,4.02,1.11,1.37,1.23,2.02,3.15,1.84,4.96-.06,1.3-.73,2.48-1.55,3.46-.36-.63-.53-1.35-.84-2-.6-1.31-1.17-2.64-1.75-3.96-.58-1.19-1.16-2.38-1.72-3.58Z"/>
  <path class="cls-36" d="M61.86,44.27c1.79-.75,3.81-.98,5.71-.53-.31.9-.58,1.83-1.08,2.65-.34.58-.84,1.05-1.32,1.51-1.05-.45-2.15-.89-3.32-.89-1.07,0-2.2.07-3.17.58-.51.21-.96.59-1.51.68,1.11-1.77,2.8-3.14,4.69-4Z"/>
  <path class="cls-5" d="M67.57,43.74c.37.09.73.19,1.09.32-.44.87-.65,1.85-1.17,2.68-.39.66-.96,1.16-1.5,1.69-.28-.16-.55-.34-.82-.52.48-.46.98-.93,1.32-1.51.5-.82.76-1.75,1.08-2.65Z"/>
  <path class="cls-40" d="M67.49,46.74c.52-.83.73-1.81,1.17-2.68,2.3.79,4.29,2.3,5.94,4.06-.72,1.67-2.18,3.02-3.93,3.55-.38.13-.76.26-1.14.39-.96-1.4-2.15-2.65-3.55-3.63.54-.52,1.12-1.03,1.5-1.69Z"/>
  <path class="cls-34" d="M105.7,44.47c1.3.03,2.59.51,3.54,1.4,1.07,1.06,1.58,2.6,1.55,4.09.04,1.73-.79,3.4-2.06,4.54-.41-1.27-.66-2.59-1.11-3.85-.36-1.08-.62-2.2-.98-3.28-.31-.97-.68-1.92-.94-2.9Z"/>
  <path class="cls-18" d="M74.6,48.11c.3.31.57.64.84.98-.6.73-1.1,1.56-1.89,2.11-.79.55-1.55,1.23-2.51,1.46-.32.08-.64.15-.96.22-.2-.26-.39-.54-.55-.83.38-.14.76-.27,1.14-.39,1.74-.53,3.21-1.88,3.93-3.55Z"/>
  <path class="cls-41" d="M73.55,51.2c.79-.54,1.29-1.38,1.89-2.11,1.69,2.05,2.95,4.42,4.03,6.84-.41.36-.77.77-1.15,1.15-1.46,1.24-3.35,1.93-5.27,2.01-.82-2.14-1.76-4.25-2.96-6.21.32-.07.64-.14.96-.22.96-.23,1.72-.91,2.51-1.46Z"/>
  <path class="cls-37" d="M78.31,57.08c.39-.38.75-.79,1.15-1.15.16.37.32.75.47,1.13-.97.68-1.76,1.63-2.87,2.11-1.13.59-2.39.87-3.65.96-.14-.34-.26-.68-.37-1.03,1.91-.09,3.8-.77,5.27-2.01Z"/>
  <path class="cls-29" d="M109.1,56.1c1.32.17,2.63.77,3.46,1.83.9,1.15,1.2,2.68,1.07,4.11-.17,1.62-1.07,3.12-2.37,4.1-.51-1.88-.76-3.8-1.23-5.69-.27-1.46-.64-2.9-.93-4.36Z"/>
  <path class="cls-12" d="M77.07,59.16c1.11-.48,1.89-1.42,2.87-2.11,1.13,2.69,1.99,5.49,2.75,8.32-.76,1.2-2.03,2-3.38,2.38-1.13.47-2.36.5-3.56.48-.48-1.75-.89-3.52-1.42-5.26-.28-.96-.68-1.88-.91-2.85,1.27-.09,2.52-.37,3.65-.96Z"/>
  <path class="cls-11" d="M82.68,65.37c.12.5.25,1,.39,1.49-.72.6-1.56,1.03-2.37,1.5-.96.55-2.08.68-3.16.84-.52.08-1.06.06-1.59,0-.08-.32-.16-.65-.22-.98,1.2.02,2.43-.01,3.56-.48,1.35-.38,2.63-1.18,3.38-2.38Z"/>
  <path class="cls-41" d="M80.71,68.37c.81-.47,1.64-.91,2.37-1.5.82,3.18,1.63,6.36,2.29,9.57-.5.53-1.02,1.07-1.68,1.39-1.08.52-2.21,1.02-3.43,1.07-.72.06-1.46-.07-2.15.15-.24-1.51-.59-3.01-.91-4.5-.44-1.77-.76-3.57-1.22-5.33.53.06,1.06.08,1.59,0,1.08-.16,2.2-.29,3.16-.84Z"/>
  <path class="cls-2" d="M17.38,71.05c.96-.36,1.95-.65,2.92-.99.11,1.17.13,2.34.16,3.51-.16.06-.31.11-.47.17-.88.25-1.74.55-2.6.88-.06-.02-.18-.07-.24-.09,0-.42.07-.84.15-1.25.14-.73.05-1.48.08-2.22Z"/>
  <path class="cls-13" d="M54.18,73.61c-.17-1.19-.31-2.39-.35-3.59.62.15,1.23.3,1.84.47-.25.35-.43.76-.38,1.19.01.61.3,1.3-.13,1.83.09.13.18.25.27.38-.42-.1-.83-.2-1.25-.29Z"/>
  <path class="cls-31" d="M14.56,76.4c.41-.61,1.07-.97,1.72-1.28.37-.18.76-.34,1.15-.48h-.04c-.06-.04-.18-.08-.24-.11,0-.42.07-.84.15-1.25.14-.73.05-1.48.08-2.22-.22.09-.44.19-.65.28-1.3.51-2.63,1.03-3.69,1.95-.91.75-1.47,1.85-1.67,3.01-.45,2.81-.49,5.65-.47,8.49-.82.53-1.5,1.27-1.97,2.12-.46.88-.69,1.98-.23,2.91.47.99,1.72,1.53,2.75,1.13,1.15-.36,1.88-1.53,2.05-2.67.55.17,1.21.23,1.71-.12.71-.43.93-1.41.59-2.14-.34-.89-1.23-1.4-2.11-1.63-.16-1.64-.02-3.29.11-4.93.15-1.03.14-2.17.77-3.06Z"/>
  <path class="cls-49" d="M66.36,86.49c-.46-1.21-1.38-2.24-2.51-2.87-.35-2.5-.53-5.04-1.14-7.49-.17-.97-.48-1.97-1.14-2.72-.64-.78-1.53-1.29-2.45-1.68-1.12-.48-2.26-.94-3.45-1.23-.25.35-.43.76-.38,1.19.01.61.3,1.3-.13,1.83.09.13.18.25.27.38,1.22.39,2.47.75,3.58,1.42.73.44,1.01,1.32,1.19,2.1.38,1.99.78,4,.84,6.03-.56.23-1.11.51-1.49.99-.67.75-.71,2.1.16,2.71.5.44,1.22.35,1.79.11.32.94.88,1.86,1.81,2.31.87.45,2.04.31,2.69-.44.64-.71.69-1.77.38-2.64Z"/>
  <path class="cls-48" d="M85.37,76.43c.1.47.2.94.3,1.42-.98.51-1.84,1.26-2.92,1.55-1.42.49-2.91.69-4.4.68-.08-.35-.17-.69-.24-1.04.7-.22,1.44-.08,2.15-.15,1.22-.05,2.35-.55,3.43-1.07.67-.32,1.18-.86,1.68-1.39Z"/>
  <path class="cls-8" d="M119.15,76.69c1.01-.45,2.33-.02,2.82.98.27.61.32,1.3.27,1.95-.16,1.95-.35,3.9-.34,5.85.07.97.46,2.09-.17,2.96-.59.76-1.63.88-2.47,1.21-1.41.4-2.83.79-4.27,1.03-.38-1.22-.35-2.52-.55-3.78.33-.04.66-.08.99-.14,1.07-.22,2.12-.48,3.17-.8-.09-2.3-.75-4.54-.89-6.83-.02-.99.47-2.08,1.44-2.44Z"/>
  <path class="cls-41" d="M82.74,79.41c1.08-.29,1.94-1.04,2.92-1.55.79,3.26,1.45,6.56,2.27,9.82-.88.6-1.66,1.37-2.71,1.66-1.43.57-2.96.81-4.5.76-.01.11-.04.35-.05.46-.84-3.48-1.6-6.97-2.34-10.47,1.5.02,2.99-.19,4.4-.68Z"/>
  <path class="cls-5" d="M87.93,87.67c.1.42.19.84.28,1.26-.98.53-1.88,1.22-2.95,1.56-.71.24-1.43.43-2.16.56-.74.14-1.5.02-2.25.07-.07-.19-.13-.39-.18-.58.01-.11.04-.35.05-.46,1.53.05,3.07-.19,4.5-.76,1.05-.29,1.83-1.07,2.71-1.66Z"/>
  <path class="cls-44" d="M25.57,88.21c.97-.12,2.02.04,2.86.57.45.24.51.93.07,1.21-.41.2-.75-.19-1.1-.33-1.44-.73-3.2.18-3.96,1.49-.18.4-.86.41-1-.02-.11-.49.25-.89.5-1.27.61-.87,1.56-1.5,2.62-1.65Z"/>
  <path class="cls-45" d="M45.31,88.77c2.01-1.22,4.87-.25,5.86,1.85.26.5-.28.98-.77.83-.62-.98-1.58-1.87-2.8-1.93-.79-.12-1.56.16-2.21.59-.3.23-.87.08-.87-.34-.03-.48.46-.75.79-1Z"/>
  <path class="cls-41" d="M85.26,90.5c1.07-.35,1.97-1.03,2.95-1.56.8,3.25,1.61,6.49,2.54,9.7.02.23-.05.46-.26.59-.59.47-1.16,1-1.87,1.29-.82.33-1.63.77-2.52.86-.8.09-1.61.12-2.41.16-.42-1.06-.7-2.16-.99-3.26-.7-2.36-1.36-4.73-1.85-7.14.75-.05,1.51.07,2.25-.07.73-.13,1.46-.32,2.16-.56Z"/>
  <path class="cls-6" d="M25.89,93.28c.91-.24,1.93.02,2.6.67,1.04.9,1.43,2.28,1.65,3.58.21,1.83.1,3.81-.94,5.4-.6.89-1.59,1.6-2.7,1.54-1.38.05-2.43-1.09-2.95-2.25-.76-1.82-.88-3.92-.34-5.81.37-1.35,1.22-2.78,2.68-3.13Z"/>
  <path class="cls-6" d="M46.53,93.34c1.01-.4,2.18,0,2.93.73.84.82,1.21,2,1.41,3.13.29,1.97.15,4.11-.97,5.82-.68,1.12-2.16,1.79-3.42,1.31-.85-.36-1.5-1.08-1.93-1.88-.93-1.85-.99-4.04-.46-6.02.28-1.33,1.12-2.61,2.44-3.08Z"/>
  <path class="cls-28" d="M25.55,96.75c.27-.6.77-1.11,1.41-1.3.96-.22,2.09.54,2.2,1.52-.28-.08-.6-.2-.86,0-.86.39-.61,2.04.42,1.97.43.03.55-.47.88-.62.02,1.45.14,3.05-.73,4.31-.43.72-1.4,1.14-2.18.72-1.06-.55-1.39-1.83-1.56-2.92-.09-1.23-.1-2.52.42-3.66Z"/>
  <path class="cls-30" d="M44.59,97.68c.22-.93.71-1.98,1.72-2.23.98-.21,1.8.57,2.19,1.39-.39.05-.86-.01-1.15.31-.55.54-.27,1.74.56,1.8.45.07.72-.36.94-.67.24,1.48.08,3.08-.73,4.38-.34.55-.99.96-1.65.83-.69-.1-1.21-.66-1.5-1.26-.68-1.4-.68-3.04-.38-4.54Z"/>
  <path class="cls-25" d="M90.76,98.64c.14.51.3,1.01.46,1.51-1.02.61-1.92,1.46-3.1,1.77-1.34.4-2.86,1.01-4.23.41-.06-.27-.13-.53-.2-.8.8-.04,1.61-.07,2.41-.16.9-.09,1.7-.52,2.52-.86.71-.28,1.28-.82,1.87-1.29.21-.13.28-.36.26-.59Z"/>
  <path class="cls-40" d="M88.12,101.92c1.17-.32,2.08-1.16,3.1-1.77,1.04,3.35,2.1,6.7,3.53,9.91-1.56,1.7-3.8,2.71-6.08,2.96-.03-.07-.09-.21-.12-.28-.2-.81-.54-1.59-.81-2.38-.19-.56-.35-1.13-.49-1.7-.23-1.04-.45-2.11-1-3.03-.1-.15-.23-.37-.44-.31-.41.19-.58.68-.53,1.11-.46-1.37-.93-2.73-1.39-4.09,1.37.59,2.88,0,4.23-.41Z"/>
  <path class="cls-43" d="M22.59,104.42c1.19-.23,2.61.14,3.24,1.25.53.86.26,2.08-.54,2.69-1.28,1.01-3.37.79-4.36-.54-.42-.53-.48-1.27-.27-1.89.36-.77,1.1-1.35,1.93-1.51Z"/>
  <path class="cls-47" d="M50.02,104.42c.85-.14,1.8-.03,2.49.54.5.38.92.95.89,1.61.08.82-.53,1.51-1.17,1.94-1.29.88-3.36.54-4.13-.88-.43-.69-.28-1.62.21-2.24.41-.55,1.08-.8,1.72-.97Z"/>
  <path class="cls-3" d="M127.5,110.27c-.29-.11-.67-.03-.83-.36-.46-.65-1.13-1.1-1.88-1.35-.43-.13-.88-.17-1.33-.14-1.23.18-2.31.8-3.22,1.62.47-1.37.71-2.81.68-4.26-.04-1.02-.42-2.04-1.08-2.82-.76-.88-1.87-1.4-3.01-1.57-.06.03-.19.1-.25.13.09,1.29.46,2.54.73,3.8.29,1.38.97,2.64,1.75,3.8.99,1.51,2.49,2.81,4.3,3.17.43.07.86.08,1.3.02,1.22-.23,2.3-.93,3.11-1.85-.1-.07-.19-.13-.28-.19Z"/>
  <path class="cls-11" d="M94.74,110.06c.18.39.35.78.52,1.18-.8.4-1.38,1.11-2.18,1.5-1.4.85-3.05,1.1-4.62,1.47-.03-.05-.09-.15-.11-.2.21-.39.23-.84.2-1.27.03.07.09.21.12.28,2.28-.25,4.51-1.25,6.08-2.96Z"/>
  <path class="cls-20" d="M88.55,112.74c-.2-.81-.54-1.59-.81-2.38-.19-.56-.35-1.13-.49-1.7-.23-1.04-.45-2.11-1-3.03-.1-.15-.23-.37-.44-.31-.41.19-.58.68-.53,1.11.16.49.42.97.4,1.51-.67,1.75-1.28,3.53-2.24,5.16-.77-.73-1.55-1.49-2.52-1.95-.58-.28-1.25-.34-1.88-.2-.91.27-1.63,1.17-1.61,2.14-.04.86.44,1.68,1.13,2.17,1.19.85,2.43,1.63,3.73,2.29.89.43,2.06.03,2.47-.87.95-1.34,2.07-2.57,2.9-4,.22.45.46.89.68,1.35.21-.39.23-.84.2-1.27Z"/>
  <path class="cls-40" d="M93.08,112.74c.81-.39,1.39-1.1,2.18-1.5,1.3,2.96,2.87,5.83,4.81,8.43-.56.68-1.08,1.4-1.79,1.94-1.32,1.04-2.84,1.84-4.46,2.29-.67-.93-1.35-1.85-1.9-2.86-1.27-2.22-2.51-4.47-3.47-6.83,1.57-.37,3.22-.61,4.62-1.47Z"/>
  <path class="cls-42" d="M98.3,121.6c.71-.54,1.23-1.26,1.79-1.94.24.32.49.64.73.97-1.71,1.88-3.82,3.49-6.29,4.2-.26-.29-.5-.6-.68-.94,1.62-.46,3.14-1.26,4.46-2.29Z"/>
  <path class="cls-26" d="M94.52,124.83c2.47-.71,4.58-2.32,6.29-4.2,1.82,2.29,4.08,4.22,6.6,5.7-.76.69-1.21,1.63-1.72,2.51-.67,1.17-1.09,2.46-1.59,3.71-3.81-1.66-7.09-4.41-9.58-7.72Z"/>
  <path class="cls-22" d="M107.41,126.34c.29.16.59.31.89.47-1.13,1.36-1.88,2.97-2.64,4.55-.27.53-.35,1.17-.78,1.62-.26-.14-.53-.28-.79-.42.5-1.25.92-2.54,1.59-3.71.51-.88.96-1.82,1.72-2.51Z"/>
  <path class="cls-40" d="M105.66,131.35c.76-1.58,1.51-3.18,2.64-4.55,2.65,1.4,5.59,2.19,8.56,2.51-.56,2.03-.45,4.17-.66,6.25-3.88-.24-7.72-1.1-11.31-2.59.42-.45.51-1.09.78-1.62Z"/>
  <path class="cls-24" d="M126.85,128.57c.46-.14.93-.29,1.39-.45.35.77.72,1.54.85,2.38.21,1.19.65,2.32.86,3.51-.19.07-.37.14-.55.21-.11-.02-.32-.07-.43-.09-.42-.83-.4-1.8-.66-2.68-.26-.98-.62-1.92-.98-2.86-.12,0-.36-.01-.48-.02Z"/>
  <path class="cls-36" d="M117.81,129.41c3.03.19,6.11,0,9.03-.84.12,0,.36.02.48.02.36.94.71,1.89.98,2.86.26.88.24,1.85.66,2.68.11.02.32.07.43.09-1.48.35-2.93.78-4.44.99-2.56.42-5.17.54-7.76.42.17-2.08.29-4.16.62-6.22Z"/>
  <path class="cls-11" d="M116.86,129.31c.32.03.63.07.95.1-.33,2.06-.45,4.15-.62,6.22-.33-.02-.66-.04-.99-.07.21-2.08.1-4.22.66-6.25Z"/>
  <path class="cls-27" d="M33.23,129.64c1.23-.33,2.34,1.26,1.7,2.32-.52.84-1.87.77-2.38-.04-.61-.75-.25-2,.68-2.28Z"/>
  <path class="cls-46" d="M40.82,129.64c.92-.3,1.82.6,1.67,1.51-.04,1.07-1.37,1.8-2.27,1.17-1.05-.67-.53-2.42.6-2.68Z"/>
</svg>