<svg xmlns="http://www.w3.org/2000/svg" xmlns:xlink="http://www.w3.org/1999/xlink" xmlns:inkscape="http://www.inkscape.org/namespaces/inkscape" version="1.1" width="1254" height="1254" viewBox="0 0 1254 1254">
<defs>
<clipPath id="clip_1">
<path transform="matrix(1,0,0,-1,0,1254)" d="M0 1254H1254V0H0Z"/>
</clipPath>
</defs>
<g inkscape:groupmode="layer" inkscape:label="Layer 1">
<g clip-path="url(#clip_1)">
<path transform="matrix(1,0,0,-1,969.77,250.16999)" d="M0 0C-3.5 3.82-7.52 7.15-10.76 11.19 1.2 22.86 11.32 37.43 14.38 54.13 16.33 64.39 12.04 75.87 2.64 81.01 11.44 98.78 17.16 118.31 17.66 138.21 17.62 146.8 16.34 156.52 9.5 162.52 3.96 167.48-4.01 167.39-10.92 166.33-20.92 164.21-30.43 160.35-39.91 156.6-61.52 147.79-82.58 137.72-103.94 128.34-115.72 123.39-128.05 117.09-141.21 118.9-190.84 137.74-243.81 147.01-296.73 148.84-318.88 150.33-341.09 149.27-363.24 148.32-410.53 144.96-457.86 139.06-503.85 127.12-512.57 125.01-521.05 122.03-529.84 120.17-542.17 117.76-555.36 117.48-567.18 122.3-596.62 133.92-624.7 148.79-654.37 159.87-663.83 163.33-673.53 167.52-683.82 166.82-690.36 166.67-696.59 162.72-699.54 156.89-703.77 148.73-703.76 139.13-702.97 130.19-701.28 113.04-696.24 96.24-688.23 80.98-692.9 78.33-696.92 74.31-698.57 69.1-702.12 60.62-700.24 51.1-696.97 42.85-692.01 30.58-684.06 19.55-674.23 10.7-677.6 7.3-681.14 4.06-684.36 .52-700.79-15.77-715.6-33.67-729.45-52.19-757.18-90.01-780-131.46-797.09-175.11-791.24-176.35-785.26-176.95-779.46-178.44-758.76-183.09-739.77-193.4-722.69-205.74-695.77-225.59-673.75-251.69-657.11-280.6-656.73-278.68-656.32-276.77-655.69-274.93-649.13-255.49-645.14-235.24-643.08-214.85-641.8-203.22-642.12-191.51-642.24-179.85-642.18-175.02-643.23-170.22-642.67-165.4-649.44-144.22-653.83-122.1-653.54-99.8-653.92-63.34-643.98-26.79-624.86 4.28-620.5 11.11-615.88 17.79-610.59 23.94-591.74 46.66-565.99 63.9-537.25 71.15-519.49 75.37-501 76.64-482.86 74.46-459.85 71.73-437.35 64.78-416.76 54.15-389.66 40.19-365.49 19.81-349-6-346.68-9.6-344.92-13.54-342.39-17.02-330.7 7.12-311.5 27.01-289.37 41.87-256.16 64.23-215.9 77.12-175.68 74.6-155.32 73.31-135.13 67.76-117.35 57.66-89.42 41.71-67.32 16.54-53.14-12.17-35.43-48.03-29.31-89.37-35.18-128.88-36.75-141.3-40.46-153.27-43.53-165.35-43.35-169.55-43.84-173.72-44.11-177.91-44.97-201.02-42.91-224.25-37.82-246.82-35.58-258.29-31.78-269.36-28.51-280.56-18.36-262.3-5.65-245.47 8.91-230.51 27.47-211.29 49.39-194.97 74.16-184.67 86.13-179.93 98.72-176.19 111.69-175.92 86.62-110.68 48.67-50.24 0 0" fill="#c18760"/>
<path transform="matrix(1,0,0,-1,623.33,126.45996)" d="M0 0C6.5 .9 13.88-.82 18.17-6.08 21.22-9.46 22.65-14.02 22.71-18.52 22.5-28.48 17.74-38.65 9.15-44.02 6.11-46.04 2.08-46.08-1.05-44.27-12.3-37.87-17.8-23.14-13.83-10.89-11.9-4.88-6.09-.86 0 0" fill="#dbb280"/>
<path transform="matrix(1,0,0,-1,554.24,140.35999)" d="M0 0C13.34 3.41 27.82-4.59 33.63-16.73 35.59-21.33 36.71-26.77 34.94-31.6 32.89-35.66 27.69-35.89 23.72-36.13 12.94-35.92 2.13-31.56-5.47-23.85-9.57-19.63-12.52-12.98-9.68-7.29-8.11-3.26-4.01-.99 0 0" fill="#ddb685"/>
<path transform="matrix(1,0,0,-1,687.35,140.45996)" d="M0 0C5.98 1.5 12.63 .97 18.02-2.17 22.38-4.58 24.82-10.21 23.11-14.99 21.92-19.8 18.6-23.67 14.85-26.74 9.08-31.82 1.51-34.04-5.8-35.83-10.57-36.56-15.69-36.29-20.14-34.32-23.95-32.25-24.12-27.33-23.44-23.57-21.25-11.95-11.6-2.29 0 0" fill="#d3a877"/>
<path transform="matrix(1,0,0,-1,432.52,179.02002)" d="M0 0C17.76 4.22 36.25 5.49 54.39 3.31 77.4 .58 99.9-6.37 120.49-17 147.59-30.96 171.76-51.34 188.25-77.15 190.57-80.75 192.33-84.69 194.86-88.17 206.55-64.03 225.75-44.14 247.88-29.28 281.09-6.92 321.35 5.97 361.57 3.45 381.93 2.16 402.12-3.39 419.9-13.49 447.83-29.44 469.93-54.61 484.11-83.32 501.82-119.18 507.94-160.52 502.07-200.03 500.5-212.45 496.79-224.42 493.72-236.5 489.71-242.85 486.51-249.67 482.43-255.98 464.51-283.69 438.86-306.13 409.53-321.13 391.18-330.18 371.56-336.72 351.36-340.01 351.34-340.46 351.31-341.35 351.3-341.8 335.78-310.14 311.49-282.32 280.75-264.71 263.88-254.91 245.15-248.35 225.84-245.5 220.55-244.8 215.16-244.9 209.95-243.65 219.77-232.46 227.1-218.77 229.66-204.03 230.94-197.97 229.01-191.23 224.22-187.19 219.58-183.4 213.91-181.07 208.14-179.66 195.05-176.79 180.75-177.82 168.91-184.41 164.93-186.58 161.3-189.83 159.86-194.25 158.13-198.63 159.06-203.41 160.02-207.86 163.25-221.35 170.43-233.67 179.5-244.07 149.19-244.89 119.22-255.42 94.76-273.27 70.83-290.5 51.73-314.07 38.78-340.48 25-337.71 11.17-334.74-1.93-329.5-40.66-314.77-75.3-287.93-96.66-252.15-99.76-247.04-102.12-241.53-105.42-236.55-112.19-215.37-116.58-193.25-116.29-170.95-116.67-134.49-106.73-97.94-87.61-66.87-83.25-60.04-78.63-53.36-73.34-47.21-54.49-24.49-28.74-7.25 0 0" fill="#fbecd8"/>
<path transform="matrix(1,0,0,-1,402.13,298.09004)" d="M0 0C13.62 31.65 47.31 53.7 81.89 52.4 100.33 51.73 118.65 44.93 132.58 32.73 144.47 23 152.86 9.51 158.01-4.85 160.27-12.64 161.32-20.77 161.68-28.86 162.23-38.44 159.31-47.71 156.73-56.8 155.46-59.75 154.63-63.54 151.53-65.09 152.49-62.19 153.26-59.23 154.08-56.29 155.72-53.42 156.72-50.22 156.88-46.9 157.57-37.53 158.07-27.81 155.02-18.76 152.14-10.31 148.7-1.86 143.11 5.19 135.04 15.39 124.45 23.7 112.34 28.52 94.48 35.28 73.82 34.73 56.57 26.4 44.33 20.44 33.45 11.32 26.3-.35 16.26-15.68 12.77-34.88 16.08-52.84 17.97-62.13 21.8-70.97 26.67-79.07 30.43-85.37 35.86-90.36 41.25-95.22 38.82-95.33 36.38-95.12 34-94.66 27.86-93.52 21.58-93.74 15.37-93.91 7.11-84.64 .64-73.76-3.31-61.97-10.02-41.87-8.71-19.3 0 0" fill="#f8d39b"/>
<path transform="matrix(1,0,0,-1,853.37,302.72999)" d="M0 0C-6.59 17.59-19.13 32.88-35 42.92-53.45 55.23-76.93 59.6-98.62 55.14-113.06 51.92-126.64 44.91-137.4 34.71-149.03 24-157.12 9.71-161.01-5.57-163.24-14.65-163.19-24.07-162.85-33.36-162.3-39.83-160.16-46.04-158.22-52.2-156.67-56.62-154.96-61.29-151.42-64.55-153.38-60.13-154.5-55.42-155.61-50.74-157.77-48.52-157.71-45.28-158.03-42.42-158.41-36.38-159.22-30.32-158.54-24.28-158.02-19.27-156.43-14.46-155-9.66-152.4-.38-146.94 7.85-140.52 14.92-129.57 27.4-113.79 35.21-97.41 37.34-89.23 37.64-80.85 38.15-72.85 36.02-65.32 34.18-58.1 31.14-51.47 27.13-32.73 15.75-19.71-4.48-17.34-26.31-15.31-42.68-19.5-59.54-28.11-73.53-32.54-80.15-37.84-86.21-43.8-91.5-39.49-92.11-35.57-89.74-31.35-89.36-26.59-88.84-21.77-88.98-16.99-89.21-15.67-87.37-14.21-85.63-12.72-83.92 5.71-60.69 10.72-27.65 0 0" fill="#f8d39d"/>
<path transform="matrix(1,0,0,-1,458.7,271.69)" d="M0 0C17.25 8.33 37.91 8.88 55.77 2.12 67.88-2.7 78.47-11.01 86.54-21.21 92.13-28.26 95.57-36.71 98.45-45.16 101.5-54.21 101-63.93 100.31-73.3 100.15-76.62 99.15-79.82 97.51-82.69 99.24-73.29 98.94-63.48 96.03-54.34 91.3-38.2 78.8-24.58 63.22-18.31 50.07-12.98 34.78-12.63 21.69-18.34 13.09-21.64 5.56-27.34-.47-34.24-10.77-46.25-15.61-62.63-13.79-78.31-12.56-88.12-8.61-97.52-2.88-105.54 7.62-119.5 24.81-128.26 42.34-127.92 52.25-127.98 62.08-125.2 70.61-120.19V-121.28C64.99-127.78 56.75-131.2 48.72-133.75 36.14-138.23 22.3-137.65 9.5-134.44 .22-132.41-7.91-127.36-15.32-121.62-20.71-116.76-26.14-111.77-29.9-105.47-34.77-97.37-38.6-88.53-40.49-79.24-43.8-61.28-40.31-42.08-30.27-26.75-23.12-15.08-12.24-5.96 0 0" fill="#fefdfd"/>
<path transform="matrix(1,0,0,-1,712.85,287.81)" d="M0 0C10.95 12.48 26.73 20.29 43.11 22.42 51.29 22.72 59.67 23.23 67.67 21.1 75.2 19.26 82.42 16.22 89.05 12.21 107.79 .83 120.81-19.4 123.18-41.23 125.21-57.6 121.02-74.46 112.41-88.45 107.98-95.07 102.68-101.13 96.72-106.42 93.79-108.31 90.65-109.83 87.79-111.82 82.21-115.77 75.57-117.9 68.94-119.28 54.23-122.77 38.54-120.64 24.86-114.44 19.3-111.85 13.56-108.9 9.77-103.91L11.3-103.95C23.83-111.34 39.24-113.77 53.37-110.27 69.02-106.49 82.86-95.62 90.02-81.17 96.46-68.31 98.45-52.98 93.98-39.17 90.49-27.04 82.89-16.06 72.48-8.87 51.64 7.24 19.34 4.76 .95-14-12.46-27.18-18.83-47.18-15.09-65.66-17.25-63.44-17.19-60.2-17.51-57.34-17.89-51.3-18.7-45.24-18.02-39.2-17.5-34.19-15.91-29.38-14.48-24.58-11.88-15.3-6.42-7.07 0 0" fill="#fefdfd"/>
<path transform="matrix(1,0,0,-1,713.8,301.81)" d="M0 0C18.39 18.76 50.69 21.24 71.53 5.13 81.94-2.06 89.54-13.04 93.03-25.17 97.5-38.98 95.51-54.31 89.07-67.17 81.91-81.62 68.07-92.49 52.42-96.27 38.29-99.77 22.88-97.34 10.35-89.95 .86-84.04-7.24-75.77-11.85-65.47-13.81-61.05-14.93-56.34-16.04-51.66-19.78-33.18-13.41-13.18 0 0" fill="#3c2921"/>
<path transform="matrix(1,0,0,-1,493.48,331.59999)" d="M0 0C-4.69-5.84-13.85-6.87-20.05-2.99-27.13 1.19-29.27 10.95-25.74 18.13-22.07 24.11-14.86 27.58-7.91 25.86-4.79 24.72-1.82 22.97 .26 20.33 5.16 14.67 5.06 5.51 0 0M61.25 5.57C56.52 21.71 44.02 35.33 28.44 41.6 15.29 46.93 0 47.28-13.09 41.57-21.69 38.27-29.22 32.57-35.25 25.67-45.55 13.66-50.39-2.72-48.57-18.4-47.34-28.21-43.39-37.61-37.66-45.63-27.16-59.59-9.97-68.35 7.56-68.01 17.47-68.07 27.3-65.29 35.83-60.28 46.89-53.8 55.53-43.5 60.18-31.58 61.14-28.68 61.91-25.72 62.73-22.78 64.46-13.38 64.16-3.57 61.25 5.57" fill="#31221b"/>
<path transform="matrix(1,0,0,-1,467.74,313.46998)" d="M0 0C3.67 5.98 10.88 9.45 17.83 7.73 20.95 6.59 23.92 4.84 26 2.2 30.9-3.46 30.8-12.62 25.74-18.13 21.05-23.97 11.89-25 5.69-21.12-1.39-16.94-3.53-7.18 0 0" fill="#fdfcfd"/>
<path transform="matrix(1,0,0,-1,729.78,305.90998)" d="M0 0C10.85 3.22 22.17-8.24 19.05-19.04 17.3-28.06 6.66-33.32-1.73-29.94-9.9-27.12-13.83-17.01-10.5-9.21-8.63-4.77-4.75-1.1 0 0" fill="#fdfdfd"/>
<path transform="matrix(1,0,0,-1,601.43,363.43)" d="M0 0C11.84 6.59 26.14 7.62 39.23 4.75 45 3.34 50.67 1.01 55.31-2.78 60.1-6.82 62.03-13.56 60.75-19.62 58.19-34.36 50.86-48.05 41.04-59.24 36.51-63.7 32.19-69.62 25.54-70.73 19.27-69.39 14.87-64.05 10.59-59.66 1.52-49.26-5.66-36.94-8.89-23.45-9.85-19-10.78-14.22-9.05-9.84-7.61-5.42-3.98-2.17 0 0" fill="#e99d33"/>
<path transform="matrix(1,0,0,-1,393.61,401.63)" d="M0 0C6.54 5.78 15.31 8.73 23.89 9.63 30.1 9.8 36.38 10.02 42.52 8.88 44.9 8.42 47.34 8.21 49.77 8.32 57.18 2.58 65.31-2.47 74.59-4.5 71.75-6.23 68.3-3.9 65.37-3.3 67.74-7.88 69.88-13.17 68.14-18.35 65.75-25.92 58.47-30.66 51.51-33.58 38.76-38.14 24.28-38.15 11.66-33.14 4.78-30.35-2.4-26.04-5.03-18.68-7.87-12.21-4.99-4.56 0 0" fill="#fbbc9a"/>
<path transform="matrix(1,0,0,-1,809.57,394.22999)" d="M0 0C4.31-.61 8.23 1.76 12.45 2.14 17.21 2.66 22.03 2.52 26.81 2.29 35.44 1.36 44.04-1.71 50.7-7.4 55.63-11.76 58.36-19.1 56.01-25.47 53.82-31.72 48.32-36.16 42.49-38.9 33.59-43.5 23.34-44.77 13.44-44.21 3.98-43.58-5.5-40.24-12.6-33.83-17.32-29.67-19.66-22.75-17.8-16.66-17.04-14.58-15.72-12.76-15-10.67-19.24-11.3-23.48-14.56-27.78-12.86-21.15-11.48-14.51-9.35-8.93-5.4-6.07-3.41-2.93-1.89 0 0" fill="#fbbb9a"/>
<path transform="matrix(1,0,0,-1,327.1,415.57)" d="M0 0C3.3-4.98 5.66-10.49 8.76-15.6 30.12-51.38 64.76-78.22 103.49-92.95 116.59-98.19 130.42-101.16 144.2-103.93 126.72-138.12 119.14-176.37 115.33-214.3 111.1-263.37 114.73-313.59 129.65-360.69 139.59-390.95 155.14-419.84 177.73-442.55 200.24-465.62 229.46-482.04 260.92-489.1 311.15-500.54 366.66-489.93 407.64-458.21 426.26-444.17 441.52-426.02 453.36-406 467.09-382.22 475.97-355.91 481.49-329.08 489.04-291 489.78-251.8 486.03-213.23 482.2-176.01 473.32-138.93 456.72-105.25 456.73-104.8 456.76-103.91 456.78-103.46 476.98-100.17 496.6-93.63 514.95-84.58 544.28-69.58 569.93-47.14 587.85-19.43 591.93-13.12 595.13-6.3 599.14 .05 599.32-4.15 598.83-8.32 598.56-12.51 597.7-35.62 599.76-58.85 604.85-81.42 607.09-92.89 610.89-103.96 614.16-115.16 598.98-141.36 589.05-170.55 584.72-200.51 580.44-229.8 583.2-259.65 589.09-288.51 601.23-345.73 626.8-400.19 663.76-445.57 675.13-459.11 687.36-472.24 702.05-482.24 707.1-485.26 712.54-489.14 718.73-488.42 700.7-519.61 678.87-548.54 654.65-575.18 614.82-618.7 567.2-655.39 513.85-680.81 508-665.64 497.2-652.48 483.27-644.08 467.11-634.33 447.38-631.05 428.82-634.03 409.39-637.13 390.93-647.99 380.15-664.66 369.16-681.35 364.75-703.18 371.18-722.38 345.97-726.34 320.4-728.03 294.88-727.98 273.57-727.94 252.38-725.62 231.2-723.56 234-717.97 234.6-711.63 234.56-705.47 235.33-684.86 226.24-664.05 210.38-650.82 185.19-629.32 145.64-627.24 118.2-645.73 104.73-654.44 94.68-667.97 89.36-683.04 86.54-680.56 82.8-679.63 79.58-677.8 39.75-658.13 3.33-631.86-29.04-601.51-64.42-568.51-94.59-530.07-119.15-488.44-111.69-488.88-105.15-484.28-99.28-480.22-83.73-468.63-70.74-454.01-58.75-438.87-36.9-410.75-19.55-379.22-6.53-346.11 9.66-304.64 18.94-259.94 16.49-215.32 15.19-197.5 11.82-179.84 6.38-162.82 .94-146.36-5.59-130.14-14.44-115.2-14.06-113.28-13.65-111.37-13.02-109.53-6.46-90.09-2.47-69.84-.41-49.45 .87-37.82 .55-26.11 .43-14.45 .49-9.62-.56-4.82 0 0" fill="#e1be9a"/>
<path transform="matrix(1,0,0,-1,158.22,463.18)" d="M0 0C4.47 12.75 8.34 25.81 14.46 37.9 20.31 36.66 26.29 36.06 32.09 34.57 52.79 29.92 71.78 19.61 88.86 7.27 115.78-12.58 137.8-38.68 154.44-67.59 163.29-82.53 169.82-98.75 175.26-115.21 180.7-132.23 184.07-149.89 185.37-167.71 187.82-212.33 178.54-257.03 162.35-298.5 149.33-331.61 131.98-363.14 110.13-391.26 98.14-406.4 85.15-421.02 69.6-432.61 63.73-436.67 57.19-441.27 49.73-440.83 44.8-439.3 41.52-434.98 38.77-430.88 30.5-418.54 24.36-404.94 18.16-391.48 10.42-373.66 3.71-355.42-2.36-336.96-2.69-335.75-2.96-334.54-3.15-333.32 .59-339.52 4.39-345.83 9.82-350.73 16.39-356.58 24.75-361.07 33.74-361.02 44.1-361.07 53.53-354.56 59.19-346.21 67.75-333.32 70.62-317.41 70.04-302.15 74.42-310.17 80.18-317.83 88.46-322.12 96.35-326.5 106.55-327.04 114.45-322.39 124.07-317.3 129.78-307.41 133.89-297.72 145.96-266.64 142.18-228.64 120.39-202.7 120.62-217.24 117.22-232.1 109.28-244.4 103.95-252.24 95.7-259.14 85.81-259.43 77.13-260.21 68.79-255.87 62.8-249.87 56.2-242.75 51.61-233.93 48.78-224.68 48.08-238.97 44.09-253.7 34.67-264.78 28.63-271.97 18.73-276.66 9.31-274.51-.3-272.63-7.77-265.17-12.29-256.82-17-248.77-18.76-239.53-21.08-230.62-21.75-234.47-22.42-238.32-23.03-242.19-27.62-208.78-28.89-174.92-27.29-141.21-24.77-145.05-24.59-149.87-22.36-153.88-19.01-162.2-12.4-169.12-4.12-172.62 3.81-175.63 13.04-174.62 20.32-170.35 26.23-167.18 30.85-162.15 34.89-156.89 38-152.87 39.68-148.02 42.21-143.66 42.7-156.22 45.89-169.49 54.81-178.82 60.56-185.12 69.24-188.82 77.8-187.74 85.21-187.13 92.08-183.46 97.33-178.32 109.13-167.02 116.2-151.53 119.73-135.76 121.82-124.57 122.98-112.97 120.7-101.71 117.43-105.15 114.73-109.16 110.9-112.05 104.15-117.29 95.38-120.54 86.78-118.95 78.04-117.73 70.82-111.61 66.09-104.45 59.75-94.8 57.4-83.13 56.74-71.77 49.48-80.37 39.46-87.71 27.73-87.68 17.28-88.38 7.63-82.24 1.53-74.14-6.61-63.83-9.2-50.48-10.62-37.74-7.95-24.95-3.88-12.47 0 0" fill="#9c6d52"/>
<path transform="matrix(1,0,0,-1,1043.93,434.84004)" d="M0 0C11.97 4.74 24.56 8.48 37.53 8.75 41.23 1.82 43.65-5.7 46.42-13.03 52.03-28.86 56.96-44.92 61.3-61.15 61.73-63.2 62.59-65.24 62.46-67.37 60.45-76.89 59.64-86.99 54.54-95.55 49.05-105.92 39.36-115.35 27.07-116.04 14.36-117.35 3-109.48-5-100.35-5.54-113.69-9.33-127.57-18.31-137.76-25.06-145.75-36.49-149.67-46.62-146.71-52.02-145.07-57.15-142.33-61.3-138.49-64.25-135.88-66.45-132.58-69.33-129.92-71.95-146.11-69.5-162.82-63.97-178.16-59.56-189.41-53.18-200.15-44.04-208.21-37.65-213.52-29.28-216.98-20.87-216.11-13.56-215.5-6.72-211.62-2.08-206 6.1-196.72 9.15-184.04 9.51-171.95 13.85-182.29 20.46-192.09 30.15-198.09 38.31-203.34 49.26-204.43 58.02-200 65.8-196.05 71.29-188.67 74.69-180.81 76.59-176.82 76.72-172.29 78.47-168.24 81.21-202.42 78.79-236.77 74.82-270.73 74.24-266.81 73.49-262.92 72.95-259 70.95-266.99 69.3-275.2 65.4-282.55 61.02-291.52 53.73-300.03 43.7-302.56 35.37-304.99 26.27-301.85 20.06-296.1 8.18-285.22 4.35-268.66 2.73-253.25-.12-262.84-4.91-271.98-12.06-279.06-17.64-284.37-25.11-288.08-32.94-287.85-42.33-287.72-50.97-282.17-56.29-274.64-65.28-262.16-68.93-246.48-68.78-231.26-90.45-256.98-94.29-294.83-82.29-325.7-78.14-336.02-71.93-346.58-61.45-351.46-52.54-355.88-41.56-354.16-33.62-348.47-26.86-344.19-22.52-337.33-18.45-330.65-19.05-347.48-15.76-365.52-4.36-378.54 3.04-387.42 15.84-391.74 26.95-387.98 39.07-384.02 48.07-373.95 53.93-362.97 54.06-363.45 54.31-364.42 54.44-364.91 44.9-391.97 35.14-419.13 21.48-444.46 17.92-451.11 14.35-457.85 9.55-463.71 7.48-466.08 5.1-468.5 1.9-469.15-4.29-469.87-9.73-465.99-14.78-462.97-29.47-452.97-41.7-439.84-53.07-426.3-90.03-380.92-115.6-326.46-127.74-269.24-133.63-240.38-136.39-210.53-132.11-181.24-127.78-151.28-117.85-122.09-102.67-95.89-92.52-77.63-79.81-60.8-65.25-45.84-46.69-26.62-24.77-10.3 0 0" fill="#9c6d52"/>
<path transform="matrix(1,0,0,-1,133.77,574.44)" d="M0 0C3.18 24.74 7.59 49.37 13.83 73.52 15.25 60.78 17.84 47.43 25.98 37.12 32.08 29.02 41.73 22.88 52.18 23.58 63.91 23.55 73.93 30.89 81.19 39.49 81.85 28.13 84.2 16.46 90.54 6.81 95.27-.35 102.49-6.47 111.23-7.69 119.83-9.28 128.6-6.03 135.35-.79 139.18 2.1 141.88 6.11 145.15 9.55 147.43-1.71 146.27-13.31 144.18-24.5 140.65-40.27 133.58-55.76 121.78-67.06 116.53-72.2 109.66-75.87 102.25-76.48 93.69-77.56 85.01-73.86 79.26-67.56 70.34-58.23 67.15-44.96 66.66-32.4 64.13-36.76 62.45-41.61 59.34-45.63 55.3-50.89 50.68-55.92 44.77-59.09 37.49-63.36 28.26-64.37 20.33-61.36 12.05-57.86 5.44-50.94 2.09-42.62-.14-38.61-.32-33.79-2.84-29.95L-3.02-29.64C-1.83-19.79-1.31-9.85 0 0" fill="#d49868"/>
<path transform="matrix(1,0,0,-1,1098.47,530.39)" d="M0 0C5.1 8.56 5.91 18.66 7.92 28.18 10.61 20.8 11.54 12.9 13.46 5.29 18.34-19.48 22.41-44.47 24.01-69.69 24.1-70.69 24.07-71.69 23.93-72.69 22.18-76.74 22.05-81.27 20.15-85.26 16.75-93.12 11.26-100.5 3.48-104.45-5.28-108.88-16.23-107.79-24.39-102.54-34.08-96.54-40.69-86.74-45.03-76.4-45.39-88.49-48.44-101.17-56.62-110.45-61.26-116.07-68.1-119.95-75.41-120.56-83.82-121.43-92.19-117.97-98.58-112.66-107.72-104.6-114.1-93.86-118.51-82.61-124.04-67.27-126.49-50.56-123.87-34.37-120.99-37.03-118.79-40.33-115.84-42.94-111.69-46.78-106.56-49.52-101.16-51.16-91.03-54.12-79.6-50.2-72.85-42.21-63.87-32.02-60.08-18.14-59.54-4.8-51.54-13.93-40.18-21.8-27.47-20.49-15.18-19.8-5.49-10.37 0 0" fill="#d49868"/>
<path transform="matrix(1,0,0,-1,278.61,665.88)" d="M0 0C21.79-25.94 25.57-63.94 13.5-95.02 9.39-104.71 3.68-114.6-5.94-119.69-13.84-124.34-24.04-123.8-31.93-119.42-40.21-115.13-45.97-107.47-50.35-99.45-49.77-114.71-52.64-130.62-61.2-143.51-66.86-151.86-76.29-158.37-86.65-158.32-95.64-158.37-104-153.88-110.57-148.03-116-143.13-119.8-136.82-123.54-130.62-127.42-120.1-129.99-109.1-132.81-98.25-137.33-78.86-141.32-59.3-143.42-39.49-142.81-35.62-142.14-31.77-141.47-27.92-139.15-36.83-137.39-46.07-132.68-54.12-128.16-62.47-120.69-69.93-111.08-71.81-101.66-73.96-91.76-69.27-85.72-62.08-76.3-51-72.31-36.27-71.61-21.98-68.78-31.23-64.19-40.05-57.59-47.17-51.6-53.17-43.26-57.51-34.58-56.73-24.69-56.44-16.44-49.54-11.11-41.7-3.17-29.4 .23-14.54 0 0" fill="#f9dab1"/>
<path transform="matrix(1,0,0,-1,961.64,760.54006)" d="M0 0C-12 30.87-8.16 68.72 13.51 94.44 13.36 79.22 17.01 63.54 26 51.06 31.32 43.53 39.96 37.98 49.35 37.85 57.18 37.62 64.65 41.33 70.23 46.64 77.38 53.72 82.17 62.86 85.02 72.45 86.64 57.04 90.47 40.48 102.35 29.6 108.56 23.85 117.66 20.71 125.99 23.14 136.02 25.67 143.31 34.18 147.69 43.15 151.59 50.5 153.24 58.71 155.24 66.7 155.78 62.78 156.53 58.89 157.11 54.97 154.53 32.83 149.99 10.96 144.7-10.68 142.33-20.27 139.02-29.62 136.73-39.21 136.6-38.72 136.35-37.75 136.22-37.27 130.36-48.25 121.36-58.32 109.24-62.28 98.13-66.04 85.33-61.72 77.93-52.84 66.53-39.82 63.24-21.78 63.84-4.95 59.77-11.63 55.43-18.49 48.67-22.77 40.73-28.46 29.75-30.18 20.84-25.76 10.36-20.88 4.15-10.32 0 0" fill="#f9dbb2"/>
<path transform="matrix(1,0,0,-1,812.35,912.36)" d="M0 0C1.52 .46 2.99-.43 4.42-.89 22.08-7.8 42.36-8.1 59.98-.88 61.69-.28 63.53 .69 65.38 .01 67.15-1.83 66.13-4.5 65.6-6.64 62.34-18.04 54.56-28.79 43.26-33.2 38.06-35.47 32.15-35.91 26.63-34.76 14.76-32.14 5.24-22.49 1.04-11.32 .2-7.82-2.88-3.12 0 0" fill="#fbe8ce"/>
<path transform="matrix(1,0,0,-1,379.19,913.38)" d="M0 0C6.98-2.55 14-5.29 21.47-6.04 35.39-8.39 49.52-5.21 62.54-.28 64.33 .68 65.9-1.88 65.39-3.5 63.81-14.98 56.59-25.42 46.79-31.5 38.86-36.53 28.36-37.63 19.77-33.61 8.08-28.66 .32-16.89-2.11-4.72-2.77-2.94-2.02-.4 0 0" fill="#fbe8cf"/>
<path transform="matrix(1,0,0,-1,469.89,915.14)" d="M0 0C18.54-7.47 39.75-5.84 57.92 1.91 58.86 .87 60.34-.1 59.8-1.75 57.93-11.94 52.47-21.63 44.24-28.04 36.75-33.3 26.94-35.76 18.02-33.05 10.28-31.23 4.38-25.43-.47-19.46-4.03-13.96-6.81-7.68-7.39-1.11-6.94 2.94-2.38 .96 0 0" fill="#f7d5a8"/>
<path transform="matrix(1,0,0,-1,728.5,913.43)" d="M0 0C3.37 .28 6.3-1.73 9.46-2.57 26.28-8.42 45.17-7.48 61.49-.48 63.13 .62 65.52 .13 66.1-1.92 66.17-7.39 63.6-12.45 61.17-17.2 56.63-25.13 49.42-32.01 40.43-34.41 33.76-36.26 26.37-35.91 20.11-32.85 9.02-27.67 1.55-16.43-.69-4.59-1.2-2.99-.54-1.46 0 0" fill="#f7d6aa"/>
<path transform="matrix(1,0,0,-1,551.11,945.16006)" d="M0 0C11.78-4.37 24.26-7.77 36.94-6.59 45.41-6.16 53.49-3.44 61.3-.34 63.48 1.02 65.68-1.77 64.84-3.88 63.68-10.88 60.13-17.3 56.01-22.99 49.08-32.04 37.2-37.44 25.83-35.18 11-32.22 .45-18.11-1.81-3.7-2.3-2.11-.88-1.05 0 0" fill="#f7d6aa"/>
<path transform="matrix(1,0,0,-1,641.39,945.44)" d="M0 0C1.2 .47 2.44-.12 3.59-.5 15.83-5.58 29.47-7.6 42.6-5.55 49.32-4.67 55.73-2.37 62.04-.02 63.99 .84 65.85-1.6 65.3-3.44 63.91-12.06 59.28-20.02 53.19-26.19 45.97-33.03 35.45-36.99 25.58-34.53 17.84-32.92 11.35-27.8 6.43-21.82 2.88-17.12 .77-11.5-.9-5.91-1.31-4.02-2.06-1.1 0 0" fill="#f7d5a9"/>
<path transform="matrix(1,0,0,-1,778.39,974.32998)" d="M0 0C1.25 1.67 3.43 .17 5.01-.13 16.39-4.27 28.62-6.56 40.73-5.09 47.61-4.15 54.42-2.57 60.9-.03 62.31 .27 64.21 1.58 65.42 .15 66.81-.76 66.19-2.65 66.05-4.02 63.88-13.88 58.42-23.28 50-29.07 43.66-33.69 35.43-35.68 27.69-34.3 18.87-32.97 11.5-26.9 6.45-19.82 2.86-14.36-.26-8.23-.59-1.6-.44-1.2-.15-.4 0 0" fill="#cb9e73"/>
<path transform="matrix(1,0,0,-1,413.32,978.32)" d="M0 0C1.56 .77 3.27-.18 4.79-.64 20.22-6.89 37.91-8.09 53.79-2.8 57.15-1.78 60.35-.28 63.75 .6 65.87 .45 66.35-2.02 65.9-3.74 63.17-17.48 53.26-30.37 39.45-34.27 27.76-37.77 15.02-31.93 7.72-22.68 3.64-17.24 .18-11.09-.92-4.32-.99-2.83-1.69-.81 0 0" fill="#cda175"/>
<path transform="matrix(1,0,0,-1,687.34,995.32998)" d="M0 0C3.05 1.68 6.24-1.41 9.34-1.97 26.64-7.65 45.95-6.49 62.69 .52 65.23 1.73 66.68-1.74 65.88-3.73 64.58-9.46 61.89-14.82 58.85-19.82 51.84-30.47 38.22-37.04 25.58-33.82 12.93-30.59 3.58-19.31 .35-6.99-.18-4.72-1.05-2.24 0 0" fill="#cc9f74"/>
<path transform="matrix(1,0,0,-1,505.17,997.45999)" d="M0 0C5.62-1.7 11.01-4.23 16.85-5.19 31.19-8.34 46.33-6.22 59.71-.38 61.54 .78 64.49 .09 64.2-2.56 62.19-17.36 51.3-31.3 36.52-35.03 28.04-37.12 19.03-34.28 12.23-29.08 5.04-23.97 .56-15.81-1.88-7.49-2.41-5.07-3.59-.41 0 0" fill="#cca074"/>
<path transform="matrix(1,0,0,-1,595.36,1003.31)" d="M0 0C2.3 1.18 4.68-.79 6.93-1.33 24.17-8.13 44.01-7.45 60.98-.19 62.56 .74 65.32 .66 65.5-1.64 65.74-5.78 63.87-9.69 62.37-13.47 57.25-24.97 46.18-34.58 33.23-35.22 27.01-35.16 20.73-33.33 15.54-29.88 6.79-23.42 .47-13.53-.93-2.67-.93-1.67-.62-.78 0 0" fill="#cb9f74"/>
<path transform="matrix(1,0,0,-1,445.3,1061.3)" d="M0 0C27.44 18.49 66.99 16.41 92.18-5.09 108.04-18.32 117.13-39.13 116.36-59.74 116.4-65.9 115.8-72.24 113-77.83 109.44-85.52 101.23-90.56 92.75-90.19 81.14-90.31 71.11-81.78 66.46-71.63 64.96-78.58 61.25-85.16 55.64-89.6 47.55-95.68 35.63-95.8 27.29-90.14 20.61-85.26 16.95-77.31 15.82-69.28 10.82-76.52 3.51-82.47-5.32-84.08-12.46-85.02-20.49-83.38-25.49-77.87-30.84-72.3-32.57-64.25-32.53-56.76-32.17-50.15-31.27-43.49-28.84-37.31-23.52-22.24-13.47-8.71 0 0" fill="#e0a555"/>
<path transform="matrix(1,0,0,-1,755.92,1049.6)" d="M0 0C18.56 2.98 38.29-.3 54.45-10.05 68.38-18.45 79.18-31.61 85.03-46.78 88.73-57.61 90.79-69.84 86.8-80.88 83.7-89.79 74.28-95.53 64.99-95.02 54.99-94.9 46.28-88.39 40.8-80.42 39.92-86.96 37.34-93.38 32.94-98.35 27.08-104.74 17.49-107.42 9.17-104.98-.71-102.52-8.11-93.33-9.71-83.5-9.98-83.71-10.53-84.15-10.81-84.36-15.42-92.67-23.18-99.98-32.88-101.45-42.96-103.55-53.43-97.55-57.64-88.35-64.07-69.15-59.66-47.32-48.67-30.63-37.89-13.96-19.43-3.1 0 0" fill="#e0a556"/>
</g>
</g>
</svg>
